<?xml version="1.0" encoding="utf-8"?>
<!-- Generator: Adobe Illustrator 16.0.0, SVG Export Plug-In . SVG Version: 6.00 Build 0)  -->
<!DOCTYPE svg PUBLIC "-//W3C//DTD SVG 1.1//EN" "http://www.w3.org/Graphics/SVG/1.1/DTD/svg11.dtd">
<svg version="1.1" id="Layer_1" xmlns="http://www.w3.org/2000/svg" xmlns:xlink="http://www.w3.org/1999/xlink" x="0px" y="0px"
	 width="168px" height="122px" viewBox="0 0 168 122" enable-background="new 0 0 168 122" xml:space="preserve">
<g>
	<g>
		<path fill="#231F20" d="M27.8,14.1c0,3.5-2.8,6.3-6.3,6.3c-3.5,0-6.3-2.8-6.3-6.3c0-3.5,2.8-6.3,6.3-6.3
			C25,7.8,27.8,10.6,27.8,14.1"/>
		<circle fill="none" stroke="#231F20" stroke-width="0.438" stroke-miterlimit="10" cx="21.5" cy="14.1" r="6.3"/>
	</g>
	<text transform="matrix(1 0 0 1 18.3589 17.6357)" fill="#FFFFFF" font-family="'Arial-BoldMT'" font-size="10.6111">1</text>
	
		<line fill="none" stroke="#231F20" stroke-width="0.472" stroke-linecap="round" stroke-linejoin="round" stroke-miterlimit="10" x1="120.7" y1="53.3" x2="120.9" y2="57.6"/>
	
		<polyline fill="none" stroke="#231F20" stroke-width="0.472" stroke-linecap="round" stroke-linejoin="round" stroke-miterlimit="10" points="
		120.3,52.6 119.9,52 119.6,51.3 119.3,50.6 119.2,50.2 	"/>
	
		<polyline fill="none" stroke="#231F20" stroke-width="0.472" stroke-linecap="round" stroke-linejoin="round" stroke-miterlimit="10" points="
		120.7,53.3 120.6,53.1 120.5,53 	"/>
	
		<line fill="none" stroke="#231F20" stroke-width="0.472" stroke-linecap="round" stroke-linejoin="round" stroke-miterlimit="10" x1="76.1" y1="56.7" x2="76.1" y2="57.6"/>
	
		<line fill="none" stroke="#231F20" stroke-width="0.472" stroke-linecap="round" stroke-linejoin="round" stroke-miterlimit="10" x1="75.5" y1="57.6" x2="75.5" y2="56.7"/>
	
		<line fill="none" stroke="#231F20" stroke-width="0.472" stroke-linecap="round" stroke-linejoin="round" stroke-miterlimit="10" x1="46.1" y1="44.7" x2="46" y2="44.8"/>
	
		<line fill="none" stroke="#231F20" stroke-width="0.472" stroke-linecap="round" stroke-linejoin="round" stroke-miterlimit="10" x1="110.3" y1="31" x2="113.5" y2="33.7"/>
	
		<line fill="none" stroke="#231F20" stroke-width="0.472" stroke-linecap="round" stroke-linejoin="round" stroke-miterlimit="10" x1="120.5" y1="53" x2="120.3" y2="52.6"/>
	
		<line fill="none" stroke="#231F20" stroke-width="0.472" stroke-linecap="round" stroke-linejoin="round" stroke-miterlimit="10" x1="54.7" y1="31" x2="51.4" y2="33.7"/>
	
		<line fill="none" stroke="#231F20" stroke-width="0.472" stroke-linecap="round" stroke-linejoin="round" stroke-miterlimit="10" x1="44.3" y1="52.6" x2="44" y2="57.6"/>
	
		<line fill="none" stroke="#231F20" stroke-width="0.472" stroke-linecap="round" stroke-linejoin="round" stroke-miterlimit="10" x1="109.9" y1="30.9" x2="55.1" y2="30.8"/>
	
		<line fill="none" stroke="#231F20" stroke-width="0.472" stroke-linecap="round" stroke-linejoin="round" stroke-miterlimit="10" x1="119.8" y1="52.7" x2="76.9" y2="52.7"/>
	
		<line fill="none" stroke="#231F20" stroke-width="0.472" stroke-linecap="round" stroke-linejoin="round" stroke-miterlimit="10" x1="44.3" y1="52.6" x2="74.8" y2="52.7"/>
	
		<line fill="none" stroke="#231F20" stroke-width="0.472" stroke-linecap="round" stroke-linejoin="round" stroke-miterlimit="10" x1="120.9" y1="57.6" x2="44" y2="57.6"/>
	<g>
		
			<path fill="none" stroke="#231F20" stroke-width="0.472" stroke-linecap="round" stroke-linejoin="round" stroke-miterlimit="10" d="
			M46.2,44.6c1-0.9,1.7-2,2.2-3.2"/>
		
			<path fill="none" stroke="#231F20" stroke-width="0.472" stroke-linecap="round" stroke-linejoin="round" stroke-miterlimit="10" d="
			M46.2,44.6c-0.1,0.1-0.2,0.2-0.3,0.4"/>
		
			<path fill="none" stroke="#231F20" stroke-width="0.472" stroke-linecap="round" stroke-linejoin="round" stroke-miterlimit="10" d="
			M51.4,33.7c-0.1,0.1-0.2,0.2-0.3,0.4"/>
		
			<path fill="none" stroke="#231F20" stroke-width="0.472" stroke-linecap="round" stroke-linejoin="round" stroke-miterlimit="10" d="
			M113.8,34.1c-0.1-0.1-0.1-0.3-0.3-0.4"/>
		
			<path fill="none" stroke="#231F20" stroke-width="0.472" stroke-linecap="round" stroke-linejoin="round" stroke-miterlimit="10" d="
			M55.1,30.8c-0.1,0-0.3,0-0.4,0.1"/>
		
			<path fill="none" stroke="#231F20" stroke-width="0.472" stroke-linecap="round" stroke-linejoin="round" stroke-miterlimit="10" d="
			M110.3,31c-0.1-0.1-0.2-0.1-0.4-0.1"/>
		
			<path fill="none" stroke="#231F20" stroke-width="0.472" stroke-linecap="round" stroke-linejoin="round" stroke-miterlimit="10" d="
			M45.9,45c-0.8,2.5-1.3,5-1.6,7.6"/>
		
			<path fill="none" stroke="#231F20" stroke-width="0.472" stroke-linecap="round" stroke-linejoin="round" stroke-miterlimit="10" d="
			M74,54.3c0,0.2,0,0.4,0.1,0.6"/>
		
			<path fill="none" stroke="#231F20" stroke-width="0.472" stroke-linecap="round" stroke-linejoin="round" stroke-miterlimit="10" d="
			M77.6,54.8c0.1-0.2,0.1-0.3,0.1-0.5"/>
		
			<path fill="none" stroke="#231F20" stroke-width="0.472" stroke-linecap="round" stroke-linejoin="round" stroke-miterlimit="10" d="
			M77.7,54.3c0-0.2,0-0.4-0.1-0.5"/>
		
			<path fill="none" stroke="#231F20" stroke-width="0.472" stroke-linecap="round" stroke-linejoin="round" stroke-miterlimit="10" d="
			M77.6,53.8c-0.1-0.2-0.1-0.4-0.2-0.5"/>
		
			<path fill="none" stroke="#231F20" stroke-width="0.472" stroke-linecap="round" stroke-linejoin="round" stroke-miterlimit="10" d="
			M75,52.7c0,0-0.1,0-0.1,0.1"/>
		
			<path fill="none" stroke="#231F20" stroke-width="0.472" stroke-linecap="round" stroke-linejoin="round" stroke-miterlimit="10" d="
			M75.3,52.5c-0.1,0-0.2,0.1-0.4,0.2"/>
		
			<path fill="none" stroke="#231F20" stroke-width="0.472" stroke-linecap="round" stroke-linejoin="round" stroke-miterlimit="10" d="
			M77.4,53.3c-0.1-0.2-0.2-0.3-0.4-0.4"/>
		
			<path fill="none" stroke="#231F20" stroke-width="0.472" stroke-linecap="round" stroke-linejoin="round" stroke-miterlimit="10" d="
			M74.2,54.3c0,0.1,0,0.2,0,0.3"/>
		
			<path fill="none" stroke="#231F20" stroke-width="0.472" stroke-linecap="round" stroke-linejoin="round" stroke-miterlimit="10" d="
			M77,52.8c0,0-0.1-0.1-0.1-0.1"/>
		
			<path fill="none" stroke="#231F20" stroke-width="0.472" stroke-linecap="round" stroke-linejoin="round" stroke-miterlimit="10" d="
			M76.9,52.8c-0.1-0.1-0.3-0.2-0.5-0.2"/>
		
			<path fill="none" stroke="#231F20" stroke-width="0.472" stroke-linecap="round" stroke-linejoin="round" stroke-miterlimit="10" d="
			M76.3,52.5c-0.1,0-0.2,0-0.3,0"/>
		
			<path fill="none" stroke="#231F20" stroke-width="0.472" stroke-linecap="round" stroke-linejoin="round" stroke-miterlimit="10" d="
			M76,56.1c0.1,0,0.2,0,0.3,0"/>
		
			<path fill="none" stroke="#231F20" stroke-width="0.472" stroke-linecap="round" stroke-linejoin="round" stroke-miterlimit="10" d="
			M76.5,52.6c-0.1,0-0.1,0-0.2,0"/>
		
			<path fill="none" stroke="#231F20" stroke-width="0.472" stroke-linecap="round" stroke-linejoin="round" stroke-miterlimit="10" d="
			M76.4,56.1c0,0,0.1,0,0.1,0"/>
		
			<path fill="none" stroke="#231F20" stroke-width="0.472" stroke-linecap="round" stroke-linejoin="round" stroke-miterlimit="10" d="
			M76.9,54.5c0-0.1,0-0.1,0-0.2"/>
		
			<path fill="none" stroke="#231F20" stroke-width="0.472" stroke-linecap="round" stroke-linejoin="round" stroke-miterlimit="10" d="
			M75.7,55.2c0.3,0.1,0.6,0.1,0.8-0.1"/>
		
			<path fill="none" stroke="#231F20" stroke-width="0.472" stroke-linecap="round" stroke-linejoin="round" stroke-miterlimit="10" d="
			M75.3,54.2c0,0,0,0.1,0,0.1"/>
		
			<path fill="none" stroke="#231F20" stroke-width="0.472" stroke-linecap="round" stroke-linejoin="round" stroke-miterlimit="10" d="
			M76.8,54.5c0,0,0-0.1,0-0.1"/>
		
			<path fill="none" stroke="#231F20" stroke-width="0.472" stroke-linecap="round" stroke-linejoin="round" stroke-miterlimit="10" d="
			M75.5,54.8c0,0,0.1,0.1,0.1,0.1"/>
		
			<path fill="none" stroke="#231F20" stroke-width="0.472" stroke-linecap="round" stroke-linejoin="round" stroke-miterlimit="10" d="
			M75.7,53.7c0,0-0.1,0.1-0.1,0.1"/>
		
			<path fill="none" stroke="#231F20" stroke-width="0.472" stroke-linecap="round" stroke-linejoin="round" stroke-miterlimit="10" d="
			M76.1,55C76.1,55,76.1,55,76.1,55"/>
		
			<path fill="none" stroke="#231F20" stroke-width="0.472" stroke-linecap="round" stroke-linejoin="round" stroke-miterlimit="10" d="
			M76.1,53.6C76.1,53.6,76.1,53.6,76.1,53.6"/>
		
			<path fill="none" stroke="#231F20" stroke-width="0.472" stroke-linecap="round" stroke-linejoin="round" stroke-miterlimit="10" d="
			M76.1,55.1C76.1,55.1,76.1,55.1,76.1,55.1"/>
		
			<path fill="none" stroke="#231F20" stroke-width="0.472" stroke-linecap="round" stroke-linejoin="round" stroke-miterlimit="10" d="
			M76.4,56.1c-0.2,0.1-0.5,0.1-0.7,0.1c-0.2,0-0.5-0.1-0.7-0.2c-0.2-0.1-0.4-0.3-0.5-0.4c-0.2-0.2-0.3-0.4-0.3-0.6"/>
		
			<path fill="none" stroke="#231F20" stroke-width="0.472" stroke-linecap="round" stroke-linejoin="round" stroke-miterlimit="10" d="
			M76.1,53.6c0.2,0,0.3,0.1,0.5,0.2"/>
		
			<path fill="none" stroke="#231F20" stroke-width="0.472" stroke-linecap="round" stroke-linejoin="round" stroke-miterlimit="10" d="
			M76.6,53.8c0.1,0.1,0.2,0.3,0.2,0.5"/>
		
			<path fill="none" stroke="#231F20" stroke-width="0.472" stroke-linecap="round" stroke-linejoin="round" stroke-miterlimit="10" d="
			M113.8,34.1c0.5,1.3,1.1,2.7,1.6,4c1.5,4,2.9,8,3.9,12.1"/>
		
			<path fill="none" stroke="#231F20" stroke-width="0.472" stroke-linecap="round" stroke-linejoin="round" stroke-miterlimit="10" d="
			M51.2,34c-0.2,0.6-0.5,1.2-0.7,1.8c-0.7,1.8-1.4,3.7-2.1,5.5"/>
		
			<path fill="none" stroke="#231F20" stroke-width="0.472" stroke-linecap="round" stroke-linejoin="round" stroke-miterlimit="10" d="
			M75.5,56.7c0-0.1,0-0.2,0.1-0.2"/>
		
			<path fill="none" stroke="#231F20" stroke-width="0.472" stroke-linecap="round" stroke-linejoin="round" stroke-miterlimit="10" d="
			M75.6,56.5c0.1-0.1,0.2-0.1,0.3-0.1c0.1,0,0.2,0.1,0.2,0.2"/>
		
			<path fill="none" stroke="#231F20" stroke-width="0.472" stroke-linecap="round" stroke-linejoin="round" stroke-miterlimit="10" d="
			M76.1,56.6C76.1,56.7,76.1,56.7,76.1,56.6"/>
		
			<path fill="none" stroke="#231F20" stroke-width="0.472" stroke-linecap="round" stroke-linejoin="round" stroke-miterlimit="10" d="
			M76.8,54.5c0,0.1-0.1,0.3-0.2,0.4"/>
		
			<path fill="none" stroke="#231F20" stroke-width="0.472" stroke-linecap="round" stroke-linejoin="round" stroke-miterlimit="10" d="
			M76.6,54.8C76.5,55,76.3,55,76.1,55"/>
		
			<path fill="none" stroke="#231F20" stroke-width="0.472" stroke-linecap="round" stroke-linejoin="round" stroke-miterlimit="10" d="
			M77.6,54.8c-0.1,0.3-0.2,0.6-0.5,0.8c-0.2,0.2-0.5,0.4-0.8,0.5"/>
		
			<path fill="none" stroke="#231F20" stroke-width="0.472" stroke-linecap="round" stroke-linejoin="round" stroke-miterlimit="10" d="
			M75.3,52.5c0.1,0,0.2-0.1,0.3-0.1c0.3,0,0.6,0,0.8,0.1"/>
		
			<path fill="none" stroke="#231F20" stroke-width="0.472" stroke-linecap="round" stroke-linejoin="round" stroke-miterlimit="10" d="
			M76.1,55.1c-0.1,0-0.3,0-0.4-0.1"/>
		
			<path fill="none" stroke="#231F20" stroke-width="0.472" stroke-linecap="round" stroke-linejoin="round" stroke-miterlimit="10" d="
			M75.5,54.8c-0.1-0.1-0.2-0.3-0.2-0.5"/>
		
			<path fill="none" stroke="#231F20" stroke-width="0.472" stroke-linecap="round" stroke-linejoin="round" stroke-miterlimit="10" d="
			M74.9,52.8C74.8,52.8,74.8,52.7,74.9,52.8C74.8,52.7,74.8,52.7,74.9,52.8"/>
		
			<path fill="none" stroke="#231F20" stroke-width="0.472" stroke-linecap="round" stroke-linejoin="round" stroke-miterlimit="10" d="
			M76.9,52.7C76.9,52.7,76.9,52.7,76.9,52.7C76.9,52.7,76.9,52.8,76.9,52.7"/>
		
			<path fill="none" stroke="#231F20" stroke-width="0.472" stroke-linecap="round" stroke-linejoin="round" stroke-miterlimit="10" d="
			M119.8,52.7C119.9,52.7,119.9,52.7,119.8,52.7"/>
		
			<path fill="none" stroke="#231F20" stroke-width="0.472" stroke-linecap="round" stroke-linejoin="round" stroke-miterlimit="10" d="
			M119.9,52.8c0.2,0.1,0.3,0.2,0.5,0.4c0.1,0,0.1,0.1,0.2,0.1"/>
	</g>
	
		<line fill="none" stroke="#231F20" stroke-width="0.472" stroke-linecap="round" stroke-linejoin="round" stroke-miterlimit="10" x1="120.7" y1="53.3" x2="120.7" y2="53.3"/>
	<g>
		
			<path fill="none" stroke="#231F20" stroke-width="0.472" stroke-linecap="round" stroke-linejoin="round" stroke-miterlimit="10" d="
			M76,52.5c-0.2,0-0.4,0-0.6,0.1"/>
		
			<path fill="none" stroke="#231F20" stroke-width="0.472" stroke-linecap="round" stroke-linejoin="round" stroke-miterlimit="10" d="
			M75.4,52.6c-0.3,0.1-0.6,0.4-0.8,0.7c-0.2,0.3-0.3,0.7-0.3,1"/>
		
			<path fill="none" stroke="#231F20" stroke-width="0.472" stroke-linecap="round" stroke-linejoin="round" stroke-miterlimit="10" d="
			M74.3,54.6c0.1,0.4,0.3,0.8,0.6,1.1c0.3,0.3,0.7,0.4,1.1,0.4"/>
		
			<path fill="none" stroke="#231F20" stroke-width="0.472" stroke-linecap="round" stroke-linejoin="round" stroke-miterlimit="10" d="
			M76.9,54.5c0,0.1-0.1,0.2-0.1,0.3"/>
		
			<path fill="none" stroke="#231F20" stroke-width="0.472" stroke-linecap="round" stroke-linejoin="round" stroke-miterlimit="10" d="
			M76.8,54.8c-0.1,0.1-0.2,0.2-0.3,0.3"/>
		
			<path fill="none" stroke="#231F20" stroke-width="0.472" stroke-linecap="round" stroke-linejoin="round" stroke-miterlimit="10" d="
			M75.7,55.2c-0.2-0.1-0.3-0.2-0.4-0.3"/>
		
			<path fill="none" stroke="#231F20" stroke-width="0.472" stroke-linecap="round" stroke-linejoin="round" stroke-miterlimit="10" d="
			M75.3,54.8c-0.1-0.2-0.2-0.3-0.2-0.5"/>
		
			<path fill="none" stroke="#231F20" stroke-width="0.472" stroke-linecap="round" stroke-linejoin="round" stroke-miterlimit="10" d="
			M75.1,54.3c0-0.2,0-0.3,0.1-0.5c0.1-0.1,0.2-0.3,0.4-0.3c0.1-0.1,0.3-0.1,0.5-0.1c0.2,0,0.3,0.1,0.5,0.1"/>
		
			<path fill="none" stroke="#231F20" stroke-width="0.472" stroke-linecap="round" stroke-linejoin="round" stroke-miterlimit="10" d="
			M76.5,53.5c0.1,0.1,0.2,0.2,0.3,0.3"/>
		
			<path fill="none" stroke="#231F20" stroke-width="0.472" stroke-linecap="round" stroke-linejoin="round" stroke-miterlimit="10" d="
			M76.8,53.8c0.1,0.2,0.2,0.3,0.2,0.5"/>
		
			<path fill="none" stroke="#231F20" stroke-width="0.472" stroke-linecap="round" stroke-linejoin="round" stroke-miterlimit="10" d="
			M75.3,54.2c0-0.1,0.1-0.3,0.2-0.4"/>
		
			<path fill="none" stroke="#231F20" stroke-width="0.472" stroke-linecap="round" stroke-linejoin="round" stroke-miterlimit="10" d="
			M75.7,53.7c0.1-0.1,0.3-0.1,0.4-0.1"/>
		
			<path fill="none" stroke="#231F20" stroke-width="0.472" stroke-linecap="round" stroke-linejoin="round" stroke-miterlimit="10" d="
			M75.8,53.6c-0.4,0.2-0.5,0.6-0.4,1c0.1,0.2,0.3,0.4,0.6,0.4"/>
	</g>
	
		<line fill="none" stroke="#231F20" stroke-width="0.472" stroke-linecap="round" stroke-linejoin="round" stroke-miterlimit="10" x1="120.6" y1="57.9" x2="120.6" y2="57.6"/>
	
		<line fill="none" stroke="#231F20" stroke-width="0.472" stroke-linecap="round" stroke-linejoin="round" stroke-miterlimit="10" x1="120.9" y1="57.9" x2="119.9" y2="64.3"/>
	
		<line fill="none" stroke="#231F20" stroke-width="0.472" stroke-linecap="round" stroke-linejoin="round" stroke-miterlimit="10" x1="75.5" y1="60.3" x2="75.6" y2="60.6"/>
	
		<polyline fill="none" stroke="#231F20" stroke-width="0.472" stroke-linecap="round" stroke-linejoin="round" stroke-miterlimit="10" points="
		75.5,58.2 75.5,58.7 75.5,59.3 75.5,59.8 75.5,60.3 	"/>
	
		<line fill="none" stroke="#231F20" stroke-width="0.472" stroke-linecap="round" stroke-linejoin="round" stroke-miterlimit="10" x1="75.5" y1="57.9" x2="75.5" y2="58.2"/>
	
		<polyline fill="none" stroke="#231F20" stroke-width="0.472" stroke-linecap="round" stroke-linejoin="round" stroke-miterlimit="10" points="
		75.6,60.6 75.6,60.7 75.6,60.7 	"/>
	
		<line fill="none" stroke="#231F20" stroke-width="0.472" stroke-linecap="round" stroke-linejoin="round" stroke-miterlimit="10" x1="44.4" y1="57.6" x2="44.4" y2="57.9"/>
	
		<polyline fill="none" stroke="#231F20" stroke-width="0.472" stroke-linecap="round" stroke-linejoin="round" stroke-miterlimit="10" points="
		75.6,60.7 75.6,60.8 75.7,60.8 75.7,60.9 75.8,60.9 	"/>
	
		<line fill="none" stroke="#231F20" stroke-width="0.472" stroke-linecap="round" stroke-linejoin="round" stroke-miterlimit="10" x1="44.7" y1="62.7" x2="45" y2="64.2"/>
	
		<line fill="none" stroke="#231F20" stroke-width="0.472" stroke-linecap="round" stroke-linejoin="round" stroke-miterlimit="10" x1="120.9" y1="57.9" x2="44.1" y2="57.9"/>
	
		<line fill="none" stroke="#231F20" stroke-width="0.472" stroke-linecap="round" stroke-linejoin="round" stroke-miterlimit="10" x1="75.8" y1="60.9" x2="75.9" y2="60.9"/>
	
		<line fill="none" stroke="#231F20" stroke-width="0.472" stroke-linecap="round" stroke-linejoin="round" stroke-miterlimit="10" x1="44.7" y1="62.7" x2="44.7" y2="62.7"/>
	
		<line fill="none" stroke="#231F20" stroke-width="0.472" stroke-linecap="round" stroke-linejoin="round" stroke-miterlimit="10" x1="75.9" y1="60.9" x2="75.9" y2="60.9"/>
	<g>
		
			<path fill="none" stroke="#231F20" stroke-width="0.472" stroke-linecap="round" stroke-linejoin="round" stroke-miterlimit="10" d="
			M76.1,57.9c0,0.9,0,1.8,0.1,2.7"/>
		
			<path fill="none" stroke="#231F20" stroke-width="0.472" stroke-linecap="round" stroke-linejoin="round" stroke-miterlimit="10" d="
			M44.1,57.9c0,0.3,0.1,0.6,0.1,0.9"/>
		
			<path fill="none" stroke="#231F20" stroke-width="0.472" stroke-linecap="round" stroke-linejoin="round" stroke-miterlimit="10" d="
			M44.2,58.8c0.1,0.9,0.2,1.8,0.4,2.7"/>
		
			<path fill="none" stroke="#231F20" stroke-width="0.472" stroke-linecap="round" stroke-linejoin="round" stroke-miterlimit="10" d="
			M45,64.2c0,0.1,0.1,0.1,0.2,0.1"/>
		
			<path fill="none" stroke="#231F20" stroke-width="0.472" stroke-linecap="round" stroke-linejoin="round" stroke-miterlimit="10" d="
			M119.7,64.4c0.1,0,0.2-0.1,0.2-0.1"/>
		
			<path fill="none" stroke="#231F20" stroke-width="0.472" stroke-linecap="round" stroke-linejoin="round" stroke-miterlimit="10" d="
			M44.6,61.5c0,0.2,0,0.3,0.1,0.5c0,0.1,0,0.1,0,0.2c0,0.1,0,0.1,0,0.2c0,0,0,0.1,0,0.1c0,0,0,0.1,0,0.1c0,0,0,0,0,0c0,0,0,0,0,0
			c0,0,0,0,0,0c0,0,0,0,0,0"/>
		
			<path fill="none" stroke="#231F20" stroke-width="0.472" stroke-linecap="round" stroke-linejoin="round" stroke-miterlimit="10" d="
			M75.9,60.9c0.1,0,0.2,0,0.2-0.1c0.1-0.1,0.1-0.1,0.1-0.2"/>
	</g>
	
		<line fill="none" stroke="#231F20" stroke-width="0.472" stroke-linecap="round" stroke-linejoin="round" stroke-miterlimit="10" x1="119.9" y1="64.3" x2="45" y2="64.2"/>
	
		<path fill="none" stroke="#231F20" stroke-width="0.472" stroke-linecap="round" stroke-linejoin="round" stroke-miterlimit="10" d="
		M107.6,30.9c0-13.9-11.3-25.1-25.2-25c-13.8,0.1-24.9,11.2-25,25"/>
	
		<path fill="none" stroke="#231F20" stroke-width="0.472" stroke-linecap="round" stroke-linejoin="round" stroke-miterlimit="10" d="
		M75.5,53.9c0,0.1-0.1,0.2-0.1,0.4"/>
	
		<path fill="none" stroke="#231F20" stroke-width="0.472" stroke-linecap="round" stroke-linejoin="round" stroke-miterlimit="10" d="
		M75.4,54.3c0,0.1,0,0.3,0.1,0.4"/>
	
		<path fill="none" stroke="#231F20" stroke-width="0.472" stroke-linecap="round" stroke-linejoin="round" stroke-miterlimit="10" d="
		M76,53.9c-0.1,0.1-0.1,0.3-0.1,0.5"/>
	
		<path fill="none" stroke="#231F20" stroke-width="0.472" stroke-linecap="round" stroke-linejoin="round" stroke-miterlimit="10" d="
		M75.9,54.3c0,0.2,0.1,0.3,0.1,0.5"/>
	
		<path fill="none" stroke="#231F20" stroke-width="0.472" stroke-linecap="round" stroke-linejoin="round" stroke-miterlimit="10" d="
		M76.1,53.8C76.1,53.8,76,53.8,76.1,53.8"/>
	
		<path fill="none" stroke="#231F20" stroke-width="0.472" stroke-linecap="round" stroke-linejoin="round" stroke-miterlimit="10" d="
		M76,54.8C76,54.8,76.1,54.8,76,54.8"/>
	
		<path fill="none" stroke="#231F20" stroke-width="0.472" stroke-linecap="round" stroke-linejoin="round" stroke-miterlimit="10" d="
		M76.3,53.6c-0.1,0-0.2,0.1-0.3,0.2"/>
	
		<path fill="none" stroke="#231F20" stroke-width="0.472" stroke-linecap="round" stroke-linejoin="round" stroke-miterlimit="10" d="
		M76.1,54.8c0.1,0.1,0.2,0.1,0.3,0.2"/>
	
		<path fill="none" stroke="#231F20" stroke-width="0.472" stroke-linecap="round" stroke-linejoin="round" stroke-miterlimit="10" d="
		M76.5,53.7c0,0-0.1,0.1-0.1,0.1c0,0-0.1,0.1-0.1,0.1c0,0.1,0,0.1-0.1,0.2c0,0.1,0,0.1,0,0.2"/>
	
		<path fill="none" stroke="#231F20" stroke-width="0.472" stroke-linecap="round" stroke-linejoin="round" stroke-miterlimit="10" d="
		M76.5,54.9c0,0-0.1-0.1-0.1-0.1c0,0-0.1-0.1-0.1-0.1c0-0.1,0-0.1-0.1-0.2c0-0.1,0-0.1,0-0.2"/>
	<path fill="#727276" d="M68.8,77.8c0,0.8,3.5,2.5,7,2.4c3.5,0,7-1.7,7-2.5l0,2.5c0,1.7-3.5,2.5-7,2.5c-3.5,0-7-0.8-7-2.4L68.8,77.8
		z"/>
	
		<path fill="none" stroke="#241A16" stroke-width="0.122" stroke-linecap="round" stroke-linejoin="round" stroke-miterlimit="10" d="
		M68.8,77.8c0,0.8,3.5,2.5,7,2.4c3.5,0,7-1.7,7-2.5l0,2.5c0,1.7-3.5,2.5-7,2.5c-3.5,0-7-0.8-7-2.4L68.8,77.8z"/>
	<path fill-rule="evenodd" clip-rule="evenodd" fill="#BEC0C2" d="M76.5,72c-0.3,0.2,0,0.6,0,0.6l0.2,22.6c0,0.4-0.4,0.8-0.8,0.8
		c-0.4,0-0.8-0.4-0.8-0.8l-0.2-22.6c0,0,0.3-0.2,0-0.6c0-0.4,0-1,0-1c0-1.3,0.8-1.7,0.8-1.7s0.8,0.4,0.8,1.7
		C76.5,70.9,76.5,71.7,76.5,72"/>
	<path fill="none" stroke="#231F20" stroke-width="0.308" d="M76.5,72c-0.3,0.2,0,0.6,0,0.6l0.2,22.6c0,0.4-0.4,0.8-0.8,0.8
		c-0.4,0-0.8-0.4-0.8-0.8l-0.2-22.6c0,0,0.3-0.2,0-0.6c0-0.4,0-1,0-1c0-1.3,0.8-1.7,0.8-1.7s0.8,0.4,0.8,1.7
		C76.5,70.9,76.5,71.7,76.5,72z"/>
	<path fill-rule="evenodd" clip-rule="evenodd" fill="#8A8C8E" d="M79,95.2c0-1,0.1-1.2-1.3-1.2L74,94c-1.4,0-1.3,0.2-1.3,1.2
		c0,1,0.4,0.6,1,1.2c0.5,0.5-0.8,1.8-0.8,1.8s0.1,12.8,0.1,15.2c0,1.5,1.8,2.3,3,2.3c1.2,0,3-0.8,3-2.3c0-2.5-0.1-15.2-0.1-15.2
		s-1.4-1.2-0.8-1.8C78.5,95.8,79,96.1,79,95.2"/>
	<path fill="none" stroke="#241A16" stroke-width="0.308" d="M79,95.2c0-1,0.1-1.2-1.3-1.2L74,94c-1.4,0-1.3,0.2-1.3,1.2
		c0,1,0.4,0.6,1,1.2c0.5,0.5-0.8,1.8-0.8,1.8s0.1,12.8,0.1,15.2c0,1.5,1.8,2.3,3,2.3c1.2,0,3-0.8,3-2.3c0-2.5-0.1-15.2-0.1-15.2
		s-1.4-1.2-0.8-1.8C78.5,95.8,79,96.1,79,95.2z"/>
	<path fill-rule="evenodd" clip-rule="evenodd" fill="#636466" d="M74.3,113.2c0,0.3-0.2,0.5-0.5,0.5c-0.3,0-0.5-0.2-0.5-0.5
		l-0.1-13.9c0-0.3,0.2-0.5,0.5-0.5c0.3,0,0.5,0.2,0.5,0.5L74.3,113.2z"/>
	<path fill="none" stroke="#231F20" stroke-width="0.231" d="M74.3,113.2c0,0.3-0.2,0.5-0.5,0.5c-0.3,0-0.5-0.2-0.5-0.5l-0.1-13.9
		c0-0.3,0.2-0.5,0.5-0.5c0.3,0,0.5,0.2,0.5,0.5L74.3,113.2z"/>
	<path fill-rule="evenodd" clip-rule="evenodd" fill="#636466" d="M76.6,113.2c0,0.3-0.2,0.5-0.5,0.5c-0.3,0-0.5-0.2-0.5-0.5
		l-0.1-13.9c0-0.3,0.2-0.5,0.5-0.5c0.3,0,0.5,0.2,0.5,0.5L76.6,113.2z"/>
	<path fill="none" stroke="#231F20" stroke-width="0.231" d="M76.6,113.2c0,0.3-0.2,0.5-0.5,0.5c-0.3,0-0.5-0.2-0.5-0.5l-0.1-13.9
		c0-0.3,0.2-0.5,0.5-0.5c0.3,0,0.5,0.2,0.5,0.5L76.6,113.2z"/>
	<path fill-rule="evenodd" clip-rule="evenodd" fill="#636466" d="M78.9,113.1c0,0.3-0.2,0.5-0.5,0.5c-0.3,0-0.5-0.2-0.5-0.5
		l-0.1-13.9c0-0.3,0.2-0.5,0.5-0.5c0.3,0,0.5,0.2,0.5,0.5L78.9,113.1z"/>
	<path fill="none" stroke="#231F20" stroke-width="0.231" d="M78.9,113.1c0,0.3-0.2,0.5-0.5,0.5c-0.3,0-0.5-0.2-0.5-0.5l-0.1-13.9
		c0-0.3,0.2-0.5,0.5-0.5c0.3,0,0.5,0.2,0.5,0.5L78.9,113.1z"/>
	<path fill="none" stroke="#231F20" stroke-width="0.154" d="M75.6,69.4c0,0,0.1,1.6-0.7,2"/>
	<path fill="none" stroke="#231F20" stroke-width="0.154" d="M75.7,69.4c0,0,0,1.6,0.7,2"/>
	<path fill="#D2D3D5" d="M68.8,80.3l0-2.5c0-0.8,0.9-0.8,1.7-1.7l0,2.5l0,0.8C69.7,79.4,68.8,79.4,68.8,80.3"/>
	
		<path fill="none" stroke="#241A16" stroke-width="0.196" stroke-linecap="round" stroke-linejoin="round" stroke-miterlimit="10" d="
		M68.8,80.3l0-2.5c0-0.8,0.9-0.8,1.7-1.7l0,2.5l0,0.8C69.7,79.4,68.8,79.4,68.8,80.3z"/>
	<path fill="#D2D3D5" d="M82.9,80.1L82.9,80.1c0-0.8-3.5-2.5-7-2.4c-0.9,0-2.6,0-2.6,0l0,1.7l-1.8-1.6l1.7-3.3l0,0.8l2.6,0
		c3.5,0,7,0.8,7,2.4L82.9,80.1z"/>
	
		<path fill="none" stroke="#241A16" stroke-width="0.196" stroke-linecap="round" stroke-linejoin="round" stroke-miterlimit="10" d="
		M82.9,80.1L82.9,80.1c0-0.8-3.5-2.5-7-2.4c-0.9,0-2.6,0-2.6,0l0,1.7l-1.8-1.6l1.7-3.3l0,0.8l2.6,0c3.5,0,7,0.8,7,2.4L82.9,80.1z"/>
</g>
</svg>
