<?xml version="1.0" encoding="UTF-8" standalone="no"?>
<!-- Generator: Adobe Illustrator 16.0.0, SVG Export Plug-In . SVG Version: 6.00 Build 0)  -->
<!DOCTYPE svg  PUBLIC '-//W3C//DTD SVG 1.1//EN'  'http://www.w3.org/Graphics/SVG/1.1/DTD/svg11.dtd'>
<svg id="Layer_1" xmlns="http://www.w3.org/2000/svg" xml:space="preserve" height="301.89px" viewBox="0 0 595.276 301.89" width="595.28px" version="1.1" y="0px" x="0px" xmlns:xlink="http://www.w3.org/1999/xlink" enable-background="new 0 0 595.276 301.89">
	<defs>
		<rect id="SVGID_1_" y="17.875" x="123.84" height="263.48" width="385.81"/>
	</defs>
	<clipPath id="SVGID_2_">
		<use overflow="visible" xlink:href="#SVGID_1_"/>
	</clipPath>
	<path fill="#2951A3" d="m353.08 80.499c0 3.316-2.847 6.003-6.356 6.003s-6.354-2.687-6.354-6.003c0-3.315 2.845-6.003 6.354-6.003s6.36 2.688 6.36 6.003" clip-path="url(#SVGID_2_)"/>
	<path fill="#2951A3" d="m354.49 133.82c0 4.29-3.479 7.768-7.768 7.768-4.291 0-7.768-3.478-7.768-7.768v-37.786c0-4.29 3.477-7.768 7.768-7.768 4.289 0 7.768 3.478 7.768 7.768v37.786z" clip-path="url(#SVGID_2_)"/>
	<path fill="#2951A3" d="m350.29 190.33c0.225 1.898-1.477 0.593-3.572 0.593-2.098 0-4.369 2.471-4.369-2.491l0.574-47.848c0-4.961 1.697-2.891 3.795-2.891 2.096 0 3.797-2.068 3.797 2.895l-0.23 49.75z" clip-path="url(#SVGID_2_)"/>
	<path fill="#2951A3" d="m347.96 188.44c1.289 0 2.334 0.851 2.334 1.898 0 1.048 1.289 1.898 0 1.898h-11.83c-1.29 0-2.334-0.85-2.334-1.898 0-1.047 1.044-1.898 2.334-1.898h9.5z" clip-path="url(#SVGID_2_)"/>
	<path fill="#2951A3" d="m349.83 112.18c0 2.311-1.226 4.185-2.735 4.185-1.515 0-2.736-1.874-2.736-4.185v-17.04c0-2.312 1.222-4.185 2.736-4.185 1.51 0 2.735 1.873 2.735 4.185v17.04z" clip-path="url(#SVGID_2_)"/>
	<path d="m349.83 112.18c0 2.311-1.226 4.185-2.735 4.185-1.515 0-2.736-1.874-2.736-4.185v-17.04c0-2.312 1.222-4.185 2.736-4.185 1.51 0 2.735 1.873 2.735 4.185v17.04z" clip-path="url(#SVGID_2_)" stroke="#fff" stroke-miterlimit="10" stroke-width=".7" fill="none"/>
	<path fill="#2951A3" d="m332.03 124.97c-1.962 1.111-4.077 1.085-4.725-0.06-0.65-1.145 0.418-2.975 2.377-4.084l14.462-8.186c1.961-1.11 4.077-1.084 4.725 0.063 0.65 1.145-0.416 2.972-2.38 4.081l-14.45 8.19z" clip-path="url(#SVGID_2_)"/>
	<path d="m332.03 124.97c-1.962 1.111-4.077 1.085-4.725-0.06-0.65-1.145 0.418-2.975 2.377-4.084l14.462-8.186c1.961-1.11 4.077-1.084 4.725 0.063 0.65 1.145-0.416 2.972-2.38 4.081l-14.45 8.19z" clip-path="url(#SVGID_2_)" stroke="#fff" stroke-miterlimit="10" stroke-width=".645" fill="none"/>
	<path d="m451.14 192.22c0 0.001 0.019 0.012 0.021 0.014h-20.667c-99.031-0.155-198.6-0.155-297.12-0.155v-202.32 0" clip-path="url(#SVGID_2_)" stroke="#000" stroke-miterlimit="10" stroke-width="2.119" fill="none"/>
		<line y2="82.448" x1="338.09" clip-path="url(#SVGID_2_)" x2="336.48" stroke="#000" stroke-miterlimit="10" y1="82.448" stroke-width="1.059" fill="none"/>
		<line y2="82.448" x1="333.26" clip-path="url(#SVGID_2_)" x2="154.93" stroke="#000" stroke-dasharray="3.213,3.213" y1="82.448" stroke-miterlimit="10" stroke-width="1.059" fill="none"/>
		<line y2="82.448" x1="153.32" clip-path="url(#SVGID_2_)" x2="151.7" stroke="#000" stroke-miterlimit="10" y1="82.448" stroke-width="1.059" fill="none"/>
		<line y2="92.814" x1="295.76" clip-path="url(#SVGID_2_)" x2="295.76" stroke="#000" stroke-miterlimit="10" y1="181.72" stroke-width="1.059" fill="none"/>
	<polygon points="297.52 180.46 295.68 187.35 293.83 180.46" clip-path="url(#SVGID_2_)"/>
	<polygon points="297.52 94.074 295.68 87.184 293.83 94.074" clip-path="url(#SVGID_2_)"/>
	<rect clip-path="url(#SVGID_2_)" height="15.125" width="47.971" y="128.62" x="272.45" fill="#fff"/>
<text font-size="12.711" font-family="&apos;ArialRoundedMTBold&apos;" transform="translate(268.74 140.5)">1.6~1.8m</text>
<line y2="215.03" x1="351.35" x2="142.19" stroke="#000" stroke-miterlimit="10" y1="215.03" stroke-width="1.059" fill="none"/>
<polygon points="350.09 213.26 356.98 215.1 350.09 216.95"/>
<polygon points="143.45 213.26 136.56 215.1 143.45 216.95"/>
<line y2="270.22" x1="359.72" x2="359.72" stroke="#2951A3" stroke-miterlimit="10" y1="195.2" stroke-width="1.059" fill="none"/>
<line y2="256.69" x1="133.38" x2="133.38" stroke="#2951A3" stroke-miterlimit="10" y1="194.73" stroke-width="1.059" fill="none"/>
<rect y="207.46" x="238.78" height="15.125" width="47.971" fill="#fff"/>
<text font-size="12.711" font-family="&apos;ArialRoundedMTBold&apos;" transform="translate(250.96 219.34)">3m</text>
<rect height="6.028" width="59.825" stroke="#000" stroke-miterlimit="10" y="140.5" x="202.94" stroke-width="1.059" fill="none"/>
<rect height="40.824" width="6.609" stroke="#000" stroke-miterlimit="10" y="146.53" x="229.55" stroke-width="1.059" fill="none"/>
<rect y="184.82" x="217.9" height="7.242" width="29.913" fill="#fff"/>
<rect height="7.242" width="29.913" stroke="#000" stroke-miterlimit="10" y="184.82" x="217.9" stroke-width=".821" fill="none"/>
<line y2="270.1" x1="496.76" x2="496.76" stroke="#2951A3" stroke-miterlimit="10" y1="194.66" stroke-width="1.059" fill="none"/>
<line y2="244.45" x1="488.84" x2="366.58" stroke="#000" stroke-miterlimit="10" y1="244.45" stroke-width="1.091" fill="none"/>
<polygon points="487.54 242.62 494.64 244.52 487.54 246.43"/>
<polygon points="367.88 242.62 360.78 244.52 367.88 246.43"/>
<rect y="236.88" x="415.45" height="15.125" width="32.485" fill="#fff"/>
<text font-size="12.711" font-family="&apos;ArialRoundedMTBold&apos;" transform="translate(421.36 248.76)">2m</text>
<line y2="133.69" x1="138.21" x2="137.6" stroke="#000100" stroke-miterlimit="2" y1="133.69" stroke-width=".53" fill="none"/>
<line y2="133.68" x1="138.21" x2="137.6" stroke="#000100" stroke-miterlimit="2" y1="133.68" stroke-width=".53" fill="none"/>
<line y2="133.67" x1="138.65" x2="135.89" stroke="#000100" stroke-miterlimit="2" y1="133.67" stroke-width=".53" fill="none"/>
<line y2="133.54" x1="135.89" x2="138.65" stroke="#000100" stroke-miterlimit="2" y1="133.54" stroke-width=".53" fill="none"/>
<line y2="42.75" x1="135.89" x2="135.89" stroke="#000100" stroke-miterlimit="2" y1="42.624" stroke-width=".53" fill="none"/>
<line y2="133.54" x1="135.89" x2="135.89" stroke="#000100" stroke-miterlimit="2" y1="133.67" stroke-width=".53" fill="none"/>
<line y2="42.751" x1="135.91" x2="135.91" stroke="#000100" stroke-miterlimit="2" y1="133.54" stroke-width=".53" fill="none"/>
<line y2="42.625" x1="135.94" x2="135.94" stroke="#000100" stroke-miterlimit="2" y1="133.67" stroke-width=".53" fill="none"/>
<line y2="42.625" x1="137.08" x2="137.08" stroke="#000100" stroke-miterlimit="2" y1="133.67" stroke-width=".53" fill="none"/>
<line y2="42.751" x1="137.26" x2="137.26" stroke="#000100" stroke-miterlimit="2" y1="133.54" stroke-width=".53" fill="none"/>
<line y2="42.75" x1="137.26" x2="137.26" stroke="#000100" stroke-miterlimit="2" y1="42.624" stroke-width=".53" fill="none"/>
<line y2="133.54" x1="137.26" x2="137.26" stroke="#000100" stroke-miterlimit="2" y1="133.67" stroke-width=".53" fill="none"/>
<line y2="42.751" x1="138.46" x2="138.46" stroke="#000100" stroke-miterlimit="2" y1="133.54" stroke-width=".53" fill="none"/>
<line y2="42.75" x1="138.46" x2="138.46" stroke="#000100" stroke-miterlimit="2" y1="42.624" stroke-width=".53" fill="none"/>
<line y2="133.54" x1="138.46" x2="138.46" stroke="#000100" stroke-miterlimit="2" y1="133.67" stroke-width=".53" fill="none"/>
<line y2="133.54" x1="138.63" x2="138.63" stroke="#000100" stroke-miterlimit="2" y1="42.75" stroke-width=".53" fill="none"/>
<line y2="42.75" x1="138.65" x2="138.65" stroke="#000100" stroke-miterlimit="2" y1="42.624" stroke-width=".53" fill="none"/>
<line y2="133.54" x1="138.65" x2="138.65" stroke="#000100" stroke-miterlimit="2" y1="133.67" stroke-width=".53" fill="none"/>
<line y2="42.75" x1="138.65" x2="135.89" stroke="#000100" stroke-miterlimit="2" y1="42.75" stroke-width=".53" fill="none"/>
<line y2="42.624" x1="135.89" x2="138.65" stroke="#000100" stroke-miterlimit="2" y1="42.624" stroke-width=".53" fill="none"/>
<line y2="42.612" x1="137.6" x2="138.21" stroke="#000100" stroke-miterlimit="2" y1="42.612" stroke-width=".53" fill="none"/>
<line y2="42.603" x1="138.21" x2="137.6" stroke="#000100" stroke-miterlimit="2" y1="42.603" stroke-width=".53" fill="none"/>
	<defs>
		<rect id="SVGID_3_" y="17.875" x="123.84" height="263.48" width="385.81"/>
	</defs>
	<clipPath id="SVGID_4_">
		<use overflow="visible" xlink:href="#SVGID_3_"/>
	</clipPath>
	<path d="m138.21 42.604c0.003 0 0.005 0.001 0.005 0.003m-0.01-0.001c0 0.001 0 0.004-0.001 0.005" clip-path="url(#SVGID_4_)" stroke="#000100" stroke-miterlimit="2" stroke-width=".53" fill="none"/>
	<path d="m137.6 42.606c0 0.002 0 0.004 0.001 0.005m0-0.008c-0.002 0-0.004 0.001-0.005 0.003" clip-path="url(#SVGID_4_)" stroke="#000100" stroke-miterlimit="2" stroke-width=".53" fill="none"/>
	<path d="m138.21 133.68c0.001 0.001 0.001 0.003 0.001 0.005s-0.002 0.003-0.005 0.003" clip-path="url(#SVGID_4_)" stroke="#000100" stroke-miterlimit="2" stroke-width=".53" fill="none"/>
	<path d="m137.6 133.68c0.001 0.002 0.003 0.005 0.005 0.005-0.001 0.001-0.002 0.004-0.001 0.005" clip-path="url(#SVGID_4_)" stroke="#000100" stroke-miterlimit="2" stroke-width=".53" fill="none"/>
<line y2="42.625" x1="138.21" x2="138.2" stroke="#000100" stroke-miterlimit="2" y1="42.612" stroke-width=".53" fill="none"/>
<line y2="133.67" x1="138.21" x2="138.2" stroke="#000100" stroke-miterlimit="2" y1="133.68" stroke-width=".53" fill="none"/>
<line y2="78.275" x1="138.64" x2="138.65" stroke="#000100" stroke-miterlimit="2" y1="78.074" stroke-width=".53" fill="none"/>
<line y2="78.074" x1="138.64" x2="138.64" stroke="#000100" stroke-miterlimit="2" y1="79.555" stroke-width=".53" fill="none"/>
<line y2="78.277" x1="138.65" x2="138.65" stroke="#000100" stroke-miterlimit="2" y1="79.352" stroke-width=".53" fill="none"/>
<line y2="79.352" x1="138.64" x2="138.65" stroke="#000100" stroke-miterlimit="2" y1="79.555" stroke-width=".53" fill="none"/>
<line y2="42.625" x1="137.6" x2="137.61" stroke="#000100" stroke-miterlimit="2" y1="42.612" stroke-width=".53" fill="none"/>
<line y2="133.67" x1="137.6" x2="137.61" stroke="#000100" stroke-miterlimit="2" y1="133.68" stroke-width=".53" fill="none"/>
	<defs>
		<rect id="SVGID_5_" y="17.875" x="123.84" height="263.48" width="385.81"/>
	</defs>
	<clipPath id="SVGID_6_">
		<use overflow="visible" xlink:href="#SVGID_5_"/>
	</clipPath>
	<path d="m138.65 78.276c0.195 0.332 0.195 0.744 0 1.076" clip-path="url(#SVGID_6_)" stroke="#000100" stroke-miterlimit="2" stroke-width=".53" fill="none"/>
<text font-size="12" font-family="&apos;ArialMT&apos;" transform="translate(219.17 249.28)">Recognition</text>
<text font-size="12" font-family="&apos;ArialMT&apos;" transform="translate(398.44 273.94)">Perception</text>
</svg>
