<?xml version="1.0" encoding="UTF-8" standalone="no"?>
<!-- Generator: Adobe Illustrator 16.0.0, SVG Export Plug-In . SVG Version: 6.00 Build 0)  -->
<!DOCTYPE svg  PUBLIC '-//W3C//DTD SVG 1.1//EN'  'http://www.w3.org/Graphics/SVG/1.1/DTD/svg11.dtd'>
<svg id="Layer_1" xmlns="http://www.w3.org/2000/svg" xml:space="preserve" height="261px" viewBox="0 0 595.276 261" width="595.28px" version="1.1" y="0px" x="0px" xmlns:xlink="http://www.w3.org/1999/xlink" enable-background="new 0 0 595.276 261">
	<polyline stroke="#000" stroke-width=".244" stroke-miterlimit="2" points="298.03 90.264 298 90.286 297.97 90.307" fill="none"/>
	<polyline stroke="#000" stroke-width=".244" stroke-miterlimit="2" points="297.96 90.287 297.99 90.266 298.02 90.245 298.05 90.222 298.07 90.197 298.1 90.173 298.12 90.148 298.14 90.121 298.16 90.095 298.18 90.068" fill="none"/>
		<line y2="90.287" x1="297.94" x2="297.96" stroke="#000" stroke-miterlimit="2" y1="90.308" stroke-width=".244" fill="none"/>
	<polyline stroke="#000" stroke-width=".244" stroke-miterlimit="2" points="297.97 90.308 297.94 90.328 297.91 90.348 297.88 90.366 297.85 90.383 297.81 90.399" fill="none"/>
	<polyline stroke="#000" stroke-width=".244" stroke-miterlimit="2" points="297.34 89.438 297.31 89.454 297.28 89.473 297.25 89.492 297.22 89.513 297.19 89.534 297.16 89.557 297.14 89.579 297.11 89.604 297.09 89.628 297.06 89.653 297.04 89.679 297.02 89.705 297 89.732 296.99 89.76 296.97 89.787 296.96 89.816 296.94 89.844 296.93 89.871 296.92 89.9" fill="none"/>
	<polyline stroke="#000" stroke-width=".244" stroke-miterlimit="2" points="297.31 89.45 297.34 89.433 297.38 89.417 297.41 89.401 297.45 89.388 297.48 89.375 297.52 89.365 297.55 89.354 297.59 89.347 297.62 89.34 297.66 89.334" fill="none"/>
	<polyline stroke="#000" stroke-width=".244" stroke-miterlimit="2" points="297.81 90.4 297.78 90.415 297.75 90.428 297.71 90.44 297.68 90.452 297.64 90.462" fill="none"/>
	<polyline stroke="#000" stroke-width=".244" stroke-miterlimit="2" points="297.74 90.407 297.78 90.395 297.81 90.379 297.84 90.363 297.87 90.346 297.9 90.328 297.94 90.308" fill="none"/>
	<polyline stroke="#000" stroke-width=".244" stroke-miterlimit="2" points="298.18 90.068 298.2 90.042 298.21 90.013 298.23 89.985 298.24 89.957 298.25 89.928" fill="none"/>
	<polyline stroke="#000" stroke-width=".244" stroke-miterlimit="2" points="307.12 90.222 307.15 90.197 307.17 90.172 307.19 90.148 307.22 90.121 307.24 90.095 307.26 90.069 307.27 90.042 307.29 90.013 307.3 89.984 307.32 89.957 307.33 89.93 307.34 89.9" fill="none"/>
	<polyline stroke="#000" stroke-width=".244" stroke-miterlimit="2" points="307.13 90.239 307.1 90.264 307.08 90.286 307.05 90.308 307.02 90.328 306.99 90.348 306.96 90.366 306.92 90.383 306.89 90.4 306.85 90.415 306.82 90.428 306.79 90.44 306.75 90.452 306.72 90.462" fill="none"/>
	<polyline stroke="#000" stroke-width=".244" stroke-miterlimit="2" points="306.92 91.372 306.98 91.325 307.03 91.276 307.08 91.22 307.12 91.159" fill="none"/>
	<polyline stroke="#000" stroke-width=".244" stroke-miterlimit="2" points="307.04 90.288 307.07 90.266 307.1 90.244 307.12 90.222" fill="none"/>
	<polyline stroke="#000" stroke-width=".244" stroke-miterlimit="2" points="306.78 91.444 306.85 91.413 306.92 91.373" fill="none"/>
	<polyline stroke="#000" stroke-width=".244" stroke-miterlimit="2" points="298.26 89.97 298.24 90 298.23 90.028" fill="none"/>
	<polyline stroke="#000" stroke-width=".244" stroke-miterlimit="2" points="298.23 90.027 298.21 90.056 298.2 90.084 298.18 90.111 298.15 90.138 298.13 90.165 298.11 90.19 298.08 90.216 298.06 90.239 298.03 90.264" fill="none"/>
	<polyline stroke="#000" stroke-width=".244" stroke-miterlimit="2" points="373.14 227.16 373.21 227.16 373.29 227.14 373.36 227.12" fill="none"/>
	<polyline stroke="#000" stroke-width=".244" stroke-miterlimit="2" points="373.13 227.19 373.16 227.19 373.21 227.19 373.24 227.18 373.28 227.17 373.32 227.16" fill="none"/>
		<line y2="227.38" x1="373.22" x2="363.74" stroke="#000" stroke-miterlimit="2" y1="227.38" stroke-width=".244" fill="none"/>
		<line y2="227.19" x1="373.13" x2="363.65" stroke="#000" stroke-miterlimit="2" y1="227.19" stroke-width=".244" fill="none"/>
		<line y2="227.16" x1="364.95" x2="363.66" stroke="#000" stroke-miterlimit="2" y1="227.16" stroke-width=".244" fill="none"/>
		<line y2="227.16" x1="371.84" x2="373.14" stroke="#000" stroke-miterlimit="2" y1="227.16" stroke-width=".244" fill="none"/>
		<line y2="226.81" x1="365.02" x2="371.63" stroke="#000" stroke-miterlimit="2" y1="226.81" stroke-width=".244" fill="none"/>
	<polyline stroke="#000" stroke-width=".244" stroke-miterlimit="2" points="363.74 227.38 363.7 227.38 363.66 227.37 363.63 227.37 363.59 227.36 363.56 227.35 363.53 227.33 363.5 227.32 363.47 227.3 363.45 227.28 363.43 227.26 363.41 227.23 363.39 227.21 363.38 227.19" fill="none"/>
	<polyline stroke="#000" stroke-width=".244" stroke-miterlimit="2" points="363.66 227.16 363.58 227.16 363.52 227.14 363.46 227.12 363.41 227.09 363.36 227.05 363.33 227 363.32 226.99" fill="none"/>
	<polyline stroke="#000" stroke-width=".244" stroke-miterlimit="2" points="297.43 90.039 297.43 90.036 297.43 90.031 297.43 90.028 297.43 90.025 297.43 90.022 297.43 90.019 297.43 90.016" fill="none"/>
	<polyline stroke="#000" stroke-width=".244" stroke-miterlimit="2" points="297.75 89.762 297.75 89.766 297.75 89.769 297.75 89.771 297.75 89.774 297.75 89.779 297.75 89.782 297.75 89.785" fill="none"/>
	<polyline stroke="#000" stroke-width=".244" stroke-miterlimit="2" points="296.92 89.9 296.91 89.928 296.91 89.957 296.9 89.984 296.9 90.013 296.9 90.041 296.9 90.068 296.9 90.095 296.91 90.121 296.91 90.148 296.92 90.172 296.93 90.197 296.94 90.222 296.95 90.244 296.97 90.266 296.98 90.288 297 90.308 297.02 90.328 297.04 90.346 297.06 90.363 297.08 90.379 297.1 90.393 297.13 90.407 297.16 90.419 297.18 90.431 297.21 90.44 297.24 90.449 297.27 90.456 297.3 90.462 297.33 90.466 297.37 90.468 297.4 90.469 297.43 90.469 297.47 90.468 297.5 90.466 297.54 90.462 297.57 90.456 297.6 90.449 297.64 90.44" fill="none"/>
	<polyline stroke="#000" stroke-width=".244" stroke-miterlimit="2" points="298.26 89.9 298.27 89.873 298.28 89.843 298.28 89.816 298.28 89.787 298.28 89.76 298.28 89.732 298.28 89.705 298.28 89.679 298.27 89.653 298.27 89.628 298.26 89.604 298.24 89.579 298.23 89.557 298.22 89.534" fill="none"/>
	<polyline stroke="#000" stroke-width=".244" stroke-miterlimit="2" points="296.89 88.374 296.88 88.412 296.87 88.452 296.86 88.49 296.85 88.529 296.84 88.568 296.84 88.606 296.83 88.645 296.82 88.684 296.82 88.723" fill="none"/>
		<line y2="88.374" x1="297.55" x2="296.89" stroke="#000" stroke-miterlimit="2" y1="86.231" stroke-width=".244" fill="none"/>
	<line y2="90" x1="297.27" x2="297.21" stroke="#000" stroke-miterlimit="2" y1="89.802" stroke-width=".244" fill="none"/>
	<line y2="90" x1="297.35" x2="297.34" stroke="#000" stroke-miterlimit="2" y1="89.958" stroke-width=".244" fill="none"/>
		<line y2="89.762" x1="297.57" x2="297.52" stroke="#000" stroke-miterlimit="2" y1="89.604" stroke-width=".244" fill="none"/>
		<line y2="90.197" x1="297.43" x2="297.38" stroke="#000" stroke-miterlimit="2" y1="90.039" stroke-width=".244" fill="none"/>
		<line y2="89.918" x1="297.64" x2="297.6" stroke="#000" stroke-miterlimit="2" y1="89.76" stroke-width=".244" fill="none"/>
	<line y2="90.197" x1="297.51" x2="297.51" stroke="#000" stroke-miterlimit="2" y1="90.196" stroke-width=".244" fill="none"/>
	<line y2="89.604" x1="297.75" x2="297.8" stroke="#000" stroke-miterlimit="2" y1="89.762" stroke-width=".244" fill="none"/>
		<line y2="90.039" x1="297.62" x2="297.67" stroke="#000" stroke-miterlimit="2" y1="90.197" stroke-width=".244" fill="none"/>
		<line y2="89.802" x1="297.91" x2="297.97" stroke="#000" stroke-miterlimit="2" y1="89.999" stroke-width=".244" fill="none"/>
	<polyline stroke="#000" stroke-width=".244" stroke-miterlimit="2" points="296.91 89.904 296.92 89.876 296.94 89.848 296.95 89.817 296.96 89.79 296.98 89.761 297 89.733 297.02 89.705 297.04 89.678 297.06 89.652 297.08 89.626 297.11 89.601 297.13 89.577 297.16 89.554 297.19 89.531 297.22 89.509 297.25 89.489 297.28 89.469 297.31 89.451" fill="none"/>
	<polyline stroke="#000" stroke-width=".244" stroke-miterlimit="2" points="298.28 89.912 298.27 89.941 298.26 89.97" fill="none"/>
	<line y2="89.9" x1="298.25" x2="298.26" stroke="#000" stroke-miterlimit="2" y1="89.928" stroke-width=".244" fill="none"/>
	<polyline stroke="#000" stroke-width=".244" stroke-miterlimit="2" points="297.6 89.918 297.59 89.923 297.59 89.926 297.59 89.929 297.59 89.932 297.59 89.936 297.58 89.938 297.58 89.941 297.58 89.944 297.57 89.947 297.57 89.95 297.57 89.952 297.56 89.954 297.56 89.955 297.55 89.956 297.55 89.957 297.55 89.958 297.54 89.958 297.54 89.958" fill="none"/>
	<polyline stroke="#000" stroke-width=".244" stroke-miterlimit="2" points="308.22 88.723 308.24 88.684 308.26 88.645 308.27 88.607 308.29 88.568 308.31 88.53 308.32 88.49 308.34 88.452 308.35 88.413 308.36 88.374" fill="none"/>
		<line y2="88.723" x1="307.06" x2="308.22" stroke="#000" stroke-miterlimit="2" y1="90.976" stroke-width=".244" fill="none"/>
		<line y2="88.911" x1="307.15" x2="308.31" stroke="#000" stroke-miterlimit="2" y1="91.163" stroke-width=".244" fill="none"/>
	<polyline stroke="#000" stroke-width=".244" stroke-miterlimit="2" points="307.15 91.163 307.13 91.197 307.11 91.229 307.08 91.259 307.06 91.288 307.03 91.317 307 91.344 306.97 91.37 306.94 91.394 306.9 91.416 306.86 91.435 306.82 91.454 306.78 91.47 306.75 91.484 306.7 91.495 306.66 91.504 306.62 91.51 306.59 91.514 306.55 91.515" fill="none"/>
		<line y2="90.976" x1="296.82" x2="296.59" stroke="#000" stroke-miterlimit="2" y1="88.723" stroke-width=".244" fill="none"/>
	<polyline stroke="#000" stroke-width=".244" stroke-miterlimit="2" points="306 89.9 305.99 89.928 305.98 89.957 305.98 89.984 305.98 90.013 305.98 90.041 305.98 90.068 305.98 90.095 305.98 90.121 305.99 90.148 305.99 90.172" fill="none"/>
	<polyline stroke="#000" stroke-width=".244" stroke-miterlimit="2" points="307.34 89.9 307.35 89.873 307.35 89.843 307.36 89.816 307.36 89.787 307.36 89.76 307.36 89.732 307.36 89.705" fill="none"/>
		<line y2="89.912" x1="307.36" x2="307.35" stroke="#000" stroke-miterlimit="2" y1="89.883" stroke-width=".244" fill="none"/>
	<line y2="90" x1="306.35" x2="306.29" stroke="#000" stroke-miterlimit="2" y1="89.802" stroke-width=".244" fill="none"/>
	<line y2="90" x1="306.43" x2="306.41" stroke="#000" stroke-miterlimit="2" y1="89.958" stroke-width=".244" fill="none"/>
		<line y2="89.762" x1="306.64" x2="306.59" stroke="#000" stroke-miterlimit="2" y1="89.604" stroke-width=".244" fill="none"/>
		<line y2="90.197" x1="306.51" x2="306.46" stroke="#000" stroke-miterlimit="2" y1="90.039" stroke-width=".244" fill="none"/>
	<line y2="89.918" x1="306.72" x2="306.67" stroke="#000" stroke-miterlimit="2" y1="89.76" stroke-width=".244" fill="none"/>
		<line y2="90.197" x1="306.58" x2="306.58" stroke="#000" stroke-miterlimit="2" y1="90.196" stroke-width=".244" fill="none"/>
		<line y2="90.039" x1="306.69" x2="306.74" stroke="#000" stroke-miterlimit="2" y1="90.197" stroke-width=".244" fill="none"/>
		<line y2="89.604" x1="306.83" x2="306.87" stroke="#000" stroke-miterlimit="2" y1="89.762" stroke-width=".244" fill="none"/>
		<line y2="89.802" x1="306.98" x2="307.05" stroke="#000" stroke-miterlimit="2" y1="89.999" stroke-width=".244" fill="none"/>
		<line y2="86.231" x1="308.36" x2="309.02" stroke="#000" stroke-miterlimit="2" y1="88.374" stroke-width=".244" fill="none"/>
		<line y2="86.419" x1="308.45" x2="309.12" stroke="#000" stroke-miterlimit="2" y1="88.562" stroke-width=".244" fill="none"/>
	<polyline stroke="#000" stroke-width=".244" stroke-miterlimit="2" points="308.45 88.562 308.44 88.601 308.43 88.64 308.41 88.678 308.4 88.718 308.38 88.756 308.37 88.795 308.35 88.833 308.33 88.872 308.31 88.911" fill="none"/>
	<polyline stroke="#000" stroke-width=".244" stroke-miterlimit="2" points="305.99 89.904 306 89.876 306.01 89.848 306.02 89.817 306.04 89.79 306.05 89.761 306.07 89.733 306.09 89.705 306.11 89.678 306.14 89.652 306.16 89.626 306.18 89.601 306.21 89.577 306.24 89.554 306.26 89.531 306.29 89.509 306.32 89.489 306.36 89.469 306.39 89.451 306.42 89.433 306.45 89.417 306.49 89.402 306.52 89.388 306.56 89.375 306.59 89.365 306.62 89.355 306.66 89.347" fill="none"/>
	<polyline stroke="#000" stroke-width=".244" stroke-miterlimit="2" points="307.35 89.912 307.34 89.941 307.33 89.97 307.32 89.999 307.3 90.027 307.29 90.056 307.27 90.084 307.25 90.111 307.23 90.138 307.21 90.165 307.18 90.19 307.16 90.216 307.13 90.239" fill="none"/>
	<polyline stroke="#000" stroke-width=".244" stroke-miterlimit="2" points="306.67 89.918 306.67 89.923 306.67 89.926 306.66 89.929 306.66 89.932 306.66 89.936 306.66 89.938 306.65 89.941 306.65 89.944 306.65 89.947 306.64 89.95 306.64 89.952 306.64 89.954 306.63 89.955 306.63 89.956 306.62 89.957 306.62 89.958 306.62 89.958 306.61 89.958" fill="none"/>
	<polyline stroke="#000" stroke-width=".244" stroke-miterlimit="2" points="296.59 90.976 296.59 91.008 296.59 91.04 296.59 91.069 296.6 91.1 296.61 91.128 296.62 91.14" fill="none"/>
	<polyline stroke="#000" stroke-width=".244" stroke-miterlimit="2" points="306.51 90.039 306.51 90.036 306.51 90.031 306.51 90.028 306.51 90.025 306.51 90.022 306.51 90.019 306.51 90.016" fill="none"/>
	<polyline stroke="#000" stroke-width=".244" stroke-miterlimit="2" points="306.83 89.762 306.82 89.766 306.82 89.769 306.82 89.771 306.82 89.774 306.82 89.779 306.83 89.782 306.83 89.785" fill="none"/>
	<polyline stroke="#000" stroke-width=".244" stroke-miterlimit="2" points="309.02 86.231 309.02 86.225 309.03 86.219 309.03 86.214 309.03 86.208 309.03 86.203 309.03 86.198 309.02 86.192 309.02 86.187 309.02 86.182 309.02 86.182" fill="none"/>
	<polyline stroke="#000" stroke-width=".244" stroke-miterlimit="2" points="363.38 227.11 363.41 227.13 363.44 227.15 363.47 227.16 363.5 227.17 363.54 227.18 363.57 227.19 363.61 227.19 363.65 227.19" fill="none"/>
	<polyline stroke="#000" stroke-width=".244" stroke-miterlimit="2" points="307.36 89.705 307.35 89.679 307.35 89.653 307.34 89.628 307.33 89.604 307.32 89.579 307.31 89.557 307.29 89.534 307.28 89.513 307.26 89.492 307.24 89.473 307.22 89.454 307.2 89.438 307.18 89.421 307.15 89.407" fill="none"/>
	<polyline stroke="#000" stroke-width=".244" stroke-miterlimit="2" points="307.37 89.686 307.37 89.712 307.38 89.74 307.38 89.768 307.38 89.796 307.37 89.825 307.37 89.854 307.36 89.883" fill="none"/>
	<polyline stroke="#000" stroke-width=".244" stroke-miterlimit="2" points="326.4 144.3 326.4 144.4 326.42 144.52" fill="none"/>
	<polyline stroke="#000" stroke-width=".244" stroke-miterlimit="2" points="326.34 144.42 326.32 144.48 326.31 144.59 326.31 144.7 326.33 144.81 326.36 144.93 326.41 145.04" fill="none"/>
	<polyline stroke="#000" stroke-width=".244" stroke-miterlimit="2" points="326.54 144.21 326.52 144.25 326.51 144.3 326.51 144.36 326.51 144.41 326.51 144.47 326.52 144.53 326.53 144.59 326.54 144.65" fill="none"/>
		<line y2="145.04" x1="326.5" x2="326.41" stroke="#000" stroke-miterlimit="2" y1="144.75" stroke-width=".244" fill="none"/>
	<polyline stroke="#000" stroke-width=".244" stroke-miterlimit="2" points="326.63 144.02 326.61 144.04 326.58 144.09 326.56 144.14 326.54 144.19 326.54 144.21" fill="none"/>
	<polyline stroke="#000" stroke-width=".244" stroke-miterlimit="2" points="329.99 145.82 330.01 145.8 330.07 145.77 330.12 145.73 330.16 145.69 330.2 145.64 330.24 145.6 330.27 145.55 330.3 145.5 330.32 145.46 330.34 145.4 330.35 145.39" fill="none"/>
	<polyline stroke="#000" stroke-width=".244" stroke-miterlimit="2" points="330.26 145.58 330.34 145.55 330.41 145.52" fill="none"/>
	<polyline stroke="#000" stroke-width=".244" stroke-miterlimit="2" points="329.71 146.26 329.76 146.24 329.9 146.19 330.03 146.12 330.14 146.04 330.23 145.95 330.3 145.86 330.36 145.76 330.39 145.67" fill="none"/>
		<line y2="145.58" x1="330.25" x2="330.26" stroke="#000" stroke-miterlimit="2" y1="145.58" stroke-width=".244" fill="none"/>
	<polyline stroke="#000" stroke-width=".244" stroke-miterlimit="2" points="305.98 90.184 305.98 90.158 305.97 90.131 305.97 90.104 305.97 90.076 305.96 90.048 305.97 90.02 305.97 89.991 305.97 89.962 305.98 89.933 305.99 89.904" fill="none"/>
	<polyline stroke="#000" stroke-width=".244" stroke-miterlimit="2" points="330.35 145.39 330.36 145.35 330.37 145.29 330.38 145.24 330.38 145.19" fill="none"/>
	<polyline stroke="#000" stroke-width=".244" stroke-miterlimit="2" points="330.39 145.67 330.4 145.65 330.42 145.53 330.42 145.41 330.41 145.29 330.37 145.17" fill="none"/>
	<polyline stroke="#000" stroke-width=".244" stroke-miterlimit="2" points="371.79 227.14 371.79 227.14 371.8 227.15 371.81 227.15 371.82 227.16 371.83 227.16 371.84 227.16" fill="none"/>
	<polyline stroke="#000" stroke-width=".244" stroke-miterlimit="2" points="363.29 227 363.3 227.02 363.31 227.05 363.34 227.07 363.36 227.09 363.38 227.11" fill="none"/>
	<polyline stroke="#000" stroke-width=".244" stroke-miterlimit="2" points="296.62 91.141 296.62 91.156 296.64 91.182 296.66 91.206 296.68 91.227 296.71 91.249" fill="none"/>
	<polyline stroke="#000" stroke-width=".244" stroke-miterlimit="2" points="297.43 90.017 297.43 90.016 297.43 90.014 297.43 90.011 297.43 90.009 297.42 90.007 297.42 90.005 297.42 90.003 297.41 90.001 297.41 90 297.41 90 297.4 89.999 297.4 89.999" fill="none"/>
	<polyline stroke="#000" stroke-width=".244" stroke-miterlimit="2" points="297.75 89.785 297.75 89.785 297.76 89.787 297.76 89.791 297.76 89.792 297.76 89.794 297.76 89.796 297.77 89.798 297.77 89.8 297.77 89.8 297.78 89.801 297.78 89.802 297.78 89.802" fill="none"/>
		<line y2="227" x1="363.38" x2="363.29" stroke="#000" stroke-miterlimit="2" y1="227.19" stroke-width=".244" fill="none"/>
		<line y2="91.329" x1="296.62" x2="296.71" stroke="#000" stroke-miterlimit="2" y1="91.141" stroke-width=".244" fill="none"/>
		<line y2="226.99" x1="296.81" x2="363.32" stroke="#000" stroke-miterlimit="2" y1="91.441" stroke-width=".244" fill="none"/>
		<line y2="227.19" x1="363.74" x2="363.65" stroke="#000" stroke-miterlimit="2" y1="227.38" stroke-width=".244" fill="none"/>
		<line y2="91.516" x1="296.97" x2="297.07" stroke="#000" stroke-miterlimit="2" y1="91.327" stroke-width=".244" fill="none"/>
		<line y2="91.505" x1="363.66" x2="297.09" stroke="#000" stroke-miterlimit="2" y1="227.16" stroke-width=".244" fill="none"/>
		<line y2="89.958" x1="297.27" x2="297.35" stroke="#000" stroke-miterlimit="2" y1="89.802" stroke-width=".244" fill="none"/>
		<line y2="90.039" x1="297.51" x2="297.43" stroke="#000" stroke-miterlimit="2" y1="90.196" stroke-width=".244" fill="none"/>
		<line y2="90.017" x1="297.51" x2="297.43" stroke="#000" stroke-miterlimit="2" y1="90.174" stroke-width=".244" fill="none"/>
		<line y2="89.802" x1="297.54" x2="297.46" stroke="#000" stroke-miterlimit="2" y1="89.958" stroke-width=".244" fill="none"/>
		<line y2="89.762" x1="297.6" x2="297.52" stroke="#000" stroke-miterlimit="2" y1="89.918" stroke-width=".244" fill="none"/>
		<line y2="91.515" x1="364.95" x2="298.39" stroke="#000" stroke-miterlimit="2" y1="227.16" stroke-width=".244" fill="none"/>
		<line y2="91.517" x1="365.04" x2="298.5" stroke="#000" stroke-miterlimit="2" y1="227.1" stroke-width=".244" fill="none"/>
		<line y2="89.76" x1="297.57" x2="297.64" stroke="#000" stroke-miterlimit="2" y1="89.604" stroke-width=".244" fill="none"/>
		<line y2="89.785" x1="297.83" x2="297.75" stroke="#000" stroke-miterlimit="2" y1="89.941" stroke-width=".244" fill="none"/>
		<line y2="91.515" x1="365.08" x2="298.61" stroke="#000" stroke-miterlimit="2" y1="226.96" stroke-width=".244" fill="none"/>
		<line y2="89.802" x1="297.86" x2="297.78" stroke="#000" stroke-miterlimit="2" y1="89.958" stroke-width=".244" fill="none"/>
		<line y2="226.93" x1="298.63" x2="365.08" stroke="#000" stroke-miterlimit="2" y1="91.515" stroke-width=".244" fill="none"/>
	<polyline stroke="#000" stroke-width=".244" stroke-miterlimit="2" points="297.51 90.174 297.51 90.177 297.51 90.179 297.51 90.182 297.51 90.185 297.51 90.189 297.51 90.192 297.51 90.197" fill="none"/>
	<polyline stroke="#000" stroke-width=".244" stroke-miterlimit="2" points="305.99 90.172 306 90.198 306.02 90.222 306.03 90.244 306.04 90.266" fill="none"/>
	<polyline stroke="#000" stroke-width=".244" stroke-miterlimit="2" points="326.54 144.65 326.56 144.71 326.59 144.76" fill="none"/>
	<polyline stroke="#000" stroke-width=".244" stroke-miterlimit="2" points="326.42 144.52 326.46 144.63 326.5 144.75" fill="none"/>
	<polyline stroke="#000" stroke-width=".244" stroke-miterlimit="2" points="330.23 145.6 330.24 145.62 330.24 145.65 330.25 145.68 330.26 145.71 330.26 145.71" fill="none"/>
	<polyline stroke="#000" stroke-width=".244" stroke-miterlimit="2" points="326.41 145.04 326.48 145.17 326.57 145.29" fill="none"/>
	<polyline stroke="#000" stroke-width=".244" stroke-miterlimit="2" points="330.32 145.04 330.26 144.93 330.18 144.81 330.09 144.7 329.98 144.59 329.86 144.48 329.74 144.38 329.6 144.29 329.45 144.2 329.29 144.11 329.13 144.03 328.96 143.96 328.78 143.9 328.6 143.85 328.43 143.8 328.25 143.77 328.07 143.74 327.89 143.73 327.72 143.72 327.55 143.73 327.39 143.74 327.24 143.77 327.09 143.8 326.95 143.85 326.83 143.9 326.72 143.96 326.61 144.03 326.53 144.11 326.45 144.2 326.39 144.29 326.35 144.38 326.34 144.42" fill="none"/>
		<line y2="145.81" x1="330.03" x2="330" stroke="#000" stroke-miterlimit="2" y1="145.87" stroke-width=".244" fill="none"/>
	<line y2="91.5" x1="371.79" x2="305.23" stroke="#000" stroke-miterlimit="2" y1="227.14" stroke-width=".244" fill="none"/>
		<line y2="91.515" x1="371.84" x2="305.27" stroke="#000" stroke-miterlimit="2" y1="227.16" stroke-width=".244" fill="none"/>
		<line y2="227.19" x1="373.22" x2="373.13" stroke="#000" stroke-miterlimit="2" y1="227.38" stroke-width=".244" fill="none"/>
		<line y2="91.516" x1="306.45" x2="306.55" stroke="#000" stroke-miterlimit="2" y1="91.327" stroke-width=".244" fill="none"/>
		<line y2="91.485" x1="373.14" x2="306.56" stroke="#000" stroke-miterlimit="2" y1="227.16" stroke-width=".244" fill="none"/>
		<line y2="89.958" x1="306.35" x2="306.43" stroke="#000" stroke-miterlimit="2" y1="89.802" stroke-width=".244" fill="none"/>
		<line y2="90.039" x1="306.58" x2="306.51" stroke="#000" stroke-miterlimit="2" y1="90.196" stroke-width=".244" fill="none"/>
		<line y2="90.017" x1="306.58" x2="306.51" stroke="#000" stroke-miterlimit="2" y1="90.174" stroke-width=".244" fill="none"/>
		<line y2="91.193" x1="373.7" x2="307.13" stroke="#000" stroke-miterlimit="2" y1="226.84" stroke-width=".244" fill="none"/>
		<line y2="226.84" x1="373.82" x2="373.73" stroke="#000" stroke-miterlimit="2" y1="227.03" stroke-width=".244" fill="none"/>
		<line y2="91.164" x1="307.06" x2="307.15" stroke="#000" stroke-miterlimit="2" y1="90.976" stroke-width=".244" fill="none"/>
		<line y2="89.802" x1="306.61" x2="306.53" stroke="#000" stroke-miterlimit="2" y1="89.958" stroke-width=".244" fill="none"/>
		<line y2="89.762" x1="306.67" x2="306.59" stroke="#000" stroke-miterlimit="2" y1="89.918" stroke-width=".244" fill="none"/>
	<line y2="89.76" x1="306.64" x2="306.72" stroke="#000" stroke-miterlimit="2" y1="89.604" stroke-width=".244" fill="none"/>
		<line y2="89.785" x1="306.9" x2="306.83" stroke="#000" stroke-miterlimit="2" y1="89.941" stroke-width=".244" fill="none"/>
		<line y2="89.802" x1="306.94" x2="306.86" stroke="#000" stroke-miterlimit="2" y1="89.958" stroke-width=".244" fill="none"/>
		<line y2="144.1" x1="326.56" x2="326.57" stroke="#000" stroke-miterlimit="2" y1="144.08" stroke-width=".244" fill="none"/>
	<polyline stroke="#000" stroke-width=".244" stroke-miterlimit="2" points="330.13 145.82 330.12 145.79 330.11 145.77 330.1 145.74 330.1 145.74" fill="none"/>
	<polyline stroke="#000" stroke-width=".244" stroke-miterlimit="2" points="306.01 90.233 306 90.208 305.98 90.184" fill="none"/>
	<polyline stroke="#000" stroke-width=".244" stroke-miterlimit="2" points="365.08 226.93 365.08 226.94 365.08 226.94 365.08 226.95 365.08 226.96" fill="none"/>
	<polyline stroke="#000" stroke-width=".244" stroke-miterlimit="2" points="306.58 90.174 306.58 90.177 306.59 90.179 306.59 90.182 306.59 90.185 306.59 90.189 306.59 90.192 306.59 90.197" fill="none"/>
		<line y2="145.04" x1="330.37" x2="330.32" stroke="#000" stroke-miterlimit="2" y1="145.17" stroke-width=".244" fill="none"/>
	<polyline stroke="#000" stroke-width=".244" stroke-miterlimit="2" points="330.3 145.67 330.3 145.67 330.3 145.65 330.29 145.63 330.28 145.61 330.28 145.58 330.28 145.57" fill="none"/>
	<polyline stroke="#000" stroke-width=".244" stroke-miterlimit="2" points="298.22 89.535 298.2 89.513 298.19 89.492 298.17 89.473" fill="none"/>
	<polyline stroke="#000" stroke-width=".244" stroke-miterlimit="2" points="298.22 89.515 298.23 89.537 298.25 89.559 298.26 89.583 298.27 89.608 298.28 89.634 298.29 89.659 298.3 89.685 298.3 89.713 298.3 89.74 298.3 89.769 298.3 89.796 298.3 89.824 298.29 89.854 298.29 89.883 298.28 89.912" fill="none"/>
	<polyline stroke="#000" stroke-width=".244" stroke-miterlimit="2" points="306.03 90.279 306.02 90.257 306 90.233" fill="none"/>
	<polyline stroke="#000" stroke-width=".244" stroke-miterlimit="2" points="375.69 222.05 375.69 222.04 375.69 222.04 375.69 222.03 375.68 222.03 375.68 222.02 375.67 222.02 375.67 222.02 375.66 222.02 375.66 222.02 375.65 222.01 375.65 222.01 375.64 222.01 375.63 222.01" fill="none"/>
	<polyline stroke="#000" stroke-width=".244" stroke-miterlimit="2" points="309.02 86.181 309.02 86.178 309.02 86.172 309.01 86.168 309.01 86.165 309 86.161 309 86.157 309 86.154 308.99 86.151 308.98 86.149 308.98 86.147 308.97 86.145 308.97 86.144 308.96 86.143 308.96 86.143 308.95 86.143" fill="none"/>
	<polyline stroke="#000" stroke-width=".244" stroke-miterlimit="2" points="306.51 90.017 306.51 90.016 306.5 90.014 306.5 90.011 306.5 90.009 306.5 90.007 306.49 90.005 306.49 90.003 306.49 90.001 306.48 90 306.48 90 306.48 89.999 306.47 89.999" fill="none"/>
	<polyline stroke="#000" stroke-width=".244" stroke-miterlimit="2" points="306.83 89.785 306.83 89.785 306.83 89.787 306.83 89.791 306.83 89.792 306.84 89.794 306.84 89.796 306.84 89.798 306.84 89.8 306.85 89.8 306.85 89.801 306.86 89.802 306.86 89.802" fill="none"/>
		<line y2="88.941" x1="374.86" x2="308.3" stroke="#000" stroke-miterlimit="2" y1="224.58" stroke-width=".244" fill="none"/>
		<line y2="224.59" x1="374.98" x2="374.89" stroke="#000" stroke-miterlimit="2" y1="224.78" stroke-width=".244" fill="none"/>
		<line y2="88.911" x1="308.22" x2="308.31" stroke="#000" stroke-miterlimit="2" y1="88.723" stroke-width=".244" fill="none"/>
	<line y2="88.604" x1="375" x2="308.44" stroke="#000" stroke-miterlimit="2" y1="224.24" stroke-width=".244" fill="none"/>
		<line y2="224.24" x1="375.13" x2="375.03" stroke="#000" stroke-miterlimit="2" y1="224.43" stroke-width=".244" fill="none"/>
		<line y2="88.562" x1="308.36" x2="308.45" stroke="#000" stroke-miterlimit="2" y1="88.374" stroke-width=".244" fill="none"/>
		<line y2="86.464" x1="375.66" x2="309.1" stroke="#000" stroke-miterlimit="2" y1="222.1" stroke-width=".244" fill="none"/>
		<line y2="86.445" x1="375.66" x2="309.11" stroke="#000" stroke-miterlimit="2" y1="222.06" stroke-width=".244" fill="none"/>
		<line y2="222.1" x1="375.79" x2="375.7" stroke="#000" stroke-miterlimit="2" y1="222.28" stroke-width=".244" fill="none"/>
		<line y2="86.419" x1="309.02" x2="309.12" stroke="#000" stroke-miterlimit="2" y1="86.231" stroke-width=".244" fill="none"/>
		<line y2="222.05" x1="375.79" x2="375.69" stroke="#000" stroke-miterlimit="2" y1="222.23" stroke-width=".244" fill="none"/>
		<line y2="86.369" x1="309.02" x2="309.11" stroke="#000" stroke-miterlimit="2" y1="86.181" stroke-width=".244" fill="none"/>
	<polyline stroke="#000" stroke-width=".244" stroke-miterlimit="2" points="309.11 86.37 309.12 86.37 309.12 86.375 309.12 86.38 309.12 86.386 309.12 86.39 309.12 86.397 309.12 86.403 309.12 86.408 309.12 86.413 309.12 86.419" fill="none"/>
	<polyline stroke="#000" stroke-width=".244" stroke-miterlimit="2" points="375.79 222.23 375.79 222.24 375.79 222.24 375.79 222.25 375.79 222.25 375.79 222.26 375.79 222.26 375.79 222.27 375.79 222.27 375.79 222.28 375.79 222.28" fill="none"/>
		<line y2="145.04" x1="324.9" x2="326.41" stroke="#000" stroke-miterlimit="2" y1="145.04" stroke-width=".244" fill="none"/>
		<line y2="145.04" x1="330.32" x2="331.5" stroke="#000" stroke-miterlimit="2" y1="145.04" stroke-width=".244" fill="none"/>
	<polyline stroke="#000" stroke-width=".244" stroke-miterlimit="2" points="306.04 90.266 306.06 90.288 306.07 90.308" fill="none"/>
	<polyline stroke="#000" stroke-width=".244" stroke-miterlimit="2" points="298.16 89.455 298.18 89.475 298.2 89.495 298.22 89.515" fill="none"/>
	<polyline stroke="#000" stroke-width=".244" stroke-miterlimit="2" points="306.08 90.342 306.06 90.323 306.05 90.301 306.03 90.279" fill="none"/>
	<polyline stroke="#000" stroke-width=".244" stroke-miterlimit="2" points="363.26 226.86 363.26 226.87 363.26 226.9 363.27 226.94 363.27 226.96 363.28 226.99 363.29 227" fill="none"/>
	<polyline stroke="#000" stroke-width=".244" stroke-miterlimit="2" points="298.17 89.473 298.15 89.455 298.13 89.438 298.1 89.422 298.08 89.407 298.06 89.394 298.03 89.381 298 89.37 297.97 89.361 297.94 89.352 297.91 89.345 297.88 89.339 297.85 89.336 297.82 89.333 297.78 89.331 297.75 89.331 297.72 89.333" fill="none"/>
	<polyline stroke="#000" stroke-width=".244" stroke-miterlimit="2" points="306.07 90.308 306.09 90.328 306.11 90.345" fill="none"/>
	<polyline stroke="#000" stroke-width=".244" stroke-miterlimit="2" points="296.83 91.454 296.8 91.436 296.78 91.417 296.75 91.394 296.74 91.37 296.72 91.344 296.71 91.33" fill="none"/>
	<polyline stroke="#000" stroke-width=".244" stroke-miterlimit="2" points="296.71 91.247 296.74 91.266 296.76 91.282 296.79 91.295 296.83 91.307 296.86 91.316 296.9 91.322 296.94 91.325" fill="none"/>
	<polyline stroke="#000" stroke-width=".244" stroke-miterlimit="2" points="306.11 90.346 306.13 90.363 306.16 90.379 306.18 90.394 306.2 90.407 306.23 90.42 306.26 90.432 306.29 90.44 306.32 90.449" fill="none"/>
	<polyline stroke="#000" stroke-width=".244" stroke-miterlimit="2" points="307.22 89.438 307.24 89.455 307.26 89.475 307.28 89.495 307.29 89.515 307.31 89.537 307.32 89.56 307.34 89.583 307.35 89.608 307.36 89.633 307.36 89.659 307.37 89.686" fill="none"/>
		<line y2="227.1" x1="365.08" x2="365.04" stroke="#000" stroke-miterlimit="2" y1="226.96" stroke-width=".244" fill="none"/>
	<polyline stroke="#000" stroke-width=".244" stroke-miterlimit="2" points="307.17 89.406 307.19 89.421 307.22 89.438" fill="none"/>
	<polyline stroke="#000" stroke-width=".244" stroke-miterlimit="2" points="375.66 222.1 375.66 222.08 375.66 222.08 375.66 222.07 375.66 222.06" fill="none"/>
	<polyline stroke="#000" stroke-width=".244" stroke-miterlimit="2" points="375.7 222.1 375.7 222.09 375.7 222.08 375.7 222.08 375.7 222.07 375.7 222.07 375.7 222.06 375.7 222.06 375.7 222.05 375.69 222.05 375.69 222.05" fill="none"/>
	<line y2="224.24" x1="375.66" x2="375" stroke="#000" stroke-miterlimit="2" y1="222.1" stroke-width=".244" fill="none"/>
		<line y2="224.24" x1="375.7" x2="375.04" stroke="#000" stroke-miterlimit="2" y1="222.1" stroke-width=".244" fill="none"/>
		<line y2="224.43" x1="375.79" x2="375.13" stroke="#000" stroke-miterlimit="2" y1="222.28" stroke-width=".244" fill="none"/>
	<polyline stroke="#000" stroke-width=".244" stroke-miterlimit="2" points="365.04 227.1 365.04 227.11 365.03 227.12 365.02 227.13 365.01 227.14 365 227.15" fill="none"/>
	<polyline stroke="#000" stroke-width=".244" stroke-miterlimit="2" points="307.16 89.407 307.13 89.394 307.1 89.381 307.08 89.37" fill="none"/>
		<line y2="224.24" x1="375.02" x2="375.03" stroke="#000" stroke-miterlimit="2" y1="224.28" stroke-width=".244" fill="none"/>
	<polyline stroke="#000" stroke-width=".244" stroke-miterlimit="2" points="375.13 224.43 375.12 224.46 375.1 224.5 375.09 224.54 375.07 224.58 375.06 224.62 375.04 224.66 375.02 224.7 375 224.74 374.98 224.78" fill="none"/>
	<polyline stroke="#000" stroke-width=".244" stroke-miterlimit="2" points="374.93 224.51 374.95 224.47 374.96 224.43 374.98 224.39 374.99 224.35 375.01 224.32 375.02 224.28" fill="none"/>
	<polyline stroke="#000" stroke-width=".244" stroke-miterlimit="2" points="307.03 89.349 307.06 89.358 307.09 89.368" fill="none"/>
	<polyline stroke="#000" stroke-width=".244" stroke-miterlimit="2" points="307.08 89.37 307.05 89.36 307.02 89.352 306.99 89.345" fill="none"/>
	<polyline stroke="#000" stroke-width=".244" stroke-miterlimit="2" points="307.09 89.368 307.12 89.379 307.14 89.392 307.17 89.407" fill="none"/>
	<polyline stroke="#000" stroke-width=".244" stroke-miterlimit="2" points="374.86 224.58 374.88 224.54 374.9 224.51 374.91 224.47 374.93 224.43 374.94 224.39 374.96 224.35 374.98 224.31 374.99 224.28 375 224.24" fill="none"/>
	<polyline stroke="#000" stroke-width=".244" stroke-miterlimit="2" points="374.89 224.59 374.91 224.55 374.93 224.51" fill="none"/>
		<line y2="224.58" x1="373.7" x2="374.86" stroke="#000" stroke-miterlimit="2" y1="226.84" stroke-width=".244" fill="none"/>
		<line y2="226.84" x1="374.89" x2="373.73" stroke="#000" stroke-miterlimit="2" y1="224.59" stroke-width=".244" fill="none"/>
		<line y2="227.03" x1="374.98" x2="373.82" stroke="#000" stroke-miterlimit="2" y1="224.78" stroke-width=".244" fill="none"/>
		<line y2="226.84" x1="373.71" x2="373.73" stroke="#000" stroke-miterlimit="2" y1="226.87" stroke-width=".244" fill="none"/>
	<polyline stroke="#000" stroke-width=".244" stroke-miterlimit="2" points="373.82 227.03 373.8 227.06 373.78 227.09 373.76 227.12 373.73 227.15 373.7 227.18 373.67 227.21 373.64 227.23 373.61 227.26 373.57 227.28 373.53 227.3 373.5 227.32 373.46 227.33 373.42 227.35 373.38 227.36 373.34 227.37 373.3 227.37 373.26 227.38 373.22 227.38" fill="none"/>
	<polyline stroke="#000" stroke-width=".244" stroke-miterlimit="2" points="297.07 91.515 297.03 91.514 296.99 91.51 296.95 91.504 296.92 91.495 296.89 91.484 296.86 91.469 296.83 91.454" fill="none"/>
	<polyline stroke="#000" stroke-width=".244" stroke-miterlimit="2" points="306.99 89.345 306.96 89.339 306.92 89.336 306.89 89.333 306.86 89.331 306.83 89.331 306.79 89.333 306.76 89.336 306.72 89.339 306.69 89.345" fill="none"/>
	<polyline stroke="#000" stroke-width=".244" stroke-miterlimit="2" points="306.32 90.449 306.35 90.456 306.38 90.462 306.41 90.466 306.44 90.469 306.47 90.47 306.51 90.47 306.54 90.469 306.58 90.466 306.61 90.462 306.64 90.456 306.68 90.449 306.71 90.44" fill="none"/>
	<polyline stroke="#000" stroke-width=".244" stroke-miterlimit="2" points="373.56 227 373.61 226.95 373.66 226.9 373.7 226.84" fill="none"/>
	<polyline stroke="#000" stroke-width=".244" stroke-miterlimit="2" points="365 227.15 364.99 227.15 364.98 227.16 364.96 227.16 364.95 227.16" fill="none"/>
		<line y2="89.336" x1="297.72" x2="297.68" stroke="#000" stroke-miterlimit="2" y1="89.333" stroke-width=".244" fill="none"/>
	<polyline stroke="#000" stroke-width=".244" stroke-miterlimit="2" points="306.56 91.485 306.63 91.479 306.71 91.466 306.78 91.444" fill="none"/>
	<polyline stroke="#000" stroke-width=".244" stroke-miterlimit="2" points="306.8 89.999 306.8 89.999 306.79 90 306.79 90.001 306.78 90.001 306.78 90.003 306.77 90.004 306.77 90.007 306.77 90.009 306.76 90.011 306.76 90.014 306.76 90.016 306.75 90.019 306.75 90.022 306.75 90.025 306.74 90.028 306.74 90.032 306.74 90.036 306.74 90.038" fill="none"/>
	<polyline stroke="#000" stroke-width=".244" stroke-miterlimit="2" points="306.53 89.802 306.54 89.802 306.54 89.801 306.55 89.8 306.55 89.799 306.56 89.797 306.56 89.796 306.56 89.794 306.57 89.792 306.57 89.791 306.57 89.787 306.58 89.785 306.58 89.782 306.58 89.779 306.59 89.776 306.59 89.772 306.59 89.769 306.59 89.766 306.59 89.762" fill="none"/>
	<polyline stroke="#000" stroke-width=".244" stroke-miterlimit="2" points="297.73 89.999 297.72 89.999 297.72 90 297.71 90.001 297.71 90.001 297.7 90.003 297.7 90.004 297.7 90.007 297.69 90.009 297.69 90.011 297.68 90.014 297.68 90.016 297.68 90.019 297.68 90.022 297.67 90.025 297.67 90.028 297.67 90.032 297.67 90.036 297.67 90.038" fill="none"/>
	<polyline stroke="#000" stroke-width=".244" stroke-miterlimit="2" points="297.46 89.802 297.46 89.802 297.47 89.801 297.47 89.8 297.48 89.799 297.48 89.797 297.48 89.796 297.49 89.794 297.49 89.792 297.5 89.791 297.5 89.787 297.5 89.785 297.51 89.782 297.51 89.779 297.51 89.776 297.51 89.772 297.52 89.769 297.52 89.766 297.52 89.762" fill="none"/>
	<polyline stroke="#000" stroke-width=".244" stroke-miterlimit="2" points="297.73 89.327 297.76 89.326 297.8 89.327 297.83 89.328 297.86 89.331 297.89 89.336 297.92 89.342 297.96 89.349 297.98 89.358 298.01 89.369 298.04 89.379 298.07 89.393 298.09 89.406 298.12 89.421 298.14 89.438 298.16 89.455" fill="none"/>
	<polyline stroke="#000" stroke-width=".244" stroke-miterlimit="2" points="306.45 91.327 306.49 91.325 306.53 91.321 306.57 91.316 306.61 91.307 306.65 91.296 306.69 91.281 306.73 91.266 306.77 91.247 306.81 91.227 306.84 91.206 306.88 91.182 306.91 91.155 306.94 91.129 306.97 91.1 306.99 91.07 307.02 91.039 307.04 91.008 307.06 90.976" fill="none"/>
		<line y2="91.515" x1="297.07" x2="306.54" stroke="#000" stroke-miterlimit="2" y1="91.515" stroke-width=".244" fill="none"/>
		<line y2="91.327" x1="296.97" x2="306.45" stroke="#000" stroke-miterlimit="2" y1="91.327" stroke-width=".244" fill="none"/>
		<line y2="90.197" x1="297.38" x2="297.62" stroke="#000" stroke-miterlimit="2" y1="90.197" stroke-width=".244" fill="none"/>
		<line y2="90.197" x1="306.46" x2="306.69" stroke="#000" stroke-miterlimit="2" y1="90.197" stroke-width=".244" fill="none"/>
		<line y2="89.999" x1="297.21" x2="297.4" stroke="#000" stroke-miterlimit="2" y1="89.999" stroke-width=".244" fill="none"/>
		<line y2="89.999" x1="297.73" x2="297.91" stroke="#000" stroke-miterlimit="2" y1="89.999" stroke-width=".244" fill="none"/>
		<line y2="89.999" x1="306.29" x2="306.47" stroke="#000" stroke-miterlimit="2" y1="89.999" stroke-width=".244" fill="none"/>
		<line y2="89.999" x1="306.8" x2="306.98" stroke="#000" stroke-miterlimit="2" y1="89.999" stroke-width=".244" fill="none"/>
		<line y2="89.958" x1="306.61" x2="306.42" stroke="#000" stroke-miterlimit="2" y1="89.958" stroke-width=".244" fill="none"/>
		<line y2="89.958" x1="307" x2="306.94" stroke="#000" stroke-miterlimit="2" y1="89.958" stroke-width=".244" fill="none"/>
		<line y2="89.958" x1="297.92" x2="297.86" stroke="#000" stroke-miterlimit="2" y1="89.958" stroke-width=".244" fill="none"/>
		<line y2="89.958" x1="297.54" x2="297.35" stroke="#000" stroke-miterlimit="2" y1="89.958" stroke-width=".244" fill="none"/>
		<line y2="89.802" x1="307.05" x2="306.86" stroke="#000" stroke-miterlimit="2" y1="89.802" stroke-width=".244" fill="none"/>
		<line y2="89.802" x1="306.53" x2="306.35" stroke="#000" stroke-miterlimit="2" y1="89.802" stroke-width=".244" fill="none"/>
		<line y2="89.802" x1="297.97" x2="297.78" stroke="#000" stroke-miterlimit="2" y1="89.802" stroke-width=".244" fill="none"/>
		<line y2="89.802" x1="297.46" x2="297.27" stroke="#000" stroke-miterlimit="2" y1="89.802" stroke-width=".244" fill="none"/>
	<line y2="89.76" x1="306.83" x2="306.72" stroke="#000" stroke-miterlimit="2" y1="89.76" stroke-width=".244" fill="none"/>
	<line y2="89.76" x1="297.75" x2="297.64" stroke="#000" stroke-miterlimit="2" y1="89.76" stroke-width=".244" fill="none"/>
		<line y2="89.604" x1="306.87" x2="306.64" stroke="#000" stroke-miterlimit="2" y1="89.604" stroke-width=".244" fill="none"/>
		<line y2="89.604" x1="297.8" x2="297.57" stroke="#000" stroke-miterlimit="2" y1="89.604" stroke-width=".244" fill="none"/>
		<line y2="86.143" x1="308.95" x2="297.69" stroke="#000" stroke-miterlimit="2" y1="86.143" stroke-width=".244" fill="none"/>
		<line y2="91.327" x1="296.94" x2="296.97" stroke="#000" stroke-miterlimit="2" y1="91.325" stroke-width=".244" fill="none"/>
	<polyline stroke="#000" stroke-width=".244" stroke-miterlimit="2" points="297.86 89.958 297.86 89.958 297.85 89.958 297.85 89.957 297.85 89.956 297.84 89.955 297.84 89.954 297.84 89.951 297.84 89.949 297.83 89.947 297.83 89.944 297.83 89.941 297.83 89.941" fill="none"/>
	<polyline stroke="#000" stroke-width=".244" stroke-miterlimit="2" points="306.94 89.958 306.93 89.958 306.93 89.958 306.93 89.957 306.92 89.956 306.92 89.955 306.92 89.954 306.91 89.951 306.91 89.949 306.91 89.947 306.91 89.944 306.9 89.941 306.9 89.941" fill="none"/>
	<polyline stroke="#000" stroke-width=".244" stroke-miterlimit="2" points="373.44 227.11 373.48 227.09 373.52 227.07 373.55 227.05 373.58 227.02 373.61 226.99 373.64 226.96 373.67 226.94 373.69 226.9 373.71 226.87" fill="none"/>
		<line y2="227.11" x1="373.4" x2="373.44" stroke="#000" stroke-miterlimit="2" y1="227.13" stroke-width=".244" fill="none"/>
	<polyline stroke="#000" stroke-width=".244" stroke-miterlimit="2" points="373.36 227.12 373.43 227.09 373.5 227.05 373.56 227" fill="none"/>
	<polyline stroke="#000" stroke-width=".244" stroke-miterlimit="2" points="373.32 227.16 373.36 227.15 373.4 227.13" fill="none"/>
	<polyline stroke="#000" stroke-width=".244" stroke-miterlimit="2" points="306.71 90.44 306.75 90.431 306.78 90.419 306.82 90.407 306.85 90.394 306.88 90.379 306.92 90.363 306.95 90.346 306.98 90.328 307.01 90.308 307.04 90.288" fill="none"/>
	<polyline stroke="#000" stroke-width=".244" stroke-miterlimit="2" points="297.64 90.44 297.67 90.431 297.71 90.419 297.74 90.407" fill="none"/>
	<polyline stroke="#000" stroke-width=".244" stroke-miterlimit="2" points="306.65 89.352 306.62 89.361 306.59 89.37 306.55 89.381 306.52 89.394 306.48 89.407 306.45 89.422 306.42 89.438 306.39 89.455 306.36 89.473 306.32 89.493 306.3 89.512 306.27 89.535 306.24 89.557 306.21 89.579 306.19 89.604 306.16 89.628 306.14 89.653 306.12 89.679 306.1 89.706 306.08 89.732 306.06 89.76 306.04 89.787 306.03 89.816 306.02 89.844 306.01 89.872 306 89.9" fill="none"/>
	<polyline stroke="#000" stroke-width=".244" stroke-miterlimit="2" points="306.72 90.462 306.68 90.47 306.65 90.478 306.61 90.483 306.58 90.487 306.54 90.489 306.51 90.491 306.47 90.491 306.44 90.489 306.41 90.486 306.37 90.482 306.34 90.475 306.31 90.469 306.28 90.458 306.25 90.449 306.23 90.438 306.2 90.425 306.17 90.411 306.15 90.396 306.13 90.379 306.1 90.361 306.08 90.342" fill="none"/>
	<polyline stroke="#000" stroke-width=".244" stroke-miterlimit="2" points="297.64 90.462 297.61 90.47 297.57 90.478 297.54 90.483 297.5 90.487 297.47 90.489 297.43 90.491 297.4 90.491 297.36 90.489 297.33 90.486 297.3 90.482 297.27 90.475 297.24 90.469 297.21 90.458 297.18 90.449 297.15 90.438 297.12 90.425 297.1 90.411 297.07 90.396 297.05 90.379 297.03 90.361 297.01 90.342 296.99 90.322 296.97 90.301 296.96 90.279 296.94 90.256 296.93 90.233 296.92 90.208 296.91 90.184 296.9 90.158 296.9 90.131 296.89 90.104 296.89 90.077 296.89 90.048 296.89 90.02 296.9 89.991 296.9 89.962 296.91 89.933 296.91 89.905" fill="none"/>
		<line y2="89.353" x1="306.69" x2="306.65" stroke="#000" stroke-miterlimit="2" y1="89.345" stroke-width=".244" fill="none"/>
	<polyline stroke="#000" stroke-width=".244" stroke-miterlimit="2" points="306.66 89.347 306.7 89.34 306.73 89.334 306.76 89.33 306.8 89.328 306.83 89.326 306.87 89.326 306.9 89.328 306.94 89.331 306.97 89.336 307 89.341 307.03 89.349" fill="none"/>
	<polyline stroke="#000" stroke-width=".244" stroke-miterlimit="2" points="297.68 89.336 297.65 89.34 297.62 89.344 297.58 89.352 297.55 89.36 297.51 89.37 297.48 89.381 297.44 89.393 297.41 89.407 297.38 89.421 297.34 89.438" fill="none"/>
	<polyline stroke="#000" stroke-width=".244" stroke-miterlimit="2" points="297.66 89.334 297.69 89.33 297.73 89.327" fill="none"/>
	<polyline stroke="#000" stroke-width=".244" stroke-miterlimit="2" points="297.69 86.143 297.68 86.143 297.67 86.143 297.66 86.144 297.66 86.145 297.65 86.147 297.64 86.149 297.64 86.152 297.63 86.154 297.62 86.158 297.62 86.161 297.61 86.166 297.6 86.168 297.6 86.173 297.59 86.177 297.59 86.182 297.58 86.187 297.58 86.192 297.57 86.196 297.57 86.203 297.56 86.208 297.56 86.214 297.56 86.219 297.56 86.225 297.55 86.231" fill="none"/>
	<polyline stroke="#000" stroke-width=".244" stroke-miterlimit="2" points="326.56 144.88 326.55 144.9 326.54 144.94 326.53 144.99 326.53 145.04 326.53 145.09 326.53 145.14 326.54 145.19 326.56 145.24 326.57 145.29 326.59 145.35 326.62 145.4" fill="none"/>
		<line y2="144.21" x1="326.58" x2="326.54" stroke="#000" stroke-miterlimit="2" y1="144.06" stroke-width=".244" fill="none"/>
		<line y2="144.87" x1="326.74" x2="326.56" stroke="#000" stroke-miterlimit="2" y1="144.27" stroke-width=".244" fill="none"/>
		<line y2="145.93" x1="330.14" x2="329.96" stroke="#000" stroke-miterlimit="2" y1="145.32" stroke-width=".244" fill="none"/>
		<line y2="145.39" x1="330.39" x2="330.35" stroke="#000" stroke-miterlimit="2" y1="145.24" stroke-width=".244" fill="none"/>
	<polyline stroke="#000" stroke-width=".244" stroke-miterlimit="2" points="329.96 145.93 329.95 145.95 329.93 146 329.91 146.04 329.88 146.08 329.85 146.13 329.82 146.16 329.78 146.2 329.74 146.24 329.7 146.27 329.65 146.3 329.6 146.33 329.55 146.36 329.49 146.38 329.43 146.41 329.37 146.43 329.31 146.45 329.24 146.46 329.17 146.48 329.1 146.49 329.03 146.5 328.95 146.5 328.88 146.51 328.8 146.51 328.72 146.51 328.64 146.5 328.56 146.5 328.48 146.49 328.4 146.48 328.31 146.46 328.23 146.45 328.15 146.43 328.07 146.41 327.99 146.38 327.91 146.36 327.83 146.33 327.75 146.3 327.67 146.27 327.59 146.24 327.52 146.2 327.44 146.16 327.37 146.13 327.3 146.08 327.24 146.04 327.17 146 327.11 145.95 327.05 145.91 326.99 145.86 326.94 145.81 326.88 145.76 326.84 145.71 326.79 145.66 326.75 145.61 326.71 145.56 326.68 145.51 326.64 145.45 326.62 145.4" fill="none"/>
	<polyline stroke="#000" stroke-width=".244" stroke-miterlimit="2" points="330.12 145.82 330.23 145.74 330.32 145.66 330.4 145.56 330.42 145.51" fill="none"/>
	<polyline stroke="#000" stroke-width=".244" stroke-miterlimit="2" points="329.97 145.9 330 145.89 330.12 145.82" fill="none"/>
		<line y2="144.85" x1="326.5" x2="326.56" stroke="#000" stroke-miterlimit="2" y1="144.75" stroke-width=".244" fill="none"/>
	<polyline stroke="#000" stroke-width=".244" stroke-miterlimit="2" points="329.44 145.42 329.42 145.38 329.4 145.34 329.37 145.3 329.34 145.26 329.31 145.23 329.27 145.19 329.23 145.15 329.19 145.11 329.15 145.08 329.11 145.04 329.06 145 329.01 144.97 328.96 144.94 328.91 144.91 328.85 144.88 328.8 144.85 328.74 144.82 328.68 144.8 328.62 144.77 328.56 144.75 328.5 144.73 328.44 144.71 328.38 144.69 328.32 144.68 328.26 144.66 328.19 144.65 328.13 144.64 328.07 144.63 328.01 144.63 327.94 144.62 327.89 144.62 327.82 144.62 327.77 144.62 327.71 144.63 327.65 144.63 327.6 144.64 327.55 144.65 327.5 144.66 327.45 144.68 327.4 144.69 327.35 144.71 327.31 144.73 327.27 144.75 327.23 144.77 327.2 144.8 327.16 144.82 327.14 144.85 327.11 144.88 327.08 144.91 327.06 144.94 327.04 144.97 327.03 145 327.01 145.04 327 145.08 327 145.11 326.99 145.15 326.99 145.19 327 145.23 327 145.26 327.01 145.3 327.02 145.34 327.04 145.38 327.06 145.42" fill="none"/>
	<polyline stroke="#000" stroke-width=".244" stroke-miterlimit="2" points="330.08 144.8 330.06 144.74 330.02 144.69 329.99 144.64 329.95 144.59 329.91 144.54 329.86 144.49 329.86 144.48" fill="none"/>
	<polyline stroke="#000" stroke-width=".244" stroke-miterlimit="2" points="329.9 145.4 329.87 145.35 329.84 145.3 329.8 145.24 329.76 145.19 329.72 145.14 329.68 145.09 329.63 145.04 329.58 144.99 329.52 144.94 329.46 144.89 329.4 144.85 329.34 144.8 329.28 144.76 329.21 144.72 329.14 144.68 329.07 144.64 329 144.6 328.92 144.56 328.84 144.53 328.77 144.5 328.69 144.47 328.6 144.44 328.52 144.42 328.44 144.39 328.36 144.37 328.28 144.35 328.2 144.34 328.12 144.32 328.03 144.31 327.95 144.31 327.87 144.3 327.79 144.3 327.71 144.29 327.64 144.3 327.56 144.3 327.48 144.31 327.41 144.31 327.34 144.32 327.27 144.34 327.21 144.35 327.14 144.37 327.08 144.39 327.02 144.42 326.97 144.44 326.91 144.47 326.86 144.5 326.82 144.53 326.77 144.56 326.73 144.6 326.69 144.64 326.66 144.68 326.63 144.72 326.6 144.76 326.58 144.8 326.56 144.85 326.55 144.88" fill="none"/>
	<polyline stroke="#000" stroke-width=".244" stroke-miterlimit="2" points="329.9 145.4 329.92 145.45 329.94 145.51 329.96 145.56 329.97 145.61 329.98 145.66 329.98 145.71 329.98 145.76 329.98 145.81 329.97 145.86 329.96 145.91 329.96 145.93" fill="none"/>
	<polyline stroke="#000" stroke-width=".244" stroke-miterlimit="2" points="330.08 144.8 330.11 144.85 330.13 144.9 330.14 144.96 330.16 145.01 330.16 145.06 330.17 145.11 330.17 145.16 330.17 145.21 330.16 145.26 330.15 145.31 330.14 145.32" fill="none"/>
	<polyline stroke="#000" stroke-width=".244" stroke-miterlimit="2" points="329.44 145.42 329.46 145.46 329.47 145.5 329.49 145.54 329.49 145.58 329.5 145.62 329.5 145.66 329.5 145.7 329.5 145.74 329.49 145.77 329.48 145.81 329.47 145.84 329.46 145.88 329.44 145.91 329.42 145.94 329.39 145.97 329.36 146 329.33 146.03 329.3 146.05 329.26 146.08 329.23 146.1 329.19 146.12 329.14 146.14 329.1 146.16 329.05 146.17 329 146.19 328.95 146.2 328.9 146.21 328.84 146.22 328.79 146.22 328.73 146.23 328.67 146.23 328.61 146.23 328.56 146.23 328.49 146.22 328.43 146.22 328.37 146.21 328.31 146.2 328.24 146.19 328.18 146.17 328.12 146.16 328.06 146.14 328 146.12 327.93 146.1 327.87 146.08 327.81 146.05 327.76 146.03 327.7 146 327.64 145.97 327.59 145.94 327.54 145.91 327.49 145.88 327.44 145.84 327.39 145.81 327.35 145.77 327.3 145.74 327.26 145.7 327.23 145.66 327.19 145.62 327.16 145.58 327.13 145.54 327.1 145.5 327.08 145.46 327.06 145.42" fill="none"/>
	<polyline stroke="#000" stroke-width=".244" stroke-miterlimit="2" points="327.45 143.74 327.39 143.75 327.33 143.77 327.27 143.79 327.21 143.81 327.15 143.84 327.1 143.87 327.05 143.9 327 143.93 326.96 143.96 326.92 144 326.88 144.04 326.85 144.07 326.82 144.11 326.79 144.16 326.77 144.2 326.75 144.24 326.74 144.27" fill="none"/>
		<line y2="222.84" x1="363.07" x2="369.68" stroke="#1F479D" stroke-miterlimit="2" y1="222.84" stroke-width=".244" fill="none"/>
		<line y2="218.42" x1="364.77" x2="365.55" stroke="#1F479D" stroke-miterlimit="2" y1="218.42" stroke-width=".244" fill="none"/>
		<line y2="217.4" x1="361.53" x2="364.27" stroke="#1F479D" stroke-miterlimit="2" y1="217.4" stroke-width=".244" fill="none"/>
		<line y2="217.4" x1="365.05" x2="365.9" stroke="#1F479D" stroke-miterlimit="2" y1="217.4" stroke-width=".244" fill="none"/>
		<line y2="217.1" x1="360.26" x2="360.84" stroke="#1F479D" stroke-miterlimit="2" y1="217.1" stroke-width=".244" fill="none"/>
		<line y2="217.1" x1="366.62" x2="366.86" stroke="#1F479D" stroke-miterlimit="2" y1="217.1" stroke-width=".244" fill="none"/>
		<line y2="216.92" x1="365.66" x2="364.81" stroke="#1F479D" stroke-miterlimit="2" y1="216.92" stroke-width=".244" fill="none"/>
		<line y2="216.92" x1="364.04" x2="362.06" stroke="#1F479D" stroke-miterlimit="2" y1="216.92" stroke-width=".244" fill="none"/>
		<line y2="216.64" x1="366.64" x2="366.4" stroke="#1F479D" stroke-miterlimit="2" y1="216.64" stroke-width=".244" fill="none"/>
		<line y2="216.64" x1="360.61" x2="360.03" stroke="#1F479D" stroke-miterlimit="2" y1="216.64" stroke-width=".244" fill="none"/>
		<line y2="214.16" x1="363.46" x2="362.82" stroke="#1F479D" stroke-miterlimit="2" y1="214.16" stroke-width=".244" fill="none"/>
		<line y2="210.9" x1="363.82" x2="357.22" stroke="#1F479D" stroke-miterlimit="2" y1="210.9" stroke-width=".244" fill="none"/>
		<line y2="194.89" x1="349.36" x2="355.96" stroke="#1F479D" stroke-miterlimit="2" y1="194.89" stroke-width=".244" fill="none"/>
		<line y2="190.96" x1="354.04" x2="347.43" stroke="#1F479D" stroke-miterlimit="2" y1="190.96" stroke-width=".244" fill="none"/>
		<line y2="174.94" x1="339.57" x2="346.18" stroke="#1F479D" stroke-miterlimit="2" y1="174.94" stroke-width=".244" fill="none"/>
		<line y2="169.96" x1="339.3" x2="338.51" stroke="#1F479D" stroke-miterlimit="2" y1="169.91" stroke-width=".244" fill="none"/>
		<line y2="169.2" x1="336.75" x2="337.33" stroke="#1F479D" stroke-miterlimit="2" y1="169.2" stroke-width=".244" fill="none"/>
		<line y2="169.2" x1="343.12" x2="343.36" stroke="#1F479D" stroke-miterlimit="2" y1="169.2" stroke-width=".244" fill="none"/>
		<line y2="168.75" x1="343.14" x2="342.89" stroke="#1F479D" stroke-miterlimit="2" y1="168.75" stroke-width=".244" fill="none"/>
		<line y2="168.75" x1="337.11" x2="336.53" stroke="#1F479D" stroke-miterlimit="2" y1="168.75" stroke-width=".244" fill="none"/>
		<line y2="167.37" x1="338.61" x2="341.13" stroke="#1F479D" stroke-miterlimit="2" y1="167.37" stroke-width=".244" fill="none"/>
		<line y2="166.87" x1="340.88" x2="337.74" stroke="#1F479D" stroke-miterlimit="2" y1="166.87" stroke-width=".244" fill="none"/>
		<line y2="169.12" x1="338.2" x2="338.96" stroke="#1F479D" stroke-miterlimit="2" y1="169.06" stroke-width=".244" fill="none"/>
	<polyline stroke="#1F479D" stroke-width=".244" stroke-miterlimit="2" points="338.51 169.96 338.54 170.01 338.58 170.06 338.61 170.11 338.65 170.16 338.69 170.21 338.74 170.26 338.78 170.3 338.83 170.35 338.89 170.4 338.94 170.44 339 170.49 339.06 170.54 339.12 170.58 339.19 170.62 339.26 170.67 339.33 170.71 339.4 170.75 339.48 170.78 339.55 170.82 339.63 170.86 339.71 170.89 339.79 170.92 339.88 170.95 339.96 170.98 340.04 171 340.13 171.03 340.21 171.05 340.3 171.06 340.38 171.08 340.46 171.09 340.54 171.11 340.62 171.12 340.7 171.13 340.78 171.13 340.87 171.14 340.95 171.14 341.04 171.15 341.12 171.15 341.2 171.15 341.28 171.14 341.36 171.14 341.44 171.13 341.52 171.12 341.6 171.11 341.67 171.1 341.74 171.09 341.81 171.08 341.87 171.06 341.93 171.04 341.99 171.02 342.05 171 342.11 170.97 342.16 170.94 342.21 170.92 342.26 170.89 342.3 170.86 342.35 170.82 342.39 170.78 342.42 170.75 342.46 170.71 342.49 170.67 342.52 170.63 342.55 170.59 342.57 170.54 342.6 170.5 342.62 170.45 342.63 170.41 342.65 170.36 342.66 170.32 342.66 170.27 342.67 170.22 342.67 170.17 342.67 170.12 342.67 170.07 342.66 170.01 342.65 169.96 342.64 169.91 342.62 169.85 342.6 169.8 342.58 169.74 342.56 169.69 342.53 169.63 342.5 169.57 342.47 169.51 342.43 169.46" fill="none"/>
		<line y2="216.64" x1="360.84" x2="360.61" stroke="#1F479D" stroke-miterlimit="2" y1="217.1" stroke-width=".244" fill="none"/>
		<line y2="168.75" x1="337.33" x2="337.11" stroke="#1F479D" stroke-miterlimit="2" y1="169.2" stroke-width=".244" fill="none"/>
		<line y2="120.85" x1="313.83" x2="313.61" stroke="#1F479D" stroke-miterlimit="2" y1="121.31" stroke-width=".244" fill="none"/>
		<line y2="217.4" x1="361.3" x2="361.53" stroke="#1F479D" stroke-miterlimit="2" y1="216.92" stroke-width=".244" fill="none"/>
	<polyline stroke="#1F479D" stroke-width=".244" stroke-miterlimit="2" points="315.08 120.71 315.04 120.64 315.01 120.57 314.98 120.5 314.95 120.43 314.92 120.36 314.9 120.29 314.88 120.22 314.86 120.15 314.85 120.1 314.84 120.05 314.83 120 314.82 119.96 314.81 119.91 314.81 119.86 314.81 119.82 314.81 119.77 314.81 119.73 314.82 119.69 314.82 119.65 314.84 119.61 314.85 119.57 314.86 119.53 314.88 119.5 314.89 119.46 314.91 119.42 314.93 119.39 314.96 119.36 314.98 119.33 315.01 119.3 315.03 119.28 315.06 119.25 315.1 119.22 315.13 119.2 315.16 119.18 315.2 119.16 315.23 119.15 315.27 119.13 315.3 119.12 315.34 119.11 315.38 119.1 315.43 119.09 315.47 119.08 315.52 119.07 315.57 119.07 315.61 119.06 315.66 119.06 315.71 119.06 315.76 119.06 315.81 119.06 315.86 119.07 315.91 119.07 315.96 119.08 316.01 119.09 316.06 119.09 316.11 119.1 316.16 119.12 316.22 119.13 316.27 119.14 316.32 119.16 316.36 119.18 316.41 119.2 316.46 119.22 316.51 119.24 316.55 119.26 316.6 119.28 316.64 119.31 316.68 119.34 316.72 119.36 316.76 119.39 316.8 119.42 316.84 119.45 316.87 119.48 316.9 119.51 316.94 119.54 316.97 119.57 317 119.6 317.03 119.64 317.06 119.67 317.08 119.7 317.11 119.73" fill="none"/>
		<line y2="163.01" x1="340.32" x2="333.71" stroke="#1F479D" stroke-miterlimit="2" y1="163.01" stroke-width=".244" fill="none"/>
	<polyline stroke="#1F479D" stroke-width=".244" stroke-miterlimit="2" points="342.43 169.46 342.41 169.42 342.38 169.38 342.35 169.34 342.32 169.3 342.28 169.25 342.24 169.21 342.2 169.16 342.16 169.12 342.12 169.08 342.07 169.04 342.03 169 341.98 168.96 341.93 168.92 341.88 168.88 341.82 168.84 341.77 168.81 341.72 168.77 341.66 168.74 341.6 168.7 341.54 168.67 341.48 168.64 341.41 168.6 341.34 168.57 341.27 168.54 341.2 168.51 341.13 168.48 341.06 168.46 340.99 168.43 340.92 168.41 340.85 168.39 340.77 168.36 340.7 168.35 340.62 168.33 340.55 168.31 340.48 168.3 340.4 168.29 340.33 168.28 340.25 168.27 340.18 168.26 340.11 168.26 340.03 168.25 339.96 168.25 339.89 168.25 339.82 168.25 339.75 168.25 339.69 168.26 339.62 168.26 339.56 168.27 339.49 168.28 339.43 168.29 339.37 168.3 339.31 168.32 339.25 168.33 339.19 168.35 339.14 168.37 339.08 168.39 339.03 168.41 338.98 168.44 338.92 168.46 338.88 168.49 338.83 168.52" fill="none"/>
		<line y2="216.92" x1="363.09" x2="364.04" stroke="#1F479D" stroke-miterlimit="2" y1="215" stroke-width=".244" fill="none"/>
		<line y2="218.42" x1="364.27" x2="364.77" stroke="#1F479D" stroke-miterlimit="2" y1="217.4" stroke-width=".244" fill="none"/>
		<line y2="217.4" x1="365.55" x2="365.05" stroke="#1F479D" stroke-miterlimit="2" y1="218.42" stroke-width=".244" fill="none"/>
		<line y2="214.16" x1="364.81" x2="363.46" stroke="#1F479D" stroke-miterlimit="2" y1="216.92" stroke-width=".244" fill="none"/>
		<line y2="166.87" x1="341.13" x2="340.88" stroke="#1F479D" stroke-miterlimit="2" y1="167.37" stroke-width=".244" fill="none"/>
		<line y2="216.92" x1="365.9" x2="365.66" stroke="#1F479D" stroke-miterlimit="2" y1="217.4" stroke-width=".244" fill="none"/>
		<line y2="121.31" x1="319.39" x2="319.61" stroke="#1F479D" stroke-miterlimit="2" y1="120.85" stroke-width=".244" fill="none"/>
		<line y2="169.2" x1="342.89" x2="343.12" stroke="#1F479D" stroke-miterlimit="2" y1="168.75" stroke-width=".244" fill="none"/>
		<line y2="217.1" x1="366.4" x2="366.62" stroke="#1F479D" stroke-miterlimit="2" y1="216.64" stroke-width=".244" fill="none"/>
	<polyline stroke="#1F479D" stroke-width=".244" stroke-miterlimit="2" points="315.6 121.53 315.58 121.49 315.56 121.45 315.55 121.41 315.53 121.37 315.52 121.33 315.52 121.3 315.51 121.27 315.51 121.24 315.51 121.21 315.5 121.18 315.51 121.15 315.51 121.12 315.52 121.09 315.52 121.06 315.53 121.03 315.54 121 315.56 120.97 315.58 120.94 315.6 120.91 315.61 120.89 315.64 120.86 315.66 120.84 315.69 120.81 315.71 120.79 315.74 120.77 315.77 120.75 315.8 120.73 315.84 120.72 315.87 120.7 315.91 120.68 315.95 120.67 315.99 120.66 316.03 120.65 316.07 120.64 316.12 120.63 316.16 120.62 316.21 120.62 316.26 120.61 316.3 120.61 316.35 120.61 316.4 120.61 316.45 120.61 316.5 120.61 316.56 120.61 316.61 120.62 316.66 120.62 316.71 120.63 316.76 120.64 316.81 120.65 316.87 120.66 316.92 120.67 316.97 120.68 317.02 120.7 317.07 120.72 317.12 120.73 317.17 120.75 317.22 120.77 317.27 120.79 317.31 120.81 317.36 120.84 317.41 120.86 317.45 120.89 317.5 120.92 317.54 120.94 317.59 120.97 317.63 121 317.67 121.03 317.71 121.06 317.75 121.1 317.78 121.13 317.82 121.16 317.84 121.19 317.87 121.22 317.9 121.25 317.92 121.28 317.95 121.32 317.97 121.35 318 121.39 318.03 121.43 318.05 121.47 318.07 121.52 318.1 121.56 318.12 121.6" fill="none"/>
	<polyline stroke="#1F479D" stroke-width=".244" stroke-miterlimit="2" points="318.12 121.6 318.14 121.64 318.15 121.69 318.17 121.73 318.18 121.77 318.19 121.81 318.2 121.85 318.2 121.89 318.21 121.93 318.21 121.97 318.21 122 318.21 122.03 318.2 122.06 318.2 122.09 318.19 122.12 318.18 122.15 318.17 122.18 318.15 122.2 318.14 122.23 318.12 122.26 318.1 122.28 318.08 122.31 318.06 122.33 318.03 122.35 318 122.37 317.98 122.39 317.94 122.41 317.91 122.43 317.88 122.44 317.85 122.46 317.81 122.48 317.77 122.49 317.73 122.5 317.69 122.51 317.65 122.52 317.61 122.53 317.57 122.54 317.52 122.54 317.48 122.55 317.43 122.55 317.39 122.55 317.34 122.55 317.3 122.55 317.25 122.54 317.2 122.54 317.16 122.54 317.11 122.53 317.06 122.52 317.01 122.51 316.96 122.5 316.92 122.49 316.87 122.48 316.82 122.46 316.77 122.45 316.73 122.44 316.68 122.42 316.63 122.4 316.58 122.38 316.53 122.36 316.48 122.34 316.43 122.31 316.38 122.29 316.33 122.26 316.29 122.24 316.25 122.21 316.21 122.19 316.17 122.16 316.13 122.13 316.09 122.1 316.06 122.07 316.02 122.04 315.98 122.01 315.94 121.98 315.9 121.94 315.87 121.9 315.84 121.87 315.8 121.83 315.77 121.79 315.74 121.76 315.71 121.72 315.69 121.68 315.66 121.64 315.64 121.6 315.62 121.57 315.6 121.53" fill="none"/>
		<line y2="169.06" x1="337.74" x2="338.2" stroke="#1F479D" stroke-miterlimit="2" y1="166.87" stroke-width=".244" fill="none"/>
		<line y2="167.37" x1="338.83" x2="338.61" stroke="#1F479D" stroke-miterlimit="2" y1="168.52" stroke-width=".244" fill="none"/>
	<polyline stroke="#1F479D" stroke-width=".244" stroke-miterlimit="2" points="338.96 169.12 338.98 169.1 339 169.06 339.02 169.04 339.04 169.01 339.06 168.98 339.09 168.96 339.12 168.93 339.15 168.91 339.18 168.89 339.22 168.86 339.25 168.84 339.29 168.83 339.33 168.81 339.38 168.79 339.42 168.78 339.47 168.76 339.52 168.75 339.57 168.74 339.62 168.73 339.66 168.73 339.71 168.72 339.76 168.72 339.81 168.71 339.86 168.71 339.91 168.71 339.97 168.71 340.02 168.71 340.08 168.72 340.14 168.72 340.2 168.73 340.25 168.73 340.31 168.74 340.37 168.75 340.43 168.76 340.49 168.78 340.54 168.79 340.6 168.8 340.65 168.82 340.7 168.84 340.76 168.86 340.81 168.88 340.86 168.9 340.91 168.92 340.96 168.95 341.01 168.97 341.06 169 341.11 169.02 341.16 169.05 341.2 169.08 341.25 169.11 341.29 169.14 341.33 169.18 341.37 169.21 341.41 169.24 341.44 169.28 341.48 169.31 341.51 169.35 341.54 169.39 341.58 169.43 341.6 169.46 341.63 169.51 341.66 169.55 341.69 169.59 341.71 169.63 341.73 169.68 341.75 169.72 341.77 169.77 341.79 169.81 341.8 169.86 341.82 169.9 341.83 169.94 341.83 169.98 341.84 170.02 341.84 170.06 341.84 170.1 341.84 170.14 341.84 170.17 341.83 170.2 341.82 170.24 341.81 170.27 341.8 170.3 341.78 170.33" fill="none"/>
	<polyline stroke="#1F479D" stroke-width=".244" stroke-miterlimit="2" points="341.78 170.33 341.77 170.36 341.75 170.38 341.73 170.41 341.72 170.43 341.7 170.45 341.67 170.48 341.65 170.5 341.63 170.52 341.6 170.54 341.58 170.55 341.55 170.57 341.52 170.59 341.49 170.6 341.46 170.62 341.42 170.63 341.39 170.65 341.35 170.66 341.31 170.67 341.27 170.68 341.23 170.69 341.18 170.7 341.14 170.7 341.1 170.71 341.05 170.71 341 170.72 340.96 170.72 340.91 170.72 340.86 170.72 340.82 170.72 340.77 170.71 340.73 170.71 340.68 170.7 340.64 170.7 340.59 170.69 340.54 170.68 340.5 170.68 340.45 170.67 340.4 170.66 340.36 170.64 340.32 170.63 340.27 170.62 340.23 170.6 340.18 170.59 340.14 170.57 340.1 170.55 340.06 170.53 340.01 170.52 339.97 170.49 339.93 170.47 339.89 170.45 339.85 170.42 339.81 170.4 339.77 170.37 339.73 170.35 339.7 170.32 339.66 170.29 339.63 170.27 339.6 170.24 339.56 170.21 339.53 170.18 339.5 170.15 339.47 170.12 339.44 170.09 339.42 170.06 339.39 170.03 339.37 170 339.34 169.97 339.32 169.94 339.3 169.91" fill="none"/>
	<polyline stroke="#1F479D" stroke-width=".244" stroke-miterlimit="2" points="318.7 121.23 318.66 121.19 318.63 121.14 318.59 121.1 318.55 121.06 318.51 121.01 318.46 120.97 318.42 120.93 318.38 120.89 318.33 120.85 318.28 120.81 318.23 120.77 318.18 120.74 318.13 120.7 318.07 120.66 318.02 120.63 317.96 120.6 317.9 120.56 317.84 120.53 317.78 120.5 317.72 120.47 317.66 120.44 317.6 120.41 317.53 120.39 317.47 120.36 317.41 120.34 317.35 120.32 317.28 120.3 317.22 120.28 317.16 120.26 317.1 120.24 317.02 120.22 316.96 120.21 316.89 120.19 316.81 120.18 316.74 120.17 316.68 120.16 316.6 120.16 316.54 120.15 316.47 120.15 316.4 120.15 316.33 120.14 316.26 120.15 316.2 120.15 316.13 120.15 316.07 120.16 316 120.17 315.94 120.18 315.88 120.18 315.82 120.2 315.76 120.21 315.71 120.23 315.65 120.24 315.6 120.26 315.55 120.28 315.5 120.31 315.46 120.33 315.41 120.36 315.37 120.38 315.33 120.41 315.3 120.44 315.26 120.47 315.23 120.5 315.2 120.53 315.17 120.57 315.14 120.6 315.12 120.64 315.1 120.67 315.08 120.71" fill="none"/>
	<polyline stroke="#1F479D" stroke-width=".244" stroke-miterlimit="2" points="314.82 121.6 314.86 121.67 314.92 121.73 314.97 121.8 315.02 121.86 315.07 121.92 315.12 121.97 315.17 122.02 315.23 122.07 315.28 122.12 315.34 122.17 315.4 122.22 315.46 122.27 315.52 122.32 315.59 122.37 315.65 122.41 315.72 122.46 315.8 122.5 315.87 122.54 315.94 122.58 316.02 122.62 316.1 122.66 316.18 122.69 316.26 122.72 316.34 122.76 316.42 122.78 316.5 122.81 316.59 122.84 316.67 122.86 316.75 122.88 316.83 122.9 316.9 122.91 316.98 122.93 317.06 122.94 317.13 122.95 317.22 122.96 317.3 122.97 317.38 122.97 317.45 122.98 317.53 122.98 317.61 122.98 317.69 122.98 317.76 122.98 317.84 122.97 317.91 122.97 317.99 122.96 318.06 122.95 318.13 122.93 318.19 122.92 318.25 122.9 318.32 122.89 318.37 122.87 318.43 122.85 318.48 122.82 318.54 122.8 318.59 122.77 318.63 122.74 318.68 122.71 318.72 122.68 318.76 122.64 318.8 122.6 318.83 122.57 318.86 122.53 318.89 122.49 318.91 122.44 318.93 122.4 318.95 122.36 318.97 122.32 318.98 122.27 318.99 122.22 319 122.17 319.01 122.12 319.01 122.07 319.01 122.02 319 121.96 319 121.91 318.98 121.85 318.97 121.78 318.95 121.72 318.93 121.65 318.9 121.59 318.87 121.52 318.84 121.47 318.81 121.41 318.78 121.35 318.74 121.29 318.7 121.23" fill="none"/>
	<polyline stroke="#1F479D" stroke-width=".244" stroke-miterlimit="2" points="317.86 119.69 317.82 119.64 317.78 119.58 317.74 119.53 317.69 119.48 317.64 119.42 317.58 119.37 317.53 119.32 317.47 119.27 317.41 119.22 317.34 119.17 317.27 119.12 317.21 119.08 317.14 119.03 317.06 118.99 316.98 118.95 316.91 118.91 316.83 118.88 316.75 118.85 316.67 118.82 316.59 118.79 316.51 118.76 316.43 118.74 316.34 118.72 316.26 118.7 316.18 118.68 316.09 118.67 316 118.66 315.91 118.65 315.82 118.64 315.73 118.64 315.64 118.63 315.55 118.63 315.46 118.63 315.36 118.64 315.27 118.64 315.18 118.65 315.09 118.66 315.01 118.68 314.93 118.69 314.86 118.71 314.78 118.73 314.71 118.75 314.65 118.78 314.58 118.81 314.52 118.84 314.47 118.87 314.41 118.91 314.36 118.95 314.32 118.99 314.27 119.03 314.23 119.07 314.2 119.12 314.17 119.17 314.14 119.22 314.11 119.27 314.09 119.33 314.08 119.38 314.06 119.44 314.05 119.51 314.04 119.57 314.04 119.64 314.04 119.71 314.04 119.78 314.05 119.85 314.06 119.93 314.08 120.01 314.1 120.09 314.12 120.18 314.14 120.26 314.17 120.34 314.2 120.43 314.23 120.52 314.27 120.62 314.31 120.72 314.36 120.81 314.41 120.91 314.45 121 314.5 121.09 314.55 121.18 314.59 121.26 314.64 121.34 314.7 121.43 314.75 121.52 314.82 121.6" fill="none"/>
		<line y2="146.99" x1="325.85" x2="332.46" stroke="#1F479D" stroke-miterlimit="2" y1="146.99" stroke-width=".244" fill="none"/>
		<line y2="143.07" x1="323.93" x2="330.53" stroke="#1F479D" stroke-miterlimit="2" y1="143.07" stroke-width=".244" fill="none"/>
		<line y2="127.05" x1="316.07" x2="322.68" stroke="#1F479D" stroke-miterlimit="2" y1="127.05" stroke-width=".244" fill="none"/>
		<line y2="119.69" x1="317.11" x2="317.86" stroke="#1F479D" stroke-miterlimit="2" y1="119.73" stroke-width=".244" fill="none"/>
		<line y2="121.31" x1="313.25" x2="313.83" stroke="#1F479D" stroke-miterlimit="2" y1="121.31" stroke-width=".244" fill="none"/>
		<line y2="121.31" x1="319.61" x2="319.86" stroke="#1F479D" stroke-miterlimit="2" y1="121.31" stroke-width=".244" fill="none"/>
		<line y2="120.85" x1="319.63" x2="319.39" stroke="#1F479D" stroke-miterlimit="2" y1="120.85" stroke-width=".244" fill="none"/>
		<line y2="120.85" x1="313.61" x2="313.02" stroke="#1F479D" stroke-miterlimit="2" y1="120.85" stroke-width=".244" fill="none"/>
		<line y2="115.11" x1="316.82" x2="310.21" stroke="#1F479D" stroke-miterlimit="2" y1="115.11" stroke-width=".244" fill="none"/>
		<line y2="215" x1="362.06" x2="363.09" stroke="#1F479D" stroke-miterlimit="2" y1="216.92" stroke-width=".244" fill="none"/>
		<line y2="216.92" x1="362.82" x2="361.3" stroke="#1F479D" stroke-miterlimit="2" y1="214.16" stroke-width=".244" fill="none"/>
		<line y2="99.097" x1="308.96" x2="302.35" stroke="#1F479D" stroke-miterlimit="2" y1="99.097" stroke-width=".244" fill="none"/>
		<line y2="95.171" x1="300.42" x2="307.03" stroke="#1F479D" stroke-miterlimit="2" y1="95.171" stroke-width=".244" fill="none"/>
		<line y2="82.048" x1="227.42" x2="227.42" stroke="#000" stroke-miterlimit="2" y1="74.841" stroke-width=".458" fill="none"/>
		<line y2="87.624" x1="229.85" x2="229.85" stroke="#000" stroke-miterlimit="2" y1="86.958" stroke-width=".458" fill="none"/>
		<line y2="86.825" x1="230.52" x2="230.52" stroke="#000" stroke-miterlimit="2" y1="86.292" stroke-width=".458" fill="none"/>
		<line y2="88.289" x1="230.52" x2="230.52" stroke="#000" stroke-miterlimit="2" y1="87.757" stroke-width=".458" fill="none"/>
		<line y2="87.757" x1="231.18" x2="231.18" stroke="#000" stroke-miterlimit="2" y1="88.289" stroke-width=".458" fill="none"/>
		<line y2="86.292" x1="231.18" x2="231.18" stroke="#000" stroke-miterlimit="2" y1="86.825" stroke-width=".458" fill="none"/>
	<line y2="86.958" x1="231.85" x2="231.85" stroke="#000" stroke-miterlimit="2" y1="87.624" stroke-width=".458" fill="none"/>
		<line y2="90.802" x1="227.52" x2="228.86" stroke="#000" stroke-miterlimit="2" y1="83.222" stroke-width=".458" fill="none"/>
		<line y2="87.624" x1="255.82" x2="255.82" stroke="#000" stroke-miterlimit="2" y1="86.958" stroke-width=".458" fill="none"/>
		<line y2="86.825" x1="256.48" x2="256.48" stroke="#000" stroke-miterlimit="2" y1="86.292" stroke-width=".458" fill="none"/>
		<line y2="88.289" x1="256.48" x2="256.48" stroke="#000" stroke-miterlimit="2" y1="87.757" stroke-width=".458" fill="none"/>
		<line y2="87.757" x1="257.15" x2="257.15" stroke="#000" stroke-miterlimit="2" y1="88.289" stroke-width=".458" fill="none"/>
		<line y2="86.292" x1="257.15" x2="257.15" stroke="#000" stroke-miterlimit="2" y1="86.825" stroke-width=".458" fill="none"/>
		<line y2="86.958" x1="257.81" x2="257.81" stroke="#000" stroke-miterlimit="2" y1="87.624" stroke-width=".458" fill="none"/>
		<line y2="74.841" x1="260.24" x2="260.24" stroke="#000" stroke-miterlimit="2" y1="82.048" stroke-width=".458" fill="none"/>
		<line y2="83.222" x1="258.8" x2="260.14" stroke="#000" stroke-miterlimit="2" y1="90.802" stroke-width=".458" fill="none"/>
		<line y2="91.984" x1="230.27" x2="257.4" stroke="#000" stroke-miterlimit="2" y1="91.984" stroke-width=".458" fill="none"/>
		<line y2="88.289" x1="230.52" x2="231.18" stroke="#000" stroke-miterlimit="2" y1="88.289" stroke-width=".458" fill="none"/>
		<line y2="88.289" x1="256.48" x2="257.15" stroke="#000" stroke-miterlimit="2" y1="88.289" stroke-width=".458" fill="none"/>
		<line y2="87.624" x1="229.85" x2="230.38" stroke="#000" stroke-miterlimit="2" y1="87.624" stroke-width=".458" fill="none"/>
		<line y2="87.624" x1="231.32" x2="231.85" stroke="#000" stroke-miterlimit="2" y1="87.624" stroke-width=".458" fill="none"/>
		<line y2="87.624" x1="255.82" x2="256.35" stroke="#000" stroke-miterlimit="2" y1="87.624" stroke-width=".458" fill="none"/>
		<line y2="87.624" x1="257.28" x2="257.81" stroke="#000" stroke-miterlimit="2" y1="87.624" stroke-width=".458" fill="none"/>
		<line y2="86.958" x1="257.81" x2="257.28" stroke="#000" stroke-miterlimit="2" y1="86.958" stroke-width=".458" fill="none"/>
		<line y2="86.958" x1="256.35" x2="255.82" stroke="#000" stroke-miterlimit="2" y1="86.958" stroke-width=".458" fill="none"/>
		<line y2="86.958" x1="231.85" x2="231.32" stroke="#000" stroke-miterlimit="2" y1="86.958" stroke-width=".458" fill="none"/>
		<line y2="86.958" x1="230.38" x2="229.85" stroke="#000" stroke-miterlimit="2" y1="86.958" stroke-width=".458" fill="none"/>
		<line y2="86.292" x1="257.15" x2="256.48" stroke="#000" stroke-miterlimit="2" y1="86.292" stroke-width=".458" fill="none"/>
		<line y2="86.292" x1="231.18" x2="230.52" stroke="#000" stroke-miterlimit="2" y1="86.292" stroke-width=".458" fill="none"/>
		<line y2="74.542" x1="259.94" x2="227.72" stroke="#000" stroke-miterlimit="2" y1="74.542" stroke-width=".458" fill="none"/>
		<defs>
			<rect id="SVGID_1_" y="4.688" x="218.6" height="253.25" width="162.41"/>
		</defs>
		<clipPath id="SVGID_2_">
			<use overflow="visible" xlink:href="#SVGID_1_"/>
		</clipPath>
		<path d="m227.42 82.048c0 0.393 0.034 0.786 0.103 1.173" clip-path="url(#SVGID_2_)" stroke="#000" stroke-miterlimit="2" stroke-width=".458" fill="none"/>
		<path d="m260.14 83.222c0.068-0.388 0.103-0.78 0.103-1.174" clip-path="url(#SVGID_2_)" stroke="#000" stroke-miterlimit="2" stroke-width=".458" fill="none"/>
		<path d="m258.77 87.291c0-1.077-0.873-1.95-1.95-1.95s-1.95 0.873-1.95 1.95 0.873 1.95 1.95 1.95c1.07 0 1.95-0.873 1.95-1.95" clip-path="url(#SVGID_2_)" stroke="#000" stroke-miterlimit="2" stroke-width=".458" fill="none"/>
		<path d="m232.8 87.291c0-1.077-0.874-1.95-1.951-1.95s-1.95 0.873-1.95 1.95 0.873 1.95 1.95 1.95c1.08 0 1.95-0.873 1.95-1.95" clip-path="url(#SVGID_2_)" stroke="#000" stroke-miterlimit="2" stroke-width=".458" fill="none"/>
		<path d="m258.73 87.291c0-1.059-0.859-1.917-1.917-1.917-1.059 0-1.917 0.857-1.917 1.917s0.858 1.917 1.917 1.917c1.06 0 1.92-0.858 1.92-1.917" clip-path="url(#SVGID_2_)" stroke="#000" stroke-miterlimit="2" stroke-width=".458" fill="none"/>
		<path d="m232.77 87.291c0-1.059-0.858-1.917-1.917-1.917-1.058 0-1.917 0.857-1.917 1.917s0.859 1.917 1.917 1.917c1.06 0 1.92-0.858 1.92-1.917" clip-path="url(#SVGID_2_)" stroke="#000" stroke-miterlimit="2" stroke-width=".458" fill="none"/>
		<path d="m257.4 91.984c0.694 0 1.289-0.499 1.409-1.182" clip-path="url(#SVGID_2_)" stroke="#000" stroke-miterlimit="2" stroke-width=".458" fill="none"/>
		<path d="m228.86 90.802c0.121 0.684 0.715 1.183 1.41 1.183" clip-path="url(#SVGID_2_)" stroke="#000" stroke-miterlimit="2" stroke-width=".458" fill="none"/>
		<path d="m227.72 74.542c-0.166 0-0.3 0.134-0.3 0.299" clip-path="url(#SVGID_2_)" stroke="#000" stroke-miterlimit="2" stroke-width=".458" fill="none"/>
		<path d="m260.24 74.841c0-0.165-0.134-0.3-0.299-0.3" clip-path="url(#SVGID_2_)" stroke="#000" stroke-miterlimit="2" stroke-width=".458" fill="none"/>
		<path d="m257.15 86.825c0 0.073 0.059 0.133 0.133 0.133" clip-path="url(#SVGID_2_)" stroke="#000" stroke-miterlimit="2" stroke-width=".458" fill="none"/>
		<path d="m256.35 86.958c0.073 0 0.133-0.06 0.133-0.133" clip-path="url(#SVGID_2_)" stroke="#000" stroke-miterlimit="2" stroke-width=".458" fill="none"/>
		<path d="m256.48 87.757c0-0.074-0.06-0.133-0.133-0.133" clip-path="url(#SVGID_2_)" stroke="#000" stroke-miterlimit="2" stroke-width=".458" fill="none"/>
		<path d="m257.28 87.624c-0.074 0-0.133 0.06-0.133 0.134" clip-path="url(#SVGID_2_)" stroke="#000" stroke-miterlimit="2" stroke-width=".458" fill="none"/>
		<path d="m231.18 86.825c0 0.073 0.06 0.133 0.133 0.133" clip-path="url(#SVGID_2_)" stroke="#000" stroke-miterlimit="2" stroke-width=".458" fill="none"/>
		<path d="m230.38 86.958c0.074 0 0.133-0.06 0.133-0.133" clip-path="url(#SVGID_2_)" stroke="#000" stroke-miterlimit="2" stroke-width=".458" fill="none"/>
		<path d="m230.52 87.757c0-0.074-0.06-0.133-0.133-0.133" clip-path="url(#SVGID_2_)" stroke="#000" stroke-miterlimit="2" stroke-width=".458" fill="none"/>
		<path d="m231.32 87.624c-0.074 0-0.134 0.06-0.134 0.134" clip-path="url(#SVGID_2_)" stroke="#000" stroke-miterlimit="2" stroke-width=".458" fill="none"/>
		<line y2="92.033" x1="248.05" x2="247.24" stroke="#000" stroke-miterlimit="2" y1="91.984" stroke-width=".458" fill="none"/>
		<line y2="92.034" x1="247.24" x2="240.42" stroke="#000" stroke-miterlimit="2" y1="92.034" stroke-width=".458" fill="none"/>
		<line y2="92.033" x1="239.62" x2="240.42" stroke="#000" stroke-miterlimit="2" y1="91.984" stroke-width=".458" fill="none"/>
		<defs>
			<rect id="SVGID_3_" y="4.688" x="218.6" height="253.25" width="162.41"/>
		</defs>
		<clipPath id="SVGID_4_">
			<use overflow="visible" xlink:href="#SVGID_3_"/>
		</clipPath>
		<path fill="#717275" d="m265.92 59.551c0-1.077-4.554-3.229-9.108-3.229-4.553 0-9.108 2.152-9.108 3.229v-3.229c0-2.151 4.555-3.228 9.108-3.228 4.554 0 9.108 1.077 9.108 3.228v3.229z" clip-path="url(#SVGID_4_)"/>
			<path stroke-linejoin="round" d="m265.92 59.551c0-1.077-4.554-3.229-9.108-3.229-4.553 0-9.108 2.152-9.108 3.229v-3.229c0-2.151 4.555-3.228 9.108-3.228 4.554 0 9.108 1.077 9.108 3.228v3.229z" clip-path="url(#SVGID_4_)" stroke="#241A16" stroke-linecap="round" stroke-miterlimit="10" stroke-width=".206" fill="none"/>
		<path fill="#BDBFC1" fill-rule="evenodd" clip-rule="evenodd" d="m255.92 67.006c0.405-0.264 0-0.776 0-0.776l0.043-29.372c0-0.582 0.471-1.048 1.048-1.047 0.58 0 1.045 0.471 1.044 1.05l-0.042 29.371s-0.423 0.29-0.001 0.756c0 0.511-0.001 1.333-0.001 1.333-0.004 1.69-1.05 2.201-1.05 2.201s-1.046-0.536-1.044-2.205c-0.01 0 0-1.043 0-1.311" clip-path="url(#SVGID_4_)"/>
		<path stroke-width=".522" stroke="#231F20" fill="none" d="m255.92 67.006c0.405-0.264 0-0.776 0-0.776l0.043-29.372c0-0.582 0.471-1.048 1.048-1.047 0.58 0 1.045 0.471 1.044 1.05l-0.042 29.371s-0.423 0.29-0.001 0.756c0 0.511-0.001 1.333-0.001 1.333-0.004 1.69-1.05 2.201-1.05 2.201s-1.046-0.536-1.044-2.205c-0.01 0 0-1.043 0-1.311z" clip-path="url(#SVGID_4_)"/>
		<path fill="#898B8D" fill-rule="evenodd" clip-rule="evenodd" d="m252.95 36.854c-0.002 1.238-0.084 1.517 1.677 1.516l4.758 0.009c1.763 0 1.68-0.275 1.681-1.513s-0.547-0.827-1.235-1.514c-0.688-0.689 1.085-2.312 1.085-2.312s0.022-16.573 0.028-19.787c0-1.921-2.358-2.969-3.899-2.972s-3.903 1.037-3.906 2.96c-0.005 3.214-0.027 19.788-0.027 19.788s1.766 1.625 1.077 2.313c-0.69 0.689-1.24 0.273-1.24 1.512" clip-path="url(#SVGID_4_)"/>
		<path stroke-width=".522" stroke="#241A16" fill="none" d="m252.95 36.854c-0.002 1.238-0.084 1.517 1.677 1.516l4.758 0.009c1.763 0 1.68-0.275 1.681-1.513s-0.547-0.827-1.235-1.514c-0.688-0.689 1.085-2.312 1.085-2.312s0.022-16.573 0.028-19.787c0-1.921-2.358-2.969-3.899-2.972s-3.903 1.037-3.906 2.96c-0.005 3.214-0.027 19.788-0.027 19.788s1.766 1.625 1.077 2.313c-0.69 0.689-1.24 0.273-1.24 1.512z" clip-path="url(#SVGID_4_)"/>
		<path fill="#626366" fill-rule="evenodd" clip-rule="evenodd" d="m259.18 13.538c0.001-0.384 0.312-0.695 0.695-0.695s0.694 0.314 0.694 0.697l-0.026 17.985c0 0.381-0.313 0.693-0.695 0.694-0.384-0.002-0.693-0.311-0.692-0.695l0.03-17.986z" clip-path="url(#SVGID_4_)"/>
		<path stroke-width=".391" stroke="#231F20" fill="none" d="m259.18 13.538c0.001-0.384 0.312-0.695 0.695-0.695s0.694 0.314 0.694 0.697l-0.026 17.985c0 0.381-0.313 0.693-0.695 0.694-0.384-0.002-0.693-0.311-0.692-0.695l0.03-17.986z" clip-path="url(#SVGID_4_)"/>
		<path fill="#626366" fill-rule="evenodd" clip-rule="evenodd" d="m256.21 13.534c0.003-0.385 0.313-0.696 0.695-0.695 0.384 0.002 0.696 0.312 0.695 0.696l-0.027 17.986c0 0.385-0.312 0.694-0.695 0.693-0.385 0-0.695-0.311-0.693-0.696l0.02-17.984z" clip-path="url(#SVGID_4_)"/>
		<path stroke-width=".391" stroke="#231F20" fill="none" d="m256.21 13.534c0.003-0.385 0.313-0.696 0.695-0.695 0.384 0.002 0.696 0.312 0.695 0.696l-0.027 17.986c0 0.385-0.312 0.694-0.695 0.693-0.385 0-0.695-0.311-0.693-0.696l0.02-17.984z" clip-path="url(#SVGID_4_)"/>
		<path fill="#626366" fill-rule="evenodd" clip-rule="evenodd" d="m253.24 13.528c0.001-0.382 0.312-0.692 0.696-0.692s0.694 0.31 0.693 0.694l-0.024 17.986c0 0.383-0.312 0.694-0.696 0.692-0.384 0.002-0.695-0.312-0.693-0.694l0.02-17.986z" clip-path="url(#SVGID_4_)"/>
		<path stroke-width=".391" stroke="#231F20" fill="none" d="m253.24 13.528c0.001-0.382 0.312-0.692 0.696-0.692s0.694 0.31 0.693 0.694l-0.024 17.986c0 0.383-0.312 0.694-0.696 0.692-0.384 0.002-0.695-0.312-0.693-0.694l0.02-17.986z" clip-path="url(#SVGID_4_)"/>
		<path stroke-width=".261" stroke="#231F20" fill="none" d="m256.96 70.387s-0.064-2.134 0.938-2.644" clip-path="url(#SVGID_4_)"/>
		<path stroke-width=".261" stroke="#231F20" fill="none" d="m256.94 70.387s0.069-2.134-0.928-2.645" clip-path="url(#SVGID_4_)"/>
		<path fill="#D1D3D4" d="m265.92 56.322v3.229c0 1.076-1.138 1.076-2.277 2.152v-4.306c1.15 0.001 2.28 0.001 2.28-1.075" clip-path="url(#SVGID_4_)"/>
			<path stroke-linejoin="round" d="m265.92 56.322v3.229c0 1.076-1.138 1.076-2.277 2.152v-4.306c1.15 0.001 2.28 0.001 2.28-1.075z" clip-path="url(#SVGID_4_)" stroke="#241A16" stroke-linecap="round" stroke-miterlimit="10" stroke-width=".333" fill="none"/>
		<path fill="#D1D3D4" d="m247.71 56.322c0 1.076 4.555 3.229 9.108 3.229h3.416v-2.153l2.277 2.153-2.277 4.303v-1.075h-3.416c-4.554 0-9.108-1.076-9.108-3.228v-3.229z" clip-path="url(#SVGID_4_)"/>
			<path stroke-linejoin="round" d="m247.71 56.322v0c0 1.076 4.555 3.229 9.108 3.229h3.416v-2.153l2.277 2.153-2.277 4.303v-1.075h-3.416c-4.554 0-9.108-1.076-9.108-3.228v-3.229z" clip-path="url(#SVGID_4_)" stroke="#241A16" stroke-linecap="round" stroke-miterlimit="10" stroke-width=".333" fill="none"/>
		<path fill="#7C7E80" d="m301.71 88.374c-0.23-7.417-14.546-13.292-22.479-11.644-0.013 0.522-0.028 7.64-0.028 7.64l-7.428-11.165 7.425-10.592-0.027 6.836c0.01-0.001 21.25-1.721 22.54 18.925" clip-path="url(#SVGID_4_)"/>
		<path stroke-width=".67" stroke="#fff" fill="none" d="m301.71 88.374c-0.23-7.417-14.546-13.292-22.479-11.644-0.013 0.522-0.028 7.64-0.028 7.64l-7.428-11.165 7.425-10.592-0.027 6.836c0.01-0.001 21.25-1.721 22.54 18.925z" clip-path="url(#SVGID_4_)"/>
		<path fill="#7C7E80" d="m369.59 229.18c-0.566 6.415-15.131 10.859-22.981 9.071 0.01-0.451 0.318-6.619 0.318-6.619l-7.93 9.34 6.936 9.517 0.284-5.927s21.14 2.45 23.37-15.38" clip-path="url(#SVGID_4_)"/>
		<path stroke-width=".624" stroke="#fff" fill="none" d="m369.59 229.18c-0.566 6.415-15.131 10.859-22.981 9.071 0.01-0.451 0.318-6.619 0.318-6.619l-7.93 9.34 6.936 9.517 0.284-5.927s21.14 2.45 23.37-15.38z" clip-path="url(#SVGID_4_)"/>
			<line y2="238.6" x1="293.8" clip-path="url(#SVGID_4_)" x2="293.8" stroke="#000" stroke-miterlimit="2" y1="231.39" stroke-width=".458" fill="none"/>
			<line y2="244.17" x1="296.23" clip-path="url(#SVGID_4_)" x2="296.23" stroke="#000" stroke-miterlimit="2" y1="243.5" stroke-width=".458" fill="none"/>
			<line y2="243.37" x1="296.89" clip-path="url(#SVGID_4_)" x2="296.89" stroke="#000" stroke-miterlimit="2" y1="242.84" stroke-width=".458" fill="none"/>
			<line y2="244.84" x1="296.89" clip-path="url(#SVGID_4_)" x2="296.89" stroke="#000" stroke-miterlimit="2" y1="244.3" stroke-width=".458" fill="none"/>
			<line y2="244.3" x1="297.56" clip-path="url(#SVGID_4_)" x2="297.56" stroke="#000" stroke-miterlimit="2" y1="244.84" stroke-width=".458" fill="none"/>
			<line y2="242.84" x1="297.56" clip-path="url(#SVGID_4_)" x2="297.56" stroke="#000" stroke-miterlimit="2" y1="243.37" stroke-width=".458" fill="none"/>
			<line y2="243.5" x1="298.23" clip-path="url(#SVGID_4_)" x2="298.23" stroke="#000" stroke-miterlimit="2" y1="244.17" stroke-width=".458" fill="none"/>
			<line y2="247.35" x1="293.9" clip-path="url(#SVGID_4_)" x2="295.24" stroke="#000" stroke-miterlimit="2" y1="239.77" stroke-width=".458" fill="none"/>
			<line y2="244.17" x1="322.19" clip-path="url(#SVGID_4_)" x2="322.19" stroke="#000" stroke-miterlimit="2" y1="243.5" stroke-width=".458" fill="none"/>
			<line y2="243.37" x1="322.86" clip-path="url(#SVGID_4_)" x2="322.86" stroke="#000" stroke-miterlimit="2" y1="242.84" stroke-width=".458" fill="none"/>
			<line y2="244.84" x1="322.86" clip-path="url(#SVGID_4_)" x2="322.86" stroke="#000" stroke-miterlimit="2" y1="244.3" stroke-width=".458" fill="none"/>
			<line y2="244.3" x1="323.52" clip-path="url(#SVGID_4_)" x2="323.52" stroke="#000" stroke-miterlimit="2" y1="244.84" stroke-width=".458" fill="none"/>
			<line y2="242.84" x1="323.52" clip-path="url(#SVGID_4_)" x2="323.52" stroke="#000" stroke-miterlimit="2" y1="243.37" stroke-width=".458" fill="none"/>
			<line y2="243.5" x1="324.19" clip-path="url(#SVGID_4_)" x2="324.19" stroke="#000" stroke-miterlimit="2" y1="244.17" stroke-width=".458" fill="none"/>
			<line y2="231.39" x1="326.62" clip-path="url(#SVGID_4_)" x2="326.62" stroke="#000" stroke-miterlimit="2" y1="238.6" stroke-width=".458" fill="none"/>
			<line y2="239.77" x1="325.18" clip-path="url(#SVGID_4_)" x2="326.52" stroke="#000" stroke-miterlimit="2" y1="247.35" stroke-width=".458" fill="none"/>
			<line y2="248.53" x1="296.65" clip-path="url(#SVGID_4_)" x2="323.77" stroke="#000" stroke-miterlimit="2" y1="248.53" stroke-width=".458" fill="none"/>
			<line y2="244.84" x1="296.89" clip-path="url(#SVGID_4_)" x2="297.56" stroke="#000" stroke-miterlimit="2" y1="244.84" stroke-width=".458" fill="none"/>
			<line y2="244.84" x1="322.86" clip-path="url(#SVGID_4_)" x2="323.52" stroke="#000" stroke-miterlimit="2" y1="244.84" stroke-width=".458" fill="none"/>
			<line y2="244.17" x1="296.23" clip-path="url(#SVGID_4_)" x2="296.76" stroke="#000" stroke-miterlimit="2" y1="244.17" stroke-width=".458" fill="none"/>
			<line y2="244.17" x1="297.69" clip-path="url(#SVGID_4_)" x2="298.23" stroke="#000" stroke-miterlimit="2" y1="244.17" stroke-width=".458" fill="none"/>
			<line y2="244.17" x1="322.19" clip-path="url(#SVGID_4_)" x2="322.73" stroke="#000" stroke-miterlimit="2" y1="244.17" stroke-width=".458" fill="none"/>
			<line y2="244.17" x1="323.66" clip-path="url(#SVGID_4_)" x2="324.19" stroke="#000" stroke-miterlimit="2" y1="244.17" stroke-width=".458" fill="none"/>
			<line y2="243.5" x1="324.19" clip-path="url(#SVGID_4_)" x2="323.66" stroke="#000" stroke-miterlimit="2" y1="243.5" stroke-width=".458" fill="none"/>
			<line y2="243.5" x1="322.73" clip-path="url(#SVGID_4_)" x2="322.19" stroke="#000" stroke-miterlimit="2" y1="243.5" stroke-width=".458" fill="none"/>
			<line y2="243.5" x1="298.23" clip-path="url(#SVGID_4_)" x2="297.69" stroke="#000" stroke-miterlimit="2" y1="243.5" stroke-width=".458" fill="none"/>
			<line y2="243.5" x1="296.76" clip-path="url(#SVGID_4_)" x2="296.23" stroke="#000" stroke-miterlimit="2" y1="243.5" stroke-width=".458" fill="none"/>
			<line y2="242.84" x1="323.52" clip-path="url(#SVGID_4_)" x2="322.86" stroke="#000" stroke-miterlimit="2" y1="242.84" stroke-width=".458" fill="none"/>
			<line y2="242.84" x1="297.56" clip-path="url(#SVGID_4_)" x2="296.89" stroke="#000" stroke-miterlimit="2" y1="242.84" stroke-width=".458" fill="none"/>
			<line y2="231.09" x1="326.32" clip-path="url(#SVGID_4_)" x2="294.1" stroke="#000" stroke-miterlimit="2" y1="231.09" stroke-width=".458" fill="none"/>
		<path d="m293.8 238.6c0 0.393 0.034 0.787 0.102 1.173" clip-path="url(#SVGID_4_)" stroke="#000" stroke-miterlimit="2" stroke-width=".458" fill="none"/>
		<path d="m326.52 239.77c0.068-0.388 0.103-0.78 0.103-1.173" clip-path="url(#SVGID_4_)" stroke="#000" stroke-miterlimit="2" stroke-width=".458" fill="none"/>
		<path d="m325.14 243.84c0-1.078-0.873-1.95-1.95-1.95-1.076 0-1.95 0.872-1.95 1.95 0 1.076 0.874 1.95 1.95 1.95 1.08 0 1.95-0.88 1.95-1.95" clip-path="url(#SVGID_4_)" stroke="#000" stroke-miterlimit="2" stroke-width=".458" fill="none"/>
		<path d="m299.18 243.84c0-1.078-0.874-1.95-1.951-1.95-1.076 0-1.95 0.872-1.95 1.95 0 1.076 0.874 1.95 1.95 1.95 1.07 0 1.95-0.88 1.95-1.95" clip-path="url(#SVGID_4_)" stroke="#000" stroke-miterlimit="2" stroke-width=".458" fill="none"/>
		<path d="m325.11 243.84c0-1.06-0.859-1.918-1.918-1.918-1.058 0-1.917 0.858-1.917 1.918 0 1.059 0.859 1.917 1.917 1.917 1.06 0 1.92-0.86 1.92-1.92" clip-path="url(#SVGID_4_)" stroke="#000" stroke-miterlimit="2" stroke-width=".458" fill="none"/>
		<path d="m299.14 243.84c0-1.06-0.859-1.918-1.918-1.918s-1.917 0.858-1.917 1.918c0 1.059 0.858 1.917 1.917 1.917s1.92-0.86 1.92-1.92" clip-path="url(#SVGID_4_)" stroke="#000" stroke-miterlimit="2" stroke-width=".458" fill="none"/>
		<path d="m323.77 248.53c0.694 0 1.289-0.499 1.41-1.183" clip-path="url(#SVGID_4_)" stroke="#000" stroke-miterlimit="2" stroke-width=".458" fill="none"/>
		<path d="m295.24 247.35c0.12 0.684 0.714 1.183 1.409 1.183" clip-path="url(#SVGID_4_)" stroke="#000" stroke-miterlimit="2" stroke-width=".458" fill="none"/>
		<path d="m294.1 231.09c-0.166 0-0.3 0.135-0.3 0.3" clip-path="url(#SVGID_4_)" stroke="#000" stroke-miterlimit="2" stroke-width=".458" fill="none"/>
		<path d="m326.62 231.39c0-0.167-0.135-0.301-0.3-0.301" clip-path="url(#SVGID_4_)" stroke="#000" stroke-miterlimit="2" stroke-width=".458" fill="none"/>
		<path d="m323.52 243.37c0 0.074 0.06 0.135 0.134 0.135" clip-path="url(#SVGID_4_)" stroke="#000" stroke-miterlimit="2" stroke-width=".458" fill="none"/>
		<path d="m322.73 243.5c0.073 0 0.133-0.061 0.133-0.134" clip-path="url(#SVGID_4_)" stroke="#000" stroke-miterlimit="2" stroke-width=".458" fill="none"/>
		<path d="m322.86 244.3c0-0.074-0.06-0.134-0.133-0.134" clip-path="url(#SVGID_4_)" stroke="#000" stroke-miterlimit="2" stroke-width=".458" fill="none"/>
		<path d="m323.66 244.17c-0.074 0-0.134 0.06-0.134 0.133" clip-path="url(#SVGID_4_)" stroke="#000" stroke-miterlimit="2" stroke-width=".458" fill="none"/>
		<path d="m297.56 243.37c0 0.074 0.059 0.135 0.133 0.135" clip-path="url(#SVGID_4_)" stroke="#000" stroke-miterlimit="2" stroke-width=".458" fill="none"/>
		<path d="m296.76 243.5c0.075 0 0.134-0.061 0.134-0.134" clip-path="url(#SVGID_4_)" stroke="#000" stroke-miterlimit="2" stroke-width=".458" fill="none"/>
		<path d="m296.89 244.3c0-0.074-0.06-0.134-0.133-0.134" clip-path="url(#SVGID_4_)" stroke="#000" stroke-miterlimit="2" stroke-width=".458" fill="none"/>
		<path d="m297.69 244.17c-0.074 0-0.133 0.06-0.133 0.133" clip-path="url(#SVGID_4_)" stroke="#000" stroke-miterlimit="2" stroke-width=".458" fill="none"/>
			<line y2="248.58" x1="314.42" clip-path="url(#SVGID_4_)" x2="313.62" stroke="#000" stroke-miterlimit="2" y1="248.53" stroke-width=".458" fill="none"/>
			<line y2="248.58" x1="313.62" clip-path="url(#SVGID_4_)" x2="306.8" stroke="#000" stroke-miterlimit="2" y1="248.58" stroke-width=".458" fill="none"/>
			<line y2="248.58" x1="306" clip-path="url(#SVGID_4_)" x2="306.8" stroke="#000" stroke-miterlimit="2" y1="248.53" stroke-width=".458" fill="none"/>
</svg>
