<?xml version="1.0" encoding="UTF-8" standalone="no"?>
<!-- Generator: Adobe Illustrator 16.0.0, SVG Export Plug-In . SVG Version: 6.00 Build 0)  -->
<!DOCTYPE svg  PUBLIC '-//W3C//DTD SVG 1.1//EN'  'http://www.w3.org/Graphics/SVG/1.1/DTD/svg11.dtd'>
<svg id="Layer_1" xmlns="http://www.w3.org/2000/svg" xml:space="preserve" height="199px" viewBox="0 0 595.276 199" width="595.28px" version="1.1" y="0px" x="0px" xmlns:xlink="http://www.w3.org/1999/xlink" enable-background="new 0 0 595.276 199">
		<text font-size="8" font-family="&apos;AdobeMingStd-Light-Acro&apos;" transform="matrix(0 -1 1 0 228.44 100.09)" fill="#000100">866.4</text>
		<polygon points="235.71 10.743 236.21 12.777 235.2 12.777" fill="#000100"/>
		<polygon stroke="#000100" stroke-width=".144" stroke-miterlimit="2" points="235.71 10.743 236.21 12.777 235.2 12.777" fill="none"/>
		<polygon points="235.71 187.01 235.2 184.98 236.21 184.98" fill="#000100"/>
		<polygon stroke="#000100" stroke-width=".144" stroke-miterlimit="2" points="235.71 187.01 235.2 184.98 236.21 184.98" fill="none"/>
			<line y2="187.05" x1="263.37" x2="262.2" stroke="#000100" stroke-miterlimit="2" y1="187.05" stroke-width=".144" fill="none"/>
			<line y2="187.05" x1="255.44" x2="254.27" stroke="#000100" stroke-miterlimit="2" y1="187.05" stroke-width=".144" fill="none"/>
			<line y2="187.03" x1="263.38" x2="262.19" stroke="#000100" stroke-miterlimit="2" y1="187.03" stroke-width=".144" fill="none"/>
			<line y2="187.03" x1="255.44" x2="254.26" stroke="#000100" stroke-miterlimit="2" y1="187.03" stroke-width=".144" fill="none"/>
			<line y2="187.01" x1="263.83" x2="253.8" stroke="#000100" stroke-miterlimit="2" y1="187.01" stroke-width=".144" fill="none"/>
			<line y2="187.01" x1="235.84" x2="253.23" stroke="#000100" stroke-miterlimit="2" y1="187.01" stroke-width=".144" fill="none"/>
			<line y2="186.77" x1="253.8" x2="263.83" stroke="#000100" stroke-miterlimit="2" y1="186.77" stroke-width=".144" fill="none"/>
			<line y2="186.75" x1="255.87" x2="261.77" stroke="#000100" stroke-miterlimit="2" y1="186.75" stroke-width=".144" fill="none"/>
			<line y2="187.03" x1="255.42" x2="255.44" stroke="#000100" stroke-miterlimit="2" y1="187.01" stroke-width=".144" fill="none"/>
			<line y2="10.72" x1="255.42" x2="255.44" stroke="#000100" stroke-miterlimit="2" y1="10.743" stroke-width=".144" fill="none"/>
			<line y2="187.03" x1="263.36" x2="263.38" stroke="#000100" stroke-miterlimit="2" y1="187.01" stroke-width=".144" fill="none"/>
			<line y2="10.72" x1="263.36" x2="263.38" stroke="#000100" stroke-miterlimit="2" y1="10.743" stroke-width=".144" fill="none"/>
			<line y2="79.139" x1="259.14" x2="259.16" stroke="#000100" stroke-miterlimit="2" y1="79.154" stroke-width=".144" fill="none"/>
			<line y2="82.255" x1="258.69" x2="258.69" stroke="#000100" stroke-miterlimit="2" y1="82.285" stroke-width=".144" fill="none"/>
			<line y2="82.255" x1="258.96" x2="258.96" stroke="#000100" stroke-miterlimit="2" y1="82.284" stroke-width=".144" fill="none"/>
			<line y2="10.987" x1="253.8" x2="253.8" stroke="#000100" stroke-miterlimit="2" y1="10.743" stroke-width=".144" fill="none"/>
			<line y2="186.77" x1="253.8" x2="253.8" stroke="#000100" stroke-miterlimit="2" y1="187.01" stroke-width=".144" fill="none"/>
			<line y2="10.987" x1="253.83" x2="253.83" stroke="#000100" stroke-miterlimit="2" y1="186.77" stroke-width=".144" fill="none"/>
			<line y2="10.987" x1="253.84" x2="253.84" stroke="#000100" stroke-miterlimit="2" y1="10.743" stroke-width=".144" fill="none"/>
			<line y2="186.77" x1="253.84" x2="253.84" stroke="#000100" stroke-miterlimit="2" y1="187.01" stroke-width=".144" fill="none"/>
			<line y2="10.987" x1="253.86" x2="253.86" stroke="#000100" stroke-miterlimit="2" y1="186.77" stroke-width=".144" fill="none"/>
			<line y2="10.987" x1="254.24" x2="254.24" stroke="#000100" stroke-miterlimit="2" y1="10.743" stroke-width=".144" fill="none"/>
			<line y2="186.77" x1="254.24" x2="254.24" stroke="#000100" stroke-miterlimit="2" y1="187.01" stroke-width=".144" fill="none"/>
			<line y2="10.987" x1="254.27" x2="254.27" stroke="#000100" stroke-miterlimit="2" y1="186.77" stroke-width=".144" fill="none"/>
			<line y2="10.743" x1="254.67" x2="254.67" stroke="#000100" stroke-miterlimit="2" y1="187.01" stroke-width=".359" fill="none"/>
			<line y2="10.987" x1="255.81" x2="255.81" stroke="#000100" stroke-miterlimit="2" y1="186.77" stroke-width=".144" fill="none"/>
			<line y2="186.77" x1="255.87" x2="255.87" stroke="#000100" stroke-miterlimit="2" y1="10.987" stroke-width=".144" fill="none"/>
			<line y2="10.987" x1="256.11" x2="256.11" stroke="#000100" stroke-miterlimit="2" y1="11.028" stroke-width=".144" fill="none"/>
			<line y2="11.028" x1="256.17" x2="256.17" stroke="#000100" stroke-miterlimit="2" y1="10.987" stroke-width=".144" fill="none"/>
			<line y2="10.987" x1="256.23" x2="256.23" stroke="#000100" stroke-miterlimit="2" y1="11.028" stroke-width=".144" fill="none"/>
			<line y2="10.987" x1="256.29" x2="256.29" stroke="#000100" stroke-miterlimit="2" y1="11.028" stroke-width=".144" fill="none"/>
			<line y2="11.028" x1="256.85" x2="256.85" stroke="#000100" stroke-miterlimit="2" y1="10.987" stroke-width=".144" fill="none"/>
			<line y2="11.028" x1="256.9" x2="256.9" stroke="#000100" stroke-miterlimit="2" y1="10.987" stroke-width=".144" fill="none"/>
			<line y2="79.254" x1="258.42" x2="258.42" stroke="#000100" stroke-miterlimit="2" y1="79.15" stroke-width=".144" fill="none"/>
			<line y2="79.237" x1="258.49" x2="258.49" stroke="#000100" stroke-miterlimit="2" y1="79.154" stroke-width=".144" fill="none"/>
			<line y2="79.366" x1="258.51" x2="258.51" stroke="#000100" stroke-miterlimit="2" y1="79.233" stroke-width=".144" fill="none"/>
			<line y2="82.256" x1="258.51" x2="258.51" stroke="#000100" stroke-miterlimit="2" y1="82.389" stroke-width=".144" fill="none"/>
			<line y2="82.285" x1="258.68" x2="258.68" stroke="#000100" stroke-miterlimit="2" y1="82.512" stroke-width=".144" fill="none"/>
			<line y2="82.513" x1="258.69" x2="258.69" stroke="#000100" stroke-miterlimit="2" y1="82.285" stroke-width=".144" fill="none"/>
			<line y2="82.513" x1="258.95" x2="258.95" stroke="#000100" stroke-miterlimit="2" y1="82.285" stroke-width=".144" fill="none"/>
			<line y2="82.285" x1="258.96" x2="258.96" stroke="#000100" stroke-miterlimit="2" y1="82.512" stroke-width=".144" fill="none"/>
			<line y2="79.366" x1="259.12" x2="259.12" stroke="#000100" stroke-miterlimit="2" y1="79.233" stroke-width=".144" fill="none"/>
			<line y2="82.256" x1="259.12" x2="259.12" stroke="#000100" stroke-miterlimit="2" y1="82.389" stroke-width=".144" fill="none"/>
			<line y2="79.237" x1="259.14" x2="259.14" stroke="#000100" stroke-miterlimit="2" y1="79.154" stroke-width=".144" fill="none"/>
			<line y2="79.254" x1="259.22" x2="259.22" stroke="#000100" stroke-miterlimit="2" y1="79.15" stroke-width=".144" fill="none"/>
			<line y2="82.284" x1="258.68" x2="258.68" stroke="#000100" stroke-miterlimit="2" y1="82.255" stroke-width=".144" fill="none"/>
			<line y2="82.285" x1="258.95" x2="258.95" stroke="#000100" stroke-miterlimit="2" y1="82.255" stroke-width=".144" fill="none"/>
			<line y2="11.028" x1="260.74" x2="260.74" stroke="#000100" stroke-miterlimit="2" y1="10.987" stroke-width=".144" fill="none"/>
			<line y2="11.028" x1="260.79" x2="260.79" stroke="#000100" stroke-miterlimit="2" y1="10.987" stroke-width=".144" fill="none"/>
			<line y2="10.987" x1="261.35" x2="261.35" stroke="#000100" stroke-miterlimit="2" y1="11.028" stroke-width=".144" fill="none"/>
			<line y2="10.987" x1="261.4" x2="261.4" stroke="#000100" stroke-miterlimit="2" y1="11.028" stroke-width=".144" fill="none"/>
			<line y2="10.987" x1="261.46" x2="261.46" stroke="#000100" stroke-miterlimit="2" y1="11.028" stroke-width=".144" fill="none"/>
			<line y2="10.987" x1="261.52" x2="261.52" stroke="#000100" stroke-miterlimit="2" y1="11.028" stroke-width=".144" fill="none"/>
			<line y2="10.987" x1="261.77" x2="261.77" stroke="#000100" stroke-miterlimit="2" y1="186.77" stroke-width=".144" fill="none"/>
			<line y2="10.987" x1="261.83" x2="261.83" stroke="#000100" stroke-miterlimit="2" y1="186.77" stroke-width=".144" fill="none"/>
			<line y2="10.743" x1="262.96" x2="262.96" stroke="#000100" stroke-miterlimit="2" y1="187.01" stroke-width=".144" fill="none"/>
			<line y2="10.987" x1="263.36" x2="263.36" stroke="#000100" stroke-miterlimit="2" y1="186.77" stroke-width=".144" fill="none"/>
			<line y2="10.987" x1="263.39" x2="263.39" stroke="#000100" stroke-miterlimit="2" y1="10.743" stroke-width=".144" fill="none"/>
			<line y2="186.77" x1="263.39" x2="263.39" stroke="#000100" stroke-miterlimit="2" y1="187.01" stroke-width=".144" fill="none"/>
			<line y2="10.987" x1="263.77" x2="263.77" stroke="#000100" stroke-miterlimit="2" y1="186.77" stroke-width=".144" fill="none"/>
			<line y2="10.987" x1="263.8" x2="263.8" stroke="#000100" stroke-miterlimit="2" y1="10.743" stroke-width=".144" fill="none"/>
			<line y2="186.77" x1="263.8" x2="263.8" stroke="#000100" stroke-miterlimit="2" y1="187.01" stroke-width=".144" fill="none"/>
			<line y2="10.987" x1="263.8" x2="263.8" stroke="#000100" stroke-miterlimit="2" y1="186.77" stroke-width=".359" fill="none"/>
			<line y2="10.987" x1="263.83" x2="263.83" stroke="#000100" stroke-miterlimit="2" y1="10.743" stroke-width=".144" fill="none"/>
			<line y2="186.77" x1="263.83" x2="263.83" stroke="#000100" stroke-miterlimit="2" y1="187.01" stroke-width=".144" fill="none"/>
			<line y2="79.139" x1="258.49" x2="258.47" stroke="#000100" stroke-miterlimit="2" y1="79.154" stroke-width=".144" fill="none"/>
			<line y2="10.743" x1="235.71" x2="235.71" stroke="#000100" stroke-miterlimit="2" y1="187.01" stroke-width=".144" fill="none"/>
			<line y2="82.255" x1="259.12" x2="258.51" stroke="#000100" stroke-miterlimit="2" y1="82.255" stroke-width=".144" fill="none"/>
			<line y2="80.811" x1="255.87" x2="257.11" stroke="#000100" stroke-miterlimit="2" y1="80.811" stroke-width=".144" fill="none"/>
			<line y2="80.811" x1="260.53" x2="261.77" stroke="#000100" stroke-miterlimit="2" y1="80.811" stroke-width=".144" fill="none"/>
			<line y2="79.366" x1="258.51" x2="259.12" stroke="#000100" stroke-miterlimit="2" y1="79.366" stroke-width=".144" fill="none"/>
			<line y2="10.72" x1="254.28" x2="254.26" stroke="#000100" stroke-miterlimit="2" y1="10.743" stroke-width=".144" fill="none"/>
			<line y2="187.03" x1="254.28" x2="254.26" stroke="#000100" stroke-miterlimit="2" y1="187.01" stroke-width=".144" fill="none"/>
			<line y2="10.72" x1="262.22" x2="262.19" stroke="#000100" stroke-miterlimit="2" y1="10.743" stroke-width=".144" fill="none"/>
			<line y2="187.03" x1="262.22" x2="262.19" stroke="#000100" stroke-miterlimit="2" y1="187.01" stroke-width=".144" fill="none"/>
			<line y2="11.028" x1="255.87" x2="261.77" stroke="#000100" stroke-miterlimit="2" y1="11.028" stroke-width=".144" fill="none"/>
			<line y2="10.987" x1="253.8" x2="263.83" stroke="#000100" stroke-miterlimit="2" y1="10.987" stroke-width=".144" fill="none"/>
			<line y2="10.743" x1="253.8" x2="263.83" stroke="#000100" stroke-miterlimit="2" y1="10.743" stroke-width=".144" fill="none"/>
			<line y2="10.743" x1="235.84" x2="253.23" stroke="#000100" stroke-miterlimit="2" y1="10.743" stroke-width=".144" fill="none"/>
			<line y2="10.72" x1="254.26" x2="255.44" stroke="#000100" stroke-miterlimit="2" y1="10.72" stroke-width=".144" fill="none"/>
			<line y2="10.72" x1="262.19" x2="263.38" stroke="#000100" stroke-miterlimit="2" y1="10.72" stroke-width=".144" fill="none"/>
			<line y2="10.703" x1="263.37" x2="262.2" stroke="#000100" stroke-miterlimit="2" y1="10.703" stroke-width=".144" fill="none"/>
			<line y2="10.703" x1="255.44" x2="254.27" stroke="#000100" stroke-miterlimit="2" y1="10.703" stroke-width=".144" fill="none"/>
		<g stroke="#000100" stroke-width=".359" stroke-miterlimit="2" fill="none">
			<path d="m260.53 80.811c0-0.944-0.765-1.709-1.709-1.709s-1.709 0.765-1.709 1.709c0 0.944 0.765 1.709 1.709 1.709s1.71-0.765 1.71-1.709"/>
			<path d="m259.14 79.154c-0.215-0.042-0.436-0.042-0.651 0"/>
			<path d="m259.12 79.233c0.756 0.146 1.302 0.808 1.302 1.578m0.01 0c0 0.77-0.546 1.432-1.302 1.578"/>
			<path d="m257.21 80.811c0 0.771 0.546 1.432 1.302 1.578m0-3.156c-0.756 0.146-1.302 0.808-1.302 1.578"/>
			<path d="m258.96 82.284c0.055-0.005 0.11-0.014 0.164-0.025"/>
			<path d="m258.51 82.259c0.054 0.012 0.109 0.02 0.164 0.025"/>
			<path d="m255.44 10.703c0.004 0 0.008 0.002 0.009 0.006s0.001 0.008-0.002 0.011"/>
			<path d="m254.26 10.708c-0.002 0.004-0.001 0.008 0.002 0.011m0.01-0.016c-0.004 0-0.008 0.003-0.009 0.006"/>
			<path d="m263.37 10.703c0.004 0 0.008 0.002 0.009 0.006s0.001 0.008-0.002 0.011"/>
			<path d="m262.19 10.708c-0.002 0.004-0.001 0.008 0.002 0.011m0.01-0.016c-0.004 0-0.008 0.003-0.009 0.006"/>
			<path d="m254.26 187.04c0.001 0.004 0.005 0.006 0.009 0.006m-0.01-0.02c-0.003 0.003-0.004 0.008-0.002 0.011"/>
			<path d="m255.44 187.03c0.003 0.003 0.003 0.007 0.002 0.011m0.01 0c-0.001 0.004-0.005 0.006-0.009 0.006"/>
			<path d="m262.19 187.04c0.001 0.004 0.005 0.006 0.009 0.006m-0.01-0.02c-0.003 0.003-0.004 0.008-0.002 0.011"/>
			<path d="m263.38 187.03c0.003 0.003 0.003 0.007 0.002 0.011s-0.005 0.006-0.009 0.006"/>
		</g>
			<line y2="187.01" x1="255.44" x2="255.42" stroke="#000100" stroke-miterlimit="2" y1="187.03" stroke-width=".144" fill="none"/>
			<line y2="10.743" x1="255.44" x2="255.42" stroke="#000100" stroke-miterlimit="2" y1="10.72" stroke-width=".144" fill="none"/>
			<line y2="187.01" x1="263.38" x2="263.36" stroke="#000100" stroke-miterlimit="2" y1="187.03" stroke-width=".144" fill="none"/>
			<line y2="10.743" x1="263.38" x2="263.36" stroke="#000100" stroke-miterlimit="2" y1="10.72" stroke-width=".144" fill="none"/>
			<line y2="10.743" x1="254.26" x2="254.28" stroke="#000100" stroke-miterlimit="2" y1="10.72" stroke-width=".144" fill="none"/>
			<line y2="187.01" x1="254.26" x2="254.28" stroke="#000100" stroke-miterlimit="2" y1="187.03" stroke-width=".144" fill="none"/>
			<line y2="10.743" x1="262.19" x2="262.22" stroke="#000100" stroke-miterlimit="2" y1="10.72" stroke-width=".144" fill="none"/>
			<line y2="187.01" x1="262.19" x2="262.22" stroke="#000100" stroke-miterlimit="2" y1="187.03" stroke-width=".144" fill="none"/>
		<g stroke="#000100" stroke-width=".359" stroke-miterlimit="2" fill="none">
			<path d="m260.25 80.811c0-0.792-0.642-1.434-1.434-1.434s-1.435 0.642-1.435 1.434 0.643 1.434 1.435 1.434 1.43-0.642 1.43-1.434"/>
			<path d="m259.86 80.811c0-0.575-0.467-1.042-1.042-1.042s-1.041 0.467-1.041 1.042 0.466 1.042 1.041 1.042c0.57 0 1.04-0.467 1.04-1.042"/>
		</g>
			<line y2="181.6" x1="255.87" x2="261.77" stroke="#1F489E" stroke-miterlimit="2" y1="181.6" stroke-width=".144" fill="none"/>
			<line y2="175.87" x1="259.17" x2="259.84" stroke="#1F489E" stroke-miterlimit="2" y1="175.87" stroke-width=".144" fill="none"/>
			<line y2="174.55" x1="256.77" x2="259.17" stroke="#1F489E" stroke-miterlimit="2" y1="174.55" stroke-width=".144" fill="none"/>
			<line y2="174.55" x1="259.84" x2="260.59" stroke="#1F489E" stroke-miterlimit="2" y1="174.55" stroke-width=".144" fill="none"/>
			<line y2="174.16" x1="255.87" x2="256.29" stroke="#1F489E" stroke-miterlimit="2" y1="174.16" stroke-width=".144" fill="none"/>
			<line y2="174.16" x1="261.35" x2="261.77" stroke="#1F489E" stroke-miterlimit="2" y1="174.16" stroke-width=".144" fill="none"/>
			<line y2="173.93" x1="260.59" x2="259.84" stroke="#1F489E" stroke-miterlimit="2" y1="173.93" stroke-width=".144" fill="none"/>
			<line y2="173.93" x1="259.17" x2="257.44" stroke="#1F489E" stroke-miterlimit="2" y1="173.93" stroke-width=".144" fill="none"/>
			<line y2="173.58" x1="261.77" x2="261.35" stroke="#1F489E" stroke-miterlimit="2" y1="173.58" stroke-width=".144" fill="none"/>
			<line y2="173.58" x1="256.29" x2="255.87" stroke="#1F489E" stroke-miterlimit="2" y1="173.58" stroke-width=".144" fill="none"/>
			<line y2="170.36" x1="259.84" x2="259.29" stroke="#1F489E" stroke-miterlimit="2" y1="170.36" stroke-width=".144" fill="none"/>
			<line y2="166.14" x1="261.77" x2="255.87" stroke="#1F489E" stroke-miterlimit="2" y1="166.14" stroke-width=".144" fill="none"/>
			<line y2="145.39" x1="255.87" x2="261.77" stroke="#1F489E" stroke-miterlimit="2" y1="145.39" stroke-width=".144" fill="none"/>
			<line y2="140.3" x1="261.77" x2="255.87" stroke="#1F489E" stroke-miterlimit="2" y1="140.3" stroke-width=".144" fill="none"/>
			<line y2="119.55" x1="255.87" x2="261.77" stroke="#1F489E" stroke-miterlimit="2" y1="119.55" stroke-width=".144" fill="none"/>
			<line y2="113.09" x1="257.71" x2="257" stroke="#1F489E" stroke-miterlimit="2" y1="113.03" stroke-width=".359" fill="none"/>
			<line y2="112.11" x1="255.87" x2="256.29" stroke="#1F489E" stroke-miterlimit="2" y1="112.11" stroke-width=".144" fill="none"/>
			<line y2="112.11" x1="261.35" x2="261.77" stroke="#1F489E" stroke-miterlimit="2" y1="112.11" stroke-width=".144" fill="none"/>
			<line y2="111.52" x1="261.77" x2="261.35" stroke="#1F489E" stroke-miterlimit="2" y1="111.52" stroke-width=".144" fill="none"/>
			<line y2="111.52" x1="256.29" x2="255.87" stroke="#1F489E" stroke-miterlimit="2" y1="111.52" stroke-width=".144" fill="none"/>
			<line y2="109.74" x1="258.19" x2="260.39" stroke="#1F489E" stroke-miterlimit="2" y1="109.74" stroke-width=".359" fill="none"/>
			<line y2="109.09" x1="260.39" x2="257.65" stroke="#1F489E" stroke-miterlimit="2" y1="109.09" stroke-width=".359" fill="none"/>
			<line y2="112.01" x1="257.12" x2="257.75" stroke="#1F489E" stroke-miterlimit="2" y1="111.93" stroke-width=".359" fill="none"/>
			<line y2="173.58" x1="256.29" x2="256.29" stroke="#1F489E" stroke-miterlimit="2" y1="174.16" stroke-width=".144" fill="none"/>
			<line y2="111.52" x1="256.29" x2="256.29" stroke="#1F489E" stroke-miterlimit="2" y1="112.11" stroke-width=".144" fill="none"/>
			<line y2="49.472" x1="256.29" x2="256.29" stroke="#1F489E" stroke-miterlimit="2" y1="50.061" stroke-width=".144" fill="none"/>
			<line y2="174.55" x1="256.77" x2="256.77" stroke="#1F489E" stroke-miterlimit="2" y1="173.93" stroke-width=".144" fill="none"/>
			<line y2="173.93" x1="259.17" x2="259.17" stroke="#1F489E" stroke-miterlimit="2" y1="171.44" stroke-width=".144" fill="none"/>
			<line y2="175.87" x1="259.17" x2="259.17" stroke="#1F489E" stroke-miterlimit="2" y1="174.55" stroke-width=".144" fill="none"/>
			<line y2="174.55" x1="259.84" x2="259.84" stroke="#1F489E" stroke-miterlimit="2" y1="175.87" stroke-width=".144" fill="none"/>
			<line y2="170.36" x1="259.84" x2="259.84" stroke="#1F489E" stroke-miterlimit="2" y1="173.93" stroke-width=".144" fill="none"/>
		<polyline stroke="#1F489E" stroke-width=".144" stroke-miterlimit="2" points="257.74 50.345 257.74 50.294 257.75 50.243 257.75 50.192 257.76 50.141 257.76 50.091 257.77 50.052 257.78 50.013 257.79 49.975 257.8 49.937 257.81 49.899 257.82 49.862 257.84 49.82 257.86 49.779 257.88 49.738 257.9 49.699 257.92 49.66 257.95 49.622 257.98 49.585 258 49.549 258.03 49.515 258.06 49.481 258.1 49.45 258.13 49.421 258.16 49.392 258.19 49.365 258.23 49.339 258.26 49.315 258.3 49.292 258.34 49.271 258.38 49.252 258.42 49.234 258.46 49.218 258.5 49.204 258.54 49.192 258.58 49.181 258.63 49.172 258.67 49.165 258.71 49.159 258.76 49.155 258.8 49.153 258.84 49.152 258.89 49.153 258.93 49.155 258.97 49.159 259.02 49.164 259.06 49.172 259.1 49.181 259.14 49.191 259.19 49.204 259.23 49.218 259.27 49.234 259.3 49.252 259.34 49.271 259.38 49.292 259.42 49.315 259.45 49.339 259.49 49.365 259.52 49.392 259.55 49.42 259.58 49.45 259.61 49.481 259.64 49.516 259.67 49.551 259.7 49.588 259.72 49.626 259.74 49.665 259.77 49.704 259.79 49.745 259.81 49.787 259.82 49.829 259.84 49.871 259.85 49.91 259.86 49.95 259.87 49.99 259.88 50.031 259.89 50.071 259.9 50.112 259.9 50.166 259.91 50.22 259.91 50.274 259.92 50.328 259.92 50.383 259.92 50.441" fill="none"/>
		<polyline stroke="#1F489E" stroke-width=".144" stroke-miterlimit="2" points="257.64 49.287 257.64 49.195 257.64 49.103 257.65 49.011 257.65 48.92 257.66 48.828 257.67 48.737 257.68 48.645 257.69 48.554 257.7 48.492 257.71 48.431 257.72 48.369 257.74 48.308 257.75 48.248 257.77 48.188 257.79 48.128 257.81 48.069 257.83 48.011 257.85 47.959 257.88 47.908 257.9 47.857 257.93 47.807 257.96 47.758 257.98 47.71 258.02 47.663 258.05 47.617 258.08 47.576 258.11 47.537 258.15 47.499 258.18 47.462 258.22 47.426 258.26 47.393 258.3 47.36 258.34 47.33 258.37 47.305 258.41 47.283 258.44 47.262 258.48 47.242 258.52 47.224 258.56 47.208 258.6 47.194 258.64 47.182 258.68 47.171 258.73 47.163 258.77 47.157 258.81 47.152 258.86 47.15 258.9 47.149 258.95 47.15 258.99 47.153 259.03 47.157 259.07 47.163 259.11 47.172 259.15 47.181 259.2 47.193 259.24 47.206 259.27 47.221 259.31 47.239 259.35 47.258 259.39 47.279 259.42 47.301 259.46 47.326 259.49 47.351 259.52 47.379 259.55 47.408 259.58 47.439 259.61 47.471 259.63 47.505 259.66 47.54 259.68 47.577 259.7 47.614 259.72 47.652 259.74 47.691 259.75 47.731 259.77 47.771 259.78 47.812 259.79 47.853 259.81 47.894 259.82 47.936 259.83 47.977 259.84 48.018" fill="none"/>
		<polyline stroke="#1F489E" stroke-width=".144" stroke-miterlimit="2" points="259.92 50.44 259.91 50.496 259.91 50.552 259.9 50.608 259.9 50.664 259.89 50.715 259.88 50.766 259.87 50.816 259.85 50.866 259.84 50.915 259.82 50.955 259.81 50.996 259.79 51.035 259.77 51.074 259.76 51.112 259.73 51.15 259.71 51.186 259.69 51.222 259.66 51.257 259.64 51.291 259.61 51.324 259.58 51.354 259.55 51.383 259.52 51.411 259.49 51.438 259.45 51.463 259.42 51.488 259.38 51.511 259.35 51.533 259.31 51.553 259.27 51.572 259.23 51.589 259.2 51.605 259.16 51.619 259.12 51.631 259.08 51.643 259.03 51.652 258.99 51.659 258.95 51.664 258.91 51.668 258.87 51.669 258.83 51.669 258.79 51.667 258.75 51.664 258.71 51.658 258.67 51.651 258.63 51.643 258.6 51.633 258.56 51.621 258.52 51.608 258.48 51.593 258.45 51.578 258.41 51.561 258.38 51.542 258.34 51.523 258.31 51.502 258.27 51.477 258.23 51.451 258.2 51.422 258.17 51.393 258.13 51.362 258.1 51.33 258.07 51.297 258.04 51.264 258.02 51.231 258 51.197 257.97 51.162 257.95 51.126 257.93 51.09 257.91 51.052 257.89 51.015 257.87 50.97 257.85 50.924 257.84 50.879 257.82 50.832 257.81 50.785 257.79 50.738 257.78 50.69 257.77 50.641 257.76 50.593 257.76 50.543 257.75 50.494 257.75 50.444 257.75 50.394 257.74 50.345" fill="none"/>
			<line y2="104.09" x1="261.77" x2="255.87" stroke="#1F489E" stroke-miterlimit="2" y1="104.09" stroke-width=".144" fill="none"/>
		<polyline stroke="#1F489E" stroke-width=".359" stroke-miterlimit="2" points="257 113.09 257 113.16 257.01 113.22 257.02 113.28 257.04 113.35 257.05 113.41 257.07 113.47 257.09 113.54 257.11 113.6 257.14 113.66 257.16 113.72 257.2 113.78 257.23 113.84 257.27 113.9 257.31 113.95 257.35 114.01 257.39 114.06 257.44 114.11 257.49 114.16 257.54 114.21 257.59 114.25 257.65 114.3 257.71 114.34 257.77 114.38 257.83 114.41 257.89 114.44 257.95 114.47 258.02 114.5 258.08 114.52 258.15 114.54 258.21 114.56 258.28 114.58 258.34 114.59 258.41 114.6 258.48 114.61 258.55 114.62 258.62 114.63 258.7 114.63 258.77 114.63 258.84 114.63 258.91 114.62 258.99 114.62 259.06 114.61 259.13 114.6 259.2 114.59 259.27 114.57 259.34 114.56 259.4 114.54 259.46 114.51 259.53 114.49 259.59 114.46 259.65 114.43 259.71 114.4 259.76 114.37 259.82 114.33 259.88 114.29 259.93 114.25 259.98 114.21 260.03 114.16 260.08 114.11 260.13 114.06 260.17 114.01 260.22 113.96 260.26 113.9 260.3 113.85 260.34 113.79 260.37 113.73 260.41 113.67 260.44 113.61 260.47 113.55 260.5 113.49 260.52 113.43 260.54 113.36 260.56 113.3 260.58 113.23 260.6 113.16 260.61 113.1 260.63 113.03 260.64 112.96 260.64 112.88 260.65 112.81 260.65 112.74 260.65 112.66 260.65 112.59 260.65 112.51 260.64 112.44" fill="none"/>
		<polyline stroke="#1F489E" stroke-width=".359" stroke-miterlimit="2" points="260.64 112.44 260.64 112.39 260.63 112.34 260.62 112.29 260.61 112.23 260.6 112.18 260.58 112.12 260.57 112.06 260.55 112 260.53 111.95 260.51 111.9 260.48 111.84 260.46 111.79 260.43 111.74 260.4 111.69 260.37 111.65 260.34 111.6 260.31 111.55 260.27 111.51 260.24 111.46 260.2 111.42 260.16 111.38 260.11 111.34 260.07 111.29 260.02 111.25 259.97 111.22 259.92 111.18 259.87 111.14 259.82 111.11 259.77 111.08 259.72 111.05 259.66 111.03 259.6 111 259.55 110.98 259.49 110.96 259.43 110.94 259.37 110.93 259.31 110.91 259.25 110.9 259.18 110.89 259.12 110.88 259.06 110.88 259 110.88 258.94 110.88 258.88 110.88 258.82 110.88 258.76 110.89 258.7 110.9 258.64 110.9 258.58 110.92 258.52 110.93 258.46 110.95 258.4 110.96 258.34 110.98 258.28 111.01 258.23 111.03 258.17 111.06 258.11 111.09 258.06 111.12 258 111.15 257.95 111.19 257.9 111.22" fill="none"/>
			<line y2="109.09" x1="260.39" x2="260.39" stroke="#1F489E" stroke-miterlimit="2" y1="109.74" stroke-width=".359" fill="none"/>
			<line y2="173.93" x1="260.59" x2="260.59" stroke="#1F489E" stroke-miterlimit="2" y1="174.55" stroke-width=".144" fill="none"/>
			<line y2="50.061" x1="261.35" x2="261.35" stroke="#1F489E" stroke-miterlimit="2" y1="49.472" stroke-width=".144" fill="none"/>
			<line y2="112.11" x1="261.35" x2="261.35" stroke="#1F489E" stroke-miterlimit="2" y1="111.52" stroke-width=".144" fill="none"/>
			<line y2="174.16" x1="261.35" x2="261.35" stroke="#1F489E" stroke-miterlimit="2" y1="173.58" stroke-width=".144" fill="none"/>
			<line y2="111.93" x1="257.65" x2="257.12" stroke="#1F489E" stroke-miterlimit="2" y1="109.09" stroke-width=".359" fill="none"/>
			<line y2="109.74" x1="257.9" x2="258.19" stroke="#1F489E" stroke-miterlimit="2" y1="111.22" stroke-width=".359" fill="none"/>
		<polyline stroke="#1F489E" stroke-width=".144" stroke-miterlimit="2" points="257.03 50.442 257.04 50.527 257.06 50.611 257.08 50.695 257.1 50.779 257.12 50.847 257.14 50.915 257.16 50.983 257.19 51.05 257.21 51.116 257.24 51.182 257.27 51.246 257.3 51.309 257.34 51.371 257.38 51.431 257.42 51.491 257.46 51.548 257.5 51.604 257.54 51.657 257.59 51.708 257.64 51.758 257.7 51.805 257.75 51.851 257.81 51.894 257.86 51.934 257.92 51.972 257.99 52.008 258.05 52.041 258.11 52.071 258.17 52.096 258.23 52.119 258.29 52.139 258.35 52.158 258.42 52.174 258.48 52.187 258.54 52.2 258.61 52.21 258.68 52.218 258.75 52.223 258.81 52.226 258.88 52.227 258.95 52.225 259.02 52.222 259.08 52.216 259.15 52.208 259.22 52.197 259.28 52.183 259.35 52.167 259.42 52.149 259.48 52.129 259.54 52.106 259.6 52.081 259.66 52.053 259.71 52.022 259.77 51.989 259.82 51.954 259.88 51.915 259.93 51.874 259.98 51.832 260.03 51.786 260.08 51.739 260.12 51.69 260.17 51.64 260.21 51.587 260.25 51.534 260.28 51.479 260.32 51.422 260.35 51.365 260.38 51.306 260.42 51.242 260.44 51.178 260.47 51.112 260.5 51.046 260.52 50.978 260.54 50.91 260.55 50.842 260.57 50.76 260.58 50.676 260.59 50.593 260.6 50.509 260.61 50.425 260.61 50.341 260.61 50.265 260.6 50.189 260.6 50.114 260.59 50.039 260.58 49.964" fill="none"/>
		<polyline stroke="#1F489E" stroke-width=".359" stroke-miterlimit="2" points="257.75 112.01 257.78 111.97 257.81 111.93 257.84 111.9 257.87 111.86 257.9 111.82 257.94 111.79 257.97 111.76 258.01 111.73 258.05 111.7 258.08 111.67 258.12 111.65 258.17 111.62 258.21 111.6 258.26 111.58 258.3 111.56 258.35 111.54 258.4 111.53 258.45 111.51 258.49 111.5 258.53 111.49 258.58 111.49 258.62 111.48 258.67 111.48 258.71 111.48 258.76 111.48 258.81 111.48 258.85 111.48 258.9 111.48 258.95 111.49 259 111.5 259.05 111.5 259.1 111.52 259.14 111.53 259.19 111.54 259.23 111.56 259.28 111.58 259.32 111.6 259.36 111.62 259.4 111.64 259.44 111.66 259.47 111.69 259.51 111.72 259.54 111.75 259.58 111.78 259.61 111.81 259.64 111.84 259.67 111.88 259.7 111.92 259.73 111.96 259.75 112 259.78 112.04 259.8 112.08 259.82 112.12 259.84 112.16 259.85 112.21 259.87 112.25 259.88 112.3 259.9 112.35 259.91 112.4 259.92 112.45 259.92 112.5 259.93 112.56 259.93 112.62 259.93 112.67 259.94 112.72 259.94 112.78 259.93 112.84 259.93 112.9 259.92 112.96 259.91 113.02 259.9 113.07 259.89 113.12 259.88 113.17 259.87 113.22 259.85 113.28 259.83 113.32 259.82 113.36 259.8 113.41 259.77 113.45 259.75 113.49 259.73 113.53 259.7 113.57" fill="none"/>
		<polyline stroke="#1F489E" stroke-width=".359" stroke-miterlimit="2" points="259.7 113.57 259.68 113.61 259.65 113.64 259.62 113.67 259.6 113.7 259.57 113.73 259.54 113.76 259.51 113.79 259.48 113.81 259.45 113.84 259.42 113.86 259.39 113.88 259.36 113.91 259.32 113.93 259.29 113.95 259.26 113.96 259.22 113.98 259.18 114 259.14 114.01 259.1 114.02 259.06 114.04 259.02 114.04 258.98 114.05 258.94 114.06 258.9 114.07 258.85 114.07 258.81 114.07 258.77 114.07 258.73 114.07 258.69 114.07 258.65 114.07 258.61 114.06 258.58 114.06 258.54 114.05 258.5 114.04 258.46 114.03 258.43 114.02 258.39 114.01 258.36 113.99 258.32 113.98 258.29 113.96 258.26 113.94 258.22 113.92 258.19 113.9 258.16 113.88 258.13 113.86 258.1 113.84 258.07 113.81 258.05 113.78 258.02 113.76 257.99 113.72 257.97 113.69 257.94 113.66 257.92 113.63 257.9 113.6 257.88 113.56 257.86 113.52 257.84 113.49 257.83 113.45 257.81 113.42 257.8 113.38 257.78 113.34 257.77 113.3 257.76 113.26 257.75 113.22 257.74 113.19 257.73 113.15 257.72 113.11 257.71 113.07 257.71 113.03" fill="none"/>
		<polyline stroke="#1F489E" stroke-width=".144" stroke-miterlimit="2" points="260.58 49.964 260.57 49.906 260.56 49.849 260.54 49.792 260.53 49.735 260.51 49.679 260.49 49.623 260.47 49.571 260.45 49.519 260.42 49.468 260.4 49.417 260.37 49.368 260.34 49.32 260.31 49.272 260.28 49.225 260.24 49.18 260.21 49.136 260.17 49.093 260.13 49.052 260.09 49.012 260.05 48.974 260.01 48.937 259.97 48.901 259.93 48.867 259.88 48.834 259.84 48.804 259.79 48.775 259.75 48.749 259.7 48.723 259.65 48.7 259.61 48.678 259.55 48.656 259.5 48.636 259.44 48.618 259.38 48.603 259.33 48.589 259.27 48.578 259.21 48.569 259.16 48.562 259.1 48.557 259.04 48.554 258.98 48.553 258.92 48.554 258.86 48.558 258.8 48.563 258.74 48.571 258.68 48.581 258.63 48.592 258.57 48.606 258.51 48.622 258.46 48.64 258.4 48.66 258.34 48.683 258.29 48.707 258.24 48.734 258.19 48.762 258.14 48.793 258.09 48.825 258.04 48.86 257.99 48.896 257.95 48.934 257.9 48.974 257.86 49.014 257.82 49.057 257.78 49.101 257.74 49.145 257.71 49.192 257.67 49.239 257.64 49.287" fill="none"/>
		<polyline stroke="#1F489E" stroke-width=".144" stroke-miterlimit="2" points="260.51 47.966 260.5 47.896 260.49 47.826 260.47 47.756 260.45 47.687 260.43 47.618 260.41 47.55 260.38 47.483 260.35 47.417 260.32 47.352 260.28 47.289 260.24 47.228 260.2 47.169 260.16 47.112 260.11 47.058 260.06 47.006 260.01 46.957 259.96 46.913 259.9 46.871 259.85 46.832 259.79 46.797 259.73 46.764 259.67 46.734 259.6 46.707 259.54 46.683 259.47 46.662 259.4 46.643 259.33 46.627 259.26 46.615 259.18 46.605 259.1 46.598 259.02 46.593 258.94 46.592 258.86 46.594 258.78 46.598 258.7 46.606 258.61 46.617 258.53 46.632 258.46 46.649 258.38 46.669 258.31 46.692 258.23 46.72 258.16 46.75 258.09 46.784 258.02 46.822 257.96 46.862 257.89 46.906 257.83 46.953 257.77 47.002 257.71 47.054 257.66 47.109 257.61 47.165 257.56 47.225 257.51 47.29 257.46 47.357 257.41 47.426 257.37 47.497 257.33 47.569 257.3 47.642 257.26 47.727 257.22 47.814 257.19 47.901 257.16 47.99 257.14 48.079 257.11 48.169 257.09 48.274 257.07 48.379 257.05 48.485 257.03 48.592 257.02 48.698 257 48.805 256.99 48.925 256.98 49.045 256.97 49.164 256.97 49.293 256.97 49.422 256.96 49.551 256.97 49.666 256.97 49.781 256.97 49.896 256.98 50.003 256.99 50.109 257 50.215 257.01 50.329 257.03 50.442" fill="none"/>
			<line y2="83.335" x1="255.87" x2="261.77" stroke="#1F489E" stroke-miterlimit="2" y1="83.335" stroke-width=".144" fill="none"/>
			<line y2="78.249" x1="255.87" x2="261.77" stroke="#1F489E" stroke-miterlimit="2" y1="78.249" stroke-width=".144" fill="none"/>
			<line y2="171.44" x1="257.44" x2="259.17" stroke="#1F489E" stroke-miterlimit="2" y1="173.93" stroke-width=".144" fill="none"/>
			<line y2="173.93" x1="259.29" x2="256.77" stroke="#1F489E" stroke-miterlimit="2" y1="170.36" stroke-width=".144" fill="none"/>
			<line y2="57.498" x1="255.87" x2="261.77" stroke="#1F489E" stroke-miterlimit="2" y1="57.498" stroke-width=".144" fill="none"/>
			<line y2="47.965" x1="259.84" x2="260.51" stroke="#1F489E" stroke-miterlimit="2" y1="48.019" stroke-width=".144" fill="none"/>
			<line y2="50.061" x1="255.87" x2="256.29" stroke="#1F489E" stroke-miterlimit="2" y1="50.061" stroke-width=".144" fill="none"/>
			<line y2="50.061" x1="261.35" x2="261.77" stroke="#1F489E" stroke-miterlimit="2" y1="50.061" stroke-width=".144" fill="none"/>
			<line y2="49.472" x1="261.77" x2="261.35" stroke="#1F489E" stroke-miterlimit="2" y1="49.472" stroke-width=".144" fill="none"/>
			<line y2="49.472" x1="256.29" x2="255.87" stroke="#1F489E" stroke-miterlimit="2" y1="49.472" stroke-width=".144" fill="none"/>
			<line y2="42.035" x1="261.77" x2="255.87" stroke="#1F489E" stroke-miterlimit="2" y1="42.035" stroke-width=".144" fill="none"/>
			<line y2="21.284" x1="261.77" x2="255.87" stroke="#1F489E" stroke-miterlimit="2" y1="21.284" stroke-width=".144" fill="none"/>
			<line y2="16.197" x1="255.87" x2="261.77" stroke="#1F489E" stroke-miterlimit="2" y1="16.197" stroke-width=".144" fill="none"/>
			<line y2="79.282" x1="258.91" x2="258.89" stroke="#000100" stroke-miterlimit="2" y1="79.264" stroke-width=".144" fill="none"/>
			<line y2="79.366" x1="259.08" x2="259.06" stroke="#000100" stroke-miterlimit="2" y1="79.352" stroke-width=".144" fill="none"/>
			<line y2="79.352" x1="259.09" x2="259.08" stroke="#000100" stroke-miterlimit="2" y1="79.337" stroke-width=".144" fill="none"/>
			<line y2="79.337" x1="259.11" x2="259.09" stroke="#000100" stroke-miterlimit="2" y1="79.323" stroke-width=".144" fill="none"/>
			<line y2="79.312" x1="259.11" x2="259.12" stroke="#000100" stroke-miterlimit="2" y1="79.323" stroke-width=".144" fill="none"/>
			<line y2="79.366" x1="258.53" x2="258.53" stroke="#000100" stroke-miterlimit="2" y1="79.323" stroke-width=".144" fill="none"/>
			<line y2="79.265" x1="258.73" x2="258.73" stroke="#000100" stroke-miterlimit="2" y1="79.125" stroke-width=".144" fill="none"/>
			<line y2="79.283" x1="258.75" x2="258.75" stroke="#000100" stroke-miterlimit="2" y1="79.124" stroke-width=".144" fill="none"/>
			<line y2="79.124" x1="258.89" x2="258.89" stroke="#000100" stroke-miterlimit="2" y1="79.283" stroke-width=".144" fill="none"/>
			<line y2="79.125" x1="258.91" x2="258.91" stroke="#000100" stroke-miterlimit="2" y1="79.264" stroke-width=".144" fill="none"/>
			<line y2="79.323" x1="259.11" x2="259.11" stroke="#000100" stroke-miterlimit="2" y1="79.366" stroke-width=".144" fill="none"/>
			<line y2="79.312" x1="258.53" x2="258.51" stroke="#000100" stroke-miterlimit="2" y1="79.323" stroke-width=".144" fill="none"/>
			<line y2="79.337" x1="258.53" x2="258.54" stroke="#000100" stroke-miterlimit="2" y1="79.323" stroke-width=".144" fill="none"/>
			<line y2="79.352" x1="258.54" x2="258.56" stroke="#000100" stroke-miterlimit="2" y1="79.337" stroke-width=".144" fill="none"/>
			<line y2="79.366" x1="258.56" x2="258.58" stroke="#000100" stroke-miterlimit="2" y1="79.352" stroke-width=".144" fill="none"/>
			<line y2="79.282" x1="258.73" x2="258.75" stroke="#000100" stroke-miterlimit="2" y1="79.264" stroke-width=".144" fill="none"/>
		<g stroke="#000100" stroke-width=".359" stroke-miterlimit="2" fill="none">
			<path d="m259.12 79.292c-0.071-0.014-0.142-0.023-0.215-0.028"/>
			<path d="m258.73 79.264c-0.072 0.004-0.144 0.014-0.215 0.028"/>
			<path d="m258.69 82.351c0.086 0.007 0.172 0.007 0.258 0"/>
			<path d="m258.89 79.283c-0.047-0.002-0.095-0.002-0.142 0"/>
			<path d="m258.69 82.331c0.086 0.007 0.173 0.007 0.258 0"/>
			<path d="m259.11 79.323c-0.192-0.038-0.39-0.038-0.583 0"/>
			<path d="m259.06 79.366c-0.159-0.026-0.321-0.026-0.479 0"/>
		</g>
		<path d="m329.27 111.66h39.434-39.43z" fill="#fff"/>
			<line y2="111.66" x1="329.27" x2="368.7" stroke="#000100" stroke-miterlimit="10" y1="111.66" stroke-width=".359" fill="none"/>
				<line y2="187.05" x1="327.07" x2="325.9" stroke="#000100" stroke-miterlimit="2" y1="187.05" stroke-width=".144" fill="none"/>
				<line y2="187.05" x1="319.14" x2="317.96" stroke="#000100" stroke-miterlimit="2" y1="187.05" stroke-width=".144" fill="none"/>
				<line y2="187.03" x1="327.08" x2="325.89" stroke="#000100" stroke-miterlimit="2" y1="187.03" stroke-width=".144" fill="none"/>
				<line y2="187.03" x1="319.14" x2="317.96" stroke="#000100" stroke-miterlimit="2" y1="187.03" stroke-width=".144" fill="none"/>
				<line y2="187.01" x1="327.53" x2="317.5" stroke="#000100" stroke-miterlimit="2" y1="187.01" stroke-width=".144" fill="none"/>
				<line y2="186.77" x1="317.5" x2="327.53" stroke="#000100" stroke-miterlimit="2" y1="186.77" stroke-width=".144" fill="none"/>
				<line y2="187.03" x1="319.12" x2="319.14" stroke="#000100" stroke-miterlimit="2" y1="187.01" stroke-width=".144" fill="none"/>
				<line y2="10.72" x1="319.12" x2="319.14" stroke="#000100" stroke-miterlimit="2" y1="10.743" stroke-width=".144" fill="none"/>
				<line y2="10.72" x1="327.06" x2="327.08" stroke="#000100" stroke-miterlimit="2" y1="10.743" stroke-width=".144" fill="none"/>
				<line y2="187.03" x1="327.06" x2="327.08" stroke="#000100" stroke-miterlimit="2" y1="187.01" stroke-width=".144" fill="none"/>
				<line y2="10.987" x1="317.5" x2="317.5" stroke="#000100" stroke-miterlimit="2" y1="10.743" stroke-width=".144" fill="none"/>
				<line y2="186.77" x1="317.5" x2="317.5" stroke="#000100" stroke-miterlimit="2" y1="187.01" stroke-width=".144" fill="none"/>
				<line y2="10.987" x1="317.53" x2="317.53" stroke="#000100" stroke-miterlimit="2" y1="186.77" stroke-width=".144" fill="none"/>
				<line y2="10.743" x1="317.6" x2="317.6" stroke="#000100" stroke-miterlimit="2" y1="187.01" stroke-width=".144" fill="none"/>
				<line y2="10.987" x1="317.78" x2="317.78" stroke="#000100" stroke-miterlimit="2" y1="186.77" stroke-width=".144" fill="none"/>
				<line y2="10.987" x1="317.84" x2="317.84" stroke="#000100" stroke-miterlimit="2" y1="186.77" stroke-width=".144" fill="none"/>
				<line y2="186.77" x1="317.88" x2="317.88" stroke="#000100" stroke-miterlimit="2" y1="10.987" stroke-width=".144" fill="none"/>
				<line y2="78.42" x1="318.7" x2="318.7" stroke="#000100" stroke-miterlimit="2" y1="78.318" stroke-width=".144" fill="none"/>
				<line y2="93.476" x1="318.7" x2="318.7" stroke="#000100" stroke-miterlimit="2" y1="93.374" stroke-width=".144" fill="none"/>
				<line y2="78.258" x1="318.81" x2="318.81" stroke="#000100" stroke-miterlimit="2" y1="78.217" stroke-width=".144" fill="none"/>
				<line y2="78.522" x1="318.81" x2="318.81" stroke="#000100" stroke-miterlimit="2" y1="78.481" stroke-width=".144" fill="none"/>
				<line y2="93.313" x1="318.81" x2="318.81" stroke="#000100" stroke-miterlimit="2" y1="93.272" stroke-width=".144" fill="none"/>
				<line y2="93.578" x1="318.81" x2="318.81" stroke="#000100" stroke-miterlimit="2" y1="93.537" stroke-width=".144" fill="none"/>
				<line y2="93.536" x1="318.91" x2="318.91" stroke="#000100" stroke-miterlimit="2" y1="93.577" stroke-width=".144" fill="none"/>
				<line y2="93.271" x1="318.91" x2="318.91" stroke="#000100" stroke-miterlimit="2" y1="93.312" stroke-width=".144" fill="none"/>
				<line y2="78.481" x1="318.91" x2="318.91" stroke="#000100" stroke-miterlimit="2" y1="78.522" stroke-width=".144" fill="none"/>
				<line y2="78.216" x1="318.91" x2="318.91" stroke="#000100" stroke-miterlimit="2" y1="78.257" stroke-width=".144" fill="none"/>
				<line y2="93.374" x1="319.01" x2="319.01" stroke="#000100" stroke-miterlimit="2" y1="93.476" stroke-width=".144" fill="none"/>
				<line y2="78.318" x1="319.01" x2="319.01" stroke="#000100" stroke-miterlimit="2" y1="78.42" stroke-width=".144" fill="none"/>
				<line y2="186.77" x1="319.84" x2="319.84" stroke="#000100" stroke-miterlimit="2" y1="10.987" stroke-width=".144" fill="none"/>
				<line y2="186.77" x1="319.9" x2="319.9" stroke="#000100" stroke-miterlimit="2" y1="10.987" stroke-width=".144" fill="none"/>
				<line y2="10.987" x1="320.46" x2="320.46" stroke="#000100" stroke-miterlimit="2" y1="186.77" stroke-width=".144" fill="none"/>
				<line y2="10.987" x1="320.51" x2="320.51" stroke="#000100" stroke-miterlimit="2" y1="186.77" stroke-width=".144" fill="none"/>
				<line y2="161.68" x1="322.06" x2="322.06" stroke="#000100" stroke-miterlimit="2" y1="170.84" stroke-width=".144" fill="none"/>
				<line y2="125.06" x1="322.06" x2="322.06" stroke="#000100" stroke-miterlimit="2" y1="134.22" stroke-width=".144" fill="none"/>
				<line y2="64.026" x1="322.06" x2="322.06" stroke="#000100" stroke-miterlimit="2" y1="73.182" stroke-width=".144" fill="none"/>
				<line y2="27.406" x1="322.06" x2="322.06" stroke="#000100" stroke-miterlimit="2" y1="36.561" stroke-width=".144" fill="none"/>
				<line y2="36.561" x1="322.98" x2="322.98" stroke="#000100" stroke-miterlimit="2" y1="27.406" stroke-width=".144" fill="none"/>
				<line y2="73.181" x1="322.98" x2="322.98" stroke="#000100" stroke-miterlimit="2" y1="64.026" stroke-width=".144" fill="none"/>
				<line y2="134.22" x1="322.98" x2="322.98" stroke="#000100" stroke-miterlimit="2" y1="125.06" stroke-width=".144" fill="none"/>
				<line y2="170.84" x1="322.98" x2="322.98" stroke="#000100" stroke-miterlimit="2" y1="161.68" stroke-width=".144" fill="none"/>
				<line y2="93.577" x1="318.81" x2="318.91" stroke="#000100" stroke-miterlimit="2" y1="93.577" stroke-width=".144" fill="none"/>
				<line y2="93.577" x1="326.13" x2="326.23" stroke="#000100" stroke-miterlimit="2" y1="93.577" stroke-width=".144" fill="none"/>
				<line y2="93.476" x1="318.7" x2="318.74" stroke="#000100" stroke-miterlimit="2" y1="93.476" stroke-width=".144" fill="none"/>
				<line y2="93.476" x1="318.97" x2="319.01" stroke="#000100" stroke-miterlimit="2" y1="93.476" stroke-width=".144" fill="none"/>
				<line y2="93.476" x1="326.03" x2="326.07" stroke="#000100" stroke-miterlimit="2" y1="93.476" stroke-width=".144" fill="none"/>
				<line y2="93.476" x1="326.29" x2="326.33" stroke="#000100" stroke-miterlimit="2" y1="93.476" stroke-width=".144" fill="none"/>
				<line y2="93.374" x1="326.07" x2="326.03" stroke="#000100" stroke-miterlimit="2" y1="93.374" stroke-width=".144" fill="none"/>
				<line y2="93.374" x1="326.33" x2="326.29" stroke="#000100" stroke-miterlimit="2" y1="93.374" stroke-width=".144" fill="none"/>
				<line y2="93.374" x1="318.74" x2="318.7" stroke="#000100" stroke-miterlimit="2" y1="93.374" stroke-width=".144" fill="none"/>
				<line y2="93.374" x1="319.01" x2="318.97" stroke="#000100" stroke-miterlimit="2" y1="93.374" stroke-width=".144" fill="none"/>
				<line y2="93.272" x1="326.23" x2="326.13" stroke="#000100" stroke-miterlimit="2" y1="93.272" stroke-width=".144" fill="none"/>
				<line y2="93.272" x1="318.91" x2="318.81" stroke="#000100" stroke-miterlimit="2" y1="93.272" stroke-width=".144" fill="none"/>
				<line y2="10.987" x1="324.52" x2="324.52" stroke="#000100" stroke-miterlimit="2" y1="186.77" stroke-width=".144" fill="none"/>
				<line y2="10.987" x1="324.58" x2="324.58" stroke="#000100" stroke-miterlimit="2" y1="186.77" stroke-width=".144" fill="none"/>
				<line y2="186.77" x1="325.14" x2="325.14" stroke="#000100" stroke-miterlimit="2" y1="10.987" stroke-width=".144" fill="none"/>
				<line y2="186.77" x1="325.19" x2="325.19" stroke="#000100" stroke-miterlimit="2" y1="10.987" stroke-width=".144" fill="none"/>
				<line y2="78.42" x1="326.03" x2="326.03" stroke="#000100" stroke-miterlimit="2" y1="78.318" stroke-width=".144" fill="none"/>
				<line y2="93.476" x1="326.03" x2="326.03" stroke="#000100" stroke-miterlimit="2" y1="93.374" stroke-width=".144" fill="none"/>
				<line y2="78.258" x1="326.13" x2="326.13" stroke="#000100" stroke-miterlimit="2" y1="78.217" stroke-width=".144" fill="none"/>
				<line y2="78.522" x1="326.13" x2="326.13" stroke="#000100" stroke-miterlimit="2" y1="78.481" stroke-width=".144" fill="none"/>
				<line y2="93.313" x1="326.13" x2="326.13" stroke="#000100" stroke-miterlimit="2" y1="93.272" stroke-width=".144" fill="none"/>
				<line y2="93.578" x1="326.13" x2="326.13" stroke="#000100" stroke-miterlimit="2" y1="93.537" stroke-width=".144" fill="none"/>
				<line y2="93.536" x1="326.23" x2="326.23" stroke="#000100" stroke-miterlimit="2" y1="93.577" stroke-width=".144" fill="none"/>
				<line y2="93.271" x1="326.23" x2="326.23" stroke="#000100" stroke-miterlimit="2" y1="93.312" stroke-width=".144" fill="none"/>
				<line y2="78.481" x1="326.23" x2="326.23" stroke="#000100" stroke-miterlimit="2" y1="78.522" stroke-width=".144" fill="none"/>
				<line y2="78.216" x1="326.23" x2="326.23" stroke="#000100" stroke-miterlimit="2" y1="78.257" stroke-width=".144" fill="none"/>
				<line y2="93.374" x1="326.33" x2="326.33" stroke="#000100" stroke-miterlimit="2" y1="93.476" stroke-width=".144" fill="none"/>
				<line y2="78.318" x1="326.33" x2="326.33" stroke="#000100" stroke-miterlimit="2" y1="78.42" stroke-width=".144" fill="none"/>
				<line y2="186.77" x1="327.16" x2="327.16" stroke="#000100" stroke-miterlimit="2" y1="10.987" stroke-width=".144" fill="none"/>
				<line y2="10.987" x1="327.2" x2="327.2" stroke="#000100" stroke-miterlimit="2" y1="186.77" stroke-width=".144" fill="none"/>
				<line y2="10.987" x1="327.26" x2="327.26" stroke="#000100" stroke-miterlimit="2" y1="186.77" stroke-width=".144" fill="none"/>
				<line y2="10.743" x1="327.44" x2="327.44" stroke="#000100" stroke-miterlimit="2" y1="187.01" stroke-width=".144" fill="none"/>
				<line y2="10.987" x1="327.5" x2="327.5" stroke="#000100" stroke-miterlimit="2" y1="186.77" stroke-width=".144" fill="none"/>
				<line y2="10.987" x1="327.53" x2="327.53" stroke="#000100" stroke-miterlimit="2" y1="10.743" stroke-width=".144" fill="none"/>
				<line y2="186.77" x1="327.53" x2="327.53" stroke="#000100" stroke-miterlimit="2" y1="187.01" stroke-width=".144" fill="none"/>
				<line y2="78.522" x1="318.81" x2="318.91" stroke="#000100" stroke-miterlimit="2" y1="78.522" stroke-width=".144" fill="none"/>
				<line y2="78.522" x1="326.13" x2="326.23" stroke="#000100" stroke-miterlimit="2" y1="78.522" stroke-width=".144" fill="none"/>
				<line y2="78.42" x1="318.7" x2="318.74" stroke="#000100" stroke-miterlimit="2" y1="78.42" stroke-width=".144" fill="none"/>
				<line y2="78.42" x1="318.97" x2="319.01" stroke="#000100" stroke-miterlimit="2" y1="78.42" stroke-width=".144" fill="none"/>
				<line y2="78.42" x1="326.03" x2="326.07" stroke="#000100" stroke-miterlimit="2" y1="78.42" stroke-width=".144" fill="none"/>
				<line y2="78.42" x1="326.29" x2="326.33" stroke="#000100" stroke-miterlimit="2" y1="78.42" stroke-width=".144" fill="none"/>
				<line y2="78.318" x1="326.07" x2="326.03" stroke="#000100" stroke-miterlimit="2" y1="78.318" stroke-width=".144" fill="none"/>
				<line y2="78.318" x1="326.33" x2="326.29" stroke="#000100" stroke-miterlimit="2" y1="78.318" stroke-width=".144" fill="none"/>
				<line y2="78.318" x1="318.74" x2="318.7" stroke="#000100" stroke-miterlimit="2" y1="78.318" stroke-width=".144" fill="none"/>
				<line y2="78.318" x1="319.01" x2="318.97" stroke="#000100" stroke-miterlimit="2" y1="78.318" stroke-width=".144" fill="none"/>
				<line y2="78.217" x1="326.23" x2="326.13" stroke="#000100" stroke-miterlimit="2" y1="78.217" stroke-width=".144" fill="none"/>
				<line y2="78.217" x1="318.91" x2="318.81" stroke="#000100" stroke-miterlimit="2" y1="78.217" stroke-width=".144" fill="none"/>
				<line y2="10.72" x1="317.98" x2="317.96" stroke="#000100" stroke-miterlimit="2" y1="10.743" stroke-width=".144" fill="none"/>
				<line y2="187.03" x1="317.98" x2="317.96" stroke="#000100" stroke-miterlimit="2" y1="187.01" stroke-width=".144" fill="none"/>
				<line y2="187.03" x1="325.92" x2="325.89" stroke="#000100" stroke-miterlimit="2" y1="187.01" stroke-width=".144" fill="none"/>
				<line y2="10.72" x1="325.92" x2="325.89" stroke="#000100" stroke-miterlimit="2" y1="10.743" stroke-width=".144" fill="none"/>
				<line y2="10.987" x1="317.5" x2="327.53" stroke="#000100" stroke-miterlimit="2" y1="10.987" stroke-width=".144" fill="none"/>
				<line y2="10.743" x1="317.5" x2="327.53" stroke="#000100" stroke-miterlimit="2" y1="10.743" stroke-width=".144" fill="none"/>
				<line y2="10.72" x1="317.96" x2="319.14" stroke="#000100" stroke-miterlimit="2" y1="10.72" stroke-width=".144" fill="none"/>
				<line y2="10.72" x1="325.89" x2="327.08" stroke="#000100" stroke-miterlimit="2" y1="10.72" stroke-width=".144" fill="none"/>
				<line y2="10.703" x1="327.07" x2="325.9" stroke="#000100" stroke-miterlimit="2" y1="10.703" stroke-width=".144" fill="none"/>
				<line y2="10.703" x1="319.14" x2="317.96" stroke="#000100" stroke-miterlimit="2" y1="10.703" stroke-width=".144" fill="none"/>
			<path stroke="#000100" stroke-width=".359" stroke-miterlimit="2" d="m319.14 187.03c0.003 0.003 0.003 0.007 0.002 0.011m0.01 0c-0.001 0.004-0.005 0.006-0.009 0.006" fill="none"/>
			<path stroke="#000100" stroke-width=".359" stroke-miterlimit="2" d="m317.96 187.04c0 0.004 0.004 0.006 0.008 0.006m-0.01-0.02c-0.004 0.003-0.004 0.008-0.002 0.011" fill="none"/>
			<path stroke="#000100" stroke-width=".359" stroke-miterlimit="2" d="m317.96 10.708c-0.002 0.004-0.002 0.008 0.002 0.011m0.01-0.016c-0.004 0-0.009 0.003-0.009 0.006" fill="none"/>
			<path stroke="#000100" stroke-width=".359" stroke-miterlimit="2" d="m318.74 93.374c0.034 0 0.061-0.027 0.061-0.061" fill="none"/>
			<path stroke="#000100" stroke-width=".359" stroke-miterlimit="2" d="m318.81 93.537c0-0.034-0.026-0.061-0.061-0.061" fill="none"/>
			<path stroke="#000100" stroke-width=".359" stroke-miterlimit="2" d="m318.74 78.318c0.034 0 0.061-0.027 0.061-0.061" fill="none"/>
			<path stroke="#000100" stroke-width=".359" stroke-miterlimit="2" d="m318.81 78.481c0-0.034-0.026-0.061-0.061-0.061" fill="none"/>
			<path stroke="#000100" stroke-width=".359" stroke-miterlimit="2" d="m319.44 93.424c0-0.32-0.259-0.58-0.58-0.58-0.319 0-0.579 0.26-0.579 0.58s0.26 0.58 0.579 0.58c0.32 0 0.58-0.26 0.58-0.58" fill="none"/>
			<path stroke="#000100" stroke-width=".359" stroke-miterlimit="2" d="m319.4 93.424c0-0.298-0.242-0.539-0.539-0.539-0.299 0-0.539 0.241-0.539 0.539s0.24 0.539 0.539 0.539c0.29 0 0.54-0.241 0.54-0.539" fill="none"/>
			<path stroke="#000100" stroke-width=".359" stroke-miterlimit="2" d="m318.97 93.476c-0.034 0-0.061 0.027-0.061 0.061" fill="none"/>
			<path stroke="#000100" stroke-width=".359" stroke-miterlimit="2" d="m318.91 93.312c0 0.034 0.026 0.061 0.061 0.061" fill="none"/>
			<path stroke="#000100" stroke-width=".359" stroke-miterlimit="2" d="m319.44 78.369c0-0.32-0.259-0.58-0.58-0.58-0.319 0-0.579 0.26-0.579 0.58s0.26 0.58 0.579 0.58c0.32 0 0.58-0.26 0.58-0.58" fill="none"/>
			<path stroke="#000100" stroke-width=".359" stroke-miterlimit="2" d="m319.4 78.369c0-0.298-0.242-0.539-0.539-0.539-0.299 0-0.539 0.241-0.539 0.539s0.24 0.539 0.539 0.539c0.29 0 0.54-0.241 0.54-0.539" fill="none"/>
			<path stroke="#000100" stroke-width=".359" stroke-miterlimit="2" d="m318.97 78.42c-0.034 0-0.061 0.027-0.061 0.061" fill="none"/>
			<path stroke="#000100" stroke-width=".359" stroke-miterlimit="2" d="m318.91 78.257c0 0.034 0.026 0.061 0.061 0.061" fill="none"/>
			<path stroke="#000100" stroke-width=".359" stroke-miterlimit="2" d="m319.14 10.703c0.004 0 0.008 0.002 0.009 0.006s0.001 0.008-0.002 0.011" fill="none"/>
			<path stroke="#000100" stroke-width=".359" stroke-miterlimit="2" d="m324.35 111.82c0-1.011-0.82-1.831-1.831-1.831s-1.831 0.82-1.831 1.831c0 1.011 0.82 1.831 1.831 1.831s1.83-0.82 1.83-1.83" fill="none"/>
			<path stroke="#000100" stroke-width=".359" stroke-miterlimit="2" d="m323.13 118.45c0-0.337-0.273-0.61-0.609-0.61-0.338 0-0.611 0.273-0.611 0.61s0.273 0.61 0.611 0.61c0.34 0 0.61-0.27 0.61-0.61" fill="none"/>
			<path stroke="#000100" stroke-width=".359" stroke-miterlimit="2" d="m322.52 171.3c0.252 0 0.457-0.205 0.457-0.458m-0.92 0c0 0.253 0.205 0.458 0.459 0.458" fill="none"/>
			<path stroke="#000100" stroke-width=".359" stroke-miterlimit="2" d="m322.52 161.22c-0.253 0-0.457 0.205-0.457 0.458m0.92 0c0-0.253-0.205-0.458-0.458-0.458" fill="none"/>
			<path stroke="#000100" stroke-width=".359" stroke-miterlimit="2" d="m322.52 134.67c0.252 0 0.457-0.206 0.457-0.458m-0.92 0.01c0 0.252 0.205 0.458 0.459 0.458" fill="none"/>
			<path stroke="#000100" stroke-width=".359" stroke-miterlimit="2" d="m322.52 124.6c-0.253 0-0.457 0.205-0.457 0.458m0.92 0c0-0.253-0.205-0.458-0.458-0.458" fill="none"/>
			<path stroke="#000100" stroke-width=".359" stroke-miterlimit="2" d="m327.08 187.03c0.003 0.003 0.003 0.007 0.002 0.011s-0.005 0.006-0.009 0.006" fill="none"/>
			<path stroke="#000100" stroke-width=".359" stroke-miterlimit="2" d="m325.89 187.04c0.002 0.004 0.006 0.006 0.01 0.006m-0.01-0.02c-0.002 0.003-0.004 0.008-0.002 0.011" fill="none"/>
			<path stroke="#000100" stroke-width=".359" stroke-miterlimit="2" d="m322.52 73.64c0.252 0 0.457-0.205 0.457-0.458m-0.92 0c0 0.253 0.205 0.458 0.459 0.458" fill="none"/>
			<path stroke="#000100" stroke-width=".359" stroke-miterlimit="2" d="m322.52 63.568c-0.253 0-0.457 0.205-0.457 0.458m0.92 0c0-0.253-0.205-0.458-0.458-0.458" fill="none"/>
			<path stroke="#000100" stroke-width=".359" stroke-miterlimit="2" d="m322.52 37.019c0.252 0 0.457-0.205 0.457-0.458m-0.92 0c0 0.253 0.205 0.458 0.459 0.458" fill="none"/>
			<path stroke="#000100" stroke-width=".359" stroke-miterlimit="2" d="m322.52 26.948c-0.253 0-0.457 0.205-0.457 0.458m0.92 0c0-0.253-0.205-0.458-0.458-0.458" fill="none"/>
			<path stroke="#000100" stroke-width=".359" stroke-miterlimit="2" d="m326.07 93.374c0.035 0 0.062-0.027 0.062-0.061" fill="none"/>
			<path stroke="#000100" stroke-width=".359" stroke-miterlimit="2" d="m326.13 93.537c0-0.034-0.026-0.061-0.062-0.061" fill="none"/>
			<path stroke="#000100" stroke-width=".359" stroke-miterlimit="2" d="m326.07 78.318c0.035 0 0.062-0.027 0.062-0.061" fill="none"/>
			<path stroke="#000100" stroke-width=".359" stroke-miterlimit="2" d="m326.13 78.481c0-0.034-0.026-0.061-0.062-0.061" fill="none"/>
			<path stroke="#000100" stroke-width=".359" stroke-miterlimit="2" d="m326.76 93.424c0-0.32-0.259-0.58-0.58-0.58-0.319 0-0.579 0.26-0.579 0.58s0.26 0.58 0.579 0.58c0.32 0 0.58-0.26 0.58-0.58" fill="none"/>
			<path stroke="#000100" stroke-width=".359" stroke-miterlimit="2" d="m326.72 93.424c0-0.298-0.242-0.539-0.539-0.539-0.299 0-0.539 0.241-0.539 0.539s0.24 0.539 0.539 0.539c0.3 0 0.54-0.241 0.54-0.539" fill="none"/>
			<path stroke="#000100" stroke-width=".359" stroke-miterlimit="2" d="m326.29 93.476c-0.034 0-0.062 0.027-0.062 0.061" fill="none"/>
			<path stroke="#000100" stroke-width=".359" stroke-miterlimit="2" d="m326.23 93.312c0 0.034 0.026 0.061 0.061 0.061" fill="none"/>
			<path stroke="#000100" stroke-width=".359" stroke-miterlimit="2" d="m326.76 78.369c0-0.32-0.259-0.58-0.58-0.58-0.319 0-0.579 0.26-0.579 0.58s0.26 0.58 0.579 0.58c0.32 0 0.58-0.26 0.58-0.58" fill="none"/>
			<path stroke="#000100" stroke-width=".359" stroke-miterlimit="2" d="m326.72 78.369c0-0.298-0.242-0.539-0.539-0.539-0.299 0-0.539 0.241-0.539 0.539s0.24 0.539 0.539 0.539c0.3 0 0.54-0.241 0.54-0.539" fill="none"/>
			<path stroke="#000100" stroke-width=".359" stroke-miterlimit="2" d="m326.29 78.42c-0.034 0-0.062 0.027-0.062 0.061" fill="none"/>
			<path stroke="#000100" stroke-width=".359" stroke-miterlimit="2" d="m326.23 78.257c0 0.034 0.026 0.061 0.061 0.061" fill="none"/>
			<path stroke="#000100" stroke-width=".359" stroke-miterlimit="2" d="m325.89 10.708c-0.002 0.004 0 0.008 0.002 0.011m0.01-0.016c-0.004 0-0.008 0.003-0.01 0.006" fill="none"/>
			<path stroke="#000100" stroke-width=".359" stroke-miterlimit="2" d="m327.07 10.703c0.004 0 0.008 0.002 0.009 0.006s0.001 0.008-0.002 0.011" fill="none"/>
				<line y2="187.01" x1="319.14" x2="319.12" stroke="#000100" stroke-miterlimit="2" y1="187.03" stroke-width=".144" fill="none"/>
				<line y2="10.743" x1="319.14" x2="319.12" stroke="#000100" stroke-miterlimit="2" y1="10.72" stroke-width=".144" fill="none"/>
				<line y2="10.743" x1="327.08" x2="327.06" stroke="#000100" stroke-miterlimit="2" y1="10.72" stroke-width=".144" fill="none"/>
				<line y2="187.01" x1="327.08" x2="327.06" stroke="#000100" stroke-miterlimit="2" y1="187.03" stroke-width=".144" fill="none"/>
				<line y2="10.743" x1="317.96" x2="317.98" stroke="#000100" stroke-miterlimit="2" y1="10.72" stroke-width=".144" fill="none"/>
				<line y2="187.01" x1="317.96" x2="317.98" stroke="#000100" stroke-miterlimit="2" y1="187.03" stroke-width=".144" fill="none"/>
				<line y2="187.01" x1="325.89" x2="325.92" stroke="#000100" stroke-miterlimit="2" y1="187.03" stroke-width=".144" fill="none"/>
				<line y2="10.743" x1="325.89" x2="325.92" stroke="#000100" stroke-miterlimit="2" y1="10.72" stroke-width=".144" fill="none"/>
			<polyline stroke="#000100" stroke-width=".359" stroke-miterlimit="2" points="325.32 108.76 343.42 94.28 348.78 94.28" fill="none"/>
			<polygon points="347.59 95.748 347.34 95.485 348.64 94.281 347.34 93.076 347.59 92.812 349.16 94.281" fill="#000100"/>
		<text font-size="9.1083" font-family="&apos;ArialMT&apos;" transform="translate(351.38 97.888)" fill="#231F20">Routing hole</text>
		<line y1="27.643" x2="279.95" x1="284.45" y2="29.866" fill="#D2232A"/>
		<polygon points="286.89 17.495 285.64 18.796 277.35 34.07 276.75 37.248 278.55 38.258 280.86 36.539 289.74 21.096 290.22 19.366" fill="#fff"/>
		<polygon stroke="#231F20" stroke-width=".405" stroke-miterlimit="10" points="286.89 17.495 285.64 18.796 277.35 34.07 276.75 37.248 278.55 38.258 280.86 36.539 289.74 21.096 290.22 19.366" fill="none"/>
			<path d="m280.28 34.474c-0.248 0.443-0.665 0.683-0.928 0.534-0.265-0.149-0.277-0.627-0.029-1.07l7.357-13.106c0.249-0.441 0.666-0.681 0.929-0.532 0.265 0.149 0.277 0.628 0.029 1.071l-7.36 13.103z" fill="#fff"/>
			<path stroke="#231F20" stroke-width=".433" stroke-miterlimit="10" d="m280.28 34.474c-0.248 0.443-0.665 0.683-0.928 0.534-0.265-0.149-0.277-0.627-0.029-1.07l7.357-13.106c0.249-0.441 0.666-0.681 0.929-0.532 0.265 0.149 0.277 0.628 0.029 1.071l-7.36 13.103z" fill="none"/>
			<path stroke="#231F20" stroke-width=".432" stroke-miterlimit="10" d="m289.34 21.3c-0.018-0.02-0.031-0.048-0.055-0.06-0.264-0.151-0.679 0.088-0.925 0.528l-7.331 13.055c-0.247 0.439-0.234 0.919 0.032 1.066" fill="none"/>
			<path stroke="#231F20" stroke-width=".432" stroke-miterlimit="10" d="m285.86 19.346c0.026 0.008 0.057 0.004 0.081 0.017 0.275 0.152 0.298 0.635 0.05 1.074l-7.328 13.053c-0.247 0.44-0.669 0.673-0.944 0.518" fill="none"/>
			<path d="m276.75 37.248l1.798 1.006s-0.654 0.845-1.123 1.3c-0.468 0.458-1.447 0.444-1.235-0.69 0.2-1.136 0.55-1.616 0.55-1.616" fill="#231F20"/>
			<path stroke="#231F20" stroke-width=".442" stroke-miterlimit="10" d="m276.75 37.248l1.798 1.006s-0.654 0.845-1.123 1.3c-0.468 0.458-1.447 0.444-1.235-0.69 0.2-1.136 0.55-1.616 0.55-1.616z" fill="none"/>
			<line y1="33.575" x2="278.55" x1="322.52" y2="43.444" fill="#fff"/>
				<line y2="43.444" x1="322.52" x2="278.55" stroke="#000100" stroke-miterlimit="10" y1="33.575" stroke-width=".359" fill="none"/>
			<line y1="68.604" x2="277.35" x1="322.52" y2="44.64" fill="#fff"/>
				<line y2="44.64" x1="322.52" x2="277.35" stroke="#000100" stroke-miterlimit="10" y1="68.604" stroke-width=".359" fill="none"/>
			<polyline stroke="#000100" stroke-width=".359" stroke-miterlimit="10" points="276.16 47.149 302.99 109.98 322.52 129.64" fill="none"/>
			<polyline stroke="#000100" stroke-width=".359" stroke-miterlimit="10" points="274.81 50.345 301.24 132.44 322.52 166.26" fill="none"/>
			<line y1="111.66" x2="277.72" x1="322.52" y2="46.592" fill="#fff"/>
				<line y2="46.592" x1="322.52" x2="277.72" stroke="#000100" stroke-miterlimit="10" y1="111.66" stroke-width=".359" fill="none"/>
</svg>
