<?xml version="1.0" encoding="UTF-8" standalone="no"?>
<!-- Generator: Adobe Illustrator 16.0.0, SVG Export Plug-In . SVG Version: 6.00 Build 0)  -->
<!DOCTYPE svg  PUBLIC '-//W3C//DTD SVG 1.1//EN'  'http://www.w3.org/Graphics/SVG/1.1/DTD/svg11.dtd'>
<svg id="Layer_1" xmlns="http://www.w3.org/2000/svg" xml:space="preserve" height="177px" viewBox="0 0 595.276 177" width="595.28px" version="1.1" y="0px" x="0px" xmlns:xlink="http://www.w3.org/1999/xlink" enable-background="new 0 0 595.276 177">
	<polyline stroke="#000" stroke-width=".262" stroke-miterlimit="2" points="270.27 29.503 270.32 29.461 270.37 29.414 270.42 29.362 270.45 29.305" fill="none"/>
	<polyline stroke="#000" stroke-width=".262" stroke-miterlimit="2" points="270.14 29.569 270.2 29.539 270.27 29.504" fill="none"/>
	<polyline stroke="#000" stroke-width=".262" stroke-miterlimit="2" points="331.75 155.58 331.82 155.57 331.89 155.56 331.95 155.54" fill="none"/>
	<polyline stroke="#000" stroke-width=".262" stroke-miterlimit="2" points="331.74 155.6 331.78 155.6 331.81 155.6 331.85 155.59 331.89 155.58 331.93 155.57" fill="none"/>
		<line y2="155.78" x1="331.82" x2="323.02" stroke="#000" stroke-miterlimit="2" y1="155.78" stroke-width=".262" fill="none"/>
		<line y2="155.6" x1="331.74" x2="322.94" stroke="#000" stroke-miterlimit="2" y1="155.6" stroke-width=".262" fill="none"/>
		<line y2="155.58" x1="324.15" x2="322.95" stroke="#000" stroke-miterlimit="2" y1="155.58" stroke-width=".262" fill="none"/>
		<line y2="155.58" x1="330.54" x2="331.75" stroke="#000" stroke-miterlimit="2" y1="155.58" stroke-width=".262" fill="none"/>
		<line y2="155.25" x1="324.22" x2="330.35" stroke="#000" stroke-miterlimit="2" y1="155.25" stroke-width=".262" fill="none"/>
	<polyline stroke="#000" stroke-width=".262" stroke-miterlimit="2" points="323.02 155.78 322.99 155.78 322.95 155.77 322.92 155.77 322.89 155.76 322.86 155.75 322.83 155.74 322.8 155.72 322.78 155.7 322.76 155.69 322.73 155.66 322.72 155.64 322.7 155.62 322.69 155.6" fill="none"/>
	<polyline stroke="#000" stroke-width=".262" stroke-miterlimit="2" points="322.95 155.58 322.88 155.57 322.82 155.56 322.77 155.54 322.72 155.51 322.68 155.47 322.65 155.43 322.64 155.42" fill="none"/>
	<polyline stroke="#000" stroke-width=".262" stroke-miterlimit="2" points="260.96 26.719 260.95 26.755 260.94 26.791 260.93 26.828 260.92 26.863 260.92 26.898 260.91 26.936 260.9 26.971 260.9 27.008 260.89 27.043" fill="none"/>
		<line y2="26.719" x1="261.58" x2="260.96" stroke="#000" stroke-miterlimit="2" y1="24.73" stroke-width=".262" fill="none"/>
	<polyline stroke="#000" stroke-width=".262" stroke-miterlimit="2" points="271.48 27.043 271.5 27.008 271.51 26.972 271.53 26.936 271.54 26.899 271.56 26.863 271.57 26.828 271.58 26.791 271.6 26.756 271.61 26.719" fill="none"/>
		<line y2="27.043" x1="270.4" x2="271.48" stroke="#000" stroke-miterlimit="2" y1="29.135" stroke-width=".262" fill="none"/>
		<line y2="27.218" x1="270.48" x2="271.56" stroke="#000" stroke-miterlimit="2" y1="29.31" stroke-width=".262" fill="none"/>
	<polyline stroke="#000" stroke-width=".262" stroke-miterlimit="2" points="270.48 29.31 270.47 29.34 270.44 29.369 270.42 29.397 270.4 29.426 270.37 29.451 270.35 29.477 270.32 29.501 270.28 29.523 270.25 29.544 270.22 29.562 270.18 29.58 270.15 29.594 270.11 29.607 270.07 29.616 270.03 29.625 270 29.631 269.96 29.635 269.92 29.637" fill="none"/>
		<line y2="29.135" x1="260.89" x2="260.68" stroke="#000" stroke-miterlimit="2" y1="27.043" stroke-width=".262" fill="none"/>
		<line y2="24.73" x1="271.61" x2="272.23" stroke="#000" stroke-miterlimit="2" y1="26.719" stroke-width=".262" fill="none"/>
		<line y2="24.906" x1="271.7" x2="272.31" stroke="#000" stroke-miterlimit="2" y1="26.895" stroke-width=".262" fill="none"/>
	<polyline stroke="#000" stroke-width=".262" stroke-miterlimit="2" points="271.7 26.895 271.68 26.93 271.67 26.967 271.66 27.002 271.64 27.039 271.63 27.074 271.61 27.11 271.6 27.146 271.58 27.182 271.56 27.219" fill="none"/>
	<polyline stroke="#000" stroke-width=".262" stroke-miterlimit="2" points="260.68 29.135 260.68 29.165 260.68 29.194 260.68 29.223 260.69 29.25 260.7 29.277 260.71 29.287" fill="none"/>
	<polyline stroke="#000" stroke-width=".262" stroke-miterlimit="2" points="272.22 24.73 272.23 24.725 272.23 24.72 272.23 24.713 272.23 24.709 272.23 24.704 272.23 24.698 272.23 24.693 272.22 24.689 272.22 24.684 272.22 24.684" fill="none"/>
	<polyline stroke="#000" stroke-width=".262" stroke-miterlimit="2" points="322.69 155.53 322.72 155.55 322.74 155.56 322.77 155.57 322.8 155.58 322.83 155.59 322.87 155.6 322.9 155.6 322.94 155.6" fill="none"/>
	<polyline stroke="#000" stroke-width=".262" stroke-miterlimit="2" points="288.36 78.639 288.36 78.74 288.38 78.844" fill="none"/>
	<polyline stroke="#000" stroke-width=".262" stroke-miterlimit="2" points="288.3 78.751 288.28 78.815 288.27 78.915 288.28 79.016 288.29 79.119 288.32 79.225 288.37 79.333" fill="none"/>
	<polyline stroke="#000" stroke-width=".262" stroke-miterlimit="2" points="288.48 78.559 288.47 78.594 288.46 78.645 288.46 78.697 288.46 78.75 288.46 78.803 288.46 78.857 288.48 78.912 288.49 78.967" fill="none"/>
		<line y2="79.333" x1="288.45" x2="288.37" stroke="#000" stroke-miterlimit="2" y1="79.057" stroke-width=".262" fill="none"/>
	<polyline stroke="#000" stroke-width=".262" stroke-miterlimit="2" points="288.57 78.387 288.56 78.406 288.53 78.45 288.51 78.498 288.49 78.545 288.48 78.559" fill="none"/>
	<polyline stroke="#000" stroke-width=".262" stroke-miterlimit="2" points="291.69 80.051 291.71 80.039 291.76 80.006 291.81 79.969 291.85 79.932 291.89 79.892 291.92 79.85 291.95 79.806 291.98 79.762 292 79.715 292.02 79.666 292.02 79.652" fill="none"/>
	<polyline stroke="#000" stroke-width=".262" stroke-miterlimit="2" points="291.94 79.833 292.01 79.809 292.08 79.78" fill="none"/>
	<polyline stroke="#000" stroke-width=".262" stroke-miterlimit="2" points="291.43 80.463 291.48 80.447 291.61 80.394 291.72 80.33 291.83 80.258 291.91 80.179 291.98 80.09 292.03 79.996 292.06 79.915" fill="none"/>
		<line y2="79.833" x1="291.93" x2="291.94" stroke="#000" stroke-miterlimit="2" y1="79.836" stroke-width=".262" fill="none"/>
	<polyline stroke="#000" stroke-width=".262" stroke-miterlimit="2" points="292.02 79.653 292.03 79.617 292.04 79.566 292.05 79.515 292.05 79.465" fill="none"/>
	<polyline stroke="#000" stroke-width=".262" stroke-miterlimit="2" points="292.06 79.914 292.07 79.895 292.09 79.787 292.09 79.678 292.08 79.566 292.05 79.451" fill="none"/>
	<polyline stroke="#000" stroke-width=".262" stroke-miterlimit="2" points="330.5 155.55 330.5 155.56 330.51 155.56 330.52 155.57 330.52 155.57 330.53 155.57 330.54 155.58" fill="none"/>
	<polyline stroke="#000" stroke-width=".262" stroke-miterlimit="2" points="322.61 155.43 322.61 155.44 322.63 155.47 322.65 155.49 322.67 155.51 322.69 155.53" fill="none"/>
	<polyline stroke="#000" stroke-width=".262" stroke-miterlimit="2" points="260.71 29.288 260.71 29.303 260.73 29.326 260.75 29.349 260.77 29.368 260.79 29.388" fill="none"/>
		<line y2="155.43" x1="322.69" x2="322.61" stroke="#000" stroke-miterlimit="2" y1="155.6" stroke-width=".262" fill="none"/>
		<line y2="29.463" x1="260.71" x2="260.79" stroke="#000" stroke-miterlimit="2" y1="29.288" stroke-width=".262" fill="none"/>
		<line y2="155.42" x1="260.88" x2="322.64" stroke="#000" stroke-miterlimit="2" y1="29.566" stroke-width=".262" fill="none"/>
		<line y2="155.6" x1="323.02" x2="322.94" stroke="#000" stroke-miterlimit="2" y1="155.78" stroke-width=".262" fill="none"/>
		<line y2="29.637" x1="261.04" x2="261.12" stroke="#000" stroke-miterlimit="2" y1="29.461" stroke-width=".262" fill="none"/>
		<line y2="29.627" x1="322.95" x2="261.14" stroke="#000" stroke-miterlimit="2" y1="155.58" stroke-width=".262" fill="none"/>
		<line y2="29.636" x1="324.15" x2="262.35" stroke="#000" stroke-miterlimit="2" y1="155.58" stroke-width=".262" fill="none"/>
		<line y2="29.637" x1="324.23" x2="262.46" stroke="#000" stroke-miterlimit="2" y1="155.52" stroke-width=".262" fill="none"/>
		<line y2="29.636" x1="324.27" x2="262.56" stroke="#000" stroke-miterlimit="2" y1="155.39" stroke-width=".262" fill="none"/>
		<line y2="155.36" x1="262.57" x2="324.27" stroke="#000" stroke-miterlimit="2" y1="29.636" stroke-width=".262" fill="none"/>
	<polyline stroke="#000" stroke-width=".262" stroke-miterlimit="2" points="288.49 78.967 288.51 79.021 288.53 79.076" fill="none"/>
	<polyline stroke="#000" stroke-width=".262" stroke-miterlimit="2" points="288.38 78.844 288.41 78.949 288.45 79.058" fill="none"/>
	<polyline stroke="#000" stroke-width=".262" stroke-miterlimit="2" points="291.92 79.855 291.92 79.87 291.92 79.898 291.93 79.926 291.94 79.953 291.94 79.955" fill="none"/>
	<polyline stroke="#000" stroke-width=".262" stroke-miterlimit="2" points="288.37 79.333 288.44 79.45 288.52 79.566" fill="none"/>
	<polyline stroke="#000" stroke-width=".262" stroke-miterlimit="2" points="292 79.333 291.94 79.225 291.86 79.119 291.78 79.016 291.68 78.914 291.57 78.814 291.45 78.721 291.32 78.631 291.19 78.546 291.04 78.467 290.89 78.395 290.73 78.33 290.57 78.272 290.4 78.223 290.24 78.182 290.07 78.15 289.91 78.127 289.74 78.113 289.58 78.108 289.42 78.113 289.28 78.127 289.13 78.15 289 78.182 288.87 78.223 288.76 78.272 288.65 78.33 288.56 78.395 288.47 78.467 288.41 78.546 288.35 78.631 288.31 78.721 288.3 78.751" fill="none"/>
		<line y2="80.047" x1="291.72" x2="291.7" stroke="#000" stroke-miterlimit="2" y1="80.102" stroke-width=".262" fill="none"/>
		<line y2="29.622" x1="330.5" x2="268.7" stroke="#000" stroke-miterlimit="2" y1="155.55" stroke-width=".262" fill="none"/>
		<line y2="29.636" x1="330.54" x2="268.74" stroke="#000" stroke-miterlimit="2" y1="155.58" stroke-width=".262" fill="none"/>
		<line y2="155.6" x1="331.82" x2="331.74" stroke="#000" stroke-miterlimit="2" y1="155.78" stroke-width=".262" fill="none"/>
		<line y2="29.637" x1="269.84" x2="269.92" stroke="#000" stroke-miterlimit="2" y1="29.461" stroke-width=".262" fill="none"/>
		<line y2="29.608" x1="331.75" x2="269.93" stroke="#000" stroke-miterlimit="2" y1="155.58" stroke-width=".262" fill="none"/>
		<line y2="29.337" x1="332.27" x2="270.47" stroke="#000" stroke-miterlimit="2" y1="155.27" stroke-width=".262" fill="none"/>
		<line y2="155.28" x1="332.38" x2="332.3" stroke="#000" stroke-miterlimit="2" y1="155.45" stroke-width=".262" fill="none"/>
		<line y2="29.311" x1="270.4" x2="270.48" stroke="#000" stroke-miterlimit="2" y1="29.135" stroke-width=".262" fill="none"/>
		<line y2="78.455" x1="288.51" x2="288.52" stroke="#000" stroke-miterlimit="2" y1="78.438" stroke-width=".262" fill="none"/>
	<polyline stroke="#000" stroke-width=".262" stroke-miterlimit="2" points="291.82 80.05 291.81 80.03 291.8 80.008 291.79 79.984 291.79 79.981" fill="none"/>
	<polyline stroke="#000" stroke-width=".262" stroke-miterlimit="2" points="324.27 155.36 324.27 155.36 324.27 155.37 324.27 155.38 324.27 155.39" fill="none"/>
		<line y2="79.334" x1="292.05" x2="292" stroke="#000" stroke-miterlimit="2" y1="79.45" stroke-width=".262" fill="none"/>
	<polyline stroke="#000" stroke-width=".262" stroke-miterlimit="2" points="291.98 79.917 291.98 79.916 291.98 79.896 291.97 79.877 291.96 79.856 291.96 79.834 291.96 79.826" fill="none"/>
	<polyline stroke="#000" stroke-width=".262" stroke-miterlimit="2" points="334.12 150.82 334.12 150.82 334.12 150.82 334.12 150.81 334.11 150.81 334.11 150.81 334.1 150.8 334.1 150.8 334.1 150.8 334.09 150.8 334.08 150.79 334.08 150.79 334.07 150.79 334.07 150.79" fill="none"/>
	<polyline stroke="#000" stroke-width=".262" stroke-miterlimit="2" points="272.22 24.684 272.22 24.68 272.22 24.676 272.21 24.672 272.21 24.668 272.21 24.665 272.2 24.662 272.2 24.658 272.19 24.656 272.19 24.654 272.18 24.652 272.18 24.65 272.17 24.648 272.17 24.648 272.16 24.648 272.15 24.648" fill="none"/>
		<line y2="27.246" x1="333.35" x2="271.55" stroke="#000" stroke-miterlimit="2" y1="153.18" stroke-width=".262" fill="none"/>
		<line y2="153.18" x1="333.46" x2="333.38" stroke="#000" stroke-miterlimit="2" y1="153.36" stroke-width=".262" fill="none"/>
		<line y2="27.218" x1="271.48" x2="271.56" stroke="#000" stroke-miterlimit="2" y1="27.043" stroke-width=".262" fill="none"/>
		<line y2="26.934" x1="333.48" x2="271.68" stroke="#000" stroke-miterlimit="2" y1="152.86" stroke-width=".262" fill="none"/>
		<line y2="152.86" x1="333.6" x2="333.51" stroke="#000" stroke-miterlimit="2" y1="153.04" stroke-width=".262" fill="none"/>
		<line y2="26.895" x1="271.61" x2="271.7" stroke="#000" stroke-miterlimit="2" y1="26.719" stroke-width=".262" fill="none"/>
		<line y2="24.945" x1="334.09" x2="272.3" stroke="#000" stroke-miterlimit="2" y1="150.87" stroke-width=".262" fill="none"/>
		<line y2="24.929" x1="334.09" x2="272.3" stroke="#000" stroke-miterlimit="2" y1="150.84" stroke-width=".262" fill="none"/>
		<line y2="150.87" x1="334.21" x2="334.12" stroke="#000" stroke-miterlimit="2" y1="151.05" stroke-width=".262" fill="none"/>
		<line y2="24.905" x1="272.22" x2="272.31" stroke="#000" stroke-miterlimit="2" y1="24.73" stroke-width=".262" fill="none"/>
	<line y2="150.82" x1="334.21" x2="334.12" stroke="#000" stroke-miterlimit="2" y1="151" stroke-width=".262" fill="none"/>
		<line y2="24.858" x1="272.22" x2="272.31" stroke="#000" stroke-miterlimit="2" y1="24.684" stroke-width=".262" fill="none"/>
	<polyline stroke="#000" stroke-width=".262" stroke-miterlimit="2" points="272.31 24.858 272.31 24.859 272.31 24.863 272.31 24.869 272.31 24.873 272.31 24.879 272.31 24.884 272.31 24.889 272.31 24.895 272.31 24.899 272.31 24.905" fill="none"/>
	<polyline stroke="#000" stroke-width=".262" stroke-miterlimit="2" points="334.21 151 334.21 151 334.21 151.01 334.21 151.01 334.22 151.02 334.22 151.02 334.22 151.03 334.22 151.03 334.22 151.04 334.21 151.04 334.21 151.05" fill="none"/>
		<line y2="79.333" x1="286.96" x2="288.37" stroke="#000" stroke-miterlimit="2" y1="79.333" stroke-width=".262" fill="none"/>
		<line y2="79.333" x1="292" x2="293.1" stroke="#000" stroke-miterlimit="2" y1="79.333" stroke-width=".262" fill="none"/>
	<polyline stroke="#000" stroke-width=".262" stroke-miterlimit="2" points="322.58 155.3 322.58 155.31 322.58 155.34 322.59 155.36 322.59 155.39 322.6 155.42 322.61 155.43" fill="none"/>
	<polyline stroke="#000" stroke-width=".262" stroke-miterlimit="2" points="260.9 29.58 260.87 29.562 260.85 29.544 260.83 29.523 260.81 29.501 260.8 29.477 260.79 29.463" fill="none"/>
	<polyline stroke="#000" stroke-width=".262" stroke-miterlimit="2" points="260.79 29.388 260.81 29.404 260.84 29.419 260.87 29.432 260.9 29.442 260.93 29.451 260.97 29.457 261 29.461" fill="none"/>
		<line y2="155.52" x1="324.27" x2="324.23" stroke="#000" stroke-miterlimit="2" y1="155.39" stroke-width=".262" fill="none"/>
	<polyline stroke="#000" stroke-width=".262" stroke-miterlimit="2" points="334.09 150.87 334.1 150.86 334.1 150.85 334.09 150.84 334.09 150.84" fill="none"/>
	<polyline stroke="#000" stroke-width=".262" stroke-miterlimit="2" points="334.13 150.87 334.13 150.87 334.13 150.86 334.13 150.86 334.13 150.85 334.13 150.85 334.13 150.84 334.13 150.84 334.13 150.83 334.12 150.83 334.12 150.83" fill="none"/>
		<line y2="152.86" x1="334.09" x2="333.48" stroke="#000" stroke-miterlimit="2" y1="150.87" stroke-width=".262" fill="none"/>
		<line y2="152.86" x1="334.13" x2="333.51" stroke="#000" stroke-miterlimit="2" y1="150.87" stroke-width=".262" fill="none"/>
		<line y2="153.04" x1="334.21" x2="333.6" stroke="#000" stroke-miterlimit="2" y1="151.05" stroke-width=".262" fill="none"/>
	<polyline stroke="#000" stroke-width=".262" stroke-miterlimit="2" points="324.23 155.52 324.23 155.53 324.22 155.54 324.22 155.55 324.21 155.56 324.2 155.56" fill="none"/>
		<line y2="152.86" x1="333.5" x2="333.51" stroke="#000" stroke-miterlimit="2" y1="152.9" stroke-width=".262" fill="none"/>
	<polyline stroke="#000" stroke-width=".262" stroke-miterlimit="2" points="333.6 153.04 333.59 153.07 333.57 153.11 333.56 153.14 333.55 153.18 333.53 153.22 333.52 153.25 333.5 153.29 333.48 153.32 333.46 153.36" fill="none"/>
	<polyline stroke="#000" stroke-width=".262" stroke-miterlimit="2" points="333.41 153.11 333.43 153.08 333.44 153.04 333.46 153 333.48 152.97 333.49 152.93 333.5 152.9" fill="none"/>
	<polyline stroke="#000" stroke-width=".262" stroke-miterlimit="2" points="333.35 153.18 333.36 153.14 333.38 153.11 333.4 153.07 333.41 153.04 333.43 153 333.44 152.97 333.46 152.93 333.47 152.9 333.48 152.86" fill="none"/>
	<polyline stroke="#000" stroke-width=".262" stroke-miterlimit="2" points="333.38 153.18 333.4 153.15 333.41 153.11" fill="none"/>
		<line y2="153.18" x1="332.27" x2="333.35" stroke="#000" stroke-miterlimit="2" y1="155.27" stroke-width=".262" fill="none"/>
		<line y2="155.28" x1="333.38" x2="332.3" stroke="#000" stroke-miterlimit="2" y1="153.18" stroke-width=".262" fill="none"/>
		<line y2="155.45" x1="333.46" x2="332.38" stroke="#000" stroke-miterlimit="2" y1="153.36" stroke-width=".262" fill="none"/>
		<line y2="155.28" x1="332.28" x2="332.3" stroke="#000" stroke-miterlimit="2" y1="155.31" stroke-width=".262" fill="none"/>
	<polyline stroke="#000" stroke-width=".262" stroke-miterlimit="2" points="332.38 155.45 332.37 155.48 332.35 155.51 332.33 155.54 332.3 155.57 332.28 155.59 332.25 155.62 332.22 155.64 332.18 155.66 332.15 155.69 332.12 155.7 332.08 155.72 332.05 155.74 332.01 155.75 331.97 155.76 331.94 155.77 331.9 155.77 331.86 155.78 331.82 155.78" fill="none"/>
	<polyline stroke="#000" stroke-width=".262" stroke-miterlimit="2" points="261.12 29.636 261.09 29.635 261.05 29.631 261.02 29.626 260.99 29.617 260.96 29.607 260.93 29.594 260.9 29.579" fill="none"/>
	<polyline stroke="#000" stroke-width=".262" stroke-miterlimit="2" points="332.14 155.43 332.19 155.38 332.23 155.33 332.27 155.27" fill="none"/>
	<polyline stroke="#000" stroke-width=".262" stroke-miterlimit="2" points="324.2 155.56 324.18 155.57 324.17 155.57 324.16 155.57 324.15 155.57" fill="none"/>
	<polyline stroke="#000" stroke-width=".262" stroke-miterlimit="2" points="269.93 29.608 270 29.604 270.07 29.59 270.14 29.569" fill="none"/>
	<polyline stroke="#000" stroke-width=".262" stroke-miterlimit="2" points="269.84 29.461 269.88 29.46 269.91 29.456 269.95 29.451 269.98 29.441 270.02 29.432 270.06 29.419 270.1 29.404 270.13 29.387 270.17 29.369 270.2 29.349 270.23 29.326 270.26 29.302 270.29 29.277 270.31 29.25 270.34 29.223 270.36 29.194 270.38 29.165 270.4 29.135" fill="none"/>
		<defs>
			<rect id="SVGID_1_" y="-3.152" x="237.13" height="183.4" width="121.97"/>
		</defs>
		<clipPath id="SVGID_2_">
			<use overflow="visible" xlink:href="#SVGID_1_"/>
		</clipPath>
		<path d="m269.92 29.636h-1.223l0.136-0.331 1.001 0.006 0.071-0.27h-1.732l0.095-0.279 1.765-0.023s-0.295-0.219-0.398-0.475 0.111-0.647 0.111-0.527c0 0.353 0.368 0.927 0.69 0.448 0.404-0.602-0.416-0.823-0.464-0.776-0.046 0.047 0.033-0.138 0.033-0.138s0.327-0.143 0.531 0.062c0.205 0.206 0.247 0.477 0.247 0.477l0.401-0.915 0.729-1.989-10.157-0.023-0.639 2.013-0.042 1.045s0.282-0.387 0.495-0.403c0.211-0.017 0.218-0.017 0.296 0.061 0.077 0.077-0.042 0.213-0.042 0.213-0.254-0.052-0.828 0.278-0.515 0.698 0.368 0.494 0.816-0.198 0.773-0.42-0.021-0.104 0.275-0.143 0.335 0 0.061 0.145-0.47 0.742-0.47 0.742l1.533-0.002-0.054 0.307h-1.689l-0.043 0.241h0.976l-0.116 0.232h-1.479" clip-path="url(#SVGID_2_)" stroke="#000" stroke-miterlimit="2" stroke-width=".327" fill="none"/>
		<line y2="29.135" x1="261.76" x2="264.62" stroke="#000" stroke-miterlimit="2" y1="24.882" stroke-width=".262" fill="none"/>
		<line y2="24.648" x1="272.15" x2="261.7" stroke="#000" stroke-miterlimit="2" y1="24.648" stroke-width=".262" fill="none"/>
		<line y2="29.461" x1="261" x2="261.04" stroke="#000" stroke-miterlimit="2" y1="29.46" stroke-width=".262" fill="none"/>
	<polyline stroke="#000" stroke-width=".262" stroke-miterlimit="2" points="332.03 155.53 332.07 155.51 332.1 155.49 332.13 155.47 332.16 155.44 332.19 155.42 332.22 155.39 332.24 155.36 332.26 155.34 332.28 155.31" fill="none"/>
		<line y2="155.53" x1="332" x2="332.03" stroke="#000" stroke-miterlimit="2" y1="155.55" stroke-width=".262" fill="none"/>
	<polyline stroke="#000" stroke-width=".262" stroke-miterlimit="2" points="331.95 155.54 332.02 155.51 332.08 155.47 332.14 155.43" fill="none"/>
	<polyline stroke="#000" stroke-width=".262" stroke-miterlimit="2" points="331.92 155.57 331.96 155.56 332 155.55" fill="none"/>
	<polyline stroke="#000" stroke-width=".262" stroke-miterlimit="2" points="261.7 24.648 261.69 24.648 261.68 24.648 261.68 24.649 261.67 24.65 261.66 24.652 261.66 24.654 261.65 24.656 261.64 24.659 261.64 24.661 261.63 24.664 261.63 24.668 261.62 24.672 261.61 24.676 261.61 24.68 261.6 24.685 261.6 24.688 261.6 24.693 261.59 24.698 261.59 24.704 261.58 24.709 261.58 24.713 261.58 24.72 261.58 24.725 261.58 24.73" fill="none"/>
	<polyline stroke="#000" stroke-width=".262" stroke-miterlimit="2" points="288.5 79.177 288.5 79.193 288.48 79.237 288.48 79.283 288.48 79.328 288.48 79.375 288.48 79.422 288.49 79.471 288.5 79.518 288.52 79.566 288.53 79.615 288.56 79.666" fill="none"/>
		<line y2="78.559" x1="288.52" x2="288.48" stroke="#000" stroke-miterlimit="2" y1="78.422" stroke-width=".262" fill="none"/>
		<line y2="79.177" x1="288.67" x2="288.5" stroke="#000" stroke-miterlimit="2" y1="78.617" stroke-width=".262" fill="none"/>
		<line y2="80.153" x1="291.83" x2="291.66" stroke="#000" stroke-miterlimit="2" y1="79.594" stroke-width=".262" fill="none"/>
		<line y2="79.652" x1="292.06" x2="292.02" stroke="#000" stroke-miterlimit="2" y1="79.518" stroke-width=".262" fill="none"/>
	<polyline stroke="#000" stroke-width=".262" stroke-miterlimit="2" points="291.66 80.152 291.65 80.179 291.63 80.221 291.61 80.262 291.59 80.301 291.56 80.338 291.53 80.374 291.5 80.408 291.46 80.441 291.42 80.473 291.38 80.502 291.33 80.529 291.28 80.556 291.23 80.578 291.17 80.6 291.11 80.619 291.06 80.637 290.99 80.65 290.93 80.664 290.86 80.674 290.8 80.682 290.73 80.688 290.66 80.691 290.58 80.692 290.51 80.691 290.44 80.688 290.36 80.682 290.29 80.674 290.21 80.664 290.14 80.65 290.06 80.637 289.98 80.619 289.91 80.6 289.83 80.578 289.76 80.556 289.68 80.529 289.61 80.502 289.54 80.473 289.46 80.441 289.39 80.408 289.32 80.374 289.26 80.338 289.2 80.301 289.13 80.262 289.07 80.221 289.01 80.179 288.96 80.136 288.9 80.092 288.85 80.047 288.81 80.001 288.76 79.955 288.72 79.907 288.68 79.859 288.65 79.811 288.61 79.764 288.58 79.713 288.56 79.664" fill="none"/>
	<polyline stroke="#000" stroke-width=".262" stroke-miterlimit="2" points="291.81 80.055 291.91 79.983 291.99 79.902 292.06 79.814 292.09 79.77" fill="none"/>
	<polyline stroke="#000" stroke-width=".262" stroke-miterlimit="2" points="291.67 80.13 291.69 80.119 291.81 80.055" fill="none"/>
		<line y2="79.153" x1="288.45" x2="288.51" stroke="#000" stroke-miterlimit="2" y1="79.057" stroke-width=".262" fill="none"/>
	<polyline stroke="#000" stroke-width=".262" stroke-miterlimit="2" points="291.18 79.687 291.16 79.648 291.14 79.611 291.11 79.575 291.09 79.539 291.06 79.503 291.02 79.467 290.99 79.432 290.95 79.396 290.91 79.362 290.87 79.33 290.83 79.298 290.78 79.266 290.73 79.235 290.68 79.207 290.64 79.179 290.58 79.152 290.53 79.126 290.48 79.104 290.42 79.08 290.36 79.06 290.31 79.04 290.25 79.021 290.2 79.006 290.14 78.99 290.08 78.979 290.02 78.969 289.96 78.959 289.9 78.951 289.85 78.946 289.79 78.941 289.74 78.939 289.68 78.939 289.63 78.941 289.57 78.946 289.52 78.951 289.47 78.959 289.42 78.969 289.38 78.979 289.33 78.99 289.28 79.006 289.24 79.021 289.2 79.04 289.17 79.06 289.13 79.08 289.1 79.104 289.07 79.126 289.04 79.152 289.01 79.179 288.99 79.207 288.97 79.235 288.95 79.266 288.94 79.298 288.93 79.33 288.92 79.362 288.91 79.396 288.91 79.432 288.91 79.467 288.91 79.503 288.92 79.539 288.93 79.575 288.94 79.611 288.95 79.648 288.97 79.687" fill="none"/>
	<polyline stroke="#000" stroke-width=".262" stroke-miterlimit="2" points="291.78 79.106 291.75 79.057 291.72 79.008 291.69 78.959 291.65 78.912 291.61 78.863 291.57 78.816 291.56 78.809" fill="none"/>
	<polyline stroke="#000" stroke-width=".262" stroke-miterlimit="2" points="291.6 79.664 291.58 79.615 291.55 79.567 291.52 79.518 291.48 79.471 291.44 79.422 291.4 79.375 291.36 79.328 291.31 79.283 291.26 79.237 291.2 79.194 291.15 79.15 291.09 79.109 291.03 79.068 290.96 79.029 290.9 78.992 290.84 78.955 290.77 78.922 290.7 78.888 290.63 78.856 290.55 78.828 290.48 78.801 290.4 78.774 290.33 78.751 290.26 78.73 290.18 78.711 290.1 78.693 290.03 78.679 289.95 78.666 289.87 78.654 289.8 78.647 289.72 78.643 289.65 78.638 289.58 78.637 289.5 78.638 289.43 78.643 289.36 78.647 289.3 78.654 289.23 78.666 289.17 78.679 289.1 78.693 289.05 78.711 288.99 78.73 288.94 78.751 288.88 78.774 288.83 78.801 288.79 78.828 288.74 78.856 288.7 78.888 288.66 78.922 288.63 78.955 288.6 78.992 288.57 79.029 288.55 79.068 288.53 79.109 288.51 79.15 288.5 79.176" fill="none"/>
	<polyline stroke="#000" stroke-width=".262" stroke-miterlimit="2" points="291.6 79.664 291.62 79.713 291.64 79.763 291.66 79.811 291.67 79.859 291.68 79.907 291.68 79.954 291.68 80.001 291.68 80.047 291.68 80.092 291.66 80.135 291.66 80.153" fill="none"/>
	<polyline stroke="#000" stroke-width=".262" stroke-miterlimit="2" points="291.78 79.106 291.8 79.154 291.82 79.204 291.83 79.253 291.84 79.301 291.85 79.349 291.86 79.396 291.86 79.442 291.85 79.488 291.85 79.533 291.84 79.576 291.83 79.594" fill="none"/>
	<polyline stroke="#000" stroke-width=".262" stroke-miterlimit="2" points="291.18 79.687 291.2 79.724 291.21 79.762 291.22 79.799 291.23 79.834 291.24 79.871 291.24 79.906 291.24 79.941 291.24 79.977 291.23 80.01 291.22 80.043 291.21 80.076 291.19 80.107 291.18 80.137 291.16 80.166 291.13 80.194 291.11 80.221 291.08 80.246 291.05 80.27 291.02 80.293 290.98 80.314 290.94 80.332 290.9 80.351 290.86 80.367 290.82 80.382 290.77 80.395 290.73 80.404 290.68 80.414 290.63 80.422 290.58 80.428 290.52 80.431 290.47 80.434 290.41 80.434 290.36 80.431 290.3 80.428 290.24 80.422 290.18 80.414 290.13 80.404 290.07 80.395 290.01 80.382 289.95 80.367 289.9 80.351 289.84 80.332 289.78 80.314 289.72 80.293 289.67 80.27 289.62 80.246 289.56 80.221 289.51 80.194 289.46 80.166 289.41 80.137 289.36 80.107 289.32 80.076 289.28 80.043 289.24 80.01 289.2 79.977 289.16 79.941 289.12 79.906 289.09 79.871 289.06 79.834 289.03 79.799 289.01 79.762 288.99 79.724 288.97 79.687" fill="none"/>
	<polyline stroke="#000" stroke-width=".262" stroke-miterlimit="2" points="289.33 78.122 289.28 78.135 289.22 78.151 289.16 78.17 289.11 78.191 289.06 78.216 289 78.242 288.96 78.269 288.92 78.298 288.88 78.329 288.84 78.361 288.8 78.396 288.77 78.433 288.74 78.47 288.72 78.51 288.7 78.551 288.68 78.592 288.67 78.617" fill="none"/>
		<line y2="151.56" x1="322.41" x2="328.54" stroke="#1F479D" stroke-miterlimit="2" y1="151.56" stroke-width=".262" fill="none"/>
		<line y2="147.46" x1="323.98" x2="324.7" stroke="#1F479D" stroke-miterlimit="2" y1="147.46" stroke-width=".262" fill="none"/>
		<line y2="146.51" x1="320.98" x2="323.52" stroke="#1F479D" stroke-miterlimit="2" y1="146.51" stroke-width=".262" fill="none"/>
		<line y2="146.51" x1="324.24" x2="325.03" stroke="#1F479D" stroke-miterlimit="2" y1="146.51" stroke-width=".262" fill="none"/>
		<line y2="146.23" x1="319.79" x2="320.33" stroke="#1F479D" stroke-miterlimit="2" y1="146.23" stroke-width=".262" fill="none"/>
		<line y2="146.23" x1="325.7" x2="325.93" stroke="#1F479D" stroke-miterlimit="2" y1="146.23" stroke-width=".262" fill="none"/>
		<line y2="146.06" x1="324.81" x2="324.02" stroke="#1F479D" stroke-miterlimit="2" y1="146.06" stroke-width=".262" fill="none"/>
		<line y2="146.06" x1="323.3" x2="321.46" stroke="#1F479D" stroke-miterlimit="2" y1="146.06" stroke-width=".262" fill="none"/>
		<line y2="145.81" x1="325.72" x2="325.49" stroke="#1F479D" stroke-miterlimit="2" y1="145.81" stroke-width=".262" fill="none"/>
		<line y2="145.81" x1="320.12" x2="319.58" stroke="#1F479D" stroke-miterlimit="2" y1="145.81" stroke-width=".262" fill="none"/>
		<line y2="143.5" x1="322.76" x2="322.17" stroke="#1F479D" stroke-miterlimit="2" y1="143.5" stroke-width=".262" fill="none"/>
		<line y2="140.48" x1="323.1" x2="316.97" stroke="#1F479D" stroke-miterlimit="2" y1="140.48" stroke-width=".262" fill="none"/>
		<line y2="125.61" x1="309.67" x2="315.8" stroke="#1F479D" stroke-miterlimit="2" y1="125.61" stroke-width=".262" fill="none"/>
		<line y2="121.96" x1="314.02" x2="307.88" stroke="#1F479D" stroke-miterlimit="2" y1="121.96" stroke-width=".262" fill="none"/>
		<line y2="107.09" x1="300.58" x2="306.72" stroke="#1F479D" stroke-miterlimit="2" y1="107.09" stroke-width=".262" fill="none"/>
		<line y2="102.46" x1="300.33" x2="299.6" stroke="#1F479D" stroke-miterlimit="2" y1="102.42" stroke-width=".262" fill="none"/>
		<line y2="101.76" x1="297.97" x2="298.51" stroke="#1F479D" stroke-miterlimit="2" y1="101.76" stroke-width=".262" fill="none"/>
		<line y2="101.76" x1="303.88" x2="304.1" stroke="#1F479D" stroke-miterlimit="2" y1="101.76" stroke-width=".262" fill="none"/>
		<line y2="101.34" x1="303.9" x2="303.67" stroke="#1F479D" stroke-miterlimit="2" y1="101.34" stroke-width=".262" fill="none"/>
		<line y2="101.34" x1="298.3" x2="297.76" stroke="#1F479D" stroke-miterlimit="2" y1="101.34" stroke-width=".262" fill="none"/>
		<line y2="100.06" x1="299.69" x2="302.03" stroke="#1F479D" stroke-miterlimit="2" y1="100.06" stroke-width=".262" fill="none"/>
		<line y2="99.601" x1="301.8" x2="298.89" stroke="#1F479D" stroke-miterlimit="2" y1="99.601" stroke-width=".262" fill="none"/>
		<line y2="101.69" x1="299.32" x2="300.02" stroke="#1F479D" stroke-miterlimit="2" y1="101.63" stroke-width=".262" fill="none"/>
	<polyline stroke="#1F479D" stroke-width=".262" stroke-miterlimit="2" points="299.6 102.46 299.63 102.51 299.66 102.56 299.7 102.6 299.73 102.65 299.77 102.7 299.81 102.74 299.86 102.78 299.9 102.83 299.95 102.87 300 102.92 300.06 102.96 300.11 103 300.17 103.04 300.23 103.08 300.3 103.12 300.36 103.16 300.43 103.2 300.5 103.23 300.57 103.27 300.64 103.3 300.72 103.33 300.79 103.36 300.87 103.39 300.94 103.41 301.02 103.44 301.1 103.46 301.18 103.48 301.26 103.49 301.33 103.51 301.41 103.52 301.48 103.53 301.56 103.54 301.63 103.55 301.71 103.56 301.79 103.56 301.87 103.56 301.94 103.57 302.02 103.57 302.1 103.57 302.18 103.56 302.25 103.56 302.32 103.56 302.4 103.55 302.47 103.54 302.53 103.53 302.6 103.52 302.66 103.5 302.72 103.48 302.78 103.47 302.84 103.45 302.89 103.43 302.94 103.4 302.99 103.38 303.03 103.35 303.08 103.33 303.12 103.3 303.16 103.27 303.2 103.23 303.23 103.2 303.27 103.16 303.3 103.13 303.32 103.09 303.35 103.05 303.38 103.01 303.39 102.97 303.41 102.93 303.43 102.88 303.44 102.84 303.45 102.8 303.46 102.75 303.46 102.71 303.46 102.66 303.46 102.61 303.46 102.56 303.45 102.52 303.44 102.47 303.43 102.42 303.42 102.37 303.4 102.32 303.38 102.26 303.36 102.21 303.33 102.16 303.31 102.11 303.28 102.05 303.24 102" fill="none"/>
		<line y2="145.81" x1="320.33" x2="320.12" stroke="#1F479D" stroke-miterlimit="2" y1="146.23" stroke-width=".262" fill="none"/>
		<line y2="101.34" x1="298.51" x2="298.3" stroke="#1F479D" stroke-miterlimit="2" y1="101.76" stroke-width=".262" fill="none"/>
		<line y2="56.875" x1="276.69" x2="276.48" stroke="#1F479D" stroke-miterlimit="2" y1="57.297" stroke-width=".262" fill="none"/>
		<line y2="146.51" x1="320.76" x2="320.98" stroke="#1F479D" stroke-miterlimit="2" y1="146.06" stroke-width=".262" fill="none"/>
	<polyline stroke="#1F479D" stroke-width=".262" stroke-miterlimit="2" points="277.84 56.742 277.81 56.676 277.78 56.61 277.76 56.545 277.73 56.479 277.7 56.413 277.68 56.348 277.66 56.283 277.64 56.217 277.63 56.173 277.62 56.129 277.61 56.086 277.6 56.041 277.6 55.998 277.6 55.955 277.6 55.912 277.6 55.871 277.6 55.828 277.6 55.79 277.61 55.754 277.62 55.717 277.63 55.682 277.64 55.646 277.66 55.613 277.67 55.578 277.69 55.545 277.71 55.516 277.73 55.488 277.75 55.461 277.78 55.434 277.8 55.409 277.83 55.385 277.86 55.361 277.9 55.34 277.92 55.322 277.95 55.306 277.99 55.291 278.02 55.277 278.06 55.265 278.09 55.252 278.13 55.242 278.17 55.234 278.21 55.226 278.25 55.221 278.3 55.217 278.34 55.213 278.39 55.211 278.44 55.211 278.48 55.211 278.52 55.213 278.57 55.217 278.62 55.221 278.67 55.226 278.71 55.233 278.76 55.242 278.81 55.251 278.85 55.262 278.9 55.274 278.95 55.289 278.99 55.303 279.04 55.319 279.09 55.337 279.13 55.355 279.17 55.375 279.22 55.396 279.26 55.418 279.3 55.441 279.34 55.465 279.37 55.49 279.41 55.516 279.44 55.544 279.48 55.57 279.51 55.599 279.54 55.628 279.57 55.656 279.6 55.686 279.63 55.715 279.66 55.745 279.68 55.773 279.71 55.803 279.73 55.834" fill="none"/>
		<line y2="96.014" x1="301.28" x2="295.15" stroke="#1F479D" stroke-miterlimit="2" y1="96.014" stroke-width=".262" fill="none"/>
	<polyline stroke="#1F479D" stroke-width=".262" stroke-miterlimit="2" points="303.24 102 303.22 101.96 303.19 101.93 303.17 101.89 303.14 101.85 303.1 101.81 303.07 101.77 303.03 101.73 302.99 101.69 302.95 101.65 302.91 101.61 302.86 101.57 302.82 101.54 302.77 101.5 302.73 101.46 302.68 101.43 302.63 101.4 302.57 101.36 302.52 101.33 302.47 101.3 302.41 101.27 302.35 101.24 302.29 101.21 302.23 101.18 302.16 101.15 302.1 101.12 302.04 101.1 301.97 101.07 301.9 101.05 301.84 101.02 301.77 101.01 301.7 100.99 301.63 100.97 301.56 100.95 301.5 100.94 301.43 100.93 301.36 100.91 301.29 100.9 301.22 100.9 301.15 100.89 301.08 100.88 301.02 100.88 300.95 100.88 300.88 100.88 300.82 100.88 300.76 100.88 300.7 100.89 300.63 100.89 300.57 100.9 300.51 100.91 300.46 100.92 300.4 100.93 300.35 100.94 300.29 100.96 300.23 100.97 300.18 100.99 300.13 101.01 300.08 101.03 300.03 101.05 299.98 101.08 299.94 101.1 299.9 101.13" fill="none"/>
		<line y2="146.06" x1="322.42" x2="323.3" stroke="#1F479D" stroke-miterlimit="2" y1="144.28" stroke-width=".262" fill="none"/>
		<line y2="147.46" x1="323.52" x2="323.98" stroke="#1F479D" stroke-miterlimit="2" y1="146.51" stroke-width=".262" fill="none"/>
		<line y2="146.51" x1="324.7" x2="324.24" stroke="#1F479D" stroke-miterlimit="2" y1="147.46" stroke-width=".262" fill="none"/>
		<line y2="143.5" x1="324.02" x2="322.76" stroke="#1F479D" stroke-miterlimit="2" y1="146.06" stroke-width=".262" fill="none"/>
		<line y2="99.601" x1="302.03" x2="301.8" stroke="#1F479D" stroke-miterlimit="2" y1="100.06" stroke-width=".262" fill="none"/>
		<line y2="146.06" x1="325.03" x2="324.81" stroke="#1F479D" stroke-miterlimit="2" y1="146.51" stroke-width=".262" fill="none"/>
		<line y2="57.298" x1="281.85" x2="282.06" stroke="#1F479D" stroke-miterlimit="2" y1="56.875" stroke-width=".262" fill="none"/>
		<line y2="101.76" x1="303.67" x2="303.88" stroke="#1F479D" stroke-miterlimit="2" y1="101.34" stroke-width=".262" fill="none"/>
		<line y2="146.23" x1="325.49" x2="325.7" stroke="#1F479D" stroke-miterlimit="2" y1="145.81" stroke-width=".262" fill="none"/>
	<polyline stroke="#1F479D" stroke-width=".262" stroke-miterlimit="2" points="278.33 57.5 278.31 57.464 278.3 57.428 278.28 57.391 278.27 57.354 278.26 57.318 278.25 57.29 278.25 57.263 278.24 57.235 278.24 57.208 278.24 57.182 278.24 57.154 278.24 57.124 278.25 57.094 278.26 57.066 278.27 57.037 278.28 57.01 278.29 56.982 278.31 56.956 278.32 56.931 278.34 56.906 278.36 56.882 278.39 56.859 278.41 56.838 278.44 56.818 278.46 56.799 278.49 56.779 278.52 56.763 278.55 56.746 278.58 56.731 278.62 56.717 278.65 56.705 278.69 56.693 278.73 56.683 278.77 56.674 278.81 56.666 278.85 56.66 278.9 56.654 278.94 56.65 278.98 56.648 279.03 56.646 279.08 56.645 279.12 56.646 279.17 56.647 279.22 56.65 279.26 56.654 279.31 56.66 279.36 56.666 279.41 56.674 279.46 56.683 279.5 56.693 279.56 56.705 279.6 56.717 279.65 56.731 279.7 56.746 279.74 56.763 279.79 56.779 279.83 56.799 279.88 56.818 279.92 56.838 279.96 56.859 280.01 56.882 280.05 56.906 280.09 56.932 280.14 56.958 280.17 56.985 280.21 57.013 280.25 57.041 280.29 57.07 280.32 57.101 280.36 57.13 280.39 57.16 280.41 57.189 280.44 57.217 280.46 57.246 280.49 57.275 280.51 57.304 280.53 57.334 280.56 57.371 280.58 57.41 280.6 57.449 280.63 57.488 280.65 57.527 280.67 57.568" fill="none"/>
	<polyline stroke="#1F479D" stroke-width=".262" stroke-miterlimit="2" points="280.67 57.568 280.68 57.609 280.7 57.649 280.71 57.689 280.73 57.729 280.74 57.766 280.74 57.801 280.75 57.838 280.75 57.873 280.75 57.909 280.75 57.938 280.75 57.967 280.75 57.994 280.74 58.023 280.73 58.051 280.72 58.077 280.71 58.104 280.7 58.129 280.69 58.154 280.67 58.178 280.65 58.201 280.63 58.223 280.61 58.244 280.59 58.265 280.56 58.283 280.54 58.302 280.51 58.319 280.48 58.336 280.45 58.352 280.42 58.367 280.38 58.379 280.35 58.393 280.31 58.403 280.28 58.413 280.24 58.422 280.2 58.43 280.16 58.438 280.12 58.441 280.08 58.446 280.03 58.449 279.99 58.449 279.95 58.449 279.9 58.448 279.86 58.445 279.82 58.441 279.77 58.438 279.73 58.43 279.69 58.424 279.64 58.415 279.6 58.405 279.55 58.395 279.51 58.384 279.46 58.371 279.42 58.359 279.38 58.345 279.33 58.33 279.28 58.312 279.24 58.293 279.19 58.272 279.14 58.252 279.1 58.229 279.06 58.207 279.01 58.183 278.97 58.16 278.93 58.135 278.9 58.111 278.86 58.085 278.82 58.06 278.79 58.034 278.75 58.008 278.72 57.979 278.68 57.948 278.65 57.916 278.61 57.883 278.58 57.85 278.55 57.816 278.52 57.783 278.49 57.748 278.46 57.713 278.44 57.679 278.41 57.643 278.39 57.607 278.37 57.572 278.35 57.536 278.33 57.5" fill="none"/>
		<line y2="101.63" x1="298.89" x2="299.32" stroke="#1F479D" stroke-miterlimit="2" y1="99.601" stroke-width=".262" fill="none"/>
		<line y2="100.06" x1="299.9" x2="299.69" stroke="#1F479D" stroke-miterlimit="2" y1="101.13" stroke-width=".262" fill="none"/>
	<polyline stroke="#1F479D" stroke-width=".262" stroke-miterlimit="2" points="300.02 101.69 300.04 101.66 300.05 101.64 300.07 101.61 300.09 101.58 300.11 101.56 300.14 101.54 300.16 101.51 300.19 101.49 300.22 101.47 300.26 101.45 300.29 101.43 300.33 101.41 300.36 101.4 300.41 101.38 300.45 101.37 300.49 101.36 300.54 101.34 300.58 101.34 300.63 101.33 300.67 101.32 300.72 101.32 300.76 101.31 300.81 101.31 300.85 101.31 300.9 101.31 300.95 101.31 301.01 101.31 301.06 101.31 301.11 101.32 301.16 101.32 301.22 101.33 301.27 101.34 301.33 101.35 301.38 101.36 301.44 101.37 301.49 101.38 301.54 101.4 301.59 101.41 301.64 101.43 301.69 101.44 301.74 101.46 301.78 101.48 301.83 101.5 301.88 101.52 301.92 101.55 301.97 101.57 302.01 101.6 302.06 101.62 302.1 101.65 302.14 101.68 302.18 101.71 302.22 101.74 302.25 101.77 302.29 101.8 302.32 101.83 302.36 101.87 302.39 101.9 302.42 101.94 302.45 101.97 302.47 102.01 302.5 102.05 302.53 102.08 302.55 102.12 302.57 102.16 302.59 102.2 302.61 102.24 302.63 102.29 302.64 102.33 302.66 102.37 302.67 102.41 302.68 102.45 302.69 102.49 302.69 102.52 302.69 102.56 302.69 102.6 302.69 102.63 302.69 102.66 302.68 102.69 302.67 102.72 302.66 102.75 302.65 102.78 302.64 102.81" fill="none"/>
	<polyline stroke="#1F479D" stroke-width=".262" stroke-miterlimit="2" points="302.64 102.81 302.63 102.84 302.61 102.86 302.59 102.88 302.58 102.9 302.56 102.93 302.54 102.94 302.52 102.96 302.49 102.98 302.47 103 302.45 103.02 302.42 103.03 302.39 103.05 302.36 103.06 302.34 103.08 302.3 103.09 302.27 103.1 302.24 103.11 302.2 103.12 302.16 103.13 302.12 103.14 302.08 103.15 302.04 103.16 302 103.16 301.96 103.16 301.91 103.17 301.87 103.17 301.82 103.17 301.79 103.17 301.74 103.17 301.7 103.16 301.66 103.16 301.62 103.16 301.57 103.15 301.53 103.15 301.49 103.14 301.45 103.13 301.4 103.12 301.36 103.11 301.32 103.1 301.28 103.09 301.23 103.08 301.2 103.06 301.15 103.05 301.11 103.03 301.08 103.02 301.04 103 301 102.98 300.96 102.96 300.92 102.94 300.88 102.92 300.84 102.9 300.81 102.87 300.77 102.85 300.74 102.83 300.7 102.8 300.67 102.78 300.64 102.75 300.61 102.72 300.58 102.7 300.55 102.67 300.52 102.64 300.49 102.62 300.47 102.59 300.44 102.56 300.42 102.53 300.4 102.5 300.37 102.48 300.35 102.45 300.33 102.42" fill="none"/>
	<polyline stroke="#1F479D" stroke-width=".262" stroke-miterlimit="2" points="281.2 57.228 281.17 57.187 281.14 57.145 281.1 57.104 281.07 57.064 281.03 57.023 280.99 56.984 280.95 56.945 280.91 56.908 280.86 56.871 280.82 56.836 280.77 56.801 280.72 56.766 280.68 56.731 280.62 56.699 280.57 56.666 280.52 56.635 280.46 56.604 280.41 56.574 280.35 56.545 280.3 56.518 280.24 56.491 280.18 56.465 280.13 56.44 280.07 56.418 280.01 56.396 279.95 56.375 279.89 56.357 279.84 56.338 279.78 56.322 279.72 56.306 279.65 56.29 279.59 56.276 279.52 56.264 279.46 56.252 279.39 56.242 279.33 56.234 279.26 56.228 279.2 56.223 279.13 56.219 279.07 56.217 279.01 56.217 278.94 56.217 278.88 56.22 278.82 56.223 278.76 56.229 278.7 56.236 278.65 56.244 278.59 56.254 278.54 56.266 278.48 56.278 278.43 56.293 278.38 56.31 278.33 56.328 278.28 56.346 278.24 56.366 278.2 56.389 278.16 56.412 278.12 56.436 278.08 56.463 278.05 56.49 278.02 56.518 277.98 56.547 277.96 56.577 277.93 56.609 277.9 56.641 277.88 56.674 277.86 56.708 277.84 56.742" fill="none"/>
	<polyline stroke="#1F479D" stroke-width=".262" stroke-miterlimit="2" points="277.6 57.57 277.65 57.631 277.7 57.691 277.74 57.752 277.8 57.812 277.84 57.861 277.88 57.909 277.93 57.958 277.98 58.006 278.03 58.053 278.09 58.1 278.14 58.146 278.2 58.191 278.26 58.236 278.32 58.279 278.38 58.321 278.44 58.363 278.51 58.403 278.58 58.44 278.65 58.478 278.72 58.514 278.79 58.548 278.86 58.58 278.94 58.61 279.02 58.641 279.09 58.666 279.17 58.692 279.25 58.717 279.33 58.737 279.4 58.756 279.47 58.772 279.54 58.786 279.61 58.801 279.68 58.811 279.75 58.82 279.83 58.83 279.9 58.837 279.98 58.842 280.05 58.847 280.12 58.848 280.2 58.85 280.27 58.848 280.34 58.846 280.41 58.841 280.48 58.836 280.54 58.827 280.61 58.818 280.68 58.807 280.74 58.794 280.79 58.779 280.85 58.764 280.9 58.744 280.96 58.725 281.01 58.703 281.06 58.68 281.1 58.653 281.15 58.627 281.19 58.597 281.23 58.566 281.26 58.534 281.3 58.5 281.33 58.465 281.35 58.43 281.38 58.391 281.4 58.354 281.42 58.313 281.44 58.273 281.46 58.232 281.47 58.189 281.48 58.145 281.49 58.098 281.49 58.051 281.5 58.002 281.49 57.955 281.49 57.906 281.48 57.857 281.47 57.799 281.46 57.738 281.44 57.68 281.42 57.618 281.4 57.559 281.37 57.497 281.34 57.443 281.31 57.389 281.28 57.336 281.24 57.28 281.2 57.228" fill="none"/>
	<polyline stroke="#1F479D" stroke-width=".262" stroke-miterlimit="2" points="280.43 55.796 280.4 55.746 280.35 55.695 280.31 55.645 280.27 55.596 280.22 55.546 280.17 55.497 280.12 55.449 280.06 55.402 280.01 55.355 279.95 55.311 279.88 55.267 279.82 55.225 279.76 55.184 279.69 55.145 279.62 55.107 279.54 55.072 279.47 55.041 279.4 55.011 279.33 54.983 279.25 54.958 279.18 54.934 279.1 54.912 279.02 54.894 278.94 54.875 278.86 54.86 278.78 54.848 278.7 54.836 278.62 54.828 278.54 54.82 278.45 54.814 278.37 54.812 278.28 54.812 278.19 54.812 278.11 54.815 278.02 54.82 277.94 54.829 277.86 54.84 277.78 54.852 277.71 54.866 277.64 54.884 277.57 54.902 277.51 54.925 277.44 54.949 277.39 54.975 277.33 55.004 277.28 55.036 277.23 55.069 277.18 55.105 277.14 55.143 277.1 55.182 277.06 55.221 277.03 55.265 277 55.311 276.97 55.359 276.95 55.408 276.93 55.459 276.92 55.512 276.9 55.562 276.89 55.625 276.89 55.686 276.88 55.75 276.88 55.812 276.89 55.877 276.89 55.941 276.9 56.017 276.92 56.092 276.93 56.168 276.95 56.244 276.98 56.32 277 56.396 277.03 56.483 277.06 56.568 277.1 56.654 277.13 56.747 277.18 56.839 277.22 56.932 277.26 57.014 277.31 57.096 277.35 57.18 277.4 57.254 277.44 57.331 277.49 57.408 277.54 57.489 277.6 57.57" fill="none"/>
		<line y2="81.142" x1="287.85" x2="293.98" stroke="#1F479D" stroke-miterlimit="2" y1="81.142" stroke-width=".262" fill="none"/>
		<line y2="77.498" x1="286.06" x2="292.2" stroke="#1F479D" stroke-miterlimit="2" y1="77.498" stroke-width=".262" fill="none"/>
		<line y2="62.626" x1="278.76" x2="284.9" stroke="#1F479D" stroke-miterlimit="2" y1="62.626" stroke-width=".262" fill="none"/>
		<line y2="55.795" x1="279.73" x2="280.43" stroke="#1F479D" stroke-miterlimit="2" y1="55.834" stroke-width=".262" fill="none"/>
		<line y2="57.297" x1="276.15" x2="276.69" stroke="#1F479D" stroke-miterlimit="2" y1="57.297" stroke-width=".262" fill="none"/>
		<line y2="57.297" x1="282.06" x2="282.28" stroke="#1F479D" stroke-miterlimit="2" y1="57.297" stroke-width=".262" fill="none"/>
		<line y2="56.875" x1="282.07" x2="281.85" stroke="#1F479D" stroke-miterlimit="2" y1="56.875" stroke-width=".262" fill="none"/>
		<line y2="56.875" x1="276.48" x2="275.94" stroke="#1F479D" stroke-miterlimit="2" y1="56.875" stroke-width=".262" fill="none"/>
		<line y2="51.546" x1="279.46" x2="273.32" stroke="#1F479D" stroke-miterlimit="2" y1="51.546" stroke-width=".262" fill="none"/>
		<line y2="144.28" x1="321.47" x2="322.42" stroke="#1F479D" stroke-miterlimit="2" y1="146.06" stroke-width=".262" fill="none"/>
		<line y2="146.06" x1="322.17" x2="320.76" stroke="#1F479D" stroke-miterlimit="2" y1="143.5" stroke-width=".262" fill="none"/>
		<line y2="36.675" x1="272.16" x2="266.03" stroke="#1F479D" stroke-miterlimit="2" y1="36.675" stroke-width=".262" fill="none"/>
	<line y2="33.03" x1="264.24" x2="270.37" stroke="#1F479D" stroke-miterlimit="2" y1="33.03" stroke-width=".262" fill="none"/>
		<line y2="29.04" x1="263.43" x2="269.91" stroke="#000" stroke-miterlimit="2" y1="29.135" stroke-width=".327" fill="none"/>
		<line y2="29.328" x1="262.56" x2="269.04" stroke="#000" stroke-miterlimit="2" y1="29.424" stroke-width=".327" fill="none"/>
	<polygon points="268.7 14.941 262.35 14.883 267.18 25.9 258.11 25.9 253.35 15.371 248.18 15.577 253.77 5.778" fill="#fff" clip-rule="evenodd" fill-rule="evenodd"/>
	<polygon stroke="#231F20" stroke-width=".613" stroke-miterlimit="10" points="268.7 14.941 262.35 14.883 267.18 25.9 258.11 25.9 253.35 15.371 248.18 15.577 253.77 5.778" fill="none"/>
	<polygon points="322.28 167.7 328.01 167.79 322.75 158.59 330.95 158.59 335.89 167.42 341.56 167.5 334.92 171.22" fill="#fff" clip-rule="evenodd" fill-rule="evenodd"/>
	<polygon stroke="#231F20" stroke-width=".577" stroke-miterlimit="10" points="322.28 167.7 328.01 167.79 322.75 158.59 330.95 158.59 335.89 167.42 341.56 167.5 334.92 171.22" fill="none"/>
</svg>
