<?xml version="1.0" encoding="UTF-8" standalone="no"?>
<!-- Generator: Adobe Illustrator 16.0.0, SVG Export Plug-In . SVG Version: 6.00 Build 0)  -->
<!DOCTYPE svg  PUBLIC '-//W3C//DTD SVG 1.1//EN'  'http://www.w3.org/Graphics/SVG/1.1/DTD/svg11.dtd'>
<svg id="Layer_1" xmlns="http://www.w3.org/2000/svg" xml:space="preserve" height="239.89px" viewBox="0 0 595.276 239.89" width="595.28px" version="1.1" y="0px" x="0px" xmlns:xlink="http://www.w3.org/1999/xlink" enable-background="new 0 0 595.276 239.89">
	<text font-size="12" font-family="&apos;DFKaiShu-SB-Estd-BF&apos;" transform="translate(-563.4 -78.894)"> </text>
	<text font-size="12" font-family="&apos;DFKaiShu-SB-Estd-BF&apos;" transform="translate(-563.4 714.81)"> </text>
	<path stroke="#939598" stroke-width=".283" d="m-563.78-23.775" fill="none"/>
<line stroke-linejoin="round" x1="118.13" y2="43.062" x2="182.38" stroke="#000" stroke-linecap="round" stroke-miterlimit="10" y1="122.85" stroke-width=".506" fill="none"/>
<line stroke-linejoin="round" x1="118.13" y2="185.85" x2="185" stroke="#000" stroke-linecap="round" stroke-miterlimit="10" y1="124.53" stroke-width=".506" fill="none"/>
	<defs>
		<rect id="SVGID_1_" y="36.968" x="82.52" height="168.34" width="433.74"/>
	</defs>
	<clipPath id="SVGID_2_">
		<use overflow="visible" xlink:href="#SVGID_1_"/>
	</clipPath>
		<path stroke-linejoin="round" d="m185.76 52.195c36.105 33.626 29.806 101.56 0.306 124.44" clip-path="url(#SVGID_2_)" stroke="#000" stroke-linecap="round" stroke-width=".506" fill="none"/>
<polygon points="185.58 53.925 182.42 49.205 187.52 51.715"/>
<polygon points="186.04 174.86 182.42 179.23 187.74 177.26"/>
	<defs>
		<rect id="SVGID_3_" y="36.968" x="82.52" height="168.34" width="433.74"/>
	</defs>
	<clipPath id="SVGID_4_">
		<use overflow="visible" xlink:href="#SVGID_3_"/>
	</clipPath>
		<path stroke-linejoin="round" d="m253.57 171.92c0-68.343 53.708-123.75 119.96-123.75 66.255 0 119.96 55.404 119.96 123.75h-239.92z" clip-path="url(#SVGID_4_)" stroke="#000" stroke-linecap="round" stroke-miterlimit="10" stroke-width=".535" fill="none"/>
<line y2="185.61" x1="360.38" x2="360.38" stroke="#000100" stroke-miterlimit="2" y1="179.83" stroke-width=".714" fill="none"/>
<line y2="175.89" x1="362.33" x2="362.33" stroke="#000100" stroke-miterlimit="2" y1="175.36" stroke-width=".714" fill="none"/>
<line y2="175.25" x1="362.86" x2="362.86" stroke="#000100" stroke-miterlimit="2" y1="174.82" stroke-width=".714" fill="none"/>
<line y2="176.43" x1="362.86" x2="362.86" stroke="#000100" stroke-miterlimit="2" y1="176" stroke-width=".714" fill="none"/>
<line y2="176" x1="363.39" x2="363.39" stroke="#000100" stroke-miterlimit="2" y1="176.43" stroke-width=".714" fill="none"/>
<line y2="174.82" x1="363.39" x2="363.39" stroke="#000100" stroke-miterlimit="2" y1="175.25" stroke-width=".714" fill="none"/>
<line y2="175.36" x1="363.93" x2="363.93" stroke="#000100" stroke-miterlimit="2" y1="175.89" stroke-width=".714" fill="none"/>
<line y2="178.89" x1="361.53" x2="360.46" stroke="#000100" stroke-miterlimit="2" y1="172.81" stroke-width=".714" fill="none"/>
<line y2="185.85" x1="360.62" x2="386.45" stroke="#000100" stroke-miterlimit="2" y1="185.85" stroke-width=".714" fill="none"/>
<line y2="176.43" x1="362.86" x2="363.39" stroke="#000100" stroke-miterlimit="2" y1="176.43" stroke-width=".714" fill="none"/>
<line y2="176.43" x1="383.68" x2="384.21" stroke="#000100" stroke-miterlimit="2" y1="176.43" stroke-width=".714" fill="none"/>
<line y2="175.89" x1="362.33" x2="362.75" stroke="#000100" stroke-miterlimit="2" y1="175.89" stroke-width=".714" fill="none"/>
<line y2="175.89" x1="363.5" x2="363.93" stroke="#000100" stroke-miterlimit="2" y1="175.89" stroke-width=".714" fill="none"/>
<line y2="175.89" x1="383.14" x2="383.57" stroke="#000100" stroke-miterlimit="2" y1="175.89" stroke-width=".714" fill="none"/>
<line y2="175.89" x1="384.32" x2="384.74" stroke="#000100" stroke-miterlimit="2" y1="175.89" stroke-width=".714" fill="none"/>
<line y2="175.36" x1="384.74" x2="384.32" stroke="#000100" stroke-miterlimit="2" y1="175.36" stroke-width=".714" fill="none"/>
<line y2="175.36" x1="383.57" x2="383.14" stroke="#000100" stroke-miterlimit="2" y1="175.36" stroke-width=".714" fill="none"/>
<line y2="175.36" x1="363.93" x2="363.5" stroke="#000100" stroke-miterlimit="2" y1="175.36" stroke-width=".714" fill="none"/>
<line y2="175.36" x1="362.75" x2="362.32" stroke="#000100" stroke-miterlimit="2" y1="175.36" stroke-width=".714" fill="none"/>
<line y2="174.82" x1="384.21" x2="383.68" stroke="#000100" stroke-miterlimit="2" y1="174.82" stroke-width=".714" fill="none"/>
<line y2="174.82" x1="363.39" x2="362.86" stroke="#000100" stroke-miterlimit="2" y1="174.82" stroke-width=".714" fill="none"/>
<line y2="171.86" x1="384.41" x2="362.66" stroke="#000100" stroke-miterlimit="2" y1="171.86" stroke-width=".714" fill="none"/>
<line y2="175.89" x1="383.14" x2="383.14" stroke="#000100" stroke-miterlimit="2" y1="175.36" stroke-width=".714" fill="none"/>
<line y2="175.25" x1="383.68" x2="383.68" stroke="#000100" stroke-miterlimit="2" y1="174.82" stroke-width=".714" fill="none"/>
<line y2="176.43" x1="383.68" x2="383.68" stroke="#000100" stroke-miterlimit="2" y1="176" stroke-width=".714" fill="none"/>
<line y2="176" x1="384.21" x2="384.21" stroke="#000100" stroke-miterlimit="2" y1="176.43" stroke-width=".714" fill="none"/>
<line y2="174.82" x1="384.21" x2="384.21" stroke="#000100" stroke-miterlimit="2" y1="175.25" stroke-width=".714" fill="none"/>
<line y2="175.36" x1="384.74" x2="384.74" stroke="#000100" stroke-miterlimit="2" y1="175.89" stroke-width=".714" fill="none"/>
<line y2="179.83" x1="386.69" x2="386.69" stroke="#000100" stroke-miterlimit="2" y1="185.61" stroke-width=".714" fill="none"/>
<line y2="172.81" x1="386.61" x2="385.54" stroke="#000100" stroke-miterlimit="2" y1="178.89" stroke-width=".714" fill="none"/>
	<defs>
		<rect id="SVGID_5_" y="36.968" x="82.52" height="168.34" width="433.74"/>
	</defs>
	<clipPath id="SVGID_6_">
		<use overflow="visible" xlink:href="#SVGID_5_"/>
	</clipPath>
	<path d="m386.69 179.83c0-0.316-0.027-0.63-0.083-0.941" clip-path="url(#SVGID_6_)" stroke="#000100" stroke-miterlimit="2" stroke-width=".714" fill="none"/>
	<path d="m360.46 178.89c-0.054 0.31-0.082 0.625-0.082 0.941" clip-path="url(#SVGID_6_)" stroke="#000100" stroke-miterlimit="2" stroke-width=".714" fill="none"/>
	<path d="m385.51 175.62c0-0.863-0.7-1.564-1.563-1.564s-1.562 0.701-1.562 1.564c0 0.863 0.699 1.563 1.562 1.563s1.56-0.69 1.56-1.56" clip-path="url(#SVGID_6_)" stroke="#000100" stroke-miterlimit="2" stroke-width=".714" fill="none"/>
	<path d="m364.69 175.62c0-0.863-0.699-1.564-1.563-1.564-0.863 0-1.563 0.701-1.563 1.564s0.7 1.563 1.563 1.563c0.86 0.01 1.56-0.69 1.56-1.56" clip-path="url(#SVGID_6_)" stroke="#000100" stroke-miterlimit="2" stroke-width=".714" fill="none"/>
	<path d="m385.48 175.62c0-0.85-0.688-1.536-1.536-1.536-0.851 0-1.538 0.686-1.538 1.536s0.688 1.536 1.538 1.536 1.54-0.68 1.54-1.54" clip-path="url(#SVGID_6_)" stroke="#000100" stroke-miterlimit="2" stroke-width=".714" fill="none"/>
	<path d="m364.66 175.62c0-0.85-0.688-1.536-1.535-1.536-0.851 0-1.539 0.686-1.539 1.536s0.688 1.536 1.539 1.536c0.86 0 1.54-0.68 1.54-1.54" clip-path="url(#SVGID_6_)" stroke="#000100" stroke-miterlimit="2" stroke-width=".714" fill="none"/>
	<path d="m362.66 171.86c-0.559 0-1.034 0.401-1.131 0.949" clip-path="url(#SVGID_6_)" stroke="#000100" stroke-miterlimit="2" stroke-width=".714" fill="none"/>
	<path d="m385.54 172.81c-0.097-0.549-0.573-0.948-1.129-0.948" clip-path="url(#SVGID_6_)" stroke="#000100" stroke-miterlimit="2" stroke-width=".714" fill="none"/>
	<path d="m386.45 185.85c0.134 0 0.241-0.106 0.241-0.24" clip-path="url(#SVGID_6_)" stroke="#000100" stroke-miterlimit="2" stroke-width=".714" fill="none"/>
	<path d="m360.38 185.61c0 0.133 0.107 0.24 0.24 0.24" clip-path="url(#SVGID_6_)" stroke="#000100" stroke-miterlimit="2" stroke-width=".714" fill="none"/>
	<path d="m383.68 176c0-0.059-0.047-0.106-0.106-0.106" clip-path="url(#SVGID_6_)" stroke="#000100" stroke-miterlimit="2" stroke-width=".714" fill="none"/>
	<path d="m384.32 175.89c-0.059 0-0.105 0.049-0.105 0.106" clip-path="url(#SVGID_6_)" stroke="#000100" stroke-miterlimit="2" stroke-width=".714" fill="none"/>
	<path d="m384.21 175.25c0 0.059 0.048 0.106 0.105 0.106" clip-path="url(#SVGID_6_)" stroke="#000100" stroke-miterlimit="2" stroke-width=".714" fill="none"/>
	<path d="m383.57 175.36c0.06 0 0.105-0.048 0.105-0.106" clip-path="url(#SVGID_6_)" stroke="#000100" stroke-miterlimit="2" stroke-width=".714" fill="none"/>
	<path d="m362.86 176c0-0.059-0.047-0.106-0.105-0.106" clip-path="url(#SVGID_6_)" stroke="#000100" stroke-miterlimit="2" stroke-width=".714" fill="none"/>
	<path d="m363.5 175.89c-0.06 0-0.105 0.049-0.105 0.106" clip-path="url(#SVGID_6_)" stroke="#000100" stroke-miterlimit="2" stroke-width=".714" fill="none"/>
	<path d="m363.39 175.25c0 0.059 0.048 0.106 0.106 0.106" clip-path="url(#SVGID_6_)" stroke="#000100" stroke-miterlimit="2" stroke-width=".714" fill="none"/>
	<path d="m362.75 175.36c0.06 0 0.105-0.048 0.105-0.106" clip-path="url(#SVGID_6_)" stroke="#000100" stroke-miterlimit="2" stroke-width=".714" fill="none"/>
<line y2="171.82" x1="370.16" x2="370.8" stroke="#000100" stroke-miterlimit="2" y1="171.86" stroke-width=".714" fill="none"/>
<line y2="171.82" x1="376.27" x2="370.8" stroke="#000100" stroke-miterlimit="2" y1="171.82" stroke-width=".714" fill="none"/>
<line y2="171.82" x1="376.91" x2="376.27" stroke="#000100" stroke-miterlimit="2" y1="171.86" stroke-width=".714" fill="none"/>
	<defs>
		<rect id="SVGID_7_" y="36.968" x="82.52" height="168.34" width="433.74"/>
	</defs>
	<clipPath id="SVGID_8_">
		<use overflow="visible" xlink:href="#SVGID_7_"/>
	</clipPath>
	<path d="m376.27 171.82c-1.688-0.99-3.78-0.99-5.466 0" clip-path="url(#SVGID_8_)" stroke="#000100" stroke-miterlimit="2" stroke-width=".714" fill="none"/>
		<line y2="-15.247" x1="105.03" clip-path="url(#SVGID_8_)" x2="105.03" stroke="#000100" stroke-miterlimit="2" y1="334.45" stroke-width=".535" fill="none"/>
		<line y2="-15.733" x1="105.15" clip-path="url(#SVGID_8_)" x2="105.15" stroke="#000100" stroke-miterlimit="2" y1="334.94" stroke-width=".535" fill="none"/>
		<line y2="-15.733" x1="109.53" clip-path="url(#SVGID_8_)" x2="109.53" stroke="#000100" stroke-miterlimit="2" y1="334.94" stroke-width=".535" fill="none"/>
		<line y2="-15.247" x1="110.24" clip-path="url(#SVGID_8_)" x2="110.24" stroke="#000100" stroke-miterlimit="2" y1="334.45" stroke-width=".535" fill="none"/>
		<line y2="-15.247" x1="114.84" clip-path="url(#SVGID_8_)" x2="114.84" stroke="#000100" stroke-miterlimit="2" y1="334.45" stroke-width=".535" fill="none"/>
		<line y2="334.45" x1="115.51" clip-path="url(#SVGID_8_)" x2="115.51" stroke="#000100" stroke-miterlimit="2" y1="-15.248" stroke-width=".535" fill="none"/>
<line y2="121.59" x1="115.55" x2="115.6" stroke="#000100" stroke-miterlimit="2" y1="120.81" stroke-width=".535" fill="none"/>
<line y2="120.81" x1="115.55" x2="115.55" stroke="#000100" stroke-miterlimit="2" y1="126.52" stroke-width=".535" fill="none"/>
<line y2="121.59" x1="115.6" x2="115.6" stroke="#000100" stroke-miterlimit="2" y1="125.73" stroke-width=".535" fill="none"/>
<line y2="125.73" x1="115.55" x2="115.6" stroke="#000100" stroke-miterlimit="2" y1="126.52" stroke-width=".535" fill="none"/>
	<defs>
		<rect id="SVGID_9_" y="36.968" x="82.52" height="168.34" width="433.74"/>
	</defs>
	<clipPath id="SVGID_10_">
		<use overflow="visible" xlink:href="#SVGID_9_"/>
	</clipPath>
	<path d="m115.6 121.59c0.751 1.279 0.751 2.865 0 4.144" clip-path="url(#SVGID_10_)" stroke="#000100" stroke-miterlimit="2" stroke-width=".535" fill="none"/>
<text font-size="12" font-family="&apos;ArialMT&apos;" transform="translate(163.29 116.24)"><tspan y="0" x="0">V</tspan><tspan y="0" x="7.356">ertical:</tspan></text>
<text font-size="12" font-family="&apos;ArialMT&apos;" transform="translate(163.29 130.64)">100ยบ</text>
<text font-size="12" font-family="&apos;ArialMT&apos;" transform="translate(342.9 121.1)">Horizontal:</text>
<text font-size="12" font-family="&apos;ArialMT&apos;" transform="translate(359.37 135.5)">180ยบ</text>
<text font-size="12" font-family="&apos;ArialMT&apos;" transform="translate(417.01 189.08)"><tspan y="0" x="0" letter-spacing="-1">T</tspan><tspan y="0" x="6.01">op </tspan><tspan y="0" x="22.691">V</tspan><tspan y="0" x="30.491">iew</tspan></text>
<text font-size="12" font-family="&apos;ArialMT&apos;" transform="translate(144.18 203.12)"><tspan y="0" x="0">Side </tspan><tspan y="0" x="27.352">V</tspan><tspan y="0" x="35.151">iew</tspan></text>
</svg>
