<?xml version="1.0" encoding="utf-8"?>
<!-- Generator: Adobe Illustrator 16.0.0, SVG Export Plug-In . SVG Version: 6.00 Build 0)  -->
<!DOCTYPE svg PUBLIC "-//W3C//DTD SVG 1.1//EN" "http://www.w3.org/Graphics/SVG/1.1/DTD/svg11.dtd">
<svg version="1.1" id="Layer_1" xmlns="http://www.w3.org/2000/svg" xmlns:xlink="http://www.w3.org/1999/xlink" x="0px" y="0px"
	 width="168px" height="123px" viewBox="0 0 168 123" enable-background="new 0 0 168 123" xml:space="preserve">
<g>
	<polygon fill="#67686B" points="100.5,119.3 102.1,119.3 102.9,118.4 102.9,115.4 102.4,114.9 102.3,113.5 100,113.5 100,114.9 
		99.4,115.7 99.4,118.5 	"/>
	<polygon fill="none" stroke="#000000" stroke-width="0.228" stroke-linejoin="round" stroke-miterlimit="10" points="100.5,119.3 
		102.1,119.3 102.9,118.4 102.9,115.4 102.4,114.9 102.3,113.5 100,113.5 100,114.9 99.4,115.7 99.4,118.5 	"/>
	<polygon fill="#67686B" points="98.9,104.8 98.9,106.1 99.3,107.2 99.1,108.5 99.1,108.9 99.2,113.5 100.2,114.2 102,114.2 
		102.9,113.3 102.9,108.4 102.9,107.7 102.9,107.2 103.5,104.8 	"/>
	<polygon fill="none" stroke="#000000" stroke-width="0.228" stroke-linejoin="round" stroke-miterlimit="10" points="98.9,104.8 
		98.9,106.1 99.3,107.2 99.1,108.5 99.1,108.9 99.2,113.5 100.2,114.2 102,114.2 102.9,113.3 102.9,108.4 102.9,107.7 102.9,107.2 
		103.5,104.8 	"/>
	<polyline fill="none" stroke="#000000" stroke-width="0.228" stroke-linejoin="round" stroke-miterlimit="10" points="99.1,108.5 
		100.4,109.1 102.1,109.1 102.9,108.4 	"/>
	<polyline fill="none" stroke="#000000" stroke-width="0.228" stroke-linejoin="round" stroke-miterlimit="10" points="99.4,115.7 
		100.4,116.4 102.3,116.4 102.9,115.4 	"/>
	
		<line fill="none" stroke="#000000" stroke-width="0.228" stroke-linejoin="round" stroke-miterlimit="10" x1="100.4" y1="109.1" x2="100.4" y2="114.2"/>
	
		<line fill="none" stroke="#000000" stroke-width="0.228" stroke-linejoin="round" stroke-miterlimit="10" x1="102" y1="109.1" x2="102.1" y2="114.2"/>
	
		<line fill="none" stroke="#000000" stroke-width="0.228" stroke-linejoin="round" stroke-miterlimit="10" x1="100.4" y1="116.4" x2="100.5" y2="119.3"/>
	
		<line fill="none" stroke="#000000" stroke-width="0.228" stroke-linejoin="round" stroke-miterlimit="10" x1="102.1" y1="116.4" x2="102.2" y2="119.3"/>
	<g>
		<path fill="none" stroke="#000000" stroke-width="0.228" stroke-linejoin="round" stroke-miterlimit="10" d="M100,114.6
			c0,0,0.8,0.4,1.3,0.4c0.5,0,1.1-0.3,1.1-0.3"/>
		<path fill="none" stroke="#000000" stroke-width="0.228" stroke-linejoin="round" stroke-miterlimit="10" d="M99.2,106.9
			c0,0,0.9,0.4,2,0.4c0.9,0,1.8-0.4,1.8-0.4"/>
		<path fill="none" stroke="#000000" stroke-width="0.228" stroke-linejoin="round" stroke-miterlimit="10" d="M99.1,106.5
			c0,0,1,0.4,2.1,0.4c0.9,0,1.9-0.4,1.9-0.4"/>
	</g>
	<polygon fill="#67686B" points="95.6,97.4 95.3,97.7 95.3,103.7 95.6,104.4 98.9,105.9 100,106.1 102.5,106 105,105.3 105.6,104.8 
		106.9,102.7 106.9,96.7 	"/>
	<polygon fill="none" stroke="#000000" stroke-width="0.228" stroke-linejoin="round" stroke-miterlimit="10" points="95.6,97.4 
		95.3,97.7 95.3,103.7 95.6,104.4 98.9,105.9 100,106.1 102.5,106 105,105.3 105.6,104.8 106.9,102.7 106.9,96.7 	"/>
	<polyline fill="none" stroke="#000000" stroke-width="0.228" stroke-linejoin="round" stroke-miterlimit="10" points="95.3,97.7 
		95.7,97.7 98.6,99.3 99.5,100.2 100.1,99.5 101.4,99.2 104.5,98.8 105.3,99.2 105.6,98.1 106.3,97.3 	"/>
	<polyline fill="none" stroke="#000000" stroke-width="0.228" stroke-linejoin="round" stroke-miterlimit="10" points="99.5,100.2 
		99.5,105.4 100.3,106.1 	"/>
	
		<line fill="none" stroke="#000000" stroke-width="0.228" stroke-linejoin="round" stroke-miterlimit="10" x1="99.5" y1="105.4" x2="98.9" y2="105.9"/>
	<polyline fill="none" stroke="#000000" stroke-width="0.228" stroke-linejoin="round" stroke-miterlimit="10" points="105.3,99.2 
		105.4,104.8 105.6,104.8 	"/>
	
		<line fill="none" stroke="#000000" stroke-width="0.228" stroke-linejoin="round" stroke-miterlimit="10" x1="105.4" y1="104.8" x2="105" y2="105.3"/>
	<g>
		<path fill="#FFFFFF" d="M107.6,95.1l0.3-22.1l0.3-2l-0.4,0l-0.4,0.5l-0.6-1.7l-0.5,0l-0.4-0.7l-0.6,0l-0.5,0.8l-1.3-1.4l-0.5,0
			l0,1.2l-1.5-1.2l0,0.9l-1.6-0.9l0,0.8l-1-1.4L99,69.4l-1.8-0.9l-0.5,0.1l0,1.1l-1.1-0.5L95,69.2l0,1.3l-0.9-0.4l-0.5,0.1l0,0.9
			l0,1.9l0.6,22.1c0,0,0.4,4,6.8,3.7C107.5,98.5,107.6,95.1,107.6,95.1"/>
		<path fill="none" stroke="#000000" stroke-width="0.228" stroke-miterlimit="10" d="M107.6,95.1l0.3-22.1l0.3-2l-0.4,0l-0.4,0.5
			l-0.6-1.7l-0.5,0l-0.4-0.7l-0.6,0l-0.5,0.8l-1.3-1.4l-0.5,0l0,1.2l-1.5-1.2l0,0.9l-1.6-0.9l0,0.8l-1-1.4L99,69.4l-1.8-0.9
			l-0.5,0.1l0,1.1l-1.1-0.5L95,69.2l0,1.3l-0.9-0.4l-0.5,0.1l0,0.9l0,1.9l0.6,22.1c0,0,0.4,4,6.8,3.7
			C107.5,98.5,107.6,95.1,107.6,95.1z"/>
		<polyline fill="none" stroke="#000000" stroke-width="0.228" stroke-linejoin="round" stroke-miterlimit="10" points="97.1,68.5 
			97.1,70.2 95.6,69.1 95.6,71 94.1,70.2 94.7,71.5 93.9,71.3 94.2,72.4 94.5,72.4 94.7,73.7 96,73 96.2,73 96.1,74.2 97.1,73.9 
			97.6,73.9 98,75 99.6,74 100,73.9 100,75.3 102.4,74 102.6,75 104,73.4 104.5,73.4 104.8,74.9 106,73 106.6,73 106.6,74.1 
			106.8,71.9 107.2,71.9 107.4,72.7 107.9,70.9 		"/>
		<polyline fill="none" stroke="#000000" stroke-width="0.228" stroke-miterlimit="10" points="107.5,71.3 107.2,72 106.4,69.7 
			106.1,70.9 105.6,69.1 104.9,70.3 103.3,68.5 		"/>
		
			<ellipse transform="matrix(0.9211 0.3893 -0.3893 0.9211 41.8954 -34.2706)" fill="none" stroke="#000000" stroke-width="0.228" stroke-linejoin="round" stroke-miterlimit="10" cx="105.5" cy="86.2" rx="1.6" ry="2.6"/>
		<path fill="#949498" d="M106.5,86.7c-0.6,1.3-1.6,2.1-2.2,1.8c-0.7-0.3-0.8-1.6-0.2-2.9c0.6-1.3,1.6-2.1,2.2-1.8
			S107,85.3,106.5,86.7"/>
		
			<ellipse transform="matrix(0.921 0.3894 -0.3894 0.921 41.8566 -34.1933)" fill="none" stroke="#000000" stroke-width="0.228" stroke-linejoin="round" stroke-miterlimit="10" cx="105.3" cy="86.1" rx="1.3" ry="2.6"/>
		<polyline fill="#FFFFFF" points="106.5,73 105.2,75 104.8,74.9 		"/>
		<polyline fill="none" stroke="#000000" stroke-width="0.228" stroke-miterlimit="10" points="106.5,73 105.2,75 104.8,74.9 		"/>
		<polyline fill="#FFFFFF" points="104.5,73.4 103,75.3 102.6,75 		"/>
		<polyline fill="none" stroke="#000000" stroke-width="0.228" stroke-miterlimit="10" points="104.5,73.4 103,75.3 102.6,75 		"/>
		<polyline fill="#FFFFFF" points="107.2,71.9 106.9,74.2 106.6,74.1 		"/>
		<polyline fill="none" stroke="#000000" stroke-width="0.228" stroke-miterlimit="10" points="107.2,71.9 106.9,74.2 106.6,74.1 		
			"/>
		<polyline fill="#FFFFFF" points="97.4,73.9 97.8,75 98,75 		"/>
		<polyline fill="none" stroke="#000000" stroke-width="0.228" stroke-miterlimit="10" points="97.4,73.9 97.8,75 98,75 		"/>
		<polyline fill="#FFFFFF" points="96,73 96,74.4 96.1,74.2 		"/>
		<polyline fill="none" stroke="#000000" stroke-width="0.228" stroke-miterlimit="10" points="96,73 96,74.4 96.1,74.2 		"/>
		<polyline fill="#FFFFFF" points="94.2,72.4 94.3,73.7 94.7,73.7 		"/>
		<polyline fill="none" stroke="#000000" stroke-width="0.228" stroke-miterlimit="10" points="94.2,72.4 94.3,73.7 94.7,73.7 		"/>
		<g opacity="0.89">
			<g>
				<defs>
					<rect id="SVGID_1_" x="93.9" y="67.9" width="13.9" height="7.2"/>
				</defs>
				<clipPath id="SVGID_2_">
					<use xlink:href="#SVGID_1_"  overflow="visible"/>
				</clipPath>
				<g clip-path="url(#SVGID_2_)">
					<defs>
						<rect id="SVGID_3_" x="93.9" y="67.9" width="13.9" height="7.2"/>
					</defs>
					<clipPath id="SVGID_4_">
						<use xlink:href="#SVGID_3_"  overflow="visible"/>
					</clipPath>
					<polyline clip-path="url(#SVGID_4_)" fill="#949498" points="100.3,69.5 100.2,69.4 99.2,67.9 98.9,69.5 97.2,68.5 97.2,70.3 
						95.7,69.4 95.7,71.1 94.1,70.2 94.8,71.6 93.9,71.4 94.3,72.3 94.6,72.3 94.8,73.5 96,73 96.2,73 96.1,74.2 97.2,73.8 
						97.7,73.9 98.1,74.9 99.5,73.9 100.1,73.8 100.1,75.1 102.4,73.9 102.6,74.8 104,73.3 104.6,73.4 104.8,74.6 106,72.9 
						106.6,73 106.7,71.9 107.2,71.9 107.5,72.5 107.9,70.9 107.2,71.8 106.4,70 106.1,71.1 105.5,69.2 104.9,70.4 103.3,68.5 
						103.4,69.9 101.9,68.6 101.8,69.5 100.3,68.6 					"/>
				</g>
			</g>
		</g>
		<polygon fill="#67686B" points="100,75.1 102.4,73.9 102.5,67.6 101,66.7 100.5,66.8 99.7,68 98.9,68 99.1,73 99.6,73.9 100,73.9 
					"/>
		<polygon fill="none" stroke="#000000" stroke-width="0.228" stroke-linejoin="round" stroke-miterlimit="10" points="100,75.1 
			102.4,73.9 102.5,67.6 101,66.7 100.5,66.8 99.7,68 98.9,68 99.1,73 99.6,73.9 100,73.9 		"/>
		<path fill="#67686B" d="M98.9,68l1.7,0.2c0,0-0.3,0.9-0.5,1.5c-0.1,0.5-0.9,1.1-1,1.5c-0.1,0.4-0.1,0.6-0.1,0.6"/>
		<path fill="none" stroke="#000000" stroke-width="0.228" stroke-linejoin="round" stroke-miterlimit="10" d="M98.9,68l1.7,0.2
			c0,0-0.3,0.9-0.5,1.5c-0.1,0.5-0.9,1.1-1,1.5c-0.1,0.4-0.1,0.6-0.1,0.6"/>
		<path fill="none" stroke="#000000" stroke-width="0.228" stroke-linejoin="round" stroke-miterlimit="10" d="M100.6,68.2l0.3,0
			c0,0-0.4,1.4-0.5,1.9c-0.1,0.4-0.8,0.9-0.8,1.1c-0.1,0.2-0.2,0.5-0.2,0.9c0,0.4,0.5,1.7,0.5,1.7"/>
		<path fill="none" stroke="#000000" stroke-width="0.228" stroke-linejoin="round" stroke-miterlimit="10" d="M100.6,66.8l1.4,1
			l0.1,0.6l0,1.6c0,0-0.5,1.8-0.7,2.5c-0.3,0.6-1.4,2-1.4,2"/>
		<path fill="none" stroke="#000000" stroke-width="0.228" stroke-linejoin="round" stroke-miterlimit="10" d="M101.8,67.6
			c0,0-0.2,1.4-0.7,2.5c-0.5,1.2-1.2,3.6-1.2,3.6"/>
		<g opacity="0.54">
			<g>
				<defs>
					<rect id="SVGID_5_" x="99.9" y="68.2" width="2.2" height="5.8"/>
				</defs>
				<clipPath id="SVGID_6_">
					<use xlink:href="#SVGID_5_"  overflow="visible"/>
				</clipPath>
				<g clip-path="url(#SVGID_6_)">
					<defs>
						<rect id="SVGID_7_" x="99.9" y="68.2" width="2.2" height="5.8"/>
					</defs>
					<clipPath id="SVGID_8_">
						<use xlink:href="#SVGID_7_"  overflow="visible"/>
					</clipPath>
					<polygon clip-path="url(#SVGID_8_)" fill="#FFFFFF" points="102,68.2 102.1,69.3 100.8,73.1 100.2,74 99.9,73.8 					"/>
				</g>
			</g>
		</g>
		<g opacity="0.53">
			<g>
				<defs>
					<rect id="SVGID_9_" x="100.2" y="70.1" width="2.1" height="4.3"/>
				</defs>
				<clipPath id="SVGID_10_">
					<use xlink:href="#SVGID_9_"  overflow="visible"/>
				</clipPath>
				<g clip-path="url(#SVGID_10_)">
					<defs>
						<rect id="SVGID_11_" x="100.2" y="70.1" width="2.1" height="4.3"/>
					</defs>
					<clipPath id="SVGID_12_">
						<use xlink:href="#SVGID_11_"  overflow="visible"/>
					</clipPath>
					<polygon clip-path="url(#SVGID_12_)" fill="#FFFFFF" points="102.3,70.1 101.6,72.6 100.2,74.4 101.5,72.5 					"/>
				</g>
			</g>
		</g>
		<g opacity="0.54">
			<g>
				<defs>
					<rect id="SVGID_13_" x="100.3" y="67.1" width="0.9" height="1"/>
				</defs>
				<clipPath id="SVGID_14_">
					<use xlink:href="#SVGID_13_"  overflow="visible"/>
				</clipPath>
				<g clip-path="url(#SVGID_14_)">
					<defs>
						<rect id="SVGID_15_" x="100.3" y="67.1" width="0.9" height="1"/>
					</defs>
					<clipPath id="SVGID_16_">
						<use xlink:href="#SVGID_15_"  overflow="visible"/>
					</clipPath>
					<polygon clip-path="url(#SVGID_16_)" fill="#FFFFFF" points="100.8,67.1 101.2,67.4 101,68.1 100.3,68.1 					"/>
				</g>
			</g>
		</g>
		<g opacity="0.54">
			<g>
				<defs>
					<rect id="SVGID_17_" x="99.4" y="68.2" width="0.9" height="2.4"/>
				</defs>
				<clipPath id="SVGID_18_">
					<use xlink:href="#SVGID_17_"  overflow="visible"/>
				</clipPath>
				<g clip-path="url(#SVGID_18_)">
					<defs>
						<rect id="SVGID_19_" x="99.4" y="68.2" width="0.9" height="2.4"/>
					</defs>
					<clipPath id="SVGID_20_">
						<use xlink:href="#SVGID_19_"  overflow="visible"/>
					</clipPath>
					<polygon clip-path="url(#SVGID_20_)" fill="#FFFFFF" points="99.4,68.2 100.3,68.3 100,69.8 99.4,70.6 					"/>
				</g>
			</g>
		</g>
		<g opacity="0.54">
			<g>
				<defs>
					<rect id="SVGID_21_" x="99.4" y="68.3" width="0.5" height="2.4"/>
				</defs>
				<clipPath id="SVGID_22_">
					<use xlink:href="#SVGID_21_"  overflow="visible"/>
				</clipPath>
				<g clip-path="url(#SVGID_22_)">
					<defs>
						<rect id="SVGID_23_" x="99.4" y="68.3" width="0.5" height="2.4"/>
					</defs>
					<clipPath id="SVGID_24_">
						<use xlink:href="#SVGID_23_"  overflow="visible"/>
					</clipPath>
					<polyline clip-path="url(#SVGID_24_)" fill="#FFFFFF" points="99.7,68.3 99.9,68.8 99.4,70.6 					"/>
				</g>
			</g>
		</g>
		<g opacity="0.75">
			<g>
				<defs>
					<rect id="SVGID_25_" x="99.3" y="68.5" width="1.9" height="5.2"/>
				</defs>
				<clipPath id="SVGID_26_">
					<use xlink:href="#SVGID_25_"  overflow="visible"/>
				</clipPath>
				<g clip-path="url(#SVGID_26_)">
					<defs>
						<rect id="SVGID_27_" x="99.3" y="68.5" width="1.9" height="5.2"/>
					</defs>
					<clipPath id="SVGID_28_">
						<use xlink:href="#SVGID_27_"  overflow="visible"/>
					</clipPath>
					<path clip-path="url(#SVGID_28_)" d="M101,68.5l0.2,1l-1.3,4.3l-0.5-0.8c0,0-0.1-0.3-0.1-0.8c0-0.5,0.2-0.9,0.2-0.9
						s0.7-0.7,0.9-1.1C100.5,69.8,101,68.5,101,68.5"/>
				</g>
			</g>
		</g>
		<g opacity="0.53">
			<g>
				<defs>
					<rect id="SVGID_29_" x="95.3" y="97.9" width="2.1" height="6.9"/>
				</defs>
				<clipPath id="SVGID_30_">
					<use xlink:href="#SVGID_29_"  overflow="visible"/>
				</clipPath>
				<g clip-path="url(#SVGID_30_)">
					<defs>
						<rect id="SVGID_31_" x="95.3" y="97.9" width="2.1" height="6.9"/>
					</defs>
					<clipPath id="SVGID_32_">
						<use xlink:href="#SVGID_31_"  overflow="visible"/>
					</clipPath>
					<polygon clip-path="url(#SVGID_32_)" fill="#C3C4C6" points="97.4,104.8 95.7,104.1 95.7,98.1 95.3,98 95.3,103.7 95.6,104.4 
						97.1,104.8 					"/>
				</g>
			</g>
		</g>
		<g opacity="0.53">
			<g>
				<defs>
					<rect id="SVGID_33_" x="99.2" y="108.7" width="0.4" height="5"/>
				</defs>
				<clipPath id="SVGID_34_">
					<use xlink:href="#SVGID_33_"  overflow="visible"/>
				</clipPath>
				<g clip-path="url(#SVGID_34_)">
					<defs>
						<rect id="SVGID_35_" x="99.2" y="108.7" width="0.4" height="5"/>
					</defs>
					<clipPath id="SVGID_36_">
						<use xlink:href="#SVGID_35_"  overflow="visible"/>
					</clipPath>
					<polygon clip-path="url(#SVGID_36_)" fill="#C3C4C6" points="99.6,113.7 99.6,108.8 99.2,108.7 99.2,113.4 					"/>
				</g>
			</g>
		</g>
		<g opacity="0.53">
			<g>
				<defs>
					<rect id="SVGID_37_" x="99.4" y="115.9" width="0.4" height="2.8"/>
				</defs>
				<clipPath id="SVGID_38_">
					<use xlink:href="#SVGID_37_"  overflow="visible"/>
				</clipPath>
				<g clip-path="url(#SVGID_38_)">
					<defs>
						<rect id="SVGID_39_" x="99.4" y="115.9" width="0.4" height="2.8"/>
					</defs>
					<clipPath id="SVGID_40_">
						<use xlink:href="#SVGID_39_"  overflow="visible"/>
					</clipPath>
					<polygon clip-path="url(#SVGID_40_)" fill="#C3C4C6" points="99.8,118.7 99.8,116.1 99.5,115.9 99.4,118.5 					"/>
				</g>
			</g>
		</g>
		<path fill="#E6E7E8" d="M147.5,120.5l-0.1-2.9l0-0.8l0-2.3l-2.6,0.1c0,0,0,0.3-1.4,1.1c-1.4,0.8-10.3-1.9-10.3-1.9l-0.3-0.6
			l-0.5-24.9l-1.5-2.2l-2.9-0.4l-0.5-0.7l-0.1-6.6l-4.8,0.1l-0.6,0.6l0.1,7.2l-0.8,1.7l0.6,28.4l1.1,0.4l0.6-0.3l0-0.6
			c0,0,1.3-0.9,2.1-0.2c0.8,0.7,4.7,3.2,4.7,3.2s5.2,2.2,12.6,2.5l1.2-0.5l2.9-0.1L147.5,120.5z"/>
		<path fill="none" stroke="#231F20" stroke-width="0.466" d="M147.5,120.5l-0.1-2.9l0-0.8l0-2.3l-2.6,0.1c0,0,0,0.3-1.4,1.1
			c-1.4,0.8-10.3-1.9-10.3-1.9l-0.3-0.6l-0.5-24.9l-1.5-2.2l-2.9-0.4l-0.5-0.7l-0.1-6.6l-4.8,0.1l-0.6,0.6l0.1,7.2l-0.8,1.7
			l0.6,28.4l1.1,0.4l0.6-0.3l0-0.6c0,0,1.3-0.9,2.1-0.2c0.8,0.7,4.7,3.2,4.7,3.2s5.2,2.2,12.6,2.5l1.2-0.5l2.9-0.1L147.5,120.5z"/>
		
			<rect x="126.2" y="79.3" transform="matrix(2.072098e-02 0.9998 -0.9998 2.072098e-02 209.5195 -43.5261)" fill="#AFB2C0" width="1.5" height="11.7"/>
		
			<rect x="126.2" y="79.3" transform="matrix(2.072098e-02 0.9998 -0.9998 2.072098e-02 209.5195 -43.5261)" fill="none" stroke="#231F20" stroke-width="0.466" width="1.5" height="11.7"/>
		<path fill="#58595B" d="M133.4,87.9c0.3,0,0.6-0.2,0.5-0.5l-0.1-5c0-0.3-0.3-0.5-0.6-0.5c-0.3,0-0.6,0.2-0.5,0.5l0.1,5
			C132.9,87.7,133.1,87.9,133.4,87.9"/>
		<path fill="none" stroke="#231F20" stroke-width="0.466" d="M133.4,87.9c0.3,0,0.6-0.2,0.5-0.5l-0.1-5c0-0.3-0.3-0.5-0.6-0.5
			c-0.3,0-0.6,0.2-0.5,0.5l0.1,5C132.9,87.7,133.1,87.9,133.4,87.9z"/>
		<path fill="#58595B" d="M148.7,87.6c0.3,0,0.6-0.2,0.5-0.5l-0.1-5c0-0.3-0.3-0.5-0.6-0.5c-0.3,0-0.6,0.2-0.5,0.5l0.1,5
			C148.1,87.4,148.3,87.6,148.7,87.6"/>
		<path fill="none" stroke="#231F20" stroke-width="0.466" d="M148.7,87.6c0.3,0,0.6-0.2,0.5-0.5l-0.1-5c0-0.3-0.3-0.5-0.6-0.5
			c-0.3,0-0.6,0.2-0.5,0.5l0.1,5C148.1,87.4,148.3,87.6,148.7,87.6z"/>
		
			<rect x="139.1" y="77.8" transform="matrix(2.045675e-02 0.9998 -0.9998 2.045675e-02 222.9141 -57.8606)" fill="#58595B" width="3.8" height="14.1"/>
		
			<rect x="139.1" y="77.8" transform="matrix(2.045675e-02 0.9998 -0.9998 2.045675e-02 222.9141 -57.8606)" fill="none" stroke="#231F20" stroke-width="0.466" width="3.8" height="14.1"/>
		<line fill="none" stroke="#231F20" stroke-width="0.466" x1="121.2" y1="100.6" x2="132.2" y2="100.4"/>
		<path fill="#231F20" d="M123.2,115.9l-0.1-2.6l2.4,0l0,1.9l3.3,2.3l0.7,0c0,0,1.4-1.4,2.3-0.6c0.9,0.8,1,2.6,10.3,3.1
			c0.4,0,0.9,1.2,0.8,1.5c-2,0.1-11.3-1.3-12.6-2.5c-1.3-1.2-5-3.4-5-3.4l-1.8,0.4L123.2,115.9z"/>
		<path fill="none" stroke="#231F20" stroke-width="0.466" d="M123.2,115.9l-0.1-2.6l2.4,0l0,1.9l3.3,2.3l0.7,0c0,0,1.4-1.4,2.3-0.6
			c0.9,0.8,1,2.6,10.3,3.1c0.4,0,0.9,1.2,0.8,1.5c-2,0.1-11.3-1.3-12.6-2.5c-1.3-1.2-5-3.4-5-3.4l-1.8,0.4L123.2,115.9z"/>
		
			<rect x="125.6" y="105.8" transform="matrix(2.041742e-02 0.9998 -0.9998 2.041742e-02 233.9355 -22.7275)" fill="#6D6E71" width="5.9" height="4.5"/>
		
			<rect x="125.6" y="105.8" transform="matrix(2.041742e-02 0.9998 -0.9998 2.041742e-02 233.9355 -22.7275)" fill="none" stroke="#231F20" stroke-width="0.466" width="5.9" height="4.5"/>
		<polygon fill="#231F20" points="133.1,109.7 133.2,113.1 133.5,113.6 137.9,114.8 138,113 137.4,112.6 136.6,113 134.3,112.3 
			133.9,109.7 		"/>
		<polygon fill="none" stroke="#231F20" stroke-width="0.466" points="133.1,109.7 133.2,113.1 133.5,113.6 137.9,114.8 138,113 
			137.4,112.6 136.6,113 134.3,112.3 133.9,109.7 		"/>
		<polygon fill="#231F20" points="148,117.9 148.1,120.1 158.5,120.2 158.5,118.9 		"/>
		<polygon fill="none" stroke="#231F20" stroke-width="0.466" points="148,117.9 148.1,120.1 158.5,120.2 158.5,118.9 		"/>
		<polygon fill="#231F20" points="158.9,118.9 164.9,119.2 164.9,120.1 158.9,120.2 		"/>
		<polygon fill="none" stroke="#231F20" stroke-width="0.466" points="158.9,118.9 164.9,119.2 164.9,120.1 158.9,120.2 		"/>
		<polygon fill="#BCBEC0" points="125.7,78.2 123.9,78.2 123.9,77.1 125.7,77.3 		"/>
		<polygon fill="none" stroke="#231F20" stroke-width="0.466" points="125.7,78.2 123.9,78.2 123.9,77.1 125.7,77.3 		"/>
		<polygon fill="#BCBEC0" points="125.7,77.7 123.7,77.8 123.8,76.6 125.7,76.9 		"/>
		<polygon fill="none" stroke="#231F20" stroke-width="0.466" points="125.7,77.7 123.7,77.8 123.8,76.6 125.7,76.9 		"/>
		<polygon fill="#BCBEC0" points="125.7,77.3 123.9,77.3 123.8,76.2 125.7,76.4 		"/>
		<polygon fill="none" stroke="#231F20" stroke-width="0.466" points="125.7,77.3 123.9,77.3 123.8,76.2 125.7,76.4 		"/>
		<polygon fill="#BCBEC0" points="125.7,76.4 123.7,76.4 123.8,75.3 125.7,75.5 		"/>
		<polygon fill="none" stroke="#231F20" stroke-width="0.466" points="125.7,76.4 123.7,76.4 123.8,75.3 125.7,75.5 		"/>
		<polygon fill="#BCBEC0" points="125.7,75.4 123.8,75.5 123.8,74.4 125.6,74.6 		"/>
		<polygon fill="none" stroke="#231F20" stroke-width="0.466" points="125.7,75.4 123.8,75.5 123.8,74.4 125.6,74.6 		"/>
		<polygon fill="#BCBEC0" points="125.6,74.5 123.6,74.6 123.8,73.5 125.6,73.7 		"/>
		<polygon fill="none" stroke="#231F20" stroke-width="0.466" points="125.6,74.5 123.6,74.6 123.8,73.5 125.6,73.7 		"/>
		<polygon fill="#BCBEC0" points="125.6,73.6 123.8,73.7 123.8,72.5 125.6,72.8 		"/>
		<polygon fill="none" stroke="#231F20" stroke-width="0.466" points="125.6,73.6 123.8,73.7 123.8,72.5 125.6,72.8 		"/>
		<polygon fill="#BCBEC0" points="125.6,72.7 123.6,72.8 123.7,71.6 125.6,71.9 		"/>
		<polygon fill="none" stroke="#231F20" stroke-width="0.466" points="125.6,72.7 123.6,72.8 123.7,71.6 125.6,71.9 		"/>
		<polygon fill="#BCBEC0" points="125.6,72 123.7,72.1 123.7,71 125.6,71.2 		"/>
		<polygon fill="none" stroke="#231F20" stroke-width="0.466" points="125.6,72 123.7,72.1 123.7,71 125.6,71.2 		"/>
		<polygon fill="#BCBEC0" points="125.6,71.1 123.6,71.2 123.7,70 125.6,70.3 		"/>
		<polygon fill="none" stroke="#231F20" stroke-width="0.466" points="125.6,71.1 123.6,71.2 123.7,70 125.6,70.3 		"/>
		<polygon fill="#BCBEC0" points="125.6,70.2 123.7,70.3 123.7,69.1 125.5,69.4 		"/>
		<polygon fill="none" stroke="#231F20" stroke-width="0.466" points="125.6,70.2 123.7,70.3 123.7,69.1 125.5,69.4 		"/>
		<polygon fill="#BCBEC0" points="125.5,69.3 123.5,69.4 123.7,68.2 125.5,68.5 		"/>
		<polygon fill="none" stroke="#231F20" stroke-width="0.466" points="125.5,69.3 123.5,69.4 123.7,68.2 125.5,68.5 		"/>
		<polygon fill="#BCBEC0" points="125.5,68.4 123.7,68.5 123.7,67.3 125.5,67.6 		"/>
		<polygon fill="none" stroke="#231F20" stroke-width="0.466" points="125.5,68.4 123.7,68.5 123.7,67.3 125.5,67.6 		"/>
		<polygon fill="#BCBEC0" points="125.5,67.5 123.5,67.6 123.6,66.4 125.5,66.7 		"/>
		<polygon fill="none" stroke="#231F20" stroke-width="0.466" points="125.5,67.5 123.5,67.6 123.6,66.4 125.5,66.7 		"/>
		
			<line fill="none" stroke="#000000" stroke-width="0.388" stroke-linecap="round" stroke-linejoin="round" stroke-miterlimit="10" x1="49.4" y1="22.6" x2="49.4" y2="21.8"/>
		
			<line fill="none" stroke="#000000" stroke-width="0.388" stroke-linecap="round" stroke-linejoin="round" stroke-miterlimit="10" x1="97.8" y1="34" x2="97.7" y2="34.1"/>
		
			<line fill="none" stroke="#000000" stroke-width="0.388" stroke-linecap="round" stroke-linejoin="round" stroke-miterlimit="10" x1="97.8" y1="34.1" x2="97.9" y2="34"/>
		
			<line fill="none" stroke="#000000" stroke-width="0.388" stroke-linecap="round" stroke-linejoin="round" stroke-miterlimit="10" x1="96" y1="32" x2="96" y2="32.4"/>
		
			<line fill="none" stroke="#000000" stroke-width="0.388" stroke-linecap="round" stroke-linejoin="round" stroke-miterlimit="10" x1="96.4" y1="31.6" x2="96.4" y2="30.7"/>
		
			<line fill="none" stroke="#000000" stroke-width="0.388" stroke-linecap="round" stroke-linejoin="round" stroke-miterlimit="10" x1="96.5" y1="30.8" x2="96.5" y2="31.6"/>
		
			<line fill="none" stroke="#000000" stroke-width="0.388" stroke-linecap="round" stroke-linejoin="round" stroke-miterlimit="10" x1="97.8" y1="33.9" x2="97.8" y2="34"/>
		
			<line fill="none" stroke="#000000" stroke-width="0.388" stroke-linecap="round" stroke-linejoin="round" stroke-miterlimit="10" x1="97.8" y1="34.1" x2="97.8" y2="33.9"/>
		
			<line fill="none" stroke="#000000" stroke-width="0.388" stroke-linecap="round" stroke-linejoin="round" stroke-miterlimit="10" x1="98" y1="34.1" x2="98" y2="34.2"/>
		
			<line fill="none" stroke="#000000" stroke-width="0.388" stroke-linecap="round" stroke-linejoin="round" stroke-miterlimit="10" x1="98.2" y1="34.1" x2="98.2" y2="34"/>
		
			<line fill="none" stroke="#000000" stroke-width="0.388" stroke-linecap="round" stroke-linejoin="round" stroke-miterlimit="10" x1="107.1" y1="32.8" x2="107.1" y2="32.8"/>
		
			<line fill="none" stroke="#000000" stroke-width="0.388" stroke-linecap="round" stroke-linejoin="round" stroke-miterlimit="10" x1="107.2" y1="32.7" x2="107.2" y2="32.7"/>
		
			<line fill="none" stroke="#000000" stroke-width="0.388" stroke-linecap="round" stroke-linejoin="round" stroke-miterlimit="10" x1="103.5" y1="30.5" x2="103.5" y2="30.6"/>
		
			<line fill="none" stroke="#000000" stroke-width="0.388" stroke-linecap="round" stroke-linejoin="round" stroke-miterlimit="10" x1="106.9" y1="32.1" x2="106.9" y2="32.5"/>
		
			<line fill="none" stroke="#000000" stroke-width="0.388" stroke-linecap="round" stroke-linejoin="round" stroke-miterlimit="10" x1="106.9" y1="32.8" x2="106.9" y2="32.8"/>
		
			<line fill="none" stroke="#000000" stroke-width="0.388" stroke-linecap="round" stroke-linejoin="round" stroke-miterlimit="10" x1="107" y1="32.6" x2="107" y2="32.3"/>
		
			<line fill="none" stroke="#000000" stroke-width="0.388" stroke-linecap="round" stroke-linejoin="round" stroke-miterlimit="10" x1="107.2" y1="32.7" x2="107.2" y2="32.7"/>
		
			<line fill="none" stroke="#000000" stroke-width="0.388" stroke-linecap="round" stroke-linejoin="round" stroke-miterlimit="10" x1="132.6" y1="22.1" x2="132.7" y2="22.9"/>
		
			<line fill="none" stroke="#000000" stroke-width="0.388" stroke-linecap="round" stroke-linejoin="round" stroke-miterlimit="10" x1="132.5" y1="21.6" x2="132.5" y2="21.6"/>
		
			<line fill="none" stroke="#000000" stroke-width="0.388" stroke-linecap="round" stroke-linejoin="round" stroke-miterlimit="10" x1="132.5" y1="20.7" x2="132.5" y2="20.7"/>
		
			<line fill="none" stroke="#000000" stroke-width="0.388" stroke-linecap="round" stroke-linejoin="round" stroke-miterlimit="10" x1="131.7" y1="21.7" x2="131.7" y2="21.7"/>
		
			<line fill="none" stroke="#000000" stroke-width="0.388" stroke-linecap="round" stroke-linejoin="round" stroke-miterlimit="10" x1="132.5" y1="21.6" x2="132.5" y2="20.7"/>
		
			<line fill="none" stroke="#000000" stroke-width="0.388" stroke-linecap="round" stroke-linejoin="round" stroke-miterlimit="10" x1="132.7" y1="22.9" x2="132.7" y2="22"/>
		
			<line fill="none" stroke="#000000" stroke-width="0.388" stroke-linecap="round" stroke-linejoin="round" stroke-miterlimit="10" x1="94.9" y1="30.2" x2="96.1" y2="31.3"/>
		
			<line fill="none" stroke="#000000" stroke-width="0.388" stroke-linecap="round" stroke-linejoin="round" stroke-miterlimit="10" x1="96.1" y1="30.5" x2="94.9" y2="29.4"/>
		
			<line fill="none" stroke="#000000" stroke-width="0.388" stroke-linecap="round" stroke-linejoin="round" stroke-miterlimit="10" x1="131.7" y1="22" x2="131.7" y2="21.7"/>
		
			<line fill="none" stroke="#000000" stroke-width="0.388" stroke-linecap="round" stroke-linejoin="round" stroke-miterlimit="10" x1="103.3" y1="30.3" x2="102.1" y2="29.1"/>
		
			<line fill="none" stroke="#000000" stroke-width="0.388" stroke-linecap="round" stroke-linejoin="round" stroke-miterlimit="10" x1="98" y1="34.2" x2="98.2" y2="34.1"/>
		
			<line fill="none" stroke="#000000" stroke-width="0.388" stroke-linecap="round" stroke-linejoin="round" stroke-miterlimit="10" x1="98.2" y1="34" x2="97.9" y2="34.1"/>
		
			<line fill="none" stroke="#000000" stroke-width="0.388" stroke-linecap="round" stroke-linejoin="round" stroke-miterlimit="10" x1="107.1" y1="32.8" x2="106.9" y2="32.8"/>
		
			<line fill="none" stroke="#000000" stroke-width="0.388" stroke-linecap="round" stroke-linejoin="round" stroke-miterlimit="10" x1="106.8" y1="32.7" x2="107.2" y2="32.7"/>
		
			<line fill="none" stroke="#000000" stroke-width="0.388" stroke-linecap="round" stroke-linejoin="round" stroke-miterlimit="10" x1="107.2" y1="32.7" x2="107" y2="32.6"/>
		
			<line fill="none" stroke="#000000" stroke-width="0.388" stroke-linecap="round" stroke-linejoin="round" stroke-miterlimit="10" x1="97.9" y1="34.1" x2="98" y2="34.2"/>
		
			<line fill="none" stroke="#000000" stroke-width="0.388" stroke-linecap="round" stroke-linejoin="round" stroke-miterlimit="10" x1="97.7" y1="34.1" x2="97.8" y2="34.1"/>
		
			<line fill="none" stroke="#000000" stroke-width="0.388" stroke-linecap="round" stroke-linejoin="round" stroke-miterlimit="10" x1="132.5" y1="22.1" x2="131.9" y2="22.1"/>
		
			<line fill="none" stroke="#000000" stroke-width="0.388" stroke-linecap="round" stroke-linejoin="round" stroke-miterlimit="10" x1="131.8" y1="21.6" x2="132.4" y2="21.6"/>
		
			<path fill="none" stroke="#000000" stroke-width="0.388" stroke-linecap="round" stroke-linejoin="round" stroke-miterlimit="10" d="
			M49.4,21.6c0,0.1,0,0.1,0,0.2"/>
		
			<path fill="none" stroke="#000000" stroke-width="0.388" stroke-linecap="round" stroke-linejoin="round" stroke-miterlimit="10" d="
			M49.4,21.8c0,0.3-0.1,0.5-0.1,0.8"/>
		
			<path fill="none" stroke="#000000" stroke-width="0.388" stroke-linecap="round" stroke-linejoin="round" stroke-miterlimit="10" d="
			M88.4,8.1c0.1,0,0.1,0,0.2,0"/>
		
			<path fill="none" stroke="#000000" stroke-width="0.388" stroke-linecap="round" stroke-linejoin="round" stroke-miterlimit="10" d="
			M59,30.1c0.1,0,0.1,0,0.2,0"/>
		
			<path fill="none" stroke="#000000" stroke-width="0.388" stroke-linecap="round" stroke-linejoin="round" stroke-miterlimit="10" d="
			M103.5,30.5C103.5,30.5,103.5,30.5,103.5,30.5"/>
		
			<path fill="none" stroke="#000000" stroke-width="0.388" stroke-linecap="round" stroke-linejoin="round" stroke-miterlimit="10" d="
			M98.2,34C98.2,34.1,98.2,34.1,98.2,34"/>
		
			<path fill="none" stroke="#000000" stroke-width="0.388" stroke-linecap="round" stroke-linejoin="round" stroke-miterlimit="10" d="
			M97.8,33.9c0,0,0.1,0,0.1,0"/>
		
			<path fill="none" stroke="#000000" stroke-width="0.388" stroke-linecap="round" stroke-linejoin="round" stroke-miterlimit="10" d="
			M97.8,33.9C97.8,33.9,97.8,33.9,97.8,33.9"/>
		
			<path fill="none" stroke="#000000" stroke-width="0.388" stroke-linecap="round" stroke-linejoin="round" stroke-miterlimit="10" d="
			M132.7,21.5c0-0.1,0-0.2,0-0.3"/>
		
			<path fill="none" stroke="#000000" stroke-width="0.388" stroke-linecap="round" stroke-linejoin="round" stroke-miterlimit="10" d="
			M132.7,22c0-0.2,0-0.3,0-0.5"/>
		
			<path fill="none" stroke="#000000" stroke-width="0.388" stroke-linecap="round" stroke-linejoin="round" stroke-miterlimit="10" d="
			M106.9,32.8C106.9,32.8,106.8,32.8,106.9,32.8"/>
		
			<path fill="none" stroke="#000000" stroke-width="0.388" stroke-linecap="round" stroke-linejoin="round" stroke-miterlimit="10" d="
			M107.1,32.8C107.1,32.8,107.1,32.8,107.1,32.8"/>
		
			<path fill="none" stroke="#000000" stroke-width="0.388" stroke-linecap="round" stroke-linejoin="round" stroke-miterlimit="10" d="
			M125.3,28.6c0.1,0,0.1,0,0.2,0"/>
		
			<path fill="none" stroke="#000000" stroke-width="0.388" stroke-linecap="round" stroke-linejoin="round" stroke-miterlimit="10" d="
			M96.5,30.8C96.5,30.8,96.4,30.8,96.5,30.8"/>
		
			<path fill="none" stroke="#000000" stroke-width="0.388" stroke-linecap="round" stroke-linejoin="round" stroke-miterlimit="10" d="
			M96.5,31.6C96.4,31.6,96.4,31.6,96.5,31.6"/>
		
			<path fill="none" stroke="#000000" stroke-width="0.388" stroke-linecap="round" stroke-linejoin="round" stroke-miterlimit="10" d="
			M96.4,30.8C96.4,30.8,96.4,30.8,96.4,30.8"/>
		
			<path fill="none" stroke="#000000" stroke-width="0.388" stroke-linecap="round" stroke-linejoin="round" stroke-miterlimit="10" d="
			M106.8,32.7C106.8,32.7,106.9,32.6,106.8,32.7"/>
		
			<path fill="none" stroke="#000000" stroke-width="0.388" stroke-linecap="round" stroke-linejoin="round" stroke-miterlimit="10" d="
			M107,32.5C107,32.5,107,32.5,107,32.5"/>
		
			<line fill="none" stroke="#000000" stroke-width="0.388" stroke-linecap="round" stroke-linejoin="round" stroke-miterlimit="10" x1="95.9" y1="32.4" x2="95.9" y2="32.4"/>
		
			<path fill="none" stroke="#000000" stroke-width="0.388" stroke-linecap="round" stroke-linejoin="round" stroke-miterlimit="10" d="
			M131.8,21.6C131.7,21.6,131.7,21.6,131.8,21.6c-0.1,0-0.1,0-0.1,0"/>
		
			<path fill="none" stroke="#000000" stroke-width="0.388" stroke-linecap="round" stroke-linejoin="round" stroke-miterlimit="10" d="
			M93.7,38.1c-2.8,0.1-5.7,0-8.5-0.1c-2.8-0.1-5.5-0.4-8.3-0.8c-2.6-0.3-5.1-0.8-7.7-1.4c-1.2-0.3-2.4-0.6-3.5-0.9
			c-1.1-0.3-2.2-0.7-3.3-1c-1-0.3-2-0.7-3-1.1c-0.9-0.4-1.8-0.8-2.6-1.2c-0.8-0.4-1.5-0.9-2.3-1.3c-0.7-0.4-1.3-0.9-1.9-1.4
			c-0.5-0.5-1-0.9-1.5-1.5c-0.4-0.5-0.8-1-1.1-1.5c-0.3-0.5-0.5-1-0.6-1.6c-0.1-0.5-0.2-1-0.2-1.6"/>
		
			<path fill="none" stroke="#000000" stroke-width="0.388" stroke-linecap="round" stroke-linejoin="round" stroke-miterlimit="10" d="
			M88.4,8c-0.3,0-0.6,0-0.8,0.1c-0.1,0-0.2,0.1-0.3,0.1c-0.1,0-0.2,0.1-0.2,0.1"/>
		
			<path fill="none" stroke="#000000" stroke-width="0.388" stroke-linecap="round" stroke-linejoin="round" stroke-miterlimit="10" d="
			M59,29.9c-0.3,0-0.6,0-0.8,0.1c-0.1,0-0.2,0.1-0.3,0.1c-0.1,0-0.2,0.1-0.2,0.1"/>
		
			<path fill="none" stroke="#000000" stroke-width="0.388" stroke-linecap="round" stroke-linejoin="round" stroke-miterlimit="10" d="
			M125.3,28.5c-0.3,0-0.6,0-0.8,0.1c-0.1,0-0.2,0.1-0.3,0.1c-0.1,0-0.2,0.1-0.2,0.1"/>
		
			<path fill="none" stroke="#000000" stroke-width="0.388" stroke-linecap="round" stroke-linejoin="round" stroke-miterlimit="10" d="
			M107.1,32.8c-0.1,0-0.2,0-0.2,0"/>
		
			<path fill="none" stroke="#000000" stroke-width="0.388" stroke-linecap="round" stroke-linejoin="round" stroke-miterlimit="10" d="
			M106.8,32.8c-0.1,0.1-0.1,0.2-0.2,0.3c-0.1,0.1-0.2,0.2-0.4,0.3c-0.2,0.1-0.3,0.2-0.5,0.3c-0.2,0.1-0.4,0.2-0.6,0.2
			c-0.2,0.1-0.5,0.1-0.7,0.2c-0.3,0.1-0.5,0.1-0.8,0.2c-0.6,0.1-1.2,0.1-1.8,0.1"/>
		
			<path fill="none" stroke="#000000" stroke-width="0.388" stroke-linecap="round" stroke-linejoin="round" stroke-miterlimit="10" d="
			M101.8,34.4c-0.6,0-1.2,0-1.9-0.1c-0.6-0.1-1.1-0.2-1.7-0.3"/>
		
			<path fill="none" stroke="#000000" stroke-width="0.388" stroke-linecap="round" stroke-linejoin="round" stroke-miterlimit="10" d="
			M102.1,29.1c-0.1-0.1-0.2-0.1-0.3-0.2c-0.1-0.1-0.2-0.1-0.4-0.2c-0.3-0.1-0.6-0.2-0.9-0.3c-0.4-0.1-0.7-0.1-1.1-0.2
			c-0.4,0-0.8-0.1-1.2,0"/>
		
			<path fill="none" stroke="#000000" stroke-width="0.388" stroke-linecap="round" stroke-linejoin="round" stroke-miterlimit="10" d="
			M98.2,28.2c-0.2,0-0.5,0-0.7,0c-0.2,0-0.5,0.1-0.7,0.1c-0.2,0-0.4,0.1-0.6,0.1c-0.2,0-0.4,0.1-0.5,0.2c-0.2,0.1-0.3,0.1-0.4,0.2
			C95.1,29,95,29,94.9,29.1c-0.1,0.1-0.2,0.2-0.2,0.3c0,0.1-0.1,0.2-0.1,0.3"/>
		
			<path fill="none" stroke="#000000" stroke-width="0.388" stroke-linecap="round" stroke-linejoin="round" stroke-miterlimit="10" d="
			M96.4,31.6C96.4,31.6,96.3,31.6,96.4,31.6c-0.1,0.1-0.2,0.2-0.2,0.2"/>
		
			<path fill="none" stroke="#000000" stroke-width="0.388" stroke-linecap="round" stroke-linejoin="round" stroke-miterlimit="10" d="
			M96.2,31.8c0,0-0.1,0.1-0.1,0.1c-0.1,0.1-0.1,0.2-0.2,0.3"/>
		
			<path fill="none" stroke="#000000" stroke-width="0.388" stroke-linecap="round" stroke-linejoin="round" stroke-miterlimit="10" d="
			M95.9,32.2C95.9,32.2,95.9,32.2,95.9,32.2c0,0.1,0,0.2,0,0.2"/>
		
			<path fill="none" stroke="#000000" stroke-width="0.388" stroke-linecap="round" stroke-linejoin="round" stroke-miterlimit="10" d="
			M97.8,33.9c-0.3-0.1-0.5-0.2-0.8-0.3c-0.2-0.1-0.4-0.2-0.6-0.4c-0.1-0.1-0.1-0.1-0.2-0.2c-0.1-0.1-0.1-0.1-0.1-0.2
			c0-0.1-0.1-0.1-0.1-0.2c0-0.1,0-0.1,0-0.2"/>
		
			<path fill="none" stroke="#000000" stroke-width="0.388" stroke-linecap="round" stroke-linejoin="round" stroke-miterlimit="10" d="
			M103.5,30.5C103.5,30.5,103.5,30.5,103.5,30.5c0-0.1-0.1-0.1-0.1-0.1"/>
		
			<path fill="none" stroke="#000000" stroke-width="0.388" stroke-linecap="round" stroke-linejoin="round" stroke-miterlimit="10" d="
			M103.4,30.4C103.4,30.4,103.4,30.4,103.4,30.4c-0.1-0.1-0.1-0.1-0.1-0.1"/>
		
			<path fill="none" stroke="#000000" stroke-width="0.388" stroke-linecap="round" stroke-linejoin="round" stroke-miterlimit="10" d="
			M132.6,21.3C132.6,21.3,132.6,21.3,132.6,21.3C132.6,21.2,132.6,21.2,132.6,21.3"/>
		
			<path fill="none" stroke="#000000" stroke-width="0.388" stroke-linecap="round" stroke-linejoin="round" stroke-miterlimit="10" d="
			M106.9,32.5c0,0.1,0,0.1,0,0.2"/>
		
			<path fill="none" stroke="#000000" stroke-width="0.388" stroke-linecap="round" stroke-linejoin="round" stroke-miterlimit="10" d="
			M107,32.5C107,32.4,107,32.4,107,32.5c0-0.1,0-0.2,0-0.2"/>
		
			<path fill="none" stroke="#000000" stroke-width="0.388" stroke-linecap="round" stroke-linejoin="round" stroke-miterlimit="10" d="
			M106.9,32.2c0,0,0-0.1,0-0.1c-0.1-0.1-0.1-0.2-0.2-0.3"/>
		
			<path fill="none" stroke="#000000" stroke-width="0.388" stroke-linecap="round" stroke-linejoin="round" stroke-miterlimit="10" d="
			M106.7,31.8c-0.1-0.2-0.3-0.3-0.5-0.4c-0.2-0.1-0.5-0.3-0.7-0.3c-0.3-0.1-0.6-0.2-0.9-0.3c-0.3-0.1-0.7-0.2-1-0.2"/>
		
			<path fill="none" stroke="#000000" stroke-width="0.388" stroke-linecap="round" stroke-linejoin="round" stroke-miterlimit="10" d="
			M126.9,28.9c-0.1-0.1-0.2-0.1-0.3-0.2c-0.1-0.1-0.3-0.1-0.4-0.1c-0.2,0-0.3-0.1-0.5-0.1c-0.2,0-0.3,0-0.5,0"/>
		
			<path fill="none" stroke="#000000" stroke-width="0.388" stroke-linecap="round" stroke-linejoin="round" stroke-miterlimit="10" d="
			M126.1,28.5c-0.1,0-0.2,0.1-0.3,0.1c-0.1,0-0.2,0-0.3,0"/>
		
			<path fill="none" stroke="#000000" stroke-width="0.388" stroke-linecap="round" stroke-linejoin="round" stroke-miterlimit="10" d="
			M60.7,30.3c-0.1-0.1-0.2-0.1-0.3-0.2c-0.1-0.1-0.3-0.1-0.4-0.1c-0.2,0-0.3-0.1-0.5-0.1c-0.2,0-0.3,0-0.5,0"/>
		
			<path fill="none" stroke="#000000" stroke-width="0.388" stroke-linecap="round" stroke-linejoin="round" stroke-miterlimit="10" d="
			M59.8,30c-0.1,0-0.2,0.1-0.3,0.1c-0.1,0-0.2,0-0.3,0"/>
		
			<path fill="none" stroke="#000000" stroke-width="0.388" stroke-linecap="round" stroke-linejoin="round" stroke-miterlimit="10" d="
			M90,8.3c-0.1-0.1-0.2-0.1-0.3-0.2c-0.1-0.1-0.3-0.1-0.4-0.1C89.2,8,89.1,8,88.9,8c-0.2,0-0.3,0-0.5,0"/>
		
			<path fill="none" stroke="#000000" stroke-width="0.388" stroke-linecap="round" stroke-linejoin="round" stroke-miterlimit="10" d="
			M89.2,8c-0.1,0-0.2,0.1-0.3,0.1c-0.1,0-0.2,0-0.3,0"/>
		
			<path fill="none" stroke="#000000" stroke-width="0.388" stroke-linecap="round" stroke-linejoin="round" stroke-miterlimit="10" d="
			M88.4,8.1C88.4,8.1,88.3,8.1,88.4,8.1c-0.1,0-0.2,0-0.3,0"/>
		
			<path fill="none" stroke="#000000" stroke-width="0.388" stroke-linecap="round" stroke-linejoin="round" stroke-miterlimit="10" d="
			M88.1,8.1C88.1,8.1,88.1,8.1,88.1,8.1C88,8,87.9,8,87.8,8"/>
		
			<path fill="none" stroke="#000000" stroke-width="0.388" stroke-linecap="round" stroke-linejoin="round" stroke-miterlimit="10" d="
			M59,30.1C59,30.1,59,30.1,59,30.1c-0.1,0-0.2,0-0.3,0"/>
		
			<path fill="none" stroke="#000000" stroke-width="0.388" stroke-linecap="round" stroke-linejoin="round" stroke-miterlimit="10" d="
			M58.8,30.1C58.7,30,58.7,30,58.8,30.1c-0.1,0-0.2,0-0.3-0.1"/>
		
			<path fill="none" stroke="#000000" stroke-width="0.388" stroke-linecap="round" stroke-linejoin="round" stroke-miterlimit="10" d="
			M125.3,28.6C125.2,28.6,125.2,28.6,125.3,28.6c-0.1,0-0.2,0-0.3,0"/>
		
			<path fill="none" stroke="#000000" stroke-width="0.388" stroke-linecap="round" stroke-linejoin="round" stroke-miterlimit="10" d="
			M125,28.6C125,28.6,125,28.6,125,28.6c-0.1,0-0.2,0-0.3-0.1"/>
		
			<path fill="none" stroke="#000000" stroke-width="0.388" stroke-linecap="round" stroke-linejoin="round" stroke-miterlimit="10" d="
			M94.9,29.4C94.8,29.4,94.8,29.4,94.9,29.4c-0.1-0.1-0.1-0.1-0.1-0.1"/>
		
			<path fill="none" stroke="#000000" stroke-width="0.388" stroke-linecap="round" stroke-linejoin="round" stroke-miterlimit="10" d="
			M102.9,29.9c-0.5,0.1-1,0.2-1.5,0.3c-1.6,0.3-3.2,0.5-4.9,0.6"/>
		
			<path fill="none" stroke="#000000" stroke-width="0.388" stroke-linecap="round" stroke-linejoin="round" stroke-miterlimit="10" d="
			M96.4,30.7C96.4,30.7,96.3,30.7,96.4,30.7c-0.2-0.1-0.2-0.2-0.3-0.2"/>
		
			<path fill="none" stroke="#000000" stroke-width="0.388" stroke-linecap="round" stroke-linejoin="round" stroke-miterlimit="10" d="
			M132.5,21.6C132.5,21.6,132.5,21.6,132.5,21.6c-0.1,0-0.1,0-0.1,0"/>
		
			<path fill="none" stroke="#000000" stroke-width="0.388" stroke-linecap="round" stroke-linejoin="round" stroke-miterlimit="10" d="
			M132.7,22.9c0,0.5-0.1,1-0.2,1.4c-0.1,0.5-0.3,1-0.6,1.4c-0.3,0.5-0.6,1-0.9,1.4c-0.4,0.5-0.8,0.9-1.3,1.4
			c-0.5,0.5-1.1,0.9-1.6,1.3c-0.6,0.5-1.3,0.9-1.9,1.3c-0.7,0.4-1.5,0.8-2.2,1.2c-0.8,0.4-1.7,0.8-2.5,1.1c-0.9,0.4-1.9,0.7-2.8,1
			c-1,0.3-2,0.6-3.1,0.9c-2.2,0.6-4.5,1.1-6.7,1.5c-2.4,0.4-4.9,0.7-7.4,1c-2.6,0.2-5.1,0.4-7.7,0.4"/>
		
			<path fill="none" stroke="#000000" stroke-width="0.388" stroke-linecap="round" stroke-linejoin="round" stroke-miterlimit="10" d="
			M96.5,31.6c1.2-0.1,2.4-0.2,3.6-0.4c1.1-0.2,2.3-0.4,3.4-0.6"/>
		
			<path fill="none" stroke="#000000" stroke-width="0.388" stroke-linecap="round" stroke-linejoin="round" stroke-miterlimit="10" d="
			M103.5,30.6c0.3,0.1,0.7,0.1,1,0.2c0.3,0.1,0.6,0.2,0.9,0.3c0.2,0.1,0.5,0.2,0.7,0.3c0.2,0.1,0.3,0.2,0.5,0.4"/>
		
			<path fill="none" stroke="#000000" stroke-width="0.388" stroke-linecap="round" stroke-linejoin="round" stroke-miterlimit="10" d="
			M106.6,31.8c0.1,0.1,0.2,0.2,0.2,0.3c0,0.1,0.1,0.2,0.1,0.3"/>
		
			<path fill="none" stroke="#000000" stroke-width="0.388" stroke-linecap="round" stroke-linejoin="round" stroke-miterlimit="10" d="
			M107,32.6c0-0.1,0-0.1,0-0.2"/>
		
			<path fill="none" stroke="#000000" stroke-width="0.388" stroke-linecap="round" stroke-linejoin="round" stroke-miterlimit="10" d="
			M87.6,8c0,0,0.1,0.1,0.2,0.1c0.1,0,0.2,0.1,0.2,0.1c0.2,0,0.4,0.1,0.6,0.1"/>
		
			<path fill="none" stroke="#000000" stroke-width="0.388" stroke-linecap="round" stroke-linejoin="round" stroke-miterlimit="10" d="
			M88.3,7.3c2.6-0.1,5.2,0,7.8,0.1c2.6,0.1,5.1,0.3,7.6,0.6c2.4,0.3,4.8,0.7,7.2,1.2c2.2,0.4,4.4,1,6.5,1.6c1,0.3,1.9,0.6,2.9,1
			c0.9,0.3,1.8,0.7,2.6,1.1c0.8,0.4,1.6,0.7,2.4,1.2c0.7,0.4,1.4,0.8,2.1,1.2c0.6,0.4,1.2,0.8,1.7,1.3c0.5,0.4,1,0.9,1.4,1.4
			c0.4,0.4,0.7,0.9,1.1,1.4c0.3,0.5,0.5,0.9,0.7,1.4"/>
		
			<path fill="none" stroke="#000000" stroke-width="0.388" stroke-linecap="round" stroke-linejoin="round" stroke-miterlimit="10" d="
			M132.3,20.8c0,0.1,0,0.1,0.1,0.2c0.1,0.2,0.1,0.4,0.2,0.6"/>
		
			<path fill="none" stroke="#000000" stroke-width="0.388" stroke-linecap="round" stroke-linejoin="round" stroke-miterlimit="10" d="
			M95.9,32.4c0,0.1,0,0.1,0,0.2c0,0.1,0.1,0.1,0.1,0.2c0,0.1,0.1,0.1,0.2,0.2c0.1,0.1,0.1,0.1,0.2,0.2c0.2,0.1,0.4,0.3,0.6,0.4
			c0.3,0.1,0.5,0.2,0.8,0.3"/>
		
			<path fill="none" stroke="#000000" stroke-width="0.388" stroke-linecap="round" stroke-linejoin="round" stroke-miterlimit="10" d="
			M96,32.4c0-0.1,0-0.2,0.1-0.3c0-0.1,0.1-0.2,0.2-0.3"/>
		
			<path fill="none" stroke="#000000" stroke-width="0.388" stroke-linecap="round" stroke-linejoin="round" stroke-miterlimit="10" d="
			M96.2,31.8C96.3,31.8,96.3,31.8,96.2,31.8c0.1-0.1,0.1-0.1,0.2-0.2"/>
		
			<path fill="none" stroke="#000000" stroke-width="0.388" stroke-linecap="round" stroke-linejoin="round" stroke-miterlimit="10" d="
			M131.7,22C131.7,22.1,131.7,22.1,131.7,22C131.8,22.1,131.8,22.1,131.7,22c0.1,0,0.1,0,0.1,0"/>
		
			<path fill="none" stroke="#000000" stroke-width="0.388" stroke-linecap="round" stroke-linejoin="round" stroke-miterlimit="10" d="
			M88.6,9.2c0.1,0,0.3,0,0.4,0c0.1,0,0.2,0,0.4-0.1c0.1,0,0.2-0.1,0.3-0.1c0.1,0,0.2-0.1,0.2-0.1c0.1,0,0.1-0.1,0.2-0.1
			c0,0,0.1-0.1,0.1-0.1c0,0,0,0,0-0.1c0,0,0-0.1,0-0.1c0-0.1-0.1-0.1-0.1-0.1"/>
		
			<path fill="none" stroke="#000000" stroke-width="0.388" stroke-linecap="round" stroke-linejoin="round" stroke-miterlimit="10" d="
			M94.6,29.7c0,0.1,0,0.2,0.1,0.3c0.1,0.1,0.1,0.2,0.2,0.3"/>
		
			<path fill="none" stroke="#000000" stroke-width="0.388" stroke-linecap="round" stroke-linejoin="round" stroke-miterlimit="10" d="
			M88.6,8.3c0.2,0,0.3,0,0.5-0.1c0.1,0,0.1,0,0.2-0.1c0,0,0.1-0.1,0.1-0.1"/>
		
			<path fill="none" stroke="#000000" stroke-width="0.388" stroke-linecap="round" stroke-linejoin="round" stroke-miterlimit="10" d="
			M59.2,30.3c0.2,0,0.3,0,0.5-0.1c0.1,0,0.1,0,0.2-0.1c0,0,0.1-0.1,0.1-0.1"/>
		
			<path fill="none" stroke="#000000" stroke-width="0.388" stroke-linecap="round" stroke-linejoin="round" stroke-miterlimit="10" d="
			M125.5,28.8c0.2,0,0.3,0,0.5-0.1c0.1,0,0.1,0,0.2-0.1c0,0,0.1-0.1,0.1-0.1"/>
		
			<path fill="none" stroke="#000000" stroke-width="0.388" stroke-linecap="round" stroke-linejoin="round" stroke-miterlimit="10" d="
			M59.3,31.2c0.1,0,0.3,0,0.4,0c0.1,0,0.2,0,0.4-0.1c0.1,0,0.2-0.1,0.3-0.1c0.1,0,0.2-0.1,0.2-0.1c0.1,0,0.1-0.1,0.2-0.1
			c0,0,0.1-0.1,0.1-0.1c0,0,0,0,0-0.1c0,0,0-0.1,0-0.1c0-0.1-0.1-0.1-0.1-0.1"/>
		
			<path fill="none" stroke="#000000" stroke-width="0.388" stroke-linecap="round" stroke-linejoin="round" stroke-miterlimit="10" d="
			M132.5,22.1C132.5,22.1,132.6,22.1,132.5,22.1c0.1,0,0.1,0,0.1,0"/>
		
			<path fill="none" stroke="#000000" stroke-width="0.388" stroke-linecap="round" stroke-linejoin="round" stroke-miterlimit="10" d="
			M123.9,28.9c0,0-0.1,0.1-0.1,0.2c0,0,0,0.1,0,0.1c0,0,0,0.1,0,0.1c0,0.1,0.1,0.1,0.1,0.2c0.1,0.1,0.1,0.1,0.2,0.1
			c0.1,0,0.2,0.1,0.3,0.1c0.1,0,0.2,0.1,0.4,0.1c0.1,0,0.3,0,0.4,0c0.1,0,0.3,0,0.4,0"/>
		
			<path fill="none" stroke="#000000" stroke-width="0.388" stroke-linecap="round" stroke-linejoin="round" stroke-miterlimit="10" d="
			M98.2,34.1c0.6,0.1,1.1,0.2,1.7,0.3c0.6,0.1,1.3,0.1,1.9,0.1"/>
		
			<path fill="none" stroke="#000000" stroke-width="0.388" stroke-linecap="round" stroke-linejoin="round" stroke-miterlimit="10" d="
			M49.4,21.6c0.1-0.5,0.2-0.9,0.4-1.4c0.2-0.5,0.5-0.9,0.7-1.4c0.3-0.5,0.7-0.9,1.1-1.3c0.4-0.5,0.9-0.9,1.4-1.3
			c0.5-0.4,1.1-0.9,1.7-1.2c0.6-0.4,1.3-0.8,2-1.2c0.7-0.4,1.5-0.8,2.3-1.1c0.8-0.4,1.7-0.7,2.5-1c1.9-0.7,3.8-1.3,5.7-1.8
			c2.2-0.5,4.3-1,6.5-1.3c2.3-0.4,4.7-0.7,7.1-0.9c2.5-0.2,4.9-0.4,7.4-0.4"/>
		
			<path fill="none" stroke="#000000" stroke-width="0.388" stroke-linecap="round" stroke-linejoin="round" stroke-miterlimit="10" d="
			M101.8,34.5c0.6,0,1.2-0.1,1.8-0.1c0.5-0.1,1-0.2,1.5-0.4c0.2-0.1,0.4-0.1,0.6-0.2c0.2-0.1,0.4-0.2,0.5-0.3
			c0.1-0.1,0.3-0.2,0.4-0.3c0.1-0.1,0.2-0.2,0.2-0.3"/>
		
			<path fill="none" stroke="#000000" stroke-width="0.388" stroke-linecap="round" stroke-linejoin="round" stroke-miterlimit="10" d="
			M125.5,29.7c0.1,0,0.3,0,0.4,0c0.1,0,0.2,0,0.4-0.1c0.1,0,0.2-0.1,0.3-0.1c0.1,0,0.2-0.1,0.2-0.1c0.1,0,0.1-0.1,0.2-0.1
			c0,0,0.1-0.1,0.1-0.1c0,0,0,0,0-0.1c0,0,0-0.1,0-0.1c0-0.1-0.1-0.1-0.1-0.1"/>
		
			<path fill="none" stroke="#000000" stroke-width="0.388" stroke-linecap="round" stroke-linejoin="round" stroke-miterlimit="10" d="
			M124.5,28.6c0,0,0.1,0.1,0.2,0.1c0.1,0,0.2,0.1,0.2,0.1c0.2,0,0.4,0.1,0.6,0.1"/>
		
			<path fill="none" stroke="#000000" stroke-width="0.388" stroke-linecap="round" stroke-linejoin="round" stroke-miterlimit="10" d="
			M57.6,30.3c0,0-0.1,0.1-0.1,0.2c0,0,0,0.1,0,0.1c0,0,0,0.1,0,0.1c0,0.1,0.1,0.1,0.1,0.2c0.1,0.1,0.1,0.1,0.2,0.1
			c0.1,0,0.2,0.1,0.3,0.1c0.1,0,0.2,0.1,0.4,0.1c0.1,0,0.3,0,0.4,0.1c0.1,0,0.3,0,0.4,0"/>
		
			<path fill="none" stroke="#000000" stroke-width="0.388" stroke-linecap="round" stroke-linejoin="round" stroke-miterlimit="10" d="
			M96.1,31.3C96.1,31.4,96.1,31.4,96.1,31.3c0.1,0.1,0.2,0.2,0.3,0.2"/>
		
			<path fill="none" stroke="#000000" stroke-width="0.388" stroke-linecap="round" stroke-linejoin="round" stroke-miterlimit="10" d="
			M58.2,30c0,0,0.1,0.1,0.2,0.1c0.1,0,0.2,0.1,0.2,0.1c0.2,0,0.4,0.1,0.6,0.1"/>
		
			<path fill="none" stroke="#000000" stroke-width="0.388" stroke-linecap="round" stroke-linejoin="round" stroke-miterlimit="10" d="
			M87,8.3c0,0-0.1,0.1-0.1,0.2c0,0,0,0.1,0,0.1c0,0,0,0.1,0,0.1c0,0.1,0.1,0.1,0.1,0.2c0.1,0.1,0.1,0.1,0.2,0.1
			C87.2,9,87.3,9,87.4,9c0.1,0,0.2,0.1,0.4,0.1c0.1,0,0.3,0,0.4,0.1c0.1,0,0.3,0,0.4,0"/>
		
			<line fill="none" stroke="#000000" stroke-width="0.388" stroke-linecap="round" stroke-linejoin="round" stroke-miterlimit="10" stroke-dasharray="2.74,2.74" x1="58.9" y1="33.2" x2="58.9" y2="57.3"/>
		
			<line fill="none" stroke="#000000" stroke-width="0.388" stroke-linecap="round" stroke-linejoin="round" stroke-miterlimit="10" stroke-dasharray="2.74,2.74" x1="88.8" y1="11" x2="89.2" y2="50"/>
		
			<line fill="none" stroke="#000000" stroke-width="0.388" stroke-linecap="round" stroke-linejoin="round" stroke-miterlimit="10" stroke-dasharray="2.74,2.74" x1="125.5" y1="32.7" x2="125.5" y2="56.9"/>
		<path fill="#231F20" d="M28.6,14.6c0,3.6-2.9,6.5-6.5,6.5c-3.6,0-6.5-2.9-6.5-6.5s2.9-6.5,6.5-6.5C25.6,8.1,28.6,11,28.6,14.6"/>
		<circle fill="none" stroke="#231F20" stroke-width="0.453" stroke-miterlimit="10" cx="22" cy="14.6" r="6.5"/>
	</g>
	<text transform="matrix(1 0 0 1 19.0435 18.2393)" fill="#FFFFFF" font-family="'Arial-BoldMT'" font-size="10.9749">5</text>
	
		<line fill="none" stroke="#000000" stroke-width="0.388" stroke-linecap="round" stroke-linejoin="round" stroke-miterlimit="10" stroke-dasharray="2.74,2.74" x1="101.6" y1="34.5" x2="101.6" y2="58.7"/>
</g>
</svg>
