<?xml version="1.0" encoding="utf-8"?>
<!-- Generator: Adobe Illustrator 16.0.0, SVG Export Plug-In . SVG Version: 6.00 Build 0)  -->
<!DOCTYPE svg PUBLIC "-//W3C//DTD SVG 1.1//EN" "http://www.w3.org/Graphics/SVG/1.1/DTD/svg11.dtd">
<svg version="1.1" id="Layer_1" xmlns="http://www.w3.org/2000/svg" xmlns:xlink="http://www.w3.org/1999/xlink" x="0px" y="0px"
	 width="168px" height="113px" viewBox="0 0 168 113" enable-background="new 0 0 168 113" xml:space="preserve">
<g>
	
		<line fill="none" stroke="#000000" stroke-width="0.428" stroke-linecap="round" stroke-linejoin="round" stroke-miterlimit="10" x1="55.6" y1="20.7" x2="55.6" y2="19.9"/>
	
		<line fill="none" stroke="#000000" stroke-width="0.428" stroke-linecap="round" stroke-linejoin="round" stroke-miterlimit="10" x1="133.1" y1="20.2" x2="133.1" y2="20.9"/>
	
		<line fill="none" stroke="#000000" stroke-width="0.428" stroke-linecap="round" stroke-linejoin="round" stroke-miterlimit="10" x1="133" y1="19.7" x2="133" y2="19.7"/>
	
		<line fill="none" stroke="#000000" stroke-width="0.428" stroke-linecap="round" stroke-linejoin="round" stroke-miterlimit="10" x1="133" y1="18.9" x2="133" y2="18.9"/>
	
		<line fill="none" stroke="#000000" stroke-width="0.428" stroke-linecap="round" stroke-linejoin="round" stroke-miterlimit="10" x1="132.2" y1="19.8" x2="132.2" y2="19.8"/>
	
		<line fill="none" stroke="#000000" stroke-width="0.428" stroke-linecap="round" stroke-linejoin="round" stroke-miterlimit="10" x1="133" y1="19.7" x2="133" y2="18.9"/>
	
		<line fill="none" stroke="#000000" stroke-width="0.428" stroke-linecap="round" stroke-linejoin="round" stroke-miterlimit="10" x1="133.1" y1="20.9" x2="133.2" y2="20.1"/>
	
		<line fill="none" stroke="#000000" stroke-width="0.428" stroke-linecap="round" stroke-linejoin="round" stroke-miterlimit="10" x1="132.3" y1="20.1" x2="132.2" y2="19.8"/>
	
		<line fill="none" stroke="#000000" stroke-width="0.428" stroke-linecap="round" stroke-linejoin="round" stroke-miterlimit="10" x1="133" y1="20.2" x2="132.4" y2="20.2"/>
	
		<line fill="none" stroke="#000000" stroke-width="0.428" stroke-linecap="round" stroke-linejoin="round" stroke-miterlimit="10" x1="132.3" y1="19.7" x2="132.9" y2="19.7"/>
	<g>
		
			<path fill="none" stroke="#000000" stroke-width="0.428" stroke-linecap="round" stroke-linejoin="round" stroke-miterlimit="10" d="
			M55.7,19.7c0,0.1,0,0.1,0,0.2"/>
		
			<path fill="none" stroke="#000000" stroke-width="0.428" stroke-linecap="round" stroke-linejoin="round" stroke-miterlimit="10" d="
			M55.6,19.9c0,0.3-0.1,0.5-0.1,0.8"/>
		
			<path fill="none" stroke="#000000" stroke-width="0.428" stroke-linecap="round" stroke-linejoin="round" stroke-miterlimit="10" d="
			M91.9,7.2c0.1,0,0.1,0,0.2,0"/>
		
			<path fill="none" stroke="#000000" stroke-width="0.428" stroke-linecap="round" stroke-linejoin="round" stroke-miterlimit="10" d="
			M64.6,27.6c0.1,0,0.1,0,0.2,0"/>
		
			<path fill="none" stroke="#000000" stroke-width="0.428" stroke-linecap="round" stroke-linejoin="round" stroke-miterlimit="10" d="
			M133.1,19.7c0-0.1,0-0.2,0-0.2"/>
		
			<path fill="none" stroke="#000000" stroke-width="0.428" stroke-linecap="round" stroke-linejoin="round" stroke-miterlimit="10" d="
			M133.2,20.1c0-0.1,0-0.3,0-0.4"/>
		
			<path fill="none" stroke="#000000" stroke-width="0.428" stroke-linecap="round" stroke-linejoin="round" stroke-miterlimit="10" d="
			M126.3,26.3c0.1,0,0.1,0,0.2,0"/>
		
			<path fill="none" stroke="#000000" stroke-width="0.428" stroke-linecap="round" stroke-linejoin="round" stroke-miterlimit="10" d="
			M132.3,19.7C132.3,19.7,132.3,19.7,132.3,19.7C132.2,19.8,132.2,19.8,132.3,19.7"/>
		
			<path fill="none" stroke="#000000" stroke-width="0.428" stroke-linecap="round" stroke-linejoin="round" stroke-miterlimit="10" d="
			M96.9,35.1c-2.6,0.1-5.3,0-7.9-0.1c-2.6-0.1-5.1-0.4-7.7-0.7c-2.4-0.3-4.8-0.7-7.1-1.3c-1.1-0.3-2.2-0.5-3.3-0.8c-1-0.3-2-0.6-3-1
			c-0.9-0.3-1.8-0.7-2.8-1.1c-0.8-0.4-1.6-0.7-2.4-1.2c-0.7-0.4-1.4-0.8-2.1-1.2c-0.6-0.4-1.2-0.8-1.8-1.3c-0.5-0.4-1-0.9-1.4-1.4
			c-0.4-0.4-0.7-0.9-1-1.4c-0.3-0.5-0.5-0.9-0.6-1.5c-0.1-0.5-0.2-1-0.2-1.5"/>
		
			<path fill="none" stroke="#000000" stroke-width="0.428" stroke-linecap="round" stroke-linejoin="round" stroke-miterlimit="10" d="
			M91.9,7c-0.3,0-0.5,0-0.8,0.1c-0.1,0-0.2,0.1-0.3,0.1c-0.1,0-0.2,0.1-0.2,0.1"/>
		
			<path fill="none" stroke="#000000" stroke-width="0.428" stroke-linecap="round" stroke-linejoin="round" stroke-miterlimit="10" d="
			M64.6,27.5c-0.3,0-0.5,0-0.8,0.1c-0.1,0-0.2,0.1-0.3,0.1c-0.1,0-0.2,0.1-0.2,0.1"/>
		
			<path fill="none" stroke="#000000" stroke-width="0.428" stroke-linecap="round" stroke-linejoin="round" stroke-miterlimit="10" d="
			M126.3,26.1c-0.3,0-0.5,0-0.8,0.1c-0.1,0-0.2,0.1-0.3,0.1c-0.1,0-0.2,0.1-0.2,0.1"/>
		
			<path fill="none" stroke="#000000" stroke-width="0.428" stroke-linecap="round" stroke-linejoin="round" stroke-miterlimit="10" d="
			M133.1,19.4C133.1,19.4,133.1,19.4,133.1,19.4C133.1,19.4,133,19.4,133.1,19.4"/>
		
			<path fill="none" stroke="#000000" stroke-width="0.428" stroke-linecap="round" stroke-linejoin="round" stroke-miterlimit="10" d="
			M127.8,26.5c-0.1-0.1-0.2-0.1-0.3-0.2c-0.1,0-0.2-0.1-0.4-0.1c-0.1,0-0.3-0.1-0.4-0.1c-0.2,0-0.3,0-0.5,0"/>
		
			<path fill="none" stroke="#000000" stroke-width="0.428" stroke-linecap="round" stroke-linejoin="round" stroke-miterlimit="10" d="
			M127,26.2c-0.1,0-0.2,0-0.3,0.1c-0.1,0-0.2,0-0.3,0"/>
		
			<path fill="none" stroke="#000000" stroke-width="0.428" stroke-linecap="round" stroke-linejoin="round" stroke-miterlimit="10" d="
			M66.1,27.8c-0.1-0.1-0.2-0.1-0.3-0.1c-0.1,0-0.2-0.1-0.4-0.1c-0.1,0-0.3-0.1-0.4-0.1c-0.2,0-0.3,0-0.5,0"/>
		
			<path fill="none" stroke="#000000" stroke-width="0.428" stroke-linecap="round" stroke-linejoin="round" stroke-miterlimit="10" d="
			M65.3,27.5c-0.1,0-0.2,0-0.3,0.1c-0.1,0-0.2,0-0.3,0"/>
		
			<path fill="none" stroke="#000000" stroke-width="0.428" stroke-linecap="round" stroke-linejoin="round" stroke-miterlimit="10" d="
			M93.5,7.4c-0.1-0.1-0.2-0.1-0.3-0.1c-0.1,0-0.2-0.1-0.4-0.1c-0.1,0-0.3-0.1-0.4-0.1c-0.2,0-0.3,0-0.5,0"/>
		
			<path fill="none" stroke="#000000" stroke-width="0.428" stroke-linecap="round" stroke-linejoin="round" stroke-miterlimit="10" d="
			M92.7,7.1c-0.1,0-0.2,0-0.3,0.1c-0.1,0-0.2,0-0.3,0"/>
		
			<path fill="none" stroke="#000000" stroke-width="0.428" stroke-linecap="round" stroke-linejoin="round" stroke-miterlimit="10" d="
			M91.9,7.2C91.9,7.2,91.9,7.2,91.9,7.2c-0.1,0-0.2,0-0.2,0"/>
		
			<path fill="none" stroke="#000000" stroke-width="0.428" stroke-linecap="round" stroke-linejoin="round" stroke-miterlimit="10" d="
			M91.7,7.1C91.7,7.1,91.6,7.1,91.7,7.1c-0.1,0-0.2,0-0.3-0.1"/>
		
			<path fill="none" stroke="#000000" stroke-width="0.428" stroke-linecap="round" stroke-linejoin="round" stroke-miterlimit="10" d="
			M64.6,27.6C64.6,27.6,64.5,27.6,64.6,27.6c-0.1,0-0.2,0-0.2,0"/>
		
			<path fill="none" stroke="#000000" stroke-width="0.428" stroke-linecap="round" stroke-linejoin="round" stroke-miterlimit="10" d="
			M64.3,27.6C64.3,27.6,64.3,27.6,64.3,27.6c-0.1,0-0.2,0-0.3-0.1"/>
		
			<path fill="none" stroke="#000000" stroke-width="0.428" stroke-linecap="round" stroke-linejoin="round" stroke-miterlimit="10" d="
			M126.3,26.3C126.2,26.3,126.2,26.3,126.3,26.3c-0.1,0-0.2,0-0.2,0"/>
		
			<path fill="none" stroke="#000000" stroke-width="0.428" stroke-linecap="round" stroke-linejoin="round" stroke-miterlimit="10" d="
			M126,26.3C126,26.2,126,26.2,126,26.3c-0.1,0-0.2,0-0.3-0.1"/>
		
			<path fill="none" stroke="#000000" stroke-width="0.428" stroke-linecap="round" stroke-linejoin="round" stroke-miterlimit="10" d="
			M133,19.7C133,19.7,133,19.7,133,19.7C133,19.7,132.9,19.7,133,19.7"/>
		
			<path fill="none" stroke="#000000" stroke-width="0.428" stroke-linecap="round" stroke-linejoin="round" stroke-miterlimit="10" d="
			M133.1,20.9c0,0.5-0.1,0.9-0.2,1.3c-0.1,0.5-0.3,0.9-0.5,1.3c-0.2,0.5-0.5,0.9-0.9,1.3c-0.4,0.5-0.8,0.9-1.2,1.3
			c-0.5,0.4-1,0.8-1.5,1.2c-0.6,0.4-1.2,0.8-1.8,1.2c-0.7,0.4-1.4,0.8-2.1,1.1c-0.8,0.4-1.6,0.7-2.4,1c-0.9,0.3-1.7,0.6-2.6,0.9
			c-0.9,0.3-1.9,0.6-2.8,0.8c-2.1,0.6-4.2,1-6.3,1.4c-2.3,0.4-4.6,0.7-6.8,0.9c-2.4,0.2-4.8,0.4-7.2,0.4"/>
		
			<path fill="none" stroke="#000000" stroke-width="0.428" stroke-linecap="round" stroke-linejoin="round" stroke-miterlimit="10" d="
			M91.2,7.1c0,0,0.1,0.1,0.1,0.1c0.1,0,0.1,0.1,0.2,0.1c0.2,0,0.4,0.1,0.5,0.1"/>
		
			<path fill="none" stroke="#000000" stroke-width="0.428" stroke-linecap="round" stroke-linejoin="round" stroke-miterlimit="10" d="
			M91.8,6.5c2.4-0.1,4.9,0,7.3,0.1c2.4,0.1,4.7,0.3,7.1,0.6c2.2,0.3,4.5,0.6,6.7,1.1c2,0.4,4.1,0.9,6,1.5c0.9,0.3,1.8,0.6,2.7,0.9
			c0.8,0.3,1.7,0.6,2.5,1c0.7,0.3,1.5,0.7,2.2,1.1c0.7,0.4,1.3,0.7,1.9,1.2c0.6,0.4,1.1,0.8,1.6,1.2c0.5,0.4,0.9,0.8,1.3,1.3
			c0.4,0.4,0.7,0.8,1,1.3c0.3,0.4,0.5,0.9,0.6,1.3"/>
		
			<path fill="none" stroke="#000000" stroke-width="0.428" stroke-linecap="round" stroke-linejoin="round" stroke-miterlimit="10" d="
			M132.8,19c0,0.1,0,0.1,0.1,0.2c0.1,0.2,0.1,0.3,0.1,0.5"/>
		
			<path fill="none" stroke="#000000" stroke-width="0.428" stroke-linecap="round" stroke-linejoin="round" stroke-miterlimit="10" d="
			M132.3,20.1C132.3,20.2,132.3,20.2,132.3,20.1C132.3,20.2,132.3,20.2,132.3,20.1c0.1,0,0.1,0,0.1,0"/>
		
			<path fill="none" stroke="#000000" stroke-width="0.428" stroke-linecap="round" stroke-linejoin="round" stroke-miterlimit="10" d="
			M92.1,8.2c0.1,0,0.2,0,0.4,0c0.1,0,0.2,0,0.3-0.1C92.9,8.1,93,8,93.1,8c0.1,0,0.2-0.1,0.2-0.1c0.1,0,0.1-0.1,0.2-0.1
			c0,0,0.1-0.1,0.1-0.1c0,0,0,0,0-0.1c0,0,0,0,0-0.1c0-0.1-0.1-0.1-0.1-0.1"/>
		
			<path fill="none" stroke="#000000" stroke-width="0.428" stroke-linecap="round" stroke-linejoin="round" stroke-miterlimit="10" d="
			M92.1,7.3c0.2,0,0.3,0,0.5-0.1c0.1,0,0.1,0,0.2-0.1c0,0,0.1,0,0.1-0.1"/>
		
			<path fill="none" stroke="#000000" stroke-width="0.428" stroke-linecap="round" stroke-linejoin="round" stroke-miterlimit="10" d="
			M64.8,27.8c0.2,0,0.3,0,0.5-0.1c0.1,0,0.1,0,0.2-0.1c0,0,0.1,0,0.1-0.1"/>
		
			<path fill="none" stroke="#000000" stroke-width="0.428" stroke-linecap="round" stroke-linejoin="round" stroke-miterlimit="10" d="
			M126.4,26.4c0.2,0,0.3,0,0.5-0.1c0.1,0,0.1,0,0.2-0.1c0,0,0.1,0,0.1-0.1"/>
		
			<path fill="none" stroke="#000000" stroke-width="0.428" stroke-linecap="round" stroke-linejoin="round" stroke-miterlimit="10" d="
			M64.8,28.6c0.1,0,0.2,0,0.4,0c0.1,0,0.2,0,0.3-0.1c0.1,0,0.2,0,0.3-0.1c0.1,0,0.2-0.1,0.2-0.1c0.1,0,0.1-0.1,0.2-0.1
			c0,0,0.1-0.1,0.1-0.1c0,0,0,0,0-0.1c0,0,0,0,0-0.1c0-0.1-0.1-0.1-0.1-0.1"/>
		
			<path fill="none" stroke="#000000" stroke-width="0.428" stroke-linecap="round" stroke-linejoin="round" stroke-miterlimit="10" d="
			M133,20.2C133,20.2,133,20.2,133,20.2c0.1,0,0.1,0,0.1,0"/>
		
			<path fill="none" stroke="#000000" stroke-width="0.428" stroke-linecap="round" stroke-linejoin="round" stroke-miterlimit="10" d="
			M124.9,26.5c0,0-0.1,0.1-0.1,0.1c0,0,0,0,0,0.1c0,0,0,0,0,0.1c0,0.1,0,0.1,0.1,0.1C125,27,125,27,125.1,27c0.1,0,0.2,0.1,0.3,0.1
			c0.1,0,0.2,0.1,0.3,0.1c0.1,0,0.3,0,0.4,0c0.1,0,0.3,0,0.4,0"/>
		
			<path fill="none" stroke="#000000" stroke-width="0.428" stroke-linecap="round" stroke-linejoin="round" stroke-miterlimit="10" d="
			M55.7,19.7c0.1-0.4,0.2-0.9,0.4-1.3c0.2-0.4,0.4-0.9,0.7-1.3c0.3-0.4,0.6-0.8,1-1.2c0.4-0.4,0.8-0.8,1.3-1.2
			c0.5-0.4,1-0.8,1.6-1.1c0.6-0.4,1.2-0.8,1.9-1.1c0.7-0.4,1.4-0.7,2.1-1c0.8-0.3,1.6-0.7,2.4-0.9c1.8-0.6,3.5-1.2,5.4-1.6
			c2-0.5,4-0.9,6.1-1.3c2.2-0.4,4.4-0.6,6.6-0.8c2.3-0.2,4.6-0.3,6.9-0.4"/>
		
			<path fill="none" stroke="#000000" stroke-width="0.428" stroke-linecap="round" stroke-linejoin="round" stroke-miterlimit="10" d="
			M126.5,27.3c0.1,0,0.2,0,0.4,0c0.1,0,0.2,0,0.3-0.1c0.1,0,0.2,0,0.3-0.1c0.1,0,0.2-0.1,0.2-0.1c0.1,0,0.1-0.1,0.2-0.1
			c0,0,0.1-0.1,0.1-0.1c0,0,0,0,0-0.1c0,0,0,0,0-0.1c0-0.1-0.1-0.1-0.1-0.1"/>
		
			<path fill="none" stroke="#000000" stroke-width="0.428" stroke-linecap="round" stroke-linejoin="round" stroke-miterlimit="10" d="
			M125.5,26.2c0,0,0.1,0.1,0.1,0.1c0.1,0,0.1,0.1,0.2,0.1c0.2,0,0.4,0.1,0.5,0.1"/>
		
			<path fill="none" stroke="#000000" stroke-width="0.428" stroke-linecap="round" stroke-linejoin="round" stroke-miterlimit="10" d="
			M63.3,27.8c0,0-0.1,0.1-0.1,0.1c0,0,0,0,0,0.1s0,0,0,0.1c0,0.1,0,0.1,0.1,0.1c0.1,0.1,0.1,0.1,0.2,0.1c0.1,0,0.2,0.1,0.3,0.1
			c0.1,0,0.2,0.1,0.3,0.1c0.1,0,0.2,0,0.4,0c0.1,0,0.3,0,0.4,0"/>
		
			<path fill="none" stroke="#000000" stroke-width="0.428" stroke-linecap="round" stroke-linejoin="round" stroke-miterlimit="10" d="
			M63.9,27.6c0,0,0.1,0.1,0.1,0.1c0.1,0,0.1,0.1,0.2,0.1c0.2,0,0.4,0.1,0.5,0.1"/>
		
			<path fill="none" stroke="#000000" stroke-width="0.428" stroke-linecap="round" stroke-linejoin="round" stroke-miterlimit="10" d="
			M90.6,7.4c0,0-0.1,0.1-0.1,0.1c0,0,0,0,0,0.1c0,0,0,0.1,0,0.1c0,0.1,0,0.1,0.1,0.1c0.1,0.1,0.1,0.1,0.2,0.1C90.9,8,90.9,8,91,8
			c0.1,0,0.2,0.1,0.3,0.1c0.1,0,0.3,0,0.4,0c0.1,0,0.3,0,0.4,0"/>
		<path fill="#231F20" d="M29.3,11.8c0,3.2-2.6,5.9-5.9,5.9c-3.2,0-5.9-2.6-5.9-5.9c0-3.2,2.6-5.9,5.9-5.9
			C26.7,6,29.3,8.6,29.3,11.8"/>
		<circle fill="none" stroke="#231F20" stroke-width="0.574" stroke-miterlimit="10" cx="23.4" cy="11.8" r="5.9"/>
	</g>
	<text transform="matrix(1 0 0 1 20.7363 15.1143)" fill="#FFFFFF" font-family="'Arial-BoldMT'" font-size="9.8837">6</text>
	<g>
		<path fill="#C3C4C6" d="M103.8,27.6c2.6-0.2,4.8,0.6,4.8,1.7c0.1,1.1-2,2.1-4.6,2.3c-2.6,0.2-4.8-0.6-4.8-1.7
			C99.2,28.8,101.2,27.8,103.8,27.6"/>
		
			<ellipse transform="matrix(-6.663286e-02 -0.9978 0.9978 -6.663286e-02 81.3579 135.3335)" fill="none" stroke="#241A16" stroke-width="0.192" stroke-miterlimit="10" cx="104" cy="29.6" rx="2" ry="4.7"/>
		<path d="M103.8,27.6c2.5-0.2,4.6,0.6,4.7,1.2c0.1,0.8-1.9,1.5-4.5,1.7c-2.5,0.2-4.6-0.3-4.6-1.1C99.4,28.9,101.3,27.8,103.8,27.6"
			/>
		<path fill="none" stroke="#241A16" stroke-width="0.158" stroke-miterlimit="10" d="M103.8,27.6c2.5-0.2,4.6,0.6,4.7,1.2
			c0.1,0.8-1.9,1.5-4.5,1.7c-2.5,0.2-4.6-0.3-4.6-1.1C99.4,28.9,101.3,27.8,103.8,27.6z"/>
		<g opacity="0.2">
			<g>
				<defs>
					<rect id="SVGID_1_" x="100.3" y="25.6" width="7.2" height="40"/>
				</defs>
				<clipPath id="SVGID_2_">
					<use xlink:href="#SVGID_1_"  overflow="visible"/>
				</clipPath>
				<g clip-path="url(#SVGID_2_)">
					<defs>
						<rect id="SVGID_3_" x="100.3" y="25.6" width="7.2" height="40"/>
					</defs>
					<clipPath id="SVGID_4_">
						<use xlink:href="#SVGID_3_"  overflow="visible"/>
					</clipPath>
					<path clip-path="url(#SVGID_4_)" fill="#FFFFFF" d="M106,65.3c0-3.1-0.6-6.1-1.1-9.2c-0.5-3.3,0.2-6.5,1.3-9.6
						c0.6-1.6,1.3-2.8,1.2-4.5c0-1.5-0.6-3.1-1.2-4.5c-1.5-3.9-3.5-7.5-4.5-11.6c-0.1-0.4-1.6-0.5-1.5-0.1c0.9,3.9,2.8,7.4,4.3,11.1
						c0.6,1.5,1.2,3.1,1.3,4.8c0.2,1.9-0.8,3.5-1.4,5.1c-1.1,2.9-1.5,5.9-1.1,9c0.4,3.1,1,6,1.1,9.2C104.5,65.6,106,65.7,106,65.3"
						/>
				</g>
			</g>
		</g>
		<path fill="none" stroke="#2C2B2B" stroke-width="4.582" stroke-linecap="round" stroke-linejoin="round" d="M105.2,65.2
			c0-8.9-3.4-10.6,1-20.6c2.1-4.6-3.5-11.3-5.2-18.7"/>
		<path fill="none" stroke="#D1D2D3" stroke-width="3.436" stroke-linecap="round" stroke-linejoin="round" d="M105.2,65.2
			c0-8.9-3.4-10.6,1-20.6c2.1-4.6-3.5-11.3-5.2-18.7"/>
		<path fill="none" stroke="#FFFFFF" stroke-width="2.291" stroke-linecap="round" stroke-linejoin="round" d="M105.2,65.2
			c0-8.9-3.4-10.6,1-20.6c2.1-4.6-3.5-11.3-5.2-18.7"/>
		<polygon fill="#FFFFFF" points="102.4,27.7 104.1,27.6 104.6,18 98.5,18.8 99.8,28.7 		"/>
		<path fill="#58595B" d="M107.5,70.2l0-0.3l0-1.1l-0.1-0.1l-0.8-0.6l0-0.4l0.9,0.6l-0.2-0.5l-0.7-0.5l0-0.5l0.8,0.5l-0.2,0.4
			l0.2-0.4l0-0.5l-0.7-0.4l-0.1-0.4l0.7,0.5l-0.1-0.4l0-0.1l-0.6-0.4l0-0.4l0.6,0.4l-0.1-0.4l-0.5-0.3l0-0.4l0.5,0.3l0-0.2l-0.1-0.3
			c0,0-0.8-0.9-1.8-1c-0.6-0.1-1,0-1.3,0.1c-0.3,0.1-0.7,0.6-0.7,0.6l-0.2,0.6l0.4-0.3l-0.1,0.3l-0.3,0.3l-0.3,0.7l0.6-0.4l-0.1,0.3
			l-0.6,0.5l-0.1,0.5L103,66l-0.1,0.4l-0.6,0.5l-0.2,0.5l0.8-0.6l-0.2,0.4l-0.7,0.6l-0.2,0.4l0.9-0.5l-0.1,0.3l-0.9,0.6l-0.1,0.2
			l-0.1,1.1l0.2,0.1l2.7,1.5L107.5,70.2z"/>
		<path fill="none" stroke="#231F20" stroke-width="0.295" stroke-miterlimit="10" d="M107.5,70.2l0-0.3l0-1.1l-0.1-0.1l-0.8-0.6
			l0-0.4l0.9,0.6l-0.2-0.5l-0.7-0.5l0-0.5l0.8,0.5l-0.2,0.4l0.2-0.4l0-0.5l-0.7-0.4l-0.1-0.4l0.7,0.5l-0.1-0.4l0-0.1l-0.6-0.4l0-0.4
			l0.6,0.4l-0.1-0.4l-0.5-0.3l0-0.4l0.5,0.3l0-0.2l-0.1-0.3c0,0-0.8-0.9-1.8-1c-0.6-0.1-1,0-1.3,0.1c-0.3,0.1-0.7,0.6-0.7,0.6
			l-0.2,0.6l0.4-0.3l-0.1,0.3l-0.3,0.3l-0.3,0.7l0.6-0.4l-0.1,0.3l-0.6,0.5l-0.1,0.5L103,66l-0.1,0.4l-0.6,0.5l-0.2,0.5l0.8-0.6
			l-0.2,0.4l-0.7,0.6l-0.2,0.4l0.9-0.5l-0.1,0.3l-0.9,0.6l-0.1,0.2l-0.1,1.1l0.2,0.1l2.7,1.5L107.5,70.2z"/>
		<path fill="#231F20" d="M103.5,67.2l-0.1,0.5c0,0,0.7-0.4,0.9-0.5c0.2,0,0.7,0,0.8,0c0.1,0.1,0.9,0.5,0.9,0.5l0-0.4
			c0,0-0.5-0.4-0.8-0.6c-0.3-0.1-0.5,0-0.8,0C104.1,66.8,103.5,67.2,103.5,67.2"/>
		<path fill="none" stroke="#231F20" stroke-width="0.295" stroke-miterlimit="10" d="M103.5,67.2l-0.1,0.5c0,0,0.7-0.4,0.9-0.5
			c0.2,0,0.7,0,0.8,0c0.1,0.1,0.9,0.5,0.9,0.5l0-0.4c0,0-0.5-0.4-0.8-0.6c-0.3-0.1-0.5,0-0.8,0C104.1,66.8,103.5,67.2,103.5,67.2z"
			/>
		<path fill="#231F20" d="M103.6,66.4l-0.1,0.4c0,0,0.7-0.4,0.8-0.4c0.1,0,0.7,0,0.8,0c0.1,0.1,0.8,0.5,0.8,0.5l0-0.4
			c0,0-0.5-0.4-0.8-0.5c-0.3-0.1-0.5,0-0.8,0C104.1,66,103.6,66.4,103.6,66.4"/>
		<path fill="none" stroke="#231F20" stroke-width="0.295" stroke-miterlimit="10" d="M103.6,66.4l-0.1,0.4c0,0,0.7-0.4,0.8-0.4
			c0.1,0,0.7,0,0.8,0c0.1,0.1,0.8,0.5,0.8,0.5l0-0.4c0,0-0.5-0.4-0.8-0.5c-0.3-0.1-0.5,0-0.8,0C104.1,66,103.6,66.4,103.6,66.4z"/>
		<path fill="#231F20" d="M103.7,65.6l-0.1,0.4c0,0,0.7-0.4,0.8-0.4c0.1,0,0.7,0,0.8,0c0.1,0.1,0.8,0.5,0.8,0.5l0-0.4
			c0,0-0.5-0.4-0.8-0.5c-0.3-0.1-0.5,0-0.7,0C104.3,65.3,103.7,65.6,103.7,65.6"/>
		<path fill="none" stroke="#231F20" stroke-width="0.295" stroke-miterlimit="10" d="M103.7,65.6l-0.1,0.4c0,0,0.7-0.4,0.8-0.4
			c0.1,0,0.7,0,0.8,0c0.1,0.1,0.8,0.5,0.8,0.5l0-0.4c0,0-0.5-0.4-0.8-0.5c-0.3-0.1-0.5,0-0.7,0C104.3,65.3,103.7,65.6,103.7,65.6z"
			/>
		<path fill="#231F20" d="M103.8,64.7l-0.1,0.4c0,0,0.7-0.4,0.8-0.4c0.1,0,0.6,0,0.8,0s0.8,0.5,0.8,0.5l0-0.4c0,0-0.5-0.4-0.8-0.5
			c-0.3-0.1-0.5,0-0.7,0C104.3,64.4,103.8,64.7,103.8,64.7"/>
		<path fill="none" stroke="#231F20" stroke-width="0.295" stroke-miterlimit="10" d="M103.8,64.7l-0.1,0.4c0,0,0.7-0.4,0.8-0.4
			c0.1,0,0.6,0,0.8,0s0.8,0.5,0.8,0.5l0-0.4c0,0-0.5-0.4-0.8-0.5c-0.3-0.1-0.5,0-0.7,0C104.3,64.4,103.8,64.7,103.8,64.7z"/>
		<path fill="#231F20" d="M103.7,64l-0.1,0.4c0,0,0.7-0.4,0.8-0.4c0.1,0,0.6,0,0.7,0c0.1,0.1,0.8,0.5,0.8,0.5l0-0.4
			c0,0-0.5-0.4-0.8-0.5c-0.3-0.1-0.5,0-0.7,0C104.3,63.6,103.7,64,103.7,64"/>
		<path fill="none" stroke="#231F20" stroke-width="0.295" stroke-miterlimit="10" d="M103.7,64l-0.1,0.4c0,0,0.7-0.4,0.8-0.4
			c0.1,0,0.6,0,0.7,0c0.1,0.1,0.8,0.5,0.8,0.5l0-0.4c0,0-0.5-0.4-0.8-0.5c-0.3-0.1-0.5,0-0.7,0C104.3,63.6,103.7,64,103.7,64z"/>
		<line fill="none" stroke="#231F20" stroke-width="0.295" stroke-miterlimit="10" x1="107.3" y1="68.7" x2="107.5" y2="68.4"/>
		<line fill="none" stroke="#231F20" stroke-width="0.295" stroke-miterlimit="10" x1="107.1" y1="66.8" x2="107.3" y2="66.6"/>
		<line fill="none" stroke="#231F20" stroke-width="0.295" stroke-miterlimit="10" x1="106.9" y1="65.9" x2="107.1" y2="65.6"/>
		<line fill="none" stroke="#231F20" stroke-width="0.295" stroke-miterlimit="10" x1="106.9" y1="65" x2="107.1" y2="64.8"/>
		<line fill="none" stroke="#231F20" stroke-width="0.295" stroke-miterlimit="10" x1="102.5" y1="65.6" x2="102.7" y2="65.8"/>
		<line fill="none" stroke="#231F20" stroke-width="0.295" stroke-miterlimit="10" x1="102.9" y1="64.6" x2="103" y2="64.7"/>
		<line fill="none" stroke="#231F20" stroke-width="0.295" stroke-miterlimit="10" x1="102.3" y1="66.6" x2="102.6" y2="66.7"/>
		<line fill="none" stroke="#231F20" stroke-width="0.295" stroke-miterlimit="10" x1="102.1" y1="67.4" x2="102.4" y2="67.6"/>
		<line fill="none" stroke="#231F20" stroke-width="0.295" stroke-miterlimit="10" x1="101.8" y1="68.3" x2="102.1" y2="68.5"/>
		<polygon fill="#FFFFFF" points="101.5,70 101.3,72.7 101.7,73 101.2,77.6 101.3,77.7 103,78.8 103.5,78.4 104.1,78.7 104.3,78.6 
			104.7,79 106.7,77.9 106.8,77.8 106.7,76.7 107.3,75.7 107.6,74.2 108.2,73.2 107.7,72.9 106.8,73.5 107.4,69.8 104.8,68.1 		"/>
		<polygon fill="none" stroke="#231F20" stroke-width="0.295" stroke-miterlimit="10" points="101.5,70 101.3,72.7 101.7,73 
			101.2,77.6 101.3,77.7 103,78.8 103.5,78.4 104.1,78.7 104.3,78.6 104.7,79 106.7,77.9 106.8,77.8 106.7,76.7 107.3,75.7 
			107.6,74.2 108.2,73.2 107.7,72.9 106.8,73.5 107.4,69.8 104.8,68.1 		"/>
		<polyline fill="none" stroke="#231F20" stroke-width="0.295" stroke-miterlimit="10" points="104.8,68.1 104.7,70.8 104.5,71.2 
			101.6,72.7 101.3,72.7 		"/>
		<polyline fill="none" stroke="#231F20" stroke-width="0.295" stroke-miterlimit="10" points="104.5,71.2 105,71.5 105.2,72.1 
			104.8,75.5 101.2,77.5 		"/>
		<polyline fill="none" stroke="#231F20" stroke-width="0.295" stroke-miterlimit="10" points="102.9,78.7 106.4,76.8 106.5,76.6 
			106.8,73.5 		"/>
		<line fill="none" stroke="#231F20" stroke-width="0.295" stroke-miterlimit="10" x1="104.8" y1="75.5" x2="106.5" y2="76.6"/>
		<line fill="none" stroke="#231F20" stroke-width="0.295" stroke-miterlimit="10" x1="105.9" y1="77.1" x2="106.7" y2="77.7"/>
		<polygon fill="none" stroke="#231F20" stroke-width="0.295" stroke-miterlimit="10" points="104.3,74.5 104.1,75.9 104.8,76.4 
			104.6,76.4 103.9,76 104.1,74.6 		"/>
		<polygon fill="none" stroke="#231F20" stroke-width="0.295" stroke-miterlimit="10" points="103.9,74.7 103.8,76.1 104.5,76.6 
			104.2,76.7 103.6,76.2 103.7,74.8 		"/>
		<polygon fill="none" stroke="#231F20" stroke-width="0.295" stroke-miterlimit="10" points="103.5,74.9 103.4,76.3 104.1,76.8 
			103.9,76.9 103.2,76.4 103.3,75 		"/>
		<polygon fill="none" stroke="#231F20" stroke-width="0.295" stroke-miterlimit="10" points="103.2,75.1 103,76.5 103.7,77 
			103.5,77.1 102.8,76.6 103,75.3 		"/>
		<polygon fill="none" stroke="#231F20" stroke-width="0.295" stroke-miterlimit="10" points="102.8,75.3 102.7,76.6 103.4,77.1 
			103.2,77.2 102.5,76.8 102.6,75.4 		"/>
		<polygon fill="none" stroke="#231F20" stroke-width="0.295" stroke-miterlimit="10" points="102.5,75.5 102.3,76.9 103,77.3 
			102.8,77.4 102.1,77 102.3,75.6 		"/>
		<polygon fill="none" stroke="#231F20" stroke-width="0.295" stroke-miterlimit="10" points="102.1,75.7 101.9,77.1 102.6,77.5 
			102.4,77.6 101.7,77.2 101.9,75.8 		"/>
		<polygon fill="none" stroke="#231F20" stroke-width="0.295" stroke-miterlimit="10" points="101.7,75.9 101.6,77.3 102.3,77.7 
			102,77.8 101.4,77.4 101.5,76 		"/>
		<g opacity="0.25">
			<g>
				<defs>
					<rect id="SVGID_5_" x="104" y="63.2" width="1.5" height="5.1"/>
				</defs>
				<clipPath id="SVGID_6_">
					<use xlink:href="#SVGID_5_"  overflow="visible"/>
				</clipPath>
				<g clip-path="url(#SVGID_6_)">
					<defs>
						<rect id="SVGID_7_" x="104" y="63.2" width="1.5" height="5.1"/>
					</defs>
					<clipPath id="SVGID_8_">
						<use xlink:href="#SVGID_7_"  overflow="visible"/>
					</clipPath>
					<path clip-path="url(#SVGID_8_)" fill="#FFFFFF" d="M104.5,68.3l0.3-0.1l0.3,0.1l0.4-5c0,0-0.5-0.1-0.9-0.1c-0.4,0-0.6,0-0.6,0
						L104.5,68.3z"/>
				</g>
			</g>
		</g>
		<g opacity="0.2">
			<g>
				<defs>
					<rect id="SVGID_9_" x="113.1" y="68.5" width="1.1" height="6.7"/>
				</defs>
				<clipPath id="SVGID_10_">
					<use xlink:href="#SVGID_9_"  overflow="visible"/>
				</clipPath>
				<g clip-path="url(#SVGID_10_)">
					<defs>
						<rect id="SVGID_11_" x="113.1" y="68.5" width="1.1" height="6.7"/>
					</defs>
					<clipPath id="SVGID_12_">
						<use xlink:href="#SVGID_11_"  overflow="visible"/>
					</clipPath>
					<path clip-path="url(#SVGID_12_)" fill="none" stroke="#000000" stroke-width="0.224" d="M113.2,68.5c0.2,2.7,0.4,3.5,1,6.7"/>
				</g>
			</g>
		</g>
		<g opacity="0.3">
			<g>
				<defs>
					<rect id="SVGID_13_" x="113.1" y="68.4" width="1.1" height="6.8"/>
				</defs>
				<clipPath id="SVGID_14_">
					<use xlink:href="#SVGID_13_"  overflow="visible"/>
				</clipPath>
				<g clip-path="url(#SVGID_14_)">
					<defs>
						<rect id="SVGID_15_" x="113.1" y="68.4" width="1.1" height="6.8"/>
					</defs>
					<clipPath id="SVGID_16_">
						<use xlink:href="#SVGID_15_"  overflow="visible"/>
					</clipPath>
					
						<path clip-path="url(#SVGID_16_)" fill="none" stroke="#1C1D1D" stroke-width="0.224" stroke-linecap="round" stroke-linejoin="round" d="
						M113.2,68.5c0.2,2.7,0.4,3.5,1,6.7"/>
				</g>
			</g>
		</g>
		<path fill="none" stroke="#2C2B2B" stroke-width="1.086" stroke-linecap="round" stroke-linejoin="round" d="M113.2,68.5
			c0.2,2.7,0.4,3.5,1,6.7"/>
		<path fill="none" stroke="#A7B5C1" stroke-width="0.652" stroke-linecap="round" stroke-linejoin="round" d="M113.2,68.5
			c0.2,2.7,0.4,3.5,1,6.7"/>
		<path fill="none" stroke="#58595B" stroke-width="0.868" stroke-linecap="round" stroke-linejoin="round" d="M113.2,68.5
			c0.2,2.7,0.4,3.5,1,6.7"/>
		<path fill="none" stroke="#808285" stroke-width="0.652" stroke-linecap="round" stroke-linejoin="round" d="M113.2,68.5
			c0.2,2.7,0.4,3.5,1,6.7"/>
		<path fill="none" stroke="#BCBEC0" stroke-width="0.217" stroke-linecap="round" stroke-linejoin="round" d="M113.2,68.5
			c0.2,2.7,0.4,3.5,1,6.7"/>
		<g opacity="0.2">
			<g>
				<defs>
					<rect id="SVGID_17_" x="104.3" y="28.7" width="15.4" height="41.6"/>
				</defs>
				<clipPath id="SVGID_18_">
					<use xlink:href="#SVGID_17_"  overflow="visible"/>
				</clipPath>
				<g clip-path="url(#SVGID_18_)">
					<defs>
						<rect id="SVGID_19_" x="104.3" y="28.7" width="15.4" height="41.6"/>
					</defs>
					<clipPath id="SVGID_20_">
						<use xlink:href="#SVGID_19_"  overflow="visible"/>
					</clipPath>
					
						<path clip-path="url(#SVGID_20_)" fill="none" stroke="#231F20" stroke-width="0.338" stroke-linecap="round" stroke-linejoin="bevel" d="
						M104.4,28.8c2,9.8,15.6,14.2,15.2,17.9c-0.7,5.6-2.4,6.5-4.2,7.1c-4.8,1.8-2.6,6-2,16.3"/>
				</g>
			</g>
		</g>
		<path fill="none" stroke="#2C2B2B" stroke-width="1.858" stroke-linecap="round" stroke-linejoin="round" d="M104.4,28.8
			c2,9.8,15.6,14.2,15.2,17.9c-0.7,5.6-2.4,6.5-4.2,7.1c-4.8,1.8-2.6,6-2,16.3"/>
		<path fill="none" stroke="#D1D2D3" stroke-width="1.52" stroke-linecap="round" stroke-linejoin="round" d="M104.4,28.8
			c2,9.8,15.6,14.2,15.2,17.9c-0.7,5.6-2.4,6.5-4.2,7.1c-4.8,1.8-2.6,6-2,16.3"/>
		<path fill="none" stroke="#FFFFFF" stroke-width="1.182" stroke-linecap="round" stroke-linejoin="round" d="M104.4,28.8
			c2,9.8,15.6,14.2,15.2,17.9c-0.7,5.6-2.4,6.5-4.2,7.1c-4.8,1.8-2.6,6-2,16.3"/>
		<g opacity="0.2">
			<g>
				<defs>
					<rect id="SVGID_21_" x="116.1" y="68.6" width="1.1" height="6.7"/>
				</defs>
				<clipPath id="SVGID_22_">
					<use xlink:href="#SVGID_21_"  overflow="visible"/>
				</clipPath>
				<g clip-path="url(#SVGID_22_)">
					<defs>
						<rect id="SVGID_23_" x="116.1" y="68.6" width="1.1" height="6.7"/>
					</defs>
					<clipPath id="SVGID_24_">
						<use xlink:href="#SVGID_23_"  overflow="visible"/>
					</clipPath>
					<path clip-path="url(#SVGID_24_)" fill="none" stroke="#000000" stroke-width="0.224" d="M116.1,68.7c0.2,2.7,0.4,3.5,1,6.7"/>
				</g>
			</g>
		</g>
		<g opacity="0.3">
			<g>
				<defs>
					<rect id="SVGID_25_" x="116.1" y="68.6" width="1.1" height="6.8"/>
				</defs>
				<clipPath id="SVGID_26_">
					<use xlink:href="#SVGID_25_"  overflow="visible"/>
				</clipPath>
				<g clip-path="url(#SVGID_26_)">
					<defs>
						<rect id="SVGID_27_" x="116.1" y="68.6" width="1.1" height="6.8"/>
					</defs>
					<clipPath id="SVGID_28_">
						<use xlink:href="#SVGID_27_"  overflow="visible"/>
					</clipPath>
					
						<path clip-path="url(#SVGID_28_)" fill="none" stroke="#1C1D1D" stroke-width="0.224" stroke-linecap="round" stroke-linejoin="round" d="
						M116.1,68.7c0.2,2.7,0.4,3.5,1,6.7"/>
				</g>
			</g>
		</g>
		<path fill="none" stroke="#2C2B2B" stroke-width="1.086" stroke-linecap="round" stroke-linejoin="round" d="M116.1,68.7
			c0.2,2.7,0.4,3.5,1,6.7"/>
		<path fill="none" stroke="#A7B5C1" stroke-width="0.652" stroke-linecap="round" stroke-linejoin="round" d="M116.1,68.7
			c0.2,2.7,0.4,3.5,1,6.7"/>
		<path fill="none" stroke="#58595B" stroke-width="0.868" stroke-linecap="round" stroke-linejoin="round" d="M116.1,68.7
			c0.2,2.7,0.4,3.5,1,6.7"/>
		<path fill="none" stroke="#808285" stroke-width="0.652" stroke-linecap="round" stroke-linejoin="round" d="M116.1,68.7
			c0.2,2.7,0.4,3.5,1,6.7"/>
		<path fill="none" stroke="#BCBEC0" stroke-width="0.217" stroke-linecap="round" stroke-linejoin="round" d="M116.1,68.7
			c0.2,2.7,0.4,3.5,1,6.7"/>
		<g opacity="0.2">
			<g>
				<defs>
					<rect id="SVGID_29_" x="105.4" y="28.5" width="16.5" height="42"/>
				</defs>
				<clipPath id="SVGID_30_">
					<use xlink:href="#SVGID_29_"  overflow="visible"/>
				</clipPath>
				<g clip-path="url(#SVGID_30_)">
					<defs>
						<rect id="SVGID_31_" x="105.4" y="28.5" width="16.5" height="42"/>
					</defs>
					<clipPath id="SVGID_32_">
						<use xlink:href="#SVGID_31_"  overflow="visible"/>
					</clipPath>
					
						<path clip-path="url(#SVGID_32_)" fill="none" stroke="#231F20" stroke-width="0.338" stroke-linecap="round" stroke-linejoin="bevel" d="
						M105.5,28.6c2,9.8,16.8,14.7,16.3,18.5c-0.7,5.6-2.3,6.4-3.4,7c-4.7,2.2-2.6,6-2,16.3"/>
				</g>
			</g>
		</g>
		<path fill="none" stroke="#2C2B2B" stroke-width="1.858" stroke-linecap="round" stroke-linejoin="round" d="M105.5,28.6
			c2,9.8,16.8,14.7,16.3,18.5c-0.7,5.6-2.3,6.4-3.4,7c-4.7,2.2-2.6,6-2,16.3"/>
		<path fill="none" stroke="#D1D2D3" stroke-width="1.52" stroke-linecap="round" stroke-linejoin="round" d="M105.5,28.6
			c2,9.8,16.8,14.7,16.3,18.5c-0.7,5.6-2.3,6.4-3.4,7c-4.7,2.2-2.6,6-2,16.3"/>
		<path fill="none" stroke="#FFFFFF" stroke-width="1.182" stroke-linecap="round" stroke-linejoin="round" d="M105.5,28.6
			c2,9.8,16.8,14.7,16.3,18.5c-0.7,5.6-2.3,6.4-3.4,7c-4.7,2.2-2.6,6-2,16.3"/>
		
			<line fill="none" stroke="#000000" stroke-width="0.428" stroke-linecap="round" stroke-linejoin="round" stroke-miterlimit="10" x1="100.7" y1="31.3" x2="100.6" y2="31.3"/>
		
			<line fill="none" stroke="#000000" stroke-width="0.428" stroke-linecap="round" stroke-linejoin="round" stroke-miterlimit="10" x1="100.7" y1="31.4" x2="100.8" y2="31.2"/>
		
			<line fill="none" stroke="#000000" stroke-width="0.428" stroke-linecap="round" stroke-linejoin="round" stroke-miterlimit="10" x1="99" y1="29.4" x2="99" y2="29.8"/>
		
			<line fill="none" stroke="#000000" stroke-width="0.428" stroke-linecap="round" stroke-linejoin="round" stroke-miterlimit="10" x1="99.4" y1="29" x2="99.4" y2="28.2"/>
		
			<line fill="none" stroke="#000000" stroke-width="0.428" stroke-linecap="round" stroke-linejoin="round" stroke-miterlimit="10" x1="99.4" y1="28.3" x2="99.4" y2="29"/>
		
			<line fill="none" stroke="#000000" stroke-width="0.428" stroke-linecap="round" stroke-linejoin="round" stroke-miterlimit="10" x1="100.7" y1="31.2" x2="100.7" y2="31.3"/>
		
			<line fill="none" stroke="#000000" stroke-width="0.428" stroke-linecap="round" stroke-linejoin="round" stroke-miterlimit="10" x1="100.7" y1="31.4" x2="100.7" y2="31.2"/>
		
			<line fill="none" stroke="#000000" stroke-width="0.428" stroke-linecap="round" stroke-linejoin="round" stroke-miterlimit="10" x1="100.9" y1="31.4" x2="100.9" y2="31.4"/>
		
			<line fill="none" stroke="#000000" stroke-width="0.428" stroke-linecap="round" stroke-linejoin="round" stroke-miterlimit="10" x1="101.1" y1="31.4" x2="101.1" y2="31.3"/>
		
			<line fill="none" stroke="#000000" stroke-width="0.428" stroke-linecap="round" stroke-linejoin="round" stroke-miterlimit="10" x1="109.3" y1="30.2" x2="109.4" y2="30.1"/>
		
			<line fill="none" stroke="#000000" stroke-width="0.428" stroke-linecap="round" stroke-linejoin="round" stroke-miterlimit="10" x1="109.4" y1="30.1" x2="109.4" y2="30"/>
		
			<line fill="none" stroke="#000000" stroke-width="0.428" stroke-linecap="round" stroke-linejoin="round" stroke-miterlimit="10" x1="106" y1="28" x2="106" y2="28.1"/>
		
			<line fill="none" stroke="#000000" stroke-width="0.428" stroke-linecap="round" stroke-linejoin="round" stroke-miterlimit="10" x1="109.1" y1="29.5" x2="109.1" y2="29.8"/>
		
			<line fill="none" stroke="#000000" stroke-width="0.428" stroke-linecap="round" stroke-linejoin="round" stroke-miterlimit="10" x1="109.1" y1="30.2" x2="109.1" y2="30.2"/>
		
			<line fill="none" stroke="#000000" stroke-width="0.428" stroke-linecap="round" stroke-linejoin="round" stroke-miterlimit="10" x1="109.2" y1="30" x2="109.2" y2="29.7"/>
		
			<line fill="none" stroke="#000000" stroke-width="0.428" stroke-linecap="round" stroke-linejoin="round" stroke-miterlimit="10" x1="109.4" y1="30.1" x2="109.4" y2="30"/>
		
			<line fill="none" stroke="#000000" stroke-width="0.428" stroke-linecap="round" stroke-linejoin="round" stroke-miterlimit="10" x1="97.9" y1="27.7" x2="99.1" y2="28.8"/>
		
			<line fill="none" stroke="#000000" stroke-width="0.428" stroke-linecap="round" stroke-linejoin="round" stroke-miterlimit="10" x1="99.1" y1="28" x2="97.9" y2="27"/>
		
			<line fill="none" stroke="#000000" stroke-width="0.428" stroke-linecap="round" stroke-linejoin="round" stroke-miterlimit="10" x1="105.8" y1="27.8" x2="104.7" y2="26.8"/>
		
			<line fill="none" stroke="#000000" stroke-width="0.428" stroke-linecap="round" stroke-linejoin="round" stroke-miterlimit="10" x1="100.9" y1="31.4" x2="101.1" y2="31.4"/>
		
			<line fill="none" stroke="#000000" stroke-width="0.428" stroke-linecap="round" stroke-linejoin="round" stroke-miterlimit="10" x1="101" y1="31.3" x2="100.8" y2="31.4"/>
		
			<line fill="none" stroke="#000000" stroke-width="0.428" stroke-linecap="round" stroke-linejoin="round" stroke-miterlimit="10" x1="109.3" y1="30.2" x2="109.1" y2="30.2"/>
		
			<line fill="none" stroke="#000000" stroke-width="0.428" stroke-linecap="round" stroke-linejoin="round" stroke-miterlimit="10" x1="109.1" y1="30" x2="109.4" y2="30.1"/>
		
			<line fill="none" stroke="#000000" stroke-width="0.428" stroke-linecap="round" stroke-linejoin="round" stroke-miterlimit="10" x1="109.4" y1="30" x2="109.2" y2="30"/>
		
			<line fill="none" stroke="#000000" stroke-width="0.428" stroke-linecap="round" stroke-linejoin="round" stroke-miterlimit="10" x1="100.8" y1="31.4" x2="100.9" y2="31.4"/>
		
			<line fill="none" stroke="#000000" stroke-width="0.428" stroke-linecap="round" stroke-linejoin="round" stroke-miterlimit="10" x1="100.6" y1="31.3" x2="100.7" y2="31.4"/>
		
			<path fill="none" stroke="#000000" stroke-width="0.428" stroke-linecap="round" stroke-linejoin="round" stroke-miterlimit="10" d="
			M106,28.1C106,28,106,28,106,28.1"/>
		
			<path fill="none" stroke="#000000" stroke-width="0.428" stroke-linecap="round" stroke-linejoin="round" stroke-miterlimit="10" d="
			M101,31.3C101.1,31.3,101.1,31.3,101,31.3"/>
		
			<path fill="none" stroke="#000000" stroke-width="0.428" stroke-linecap="round" stroke-linejoin="round" stroke-miterlimit="10" d="
			M100.7,31.2c0,0,0.1,0,0.1,0"/>
		
			<path fill="none" stroke="#000000" stroke-width="0.428" stroke-linecap="round" stroke-linejoin="round" stroke-miterlimit="10" d="
			M100.7,31.2C100.7,31.2,100.7,31.2,100.7,31.2"/>
		
			<path fill="none" stroke="#000000" stroke-width="0.428" stroke-linecap="round" stroke-linejoin="round" stroke-miterlimit="10" d="
			M109.1,30.2C109.1,30.2,109.1,30.2,109.1,30.2"/>
		
			<path fill="none" stroke="#000000" stroke-width="0.428" stroke-linecap="round" stroke-linejoin="round" stroke-miterlimit="10" d="
			M109.3,30.1C109.4,30.1,109.4,30.1,109.3,30.1"/>
		
			<path fill="none" stroke="#000000" stroke-width="0.428" stroke-linecap="round" stroke-linejoin="round" stroke-miterlimit="10" d="
			M99.4,28.3C99.4,28.3,99.4,28.3,99.4,28.3"/>
		
			<path fill="none" stroke="#000000" stroke-width="0.428" stroke-linecap="round" stroke-linejoin="round" stroke-miterlimit="10" d="
			M99.4,29C99.4,29.1,99.4,29.1,99.4,29"/>
		
			<path fill="none" stroke="#000000" stroke-width="0.428" stroke-linecap="round" stroke-linejoin="round" stroke-miterlimit="10" d="
			M99.4,28.3C99.4,28.3,99.4,28.3,99.4,28.3"/>
		
			<path fill="none" stroke="#000000" stroke-width="0.428" stroke-linecap="round" stroke-linejoin="round" stroke-miterlimit="10" d="
			M109.1,30C109.1,30,109.1,30,109.1,30"/>
		
			<line fill="none" stroke="#000000" stroke-width="0.428" stroke-linecap="round" stroke-linejoin="round" stroke-miterlimit="10" x1="109.2" y1="29.8" x2="109.2" y2="29.8"/>
		
			<line fill="none" stroke="#000000" stroke-width="0.428" stroke-linecap="round" stroke-linejoin="round" stroke-miterlimit="10" x1="98.9" y1="29.8" x2="98.9" y2="29.8"/>
		
			<path fill="none" stroke="#000000" stroke-width="0.428" stroke-linecap="round" stroke-linejoin="round" stroke-miterlimit="10" d="
			M109.3,30.1c-0.1,0-0.1,0-0.2,0"/>
		
			<path fill="none" stroke="#000000" stroke-width="0.428" stroke-linecap="round" stroke-linejoin="round" stroke-miterlimit="10" d="
			M104.8,31.7C104.6,31.7,104.8,31.7,104.8,31.7c-0.1,0-0.2,0-0.4,0"/>
		
			<path fill="none" stroke="#000000" stroke-width="0.428" stroke-linecap="round" stroke-linejoin="round" stroke-miterlimit="10" d="
			M109.1,30.2c-0.1,0.1-0.1,0.2-0.2,0.3c-0.1,0.1-0.2,0.2-0.3,0.3c-0.1,0.1-0.3,0.2-0.5,0.3c-0.2,0.1-0.4,0.2-0.6,0.2
			c-0.1,0-0.2,0.1-0.4,0.1"/>
		
			<path fill="none" stroke="#000000" stroke-width="0.428" stroke-linecap="round" stroke-linejoin="round" stroke-miterlimit="10" d="
			M104.7,26.8c-0.1-0.1-0.2-0.1-0.3-0.2c-0.1-0.1-0.2-0.1-0.3-0.2c-0.3-0.1-0.6-0.2-0.9-0.3c-0.3-0.1-0.7-0.1-1-0.2
			c-0.4,0-0.8,0-1.1,0"/>
		
			<path fill="none" stroke="#000000" stroke-width="0.428" stroke-linecap="round" stroke-linejoin="round" stroke-miterlimit="10" d="
			M101.1,25.9c-0.2,0-0.4,0-0.7,0c-0.2,0-0.4,0-0.6,0.1c-0.2,0-0.4,0.1-0.6,0.1c-0.2,0-0.3,0.1-0.5,0.2c-0.1,0.1-0.3,0.1-0.4,0.2
			c-0.1,0.1-0.2,0.1-0.3,0.2c-0.1,0.1-0.1,0.1-0.2,0.2c0,0.1-0.1,0.2-0.1,0.3"/>
		
			<path fill="none" stroke="#000000" stroke-width="0.428" stroke-linecap="round" stroke-linejoin="round" stroke-miterlimit="10" d="
			M99.4,29C99.3,29,99.3,29,99.4,29c-0.1,0.1-0.2,0.1-0.2,0.2"/>
		
			<path fill="none" stroke="#000000" stroke-width="0.428" stroke-linecap="round" stroke-linejoin="round" stroke-miterlimit="10" d="
			M99.2,29.2C99.1,29.2,99.1,29.3,99.2,29.2c-0.1,0.2-0.2,0.3-0.2,0.4"/>
		
			<path fill="none" stroke="#000000" stroke-width="0.428" stroke-linecap="round" stroke-linejoin="round" stroke-miterlimit="10" d="
			M98.9,29.6C98.9,29.6,98.9,29.6,98.9,29.6c0,0.1,0,0.2,0,0.2"/>
		
			<path fill="none" stroke="#000000" stroke-width="0.428" stroke-linecap="round" stroke-linejoin="round" stroke-miterlimit="10" d="
			M100.7,31.2c-0.2-0.1-0.5-0.2-0.7-0.3c-0.2-0.1-0.4-0.2-0.5-0.3c-0.1-0.1-0.1-0.1-0.2-0.2c-0.1-0.1-0.1-0.1-0.1-0.2
			c0-0.1-0.1-0.1-0.1-0.2c0-0.1,0-0.1,0-0.2"/>
		
			<path fill="none" stroke="#000000" stroke-width="0.428" stroke-linecap="round" stroke-linejoin="round" stroke-miterlimit="10" d="
			M106,28C106,28,106,28,106,28c0-0.1-0.1-0.1-0.1-0.1"/>
		
			<path fill="none" stroke="#000000" stroke-width="0.428" stroke-linecap="round" stroke-linejoin="round" stroke-miterlimit="10" d="
			M105.9,27.9C105.9,27.9,105.9,27.9,105.9,27.9c0-0.1-0.1-0.1-0.1-0.1"/>
		
			<path fill="none" stroke="#000000" stroke-width="0.428" stroke-linecap="round" stroke-linejoin="round" stroke-miterlimit="10" d="
			M109.1,29.8c0,0.1,0,0.1,0,0.2"/>
		
			<path fill="none" stroke="#000000" stroke-width="0.428" stroke-linecap="round" stroke-linejoin="round" stroke-miterlimit="10" d="
			M109.2,29.8C109.2,29.8,109.2,29.8,109.2,29.8c0-0.1,0-0.2,0-0.2"/>
		
			<path fill="none" stroke="#000000" stroke-width="0.428" stroke-linecap="round" stroke-linejoin="round" stroke-miterlimit="10" d="
			M109.2,29.6c0,0,0-0.1,0-0.1c-0.1-0.1-0.1-0.2-0.2-0.3"/>
		
			<path fill="none" stroke="#000000" stroke-width="0.428" stroke-linecap="round" stroke-linejoin="round" stroke-miterlimit="10" d="
			M109,29.2c-0.1-0.1-0.3-0.3-0.5-0.4c-0.2-0.1-0.4-0.2-0.7-0.3c-0.3-0.1-0.5-0.2-0.8-0.3c-0.3-0.1-0.6-0.1-1-0.2"/>
		
			<path fill="none" stroke="#000000" stroke-width="0.428" stroke-linecap="round" stroke-linejoin="round" stroke-miterlimit="10" d="
			M97.9,27C97.9,27,97.9,26.9,97.9,27c-0.1-0.1-0.1-0.1-0.1-0.1"/>
		
			<path fill="none" stroke="#000000" stroke-width="0.428" stroke-linecap="round" stroke-linejoin="round" stroke-miterlimit="10" d="
			M105.4,27.5c-0.5,0.1-1,0.2-1.4,0.3c-1.5,0.3-3,0.4-4.5,0.6"/>
		
			<path fill="none" stroke="#000000" stroke-width="0.428" stroke-linecap="round" stroke-linejoin="round" stroke-miterlimit="10" d="
			M99.4,28.2C99.3,28.2,99.3,28.2,99.4,28.2c-0.1-0.1-0.2-0.1-0.3-0.2"/>
		
			<path fill="none" stroke="#000000" stroke-width="0.428" stroke-linecap="round" stroke-linejoin="round" stroke-miterlimit="10" d="
			M103.3,28.6c1.1-0.2,2.2-0.4,2.7-0.5"/>
		
			<path fill="none" stroke="#000000" stroke-width="0.428" stroke-linecap="round" stroke-linejoin="round" stroke-miterlimit="10" d="
			M99.4,29c1.1-0.1-0.2,0.1,1,0"/>
		
			<path fill="none" stroke="#000000" stroke-width="0.428" stroke-linecap="round" stroke-linejoin="round" stroke-miterlimit="10" d="
			M106,28.1c0.3,0,0.6,0.1,1,0.2c0.3,0.1,0.6,0.2,0.8,0.3c0.2,0.1,0.4,0.2,0.6,0.3c0.2,0.1,0.3,0.2,0.4,0.4"/>
		
			<path fill="none" stroke="#000000" stroke-width="0.428" stroke-linecap="round" stroke-linejoin="round" stroke-miterlimit="10" d="
			M108.9,29.2c0.1,0.1,0.1,0.2,0.2,0.3c0,0.1,0.1,0.2,0.1,0.3"/>
		
			<path fill="none" stroke="#000000" stroke-width="0.428" stroke-linecap="round" stroke-linejoin="round" stroke-miterlimit="10" d="
			M109.2,30c0-0.1,0-0.1,0-0.2"/>
		
			<path fill="none" stroke="#000000" stroke-width="0.428" stroke-linecap="round" stroke-linejoin="round" stroke-miterlimit="10" d="
			M98.9,29.8c0,0.1,0,0.1,0,0.2c0,0.1,0.1,0.1,0.1,0.2c0,0.1,0.1,0.1,0.1,0.2c0.1,0.1,0.1,0.1,0.2,0.2c0.2,0.1,0.4,0.3,0.6,0.3
			c0.2,0.1,0.5,0.2,0.7,0.3"/>
		
			<path fill="none" stroke="#000000" stroke-width="0.428" stroke-linecap="round" stroke-linejoin="round" stroke-miterlimit="10" d="
			M99,29.8c0-0.1,0-0.2,0.1-0.3c0-0.1,0.1-0.2,0.2-0.3"/>
		
			<path fill="none" stroke="#000000" stroke-width="0.428" stroke-linecap="round" stroke-linejoin="round" stroke-miterlimit="10" d="
			M99.2,29.2C99.2,29.2,99.3,29.2,99.2,29.2c0.1-0.1,0.1-0.1,0.2-0.2"/>
		
			<path fill="none" stroke="#000000" stroke-width="0.428" stroke-linecap="round" stroke-linejoin="round" stroke-miterlimit="10" d="
			M97.7,27.2c0,0.1,0,0.2,0.1,0.3c0,0.1,0.1,0.2,0.2,0.2"/>
		
			<path fill="none" stroke="#000000" stroke-width="0.428" stroke-linecap="round" stroke-linejoin="round" stroke-miterlimit="10" d="
			M101.1,31.4c0.2,0,0.4,0.1,0.5,0.1"/>
		
			<path fill="none" stroke="#000000" stroke-width="0.428" stroke-linecap="round" stroke-linejoin="round" stroke-miterlimit="10" d="
			M107,31.4c0.2,0,0,0,0.4-0.1c0.2-0.1,0.4-0.1,0.6-0.2c0.2-0.1,0.3-0.2,0.5-0.3c0.1-0.1,0.3-0.2,0.4-0.3c0.1-0.1,0.2-0.2,0.2-0.3"
			/>
		
			<path fill="none" stroke="#000000" stroke-width="0.428" stroke-linecap="round" stroke-linejoin="round" stroke-miterlimit="10" d="
			M99.1,28.8C99.1,28.8,99.1,28.8,99.1,28.8c0.1,0.1,0.2,0.2,0.3,0.2"/>
		<polygon fill-rule="evenodd" clip-rule="evenodd" fill="#FFFFFF" points="94.2,98.7 101.9,98.7 101.9,87.3 117.1,87.3 117.1,98.7 
			124.8,98.7 109.5,110.2 		"/>
		<polygon fill="none" stroke="#231F20" stroke-width="0.898" stroke-miterlimit="10" points="94.2,98.7 101.9,98.7 101.9,87.3 
			117.1,87.3 117.1,98.7 124.8,98.7 109.5,110.2 		"/>
		<polygon fill="#FFFFFF" points="94.2,98.7 101.9,98.7 101.9,87.3 117.1,87.3 117.1,98.7 124.8,98.7 109.5,110.2 		"/>
		<polygon fill="none" stroke="#231F20" stroke-width="0.898" stroke-miterlimit="8" points="94.2,98.7 101.9,98.7 101.9,87.3 
			117.1,87.3 117.1,98.7 124.8,98.7 109.5,110.2 		"/>
	</g>
</g>
</svg>
