<svg data-icon="calendar" data-containerTransform="translate(1)" data-width="null" data-height="null" xmlns="http://www.w3.org/2000/svg" version="1.1" width="32" height="32" viewBox="0 0 32 32">
  <path d="M.5 0c-.276 0-.5.224-.5.5v5.5h30v-5.5c0-.276-.224-.5-.5-.5h-29zm-.5 7v24.5c0 .276.224.5.5.5h29c.276 0 .5-.224.5-.5v-24.5h-30zm8 3h4v4h-4v-4zm5 0h4v4h-4v-4zm5 0h4v4h-4v-4zm5 0h4v4h-4v-4zm-20 5h4v4h-4v-4zm5 0h4v4h-4v-4zm5 0h4v4h-4v-4zm5 0h4v4h-4v-4zm5 0h4v4h-4v-4zm-20 5h4v4h-4v-4zm5 0h4v4h-4v-4zm5 0h4v4h-4v-4zm5 0h4v4h-4v-4zm5 0h4v4h-4v-4zm-20 5h4v4h-4v-4zm5 0h4v4h-4v-4zm5 0h4v4h-4v-4z"
  transform="translate(1)" />
</svg>