<svg data-icon="double-quote-sans" data-containerTransform="scale(1 1 ) translate(1 5 )" data-width="null" data-height="null" xmlns="http://www.w3.org/2000/svg" version="1.1" width="32" height="32" viewBox="0 0 32 32">
  <path d="M.5 0c-.3 0-.5.2-.5.5v19c0 .3.206.288.406.188l10.281-9.281c.2-.2.406-.613.406-.813v-9c-.1-.4-.294-.594-.594-.594h-10zm18 0c-.3 0-.5.2-.5.5v19c0 .3.206.288.406.188l10.281-9.281c.2-.2.406-.613.406-.813v-9c-.1-.4-.294-.594-.594-.594h-10z" transform="translate(1 6)"
  />
</svg>