<svg data-icon="grid" data-containerTransform="scale(1 1 ) translate(0 )" data-width="null" data-height="null" xmlns="http://www.w3.org/2000/svg" version="1.1" width="32" height="32" viewBox="0 0 32 32">
  <path d="M.5 0c-.3 0-.5.2-.5.5v4c0 .3.2.5.5.5h4c.3 0 .5-.2.5-.5v-4c0-.3-.2-.5-.5-.5h-4zm9 0c-.3 0-.5.2-.5.5v4c0 .3.2.5.5.5h4c.3 0 .5-.2.5-.5v-4c0-.3-.2-.5-.5-.5h-4zm9 0c-.3 0-.5.2-.5.5v4c0 .3.2.5.5.5h4c.3 0 .5-.2.5-.5v-4c0-.3-.2-.5-.5-.5h-4zm9 0c-.3 0-.5.2-.5.5v4c0 .3.2.5.5.5h4c.3 0 .5-.2.5-.5v-4c0-.3-.2-.5-.5-.5h-4zm-27 9c-.3 0-.5.2-.5.5v4c0 .3.2.5.5.5h4c.3 0 .5-.2.5-.5v-4c0-.3-.2-.5-.5-.5h-4zm9 0c-.3 0-.5.2-.5.5v4c0 .3.2.5.5.5h4c.3 0 .5-.2.5-.5v-4c0-.3-.2-.5-.5-.5h-4zm9 0c-.3 0-.5.2-.5.5v4c0 .3.2.5.5.5h4c.3 0 .5-.2.5-.5v-4c0-.3-.2-.5-.5-.5h-4zm9 0c-.3 0-.5.2-.5.5v4c0 .3.2.5.5.5h4c.3 0 .5-.2.5-.5v-4c0-.3-.2-.5-.5-.5h-4zm-27 9c-.3 0-.5.2-.5.5v4c0 .3.2.5.5.5h4c.3 0 .5-.2.5-.5v-4c0-.3-.2-.5-.5-.5h-4zm9 0c-.3 0-.5.2-.5.5v4c0 .3.2.5.5.5h4c.3 0 .5-.2.5-.5v-4c0-.3-.2-.5-.5-.5h-4zm9 0c-.3 0-.5.2-.5.5v4c0 .3.2.5.5.5h4c.3 0 .5-.2.5-.5v-4c0-.3-.2-.5-.5-.5h-4zm9 0c-.3 0-.5.2-.5.5v4c0 .3.2.5.5.5h4c.3 0 .5-.2.5-.5v-4c0-.3-.2-.5-.5-.5h-4zm-27 9c-.3 0-.5.2-.5.5v4c0 .3.2.5.5.5h4c.3 0 .5-.2.5-.5v-4c0-.3-.2-.5-.5-.5h-4zm9 0c-.3 0-.5.2-.5.5v4c0 .3.2.5.5.5h4c.3 0 .5-.2.5-.5v-4c0-.3-.2-.5-.5-.5h-4zm9 0c-.3 0-.5.2-.5.5v4c0 .3.2.5.5.5h4c.3 0 .5-.2.5-.5v-4c0-.3-.2-.5-.5-.5h-4zm9 0c-.3 0-.5.2-.5.5v4c0 .3.2.5.5.5h4c.3 0 .5-.2.5-.5v-4c0-.3-.2-.5-.5-.5h-4z"
  />
</svg>