<svg data-icon="vertical-align" data-containerTransform="translate(0 19 ) scale(1 1 )" data-width="null" data-height="null" xmlns="http://www.w3.org/2000/svg" version="1.1" width="128" height="128" viewBox="0 0 128 128">
  <path d="M0 0v2h128v-2h-128zm29.5 4c-.8 0-1.5.7-1.5 1.5v83c0 .8.7 1.5 1.5 1.5h17c.8 0 1.5-.7 1.5-1.5v-83c0-.8-.7-1.5-1.5-1.5h-17zm26 0c-.8 0-1.5.7-1.5 1.5v47c0 .8.7 1.5 1.5 1.5h17c.8 0 1.5-.7 1.5-1.5v-47c0-.8-.7-1.5-1.5-1.5h-17zm26 0c-.8 0-1.5.7-1.5 1.5v67c0 .8.7 1.5 1.5 1.5h17c.8 0 1.5-.7 1.5-1.5v-67c0-.8-.7-1.5-1.5-1.5h-17z"
  transform="translate(0 19)" />
</svg>