<?xml version="1.0" encoding="utf-8"?>
<!-- Generator: Adobe Illustrator 21.1.0, SVG Export Plug-In . SVG Version: 6.00 Build 0)  -->
<svg version="1.2" baseProfile="tiny" id="圖層_1"
	 xmlns="http://www.w3.org/2000/svg" xmlns:xlink="http://www.w3.org/1999/xlink" x="0px" y="0px" viewBox="0 0 50 50"
	 overflow="scroll" xml:space="preserve">
<g>
	<path fill="#0086D1" d="M5,42.686h15.542v-7.009H5V42.686z M12.771,40.7c-0.836,0-1.517-0.68-1.517-1.518
		c0-0.838,0.681-1.518,1.517-1.518c0.837,0,1.518,0.68,1.518,1.518C14.289,40.02,13.608,40.7,12.771,40.7"/>
	<path fill="#0086D1" d="M5,34.158h15.542V14.656H5V34.158z M18.988,23.545H6.521v-1.882h12.468V23.545z M18.988,20.042H6.521
		v-1.881h12.468V20.042z"/>
	<path fill="#0086D1" d="M23.154,42.686h15.542v-7.009H23.154V42.686z M30.924,40.7c-0.836,0-1.517-0.68-1.517-1.518
		c0-0.838,0.681-1.518,1.517-1.518c0.84,0,1.519,0.68,1.519,1.518C32.443,40.02,31.764,40.7,30.924,40.7"/>
	<path fill="#0086D1" d="M23.154,34.158h15.542V14.656H23.154V34.158z M37.139,23.545H24.675v-1.882h12.464V23.545z M37.139,20.042
		H24.675v-1.881h12.464V20.042z"/>
	<path fill="#00AFEC" d="M45.546,14.656c0,3.783-3.067,6.849-6.849,6.849c-3.783,0-6.849-3.066-6.849-6.849
		c0-3.783,3.066-6.849,6.849-6.849C42.479,7.807,45.546,10.873,45.546,14.656"/>
	<polyline fill="none" stroke="#FFFFFF" stroke-width="1.7134" stroke-miterlimit="10" points="42.864,12.479 37.994,17.35 
		34.517,13.874 	"/>
</g>
</svg>
