<?xml version="1.0" encoding="utf-8"?>
<!-- Generator: Adobe Illustrator 21.1.0, SVG Export Plug-In . SVG Version: 6.00 Build 0)  -->
<svg version="1.2" baseProfile="tiny" id="圖層_1"
	 xmlns="http://www.w3.org/2000/svg" xmlns:xlink="http://www.w3.org/1999/xlink" x="0px" y="0px" viewBox="0 0 50 50"
	 overflow="scroll" xml:space="preserve">
<g>
	<path fill="#0086D1" d="M25.019,15.499h14.999V8H25.019V15.499z M38.518,14H26.519V9.501h11.999V14z"/>
	<rect x="31.768" y="16.249" fill="#0086D1" width="2.251" height="2.251"/>
	<path fill="#0086D1" d="M40.018,19.249H10.021v13.499h29.998V19.249z M25.019,30.5H12.27v-8.25h12.749V30.5z M30.269,30.5h-2.999
		v-2.251h2.999V30.5z M30.269,27.499h-2.999V25.25h2.999V27.499z M30.269,24.499h-2.999v-2.251h2.999V24.499z M34.019,30.5h-3
		v-2.251h3V30.5z M34.019,27.499h-3V25.25h3V27.499z M34.019,24.499h-3v-2.251h3V24.499z M37.768,30.5h-2.999v-2.251h2.999V30.5z
		 M37.768,27.499h-2.999V25.25h2.999V27.499z M37.768,24.499h-2.999v-2.251h2.999V24.499z"/>
	<path fill="#0086D1" d="M6.27,41.747h37.497v-7.499H6.27V41.747z M25.019,39.513c-0.835,0-1.514-0.678-1.514-1.515
		c0-0.834,0.679-1.513,1.514-1.513c0.837,0,1.514,0.679,1.514,1.513C26.533,38.835,25.856,39.513,25.019,39.513"/>
</g>
</svg>
