<svg data-icon="ellipses" version="1.1" xmlns="http://www.w3.org/2000/svg" width="32" height="32" class="iconic iconic-ellipses iconic-size-md" viewBox="0 0 32 32">
  <g class="iconic-metadata">
    <title>Ellipses</title>
  </g>
  <g data-width="32" data-height="8" class="iconic-container" transform="translate(0 12)">
    <path d="M7.5 8h-7c-.276 0-.5-.224-.5-.5v-7c0-.276.224-.5.5-.5h7c.276 0 .5.224.5.5v7c0 .276-.224.5-.5.5z" class="iconic-ellipses-dot iconic-ellipses-dot-1 iconic-property-fill" />
    <path d="M19.5 8h-7c-.276 0-.5-.224-.5-.5v-7c0-.276.224-.5.5-.5h7c.276 0 .5.224.5.5v7c0 .276-.224.5-.5.5z" class="iconic-ellipses-dot iconic-ellipses-dot-2 iconic-property-fill" />
    <path d="M31.5 8h-7c-.276 0-.5-.224-.5-.5v-7c0-.276.224-.5.5-.5h7c.276 0 .5.224.5.5v7c0 .276-.224.5-.5.5z" class="iconic-ellipses-dot iconic-ellipses-dot-3 iconic-property-fill" />
  </g>
</svg>