<svg id="圖層_1" xmlns="http://www.w3.org/2000/svg" viewBox="0 0 190 50"><style>.st0{fill:#FFFFFF;}</style><path class="st0" d="M63.6 23.3h9.3V49h-9.3z"/><path class="st0" d="M91 23.3l-4.2 13.5-4.2-13.5h-9.7L82.8 49h8l9.9-25.7zM53.8 23.3l-4.2 13.5-4.1-13.5h-9.8l10 25.7h7.9l10-25.7zM143.2 42h17.4v7h-17.4zM111.3 45.9c-5.4 0-9.7-4.4-9.7-9.8s4.3-9.7 9.7-9.7c5.4 0 9.8 4.4 9.8 9.7 0 5.4-4.4 9.8-9.8 9.8m0-23.1c-7.3 0-13.3 6-13.3 13.3s6 13.3 13.3 13.3c7.4 0 13.3-6 13.3-13.3 0-7.3-5.9-13.3-13.3-13.3"/><path class="st0" d="M116.2 36.1c0 2.7-2.2 4.9-4.9 4.9s-4.8-2.2-4.8-4.9 2.2-4.9 4.8-4.9c2.7 0 4.9 2.2 4.9 4.9M143.2 32.6h17.4v7h-17.4z"/><path class="st0" d="M124.6 23.3v7h5V49h9.1V30.3h21.8v-7zM178.1 23.3l-5.8 10.9V23.3h-9.1V49h9.1V38.2l6.2 10.8h11.2l-8.9-13.1 7.8-12.6z"/><g><path class="st0" d="M11.6 49h17V32.8h-17V49zm8.5-2.7c-3 0-5.4-2.4-5.4-5.4s2.4-5.4 5.4-5.4 5.4 2.4 5.4 5.4c.1 3-2.4 5.4-5.4 5.4"/><path class="st0" d="M22.9 40.9c0 1.5-1.2 2.7-2.7 2.7s-2.7-1.2-2.7-2.7 1.2-2.7 2.7-2.7c1.5 0 2.7 1.2 2.7 2.7"/></g><path class="st0" d="M22.2 28.6s.1.3 0 .4-.2.3-.3.4c-.1.1-.2.1-.3.2-.1.2-.5.6-.7.7s-.8.4-.9.8-.2.4-.5.5-.6.3-.7.5c-.1.2-.4.3-.6.2-.3 0-.7.2-1 .4s-.5.1-.7 0c-.1-.1-.5-.1-.7 0s-.7-.4-.8-.3c-.2.1-.3-.1-.4-.3-.2-.1-.5-.2-.6-.1-.2 0-.7-.5-.9-.7-.1-.2-.5 0-.5-.4-.1-.4-.5-.3-.6-.5s-.2-.2-.3-.2-.4.2-.6-.3c-.1-.5-.7-.4-.9-.5s-.2-.7-.7-1-.8-.7-.9-1.1c-.2-.4-1-1.2-1.3-1.4-.4-.3-1.2-1.3-1.3-1.9s-1.6-1.4-1.8-2.3c-.2-.9-1.3-1.6-1.7-2.5s-1.2-3.1-1.3-4.3c-.1-1.2-.3-.9-.4-1.4-.2-.4 0-.9.4-1.2s.9-.3.8-.7c-.1-.4-.3-.6 0-.9.2-.3-.1-.4.4-.7s.9-.5 1.1-.8c0-.2-.2-.8.1-1C4 8 4.9 7.6 5 7.2s.2-.4.3-.5c.1-.1-.2-.5 0-.6.3-.3 1 .1 1.1-.2.1-.3.2-.7.6-1 .3-.4.3-.9.5-1.1.2-.3.4-.2.6-.3.2-.2.4-.5.7-.5.2 0 .7-.1.8-.3s.7-.9.9-.9.3.1.6.2.6.1.7.4c.1.3.6.4.8.4s.2.4.3.5c.1.2.3.4.6.5s.6.5.9.8c.3.3.5.9.7 1 .2.2.4.5.4.6s.2.4.4.5c.2 0 .1.3.2.5s.3.3.5.5c.1.1.2.3.3.5.1.1.4.6.5.7 0 .1.3.1.4.3.1.2.2.3.2.3.1 0 .1.3.1.4 0 .1.2.3.3.4.1.1.4.4.4.6.1.1.2.1.3.2.1 0 .1.4.2.6 0 .1.1.1.3.2.1 0 .3.3.3.4 0 .1.2.4.5.6.2.3.6.5.6.7s.1.3.2.4c.1.1.2.3.4.5s.4.2.5.3c.2.1.3.2.4.4 0 .2.1.3.2.3s.3 0 .3.1.2.3.3.3c.1.1.2 0 .3.2.1.2.1.4.2.5.1.2.1 0 .3.2.2.2.3.6.3.8 0 .1 0 .1.2.2l.4.2c.2.1.3.4.6.3.3-.1.3-.3.4-.3s.5-.4.7-.6.8-.8 1-.9.3-.3.4-.5c.2-.2.5-.5.7-.6.1-.1.5-.7.7-.8s.5-.5.5-.6c.1 0 .3-.3.5-.5s.7-.8.7-.8c.1 0 .3-.2.5-.3s.5.1.7 0 .5-1 .7-1.1.2-.3.4-.4l.8-.8s.3-.4.4-.4c.1 0 .2-.1.3-.2.1-.1.1-.2.3-.3.1 0 .4-.3.5-.4.1-.1.6-.4.6-.5.1-.1.1-.1.3-.2.1 0 .4-.2.5-.4 0-.1.3-.3.5-.4.1-.1.3-.4.4-.6.1-.2.2-.5.3-.5s.5-.4.6-.5c.1-.2-.1-.5.1-.6.2-.1.3-.4.4-.5.1-.1.1-.3.1-.4.1-.1.1-.2.3-.4.2-.2.6-.6.7-.8.1-.2.1-.2.3-.4.1-.3.3-.4.4-.6.1-.1.2-.3.4-.3s0 .1 0 .2c-.2.2-.3.4-.3.4 0 .1-.2.3-.4.5s-.5.5-.5.7c0 .2-.5.5-.5.6-.1.4-.1.3-.2.7 0 .2-.3.9-.5 1.2-.2.2-.1.4-.3.5s-.4.3-.5.5-.6.7-.7.9c-.2.2-.3.5-.4.5-.1 0-.2.1-.3.3s-.2.1-.3.3c-.1.2-.3.4-.4.6-.1.2-.6.5-.8.6-.2.2-.3.2-.4.3 0 .1 0 .2-.2.3-.1.1-.3.1-.3.2s.1 0-.2.3c-.2.3-.6.6-.7.8-.1.2-.2.3-.4.4-.2.1-.3.3-.4.4-.1.2-.6.5-.8.7-.2.1-.2.3-.3.4-.1.2-.3.3-.4.4-.1.1-.2.4-.4.5-.2.1-.3.2-.4.4-.2.2-.2.3-.4.4-.2.1-.3.3-.4.4-.1.1-.3.3-.4.5s-.1.3-.3.4c-.2.1-.2.2-.3.3-.1.1-.1.4-.3.5-.2.1-.2.1-.3.3-.1.2-.4.5-.5.7s0 .3-.2.3-.2 0-.2.1c0 .2-.2.3-.4.5s-.1.3-.3.5c-.2.2-.2.1-.3.3-.1.2-.3.4-.4.7-.2.3-.4.3-.5.6-.1.3-.2.2-.3.4-.1.2-.5.5-.6.8-.2.2-.3.3-.3.6 0 .2.1.4-.1.6-.3.2-.7.1-.7.4s0 .4.1.6.3.5.1.7c-.2.3-.3.4-.5.4s-.3-.2-.3 0c-.1.2-.1.1-.1.3.1.2 0 .4 0 .5-.1.1-.1 0-.1.3v.4c-.3.3-.5.6-.5.8z"/></svg>