<svg xmlns="http://www.w3.org/2000/svg" id="content" viewBox="0 0 190 50"><defs><style>.cls-1{fill:#008cd3;}</style></defs><path d="M63.6 23.3h9.3V49h-9.3z" class="cls-1"/><path d="M91 23.3l-4.2 13.5-4.2-13.5h-9.7L82.8 49h8l9.9-25.7H91zm-37.2 0l-4.2 13.5-4.1-13.5h-9.8l10 25.7h7.9l10-25.7h-9.8zM143.2 42h17.4v7h-17.4z" class="cls-1"/><path d="M111.3 45.9a9.75 9.75 0 1 1 9.8-9.8 9.73 9.73 0 0 1-9.8 9.8m0-23.1a13.3 13.3 0 1 0 13.3 13.3 13.36 13.36 0 0 0-13.3-13.3" class="cls-1"/><path d="M116.2 36.1a4.91 4.91 0 0 1-4.9 4.9 4.82 4.82 0 0 1-4.8-4.9 4.85 4.85 0 1 1 9.7 0m27-3.5h17.4v7h-17.4z" class="cls-1"/><path d="M124.6 23.3v7h5V49h9.1V30.3h21.8v-7h-35.9zm53.5 0l-5.8 10.9V23.3h-9.1V49h9.1V38.2l6.2 10.8h11.2l-8.9-13.1 7.8-12.6h-10.5zM11.6 49h17V32.8h-17zm8.5-2.7a5.4 5.4 0 1 1 5.4-5.4 5.32 5.32 0 0 1-5.4 5.4" class="cls-1"/><path d="M22.9 40.9a2.7 2.7 0 1 1-2.7-2.7 2.69 2.69 0 0 1 2.7 2.7m-.7-12.3s.1.3 0 .4-.2.3-.3.4-.2.1-.3.2a2.34 2.34 0 0 1-.7.7c-.2.1-.8.4-.9.8s-.2.4-.5.5a1.28 1.28 0 0 0-.7.5.48.48 0 0 1-.6.2 2.11 2.11 0 0 0-1 .4.6.6 0 0 1-.7 0 .85.85 0 0 0-.7 0c-.2.1-.7-.4-.8-.3s-.3-.1-.4-.3-.5-.2-.6-.1-.7-.5-.9-.7-.5 0-.5-.4-.5-.3-.6-.5-.2-.2-.3-.2-.4.2-.6-.3-.7-.4-.9-.5-.2-.7-.7-1a1.86 1.86 0 0 1-.9-1.1 5.84 5.84 0 0 0-1.3-1.4A4.31 4.31 0 0 1 6 24c-.1-.6-1.6-1.4-1.8-2.3s-1.3-1.6-1.7-2.5a18 18 0 0 1-1.3-4.3c-.1-1.2-.3-.9-.4-1.4a1 1 0 0 1 .4-1.2c.4-.3.9-.3.8-.7s-.3-.6 0-.9-.1-.4.4-.7a3.47 3.47 0 0 0 1.1-.8c0-.2-.2-.8.1-1s1.3-.6 1.4-1a.69.69 0 0 1 .3-.5c.1-.1-.2-.5 0-.6.3-.3 1 .1 1.1-.2a1.79 1.79 0 0 1 .6-1c.3-.4.3-.9.5-1.1s.4-.2.6-.3.4-.5.7-.5.7-.1.8-.3.7-.9.9-.9.3.1.6.2.6.1.7.4.6.4.8.4.2.4.3.5a1 1 0 0 0 .6.5c.3.1.6.5.9.8s.5.9.7 1a1.52 1.52 0 0 1 .4.6.89.89 0 0 0 .4.5c.2 0 .1.3.2.5s.3.3.5.5a2.19 2.19 0 0 1 .3.5c.1.1.4.6.5.7s.3.1.4.3a1.24 1.24 0 0 0 .2.3c.1 0 .1.3.1.4s.2.3.3.4.4.4.4.6.2.1.3.2.1.4.2.6.1.1.3.2.3.3.3.4a1.18 1.18 0 0 0 .5.6c.2.3.6.5.6.7a.52.52 0 0 0 .2.4c.1.1.2.3.4.5s.4.2.5.3a.78.78 0 0 1 .4.4c0 .2.1.3.2.3s.3 0 .3.1a.45.45 0 0 0 .3.3c.1.1.2 0 .3.2s.1.4.2.5.1 0 .3.2a1.33 1.33 0 0 1 .3.8c0 .1 0 .1.2.2l.4.2c.2.1.3.4.6.3s.3-.3.4-.3.5-.4.7-.6a8.12 8.12 0 0 1 1-.9 1 1 0 0 0 .4-.5 3.74 3.74 0 0 1 .7-.6 5 5 0 0 1 .7-.8 1.33 1.33 0 0 0 .5-.6c.1 0 .3-.3.5-.5s.7-.8.7-.8.3-.2.5-.3.5.1.7 0 .5-1 .7-1.1.2-.3.4-.4l.8-.8c.1-.1.3-.4.4-.4s.2-.1.3-.2.1-.2.3-.3.4-.3.5-.4.6-.4.6-.5a.77.77 0 0 1 .3-.2.89.89 0 0 0 .5-.4c0-.1.3-.3.5-.4a3.11 3.11 0 0 0 .4-.6c.1-.2.2-.5.3-.5s.5-.4.6-.5-.1-.5.1-.6.3-.4.4-.5a.6.6 0 0 0 .1-.4c.1-.1.1-.2.3-.4a5 5 0 0 0 .7-.8 1 1 0 0 1 .3-.4c.1-.3.3-.4.4-.6s.2-.3.4-.3 0 .1 0 .2a1.73 1.73 0 0 0-.3.4c0 .1-.2.3-.4.5s-.5.5-.5.7-.5.5-.5.6c-.1.4-.1.3-.2.7a3.85 3.85 0 0 1-.5 1.2c-.2.2-.1.4-.3.5a1.21 1.21 0 0 0-.5.5c-.1.2-.6.7-.7.9s-.3.5-.4.5-.2.1-.3.3-.2.1-.3.3-.3.4-.4.6a2.41 2.41 0 0 1-.8.6c-.2.2-.3.2-.4.3s0 .2-.2.3-.3.1-.3.2.1 0-.2.3-.6.6-.7.8a.78.78 0 0 1-.4.4c-.2.1-.3.3-.4.4s-.6.5-.8.7-.2.3-.3.4l-.4.4s-.2.4-.4.5a.78.78 0 0 0-.4.4c-.2.2-.2.3-.4.4s-.3.3-.4.4a2.18 2.18 0 0 0-.4.5c-.1.2-.1.3-.3.4s-.2.2-.3.3-.1.4-.3.5-.2.1-.3.3-.4.5-.5.7 0 .3-.2.3-.2 0-.2.1-.2.3-.4.5-.1.3-.3.5-.2.1-.3.3a4.35 4.35 0 0 0-.4.7c-.2.3-.4.3-.5.6s-.2.2-.3.4-.5.5-.6.8a.71.71 0 0 0-.3.6c0 .2.1.4-.1.6s-.7.1-.7.4a1.08 1.08 0 0 0 .1.6c.1.2.3.5.1.7s-.3.4-.5.4-.3-.2-.3 0-.1.1-.1.3v.5s-.1 0-.1.3v.4a1.46 1.46 0 0 0-.5.8z" class="cls-1"/></svg>