<?xml version="1.0" encoding="utf-8"?>
<!-- Generator: Adobe Illustrator 21.0.2, SVG Export Plug-In . SVG Version: 6.00 Build 0)  -->
<svg version="1.2" baseProfile="tiny" id="圖層_1"
	 xmlns="http://www.w3.org/2000/svg" xmlns:xlink="http://www.w3.org/1999/xlink" x="0px" y="0px" viewBox="0 0 350 350"
	 overflow="scroll" xml:space="preserve">
<g>
	<path fill="#575959" d="M185.595,145.097c3.586-5.816,5.449-11.097,5.59-15.842c0.237-4.439-0.356-9.126-1.78-14.062
		c-0.665-2.731-0.403-4.701,0.784-5.91c1.21-1.21,3-1.424,5.372-0.639c2.067,0.759,4.014,2.147,5.841,4.163
		c1.827,2.019,3.156,4.235,3.985,6.658c1.257,4.247,0.595,8.449-1.994,12.601c-3.368,5.267-8.722,10.193-16.052,14.774
		C184.469,148.62,183.887,148.039,185.595,145.097"/>
	<path fill="#3594C5" d="M150.602,134.522c-4.058,8.831-5.993,16.982-5.801,24.458c0.117,5.91,2.027,10.491,5.729,13.742
		c2.233,1.78,4.784,2.953,7.654,3.524c2.896,0.592,5.507,0.473,7.832-0.356c2.612-1.046,4.083-2.633,4.417-4.769
		c0.308-2.114-0.69-4.261-2.993-6.444c-4.628-3.964-8.199-8.166-10.712-12.601c-2.492-4.439-3.705-10.23-3.633-17.375
		C152.999,131.379,152.168,131.318,150.602,134.522 M161.104,118.503c-8.71-0.592-16.092,0.345-22.144,2.812
		c-4.769,1.994-7.995,5.115-9.681,9.365c-0.879,2.514-1.21,5.137-0.999,7.868c0.214,2.728,0.926,4.995,2.136,6.797
		c1.472,2.019,3.099,2.837,4.879,2.459c1.755-0.404,3.24-1.994,4.45-4.773c2.041-5.34,4.617-9.8,7.726-13.382
		c3.131-3.608,7.806-6.564,14.025-8.867C164.558,119.502,164.427,118.742,161.104,118.503 M180.542,123.628
		c-4.367-5.053-8.747-8.352-13.135-9.895c-4.108-1.565-8.711-2.419-13.815-2.565c-2.8-0.164-4.592-0.971-5.376-2.419
		c-0.759-1.449-0.414-3.146,1.035-5.089c1.352-1.639,3.251-2.993,5.696-4.061c2.466-1.068,4.969-1.624,7.508-1.671
		c4.345,0.117,8.082,1.968,11.214,5.554c3.941,4.602,6.968,10.963,9.078,19.078C183.531,125.742,182.794,126.098,180.542,123.628"/>
	<path fill="#595A5B" d="M8,208.844l3.238-1.491c0.303,1.113,0.862,1.964,1.68,2.547c0.815,0.579,1.86,0.868,3.137,0.868
		c1.202,0,2.159-0.334,2.87-1.001c0.712-0.668,1.068-1.563,1.068-2.692c0-1.46-1.218-2.765-3.649-3.916
		c-0.342-0.17-0.601-0.295-0.779-0.379c-2.753-1.335-4.589-2.542-5.506-3.626c-0.913-1.091-1.368-2.417-1.368-3.983
		c0-2.031,0.689-3.677,2.069-4.94c1.385-1.26,3.196-1.891,5.429-1.891c1.838,0,3.376,0.356,4.617,1.068
		c1.238,0.706,2.094,1.721,2.57,3.048l-3.16,1.636c-0.506-0.779-1.057-1.349-1.657-1.713c-0.595-0.362-1.276-0.545-2.047-0.545
		c-1.09,0-1.958,0.287-2.603,0.857c-0.64,0.565-0.957,1.321-0.957,2.27c0,1.499,1.407,2.898,4.228,4.194
		c0.213,0.105,0.384,0.183,0.511,0.234c2.461,1.143,4.152,2.255,5.073,3.337c0.918,1.085,1.38,2.436,1.38,4.06
		c0,2.367-0.745,4.247-2.236,5.64c-1.485,1.388-3.49,2.081-6.019,2.081c-2.13,0-3.871-0.489-5.229-1.468
		C9.301,212.06,8.414,210.663,8,208.844L8,208.844z M43.465,213.839h-3.704v-2.092c-0.661,0.929-1.432,1.621-2.314,2.081
		c-0.876,0.451-1.88,0.679-3.015,0.679c-2.286,0-4.083-0.779-5.395-2.336c-1.307-1.563-1.958-3.704-1.958-6.419
		c0-2.581,0.667-4.661,2.002-6.24c1.341-1.586,3.093-2.381,5.251-2.381c1.313,0,2.436,0.276,3.371,0.823
		c0.94,0.55,1.627,1.344,2.057,2.381v-2.648h3.704L43.465,213.839L43.465,213.839z M39.861,205.718c0-1.674-0.389-2.975-1.168-3.904
		c-0.773-0.935-1.857-1.402-3.259-1.402c-1.396,0-2.492,0.484-3.293,1.446c-0.801,0.957-1.201,2.289-1.201,3.994
		c0,1.713,0.384,3.036,1.157,3.972c0.771,0.929,1.86,1.391,3.27,1.391c1.327,0,2.406-0.503,3.238-1.513
		C39.441,208.694,39.861,207.365,39.861,205.718L39.861,205.718z M48.644,213.839v-16.154h3.471v2.648
		c0.74-1.113,1.608-1.925,2.603-2.436c1.001-0.512,2.216-0.768,3.649-0.768c1.202,0,2.225,0.189,3.071,0.568
		c0.851,0.378,1.516,0.943,1.991,1.691c0.281,0.445,0.484,0.965,0.613,1.557c0.125,0.587,0.189,1.622,0.189,3.104v9.79h-3.738v-8.3
		c0-2.119-0.262-3.529-0.779-4.227c-0.512-0.696-1.43-1.046-2.748-1.046c-0.862,0-1.63,0.162-2.302,0.479
		c-0.676,0.311-1.207,0.756-1.591,1.335c-0.276,0.387-0.468,0.884-0.579,1.491c-0.105,0.609-0.156,1.577-0.156,2.904v7.365
		L48.644,213.839L48.644,213.839z M72.723,197.686v9.1c0,1.566,0.323,2.69,0.968,3.371c0.651,0.684,1.705,1.023,3.159,1.023
		c1.452,0,2.503-0.339,3.149-1.023c0.645-0.681,0.968-1.805,0.968-3.371v-9.1h3.704v7.998c0,3.087-0.62,5.329-1.857,6.731
		c-1.24,1.395-3.215,2.091-5.929,2.091c-2.759,0-4.759-0.693-5.996-2.081c-1.24-1.385-1.857-3.632-1.857-6.742v-7.998
		L72.723,197.686L72.723,197.686z M89.664,213.839v-16.154h3.471v2.648c0.74-1.113,1.608-1.925,2.603-2.436
		c1.002-0.512,2.217-0.768,3.649-0.768c1.202,0,2.225,0.189,3.071,0.568c0.851,0.378,1.516,0.943,1.991,1.691
		c0.281,0.445,0.484,0.965,0.612,1.557c0.125,0.587,0.189,1.622,0.189,3.104v9.79h-3.738v-8.3c0-2.119-0.261-3.529-0.779-4.227
		c-0.512-0.696-1.43-1.046-2.747-1.046c-0.862,0-1.63,0.162-2.303,0.479c-0.676,0.311-1.207,0.756-1.591,1.335
		c-0.276,0.387-0.467,0.884-0.579,1.491c-0.105,0.609-0.155,1.577-0.155,2.904v7.365L89.664,213.839L89.664,213.839z
		 M125.369,213.839h-3.705v-2.092c-0.661,0.929-1.432,1.621-2.314,2.081c-0.876,0.451-1.88,0.679-3.015,0.679
		c-2.286,0-4.083-0.779-5.395-2.336c-1.307-1.563-1.958-3.704-1.958-6.419c0-2.581,0.667-4.661,2.002-6.24
		c1.341-1.586,3.093-2.381,5.251-2.381c1.313,0,2.436,0.276,3.371,0.823c0.94,0.55,1.627,1.344,2.057,2.381v-2.648h3.705
		L125.369,213.839L125.369,213.839z M121.764,205.718c0-1.674-0.389-2.975-1.168-3.904c-0.773-0.935-1.857-1.402-3.259-1.402
		c-1.396,0-2.492,0.484-3.293,1.446c-0.801,0.957-1.201,2.289-1.201,3.994c0,1.713,0.384,3.036,1.157,3.972
		c0.771,0.929,1.86,1.391,3.271,1.391c1.326,0,2.405-0.503,3.237-1.513C121.344,208.694,121.764,207.365,121.764,205.718
		L121.764,205.718z M149.473,192.346v21.493h-4.06v-21.493h-6.631v-3.449h17.277v3.449H149.473z M170.968,206.307h-12.915
		c0.089,1.513,0.537,2.693,1.346,3.538c0.807,0.846,1.881,1.268,3.215,1.268c1.193,0,2.186-0.247,2.982-0.745
		c0.801-0.503,1.493-1.313,2.08-2.426l3.115,1.736c-0.906,1.624-2.03,2.836-3.37,3.638c-1.335,0.792-2.909,1.19-4.717,1.19
		c-2.589,0-4.65-0.789-6.185-2.37c-1.53-1.58-2.292-3.685-2.292-6.319c0-2.537,0.789-4.617,2.37-6.241
		c1.586-1.63,3.621-2.447,6.108-2.447c2.603,0,4.631,0.745,6.085,2.236c1.452,1.485,2.18,3.566,2.18,6.241L170.968,206.307
		L170.968,206.307z M167.131,203.827c-0.15-1.163-0.595-2.047-1.335-2.648c-0.734-0.606-1.744-0.912-3.026-0.912
		c-1.218,0-2.197,0.297-2.937,0.89c-0.734,0.587-1.252,1.477-1.547,2.67H167.131L167.131,203.827z M186.897,202.292
		c-0.573-0.623-1.235-1.096-1.991-1.424c-0.751-0.334-1.563-0.5-2.436-0.5c-1.513,0-2.725,0.489-3.638,1.468
		c-0.906,0.973-1.357,2.267-1.357,3.883c0,1.678,0.456,2.998,1.368,3.961c0.918,0.957,2.183,1.435,3.793,1.435
		c0.896,0,1.697-0.166,2.403-0.5c0.703-0.333,1.324-0.839,1.858-1.523v4.261c-0.684,0.387-1.413,0.673-2.192,0.868
		c-0.778,0.192-1.607,0.289-2.481,0.289c-2.531,0-4.592-0.804-6.185-2.415c-1.597-1.615-2.392-3.707-2.392-6.274
		c0-2.603,0.823-4.701,2.47-6.297c1.652-1.594,3.815-2.391,6.485-2.391c0.837,0,1.608,0.083,2.314,0.245
		c0.704,0.163,1.363,0.416,1.981,0.756V202.292L186.897,202.292z M190.712,213.839v-26.4h3.471v12.894
		c0.74-1.113,1.608-1.925,2.603-2.436c1.001-0.512,2.216-0.768,3.649-0.768c1.202,0,2.225,0.189,3.071,0.568
		c0.851,0.378,1.516,0.943,1.991,1.691c0.281,0.445,0.484,0.965,0.612,1.557c0.125,0.587,0.189,1.622,0.189,3.104v9.79h-3.738v-8.3
		c0-2.119-0.262-3.529-0.779-4.227c-0.512-0.696-1.43-1.046-2.748-1.046c-0.862,0-1.63,0.162-2.302,0.479
		c-0.676,0.311-1.207,0.756-1.591,1.335c-0.276,0.387-0.468,0.884-0.579,1.491c-0.105,0.609-0.156,1.577-0.156,2.904v7.365
		L190.712,213.839L190.712,213.839z M211.224,213.839v-16.154h3.471v2.648c0.739-1.113,1.607-1.925,2.603-2.436
		c1.001-0.512,2.216-0.768,3.649-0.768c1.201,0,2.225,0.189,3.07,0.568c0.852,0.378,1.516,0.943,1.991,1.691
		c0.281,0.445,0.484,0.965,0.613,1.557c0.124,0.587,0.189,1.622,0.189,3.104v9.79h-3.738v-8.3c0-2.119-0.261-3.529-0.779-4.227
		c-0.511-0.696-1.429-1.046-2.748-1.046c-0.862,0-1.63,0.162-2.302,0.479c-0.676,0.311-1.208,0.756-1.591,1.335
		c-0.275,0.387-0.467,0.884-0.578,1.491c-0.106,0.609-0.156,1.577-0.156,2.904v7.365L211.224,213.839L211.224,213.839z
		 M244.415,205.818c0-1.497-0.484-2.765-1.447-3.805c-0.965-1.046-2.144-1.568-3.537-1.568c-1.389,0-2.567,0.523-3.538,1.568
		c-0.973,1.04-1.457,2.308-1.457,3.805c0,1.499,0.484,2.767,1.457,3.805c0.971,1.04,2.149,1.557,3.538,1.557
		c1.385,0,2.561-0.517,3.527-1.557C243.927,208.585,244.415,207.317,244.415,205.818L244.415,205.818z M230.541,205.785
		c0-1.185,0.223-2.302,0.668-3.349c0.445-1.052,1.09-1.986,1.936-2.804c0.829-0.806,1.783-1.426,2.859-1.857
		c1.082-0.428,2.214-0.645,3.393-0.645c1.215,0,2.358,0.217,3.426,0.645c1.074,0.431,2.039,1.068,2.893,1.914
		c0.851,0.823,1.496,1.757,1.936,2.803c0.445,1.046,0.667,2.144,0.667,3.293c0,1.188-0.219,2.302-0.656,3.349
		c-0.439,1.046-1.076,1.975-1.913,2.781c-0.89,0.855-1.875,1.499-2.949,1.936c-1.076,0.437-2.211,0.656-3.404,0.656
		c-1.174,0-2.3-0.22-3.382-0.656c-1.076-0.437-2.033-1.071-2.87-1.902c-0.855-0.837-1.502-1.78-1.947-2.825
		C230.759,208.077,230.541,206.964,230.541,205.785L230.541,205.785z M252.41,213.839v-26.4h3.694v26.4H252.41z M274.057,205.818
		c0-1.497-0.484-2.765-1.447-3.805c-0.965-1.046-2.144-1.568-3.537-1.568c-1.389,0-2.567,0.523-3.538,1.568
		c-0.973,1.04-1.457,2.308-1.457,3.805c0,1.499,0.484,2.767,1.457,3.805c0.971,1.04,2.149,1.557,3.538,1.557
		c1.385,0,2.561-0.517,3.526-1.557C273.569,208.585,274.057,207.317,274.057,205.818L274.057,205.818z M260.183,205.785
		c0-1.185,0.223-2.302,0.668-3.349c0.445-1.052,1.09-1.986,1.935-2.804c0.829-0.806,1.783-1.426,2.859-1.857
		c1.082-0.428,2.214-0.645,3.393-0.645c1.215,0,2.358,0.217,3.426,0.645c1.074,0.431,2.039,1.068,2.893,1.914
		c0.851,0.823,1.496,1.757,1.935,2.803c0.445,1.046,0.668,2.144,0.668,3.293c0,1.188-0.22,2.302-0.656,3.349
		c-0.439,1.046-1.076,1.975-1.913,2.781c-0.89,0.855-1.875,1.499-2.949,1.936c-1.076,0.437-2.212,0.656-3.404,0.656
		c-1.174,0-2.3-0.22-3.382-0.656c-1.076-0.437-2.033-1.071-2.87-1.902c-0.854-0.837-1.502-1.78-1.947-2.825
		C260.401,208.077,260.183,206.964,260.183,205.785L260.183,205.785z M293.474,205.718c0-1.674-0.389-2.975-1.168-3.904
		c-0.773-0.935-1.857-1.402-3.26-1.402c-1.396,0-2.492,0.484-3.293,1.446c-0.801,0.957-1.201,2.289-1.201,3.994
		c0,1.713,0.384,3.036,1.157,3.972c0.771,0.929,1.86,1.391,3.27,1.391c1.327,0,2.406-0.503,3.238-1.513
		C293.054,208.694,293.474,207.365,293.474,205.718L293.474,205.718z M297.078,212.838c0,3.151-0.631,5.373-1.891,6.664
		c-1.262,1.29-3.388,1.935-6.374,1.935c-2.225,0-4.005-0.473-5.34-1.413c-1.329-0.934-2.002-2.178-2.025-3.727l3.972-0.023
		c0.059,0.69,0.382,1.215,0.968,1.58c0.592,0.362,1.424,0.545,2.492,0.545c1.58,0,2.714-0.345,3.404-1.034
		c0.696-0.69,1.049-1.847,1.057-3.471l0.034-2.147c-0.661,0.929-1.432,1.621-2.314,2.081c-0.876,0.451-1.88,0.679-3.015,0.679
		c-2.286,0-4.083-0.779-5.395-2.336c-1.307-1.563-1.958-3.704-1.958-6.419c0-2.581,0.667-4.661,2.002-6.24
		c1.341-1.586,3.093-2.381,5.251-2.381c1.313,0,2.436,0.276,3.371,0.823c0.94,0.55,1.627,1.344,2.057,2.381v-2.648h3.704
		L297.078,212.838L297.078,212.838z M301.935,190.71c0-0.629,0.228-1.171,0.69-1.624c0.458-0.451,1.004-0.679,1.635-0.679
		c0.659,0,1.208,0.219,1.647,0.656c0.437,0.439,0.656,0.987,0.656,1.646c0,0.654-0.223,1.207-0.668,1.657
		c-0.439,0.445-0.984,0.668-1.636,0.668c-0.631,0-1.176-0.229-1.635-0.69C302.163,191.888,301.935,191.342,301.935,190.71
		L301.935,190.71z M302.424,213.839v-16.154h3.694v16.154L302.424,213.839L302.424,213.839z M327.007,206.307h-12.916
		c0.089,1.513,0.537,2.693,1.347,3.538c0.806,0.846,1.88,1.268,3.215,1.268c1.193,0,2.186-0.247,2.982-0.745
		c0.801-0.503,1.493-1.313,2.081-2.426l3.115,1.736c-0.907,1.624-2.031,2.836-3.371,3.638c-1.335,0.792-2.909,1.19-4.717,1.19
		c-2.589,0-4.65-0.789-6.185-2.37c-1.53-1.58-2.292-3.685-2.292-6.319c0-2.537,0.79-4.617,2.37-6.241
		c1.586-1.63,3.621-2.447,6.108-2.447c2.603,0,4.631,0.745,6.085,2.236c1.452,1.485,2.181,3.566,2.181,6.241L327.007,206.307
		L327.007,206.307z M323.169,203.827c-0.15-1.163-0.595-2.047-1.335-2.648c-0.734-0.606-1.744-0.912-3.026-0.912
		c-1.218,0-2.197,0.297-2.937,0.89c-0.734,0.587-1.252,1.477-1.546,2.67H323.169L323.169,203.827z M329.018,210.913l3.059-1.669
		c0.228,0.801,0.648,1.413,1.257,1.836c0.615,0.422,1.407,0.634,2.381,0.634c0.823,0,1.469-0.189,1.936-0.568
		c0.473-0.384,0.712-0.906,0.712-1.568c0-0.873-0.84-1.624-2.514-2.247c-0.573-0.206-1.01-0.378-1.313-0.512
		c-1.73-0.712-2.937-1.434-3.627-2.17c-0.684-0.739-1.023-1.641-1.023-2.704c0-1.437,0.562-2.606,1.691-3.504
		c1.134-0.896,2.631-1.347,4.494-1.347c1.246,0,2.314,0.231,3.204,0.69c0.896,0.461,1.549,1.118,1.958,1.968l-2.625,1.803
		c-0.195-0.512-0.532-0.916-1.013-1.213c-0.484-0.303-1.043-0.455-1.68-0.455c-0.706,0-1.273,0.166-1.702,0.5
		c-0.423,0.334-0.634,0.779-0.634,1.335c0,0.845,0.951,1.613,2.859,2.302c0.606,0.217,1.074,0.389,1.401,0.523
		c1.491,0.595,2.553,1.265,3.193,2.013c0.645,0.742,0.968,1.669,0.968,2.781c0,1.61-0.587,2.876-1.758,3.793
		c-1.173,0.912-2.787,1.368-4.839,1.368c-1.58,0-2.893-0.297-3.938-0.89C330.42,213.024,329.602,212.123,329.018,210.913
		L329.018,210.913z"/>
	<path fill="#3796C6" d="M11.651,247.266v-15.775h2.559v15.775H11.651z M17.745,247.266v-10.212h2.203v1.669
		c0.467-0.704,1.015-1.215,1.647-1.535c0.629-0.326,1.396-0.49,2.302-0.49c0.762,0,1.413,0.122,1.947,0.368
		c0.54,0.239,0.96,0.589,1.257,1.057c0.178,0.284,0.306,0.612,0.389,0.99c0.081,0.372,0.123,1.023,0.123,1.958v6.196h-2.359v-5.251
		c0-1.341-0.166-2.231-0.5-2.67c-0.328-0.445-0.906-0.668-1.735-0.668c-0.551,0-1.04,0.1-1.469,0.3
		c-0.423,0.2-0.756,0.487-1.001,0.857c-0.172,0.239-0.289,0.551-0.356,0.935c-0.067,0.387-0.1,0.998-0.1,1.836v4.661L17.745,247.266
		L17.745,247.266z M30.719,247.266v-10.212h2.203v1.669c0.467-0.704,1.015-1.215,1.646-1.535c0.629-0.326,1.396-0.49,2.303-0.49
		c0.762,0,1.413,0.122,1.947,0.368c0.54,0.239,0.96,0.589,1.257,1.057c0.178,0.284,0.305,0.612,0.389,0.99
		c0.081,0.372,0.122,1.023,0.122,1.958v6.196h-2.358v-5.251c0-1.341-0.166-2.231-0.5-2.67c-0.328-0.445-0.907-0.668-1.736-0.668
		c-0.55,0-1.04,0.1-1.468,0.3c-0.423,0.2-0.757,0.487-1.001,0.857c-0.173,0.239-0.29,0.551-0.356,0.935
		c-0.067,0.387-0.1,0.998-0.1,1.836v4.661L30.719,247.266L30.719,247.266z M51.728,242.194c0-0.948-0.309-1.749-0.923-2.403
		c-0.609-0.659-1.354-0.99-2.236-0.99c-0.876,0-1.621,0.331-2.236,0.99c-0.617,0.654-0.923,1.455-0.923,2.403
		c0,0.951,0.306,1.755,0.923,2.414c0.615,0.654,1.36,0.979,2.236,0.979c0.874,0,1.619-0.326,2.236-0.979
		C51.42,243.948,51.728,243.145,51.728,242.194L51.728,242.194z M42.951,242.171c0-0.748,0.139-1.452,0.423-2.114
		c0.281-0.668,0.689-1.26,1.223-1.78c0.518-0.512,1.118-0.902,1.803-1.168c0.689-0.273,1.404-0.411,2.147-0.411
		c0.771,0,1.494,0.139,2.17,0.411c0.681,0.267,1.293,0.668,1.836,1.202c0.534,0.528,0.94,1.121,1.224,1.78
		c0.281,0.661,0.423,1.354,0.423,2.081c0,0.75-0.142,1.457-0.423,2.125c-0.276,0.662-0.676,1.246-1.202,1.758
		c-0.565,0.534-1.188,0.94-1.869,1.213c-0.684,0.281-1.401,0.423-2.158,0.423c-0.742,0-1.455-0.142-2.136-0.423
		c-0.684-0.273-1.287-0.674-1.813-1.202c-0.542-0.526-0.954-1.118-1.234-1.78C43.087,243.626,42.951,242.922,42.951,242.171
		L42.951,242.171z M60.264,247.878l-5.362-10.824h2.559l2.236,5.14c0.067,0.156,0.147,0.394,0.245,0.712
		c0.103,0.311,0.211,0.687,0.323,1.123c0.073-0.303,0.159-0.607,0.256-0.912c0.094-0.312,0.211-0.618,0.345-0.923l2.225-5.14h2.536
		L60.264,247.878z M76.715,247.266h-2.337v-1.324c-0.417,0.587-0.901,1.024-1.457,1.313c-0.557,0.289-1.196,0.434-1.914,0.434
		c-1.446,0-2.586-0.493-3.415-1.48c-0.823-0.992-1.234-2.347-1.234-4.06c0-1.63,0.423-2.948,1.268-3.949
		c0.846-1.001,1.949-1.502,3.315-1.502c0.837,0,1.549,0.175,2.136,0.523c0.592,0.351,1.026,0.852,1.302,1.502v-1.669h2.337
		L76.715,247.266L76.715,247.266z M74.445,242.126c0-1.06-0.25-1.883-0.745-2.47c-0.489-0.584-1.176-0.879-2.057-0.879
		c-0.885,0-1.58,0.306-2.092,0.912c-0.506,0.601-0.756,1.444-0.756,2.525c0,1.084,0.244,1.922,0.734,2.514
		c0.489,0.587,1.179,0.879,2.069,0.879c0.846,0,1.53-0.318,2.058-0.957C74.18,244.007,74.445,243.167,74.445,242.126L74.445,242.126
		z M80.549,247.266V239.1h-1.791v-2.047h1.791v-3.871h2.337v3.871h1.791v2.047h-1.791v8.166H80.549z M86.474,232.626
		c0-0.392,0.145-0.728,0.434-1.013c0.289-0.289,0.637-0.434,1.046-0.434c0.414,0,0.759,0.139,1.034,0.411
		c0.273,0.276,0.411,0.62,0.411,1.034c0,0.423-0.142,0.776-0.423,1.057c-0.275,0.284-0.617,0.422-1.023,0.422
		c-0.409,0-0.757-0.145-1.046-0.434C86.618,233.383,86.474,233.034,86.474,232.626L86.474,232.626z M86.785,247.266v-10.212h2.336
		v10.212H86.785z M96.088,247.878l-5.363-10.824h2.559l2.236,5.14c0.066,0.156,0.147,0.394,0.244,0.712
		c0.103,0.311,0.211,0.687,0.323,1.123c0.072-0.303,0.158-0.607,0.255-0.912c0.095-0.312,0.211-0.618,0.345-0.923l2.225-5.14h2.537
		L96.088,247.878z M112.772,242.504h-8.176c0.058,0.957,0.345,1.702,0.857,2.236s1.19,0.801,2.036,0.801
		c0.757,0,1.383-0.156,1.881-0.467c0.503-0.318,0.945-0.829,1.323-1.536l1.969,1.102c-0.573,1.024-1.285,1.789-2.136,2.292
		c-0.846,0.503-1.841,0.757-2.982,0.757c-1.64,0-2.945-0.501-3.916-1.502c-0.965-1.001-1.446-2.331-1.446-3.993
		c0-1.602,0.5-2.918,1.502-3.949c1.001-1.029,2.286-1.547,3.859-1.547c1.647,0,2.929,0.473,3.85,1.413
		c0.918,0.935,1.379,2.253,1.379,3.949L112.772,242.504L112.772,242.504z M110.347,240.926c-0.097-0.726-0.378-1.282-0.846-1.669
		c-0.467-0.384-1.107-0.579-1.913-0.579c-0.773,0-1.391,0.189-1.857,0.568c-0.468,0.373-0.796,0.932-0.979,1.68L110.347,240.926
		L110.347,240.926z M121.183,244.106l2.047-0.945c0.2,0.706,0.556,1.243,1.068,1.613c0.517,0.372,1.182,0.556,1.991,0.556
		c0.756,0,1.357-0.211,1.802-0.634c0.451-0.428,0.679-1.001,0.679-1.713c0-0.926-0.768-1.749-2.302-2.47
		c-0.217-0.111-0.379-0.192-0.49-0.244c-1.744-0.846-2.904-1.608-3.483-2.292c-0.578-0.69-0.867-1.53-0.867-2.525
		c0-1.282,0.437-2.32,1.312-3.115c0.873-0.801,2.016-1.201,3.427-1.201c1.163,0,2.136,0.228,2.915,0.679
		c0.784,0.445,1.329,1.087,1.636,1.925l-2.003,1.034c-0.32-0.495-0.667-0.86-1.046-1.09c-0.372-0.229-0.801-0.345-1.29-0.345
		c-0.69,0-1.24,0.184-1.647,0.545c-0.409,0.356-0.612,0.84-0.612,1.446c0,0.943,0.893,1.825,2.681,2.648
		c0.133,0.067,0.239,0.117,0.323,0.145c1.557,0.721,2.625,1.424,3.204,2.114c0.584,0.684,0.879,1.541,0.879,2.57
		c0,1.491-0.473,2.678-1.413,3.56c-0.943,0.884-2.214,1.324-3.816,1.324c-1.343,0-2.444-0.309-3.304-0.923
		C122.012,246.143,121.45,245.258,121.183,244.106L121.183,244.106z M143.852,242.504h-8.177c0.058,0.957,0.345,1.702,0.857,2.236
		s1.19,0.801,2.036,0.801c0.756,0,1.382-0.156,1.88-0.467c0.503-0.318,0.945-0.829,1.324-1.536l1.968,1.102
		c-0.573,1.024-1.284,1.789-2.136,2.292c-0.845,0.503-1.841,0.757-2.981,0.757c-1.641,0-2.946-0.501-3.916-1.502
		c-0.965-1.001-1.446-2.331-1.446-3.993c0-1.602,0.5-2.918,1.502-3.949c1.001-1.029,2.286-1.547,3.86-1.547
		c1.646,0,2.928,0.473,3.849,1.413c0.918,0.935,1.38,2.253,1.38,3.949V242.504L143.852,242.504z M141.427,240.926
		c-0.097-0.726-0.378-1.282-0.845-1.669c-0.467-0.384-1.107-0.579-1.914-0.579c-0.773,0-1.391,0.189-1.857,0.568
		c-0.467,0.373-0.795,0.932-0.979,1.68L141.427,240.926L141.427,240.926z M153.925,239.957c-0.356-0.392-0.776-0.693-1.257-0.901
		c-0.476-0.206-0.989-0.312-1.547-0.312c-0.956,0-1.723,0.309-2.302,0.923c-0.573,0.617-0.857,1.436-0.857,2.459
		c0,1.062,0.289,1.897,0.868,2.503c0.578,0.609,1.379,0.912,2.403,0.912c0.571,0,1.079-0.103,1.523-0.312
		c0.445-0.213,0.834-0.536,1.168-0.968v2.692c-0.431,0.245-0.896,0.426-1.391,0.545c-0.49,0.125-1.01,0.189-1.558,0.189
		c-1.602,0-2.909-0.506-3.916-1.524c-1.01-1.024-1.513-2.347-1.513-3.972c0-1.647,0.518-2.973,1.558-3.983
		c1.046-1.007,2.414-1.513,4.104-1.513c0.534,0,1.024,0.053,1.469,0.156c0.445,0.105,0.86,0.264,1.246,0.479L153.925,239.957
		L153.925,239.957z M158.606,237.054v5.751c0,0.996,0.203,1.708,0.613,2.136c0.406,0.431,1.07,0.645,1.991,0.645
		c0.918,0,1.583-0.213,1.991-0.645c0.414-0.428,0.623-1.14,0.623-2.136v-5.751h2.337v5.051c0,1.952-0.395,3.37-1.18,4.261
		c-0.778,0.884-2.03,1.324-3.749,1.324c-1.744,0-3.009-0.437-3.793-1.313c-0.779-0.882-1.168-2.306-1.168-4.272v-5.051H158.606z
		 M171.661,238.677c0.245-0.673,0.573-1.171,0.99-1.49c0.414-0.326,0.926-0.49,1.535-0.49c0.334,0,0.659,0.042,0.979,0.122
		c0.317,0.075,0.634,0.187,0.945,0.334l-0.845,1.991c-0.201-0.147-0.42-0.256-0.656-0.323c-0.231-0.066-0.49-0.1-0.779-0.1
		c-0.773,0-1.329,0.311-1.669,0.934c-0.334,0.617-0.5,1.657-0.5,3.126v4.483h-2.347v-10.235h2.347V238.677L171.661,238.677z
		 M177.218,232.626c0-0.392,0.145-0.728,0.434-1.013c0.289-0.289,0.637-0.434,1.046-0.434c0.414,0,0.759,0.139,1.034,0.411
		c0.273,0.276,0.411,0.62,0.411,1.034c0,0.423-0.142,0.776-0.423,1.057c-0.275,0.284-0.617,0.422-1.023,0.422
		c-0.409,0-0.757-0.145-1.046-0.434C177.363,233.383,177.218,233.034,177.218,232.626L177.218,232.626z M177.529,247.266v-10.212
		h2.337v10.212H177.529z M183.793,247.266V239.1h-1.791v-2.047h1.791v-3.871h2.336v3.871h1.791v2.047h-1.791v8.166H183.793z
		 M191.677,252.072h-2.403l2.804-5.685l-3.749-9.333h2.581l1.881,5.285c0.111,0.328,0.206,0.656,0.289,0.99
		c0.081,0.333,0.147,0.673,0.2,1.012c0.089-0.356,0.312-0.926,0.668-1.713l0.055-0.122l2.514-5.451h2.537L191.677,252.072z
		 M220.051,239.479c-0.022-0.124-0.067-0.461-0.134-1.013c-0.061-0.458-0.111-0.839-0.155-1.146
		c-0.061,0.356-0.15,0.718-0.267,1.079c-0.12,0.356-0.273,0.723-0.456,1.102l-4.127,8.399l-4.127-8.576
		c-0.172-0.348-0.32-0.69-0.445-1.024c-0.127-0.334-0.234-0.659-0.323-0.979c-0.008,0.328-0.039,0.673-0.089,1.034
		c-0.044,0.365-0.117,0.745-0.211,1.147l-1.691,7.765h-2.358l3.727-16.443l4.661,9.957c0.073,0.156,0.181,0.42,0.323,0.79
		c0.147,0.364,0.326,0.818,0.534,1.357c0.156-0.451,0.392-1.026,0.712-1.724c0.089-0.192,0.156-0.337,0.2-0.434l4.551-9.946
		l3.805,16.443H221.8L220.051,239.479z M235.656,247.266h-2.336v-1.324c-0.417,0.587-0.902,1.024-1.457,1.313
		c-0.556,0.289-1.196,0.434-1.914,0.434c-1.446,0-2.586-0.493-3.415-1.48c-0.823-0.992-1.234-2.347-1.234-4.06
		c0-1.63,0.423-2.948,1.268-3.949c0.846-1.001,1.95-1.502,3.316-1.502c0.837,0,1.549,0.175,2.136,0.523
		c0.592,0.351,1.026,0.852,1.302,1.502v-1.669h2.336L235.656,247.266L235.656,247.266z M233.386,242.126
		c0-1.06-0.25-1.883-0.745-2.47c-0.49-0.584-1.177-0.879-2.058-0.879c-0.884,0-1.58,0.306-2.092,0.912
		c-0.505,0.601-0.756,1.444-0.756,2.525c0,1.084,0.245,1.922,0.734,2.514c0.49,0.587,1.179,0.879,2.069,0.879
		c0.846,0,1.53-0.318,2.058-0.957C233.122,244.007,233.386,243.167,233.386,242.126L233.386,242.126z M238.932,247.266v-10.212
		h2.203v1.669c0.467-0.704,1.015-1.215,1.647-1.535c0.629-0.326,1.396-0.49,2.302-0.49c0.762,0,1.413,0.122,1.947,0.368
		c0.539,0.239,0.959,0.589,1.257,1.057c0.178,0.284,0.306,0.612,0.389,0.99c0.081,0.372,0.122,1.023,0.122,1.958v6.196h-2.359
		v-5.251c0-1.341-0.166-2.231-0.5-2.67c-0.328-0.445-0.906-0.668-1.735-0.668c-0.551,0-1.04,0.1-1.469,0.3
		c-0.423,0.2-0.756,0.487-1.001,0.857c-0.172,0.239-0.289,0.551-0.356,0.935c-0.067,0.387-0.1,0.998-0.1,1.836v4.661
		L238.932,247.266L238.932,247.266z M261.521,247.266h-2.336v-1.324c-0.417,0.587-0.902,1.024-1.457,1.313
		c-0.556,0.289-1.196,0.434-1.914,0.434c-1.446,0-2.586-0.493-3.415-1.48c-0.824-0.992-1.235-2.347-1.235-4.06
		c0-1.63,0.423-2.948,1.268-3.949c0.846-1.001,1.95-1.502,3.316-1.502c0.837,0,1.549,0.175,2.136,0.523
		c0.592,0.351,1.026,0.852,1.302,1.502v-1.669h2.336L261.521,247.266L261.521,247.266z M259.252,242.126
		c0-1.06-0.25-1.883-0.745-2.47c-0.49-0.584-1.177-0.879-2.058-0.879c-0.884,0-1.58,0.306-2.091,0.912
		c-0.506,0.601-0.757,1.444-0.757,2.525c0,1.084,0.245,1.922,0.734,2.514c0.49,0.587,1.18,0.879,2.07,0.879
		c0.845,0,1.529-0.318,2.057-0.957C258.987,244.007,259.252,243.167,259.252,242.126L259.252,242.126z M272.14,242.126
		c0-1.06-0.25-1.883-0.745-2.47c-0.489-0.584-1.176-0.879-2.057-0.879c-0.885,0-1.58,0.306-2.092,0.912
		c-0.506,0.601-0.756,1.444-0.756,2.525c0,1.084,0.244,1.922,0.734,2.514c0.489,0.587,1.179,0.879,2.069,0.879
		c0.846,0,1.53-0.318,2.058-0.957C271.876,244.007,272.14,243.167,272.14,242.126L272.14,242.126z M274.41,246.632
		c0,1.994-0.401,3.399-1.202,4.217c-0.795,0.815-2.133,1.224-4.017,1.224c-1.41,0-2.536-0.297-3.382-0.89
		c-0.839-0.595-1.265-1.38-1.279-2.359l2.514-0.011c0.036,0.437,0.239,0.771,0.612,1.001c0.37,0.228,0.893,0.345,1.568,0.345
		c1.002,0,1.719-0.222,2.159-0.667c0.437-0.439,0.658-1.168,0.667-2.191l0.022-1.358c-0.417,0.587-0.901,1.024-1.457,1.313
		s-1.195,0.434-1.913,0.434c-1.446,0-2.586-0.492-3.415-1.48c-0.823-0.992-1.234-2.347-1.234-4.06c0-1.63,0.423-2.948,1.268-3.949
		s1.949-1.502,3.315-1.502c0.837,0,1.549,0.175,2.136,0.523c0.592,0.351,1.026,0.852,1.302,1.502v-1.669h2.337L274.41,246.632
		L274.41,246.632z M287.534,242.504h-8.176c0.058,0.957,0.345,1.702,0.857,2.236s1.19,0.801,2.036,0.801
		c0.757,0,1.383-0.156,1.881-0.467c0.503-0.318,0.945-0.829,1.323-1.536l1.969,1.102c-0.573,1.024-1.285,1.789-2.136,2.292
		c-0.846,0.503-1.841,0.757-2.982,0.757c-1.641,0-2.945-0.501-3.916-1.502c-0.965-1.001-1.446-2.331-1.446-3.993
		c0-1.602,0.5-2.918,1.502-3.949c1.001-1.029,2.286-1.547,3.86-1.547c1.647,0,2.929,0.473,3.85,1.413
		c0.918,0.935,1.379,2.253,1.379,3.949v0.445h-0.001V242.504z M285.109,240.926c-0.098-0.726-0.378-1.282-0.846-1.669
		c-0.467-0.384-1.107-0.579-1.913-0.579c-0.773,0-1.391,0.189-1.857,0.568c-0.468,0.373-0.796,0.932-0.979,1.68L285.109,240.926
		L285.109,240.926z M292.32,247.266h-2.347v-10.212h2.203v1.669c0.467-0.712,0.995-1.23,1.591-1.558
		c0.592-0.326,1.291-0.489,2.092-0.489c0.801,0,1.46,0.166,1.98,0.5c0.526,0.334,0.926,0.842,1.201,1.524
		c0.54-0.704,1.113-1.216,1.714-1.536c0.606-0.326,1.302-0.489,2.08-0.489c0.673,0,1.263,0.127,1.769,0.378
		c0.503,0.245,0.896,0.601,1.179,1.068c0.125,0.231,0.217,0.5,0.279,0.813c0.058,0.305,0.089,0.742,0.089,1.312v7.02h-2.336v-5.251
		c0-1.371-0.145-2.273-0.434-2.704c-0.289-0.437-0.81-0.656-1.557-0.656c-0.921,0-1.577,0.295-1.969,0.879
		c-0.395,0.587-0.589,1.61-0.589,3.071v4.661h-2.359v-5.251c0-1.26-0.153-2.136-0.455-2.626c-0.306-0.489-0.831-0.734-1.58-0.734
		c-0.461,0-0.884,0.105-1.268,0.312c-0.379,0.208-0.679,0.497-0.902,0.867c-0.142,0.239-0.242,0.531-0.3,0.879
		c-0.053,0.342-0.078,0.973-0.078,1.891v4.662H292.32z M319.089,242.504h-8.177c0.058,0.957,0.345,1.702,0.857,2.236
		s1.19,0.801,2.036,0.801c0.756,0,1.382-0.156,1.88-0.467c0.503-0.318,0.945-0.829,1.324-1.536l1.969,1.102
		c-0.573,1.024-1.284,1.789-2.136,2.292c-0.845,0.503-1.841,0.757-2.981,0.757c-1.641,0-2.946-0.501-3.916-1.502
		c-0.965-1.001-1.446-2.331-1.446-3.993c0-1.602,0.5-2.918,1.502-3.949c1.001-1.029,2.286-1.547,3.86-1.547
		c1.646,0,2.928,0.473,3.849,1.413c0.918,0.935,1.38,2.253,1.38,3.949L319.089,242.504L319.089,242.504z M316.663,240.926
		c-0.097-0.726-0.378-1.282-0.845-1.669c-0.467-0.384-1.107-0.579-1.914-0.579c-0.773,0-1.391,0.189-1.857,0.568
		c-0.467,0.373-0.795,0.932-0.979,1.68L316.663,240.926L316.663,240.926z M321.528,247.266v-10.212h2.203v1.669
		c0.467-0.704,1.015-1.215,1.647-1.535c0.628-0.326,1.396-0.49,2.302-0.49c0.762,0,1.413,0.122,1.947,0.368
		c0.54,0.239,0.96,0.589,1.257,1.057c0.178,0.284,0.306,0.612,0.389,0.99c0.081,0.372,0.122,1.023,0.122,1.958v6.196h-2.359v-5.251
		c0-1.341-0.166-2.231-0.5-2.67c-0.328-0.445-0.906-0.668-1.735-0.668c-0.551,0-1.04,0.1-1.469,0.3
		c-0.423,0.2-0.756,0.487-1.001,0.857c-0.172,0.239-0.289,0.551-0.356,0.935c-0.067,0.387-0.1,0.998-0.1,1.836v4.661
		L321.528,247.266L321.528,247.266z M335.061,247.266V239.1h-1.791v-2.047h1.791v-3.871h2.336v3.871h1.791v2.047h-1.791v8.166
		H335.061z"/>
</g>
</svg>
