<svg version="1.1" xmlns="http://www.w3.org/2000/svg" width="16" height="16" data-icon="eye" class="iconic iconic-eye iconic-size-sm" viewBox="0 0 16 16">
  <g class="iconic-metadata">
    <title>Eye</title>
  </g>
  <g class="iconic-container" data-width="16" data-height="12" transform="translate(0 2)">
    <path d="M8.063 0c-5.063 0-8.063 6-8.063 6s3 6 8.063 6c4.938 0 7.938-6 7.938-6s-3-6-7.938-6zm-.063 10c-2.209 0-4-1.791-4-4s1.791-4 4-4 4 1.791 4 4-1.791 4-4 4z" class="iconic-eye-eyeball iconic-property-fill" />
    <path d="M9 6c-.552 0-1-.448-1-1 0-.403.241-.745.584-.903-.186-.057-.379-.097-.584-.097-1.105 0-2 .895-2 2s.895 2 2 2 2-.895 2-2c0-.204-.04-.398-.097-.584-.159.343-.501.584-.903.584z" class="iconic-eye-pupil iconic-property-fill" />
  </g>
</svg>