<?xml version="1.0" encoding="UTF-8" standalone="no"?>
<!-- Generator: Adobe Illustrator 16.0.0, SVG Export Plug-In . SVG Version: 6.00 Build 0)  -->
<!DOCTYPE svg  PUBLIC '-//W3C//DTD SVG 1.1//EN'  'http://www.w3.org/Graphics/SVG/1.1/DTD/svg11.dtd' [
	<!ENTITY st0 "enable-background:new    ;">
	<!ENTITY st1 "clip-path:url(#SVGID_2_);fill:#B3282D;">
	<!ENTITY st2 "clip-path:url(#SVGID_2_);fill:#00263D;">
]>
<svg id="Layer_1" style="enable-background:new 0 0 168 168" xmlns="http://www.w3.org/2000/svg" xml:space="preserve" height="168px" viewBox="0 0 168 168" width="168px" version="1.1" y="0px" x="0px" xmlns:xlink="http://www.w3.org/1999/xlink">
	<g style="enable-background:new">
				<defs>
					<rect id="SVGID_1_" y="42.6" x="2.8" height="78.8" width="162.4"/>
				</defs>
				<clipPath id="SVGID_2_">
					<use xlink:href="#SVGID_1_"/>
				</clipPath>
				<path style="clip-path:url(#SVGID_2_)" d="m30.6 95c0 0.2-0.1 0.4-0.3 0.6s-0.4 0.2-0.7 0.2h-19.7c-1.3 0-2.4-0.1-3.3-0.3s-1.6-0.5-2.2-1c-0.6-0.4-1-1-1.2-1.8-0.3-0.7-0.4-1.6-0.4-2.8v-2.7c0-1.1 0.1-2 0.4-2.7s0.7-1.3 1.2-1.8 1.3-0.8 2.2-1c0.9-0.2 2-0.3 3.3-0.3h13.3c0.5 0 0.8-0.1 0.9-0.2 0.1-0.2 0.2-0.5 0.2-1.1v-2.5c0-0.5-0.1-0.8-0.2-1s-0.4-0.2-0.9-0.2h-18.6c-0.3 0-0.5-0.1-0.7-0.2-0.2-0.2-0.3-0.4-0.3-0.6v-1.9c0-0.2 0.1-0.4 0.3-0.5s0.4-0.2 0.7-0.2h18.9c1.3 0 2.4 0.1 3.3 0.3s1.6 0.5 2.2 1c0.6 0.4 1 1 1.2 1.8s0.4 1.7 0.4 2.8v16.1zm-21.4-2.9c0.1 0.2 0.5 0.2 0.9 0.2h14.2v-7.2h-14.1c-0.5 0-0.8 0.1-0.9 0.2-0.2 0.2-0.3 0.6-0.3 1.1v4.6c0 0.6 0.1 0.9 0.2 1.1" fill="#00263D"/>
				<path style="clip-path:url(#SVGID_2_)" d="m40.3 78.1v16.7c0 0.2-0.1 0.4-0.3 0.6s-0.4 0.3-0.7 0.3h-4.3c-0.3 0-0.5-0.1-0.7-0.3s-0.3-0.4-0.3-0.6v-17.9c0-0.4 0.1-0.9 0.2-1.3s0.3-0.8 0.6-1.2 0.6-0.6 1-0.9 0.9-0.3 1.5-0.3h12.7c0.2 0 0.4 0.1 0.6 0.2s0.3 0.2 0.4 0.4v1.8c0.1 0.3 0.1 0.6-0.1 0.8s-0.5 0.3-0.8 0.3h-8.6c-0.4 0-0.7 0.2-0.9 0.5s-0.3 0.6-0.3 0.9" fill="#00263D"/>
				<path style="clip-path:url(#SVGID_2_)" d="m64.3 73.2h7.9c0.3 0 0.5 0.1 0.7 0.2 0.2 0.2 0.3 0.3 0.3 0.6v1.9c0 0.2-0.1 0.4-0.3 0.6s-0.4 0.2-0.7 0.2h-7.9v14.3c0 0.5 0.1 0.9 0.2 1.1s0.5 0.2 0.9 0.2h6.8c0.3 0 0.5 0.1 0.7 0.2 0.2 0.2 0.3 0.3 0.3 0.6v1.9c0 0.2-0.1 0.4-0.3 0.6s-0.4 0.3-0.7 0.3h-7.1c-1.8 0-3.2-0.1-4.2-0.3s-1.7-0.6-2.1-1c-0.4-0.5-0.7-1.1-0.7-1.8-0.1-0.8-0.1-1.7-0.1-2.7v-13.5h-4.2c-0.3 0-0.5-0.1-0.7-0.2s-0.3-0.3-0.3-0.6v-1.8c0-0.2 0.1-0.4 0.3-0.6s0.4-0.2 0.7-0.2h4.2" fill="#00263D"/>
				<path style="clip-path:url(#SVGID_2_)" d="m82.9 85.1v5.9c0 0.5 0.1 0.9 0.2 1.1s0.5 0.2 0.9 0.2h20.1c0.3 0 0.5 0.1 0.7 0.2 0.2 0.2 0.3 0.4 0.3 0.6v1.9c0 0.2-0.1 0.4-0.3 0.6s-0.4 0.2-0.7 0.2h-20.3c-1.3 0-2.4-0.1-3.3-0.3s-1.6-0.5-2.2-1c-0.6-0.4-1-1-1.2-1.8-0.3-0.7-0.4-1.6-0.4-2.8v-11c0-1.1 0.1-2 0.4-2.8 0.3-0.7 0.7-1.3 1.2-1.8 0.6-0.4 1.3-0.8 2.2-1s2-0.3 3.3-0.3h14.2c1.3 0 2.4 0.1 3.3 0.3s1.6 0.5 2.2 1c0.6 0.4 1 1 1.2 1.8 0.2 0.7 0.4 1.7 0.4 2.8v5.4c0 0.2-0.1 0.4-0.3 0.6s-0.4 0.2-0.7 0.2h-21.2zm0-3.4h15.9v-3.7c0-0.5-0.1-0.9-0.2-1.1s-0.5-0.2-0.9-0.2h-13.6c-0.5 0-0.8 0.1-0.9 0.2-0.2 0.1-0.3 0.5-0.3 1.1v3.7z" fill="#00263D"/>
				<path style="clip-path:url(#SVGID_2_)" d="m114.8 91c0 0.5 0.1 0.9 0.2 1.1s0.5 0.2 0.9 0.2h16.7c0.3 0 0.5 0.1 0.7 0.2 0.2 0.2 0.3 0.4 0.3 0.6l-0.1 1.9c0 0.2-0.1 0.4-0.3 0.5s-0.4 0.2-0.7 0.2h-16.9c-1.3 0-2.4-0.1-3.3-0.3s-1.6-0.5-2.2-1c-0.6-0.4-1-1-1.2-1.8-0.3-0.7-0.4-1.7-0.4-2.8v-10.9c0-1.1 0.1-2 0.4-2.8 0.2-0.7 0.7-1.3 1.2-1.8 0.6-0.4 1.3-0.8 2.2-1s2-0.3 3.3-0.3h17.2c0.3 0 0.5 0.1 0.7 0.2s0.3 0.4 0.3 0.6v1.9c0 0.2-0.1 0.4-0.3 0.6s-0.4 0.2-0.7 0.2h-16.9c-0.5 0-0.8 0.1-0.9 0.2-0.1 0.2-0.2 0.5-0.2 1.1v13.2z" fill="#00263D"/>
				<path style="clip-path:url(#SVGID_2_)" d="m165.2 90.1c0 1.1-0.1 2-0.4 2.8s-0.6 1.3-1.2 1.8-1.3 0.8-2.2 0.9-2 0.3-3.3 0.3h-14.1c-1.3 0-2.4-0.1-3.3-0.3s-1.6-0.5-2.2-0.9-1-1-1.2-1.8c-0.3-0.7-0.4-1.6-0.4-2.8v-11.1c0-1.1 0.1-2 0.4-2.7s0.7-1.3 1.2-1.8c0.6-0.4 1.3-0.8 2.2-0.9 0.9-0.2 2-0.3 3.3-0.3h14.1c1.3 0 2.4 0.1 3.3 0.3s1.6 0.5 2.2 0.9 1 1 1.2 1.8c0.2 0.7 0.4 1.6 0.4 2.7v11.1zm-21-13.3c-0.5 0-0.8 0.1-0.9 0.2-0.1 0.2-0.2 0.5-0.2 1.1v13c0 0.5 0.1 0.9 0.2 1.1s0.5 0.2 0.9 0.2h13.6c0.5 0 0.8-0.1 0.9-0.2 0.1-0.2 0.2-0.5 0.2-1.1v-13c0-0.5-0.1-0.9-0.2-1.1s-0.5-0.2-0.9-0.2h-13.6z" fill="#00263D"/>
				<path style="clip-path:url(#SVGID_2_)" d="m84 66.8c11.1 0 21.9 0 32 0.7 0.3 0 0.6-0.1 0.6-0.3 0-0.1 0-0.2-0.1-0.3-3.1-2.8-16.5-4.9-32.5-4.9s-29.4 2.2-32.5 5c-0.1 0.1-0.1 0.2-0.1 0.3 0 0.2 0.3 0.3 0.6 0.3 10.1-0.8 20.9-0.8 32-0.8" fill="#B3282D"/>
				<path style="clip-path:url(#SVGID_2_)" d="m84 58.8c9.7 0 19 0 27.8 0.7 0.3 0 0.5-0.1 0.5-0.3 0-0.1 0-0.2-0.1-0.3-2.7-2.8-14.3-4.9-28.2-4.9s-25.6 2.2-28.2 5c-0.1 0.1-0.1 0.2-0.1 0.3 0 0.2 0.3 0.3 0.5 0.3 8.8-0.8 18.1-0.8 27.8-0.8" fill="#B3282D"/>
				<path style="clip-path:url(#SVGID_2_)" d="m84 51.1c7.4 0 14.6 0 21.2 0.6 0.2 0 0.4-0.1 0.4-0.2s0-0.2-0.1-0.2c-2-2.1-10.9-3.8-21.6-3.8-10.6 0-19.5 1.6-21.6 3.8-0.1 0.1-0.1 0.2-0.1 0.2 0 0.1 0.2 0.2 0.4 0.2 6.8-0.6 14-0.6 21.4-0.6" fill="#B3282D"/>
				<path style="clip-path:url(#SVGID_2_)" d="m83.8 44.9c4.8 0 9.4 0 13.7 0.4 0.1 0 0.3 0 0.3-0.1 0 0 0-0.1-0.1-0.1-1.3-1.4-7-2.4-13.9-2.4s-12.6 1.1-13.9 2.4l-0.1 0.1c0 0.1 0.1 0.1 0.3 0.1 4.3-0.4 8.9-0.4 13.7-0.4" fill="#B3282D"/>
				<path style="clip-path:url(#SVGID_2_)" d="m84.1 101.8c-11.1 0-21.9 0-32-0.7-0.3 0-0.6 0.1-0.6 0.3 0 0.1 0 0.2 0.1 0.3 3.1 2.8 16.5 4.9 32.5 4.9s29.5-2.1 32.5-4.9c0.1-0.1 0.1-0.2 0.1-0.3 0-0.2-0.3-0.3-0.6-0.3-10.1 0.7-20.9 0.7-32 0.7" fill="#B3282D"/>
				<path style="clip-path:url(#SVGID_2_)" d="m84.1 109.7c-9.7 0-19 0-27.8-0.7-0.3 0-0.5 0.1-0.5 0.3 0 0.1 0 0.2 0.1 0.3 2.7 2.8 14.3 4.9 28.2 4.9s25.6-2.1 28.2-4.9c0.1-0.1 0.1-0.2 0.1-0.3 0-0.2-0.3-0.3-0.5-0.3-8.7 0.7-18.1 0.7-27.8 0.7" fill="#B3282D"/>
				<path style="clip-path:url(#SVGID_2_)" d="m84.1 117.5c-7.4 0-14.6 0-21.3-0.6-0.2 0-0.4 0.1-0.4 0.2s0 0.2 0.1 0.2c2 2.1 10.9 3.8 21.6 3.8s19.5-1.6 21.6-3.8c0.1-0.1 0.1-0.1 0.1-0.2s-0.2-0.2-0.4-0.2c-6.7 0.6-13.9 0.6-21.3 0.6" fill="#B3282D"/>
	</g>
</svg>
