<?xml version="1.0" encoding="utf-8"?>
<!-- Generator: Adobe Illustrator 20.0.0, SVG Export Plug-In . SVG Version: 6.00 Build 0)  -->
<svg version="1.2" baseProfile="tiny" id="圖層_1"
	 xmlns="http://www.w3.org/2000/svg" xmlns:xlink="http://www.w3.org/1999/xlink" x="0px" y="0px" viewBox="0 0 2517.2 2517.2"
	 overflow="scroll" xml:space="preserve">
<g>
	<path fill="#0052A4" d="M406,1191.7l-42.4,254.1H176.4c-28.8,0-53.3-10.1-73.3-30.2c-20.1-20-30.2-44.5-30.2-73.4
		c0-4.2,0.5-9.3,1.6-15.5l7.8-47.9c15.5-54.7,49.2-82,101.2-82h119.8c2.6-15.7-1.4-30-12-43c-10.6-13-23.8-19.6-39.8-19.6H136.9
		L147,1074h157c27.8,0,51.9,10.1,72.3,30.2c20.4,20.1,30.6,44.1,30.6,72C406.9,1183.5,406.5,1188.6,406,1191.7 M291.5,1258.7h-60.2
		c-10.8,0-21.3,3.7-31.7,11.2c-10.3,7.5-16.1,16.4-17.7,26.7l-5,30.9c-2,13.9,2.3,26.6,13.1,37.9c10.8,11.4,23.3,17,37.6,17h42.3
		L291.5,1258.7z"/>
	<path fill="#0052A4" d="M797.2,1074l-10.8,60.3H623.2c-28.4,0-45,14-50.2,41.8l127.5,77.5c33.6,20.1,50.3,49.4,50.3,87.6
		c0,33.5-12.4,60.4-37.1,80.5c-20,16.1-42.3,24.1-66.5,24.1H425.4l10-63.4h163.1c29.4,0,46.6-14.9,51.8-44.9l-129.2-72.1
		c-33-18.6-49.4-47-49.4-85.2c0-30.5,9.7-55.8,29-76c19.3-20.1,44.2-30.2,74.6-30.2H797.2z"/>
	<path fill="#0052A4" d="M1168.1,1074l-48.7,287.5c-4.2,23.3-16.3,43.1-36.4,59.5c-20,16.5-42,24.8-65.7,24.8H917
		c-28.9,0-53.2-9.8-73.1-29.3c-19.8-19.6-29.7-43.9-29.7-72.7c0-5.7,0.6-11.6,1.6-17.8l41.7-251.9h103.4l-40.3,248
		c-0.7,3.1-1.2,6.2-1.2,9.3c0,14.9,5.2,27.2,15.5,36.8c10.3,9.5,22.9,14.2,37.9,14.2c27.8,0,44.1-14.4,48.7-43.2l42.6-265.2H1168.1z
		"/>
	<path fill="#0052A4" d="M1523.4,1074l-10.8,60.3h-147.3c-28.3,0-45.1,14-50.2,41.8l127.6,77.5c33.4,20.1,50.1,49.4,50.1,87.6
		c0,33.5-12.3,60.4-37,80.5c-20.1,16.1-42.3,24.1-66.4,24.1h-221.9l10.1-63.4h163.1c29.3,0,46.6-14.9,51.8-44.9l-129-72.1
		c-33-18.6-49.5-47-49.5-85.2c0-30.5,9.7-55.8,29-76c19.3-20.1,44.1-30.2,74.6-30.2H1523.4z"/>
	<path fill="#0052A4" d="M1806.6,1074l-10.8,60.3h-104.3l-30.8,187.7c-0.1,3.2-0.2,6.2-0.2,9.3c0,13.9,5.1,25.9,15.5,36
		c10.3,10.1,22.4,15.1,36.3,15.1h41.7l-10.1,63.4h-84.2c-28.8,0-53.2-10.1-73-30.2c-19.9-20-29.8-44.5-29.8-73.4
		c0-6.2,0.5-12.4,1.6-18.6l52.5-312.2h101.9l-10.5,62.6H1806.6z"/>
	<path fill="#0052A4" d="M2157.4,1194.1l-28.5,164.4c-4.1,24.2-16.1,44.8-36,61.8c-19.8,17.1-42.2,25.6-66.8,25.6h-99
		c-28.9,0-53.1-10.1-73-30.2c-19.9-20-29.8-44.5-29.8-73.4c0-6.2,0.5-12.4,1.5-18.6l27.9-169.2c4.1-23.9,16-43.4,35.5-58.2
		c19.6-14.8,41.5-22.2,65.8-22.2h100.3c28.5,0,52.8,9.9,73.1,29.4c20.4,19.7,30.5,43.7,30.5,72.1
		C2159,1182.2,2158.6,1188.5,2157.4,1194.1"/>
	<path fill="#A9D06B" d="M1960,1322.8c0,0-1.2,7.5-1.2,10.5c0,14.5,3.8,25.8,13.7,35.1c9.8,9.3,22,13.9,36.5,13.9
		c29,0,46.1-14.9,51.3-44.9l24.5-144.4c2.6-16,5.8-32.7-5.3-43.7c-11.1-11.1-32-13.5-48-13.5c-27.2,0-43.2,14.2-47.9,42.6"/>
	<path fill="#0052A4" d="M2444.3,1074l-10.2,60.3h-60.6c-29.6,0-46.7,14.7-51.4,43.9l-41.9,267.6h-102.5l47.1-289.8
		c3.6-24,15.4-43.6,35.2-59c19.8-15.4,41.9-23,66.2-23H2444.3z"/>
</g>
</svg>
