<?xml version="1.0" encoding="utf-8"?>
<!-- Generator: Adobe Illustrator 16.0.0, SVG Export Plug-In . SVG Version: 6.00 Build 0)  -->
<!DOCTYPE svg PUBLIC "-//W3C//DTD SVG 1.1//EN" "http://www.w3.org/Graphics/SVG/1.1/DTD/svg11.dtd" [
	<!ENTITY st0 "fill:#ED1C24;">
	<!ENTITY st1 "fill:#2E3192;">
]>
<svg version="1.1" id="Layer_1" xmlns="http://www.w3.org/2000/svg" xmlns:xlink="http://www.w3.org/1999/xlink" x="0px" y="0px"
	 width="168px" height="168px" viewBox="0 0 168 168" style="enable-background:new 0 0 168 168;" xml:space="preserve">
<g>
	<path style="&st1;" d="M56.8,108.9H41.7l-0.7-8.1H24.8l-3.9,8.1H4.4l28.1-49.7h16.4L56.8,108.9 M40.1,90.2l-1.5-18.1h-0.1
		l-8.5,18.1H40.1z"/>
	<path style="&st1;" d="M158.5,69c-2.1,0-4,0.6-5.8,1.8c-1.8,1.2-3.8,3.5-6.1,6.9l-0.2-0.1l1.7-7.7h-14l-1.4,6.6c2.5,3.7,4,8.2,4,13
		c0,8.1-4.1,15.2-10.4,19.3h14.4l3.1-14.6c1-4.5,2.4-7.8,4.1-9.9c1.8-2.1,4.1-3.1,7-3.1c0.9,0,1.9,0.1,3.1,0.4l5.5-11.5
		C161.8,69.4,160,69,158.5,69"/>
	<path style="&st1;" d="M90.3,89.5c0-10.2,6.6-18.9,15.8-22l4.7-8.4H94.2L76.6,94.5h-0.1L72,59.1H56.8l9.6,49.7H83l8-14.2
		C90.5,93,90.3,91.3,90.3,89.5"/>
	<path style="&st0;" d="M131.1,97c-2.7,4.2-7.4,7.1-13,7.6c-7.1,0.6-13.5-3-16.4-8.5c-0.3-0.6-0.6-1.2-0.7-1.8l-0.1-0.5v0l0-0.1
		c-0.2-2.8,1.8-5.3,4.6-5.5c1.9-0.2,3.6,0.7,4.6,2.2l0.1,0.2l0.1,0.1v0c2.2,3.3,6.1,5.3,10.4,4.9c6.3-0.5,10.9-6,10.3-12.3
		c-0.1-0.9-0.3-1.8-0.5-2.6l0,0l-0.1-0.4l-0.2-0.5l0,0c-0.2-0.5-0.4-0.9-0.7-1.3c-0.3-0.6-0.7-1.1-1.1-1.6h0
		c-3.9-4.7-10-7.4-16.5-6.8c-10.7,0.9-18.6,10.4-17.7,21.1c0.9,10.7,10.3,18.6,21,17.7c7.4-0.7,13.4-5.4,16.1-11.9L131.1,97
		 M99,88.7L99,88.7L99,88.7c-0.1-0.1-0.1-0.3,0-0.5c0-6,4.6-11.3,11.1-12.4c0.3,0,0.6-0.1,0.9-0.1c0.3,0,0.6,0,0.9,0
		c2.9,0,5.3,1,7.1,2.7c1.1,0.9,1.8,2.2,2.1,3.7c0.6,3.4-1.5,5.9-4.8,6.5c-1.2,0.2-3.2-0.3-4.4-1.3l-0.3-0.2
		c-0.2-0.2-0.4-0.4-0.6-0.5c-1.6-1.8-4-2.7-6.5-2.3C101.9,84.6,99.9,86.4,99,88.7"/>
</g>
</svg>
