<?xml version="1.0" encoding="UTF-8" standalone="no"?>
<!-- Generator: Adobe Illustrator 16.0.0, SVG Export Plug-In . SVG Version: 6.00 Build 0)  -->
<!DOCTYPE svg  PUBLIC '-//W3C//DTD SVG 1.1//EN'  'http://www.w3.org/Graphics/SVG/1.1/DTD/svg11.dtd'>
<svg id="Ebene_1" xmlns="http://www.w3.org/2000/svg" xml:space="preserve" height="168px" viewBox="0 0 168 168" width="168px" version="1.1" y="0px" x="0px" xmlns:xlink="http://www.w3.org/1999/xlink" enable-background="new 0 0 168 168">
	<path d="m33.3 68.5s5.5 10.2 0 19.9c-5.2 7-12.7 8.6-16.3 8.7-3.6 0.2-13-3.1-15.1-7v9.4h164.1v-31h-132.7z" fill="#07426B"/>
						<path d="m18.3 68.4c-1.7 0-3.3 0.3-4.8 0.9-0.1 2.3 0 7.8 2.5 11.7 0.4-0.3 0.7-0.5 1.2-0.8 2.7-1.4 5.9-0.7 7 1.5s-0.2 5.1-2.9 6.5-5.9 0.7-7-1.5c-0.8-1.5-0.4-3.4 0.8-4.8-3.5-1.8-5.8-5.4-7.2-8.4-1.8 2.3-2.9 5.2-2.9 8.4 0 7.5 6 13.5 13.5 13.5s13.5-6 13.5-13.5c-0.2-7.4-6.3-13.5-13.7-13.5" fill="#688B8A"/>
						<path d="m14.9 81.9c-1.2 1.5-1.6 3.3-0.8 4.8 1.1 2.2 4.3 2.9 7 1.5s4.1-4.3 2.9-6.5c-1.1-2.2-4.3-2.9-7-1.5-0.4 0.2-0.8 0.5-1.2 0.8 0.4 0.7 0.9 1.3 1.5 1.9-0.8-0.2-1.6-0.6-2.4-1" fill="#231F20"/>
						<path d="m51 94l-0.2 0.3c-0.3 0.1-0.5 0.3-0.8 0.4-0.7 0.3-2.2 0.7-3.9 0.7-2.2 0-4.9-0.6-6.9-3-1.4-1.8-1.9-4.3-1.9-6.9 0-6.9 3.9-13.9 11.3-13.9 0.8 0 1.7 0.1 2.6 0.3 1.6 0.4 2.3 0.8 3.2 1.4l0.1 0.3-1.1 4.2-0.2 0.1c-0.3-0.3-0.5-0.5-0.8-0.7-0.8-0.6-2-1-3.2-1-4.8 0-6.9 5.5-6.9 9.2 0 3.6 1.8 5.9 4.9 5.9 0.6 0 1.3-0.1 1.9-0.3 1.1-0.4 1.7-0.8 2.5-1.5l0.2 0.1-0.8 4.4z" fill="#fff"/>
						<path d="m63.2 90.6c-0.5 0.5-1.1 1-2.1 1-0.7 0-2.1-0.4-2.1-3.2 0-1.9 0.9-6 3.9-6.9 0.7-0.2 1.4-0.2 2.1-0.1l-1.8 9.2zm7.1-12.6l-0.2-0.3h-4.8c-2.5 0-5.6 0.1-8.2 2.8-2 2.1-3.1 5.4-3.1 8.4 0 1.5 0.3 2.9 0.8 3.8 0.8 1.6 2.2 2.5 3.9 2.5 0.9 0 1.8-0.3 2.7-0.7 0.7-0.4 1-0.6 1.4-1.1l-0.2 1.4 0.1 0.2 4.3-0.1 0.2-0.2c0.6-4.1 0.8-5.3 1.8-10.5l1.3-6.2z" fill="#fff"/>
						<path d="m92.4 94.7l-0.2 0.2-4.6 0.1-0.2-0.2 1.2-5.7 0.5-2.3c0.1-0.7 0.6-3 0.6-3.5 0-0.8-0.4-1.7-1.4-1.7s-1.8 0.7-2.3 1.1c-0.2 1.6-0.2 2-0.5 3.7l-0.6 3.1-0.9 5.3-0.2 0.2h-4.6l-0.2-0.2 1.1-5.4 0.4-2.2c0.5-2.8 0.6-3.4 0.6-3.9 0-1.7-1-1.7-1.4-1.7-0.8 0-1.5 0.5-2.1 1l-1 4.9-1.3 7.3-0.2 0.2h-4.6l-0.1-0.2 1.2-5.5 0.7-3.5c0.6-3.5 0.7-4.1 1.2-7.3l0.2-0.2c2-0.3 2.6-0.4 4.7-0.9l0.2 0.2-0.4 1.9c0.4-0.4 0.8-0.7 1.3-1.1 0.9-0.6 2.2-1 3.2-1 1.5 0 2.5 0.7 3 2.3 1.5-1.3 3.2-2.3 5.1-2.3 1.4 0 3.9 0.6 3.9 4.2 0 1-0.2 2.1-0.5 3.1l-0.6 3.1-1.2 6.9z" fill="#fff"/>
						<polygon points="102.6 94.7 102.4 94.9 97.6 95 97.4 94.8 98.4 90.2 99.8 83.6 101.3 76.1 99.5 76.2 96.3 76.3 96.1 76.1 97 72.3 97.3 72.1 106.8 72.1 111.7 72 111.9 72.2 111 76 110.7 76.2 108 76.1 106.2 76.1 105.1 81.6 103.8 88.2" fill="#fff"/>
						<path d="m113 94.7l-0.2 0.2-4.7 0.1-0.1-0.2 1-4.7 0.6-2.8c0.8-4 1-5 1.5-8.8l0.2-0.2c2.2-0.4 2.7-0.4 4.9-0.9l0.1 0.2-0.8 3.6c0.3-0.6 0.6-1.3 1-1.8 0.6-0.8 1.7-2 3.1-2 0.7 0 1 0.2 1.4 0.4l0.1 0.3c-1.2 3-1.3 3.3-1.9 5.2l-0.3 0.1c-0.5-0.4-1-0.7-1.5-0.7s-1 0.3-1.4 0.7c-0.8 0.8-1.1 1.7-1.7 5.2l-0.6 3.3-0.7 2.8z" fill="#fff"/>
						<path d="m129.1 90.6c-0.5 0.5-1.1 1-2.1 1-0.7 0-2.1-0.4-2.1-3.2 0-1.9 0.9-6 4-6.9 0.7-0.2 1.4-0.2 2.1-0.1l-1.9 9.2zm7.1-12.6l-0.2-0.3h-4.8c-2.5 0-5.6 0.1-8.2 2.8-2 2.1-3.1 5.4-3.1 8.4 0 1.5 0.3 2.9 0.8 3.8 0.8 1.6 2.2 2.5 3.9 2.5 0.9 0 1.8-0.3 2.7-0.7 0.7-0.4 1-0.6 1.4-1.1l-0.2 1.4 0.1 0.2 4.3-0.1 0.2-0.2c0.6-4.1 0.8-5.3 1.8-10.5l1.3-6.2z" fill="#fff"/>
						<path d="m148.5 90.3l-0.9 3.9-0.2 0.2c-0.3 0.1-0.5 0.3-0.8 0.4-0.6 0.3-1.8 0.5-2.8 0.5-4 0-6.6-2.8-6.6-7.7 0-4.5 2.7-10.2 8.7-10.2 0.7 0 1.4 0.1 2.2 0.3 1.1 0.3 1.6 0.6 2.2 1.1l0.1 0.2-1 3.7-0.3 0.1c-0.2-0.3-0.3-0.5-0.5-0.7-0.6-0.6-1.5-0.9-2.3-0.9-2.7 0-4.3 3.1-4.3 6.1 0 3.2 1.8 4.2 3.2 4.2 1.6 0 2.6-0.9 3-1.3l0.3 0.1z" fill="#fff"/>
						<path d="m155.7 84.3c0.2-0.8 0.5-1.8 1.3-2.7s1.5-1 2-1c1.4 0 1.9 1.1 1.9 2.1 0 0.5-0.1 1-0.2 1.5l-5 0.1zm7.6 5.4c-1.4 1.1-3 1.8-4.8 1.8-2.3 0-3.4-1.1-3.4-3 0-0.4 0-0.7 0.1-1 3.6-0.1 4.8-0.1 8.9-0.1l0.2-0.2c0.2-1.1 0.5-2.3 0.5-3.8 0-1.3-0.1-3.7-2.2-5.1-0.9-0.6-2.3-0.9-3.6-0.9-5.9 0-8.5 5.9-8.5 10.7 0 1.7 0.3 3.3 1.3 4.8 0.5 0.7 1.8 2.4 5.8 2.4 2.8 0 4.1-0.7 4.8-1.2l0.1-0.2c0.1-0.6 0.3-1.3 0.4-1.9 0.2-0.7 0.3-1.4 0.5-2.1l-0.1-0.2z" fill="#fff"/>
</svg>
