<?xml version="1.0" encoding="utf-8"?>
<!-- Generator: Adobe Illustrator 20.0.0, SVG Export Plug-In . SVG Version: 6.00 Build 0)  -->
<svg version="1.2" baseProfile="tiny" id="Layer_1" xmlns="http://www.w3.org/2000/svg" xmlns:xlink="http://www.w3.org/1999/xlink"
	 x="0px" y="0px" viewBox="0 0 168 168" overflow="scroll" xml:space="preserve">
<g>
	<path fill="#92928B" d="M101.3,58.8C101.3,58.8,101.3,58.8,101.3,58.8C52.7,58.1,4.6,74.5,2.7,89.3c-1.4,10.6,21.6,23,82.6,19.2
		c5.7-0.6,10.9-1.2,15.9-1.9l0.4,0c11.4-1.2,21.7-4.4,30.9-6.6c19.5-4.7,29-13.1,31.7-17.1c1.5-2.1,1.9-3.4-0.8-1.6
		c-0.3,0.2-1.5,1.4-1.8,1.6c-10.7,7.6-20.4,13.1-60.2,16.8l-0.2,0c-5,0.5-10.4,0.8-16.1,1.1c-61.9,1.5-78.6-9.7-68-19.9
		C29.2,69.2,66.7,59.1,101.3,59c0,0,0.1,0,0.1,0L101.3,58.8L101.3,58.8z"/>
	<path fill="#D82727" d="M127.9,64c1.2,1.2,0.8,3.6-0.8,5.3c-1.7,1.7-4,2.2-5.2,1s-0.8-3.6,0.8-5.3C124.4,63.2,126.7,62.8,127.9,64
		L127.9,64z"/>
	<g>
		<path fill="#002649" d="M27.4,88.5l4,0.5c-0.3,2.5-1.2,4.6-2.8,6.2c-1.6,1.6-3.7,2.4-6.4,2.4c-2.2,0-4-0.6-5.4-1.7
			c-1.4-1.2-2.4-2.7-3.2-4.7c-0.7-2-1.1-4.1-1.1-6.5c0-3.8,0.9-6.9,2.6-9.3c1.8-2.4,4.2-3.6,7.2-3.6c2.4,0,4.4,0.8,6,2.3
			c1.6,1.5,2.6,3.7,3,6.6l-4,0.4c-0.7-3.8-2.4-5.7-4.9-5.7c-1.6,0-2.9,0.8-3.8,2.4c-0.9,1.6-1.4,3.9-1.4,6.8c0,3,0.5,5.3,1.5,6.9
			c1,1.5,2.3,2.3,3.9,2.3c1.3,0,2.4-0.5,3.3-1.6C26.8,91.1,27.3,89.9,27.4,88.5z"/>
	</g>
	<g>
		<path fill="#002649" d="M54,97.2h-4.7l-1.9-6H38l-1.9,6h-3.7l8-25.1h5.4L54,97.2z M46.2,87.6l-3.5-11.2l-3.5,11.2H46.2z"/>
		<path fill="#002649" d="M63.4,97.2h-4.7V76h-6.4v-3.9h17.6V76h-6.4V97.2z"/>
		<path fill="#002649" d="M90.5,97.2h-4.4V86.3h-9.3v10.9h-4.4V72.1h4.4v10.3h9.3V72.1h4.4V97.2z"/>
		<path fill="#002649" d="M111.5,97.2H95.8V72.1h15.6v3.7h-11.2v6.8h9v3.6h-9v7h11.4V97.2z"/>
		<path fill="#002649" d="M133,97.2h-5.1l-5.4-9.9l-5.7,9.9h-4.1l7.7-13.1l-6.6-12h5.1l4.5,8.3l4.7-8.3h4.1l-6.7,11.4L133,97.2z"/>
		<path fill="#002649" d="M140.3,97.2h-4.4V72.1h4.4V97.2z"/>
		<path fill="#002649" d="M143.1,91.1l4.2-0.9c0.5,2.5,2.5,3.7,5.9,3.7c1.6,0,2.7-0.3,3.6-1c0.8-0.6,1.3-1.4,1.3-2.4
			c0-0.7-0.2-1.3-0.6-1.9c-0.4-0.6-1.2-1-2.4-1.4l-4.6-1.2c-1.6-0.4-2.8-0.9-3.5-1.5c-0.8-0.5-1.4-1.3-1.8-2.3
			c-0.5-1-0.7-2.1-0.7-3.2c0-2.2,0.8-4,2.4-5.4c1.6-1.4,3.7-2,6.2-2c2.1,0,3.9,0.5,5.6,1.4c1.6,0.9,2.7,2.3,3.1,4l-4.2,1.1
			c-0.6-1.9-2.1-2.8-4.5-2.8c-1.4,0-2.4,0.3-3.1,0.9c-0.7,0.6-1.1,1.3-1.1,2.2c0,1.4,1.1,2.4,3.4,3l4.1,1.1c2.5,0.6,4.2,1.6,5,2.9
			c0.9,1.3,1.3,2.7,1.3,4.2c0,2.5-0.9,4.4-2.7,5.8c-1.8,1.4-4.1,2.1-7,2.1c-2.4,0-4.5-0.5-6.3-1.6C144.8,94.9,143.6,93.3,143.1,91.1
			z"/>
	</g>
</g>
</svg>
