<?xml version="1.0" encoding="utf-8"?>
<!-- Generator: Adobe Illustrator 16.0.0, SVG Export Plug-In . SVG Version: 6.00 Build 0)  -->
<!DOCTYPE svg PUBLIC "-//W3C//DTD SVG 1.1//EN" "http://www.w3.org/Graphics/SVG/1.1/DTD/svg11.dtd">
<svg version="1.1" id="Ebene_1" xmlns="http://www.w3.org/2000/svg" xmlns:xlink="http://www.w3.org/1999/xlink" x="0px" y="0px"
	 width="168px" height="168px" viewBox="0 0 168 168" enable-background="new 0 0 168 168" xml:space="preserve">
<g>
	<path fill="#C8D7B5" d="M76.693,30.61c0,0-0.597,0-1.193,0c0,0,0,0,0.596,0C76.693,30.61,77.29,30.61,76.693,30.61z M92.8,30.61
		c0,0-0.597,0-1.193,0c0,0,0,0,0.597,0S93.396,30.61,92.8,30.61z M108.905,84.895c0-1.193,0-1.193,0-1.193c0,0.597,0,1.193,0,1.79
		C108.905,85.491,108.905,85.491,108.905,84.895z"/>
	<path fill="#9AC564" d="M78.482,107.563c-3.579-0.598-8.948-3.58-11.931-6.562c-12.527-14.317-4.772-36.388,13.72-39.968
		c9.544-1.79,20.283,4.176,25.055,12.527c7.755,15.51-2.983,34.003-19.686,34.599C82.658,108.159,79.675,108.159,78.482,107.563z"/>
	<path fill="#76BD1D" d="M76.096,137.39c-10.738-1.79-19.089-3.579-20.282-4.772c-1.193-0.597,0-1.789,4.772-7.158l5.965-5.966
		l2.386,1.193c6.562,2.982,17.299,3.579,25.054,1.79c10.142-2.983,20.282-10.738,25.651-20.879
		c1.79-4.176,3.579-12.527,3.579-17.299c0-4.772-1.193-11.334-2.387-12.527c0-0.597,0-0.597,0-0.597s-0.596-2.386-1.789-4.772
		c-3.579-6.562-10.737-13.124-16.703-16.106c-7.158-3.579-11.931-4.772-17.896-4.772c-6.562,0-11.334,1.193-17.896,4.772
		c-6.562,2.983-13.72,9.544-17.299,16.106c-6.562,12.527-5.369,28.633,2.982,40.563c0.597,1.193,1.79,2.982,1.79,2.982
		c0,0.598-14.914,15.511-15.51,15.511s-10.141-6.562-10.737-7.159c-0.597-0.596-1.79-1.192-2.983-2.386
		c-2.386-1.789-13.72-12.527-16.703-16.702c-2.386-2.387-3.579-4.177-5.369-8.948c-1.79-4.772-1.193-8.948,1.79-13.72
		c4.175-8.352,20.878-24.458,30.423-30.423c11.334-6.562,18.493-10.141,27.44-12.527c15.51-3.579,28.037-3.579,43.547,0
		c8.948,2.386,16.106,5.965,27.441,12.527c9.544,5.965,26.247,22.072,30.422,29.826c5.369,10.142,2.387,17.896-11.93,32.81
		c-9.545,8.948-18.492,15.51-29.23,20.282c-8.948,4.176-18.492,7.158-26.844,7.755C91.606,137.39,78.482,137.39,76.096,137.39z
		 M77.29,106.966c-3.58-1.192-6.562-2.386-8.948-5.368c-2.386-2.386-6.562-8.352-5.965-8.352c0,0,0-1.193-0.597-2.387
		c-1.193-3.578-0.596-11.333,1.193-14.913c2.982-6.562,7.755-11.333,13.72-13.124c12.528-4.176,25.055,1.79,29.23,14.914
		c1.79,5.369,1.79,11.93-1.192,16.703c-2.387,5.368-6.562,9.544-10.738,11.334c-2.982,1.192-4.771,1.79-8.947,1.79
		C81.465,107.563,78.482,107.563,77.29,106.966z"/>
</g>
</svg>
