<?xml version="1.0" encoding="utf-8"?>
<!-- Generator: Adobe Illustrator 19.2.1, SVG Export Plug-In . SVG Version: 6.00 Build 0)  -->
<svg version="1.1" id="Layer_1" xmlns="http://www.w3.org/2000/svg" xmlns:xlink="http://www.w3.org/1999/xlink" x="0px" y="0px"
	 viewBox="0 0 1080 1080" style="enable-background:new 0 0 1080 1080;" xml:space="preserve">
<style type="text/css">
	.st0{fill:#808184;}
	.st1{fill:url(#SVGID_1_);}
	.st2{fill:#4E4D50;}
	.st3{fill:url(#SVGID_2_);}
	.st4{fill:#B52D26;}
	.st5{fill:url(#SVGID_3_);}
	.st6{fill:#8D251C;}
	.st7{fill:#808284;}
</style>
<g>
	<g id="logo_2_">
		<g>
			<path class="st0" d="M179.2,379l67.5,117L313,610.8c10.2-21.2,15.9-44.9,15.9-70C328.8,455.4,262.9,385.4,179.2,379z"/>
			<linearGradient id="SVGID_1_" gradientUnits="userSpaceOnUse" x1="256.3007" y1="369.6505" x2="256.3007" y2="607.4187">
				<stop  offset="7.142860e-002" style="stop-color:#FFFFFF"/>
				<stop  offset="8.678666e-002" style="stop-color:#F1EFEF"/>
				<stop  offset="0.1499" style="stop-color:#CDCBCC"/>
				<stop  offset="0.2204" style="stop-color:#B3B1B3"/>
				<stop  offset="0.2992" style="stop-color:#9F9EA0"/>
				<stop  offset="0.3896" style="stop-color:#919093"/>
				<stop  offset="0.4989" style="stop-color:#87878A"/>
				<stop  offset="0.6467" style="stop-color:#828385"/>
				<stop  offset="1" style="stop-color:#808184"/>
			</linearGradient>
			<path class="st1" d="M281.5,433.9c-24.5-26.4-57-43.3-92.3-48.4l62.2,107.8l61,105.6c7.4-18.5,11.1-37.9,11.1-58.1
				C323.5,501,308.5,463,281.5,433.9z"/>
			<path class="st0" d="M166.5,703.1c53.8,0,101.5-26.2,131.1-66.5H35.5C65,676.9,112.7,703.1,166.5,703.1z"/>
			<path class="st2" d="M286.5,641.9H46.6c29.7,35.1,73.8,55.8,119.9,55.8C212.7,697.7,256.8,677,286.5,641.9z"/>
			<path class="st0" d="M151.8,379.1C69.1,386.5,4.2,456,4.2,540.7c0,24.3,5.4,47.4,15,68.1l65.2-112.9L151.8,379.1z"/>
			<linearGradient id="SVGID_2_" gradientUnits="userSpaceOnUse" x1="75.6704" y1="377.1949" x2="75.6704" y2="612.9056">
				<stop  offset="7.142860e-002" style="stop-color:#FFFFFF"/>
				<stop  offset="8.876250e-002" style="stop-color:#EFEEED"/>
				<stop  offset="0.1495" style="stop-color:#CCCACB"/>
				<stop  offset="0.2177" style="stop-color:#B2B1B2"/>
				<stop  offset="0.294" style="stop-color:#9F9DA0"/>
				<stop  offset="0.382" style="stop-color:#909093"/>
				<stop  offset="0.4892" style="stop-color:#87878A"/>
				<stop  offset="0.6355" style="stop-color:#828385"/>
				<stop  offset="1" style="stop-color:#808184"/>
			</linearGradient>
			<path class="st3" d="M50.9,434.6c-26.7,29-41.4,66.7-41.4,106.1c0,19.4,3.5,38.2,10.4,56.1l59.8-103.6l62.1-107.5
				C107,391.3,75,408.4,50.9,434.6z"/>
		</g>
		<g>
			<path class="st2" d="M10.4,554.3c1.3,14.7,4.7,29.2,10.1,43l36.6-63.4C40.3,540.1,24.2,547.5,10.4,554.3z"/>
			<path class="st2" d="M289.4,561.1l23.1,40.1c4.5-10.8,7.7-22,9.7-33.5C311.2,566,300.3,563.7,289.4,561.1z"/>
		</g>
		<path id="triangulo_2_" class="st4" d="M155,434c5.8-10.1,15.3-10.1,21.1,0l34.1,59.1c5.8,10.1,15.3,26.5,21.1,36.6l34.1,59.1
			c5.8,10.1,1.1,18.3-10.6,18.3h-68.2c-11.6,0-30.6,0-42.2,0H76.2c-11.6,0-16.4-8.2-10.6-18.3l34.1-59.1
			c5.8-10.1,15.3-26.5,21.1-36.6L155,434z"/>
		<linearGradient id="SVGID_3_" gradientUnits="userSpaceOnUse" x1="165.5499" y1="434.2548" x2="165.5499" y2="601.6289">
			<stop  offset="5.464480e-002" style="stop-color:#FFFFFF"/>
			<stop  offset="0.1184" style="stop-color:#FBF2F2"/>
			<stop  offset="0.2365" style="stop-color:#EFD1CF"/>
			<stop  offset="0.396" style="stop-color:#DC9B98"/>
			<stop  offset="0.5889" style="stop-color:#C2514B"/>
			<stop  offset="0.6776" style="stop-color:#B52D26"/>
		</linearGradient>
		<path class="st5" d="M223.8,527.3c-4.2-7.3-11.1-19.3-15.4-26.6l-35.2-61c-4.2-7.3-11.1-7.3-15.4,0l-35.2,61
			c-4.2,7.3-11.1,19.3-15.3,26.6l-35.2,61c-4.2,7.3-0.8,13.3,7.7,13.3h70.4c8.4,0,22.3,0,30.7,0h70.4c8.5,0,11.9-6,7.7-13.3
			L223.8,527.3z"/>
		<path id="sombra_2_" class="st6" d="M254.2,601.5H76.9c-3.7,0-6.5-1-7.5-2.8c-1-1.8-0.5-4.7,1.3-7.9l33.5-58l7.1-12.4
			c6.4-0.9,12.6-1.3,18.2-1.3c7.2,0,13.8,0.7,19.8,2.1c23.3,5.5,47.4,13.1,70.7,20.6c5,1.6,9.9,3.2,14.8,4.7l25.6,44.3
			c1.8,3.2,2.3,6.1,1.3,7.9C260.7,600.5,257.9,601.5,254.2,601.5L254.2,601.5z"/>
	</g>
	<g>
		<g id="texto_2_">
			<g>
				<g>
					<path d="M499.6,534.4c-2,9.3-5.1,15.5-9.2,18.4c-4.1,2.9-11.5,4.3-22.2,4.3H408l16.2-76.4h22.7l-12,57.2h28.8
						c5.2,0,8.7-0.6,10.4-1.8c1.7-1.2,3.1-4.3,4.3-9.4l9.8-45.9c0.7-2.8,1-4.9,1-6.3c0-2.5-1.3-4.1-3.8-4.8c-1.1-0.2-3.5-0.3-7-0.3
						h-51.7l4.1-19.2h60.2c8.6,0,14.6,0.9,18,2.5c3.4,1.7,5.1,5,5.1,10.1c0,2.6-0.5,6-1.3,10.2L499.6,534.4z"/>
				</g>
				<g>
					<path d="M545.1,557.1h-22.9l17.2-80.2h22.7L545.1,557.1z M564,468.6h-22.8l3.7-18.4h22.9L564,468.6z"/>
				</g>
				<g>
					<path d="M685.2,557.1h-22.9l17.2-80.2h22.7L685.2,557.1z M704.1,468.6h-22.8l3.7-18.4h22.9L704.1,468.6z"/>
				</g>
				<g>
					<path d="M637.9,557.3h-45.4c-6.5,0-10.9-0.6-13.4-1.9c-2.7-1.4-4-3.9-4-7.6c0-2,0.3-4.6,1-7.7l9.8-46.3
						c1.5-7.2,3.8-11.9,6.9-14c3.1-2.2,8.7-3.2,16.8-3.2h45.4l-3,14.5H613c-3.9,0-6.5,0.4-7.7,1.1c-1.4,0.9-2.5,3.4-3.4,7.4
						l-7.5,34.6c-0.4,2.1-0.6,3.6-0.6,4.5c0,2,0.9,3.1,2.9,3.5c0.8,0.2,2.6,0.4,5.3,0.4H624l4-18.8h-24.6l3-14.5h41.6L637.9,557.3z"
						/>
				</g>
				<g>
					<path class="st7" d="M882.5,534.4c-2,9.4-5.1,15.5-9.2,18.4c-4.1,2.9-11.5,4.3-22.2,4.3h-35.3c-8.6,0-14.6-0.8-17.9-2.6
						c-3.3-1.7-5-5-5-9.9c0-2.7,0.5-6.1,1.3-10.2l7.4-34.8c2-9.4,5.1-15.5,9.2-18.4c4.1-2.9,11.5-4.3,22.1-4.3h35.3
						c8.6,0,14.6,0.9,17.9,2.6c3.4,1.7,5.1,5,5.1,9.9c0,2.7-0.5,6.1-1.3,10.2L882.5,534.4z M861.5,526.8l4.1-19.4
						c0.5-2.7,0.8-4.7,0.8-6c0-2.5-1.3-4-3.9-4.7c-1.1-0.3-3.5-0.5-7.1-0.5h-18.3c-5.2,0-8.5,0.5-10.1,1.5c-1.9,1.3-3.4,4.6-4.5,9.7
						l-4.1,19.4c-0.5,2.7-0.8,4.7-0.8,6c0,2.6,1.3,4.1,3.9,4.7c1,0.3,3.3,0.5,6.9,0.5h18.3c5.3,0,8.8-0.6,10.5-1.7
						C859,535,860.4,531.9,861.5,526.8z"/>
				</g>
				<g>
					<path class="st7" d="M977.5,496.2H951c-5.2,0-8.7,0.5-10.2,1.5c-1.9,1.3-3.4,4.6-4.5,9.7l-10.6,49.8h-22.9l17.1-80.2h22.9
						l-2.2,10c4.4-6.7,10.1-10,17.2-10h23.9L977.5,496.2z"/>
				</g>
				<g>
					<path class="st7" d="M1034.8,557.2h-18.2c-8.6,0-14.5-0.8-17.9-2.6c-3.4-1.7-5-5-5-10c0-2.7,0.4-6.1,1.3-10.2l17.7-84.2h22.9
						l-5.6,26.7c1.1,0,8.4,0,21.9,0l-4.1,19.2h-22l-6.4,30.6c-0.5,2.7-0.8,4.7-0.8,6c0,2.6,1.3,4.1,3.8,4.7c1,0.4,3.3,0.5,6.8,0.5
						h9.7L1034.8,557.2z"/>
				</g>
				<path class="st7" d="M781.3,476.5h-30.1c-8.2,0-14.6,1.6-19.2,4.8c-5.2,3.6-8.6,9.5-10.3,17.6l-12,55.8l-0.5,2.3h2.4h13.8h1.6
					l0.3-1.5l6.5-30h37.9h1.6l0.3-1.5l2.7-13.3l0.5-2.3h-2.3h-37.1l2.1-9.9c0.7-3.3,2.5-4.8,5.8-4.8h33.2h1.6l0.3-1.5l2.9-13.3
					l0.5-2.3H781.3z"/>
			</g>
		</g>
		<g>
			<path class="st7" d="M1065.4,450c1.9,0,3.8,0.5,5.6,1.5c1.8,1,3.2,2.4,4.2,4.2c1,1.8,1.5,3.7,1.5,5.7s-0.5,3.8-1.5,5.6
				c-1,1.8-2.4,3.2-4.2,4.2c-1.8,1-3.7,1.5-5.6,1.5c-2,0-3.8-0.5-5.7-1.5c-1.8-1-3.2-2.4-4.2-4.2c-1-1.8-1.5-3.7-1.5-5.6
				s0.5-3.9,1.5-5.7c1-1.8,2.4-3.2,4.2-4.2C1061.6,450.4,1063.4,450,1065.4,450z M1065.4,451.8c-1.6,0-3.1,0.4-4.6,1.2
				c-1.5,0.8-2.7,2-3.5,3.5c-0.8,1.5-1.3,3.1-1.3,4.7s0.4,3.2,1.3,4.7c0.8,1.5,2,2.7,3.5,3.5c1.5,0.8,3.1,1.2,4.7,1.2
				c1.6,0,3.2-0.4,4.7-1.2c1.5-0.8,2.7-2,3.5-3.5c0.8-1.5,1.3-3,1.3-4.7s-0.5-3.2-1.3-4.7c-0.8-1.5-2-2.7-3.5-3.5
				C1068.5,452.3,1066.9,451.8,1065.4,451.8z M1060.4,467.6v-12.2h4.2c1.4,0,2.5,0.1,3.1,0.3c0.6,0.2,1.2,0.6,1.5,1.2
				c0.4,0.5,0.6,1.2,0.6,1.8c0,0.9-0.3,1.7-1,2.3c-0.6,0.7-1.5,1-2.5,1.1c0.4,0.2,0.8,0.4,1,0.6c0.5,0.5,1.1,1.3,1.8,2.4l1.5,2.4
				h-2.4l-1.1-1.9c-0.8-1.5-1.5-2.5-2-2.8c-0.4-0.3-0.9-0.4-1.6-0.4h-1.2v5.2H1060.4z M1062.3,460.7h2.4c1.1,0,1.9-0.2,2.3-0.5
				c0.4-0.3,0.6-0.8,0.6-1.4c0-0.4-0.1-0.7-0.3-1c-0.2-0.3-0.4-0.5-0.8-0.6c-0.3-0.1-1-0.2-2-0.2h-2.2V460.7z"/>
		</g>
	</g>
	<g>
		<path class="st7" d="M412.7,620.9h-5.3l9.8-36.8h5.3L412.7,620.9z"/>
		<path class="st7" d="M458.2,598.2c-0.8,2.9-2.2,5.1-4.4,6.8c-2.1,1.7-4.8,2.5-7.9,2.5h-11.2l-3.6,13.5h-5.3l9.8-36.8h15.9
			c6.9,0,9.6,2.9,8,8.8L458.2,598.2z M452.8,598.6l1.6-6.1c0.3-1,0.2-1.7-0.2-2.1c-0.3-0.4-1.2-0.8-2.6-1h-12.1l-3.4,12.6h11.1
			C450.4,602.1,452.2,601,452.8,598.6z"/>
		<path class="st7" d="M513.4,589.5h-15.7c-1.8,0-2.9,0.8-3.4,2.4l-1.4,5c-0.6,2.1,0.3,3.1,2.6,3.1h6.5c2.3,0,4,0.7,5.3,2
			c1.3,1.4,1.7,3.1,1.1,5l-1.5,5.8c-0.6,2.3-1.9,4.2-3.9,5.7c-2,1.6-4.2,2.4-6.6,2.4h-15.2l1.4-5.3h15.2c1,0,1.8-0.3,2.6-1
			c0.7-0.6,1.1-1.3,1.3-2.1l1.2-4.6c0.5-2-0.3-3-2.5-3h-7.6c-2,0-3.6-0.8-4.5-2.3c-1-1.5-1.3-3.3-0.7-5.2l1.2-4.6
			c0.6-2.4,1.7-4.3,3.2-5.9c1.6-1.7,3.4-2.6,5.4-2.6l17.5,0L513.4,589.5z"/>
		<path class="st7" d="M541.3,613.8c-1.3,4.7-4.5,7.1-9.7,7.1h-7.2c-5.2,0-7.1-2.4-5.9-7.1l5.5-20.5h4.6l-5.5,20.4
			c-0.4,1.7,0.4,2.5,2.5,2.5h7.3c1.2,0,2.1-0.2,2.6-0.6c0.5-0.4,1-1.2,1.3-2.4l5.3-19.9h4.6L541.3,613.8z"/>
		<path class="st7" d="M567.1,598h-2.3c-1.7,0-2.8,0.9-3.3,2.8l-5.4,20.2h-4.6l5.8-21.7c0.4-1.6,1.3-3,2.7-4.1
			c1.4-1.1,2.9-1.7,4.4-1.7h3.8L567.1,598z"/>
		<path class="st7" d="M602.9,593.4l-16.2,25.3c-1.2,1.9-2.7,2.8-4.6,2.8c-1.9,0-3-0.9-3.1-2.8l-2.6-25.3h4.9l2.3,22.4l14.3-22.4
			H602.9z"/>
		<path class="st7" d="M628.4,620.9H613c-2.2,0-3.8-0.7-4.9-2.1c-1-1.4-1.2-3.1-0.7-5.2l3.3-12.4c1.4-5.3,5-8,10.6-8h6.8
			c2.3,0,3.9,0.6,4.8,1.8c1,1.2,1.1,3,0.5,5.2l-0.9,3.3l-20.2,8.4l-0.3,1.2c-0.1,1.2-0.1,2.1,0.2,2.5c0.3,0.4,1,0.6,2.1,0.6h15.2
			L628.4,620.9z M628.9,600.8l0.2-0.7c0.4-1.4-0.4-2.2-2.2-2.2h-7.5c-2.1,0-3.4,1.2-4,3.5l-1.5,5.6L628.9,600.8z"/>
		<path class="st7" d="M645.2,620.9h-4.6l7.4-27.6h4.6L645.2,620.9z M655.3,586.9c-0.3,0.9-0.8,1.7-1.6,2.3c-0.8,0.6-1.7,1-2.6,1
			c-0.9,0-1.6-0.3-2.1-1c-0.5-0.7-0.6-1.5-0.3-2.3c0.2-0.9,0.7-1.7,1.6-2.3c0.8-0.7,1.7-1,2.6-1s1.6,0.3,2.1,1
			C655.4,585.2,655.5,586,655.3,586.9z"/>
		<path class="st7" d="M662.9,620.9h-4.6l9.9-36.8h4.6L662.9,620.9z"/>
		<path class="st7" d="M680.6,620.9H676l9.8-36.8h4.6L680.6,620.9z"/>
		<path class="st7" d="M718.1,613.9c-0.5,2-1.7,3.7-3.3,5c-1.7,1.3-3.4,2-5.2,2h-9.2c-1.7,0-3.2-0.6-4.2-1.9
			c-1.2-1.4-1.5-3.3-0.9-5.5l0.9-3.3c0.7-2.8,1.9-4.9,3.5-6.3c1.6-1.5,3.6-2.2,5.8-2.2h11.3l0.5-1.8c0.3-1.1-0.1-1.7-1.2-1.8h-16.6
			l1.2-4.6h16.3c1.8,0,3.2,0.5,4.2,1.6c1,1.1,1.3,2.4,0.8,4.1L718.1,613.9z M713.4,614.1l1.5-5.5c0.3-1.3-0.5-2.1-2.6-2.5H705
			c-0.9,0-1.7,0.2-2.5,0.7c-0.7,0.4-1.2,1-1.4,1.8l-1.5,5.5c-0.3,1,0,1.7,0.7,2c0.4,0.2,1.2,0.3,2.4,0.3h6.2
			C711.5,616.4,713,615.6,713.4,614.1z"/>
		<path class="st7" d="M751,620.9h-4.6l5.4-20.3c0.5-1.7-0.3-2.6-2.4-2.6h-7.3c-1.2,0-2,0.2-2.6,0.6c-0.6,0.4-1,1.2-1.3,2.4
			l-5.3,19.9h-4.6l5.5-20.5c1.3-4.7,4.5-7.1,9.6-7.1h7.3c5.2,0,7.1,2.4,5.8,7.1L751,620.9z"/>
		<path class="st7" d="M781.5,620.9H771c-2.4,0-4-0.7-5.1-2c-1-1.3-1.3-3-0.7-5l3.6-13.6c0.6-2.1,1.6-3.8,3-5.1
			c1.4-1.3,3.2-1.9,5.2-1.9h11.8l-1.2,4.5h-10.6c-0.7,0-1.4,0.3-2.2,0.8c-0.8,0.5-1.3,1.3-1.6,2.1l-3.4,12.7c-0.2,0.8-0.1,1.5,0.5,2
			c0.5,0.5,1.1,0.8,1.9,0.8h10.5L781.5,620.9z"/>
		<path class="st7" d="M816.8,620.9h-15.4c-2.2,0-3.8-0.7-4.9-2.1c-1-1.4-1.3-3.1-0.7-5.2l3.3-12.4c1.4-5.3,5-8,10.7-8h6.8
			c2.2,0,3.8,0.6,4.8,1.8c1,1.2,1.1,3,0.5,5.2l-0.9,3.3l-20.2,8.4l-0.3,1.2c-0.2,1.2-0.1,2.1,0.2,2.5c0.3,0.4,1,0.6,2.1,0.6H818
			L816.8,620.9z M817.3,600.8l0.2-0.7c0.4-1.4-0.4-2.2-2.2-2.2h-7.5c-2.1,0-3.4,1.2-4.1,3.5l-1.5,5.6L817.3,600.8z"/>
		<path class="st7" d="M879,589.5h-15.7c-1.8,0-2.9,0.8-3.3,2.4l-1.4,5c-0.5,2.1,0.3,3.1,2.6,3.1h6.4c2.3,0,4,0.7,5.3,2
			c1.2,1.4,1.6,3.1,1.1,5l-1.6,5.8c-0.6,2.3-1.9,4.2-3.9,5.7c-2,1.6-4.2,2.4-6.6,2.4h-15.2l1.4-5.3h15.2c1,0,1.8-0.3,2.6-1
			c0.6-0.6,1-1.3,1.3-2.1l1.2-4.6c0.5-2-0.3-3-2.5-3h-7.6c-2,0-3.6-0.8-4.5-2.3c-1-1.5-1.2-3.3-0.7-5.2l1.2-4.6
			c0.6-2.4,1.7-4.3,3.2-5.9c1.6-1.7,3.4-2.6,5.3-2.6l17.5,0L879,589.5z"/>
		<path class="st7" d="M905.1,622.2c-1.4,5.2-4.5,7.8-9.3,7.8h-15.5l1.2-4.5h15.9c1.5,0,2.5-1,3.1-3l0.4-1.5h-11.5
			c-1.9,0-3.2-0.6-4.2-1.9c-0.9-1.3-1.2-2.9-0.6-4.8l5.6-20.8h4.6l-5.4,20.4c-0.2,0.8-0.1,1.5,0.4,1.9c0.5,0.5,1.2,0.7,2.1,0.7h7.2
			c2.1,0,3.4-1,4-2.9l5.4-20.1h4.6L905.1,622.2z"/>
		<path class="st7" d="M944.4,597.9h-13.9c-1.3,0-2.1,0.7-2.5,2.1l-0.5,2c-0.2,0.5-0.1,1,0.2,1.4c0.3,0.5,0.9,0.8,1.7,0.8h6.8
			c2,0,3.4,0.7,4.3,2c0.8,1.2,1,2.6,0.5,4.3l-1.2,4.3c-0.4,1.4-1.2,2.7-2.5,3.9c-1.6,1.4-3.2,2.2-4.9,2.2h-14.6l1.2-4.6h14
			c1.3,0,2.1-0.9,2.6-2.8l0.6-2.1c0.5-1.7-0.2-2.6-2-2.6h-6.2c-2.1,0-3.6-0.6-4.6-1.7c-1-1.1-1.2-2.5-0.8-4l0.9-3.5
			c0.5-2,1.5-3.5,2.8-4.6c1.4-1.1,3-1.7,5-1.7h14.3L944.4,597.9z"/>
		<path class="st7" d="M965.9,597.9h-4.7l-6.2,23h-4.6l9.8-36.8h4.6l-2.5,9.2h4.7L965.9,597.9z"/>
		<path class="st7" d="M992.8,620.9h-15.4c-2.2,0-3.9-0.7-4.9-2.1c-1-1.4-1.3-3.1-0.7-5.2l3.3-12.4c1.4-5.3,5-8,10.6-8h6.8
			c2.2,0,3.8,0.6,4.8,1.8c1,1.2,1.1,3,0.5,5.2l-0.9,3.3l-20.2,8.4l-0.3,1.2c-0.1,1.2-0.1,2.1,0.2,2.5c0.3,0.4,1,0.6,2.1,0.6H994
			L992.8,620.9z M993.3,600.8l0.2-0.7c0.4-1.4-0.4-2.2-2.2-2.2h-7.5c-2.1,0-3.4,1.2-4.1,3.5l-1.5,5.6L993.3,600.8z"/>
		<path class="st7" d="M1036.1,620.9h-4.6l5.4-20.2c0.5-1.7-0.2-2.6-2.1-2.6h-4c-1.2,0-2.1,0.9-2.6,2.8l-5.4,20h-4.6l5.5-20.5
			c0.2-0.7,0-1.3-0.4-1.7c-0.4-0.4-1.1-0.6-1.9-0.6h-4.2c-1.4,0-2.4,0.8-2.7,2.2l-5.5,20.6h-4.6l5.5-20.6c0.6-2.1,1.4-3.8,2.7-5.1
			c1.2-1.3,2.6-2,4.3-2h6.6c1.9,0,3,0.8,3.5,2.4c1.5-1.6,3.1-2.4,4.8-2.4h6.6c1.7,0,2.7,0.7,3.3,1.9c0.5,1.3,0.5,3-0.1,5.1
			L1036.1,620.9z"/>
	</g>
</g>
</svg>
