<?xml version="1.0" encoding="UTF-8" standalone="no"?>
<!-- Generator: Adobe Illustrator 16.0.0, SVG Export Plug-In . SVG Version: 6.00 Build 0)  -->
<!DOCTYPE svg  PUBLIC '-//W3C//DTD SVG 1.1//EN'  'http://www.w3.org/Graphics/SVG/1.1/DTD/svg11.dtd'>
<svg id="Ebene_1" xmlns="http://www.w3.org/2000/svg" xml:space="preserve" height="168px" viewBox="0 0 168 168" width="168px" version="1.1" y="0px" x="0px" xmlns:xlink="http://www.w3.org/1999/xlink" enable-background="new 0 0 168 168">
	<path d="m35.668 91.906l0.039 0.014-0.083-0.035 0.044 0.021m-23.024-22.117c2.011-3.566 4.518-5.301 7.659-5.301 3.091 0 5.596 1.765 7.666 5.397 1.605 2.823 2.604 6.042 2.984 9.576h-21.221c0.372-3.639 1.345-6.89 2.912-9.672m-6.228-4.103c-3.035 5.098-4.572 11.373-4.572 18.669 0 7.174 1.539 13.36 4.567 18.384 3.474 5.706 8.147 8.597 13.892 8.597 3.9 0 7.417-1.249 10.445-3.714 2.975-2.432 5.344-5.878 7.04-10.253l0.012-0.034c0.208-0.588 0.313-1.164 0.313-1.726 0-0.58-0.11-1.143-0.333-1.686l-0.033-0.07c-0.455-0.937-1.157-1.589-2.079-1.947-0.925-0.419-1.904-0.462-2.838-0.117l-0.106 0.044c-1.051 0.508-1.805 1.381-2.239 2.598l0.013-0.038c-1.182 2.995-2.516 5.253-3.966 6.713l-0.035 0.034c-1.729 1.887-3.754 2.802-6.193 2.802-3.188 0-5.744-1.856-7.814-5.684-1.694-3.176-2.705-7.013-3.028-11.4h28.264c0.665 0 1.206-0.541 1.206-1.205v-1.361c0-7.22-1.595-13.485-4.738-18.624-3.534-5.692-8.207-8.575-13.889-8.575-5.743 0-10.419 2.893-13.889 8.595" fill="#66669C"/>
	<path d="m55.513 98.291c-1.807-3.645-2.721-8.314-2.721-13.878 0-5.628 0.914-10.328 2.718-13.97l0.003-0.005c1.907-3.902 4.478-5.799 7.856-5.799 3.264 0 5.781 1.897 7.693 5.799 1.807 3.653 2.721 8.352 2.721 13.975 0 5.558-0.914 10.226-2.72 13.876-1.913 3.906-4.431 5.804-7.694 5.804-3.379 0-5.949-1.89-7.856-5.799m-9.131-58.252l-0.047 0.049c-0.698 0.773-1.052 1.81-1.052 3.085v63.287c0 1.298 0.396 2.354 1.178 3.132 0.68 0.661 1.543 0.991 2.576 0.991l0.113-0.006c0.937-0.089 1.765-0.479 2.46-1.164 0.785-0.784 1.182-1.778 1.182-2.956v-0.087c0.786 0.896 1.66 1.71 2.626 2.423 2.418 1.79 5.091 2.694 7.941 2.694 5.798 0 10.385-2.902 13.634-8.625 2.85-4.892 4.3-11.101 4.3-18.449 0-7.412-1.45-13.654-4.307-18.556-3.244-5.711-7.831-8.613-13.627-8.613-2.567 0-4.932 0.749-7.026 2.227-1.228 0.843-2.413 1.984-3.541 3.392v-19.843c0-1.237-0.395-2.262-1.175-3.043l-0.068-0.063c-0.719-0.617-1.562-0.93-2.512-0.93-1.022-0.001-1.941 0.372-2.655 1.077" fill="#66669C"/>
	<path d="m97.14 98.265c-1.913-3.64-2.885-8.296-2.885-13.848 0-5.672 0.972-10.361 2.885-13.945 2.076-3.924 4.918-5.836 8.655-5.836 3.695 0 6.504 1.912 8.579 5.836 1.969 3.596 2.962 8.273 2.962 13.945 0 5.541-0.993 10.196-2.962 13.835-2.075 3.935-4.884 5.837-8.579 5.837-3.74 0-6.584-1.9-8.66-5.825m-5.978-32.427c-2.93 4.907-4.404 11.158-4.404 18.579 0 7.356 1.475 13.563 4.404 18.469 3.475 5.707 8.404 8.602 14.633 8.602 6.241 0 11.138-2.895 14.558-8.602 2.983-4.896 4.494-11.113 4.494-18.469 0-7.421-1.511-13.661-4.494-18.579-3.42-5.706-8.316-8.591-14.558-8.591-6.234-0.004-11.153 2.881-14.638 8.587" fill="#1B1C20"/>
	<path d="m138.45 98.265c-1.912-3.64-2.886-8.296-2.886-13.848 0-5.672 0.974-10.361 2.875-13.945h0.011c2.077-3.924 4.908-5.836 8.655-5.836 3.695 0 6.503 1.912 8.579 5.836 1.967 3.596 2.962 8.273 2.962 13.945 0 5.541-0.995 10.196-2.951 13.835-2.087 3.935-4.895 5.837-8.59 5.837-3.74 0-6.57-1.9-8.65-5.825m-5.98-32.427c-2.93 4.907-4.414 11.158-4.414 18.579 0 7.356 1.484 13.563 4.403 18.469 3.486 5.707 8.416 8.602 14.645 8.602 6.241 0 11.138-2.895 14.559-8.602 2.983-4.896 4.491-11.113 4.491-18.469 0-7.421-1.508-13.661-4.491-18.568v-0.01c-3.421-5.706-8.317-8.591-14.559-8.591-6.22-0.005-11.15 2.88-14.63 8.586" fill="#1B1C20"/>
	<path d="m107.77 116.97c0.967 3.154 6.029 0.187 11.876 4.843 6.591 5.247 3.985 10.767 6.715 10.759 2.73-0.01 0.407-5.565 6.945-10.812 5.803-4.66 10.964-2.526 11.785-4.453 1.292-3.017-8.123-6.905-18.692-6.905-10.57 0-19.3 4.37-18.62 6.57" fill="#1B1C20"/>
	<path d="m140.01 92.9c0 4.261 2.282 7.71 5.102 7.71 2.816 0 5.101-3.449 5.101-7.71 0-4.257-2.284-7.709-5.101-7.709-2.82 0-5.1 3.453-5.1 7.709" fill="#1B1C20"/>
	<path d="m102.73 92.9c0 4.261 2.282 7.71 5.101 7.71 2.816 0 5.101-3.449 5.101-7.71 0-4.257-2.284-7.709-5.101-7.709-2.82 0-5.1 3.453-5.1 7.709" fill="#1B1C20"/>
		<defs>
			<path id="SVGID_1_" d="m126.77 55.947h4.601-4.6"/>
		</defs>
		<clipPath id="SVGID_2_">
			<use overflow="visible" xlink:href="#SVGID_1_"/>
		</clipPath>
		<defs>
			<path id="SVGID_3_" d="m126.77 55.947"/>
		</defs>
		<clipPath id="SVGID_4_">
			<use overflow="visible" xlink:href="#SVGID_3_"/>
		</clipPath>
		<g clip-path="url(#SVGID_4_)">
			<defs>
				<rect id="SVGID_5_" y="55.657" x="126.43" height="13.35" width="5.23"/>
			</defs>
			<clipPath id="SVGID_6_">
				<use overflow="visible" xlink:href="#SVGID_5_"/>
			</clipPath>
		</g>
		<defs>
			<path id="SVGID_7_" d="m161.66 65.848v-0.01 0.01"/>
		</defs>
		<clipPath id="SVGID_8_">
			<use overflow="visible" xlink:href="#SVGID_7_"/>
		</clipPath>
		<g clip-path="url(#SVGID_8_)">
			<defs>
				<rect id="SVGID_9_" y="57.069" x="130.67" height="11.905" width="32.885"/>
			</defs>
			<clipPath id="SVGID_10_">
				<use overflow="visible" xlink:href="#SVGID_9_"/>
			</clipPath>
		</g>
	<path d="m157.33 36.431c-8.391 5.914-25.287 13.604-30.833 13.748s-24.021-8.973-31.217-13.748c-4.023-2.67-5.401 0.696-2.554 2.671 30.824 21.364 32.102 23.047 33.672 23.047 1.866 0 2.359-1.582 33.188-22.651 2.429-1.657 2.172-4.069 0.271-4.069-0.66-0.001-1.52 0.289-2.53 1.002" fill="#1B1C20"/>
</svg>
