<?xml version="1.0" encoding="utf-8"?>
<!-- Generator: Adobe Illustrator 21.0.2, SVG Export Plug-In . SVG Version: 6.00 Build 0)  -->
<svg version="1.1" baseProfile="tiny" id="英文系統"
	 xmlns="http://www.w3.org/2000/svg" xmlns:xlink="http://www.w3.org/1999/xlink" x="0px" y="0px" viewBox="0 0 800 800"
	 xml:space="preserve">
<g>
	<g>
		<path fill="#7D7D7D" d="M471.792,469.49h-5.164v-22.928h-9.104v-4.149h23.352v4.149h-9.084V469.49z"/>
		<path fill="#7D7D7D" d="M491.073,466.13c0.97,0,1.981-0.093,3.035-0.283c1.054-0.188,2.122-0.459,3.204-0.809v3.824
			c-0.647,0.271-1.637,0.526-2.972,0.77c-1.336,0.242-2.72,0.364-4.153,0.364c-1.447,0-2.82-0.179-4.12-0.536
			c-1.299-0.357-2.433-0.935-3.403-1.731c-0.969-0.796-1.739-1.828-2.307-3.096c-0.57-1.268-0.854-2.807-0.854-4.614
			c0-1.781,0.267-3.338,0.801-4.674c0.533-1.337,1.25-2.443,2.149-3.319c0.9-0.877,1.93-1.534,3.088-1.973
			c1.16-0.438,2.357-0.658,3.594-0.658c1.292,0,2.483,0.188,3.572,0.566c1.088,0.379,2.03,0.972,2.824,1.782
			c0.793,0.809,1.411,1.851,1.854,3.126c0.442,1.275,0.664,2.782,0.664,4.522c-0.015,0.675-0.035,1.249-0.064,1.721h-13.383
			c0.07,0.904,0.281,1.677,0.632,2.317c0.352,0.641,0.812,1.161,1.38,1.559c0.57,0.398,1.234,0.687,1.992,0.87
			C489.367,466.039,490.188,466.13,491.073,466.13z M489.072,453.138c-0.632,0-1.195,0.112-1.686,0.334
			c-0.493,0.223-0.917,0.526-1.275,0.911c-0.358,0.384-0.643,0.834-0.854,1.346c-0.211,0.513-0.352,1.058-0.422,1.639h8.03
			c0-0.581-0.081-1.126-0.242-1.639c-0.161-0.513-0.401-0.962-0.716-1.346c-0.317-0.384-0.71-0.687-1.181-0.911
			C490.255,453.25,489.704,453.138,489.072,453.138z"/>
		<path fill="#7D7D7D" d="M516.448,469.065c-0.632,0.256-1.406,0.475-2.318,0.658c-0.913,0.183-1.877,0.273-2.888,0.273
			c-1.475,0-2.853-0.203-4.131-0.608c-1.279-0.405-2.395-1.018-3.35-1.842c-0.955-0.823-1.708-1.865-2.256-3.126
			c-0.548-1.261-0.821-2.735-0.821-4.422c0-1.889,0.317-3.507,0.949-4.857c0.632-1.349,1.451-2.445,2.455-3.288
			c1.005-0.843,2.135-1.464,3.394-1.862c1.257-0.398,2.497-0.597,3.72-0.597c0.913,0,1.792,0.077,2.635,0.233
			c0.843,0.154,1.608,0.367,2.296,0.637v3.905c-0.618-0.256-1.275-0.461-1.97-0.617c-0.695-0.156-1.444-0.233-2.245-0.233
			c-0.801,0-1.567,0.118-2.296,0.354c-0.731,0.236-1.378,0.61-1.939,1.123c-0.563,0.513-1.008,1.191-1.338,2.034
			c-0.33,0.843-0.495,1.858-0.495,3.045c0,0.865,0.126,1.677,0.379,2.439c0.253,0.763,0.623,1.414,1.107,1.954
			c0.484,0.54,1.103,0.974,1.854,1.304c0.752,0.331,1.64,0.497,2.667,0.497c0.912,0,1.742-0.088,2.486-0.264
			c0.746-0.174,1.448-0.391,2.108-0.647V469.065z"/>
		<path fill="#7D7D7D" d="M525.025,448.18c0,1.012-0.018,1.846-0.053,2.499c-0.035,0.655-0.095,1.245-0.18,1.771h0.085
			c0.295-0.378,0.656-0.755,1.085-1.134c0.428-0.378,0.898-0.704,1.411-0.981c0.513-0.276,1.096-0.502,1.75-0.678
			c0.653-0.174,1.373-0.262,2.16-0.262c0.675,0,1.331,0.064,1.972,0.192c0.639,0.128,1.235,0.327,1.79,0.597
			c0.555,0.271,1.061,0.621,1.518,1.053c0.456,0.432,0.839,0.944,1.149,1.537c0.267,0.513,0.463,1.093,0.59,1.74
			c0.126,0.648,0.189,1.437,0.189,2.368v12.608h-4.995v-11.96c0-0.608-0.028-1.103-0.085-1.488
			c-0.056-0.384-0.154-0.717-0.295-1.001c-0.295-0.593-0.716-1.012-1.264-1.254s-1.173-0.364-1.875-0.364
			c-0.97,0.014-1.866,0.236-2.688,0.667c-0.821,0.432-1.578,1.066-2.265,1.903v13.498h-4.996v-29.303h4.996V448.18z"/>
		<path fill="#7D7D7D" d="M547.617,452.613h0.084c0.295-0.406,0.667-0.802,1.118-1.195c0.449-0.391,0.962-0.735,1.539-1.031
			c0.575-0.298,1.211-0.537,1.907-0.719c0.695-0.183,1.437-0.273,2.223-0.273c0.746,0,1.466,0.081,2.161,0.242
			c0.696,0.162,1.33,0.415,1.907,0.759c0.576,0.344,1.085,0.789,1.528,1.336c0.442,0.547,0.79,1.198,1.043,1.953
			c0.141,0.418,0.235,0.874,0.285,1.367c0.049,0.493,0.073,1.062,0.073,1.709v12.729h-4.995v-11.98c0-0.526-0.022-0.978-0.064-1.356
			c-0.042-0.377-0.119-0.709-0.231-0.992c-0.253-0.621-0.636-1.066-1.149-1.336c-0.513-0.269-1.135-0.405-1.865-0.405
			c-0.97,0-1.901,0.219-2.793,0.658c-0.892,0.438-1.682,1.076-2.371,1.912v13.498h-4.995v-19.609h4.13L547.617,452.613z"/>
		<path fill="#7D7D7D" d="M585.489,459.695c0,1.537-0.239,2.94-0.717,4.208c-0.478,1.269-1.162,2.355-2.054,3.258
			c-0.893,0.904-1.972,1.602-3.235,2.095c-1.265,0.492-2.677,0.739-4.237,0.739c-1.601,0-3.038-0.246-4.31-0.739
			c-1.271-0.493-2.349-1.191-3.234-2.095c-0.885-0.904-1.564-1.989-2.034-3.258c-0.471-1.268-0.706-2.671-0.706-4.208
			c0-1.539,0.238-2.942,0.717-4.21c0.476-1.268,1.162-2.353,2.054-3.259c0.892-0.902,1.97-1.601,3.235-2.093
			c1.264-0.493,2.677-0.739,4.236-0.739c1.602,0,3.038,0.246,4.31,0.739c1.272,0.493,2.351,1.191,3.236,2.093
			c0.885,0.905,1.563,1.991,2.034,3.259C585.253,456.753,585.489,458.157,585.489,459.695z M580.325,459.695
			c0-1.039-0.127-1.957-0.379-2.753c-0.253-0.796-0.605-1.464-1.054-2.004c-0.451-0.539-0.991-0.943-1.622-1.214
			c-0.633-0.269-1.322-0.405-2.066-0.405c-0.731,0-1.409,0.135-2.034,0.405c-0.625,0.271-1.162,0.675-1.612,1.214
			c-0.451,0.54-0.801,1.208-1.054,2.004c-0.253,0.796-0.379,1.713-0.379,2.753s0.126,1.957,0.379,2.752
			c0.253,0.796,0.607,1.46,1.065,1.993c0.456,0.533,0.997,0.938,1.622,1.214c0.625,0.277,1.31,0.415,2.054,0.415
			c0.746,0,1.426-0.138,2.045-0.415c0.618-0.276,1.152-0.681,1.602-1.214c0.449-0.533,0.801-1.198,1.054-1.993
			C580.198,461.652,580.325,460.735,580.325,459.695z"/>
		<path fill="#7D7D7D" d="M589.176,469.49v-29.303h4.996v29.303H589.176z"/>
		<path fill="#7D7D7D" d="M618.386,459.695c0,1.537-0.239,2.94-0.717,4.208c-0.478,1.269-1.162,2.355-2.054,3.258
			c-0.893,0.904-1.972,1.602-3.235,2.095c-1.265,0.492-2.677,0.739-4.237,0.739c-1.601,0-3.038-0.246-4.31-0.739
			c-1.271-0.493-2.349-1.191-3.234-2.095c-0.885-0.904-1.564-1.989-2.034-3.258c-0.471-1.268-0.706-2.671-0.706-4.208
			c0-1.539,0.238-2.942,0.717-4.21c0.476-1.268,1.162-2.353,2.054-3.259c0.892-0.902,1.97-1.601,3.235-2.093
			c1.264-0.493,2.677-0.739,4.236-0.739c1.602,0,3.038,0.246,4.31,0.739c1.272,0.493,2.351,1.191,3.236,2.093
			c0.885,0.905,1.563,1.991,2.034,3.259C618.151,456.753,618.386,458.157,618.386,459.695z M613.222,459.695
			c0-1.039-0.127-1.957-0.379-2.753c-0.253-0.796-0.605-1.464-1.054-2.004c-0.451-0.539-0.991-0.943-1.622-1.214
			c-0.633-0.269-1.322-0.405-2.066-0.405c-0.731,0-1.409,0.135-2.034,0.405c-0.625,0.271-1.162,0.675-1.612,1.214
			c-0.451,0.54-0.801,1.208-1.054,2.004c-0.253,0.796-0.379,1.713-0.379,2.753s0.126,1.957,0.379,2.752
			c0.253,0.796,0.608,1.46,1.065,1.993c0.456,0.533,0.997,0.938,1.622,1.214c0.625,0.277,1.31,0.415,2.054,0.415
			c0.745,0,1.426-0.138,2.045-0.415c0.618-0.276,1.152-0.681,1.602-1.214c0.449-0.533,0.801-1.198,1.054-1.993
			C613.095,461.652,613.222,460.735,613.222,459.695z"/>
		<path fill="#7D7D7D" d="M635.118,469.996c0-0.271,0.004-0.604,0.011-1.001c0.007-0.398,0.024-0.732,0.053-1.003h-0.042
			c-0.31,0.244-0.664,0.483-1.065,0.718c-0.401,0.237-0.839,0.452-1.317,0.648c-0.478,0.195-1.005,0.35-1.581,0.465
			c-0.576,0.114-1.166,0.172-1.771,0.172c-1.081,0-2.138-0.185-3.172-0.556c-1.032-0.371-1.949-0.958-2.75-1.76
			c-0.801-0.804-1.448-1.832-1.939-3.087c-0.491-1.254-0.737-2.766-0.737-4.533c0-1.767,0.249-3.315,0.748-4.644
			c0.498-1.329,1.162-2.439,1.992-3.329c0.828-0.89,1.781-1.562,2.855-2.014c1.074-0.452,2.181-0.678,3.319-0.678
			c1.25,0,2.36,0.253,3.33,0.759c0.969,0.505,1.763,1.15,2.382,1.932h0.084l0.211-2.206h4.383v19.973
			c0,1.146-0.097,2.131-0.295,2.955c-0.196,0.823-0.484,1.551-0.863,2.185c-0.451,0.741-1.023,1.388-1.719,1.942
			c-0.695,0.553-1.489,1.012-2.382,1.376c-0.892,0.365-1.871,0.637-2.939,0.82c-1.068,0.183-2.199,0.273-3.394,0.273
			c-0.674,0-1.334-0.024-1.981-0.07c-0.645-0.047-1.253-0.115-1.823-0.203c-0.568-0.088-1.089-0.189-1.559-0.303
			c-0.471-0.115-0.869-0.233-1.191-0.355v-3.905c0.927,0.296,1.9,0.522,2.919,0.678c1.018,0.154,2.089,0.233,3.214,0.233
			c2.234,0,3.962-0.415,5.184-1.245c1.223-0.829,1.833-2.088,1.833-3.774V469.996z M630.65,466.17c0.506,0,0.984-0.059,1.433-0.181
			c0.451-0.122,0.865-0.276,1.244-0.466c0.38-0.189,0.72-0.398,1.023-0.628c0.302-0.229,0.558-0.459,0.769-0.687v-8.763
			c-0.534-0.606-1.193-1.112-1.981-1.517c-0.786-0.405-1.622-0.614-2.507-0.628c-0.31,0-0.636,0.038-0.98,0.111
			c-0.345,0.074-0.693,0.206-1.043,0.395c-0.352,0.189-0.686,0.442-1.001,0.759c-0.317,0.317-0.594,0.719-0.832,1.204
			c-0.24,0.484-0.433,1.065-0.581,1.74c-0.147,0.674-0.221,1.456-0.221,2.346c0,0.985,0.098,1.866,0.295,2.641
			c0.196,0.775,0.491,1.437,0.885,1.984c0.394,0.545,0.881,0.965,1.464,1.254C629.199,466.025,629.877,466.17,630.65,466.17z"/>
		<path fill="#7D7D7D" d="M644.643,440.186h5.248v5.202h-5.248V440.186z M644.769,449.881h4.995v19.609h-4.995V449.881z"/>
		<path fill="#7D7D7D" d="M664.938,466.13c0.97,0,1.981-0.093,3.035-0.283c1.054-0.188,2.122-0.459,3.204-0.809v3.824
			c-0.647,0.271-1.637,0.526-2.972,0.77c-1.336,0.242-2.72,0.364-4.153,0.364c-1.447,0-2.82-0.179-4.12-0.536
			c-1.299-0.357-2.433-0.935-3.403-1.731c-0.969-0.796-1.739-1.828-2.307-3.096c-0.57-1.268-0.854-2.807-0.854-4.614
			c0-1.781,0.267-3.338,0.801-4.674c0.533-1.337,1.25-2.443,2.149-3.319c0.9-0.877,1.93-1.534,3.088-1.973
			c1.16-0.438,2.357-0.658,3.594-0.658c1.292,0,2.483,0.188,3.572,0.566c1.088,0.379,2.03,0.972,2.824,1.782
			c0.793,0.809,1.411,1.851,1.854,3.126c0.443,1.275,0.664,2.782,0.664,4.522c-0.015,0.675-0.035,1.249-0.064,1.721h-13.383
			c0.07,0.904,0.281,1.677,0.632,2.317c0.352,0.641,0.812,1.161,1.38,1.559c0.57,0.398,1.234,0.687,1.992,0.87
			C663.231,466.039,664.052,466.13,664.938,466.13z M662.936,453.138c-0.632,0-1.195,0.112-1.686,0.334
			c-0.492,0.223-0.917,0.526-1.275,0.911c-0.359,0.384-0.643,0.834-0.854,1.346c-0.211,0.513-0.352,1.058-0.422,1.639h8.03
			c0-0.581-0.081-1.126-0.242-1.639s-0.4-0.962-0.716-1.346c-0.317-0.384-0.71-0.687-1.181-0.911
			C664.119,453.25,663.568,453.138,662.936,453.138z"/>
		<path fill="#7D7D7D" d="M684.641,463.804c0-0.418-0.123-0.762-0.368-1.032c-0.246-0.269-0.574-0.495-0.981-0.678
			c-0.407-0.183-0.874-0.341-1.401-0.475c-0.528-0.135-1.078-0.271-1.655-0.406c-0.731-0.188-1.433-0.407-2.107-0.658
			c-0.675-0.249-1.268-0.576-1.781-0.981c-0.514-0.405-0.921-0.913-1.223-1.528c-0.302-0.614-0.453-1.365-0.453-2.256
			c0-1.093,0.204-2.041,0.612-2.844c0.407-0.802,0.959-1.467,1.655-1.993c0.695-0.526,1.503-0.917,2.424-1.173
			c0.92-0.256,1.893-0.384,2.919-0.384c1.25,0,2.424,0.097,3.52,0.294c1.096,0.195,2.087,0.448,2.972,0.758v3.907
			c-0.464-0.149-0.953-0.287-1.465-0.415c-0.513-0.129-1.032-0.239-1.559-0.334c-0.526-0.093-1.05-0.172-1.57-0.233
			c-0.521-0.059-1.012-0.091-1.476-0.091c-0.59,0-1.088,0.054-1.495,0.162c-0.409,0.108-0.739,0.253-0.991,0.434
			c-0.253,0.183-0.436,0.392-0.548,0.628c-0.114,0.235-0.169,0.482-0.169,0.739c0,0.445,0.123,0.809,0.369,1.092
			c0.245,0.284,0.586,0.513,1.022,0.689c0.436,0.175,0.892,0.321,1.369,0.434c0.478,0.115,0.942,0.226,1.391,0.334
			c0.702,0.162,1.405,0.357,2.108,0.587c0.702,0.229,1.334,0.549,1.896,0.961c0.563,0.411,1.023,0.945,1.382,1.599
			c0.357,0.654,0.537,1.487,0.537,2.498c0,1.107-0.218,2.072-0.654,2.895c-0.436,0.823-1.043,1.507-1.823,2.054
			c-0.781,0.547-1.715,0.951-2.804,1.214c-1.089,0.264-2.287,0.395-3.593,0.395c-1.294,0-2.456-0.099-3.488-0.294
			c-1.033-0.196-1.886-0.441-2.56-0.739v-3.865c1.096,0.391,2.107,0.658,3.035,0.798c0.927,0.142,1.79,0.214,2.591,0.214
			c0.618,0,1.195-0.045,1.728-0.133c0.535-0.087,0.995-0.226,1.382-0.414c0.386-0.189,0.691-0.429,0.916-0.718
			S684.641,464.208,684.641,463.804z"/>
		<path fill="#7D7D7D" d="M694.461,464.086h5.838l-4.552,13.72h-5.332L694.461,464.086z"/>
		<path fill="#7D7D7D" d="M714.249,469.49v-27.077h5.164v27.077H714.249z"/>
		<path fill="#7D7D7D" d="M729.17,452.613h0.084c0.295-0.406,0.667-0.802,1.118-1.195c0.449-0.391,0.962-0.735,1.539-1.031
			c0.575-0.298,1.211-0.537,1.907-0.719c0.695-0.183,1.437-0.273,2.223-0.273c0.746,0,1.466,0.081,2.161,0.242
			c0.696,0.162,1.33,0.415,1.907,0.759c0.576,0.344,1.085,0.789,1.528,1.336c0.443,0.547,0.79,1.198,1.043,1.953
			c0.141,0.418,0.235,0.874,0.285,1.367c0.049,0.493,0.073,1.062,0.073,1.709v12.729h-4.995v-11.98c0-0.526-0.022-0.978-0.064-1.356
			c-0.042-0.377-0.119-0.709-0.231-0.992c-0.253-0.621-0.636-1.066-1.149-1.336c-0.513-0.269-1.135-0.405-1.865-0.405
			c-0.97,0-1.901,0.219-2.793,0.658c-0.892,0.438-1.682,1.076-2.371,1.912v13.498h-4.995v-19.609h4.13L729.17,452.613z"/>
		<path fill="#7D7D7D" d="M762.278,469.065c-0.632,0.256-1.406,0.475-2.318,0.658c-0.913,0.183-1.877,0.273-2.888,0.273
			c-1.475,0-2.853-0.203-4.131-0.608c-1.279-0.405-2.395-1.018-3.35-1.842c-0.955-0.823-1.708-1.865-2.256-3.126
			c-0.548-1.261-0.821-2.735-0.821-4.422c0-1.889,0.317-3.507,0.949-4.857c0.632-1.349,1.451-2.445,2.455-3.288
			c1.005-0.843,2.135-1.464,3.394-1.862c1.257-0.398,2.497-0.597,3.72-0.597c0.913,0,1.792,0.077,2.635,0.233
			c0.843,0.154,1.608,0.367,2.296,0.637v3.905c-0.618-0.256-1.275-0.461-1.97-0.617c-0.695-0.156-1.444-0.233-2.245-0.233
			c-0.801,0-1.567,0.118-2.296,0.354c-0.731,0.236-1.378,0.61-1.939,1.123c-0.563,0.513-1.008,1.191-1.338,2.034
			c-0.33,0.843-0.495,1.858-0.495,3.045c0,0.865,0.126,1.677,0.379,2.439c0.253,0.763,0.622,1.414,1.107,1.954
			c0.484,0.54,1.103,0.974,1.854,1.304c0.752,0.331,1.64,0.497,2.667,0.497c0.912,0,1.742-0.088,2.486-0.264
			c0.746-0.174,1.448-0.391,2.108-0.647V469.065z"/>
		<path fill="#7D7D7D" d="M766.387,464.086h5.669v5.403h-5.669V464.086z"/>
	</g>
	<g>
		<path fill="#005336" d="M391.6,409.877c-2.145,1.822-4.643,3.332-7.426,4.485c-2.748,1.14-5.687,1.718-8.735,1.718
			c-4.909,0-8.78-1.618-11.504-4.81c-2.788-3.266-4.202-7.955-4.202-13.939c0-6.101,1.462-10.849,4.346-14.112
			c2.83-3.203,6.652-4.827,11.359-4.827c1.604,0,3.304,0.227,5.053,0.675c1.775,0.455,3.336,0.992,4.636,1.595
			c1.526,0.707,2.838,1.407,3.898,2.079c1.064,0.672,1.948,1.277,2.626,1.798l0.4,0.309h2.563v-12.533l-0.848-0.393
			c-2.438-1.12-5.242-2.121-8.334-2.974c-3.149-0.867-6.458-1.307-9.835-1.307c-4.161,0-8.117,0.671-11.757,1.993
			c-3.679,1.338-6.803,3.278-9.284,5.765c-2.466,2.472-4.46,5.55-5.925,9.15c-1.464,3.589-2.206,7.889-2.206,12.78
			c0,4.913,0.712,9.259,2.114,12.919c0.536,1.403,1.174,2.742,1.907,3.999h-44.361v-23.761h28.15l10.938-11.374h-39.088v-16.771
			h38.493l10.936-11.376h-62.897v74.656h51.961l7.74-8.598c0.709,0.912,1.469,1.752,2.267,2.508
			c2.593,2.453,5.729,4.306,9.318,5.506c3.541,1.188,7.476,1.789,11.694,1.789c2.208,0,4.049-0.129,5.474-0.384
			c1.382-0.248,2.957-0.604,4.66-1.053c1.278-0.309,2.706-0.777,4.242-1.39c1.479-0.59,2.738-1.105,3.745-1.529l0.894-0.373v-12.572
			h-2.604L391.6,409.877z"/>
		<path fill="#005336" d="M422.228,367.402c-8.355,0-15.196,2.662-20.333,7.913c-5.125,5.236-7.724,12.627-7.724,21.968
			c0,9.072,2.518,16.38,7.485,21.724c4.999,5.38,11.921,8.108,20.572,8.108c8.39,0,15.222-2.638,20.307-7.84
			c5.072-5.188,7.643-12.587,7.643-21.992c0-9.371-2.57-16.769-7.639-21.987C437.453,370.059,430.619,367.402,422.228,367.402z
			 M411.323,382.656c2.512-3.022,6.18-4.553,10.905-4.553c4.687,0,8.329,1.53,10.823,4.549c2.568,3.111,3.871,8.034,3.871,14.632
			c0,6.504-1.313,11.395-3.9,14.536c-2.512,3.05-6.143,4.597-10.794,4.597c-4.717,0-8.382-1.576-10.893-4.685
			c-2.593-3.206-3.908-8.068-3.908-14.448C407.427,390.687,408.738,385.765,411.323,382.656z"/>
		<rect x="643.238" y="350.486" fill="#005336" width="14.32" height="12.29"/>
		<path fill="#005336" d="M767.993,378.188c-1.169-2.58-2.968-4.71-5.348-6.337c-2.386-1.614-5.104-2.743-8.081-3.356
			c-2.89-0.598-6.463-0.9-10.617-0.9c-3.44,0-6.959,0.3-10.458,0.89c-3.457,0.581-6.167,1.125-8.054,1.618l-1.091,0.286v11.762
			h2.138l0.448-0.098c3.023-1.152,6.092-2.045,9.122-2.654c3.007-0.603,5.644-0.909,7.84-0.909c1.885,0,3.734,0.117,5.497,0.348
			c1.637,0.214,3.029,0.646,4.15,1.295c1.023,0.567,1.831,1.387,2.403,2.435c0.591,1.085,0.891,2.582,0.891,4.452v0.363
			c-4.743,0.258-9.238,0.633-13.379,1.116c-4.654,0.545-8.758,1.544-12.198,2.968c-4.02,1.652-7.016,3.935-8.907,6.788
			c-1.886,2.845-2.843,6.313-2.843,10.308c0,2.601,0.524,5.105,1.556,7.443c1.035,2.343,2.438,4.345,4.181,5.96
			c1.793,1.626,3.9,2.905,6.263,3.802c2.357,0.896,4.878,1.35,7.494,1.35c3.095,0,5.562-0.245,7.333-0.728
			c1.717-0.468,3.522-1.145,5.353-2.006c1.359-0.616,2.776-1.452,4.213-2.485c0.326-0.235,0.637-0.457,0.934-0.667v8.009
			l12.882,0.062v-41.946C769.716,383.793,769.136,380.708,767.993,378.188z M756.833,397.556v12.674
			c-1.985,1.541-4.122,2.868-6.359,3.951c-2.336,1.131-4.997,1.705-7.911,1.705c-3.317,0-5.826-0.681-7.458-2.024
			c-1.556-1.28-2.345-3.258-2.345-5.88c0-2.289,0.712-4.075,2.115-5.307c1.56-1.372,3.582-2.409,6.007-3.083
			c2.143-0.585,5.018-1.048,8.545-1.376C752.269,397.953,754.75,397.732,756.833,397.556z"/>
		<path fill="#005336" d="M695.697,367.402c-3.42,0-6.717,0.691-9.803,2.055c-2.218,0.981-4.483,2.294-6.754,3.915v-4.476h-12.935
			v60.364h12.935v-44.565c2.245-1.661,4.559-3.04,6.886-4.102c2.43-1.109,4.808-1.671,7.065-1.671c2.294,0,4.089,0.288,5.34,0.855
			c1.171,0.53,2.095,1.348,2.74,2.415c0.644,1.112,1.093,2.657,1.334,4.593c0.257,2.066,0.387,4.333,0.387,6.739v35.737h12.938
			v-40.025c0-6.965-1.797-12.396-5.34-16.142C706.92,369.317,701.943,367.402,695.697,367.402z"/>
		<rect x="643.929" y="368.896" fill="#005336" width="12.937" height="60.364"/>
		<path fill="#005336" d="M629.609,372.428c-1.712-1.764-3.748-3.062-6.053-3.861c-2.235-0.773-4.743-1.165-7.452-1.165
			c-3.605,0-6.995,0.856-10.075,2.545c-2.506,1.373-5.087,3.304-7.686,5.75c-1.487-2.65-3.474-4.649-5.919-5.951
			c-2.918-1.556-6.292-2.344-10.031-2.344c-3.307,0-6.387,0.71-9.154,2.112c-1.862,0.943-3.755,2.169-5.647,3.655v-4.273h-12.937
			v60.364h12.937v-44.61c1.985-1.628,4.043-2.994,6.123-4.063c2.15-1.105,4.211-1.666,6.125-1.666c2.001,0,3.579,0.261,4.688,0.774
			c1.017,0.475,1.816,1.226,2.376,2.241c0.572,1.013,0.961,2.487,1.152,4.38c0.207,2.051,0.311,4.315,0.311,6.725v36.218h12.937
			v-40.507c0-1.054-0.027-1.987-0.083-2.778l-0.085-1.222c2.212-1.834,4.38-3.269,6.447-4.269c2.141-1.036,4.15-1.562,5.97-1.562
			c2.001,0,3.578,0.261,4.686,0.774c1.019,0.476,1.817,1.226,2.378,2.241c0.571,1.01,0.959,2.485,1.152,4.38
			c0.207,2.05,0.311,4.313,0.311,6.725v36.218h12.935v-40.507c0-3.842-0.465-7.099-1.386-9.684
			C632.692,376.439,631.34,374.204,629.609,372.428z"/>
		<path fill="#005336" d="M533.979,409.837c-2.06,1.566-4.328,2.915-6.75,4.013c-2.56,1.16-4.982,1.748-7.202,1.748
			c-2.394,0-4.215-0.279-5.413-0.828c-1.116-0.512-2.015-1.336-2.666-2.439c-0.717-1.245-1.184-2.725-1.388-4.401
			c-0.222-1.814-0.336-4.148-0.336-6.936v-32.098H497.29v36.388c0,3.425,0.413,6.436,1.227,8.965h-31.401v-63.282h-13.467v74.656
			h40.308l6.336-7.38c0.796,1.368,1.733,2.586,2.798,3.632c1.851,1.818,4.053,3.166,6.543,4.006c2.428,0.82,5.049,1.236,7.789,1.236
			c3.601,0,6.923-0.686,9.874-2.039c2.131-0.978,4.372-2.304,6.682-3.951v8.134h12.935v-60.364h-12.935V409.837z"/>
	</g>
	<g>
		<polygon fill="#005336" points="164.282,463.879 164.416,492.292 262.321,394.387 162.583,294.649 79.933,377.3 80.089,410.749 
			178.324,313.503 178.573,367.449 122.462,422.995 122.594,450.955 220.143,354.387 220.395,408.333 164.282,463.879 		"/>
		<polygon fill="#005336" points="28.055,391.961 127.795,491.7 210.443,409.049 210.288,375.599 112.052,472.845 111.803,418.899 
			167.914,363.354 167.782,335.396 70.233,431.961 69.983,378.015 126.092,322.472 125.96,294.057 28.055,391.961 		"/>
	</g>
</g>
</svg>
