<?xml version="1.0" encoding="utf-8"?>
<!-- Generator: Adobe Illustrator 19.1.1, SVG Export Plug-In . SVG Version: 6.00 Build 0)  -->
<svg version="1.1" id="Layer_1" xmlns="http://www.w3.org/2000/svg" xmlns:xlink="http://www.w3.org/1999/xlink" x="0px" y="0px"
	 viewBox="0 0 432 288" style="enable-background:new 0 0 432 288;" xml:space="preserve">
<style type="text/css">
	.st0{fill:#002F87;}
	.st1{fill:#FFA400;}
</style>
<g>
	<polygon class="st0" points="80.1,127.8 104.3,127.8 104.3,136.5 91.1,136.5 91.1,139.6 99.4,139.6 99.4,147.5 91.1,147.5 
		91.1,158.2 80.1,158.2 	"/>
	<polygon class="st0" points="119,127.8 119,150.9 131,150.9 131,158.1 108.3,158.1 108.3,127.8 	"/>
	<rect x="135.9" y="127.8" class="st0" width="10.7" height="30.3"/>
	<path class="st0" d="M176.7,144.9c0.9-0.3,1.7-0.8,2.4-1.3c1-0.8,1.8-1.7,2.4-2.9c0.6-1.1,0.9-2.3,0.9-3.6c0-1.1-0.2-2.2-0.7-3.3
		c-0.5-1.1-1.2-2-2.1-2.9c-1.2-1.1-2.7-2-4.4-2.5c-1.7-0.5-3.9-0.8-6.4-0.8h-16.7v30.3h10.7v-11.6l10.3,11.6h13.4l-13-12.4
		C174.7,145.5,175.8,145.3,176.7,144.9 M162.7,133.9h2c2.3,0,3.9,0.3,4.9,1c0.5,0.3,0.9,0.7,1.2,1.3c0.3,0.5,0.4,1,0.4,1.5
		c0,0.5-0.2,1-0.5,1.5c-0.3,0.5-0.7,0.9-1.2,1.3c-1,0.7-2.6,1-4.9,1l-2,0V133.9z"/>
	<path class="st0" d="M48.1,143.9l8.9-8.9l8.9,8.9l-8.9,8.9L48.1,143.9z M39.8,135.6l8.2,8.2l-8.2,8.2l17.1,17.1L74,152.1l-8.2-8.2
		l8.2-8.2l-17.1-17.1L39.8,135.6z"/>
	<path class="st0" d="M184.3,130.1h0.6c0.3,0,0.4-0.2,0.4-0.5c0-0.2-0.1-0.4-0.4-0.4h-0.6V130.1z M184.3,131.7h-0.5v-2.8h1.1
		c0.5,0,0.8,0.4,0.8,0.7c0,0.3-0.3,0.6-0.6,0.7v0c0.4,0,0.5,0.1,0.5,0.7c0,0.1,0,0.6,0.1,0.7h-0.5c-0.1-0.2-0.1-0.6-0.1-0.9
		c0-0.3-0.3-0.3-0.4-0.3h-0.5V131.7z M182.6,130.3c0,1.2,0.9,2.1,2.1,2.1c1.2,0,2.1-0.9,2.1-2.1c0-1.2-0.9-2.1-2.1-2.1
		C183.6,128.2,182.6,129.1,182.6,130.3 M187.2,130.3c0,1.4-1.1,2.5-2.4,2.5c-1.4,0-2.5-1.1-2.5-2.5c0-1.4,1.1-2.4,2.5-2.4
		C186.1,127.8,187.2,128.9,187.2,130.3"/>
	<g>
		<path class="st0" d="M232.5,140.6v9.2h-1.4v-9.2h-3v-1.3h7.4v1.3H232.5z"/>
		<path class="st0" d="M242.1,144c0-0.5-0.3-0.9-0.9-0.9h-0.5c-0.5,0-1,0.1-1.5,0.4l-0.6,0.4v5.9h-1.3v-10.9h1.3v4.1l0.6-0.5
			c0.4-0.3,0.9-0.6,1.6-0.6h0.6c1.2,0,2,0.8,2,2v5.9h-1.3V144z"/>
		<path class="st0" d="M246.6,147.8c0,0.5,0.3,0.9,0.9,0.9h1.8c0.5,0,0.9-0.4,0.9-0.9v-0.5h1.3v0.5c0,1.2-0.8,2-2,2h-2.1
			c-1.2,0-2-0.8-2-2v-3.9c0-1.2,0.8-2,2-2h2.1c1.2,0,2,0.8,2,2v2.3h-4.9V147.8z M247.5,143c-0.5,0-0.9,0.4-0.9,0.9v1.3h3.5V144
			c0-0.5-0.3-0.9-0.9-0.9H247.5z"/>
		<path class="st0" d="M264.8,149.8l-2-8.1l-2,8.1h-1.4l-2.8-10.5h1.5l2,8.6l2.1-8.6h1.2l2.1,8.6l2-8.6h1.4l-2.8,10.5H264.8z"/>
		<path class="st0" d="M274.3,141.9c1.2,0,2,0.8,2,2v3.9c0,1.2-0.8,2-2,2h-2.2c-1.2,0-2-0.8-2-2v-3.9c0-1.2,0.8-2,2-2H274.3z
			 M275,144c0-0.5-0.3-0.9-0.9-0.9h-1.9c-0.5,0-0.9,0.4-0.9,0.9v3.9c0,0.5,0.3,0.9,0.9,0.9h1.9c0.5,0,0.9-0.4,0.9-0.9V144z"/>
		<path class="st0" d="M281.8,143.1c-0.5,0-1,0.1-1.5,0.4l-0.6,0.4v5.9h-1.3V142h1.3v1.1l0.6-0.5c0.4-0.3,0.9-0.6,1.6-0.6h0.8v1.2
			H281.8z"/>
		<path class="st0" d="M285.6,138.9v10.9h-1.3v-10.9H285.6z"/>
		<path class="st0" d="M292.5,149.8v-1.1l-0.6,0.5c-0.4,0.3-0.9,0.6-1.6,0.6h-0.7c-1.2,0-2-0.8-2-2v-3.9c0-1.2,0.8-2,2-2h0.7
			c0.7,0,1.2,0.3,1.6,0.6l0.6,0.5v-4.1h1.3v10.9H292.5z M291.9,143.5c-0.5-0.3-1-0.4-1.5-0.4h-0.6c-0.5,0-0.9,0.4-0.9,0.9v3.8
			c0,0.5,0.3,0.9,0.9,0.9h0.6c0.6,0,1-0.1,1.5-0.4l0.6-0.4v-4L291.9,143.5z"/>
		<path class="st0" d="M297.6,140.6c0,0.4-0.4,0.9-0.6,1.3l-0.6,0.9h-0.7l1-1.9H296v-1.7h1.5V140.6z"/>
		<path class="st0" d="M303.4,143.9c0-0.5-0.3-0.9-0.8-0.9H301c-0.5,0-0.8,0.4-0.8,0.9v0.5c0,0.5,0.3,0.6,0.8,0.7l2.2,0.4
			c1.2,0.2,1.7,0.7,1.7,1.7v0.9c0,1.2-0.8,1.9-2,1.9h-2.2c-1.2,0-1.9-0.8-1.9-1.9v-0.6h1.3v0.5c0,0.5,0.2,0.9,0.8,0.9h1.9
			c0.5,0,0.8-0.3,0.8-0.9v-0.7c0-0.5-0.2-0.6-0.7-0.7l-2.2-0.4c-1.2-0.2-1.7-0.7-1.7-1.7v-0.6c0-1.2,0.8-1.9,1.9-1.9h2
			c1.2,0,2,0.8,2,1.9v0.4h-1.3V143.9z"/>
		<path class="st1" d="M316.1,141.5c0-0.5-0.3-0.9-0.9-0.9h-2.4c-0.5,0-0.9,0.4-0.9,0.9v1.1c0,0.7,0.4,0.8,0.9,0.9l2.7,0.6
			c1.2,0.3,2.1,0.8,2.1,2.1v1.6c0,1.3-0.8,2.1-2.1,2.1h-2.9c-1.3,0-2.1-0.8-2.1-2.1v-1.1h1.4v1c0,0.5,0.3,0.9,0.9,0.9h2.6
			c0.5,0,0.9-0.4,0.9-0.9v-1.3c0-0.7-0.3-0.8-0.9-0.9l-2.7-0.6c-1.2-0.3-2.1-0.8-2.1-2.1v-1.4c0-1.3,0.8-2.1,2.1-2.1h2.7
			c1.3,0,2.1,0.8,2.1,2.1v1h-1.4V141.5z"/>
		<path class="st1" d="M319.6,140.4v-1.5h1.5v1.5H319.6z M321,149.8h-1.3V142h1.3V149.8z"/>
		<path class="st1" d="M326,146.9l-2,3h-1.4l2.7-4l-2.6-3.8h1.5l2,2.9l1.9-2.9h1.4l-2.6,3.9l2.7,3.9H328L326,146.9z"/>
		<path class="st1" d="M333.4,147.8c0,0.5,0.3,0.9,0.9,0.9h1.6v1.2h-1.7c-1.2,0-2-0.8-2-2v-4.7h-1.3V142h1.4v-2.6h1.3v2.6h2.5v1.1
			h-2.4V147.8z"/>
		<path class="st1" d="M342.4,144c0-0.5-0.3-0.9-0.9-0.9H341c-0.5,0-1.1,0.1-1.5,0.4l-0.6,0.4v5.9h-1.3v-10.9h1.3v4.1l0.6-0.5
			c0.4-0.3,0.9-0.6,1.6-0.6h0.6c1.2,0,2,0.8,2,2v5.9h-1.3V144z"/>
		<path class="st1" d="M355.1,141.5c0-0.5-0.3-0.9-0.9-0.9h-2.4c-0.5,0-0.9,0.4-0.9,0.9v1.1c0,0.7,0.4,0.8,0.9,0.9l2.7,0.6
			c1.2,0.3,2.1,0.8,2.1,2.1v1.6c0,1.3-0.8,2.1-2.1,2.1h-2.9c-1.3,0-2.1-0.8-2.1-2.1v-1.1h1.4v1c0,0.5,0.3,0.9,0.9,0.9h2.6
			c0.5,0,0.9-0.4,0.9-0.9v-1.3c0-0.7-0.3-0.8-0.9-0.9l-2.7-0.6c-1.2-0.3-2.1-0.8-2.1-2.1v-1.4c0-1.3,0.8-2.1,2.1-2.1h2.7
			c1.3,0,2.1,0.8,2.1,2.1v1h-1.4V141.5z"/>
		<path class="st1" d="M359.9,147.8c0,0.5,0.3,0.9,0.9,0.9h1.8c0.5,0,0.9-0.4,0.9-0.9v-0.5h1.3v0.5c0,1.2-0.8,2-2,2h-2.1
			c-1.2,0-2-0.8-2-2v-3.9c0-1.2,0.8-2,2-2h2.1c1.2,0,2,0.8,2,2v2.3h-4.9V147.8z M360.8,143c-0.5,0-0.9,0.4-0.9,0.9v1.3h3.5V144
			c0-0.5-0.3-0.9-0.9-0.9H360.8z"/>
		<path class="st1" d="M371.5,144c0-0.5-0.3-0.9-0.9-0.9h-0.5c-0.5,0-1,0.1-1.5,0.4l-0.6,0.4v5.9h-1.3V142h1.3v1.1l0.6-0.5
			c0.4-0.3,0.9-0.6,1.6-0.6h0.6c1.2,0,2,0.8,2,2v5.9h-1.3V144z"/>
		<path class="st1" d="M379.3,143.9c0-0.5-0.3-0.9-0.8-0.9h-1.6c-0.5,0-0.8,0.4-0.8,0.9v0.5c0,0.5,0.3,0.6,0.8,0.7l2.2,0.4
			c1.2,0.2,1.7,0.7,1.7,1.7v0.9c0,1.2-0.8,1.9-2,1.9h-2.2c-1.2,0-1.9-0.8-1.9-1.9v-0.6h1.3v0.5c0,0.5,0.2,0.9,0.8,0.9h1.9
			c0.5,0,0.8-0.3,0.8-0.9v-0.7c0-0.5-0.2-0.6-0.7-0.7l-2.2-0.4c-1.2-0.2-1.7-0.7-1.7-1.7v-0.6c0-1.2,0.8-1.9,1.9-1.9h2
			c1.2,0,2,0.8,2,1.9v0.4h-1.3V143.9z"/>
		<path class="st1" d="M383.8,147.8c0,0.5,0.3,0.9,0.9,0.9h1.8c0.5,0,0.9-0.4,0.9-0.9v-0.5h1.3v0.5c0,1.2-0.8,2-2,2h-2.1
			c-1.2,0-2-0.8-2-2v-3.9c0-1.2,0.8-2,2-2h2.1c1.2,0,2,0.8,2,2v2.3h-4.9V147.8z M384.7,143c-0.5,0-0.9,0.4-0.9,0.9v1.3h3.5V144
			c0-0.5-0.3-0.9-0.9-0.9H384.7z"/>
		<path class="st1" d="M391.3,140.1v2.6h-0.5v-2.6h-0.9v-0.4h2.2v0.4H391.3z M395.4,142.8H395v-2.3l-0.8,1.9h-0.3l-0.8-1.9v2.3h-0.4
			v-3.1h0.5l0.9,2l0.9-2h0.5V142.8z"/>
	</g>
	<rect x="209.3" y="118.5" class="st0" width="1" height="50.7"/>
</g>
</svg>
