<?xml version="1.0" encoding="utf-8"?>
<!-- Generator: Adobe Illustrator 19.1.1, SVG Export Plug-In . SVG Version: 6.00 Build 0)  -->
<svg version="1.1" id="Layer_1" xmlns="http://www.w3.org/2000/svg" xmlns:xlink="http://www.w3.org/1999/xlink" x="0px" y="0px"
	 viewBox="0 0 288 288" style="enable-background:new 0 0 288 288;" xml:space="preserve">
<style type="text/css">
	.st0{fill:#002F87;}
	.st1{fill:#FAA21A;}
</style>
<g>
	<g>
		<polygon class="st0" points="106.8,110 131,110 131,118.7 117.9,118.7 117.9,121.9 126.2,121.9 126.1,129.7 117.9,129.7 
			117.9,140.4 106.8,140.4 		"/>
		<polygon class="st0" points="145.7,110 145.7,133.2 157.7,133.2 157.7,140.3 135,140.3 135,110 		"/>
		<rect x="162.6" y="110" class="st0" width="10.7" height="30.3"/>
		<path class="st0" d="M203.4,127.2c0.9-0.3,1.7-0.8,2.4-1.3c1-0.8,1.8-1.7,2.4-2.9c0.6-1.1,0.9-2.3,0.9-3.6c0-1.1-0.3-2.2-0.7-3.3
			c-0.5-1.1-1.2-2-2.1-2.9c-1.2-1.1-2.7-2-4.4-2.5c-1.7-0.5-3.9-0.8-6.4-0.8h-16.7v30.3h10.7v-11.6l10.3,11.6h13.4l-13-12.4
			C201.4,127.8,202.5,127.5,203.4,127.2 M189.4,116.1h2c2.3,0,3.9,0.3,4.9,1c0.5,0.3,0.9,0.7,1.2,1.3c0.3,0.5,0.4,1,0.4,1.5
			c0,0.5-0.2,1-0.5,1.5c-0.3,0.5-0.7,0.9-1.2,1.3c-1,0.7-2.6,1-4.9,1l-2,0V116.1z"/>
		<path class="st0" d="M74.8,126.1l8.9-8.9l8.9,8.9l-8.9,8.9L74.8,126.1z M83.7,100.8l-17.1,17.1l8.2,8.2l-8.2,8.2l17.1,17.1
			l17.1-17.1l-8.2-8.2l8.2-8.2L83.7,100.8z"/>
		<path class="st0" d="M210.9,112.3h0.6c0.3,0,0.4-0.2,0.4-0.5c0-0.2-0.1-0.4-0.4-0.4h-0.6V112.3z M210.9,114h-0.5v-2.8h1.1
			c0.5,0,0.8,0.4,0.8,0.7c0,0.3-0.3,0.6-0.6,0.7v0c0.4,0,0.5,0.2,0.5,0.7c0,0.1,0,0.6,0.1,0.7h-0.5c-0.1-0.2-0.1-0.6-0.1-0.9
			c0-0.3-0.3-0.3-0.4-0.3h-0.5V114z M209.3,112.5c0,1.2,0.9,2.1,2.1,2.1c1.2,0,2.1-0.9,2.1-2.1c0-1.2-0.9-2.1-2.1-2.1
			C210.2,110.4,209.3,111.4,209.3,112.5 M213.8,112.5c0,1.4-1.1,2.5-2.4,2.5c-1.4,0-2.5-1.1-2.5-2.5c0-1.4,1.1-2.4,2.5-2.4
			C212.7,110.1,213.8,111.2,213.8,112.5"/>
	</g>
	<g>
		<path class="st0" d="M79.9,171.9v7.7h-1.2v-7.7h-2.5v-1.1h6.2v1.1H79.9z"/>
		<path class="st0" d="M88.1,174.7c0-0.5-0.3-0.8-0.7-0.8H87c-0.5,0-0.9,0.1-1.3,0.4l-0.5,0.3v5H84v-9.2h1.1v3.5l0.5-0.4
			c0.4-0.3,0.8-0.5,1.3-0.5h0.5c1,0,1.7,0.7,1.7,1.7v4.9h-1.1V174.7z"/>
		<path class="st0" d="M92,177.9c0,0.5,0.3,0.8,0.7,0.8h1.5c0.4,0,0.7-0.3,0.7-0.8v-0.4h1.1v0.4c0,1-0.7,1.7-1.7,1.7h-1.8
			c-1,0-1.7-0.7-1.7-1.7v-3.3c0-1,0.7-1.7,1.7-1.7h1.8c1,0,1.7,0.7,1.7,1.7v1.9H92V177.9z M92.7,173.9c-0.4,0-0.7,0.3-0.7,0.8v1.1h3
			v-1.1c0-0.5-0.3-0.8-0.7-0.8H92.7z"/>
		<path class="st0" d="M107.3,179.6l-1.7-6.8l-1.7,6.8h-1.2l-2.3-8.8h1.2l1.7,7.2l1.8-7.2h1l1.8,7.2l1.7-7.2h1.2l-2.3,8.8H107.3z"/>
		<path class="st0" d="M115.4,172.9c1,0,1.7,0.7,1.7,1.7v3.3c0,1-0.7,1.7-1.7,1.7h-1.8c-1,0-1.7-0.7-1.7-1.7v-3.3
			c0-1,0.7-1.7,1.7-1.7H115.4z M116,174.7c0-0.4-0.3-0.8-0.7-0.8h-1.6c-0.4,0-0.7,0.3-0.7,0.8v3.3c0,0.4,0.3,0.8,0.7,0.8h1.6
			c0.4,0,0.7-0.3,0.7-0.8V174.7z"/>
		<path class="st0" d="M121.8,174c-0.5,0-0.9,0.1-1.3,0.4l-0.5,0.3v4.9h-1.1V173h1.1v0.9l0.5-0.4c0.4-0.3,0.8-0.5,1.3-0.5h0.6v1
			H121.8z"/>
		<path class="st0" d="M125.1,170.4v9.2H124v-9.2H125.1z"/>
		<path class="st0" d="M131.1,179.6v-0.9l-0.5,0.4c-0.4,0.3-0.8,0.5-1.3,0.5h-0.6c-1,0-1.7-0.7-1.7-1.7v-3.3c0-1,0.7-1.7,1.7-1.7
			h0.6c0.6,0,1,0.3,1.3,0.5l0.5,0.4v-3.5h1.1v9.2H131.1z M130.6,174.3c-0.4-0.2-0.8-0.4-1.3-0.4h-0.5c-0.5,0-0.7,0.3-0.7,0.8v3.2
			c0,0.5,0.3,0.8,0.7,0.8h0.5c0.5,0,0.9-0.1,1.3-0.4l0.5-0.3v-3.4L130.6,174.3z"/>
		<path class="st0" d="M135.4,171.9c0,0.3-0.3,0.7-0.5,1.1l-0.5,0.8h-0.6l0.8-1.6h-0.5v-1.4h1.3V171.9z"/>
		<path class="st0" d="M140.5,174.6c0-0.4-0.2-0.7-0.7-0.7h-1.4c-0.4,0-0.7,0.3-0.7,0.7v0.4c0,0.4,0.2,0.5,0.6,0.6l1.9,0.3
			c1,0.2,1.4,0.6,1.4,1.4v0.7c0,1-0.6,1.6-1.6,1.6h-1.9c-1,0-1.6-0.6-1.6-1.6v-0.5h1.1v0.4c0,0.4,0.2,0.7,0.7,0.7h1.6
			c0.4,0,0.6-0.3,0.6-0.7v-0.6c0-0.4-0.2-0.5-0.6-0.6l-1.9-0.3c-1-0.2-1.4-0.6-1.4-1.4v-0.5c0-1,0.6-1.6,1.6-1.6h1.6
			c1,0,1.6,0.6,1.6,1.6v0.4h-1.1V174.6z"/>
		<path class="st1" d="M151.2,172.6c0-0.5-0.3-0.8-0.7-0.8h-2c-0.5,0-0.7,0.3-0.7,0.8v0.9c0,0.6,0.3,0.7,0.7,0.8l2.3,0.5
			c1,0.2,1.8,0.7,1.8,1.8v1.3c0,1.1-0.7,1.8-1.8,1.8h-2.4c-1.1,0-1.8-0.7-1.8-1.8v-1h1.2v0.9c0,0.5,0.3,0.8,0.7,0.8h2.2
			c0.5,0,0.7-0.3,0.7-0.8v-1.1c0-0.6-0.3-0.7-0.7-0.8l-2.3-0.5c-1-0.2-1.8-0.7-1.8-1.8v-1.2c0-1.1,0.7-1.8,1.8-1.8h2.3
			c1.1,0,1.8,0.7,1.8,1.8v0.8h-1.2V172.6z"/>
		<path class="st1" d="M154.3,171.7v-1.2h1.2v1.2H154.3z M155.4,179.6h-1.1V173h1.1V179.6z"/>
		<path class="st1" d="M159.7,177.1l-1.7,2.5h-1.2l2.2-3.4l-2.2-3.2h1.2l1.7,2.4l1.6-2.4h1.2l-2.2,3.3l2.3,3.3h-1.2L159.7,177.1z"/>
		<path class="st1" d="M166,177.9c0,0.5,0.3,0.8,0.7,0.8h1.3v1h-1.5c-1,0-1.7-0.7-1.7-1.7v-4h-1.1V173h1.1v-2.2h1.1v2.2h2.1v0.9H166
			V177.9z"/>
		<path class="st1" d="M173.7,174.7c0-0.5-0.3-0.8-0.7-0.8h-0.4c-0.5,0-0.9,0.1-1.3,0.4l-0.5,0.3v5h-1.1v-9.2h1.1v3.5l0.5-0.4
			c0.4-0.3,0.8-0.5,1.3-0.5h0.5c1,0,1.7,0.7,1.7,1.7v4.9h-1.1V174.7z"/>
		<path class="st1" d="M184.5,172.6c0-0.5-0.3-0.8-0.7-0.8h-2c-0.5,0-0.7,0.3-0.7,0.8v0.9c0,0.6,0.3,0.7,0.7,0.8l2.3,0.5
			c1,0.2,1.8,0.7,1.8,1.8v1.3c0,1.1-0.7,1.8-1.8,1.8h-2.4c-1.1,0-1.8-0.7-1.8-1.8v-1h1.2v0.9c0,0.5,0.3,0.8,0.7,0.8h2.2
			c0.5,0,0.7-0.3,0.7-0.8v-1.1c0-0.6-0.3-0.7-0.7-0.8l-2.3-0.5c-1-0.2-1.8-0.7-1.8-1.8v-1.2c0-1.1,0.7-1.8,1.8-1.8h2.3
			c1.1,0,1.8,0.7,1.8,1.8v0.8h-1.2V172.6z"/>
		<path class="st1" d="M188.6,177.9c0,0.5,0.3,0.8,0.7,0.8h1.5c0.4,0,0.7-0.3,0.7-0.8v-0.4h1.1v0.4c0,1-0.7,1.7-1.7,1.7h-1.8
			c-1,0-1.7-0.7-1.7-1.7v-3.3c0-1,0.7-1.7,1.7-1.7h1.8c1,0,1.7,0.7,1.7,1.7v1.9h-4.1V177.9z M189.4,173.9c-0.4,0-0.7,0.3-0.7,0.8
			v1.1h3v-1.1c0-0.5-0.3-0.8-0.7-0.8H189.4z"/>
		<path class="st1" d="M198.5,174.7c0-0.5-0.3-0.8-0.7-0.8h-0.4c-0.5,0-0.9,0.1-1.3,0.4l-0.5,0.3v5h-1.1V173h1.1v0.9l0.5-0.4
			c0.4-0.3,0.8-0.5,1.3-0.5h0.5c1,0,1.7,0.7,1.7,1.7v4.9h-1.1V174.7z"/>
		<path class="st1" d="M205.1,174.6c0-0.4-0.2-0.7-0.7-0.7h-1.4c-0.4,0-0.7,0.3-0.7,0.7v0.4c0,0.4,0.2,0.5,0.6,0.6l1.9,0.3
			c1,0.2,1.4,0.6,1.4,1.4v0.7c0,1-0.6,1.6-1.6,1.6h-1.9c-1,0-1.6-0.6-1.6-1.6v-0.5h1.1v0.4c0,0.4,0.2,0.7,0.7,0.7h1.6
			c0.4,0,0.6-0.3,0.6-0.7v-0.6c0-0.4-0.2-0.5-0.6-0.6l-1.9-0.3c-1-0.2-1.4-0.6-1.4-1.4v-0.5c0-1,0.6-1.6,1.6-1.6h1.6
			c1,0,1.6,0.6,1.6,1.6v0.4h-1.1V174.6z"/>
		<path class="st1" d="M209,177.9c0,0.5,0.3,0.8,0.7,0.8h1.5c0.4,0,0.7-0.3,0.7-0.8v-0.4h1.1v0.4c0,1-0.7,1.7-1.7,1.7h-1.8
			c-1,0-1.7-0.7-1.7-1.7v-3.3c0-1,0.7-1.7,1.7-1.7h1.8c1,0,1.7,0.7,1.7,1.7v1.9H209V177.9z M209.8,173.9c-0.4,0-0.7,0.3-0.7,0.8v1.1
			h3v-1.1c0-0.5-0.3-0.8-0.7-0.8H209.8z"/>
		<path class="st1" d="M215.3,172.2v2.2h-0.4v-2.2h-0.7v-0.4h1.8v0.4H215.3z M218.8,174.4h-0.4v-2l-0.7,1.6h-0.3l-0.7-1.6v2h-0.4
			v-2.6h0.4l0.7,1.7l0.8-1.7h0.4V174.4z"/>
	</g>
</g>
</svg>
