<?xml version="1.0" encoding="UTF-8" standalone="no"?>
<!-- Generator: Adobe Illustrator 16.0.0, SVG Export Plug-In . SVG Version: 6.00 Build 0)  -->
<!DOCTYPE svg  PUBLIC '-//W3C//DTD SVG 1.1//EN'  'http://www.w3.org/Graphics/SVG/1.1/DTD/svg11.dtd'>
<svg id="Ebene_1" xmlns="http://www.w3.org/2000/svg" xml:space="preserve" height="168px" viewBox="0 0 168 168" width="168px" version="1.1" y="0px" x="0px" xmlns:xlink="http://www.w3.org/1999/xlink" enable-background="new 0 0 168 168">
	<path d="m17.494 103.3c-0.301-0.301-0.2-0.603 0.301-0.804 0.904-0.502 1.607-0.4 1.506 0.201 0 0.401-0.502 0.803-1.205 0.803-0.301 0-0.502-0.1-0.602-0.2zm7.831 0c-0.301-0.101-0.401-0.402-0.201-0.703 0.302-0.603 1.808-1.004 2.209-0.603 0.402 0.402 0 0.903-0.703 1.205-0.502 0.1-1.105 0.2-1.305 0.1zm-4.016-1.21c-0.101 0-0.101-0.201-0.101-0.303 0-0.802 2.209-1.706 2.611-1.104 0.2 0.302 0.2 0.401-0.101 0.702-0.502 0.6-2.108 1.1-2.409 0.7zm7.63-0.3c-0.502-0.501-0.201-1.104 0.904-1.706 5.02-2.811 8.533-7.429 9.638-12.95 0.301-1.205 0.502-4.217 0.402-4.619-0.101-0.301-0.101-0.301-0.201 0.302-0.602 4.918-2.811 9.035-6.927 12.95-1.808 1.707-2.812 2.31-3.313 1.808-0.201-0.201-0.201-0.301-0.201-0.402 0-0.4 0.502-1.003 1.606-1.906 2.811-2.511 4.819-5.021 6.225-7.731 0.703-1.505 1.004-2.309 1.305-3.814 0.301-1.506 0.502-3.815 0.201-5.421l-0.101-1.004-0.101 1.506c-0.301 3.413-1.305 6.225-3.112 9.035-2.71 4.016-7.429 7.931-12.85 10.642-0.904 0.401-1.205 0.502-1.707 0.502-0.602 0-0.602 0-0.703-0.301-0.201-0.301-0.201-0.301 0-0.603 0.201-0.401 0.402-0.502 2.108-1.405 3.614-1.707 6.225-3.614 8.634-6.024 3.313-3.312 5.321-6.625 6.125-10.139 0.501-2.208 0.401-4.819-0.201-6.425-0.201-0.502-0.201-0.603-0.201-0.201 0.201 0.803 0.101 3.514-0.101 4.417-0.903 5.22-4.216 9.738-10.04 13.553-1.305 0.903-3.514 2.209-4.216 2.409-0.703 0.302-1.406 0.302-1.606 0.102-0.502-0.503-0.1-1.104 1.104-1.809 4.317-2.309 7.63-4.818 9.939-7.328 1.807-2.008 2.912-4.216 3.514-6.927 0.201-0.903 0.201-1.305 0.201-2.812 0-1.707 0-2.008-0.301-2.911-0.301-1.205-1.205-3.012-1.908-3.916-0.401-0.502-0.501-0.803-0.501-0.904 0.201-0.1 0.501 0.101 1.505 1.004 1.908 1.506 3.815 4.016 4.919 6.225 1.406 2.911 2.108 5.622 2.108 8.834 0 3.213-0.603 5.923-1.907 8.634-1.707 3.715-4.919 7.128-8.634 9.136-0.702 0.4-1.305 0.5-1.606 0.2zm-16.565-0.3c-0.201-0.2-0.201-0.401 0.101-0.702 0.301-0.302 1.205-0.503 1.606-0.401 0.502 0.1 0.402 0.903-0.2 1.104-0.504 0.2-1.306 0.2-1.507 0zm-3.112-1.31c-1.004-0.703-2.912-2.51-3.815-3.514-1.707-2.209-3.112-4.92-3.815-7.529-0.502-2.108-0.603-2.711-0.603-5.321 0-2.208 0-2.51 0.301-3.715 0.502-2.409 1.406-4.719 2.61-6.626 2.31-3.714 5.623-6.425 6.225-5.12 0.101 0.401-0.201 0.803-1.305 1.908-3.112 2.811-5.321 6.626-6.124 10.642-0.502 2.008-0.402 5.02 0.101 7.228l0.1 0.502 0.101-1.405c0.301-6.927 3.413-12.85 9.035-17.368 1.908-1.606 4.819-3.313 5.723-3.514 0.803-0.201 1.104 0.502 0.603 1.104-0.101 0.201-0.904 0.703-1.607 1.205-2.61 1.606-4.317 3.012-6.224 4.819-1.908 2.008-3.113 3.614-4.217 5.823-1.707 3.414-2.41 7.228-2.209 11.144 0.201 1.807 0.301 2.409 0.301 1.104 0.101-1.908 0.502-4.518 1.305-6.727 0.904-2.711 2.309-5.421 4.217-7.73 0.903-1.205 3.112-3.313 4.417-4.417 2.008-1.607 5.221-3.615 7.731-4.92 0.803-0.401 1.205-0.501 1.606-0.501 0.803-0.101 1.104 0 1.104 0.501 0 0.502-0.301 0.703-2.108 1.606-3.213 1.707-5.221 2.912-7.028 4.417-1.406 1.205-3.916 3.615-4.92 5.02-2.811 3.413-4.417 7.027-4.919 10.842-0.201 1.306-0.301 4.819-0.201 4.72 0 0 0.101-0.604 0.201-1.306 0.502-4.618 2.208-8.534 5.12-12.047 1.305-1.606 4.016-4.317 5.622-5.421 0.903-0.703 1.907-1.004 2.309-0.703 0.502 0.501 0.201 1.205-1.104 2.208-3.514 2.61-5.622 4.719-7.429 7.429-1.305 2.108-2.51 4.72-3.012 7.028-0.301 1.204-0.703 4.518-0.603 4.316 0 0 0.201-0.502 0.301-1.204 0.703-3.013 2.209-6.124 4.317-8.936 1.205-1.606 4.016-4.316 4.919-4.718 0.502-0.201 1.104-0.201 1.305 0.101 0.502 0.603 0.301 0.803-1.707 2.51-3.112 2.811-4.819 4.718-6.225 7.53-1.004 1.807-1.807 4.417-1.707 5.622 0 0.4 0 0.301 0.201-0.401 0.803-2.812 2.008-4.72 4.216-6.827 1.205-1.205 2.108-1.908 5.221-4.217 3.313-2.509 4.518-3.514 7.329-6.023 0.904-0.903 1.405-1.104 1.907-1.205 0.402 0 0.703 0.302 0.703 0.703 0 0.703-1.004 1.707-3.814 4.116-1.808 1.506-2.51 2.008-5.321 4.016-3.815 2.71-5.823 4.417-7.33 6.325-0.803 1.003-1.606 2.609-1.907 3.714-0.201 1.004-0.201 1.506 0.101 0.803 0.703-2.107 3.112-4.316 8.132-7.529 3.514-2.208 5.823-3.814 6.927-4.618 1.406-1.004 2.208-1.204 2.51-0.501 0.502 0.903-1.506 2.408-9.337 7.127-3.212 1.908-5.521 3.614-6.525 4.819-0.502 0.702-1.004 1.707-1.004 2.209-0.101 0.401 0 0.603 0.201 0.903 0.402 0.502 0.402 0.603 0.101 0.603-0.1 0.01-0.602-0.3-1.003-0.6zm6.927 0.51c-0.101 0-0.301-0.201-0.402-0.301-0.201-0.502 0.301-1.005 1.406-1.406 1.104-0.301 1.707-0.2 1.707 0.502-0.001 0.594-1.707 1.304-2.711 1.204zm9.236-0.707c-0.302-0.401 0.201-1.104 1.305-1.605 0.703-0.302 1.205-0.402 1.406-0.102 0.301 0.402-0.201 1.205-1.205 1.707-0.703 0.297-1.305 0.297-1.506 0zm-9.036-4.015c-0.301-0.401 0-0.903 1.104-1.305 1.205-0.603 2.008-0.502 2.008 0.2 0 0.603-1.205 1.306-2.309 1.306-0.602 0.1-0.602 0.1-0.803-0.201zm37.147-0.402c-0.201-0.101-0.502-0.301-0.603-0.502-0.201-0.302-0.201-0.302-0.201-11.043 0-10.241 0-10.843 0.201-11.144 0.301-0.402 0.603-0.603 1.205-0.603 0.603 0 1.004 0.201 1.306 0.703 0.1 0.1 1.707 3.513 3.614 7.529 1.907 4.116 3.413 7.127 3.513 7.027 0 0 1.606-3.312 3.414-7.328 2.61-5.421 3.615-7.329 3.815-7.529 0.602-0.603 1.707-0.502 2.108 0.201 0.201 0.301 0.301 0.501 0.301 11.043 0 10.039-0.101 10.842-0.201 11.144-0.301 0.401-1.004 0.702-1.406 0.603-0.401-0.101-0.903-0.503-1.003-0.904-0.101-0.301-0.101-3.112-0.101-8.132l-0.101-7.83-2.71 6.023c-1.606 3.213-2.912 6.023-3.012 6.225-0.401 0.602-1.405 0.903-2.108 0.4-0.2-0.2-0.602-1.003-3.212-6.424l-2.911-6.125v7.931c-0.101 7.329-0.101 7.931-0.301 8.232-0.402 0.604-1.105 0.804-1.607 0.503zm24.195 0c-0.803-0.402-0.803 0-0.702-8.032 0-6.926 0-7.127 0.2-7.429 0.402-0.803 1.706-0.803 2.209 0 0.2 0.302 0.301 0.502 0.301 7.429 0 8.133 0 7.63-0.804 8.032-0.501 0.201-0.701 0.201-1.204 0zm7.63 0c-0.201-0.201-0.503-0.402-0.602-0.603-0.202-0.301-0.202-0.602-0.202-6.225-0.099-4.417-0.099-6.124-0.2-6.224s-0.402-0.402-0.704-0.703c-0.602-0.502-0.802-0.904-0.501-1.506 0.501-1.104 2.408-0.803 3.312 0.502l0.402 0.502 0.402-0.502c0.603-0.401 1.506-0.904 2.409-1.104 1.003-0.301 3.112-0.301 4.016 0 1.706 0.603 2.812 1.908 3.012 4.016 0.101 0.401 0.101 3.011 0.101 5.722 0.1 5.521 0 5.521-0.503 5.923-0.603 0.502-1.506 0.401-1.908-0.201l-0.301-0.401v-5.32c-0.1-5.221-0.1-5.421-0.301-5.823-0.302-0.603-0.702-1.004-1.104-1.205-1.708-0.703-4.117-0.101-5.12 1.305l-0.202 0.401v5.321c0 5.923 0 5.722-0.802 6.124-0.502 0.202-0.702 0.202-1.204 0.001zm19.879 0c-2.209-0.301-3.714-1.506-4.316-3.715-0.1-0.702-0.2-1.205-0.2-3.413-0.101-2.61 0-3.916 0.301-5.02 0.703-2.71 2.711-4.116 5.623-3.916 1.004 0 2.209 0.401 2.811 0.803 0.302 0.101 0.502 0.301 0.502 0.301s0.101-1.506 0.101-3.313c0-3.615 0-3.916 0.603-4.217 0.603-0.401 1.606-0.201 2.007 0.401 0.101 0.201 0.101 2.108 0.202 9.638 0 10.541-0.102 9.738 0.701 10.34 0.604 0.401 0.703 0.502 0.703 1.004 0 0.804-0.903 1.405-1.807 1.205-0.603-0.201-1.306-0.603-1.606-1.004l-0.302-0.301-0.501 0.301c-0.603 0.401-1.708 0.803-2.611 0.903-0.78 0.204-1.19 0.204-2.19 0.003zm3.41-2.711c0.402-0.2 0.804-0.502 1.004-0.603l0.402-0.301v-8.633l-0.402-0.401c-0.2-0.1-0.703-0.402-1.004-0.603-1.807-0.803-3.614-0.502-4.518 0.803-0.501 0.904-0.602 1.205-0.602 4.216-0.102 2.911 0 3.715 0.401 4.518 0.4 0.603 0.603 0.804 1.304 1.104 0.504 0.2 0.704 0.302 1.708 0.2 0.91 0.001 1.11 0.001 1.71-0.3zm21.39 2.711c-0.2-0.101-0.502-0.402-0.603-0.502l-0.2-0.401v-5.622c0-6.626 0-6.526-0.903-7.128-0.503-0.402-0.603-0.603-0.603-1.104 0-1.506 2.409-1.506 3.414 0 0.199 0.301 0.399 0.502 0.399 0.603 0 0 0.302-0.201 0.704-0.502 1.104-1.104 2.409-1.505 4.216-1.405 1.306 0.101 2.109 0.502 2.209 1.205 0.101 0.501-0.1 1.004-0.502 1.405-0.401 0.302-0.401 0.302-1.004 0.201-0.402-0.101-1.205-0.101-1.706-0.101-1.406 0-1.908 0.201-2.611 1.004-0.903 0.904-0.802 0.904-0.802 6.425 0 3.916-0.102 4.92-0.202 5.221-0.32 0.701-1.22 1.002-1.82 0.701zm14.45 0.101c-2.508-0.401-4.216-1.908-4.919-4.418-0.2-0.603-0.2-1.104-0.2-3.715v-3.012l0.301-0.903c0.803-2.309 2.209-3.614 4.418-4.016 0.803-0.201 2.609-0.101 3.414 0.1 2.811 0.803 4.216 3.012 4.216 6.826 0 1.004-0.2 1.606-0.502 1.707-0.201 0.101-1.707 0.201-4.617 0.201-4.017 0-4.52 0-4.52 0.101-0.099 0.301 0.102 2.007 0.402 2.61 0.301 0.903 0.803 1.404 1.506 1.807 0.703 0.302 0.703 0.302 1.807 0.302 1.306 0 2.209-0.201 3.312-0.704 0.303-0.1 0.703-0.2 0.905-0.2 0.803 0 1.304 1.004 0.903 1.707-0.301 0.702-2.209 1.305-4.218 1.506-1.1 0.201-1.4 0.201-2.21 0.101zm4.52-9.939c0-0.702-0.301-2.007-0.503-2.409-0.301-0.501-0.802-1.004-1.404-1.305-0.402-0.201-0.703-0.201-1.506-0.201-0.903 0-1.105 0-1.606 0.301-0.603 0.302-1.104 0.804-1.506 1.607-0.2 0.501-0.402 1.606-0.402 2.208v0.301h6.928v-0.502zm10.64 9.838c-1.605-0.201-3.012-1.004-3.814-2.309-1.004-1.507-1.306-2.912-1.204-6.225 0-2.41 0.2-3.213 0.803-4.417 0.401-0.903 1.606-2.108 2.51-2.51 1.706-0.903 4.216-0.803 5.924 0 1.404 0.603 2.409 1.908 2.811 3.514 0.1 0.402 0.2 1.205 0.2 2.41l0.102 1.706-0.302 0.302-0.301 0.401h-9.037l0.102 0.903c0.099 1.606 0.501 2.61 1.404 3.313 0.603 0.501 1.105 0.603 2.409 0.603 1.105 0 2.009-0.201 3.112-0.704 0.805-0.301 1.105-0.301 1.506 0 0.703 0.503 0.703 1.406 0 1.908-0.701 0.502-2.209 1.004-3.814 1.104-1.2 0.202-1.5 0.202-2.41 0.001zm4.52-10.34c-0.101-1.707-0.603-2.61-1.606-3.112-0.502-0.301-0.703-0.301-1.606-0.301-1.205 0-1.706 0.201-2.409 0.803-0.703 0.703-1.104 1.907-1.104 3.011v0.603h6.826l-0.09-1.004zm-41.66 10.139c-2.109-0.301-3.313-1.405-3.916-3.514-0.2-0.803-0.2-1.004-0.2-5.321l-0.102-4.417h-0.703c-0.802 0-1.204-0.2-1.506-0.501-0.199-0.301-0.301-0.903-0.099-1.305 0.2-0.502 0.603-0.603 1.506-0.603h0.903v-1.908c0-1.606 0-1.807 0.2-2.108 0.301-0.602 1.105-0.803 1.707-0.501 0.702 0.301 0.702 0.602 0.702 2.61l0.101 1.908h4.016l0.302 0.201c0.501 0.402 0.602 0.904 0.401 1.406-0.301 0.703-0.503 0.703-2.811 0.703l-1.908 0.1v3.614c0 4.818 0.102 5.722 0.703 6.426 0.502 0.502 1.005 0.702 2.209 0.702 0.603 0.101 1.205 0.201 1.304 0.201 0.402 0.301 0.703 0.602 0.703 1.204 0 0.502-0.301 0.903-0.802 1.104-0.39 0.2-1.9 0.2-2.7-0.001zm-94.776-10.942c-0.301-0.101-0.402-0.401-0.301-0.803 0.201-0.703 1.205-1.506 1.807-1.606 1.004-0.1 1.004 0.804 0.101 1.807-0.402 0.401-1.004 0.803-1.305 0.702 0-0.001-0.201-0.001-0.302-0.1zm2.711-3.313c-0.301-0.301-0.101-1.104 0.401-1.406 0.603-0.502 1.305-0.1 1.104 0.603-0.201 0.502-0.703 1.004-1.104 1.004-0.2 0-0.401-0.101-0.401-0.201zm-12.248-0.703c-0.201-0.302-0.201-0.302 0-0.703 0.703-1.305 3.012-2.008 3.012-0.903 0 0.401-0.402 0.803-0.903 1.205-0.904 0.702-1.808 0.903-2.109 0.401zm3.714-2.209c-0.1 0-0.1-0.201-0.1-0.402 0-0.803 1.606-1.405 1.707-0.703 0.1 0.703-1.004 1.407-1.607 1.105zm6.024-0.602c-0.201-0.1-0.201-0.703 0.101-1.205s0.401-0.603 0.903-0.803c0.402-0.301 0.703-0.301 0.904-0.101 0.602 0.703-1.105 2.611-1.908 2.109zm49.596-1.707c-0.803-0.402-1.104-1.606-0.603-2.209 0.501-0.702 1.506-1.003 2.108-0.602 0.802 0.401 1.104 1.405 0.703 2.209-0.402 0.803-1.406 1.104-2.208 0.602zm-47.588-1.305c-0.201-0.201-0.201-0.502 0-0.904 0.301-0.502 0.603-0.702 1.004-0.702 0.603 0 0.301 1.205-0.401 1.606-0.302 0.201-0.402 0.201-0.603 0zm-9.939-0.201c-0.201-0.301-0.101-0.703 0.603-1.305 0.703-0.703 1.907-1.104 2.309-0.703 0.502 0.502-0.2 1.405-1.505 2.008-0.704 0.302-1.206 0.302-1.407 0zm3.915-2.209c-0.402-0.301 0.1-1.004 1.004-1.405 0.703-0.401 1.606-0.301 1.606 0.201 0 0.301-0.501 0.803-1.004 1.004-0.501 0.301-1.405 0.401-1.606 0.2zm3.916-1.606c-0.703-0.301-0.201-1.104 0.803-1.406 0.402-0.101 0.502-0.101 0.703 0.101 0.301 0.201 0.301 0.301 0 0.703s-1.105 0.703-1.506 0.602zm-17.168-2.811c-0.502-0.401 0.401-1.405 1.405-1.606 1.205-0.201 1.104 0.903-0.1 1.506-0.502 0.301-1.104 0.301-1.305 0.1zm16.666-0.803c-0.201-0.101-0.201-0.201 0-0.402 0.201-0.401 0.804-0.703 1.506-0.703 0.703 0 0.904 0.201 0.803 0.603-0.201 0.703-1.908 1.004-2.309 0.502zm-13.554-0.904c-0.201-0.1-0.201-0.201-0.1-0.401 0.1-0.401 0.702-0.703 1.305-0.603 0.301 0 0.401 0 0.401 0.301 0.101 0.301-0.201 0.502-0.702 0.703-0.502 0.201-0.703 0.201-0.904 0zm6.928-0.2c-0.502-0.602 0.401-1.205 1.606-1.305 0.602-0.101 0.703 0 0.903 0.101 0.201 0.201 0.201 0.301 0 0.502-0.201 0.401-0.903 0.803-1.707 0.803-0.501 0.099-0.602-0.001-0.802-0.101z" fill="#A4A3A6"/>
	<path d="m17.594 103.3c-0.201-0.201-0.201-0.502 0.201-0.804 0.302-0.301 1.305-0.301 1.406-0.1 0.201 0.2 0.101 0.603-0.201 0.803-0.301 0.2-1.205 0.3-1.406 0.1zm7.731-0.1c-0.703-0.502 0.301-1.305 1.406-1.305 0.401-0.102 0.803 0.301 0.703 0.602-0.101 0.302-0.401 0.503-1.004 0.703s-0.804 0.2-1.105 0zm-3.915-1.11c-0.302-0.303-0.302-0.402 0.1-0.804 0.603-0.603 2.008-0.903 2.31-0.502 0.2 0.301-0.101 0.702-0.804 1.003-0.804 0.5-1.406 0.5-1.606 0.3zm7.529-0.4c-0.101-0.101-0.201-0.302-0.201-0.401 0-0.301 0.401-0.703 1.406-1.306 5.622-3.312 9.036-8.634 9.638-14.657 0.201-1.305 0.201-3.112 0.101-3.213-0.101 0-0.201 0.402-0.201 0.904-0.301 2.208-1.104 4.718-2.108 6.625-0.602 1.004-1.506 2.511-2.409 3.514-1.004 1.306-3.213 3.414-3.916 3.916-1.104 0.702-1.907 0.702-1.907 0.1 0-0.4 0.401-1.003 1.707-2.107 4.216-3.615 6.927-8.031 7.63-12.549 0.201-1.506 0-5.22-0.301-5.421 0 0-0.1 0.402-0.1 1.104 0 3.815-1.506 7.931-4.417 11.444-1.405 1.807-3.815 4.016-6.124 5.623-2.41 1.706-6.023 3.613-6.928 3.714-0.602 0.101-0.803-0.101-0.803-0.502 0-0.502 0.301-0.803 2.008-1.706 2.108-1.005 3.614-1.908 5.02-2.912 6.727-4.818 10.642-11.444 10.14-17.167 0-1.205-0.301-2.41-0.602-2.912-0.101-0.201-0.101 0-0.101 1.406 0.101 1.707 0 2.911-0.301 4.116-0.803 3.112-2.309 5.723-4.819 8.433-1.305 1.306-2.51 2.31-3.815 3.313-2.008 1.405-5.02 3.112-6.023 3.413-0.803 0.201-1.405-0.201-1.104-0.903 0.1-0.301 0.1-0.402 2.108-1.506 5.823-3.213 9.638-6.727 11.345-10.24 1.004-2.108 1.506-4.016 1.506-6.225s-0.401-3.614-1.205-5.22c-0.301-0.703-1.104-1.908-1.405-2.108-0.201-0.201-0.201-0.402 0-0.502 0.2 0 1.606 1.205 2.71 2.41 3.112 3.212 5.02 7.329 5.521 11.646 0.703 7.63-2.71 14.657-8.935 18.874-2.011 1.3-2.613 1.5-3.115 1zm-16.465-0.2c-0.201-0.101-0.201-0.501 0.101-0.702 0.301-0.302 1.205-0.503 1.505-0.401 0.804 0.301 0 1.204-1.004 1.204-0.2 0-0.501 0-0.602-0.1zm-2.911-1.1c-0.904-0.604-2.41-1.908-3.213-2.812-2.711-3.012-4.417-6.425-5.12-10.341-0.201-1.104-0.201-1.807-0.201-3.312 0-2.208 0.101-3.012 0.603-4.919 0.401-1.506 1.004-3.012 1.606-4.217 1.707-3.313 4.719-6.525 6.124-6.626 0.502-0.101 0.803 0.101 0.803 0.502 0 0.201-0.301 0.502-1.606 1.807-2.008 1.908-3.012 3.414-4.116 5.522-1.807 3.514-2.41 6.927-1.907 10.742 0.201 1.104 0.401 2.209 0.401 1.808 0.201-3.614 0.401-5.12 1.305-7.63 1.104-3.413 2.912-6.325 5.622-9.035 1.506-1.506 2.51-2.309 4.317-3.514 2.51-1.707 3.815-2.309 4.317-1.807 0.402 0.502 0 0.904-1.606 2.008-3.212 1.907-5.522 3.915-7.429 6.124-4.016 4.618-5.823 10.14-5.321 16.163 0.201 1.606 0.301 2.108 0.301 1.004 0.101-0.903 0.301-3.012 0.502-4.217 0.803-3.714 2.41-7.228 4.719-10.139 0.904-1.104 2.912-3.213 4.116-4.217 2.41-2.008 5.723-4.217 8.534-5.522 1.506-0.703 2.51-0.703 2.51 0 0 0.402-0.502 0.804-2.51 1.808-4.518 2.41-6.325 3.714-9.237 6.626-1.907 1.907-2.71 2.811-3.814 4.618-1.908 2.71-3.012 5.521-3.414 8.634-0.201 1.104-0.301 5.32-0.201 5.12 0 0 0.101-0.603 0.201-1.305 0.602-5.623 2.811-10.14 7.028-14.357 3.112-3.112 5.12-4.518 5.823-4.016 0.502 0.201 0.502 0.803 0 1.305-0.101 0.201-1.004 0.903-1.908 1.606-5.02 3.815-8.132 8.333-9.437 13.453-0.401 1.707-0.803 4.92-0.603 4.719 0.101 0 0.201-0.201 0.201-0.301 0-0.503 0.602-2.912 1.104-4.116 1.506-3.815 4.417-7.63 7.53-10.04 0.903-0.603 1.506-0.803 1.907-0.502 0.201 0.101 0.301 0.201 0.301 0.502 0 0.502-0.201 0.703-2.309 2.51-3.414 2.911-5.622 5.822-6.827 9.236-0.502 1.305-1.004 4.016-0.803 4.016 0.101 0 0.201-0.302 0.201-0.603 0.402-1.606 1.305-3.515 2.41-4.92 1.305-1.907 2.61-3.112 7.229-6.525 2.912-2.208 5.02-3.915 6.827-5.521 1.506-1.405 2.209-1.807 2.711-1.405 0.301 0.201 0.301 0.703 0 1.205-0.603 1.004-4.417 4.217-8.434 7.127-1.505 1.004-3.212 2.31-3.915 2.812-1.506 1.204-3.112 2.811-3.916 4.016-1.104 1.405-2.008 3.614-1.908 4.518 0 0.301 0 0.201 0.201-0.301 0.501-1.305 1.907-2.912 3.915-4.417 1.104-0.904 3.012-2.209 5.923-4.016 2.108-1.406 4.317-2.912 5.221-3.515 0.903-0.803 1.205-0.903 1.807-0.903 0.703-0.101 1.004 0.401 0.502 1.104-0.402 0.803-3.012 2.61-7.53 5.221-4.719 2.811-5.923 3.714-7.529 5.221-1.506 1.605-2.008 3.011-1.406 3.814 0.502 0.7 0.301 0.7-0.602 0.2zm6.425 0.09c-0.201-0.201-0.201-0.602 0.1-0.803 0.301-0.302 0.803-0.503 1.506-0.703 0.804-0.2 1.205-0.101 1.205 0.302 0.101 0.401-0.1 0.603-0.803 1.003-0.703 0.31-1.807 0.51-2.008 0.2zm9.537-0.4c-0.402-0.401 0.101-1.104 1.205-1.706 0.903-0.402 1.506-0.302 1.506 0.301 0 0.706-2.309 1.915-2.711 1.405zm-9.035-4.012c-0.201-0.101-0.201-0.603 0-0.803 0.502-0.603 2.41-1.205 2.812-0.804 0.301 0.201 0.201 0.603-0.301 1.004-0.603 0.603-2.21 1.005-2.511 0.603zm36.644-0.802l-0.301-0.402v-21.786l0.301-0.401c0.402-0.301 0.502-0.301 1.004-0.301 0.803 0 1.004 0.1 1.707 1.506 0.301 0.703 1.908 4.016 3.514 7.429 1.707 3.514 3.012 6.324 3.112 6.324 0 0 1.707-3.312 3.614-7.429 3.916-8.232 3.715-7.931 4.618-7.831 0.603 0 1.104 0.201 1.305 0.703s0.201 21.284 0 21.785c-0.201 0.402-0.703 0.703-1.205 0.703-0.402 0-0.502 0-0.903-0.301l-0.3-0.402v-8.132c0-4.417-0.101-8.131-0.101-8.031 0 0-1.406 2.811-2.912 6.225-1.606 3.312-3.012 6.225-3.212 6.425-0.402 0.401-1.305 0.502-1.808 0-0.2-0.2-1.104-2.008-3.212-6.425-1.606-3.414-2.911-6.124-3.012-6.124 0 0-0.101 3.514-0.101 7.931 0 6.325 0 8.031-0.1 8.232-0.201 0.401-0.703 0.603-1.105 0.603-0.4-0.001-0.501-0.001-0.903-0.301zm24.498 0.099c-0.704-0.301-0.603-0.1-0.603-7.831 0-7.629-0.101-7.328 0.501-7.73 0.402-0.301 1.205-0.301 1.606 0 0.603 0.402 0.603 0.301 0.603 7.73 0 7.731 0 7.53-0.703 7.831-0.2 0.201-0.501 0.201-0.704 0.201-0.199 0-0.5 0-0.7-0.201zm7.629 0.101c-0.703-0.401-0.603-0.302-0.603-6.525 0-6.224-0.101-6.425-0.703-6.927-0.703-0.502-0.802-0.703-0.802-1.205 0-1.004 1.205-1.405 2.408-0.803 0.402 0.201 1.205 1.004 1.205 1.205s0 0.201 0.402-0.201c0.501-0.401 1.204-0.803 2.007-1.104 0.602-0.201 0.903-0.301 2.109-0.301 0.903-0.101 1.605 0 2.007 0 1.306 0.301 2.409 1.104 2.912 2.309 0.502 1.104 0.603 1.506 0.502 7.429 0 4.217 0 5.521-0.102 5.622-0.2 0.401-0.701 0.603-1.204 0.603-0.402 0-0.502 0-0.803-0.301l-0.402-0.302-0.101-5.421c0-5.221 0-5.321-0.2-5.923-0.501-1.104-1.506-1.606-3.012-1.506-1.406 0.101-2.61 0.603-3.213 1.506l-0.302 0.402v5.221c0 5.822 0 5.822-0.703 6.123-0.398 0.3-1 0.3-1.402 0.099zm19.479 0c-0.903-0.2-1.708-0.603-2.31-1.104-0.603-0.604-1.003-1.206-1.304-2.209-0.302-0.804-0.302-0.904-0.302-3.916-0.101-2.51 0-3.312 0.1-4.016 0.402-2.409 1.707-4.016 3.615-4.518 0.803-0.201 2.609-0.201 3.414 0 0.301 0.1 0.903 0.301 1.304 0.502s0.703 0.402 0.804 0.402c0 0.101 0.102-1.506 0.102-3.414 0-3.212 0-3.414 0.199-3.715 0.302-0.602 1.104-0.803 1.706-0.501 0.603 0.301 0.603-0.301 0.703 10.039 0 9.236 0 9.336 0.2 9.838 0.202 0.301 0.402 0.502 0.704 0.703 0.503 0.301 0.602 0.702 0.401 1.305-0.201 1.104-2.107 1.004-3.112-0.101l-0.402-0.502-0.501 0.402c-1.105 0.603-2.009 0.903-3.413 0.903-0.9 0.002-1.5 0.002-1.9-0.098zm3.61-2.409c0.302-0.201 0.805-0.401 1.105-0.703l0.704-0.301v-8.734l-0.402-0.301c-0.202-0.2-0.703-0.502-1.105-0.703-0.803-0.401-0.803-0.401-1.807-0.401-0.903 0-1.205 0-1.607 0.2-0.802 0.402-1.304 1.104-1.604 2.209-0.202 0.804-0.301 4.217-0.202 5.723 0.202 1.907 0.805 2.71 2.311 3.111 0.69 0.2 1.9 0.101 2.6-0.1zm21.59 2.409c-0.2-0.101-0.4-0.302-0.501-0.603-0.2-0.401-0.2-0.603-0.2-6.124 0-6.626 0-6.324-0.903-6.927-0.503-0.401-0.703-0.703-0.603-1.205 0.2-1.004 1.706-1.205 2.71-0.402 0.402 0.201 0.903 0.904 1.104 1.305 0 0 0.202-0.1 0.402-0.301 0.502-0.602 1.406-1.205 2.311-1.506 0.501-0.1 0.903-0.201 1.905-0.1 1.105 0 1.407 0 1.708 0.2 1.104 0.603 1.005 2.109-0.301 2.51-0.102 0-0.504 0-1.005-0.101-2.107-0.401-3.715 0.301-4.418 1.908-0.2 0.602-0.2 0.703-0.2 5.722l-0.101 5.12-0.4 0.302c-0.301 0.301-0.402 0.301-0.805 0.301-0.2 0.001-0.5 0.001-0.7-0.099zm13.95 0c-2.107-0.502-3.613-2.008-4.316-4.316-0.2-0.703-0.2-1.005-0.2-3.515 0-2.609 0-2.911 0.2-3.613 0.703-2.309 2.209-3.815 4.218-4.317 1.506-0.401 3.813-0.1 5.019 0.502 0.703 0.402 1.606 1.406 2.009 2.209 0.501 1.004 0.703 1.606 0.703 3.614l0.099 1.706-0.301 0.302-0.2 0.301h-4.517l-4.52 0.101v0.603c0 1.807 0.703 3.312 1.908 3.915 0.501 0.302 0.602 0.302 1.907 0.302 1.405 0 2.008-0.102 3.414-0.704 0.903-0.4 1.404-0.1 1.706 0.704 0.201 0.803-0.4 1.305-1.908 1.807-1.51 0.499-3.91 0.7-5.22 0.399zm5.02-10.24c0-1.305-0.301-2.008-0.903-2.61-1.104-1.205-3.613-1.205-4.719 0-0.803 0.602-1.205 1.907-1.205 3.112v0.603h6.928l-0.09-1.105zm10.24 10.24c-2.107-0.502-3.613-2.008-4.216-4.217-0.301-0.903-0.301-5.622-0.101-6.826 0.501-2.41 2.007-4.116 4.216-4.719 0.805-0.201 2.812-0.201 3.615 0 1.104 0.301 2.007 0.803 2.609 1.506 1.205 1.205 1.606 2.51 1.606 4.919v1.606l-0.301 0.302-0.301 0.301-4.418 0.101h-4.518v0.804c0.102 1.907 0.703 3.111 1.908 3.714 0.501 0.302 0.703 0.302 1.706 0.302 1.204 0.1 2.009-0.102 3.313-0.603 0.904-0.302 1.003-0.302 1.305-0.201 0.602 0.201 0.903 1.004 0.602 1.606-0.2 0.401-1.404 1.004-2.811 1.305-1.01 0.2-3.41 0.301-4.22 0.1zm5.12-9.537c0.1-0.603-0.101-2.008-0.401-2.51-0.402-1.004-1.205-1.506-2.409-1.606-2.209-0.301-3.715 0.904-4.016 3.313-0.102 0.501-0.102 0.903-0.102 1.003 0 0.101 0.502 0.101 3.515 0.101h3.413v-0.301zm-42.37 9.235c-1.003-0.2-1.506-0.501-2.108-1.104-0.501-0.603-0.802-1.104-1.002-2.008-0.402-1.104-0.402-2.31-0.402-6.325v-3.714h-0.903c-1.105 0-1.506-0.301-1.506-1.205-0.101-0.803 0.501-1.104 1.604-1.104h0.805v-1.807c0-1.907 0-2.209 0.603-2.51 0.401-0.301 1.104-0.301 1.505 0 0.502 0.301 0.603 0.703 0.603 2.51v1.707l2.009 0.1c2.207 0 2.409 0.1 2.609 0.603 0.301 0.502 0.2 0.903-0.2 1.305l-0.301 0.401h-4.217l0.101 4.417c0 3.915 0 4.518 0.2 4.818 0.402 1.205 1.206 1.707 2.712 1.707 1.205 0.101 1.605 0.2 1.807 0.702 0.2 0.503 0.1 1.005-0.301 1.406l-0.301 0.401-1.306-0.101c-0.98 0.002-1.48 0.002-1.99-0.199zm-94.266-10.842c-0.101 0-0.101-0.301-0.101-0.502 0-0.903 1.707-2.208 2.209-1.707 0.402 0.302-0.101 1.506-0.904 2.008-0.401 0.401-1.003 0.502-1.204 0.201zm2.811-3.212c-0.301-0.401 0-1.205 0.602-1.506 0.903-0.502 1.205 0.501 0.402 1.305-0.402 0.402-0.703 0.402-1.004 0.201zm-12.047-0.603c-0.201 0-0.201-0.1-0.201-0.402 0-1.003 2.108-2.208 2.811-1.706 0.502 0.501-0.401 1.706-1.606 2.108-0.503 0.201-0.703 0.201-1.004 0zm3.513-2.409c-0.401-0.201 0.101-1.004 0.804-1.205 0.301-0.101 0.401-0.101 0.602 0 0.301 0.201 0.301 0.301 0.101 0.703-0.101 0.101-0.302 0.301-0.603 0.502-0.502 0.201-0.603 0.201-0.904 0zm6.024-0.602c-0.402-0.402 0.201-1.506 1.104-2.008 0.803-0.401 1.104 0.201 0.602 1.104-0.501 0.804-1.405 1.305-1.706 0.904zm49.596-1.607c-1.004-0.703-1.004-2.209 0.101-2.811 0.4-0.201 0.903-0.201 1.405 0.1 0.602 0.201 0.802 0.603 0.802 1.205 0.101 0.703-0.2 1.104-0.702 1.506-0.402 0.201-1.204 0.201-1.606 0zm-57.326-1.305c-0.502-0.201-0.201-1.004 0.402-1.506 0.803-0.703 2.108-1.004 2.409-0.502 0.401 0.703-1.908 2.309-2.811 2.008zm9.738 0c-0.1-0.201 0-0.703 0.201-1.104 0.401-0.602 1.104-0.703 1.104-0.101 0.101 0.301-0.301 0.904-0.603 1.104-0.2 0.202-0.602 0.202-0.702 0.101zm-6.024-2.41c-0.301-0.101-0.201-0.502 0.201-1.004 0.703-0.602 1.908-0.903 2.208-0.401 0.201 0.201 0.101 0.502-0.401 0.903-0.602 0.502-1.506 0.804-2.008 0.502zm3.815-1.806c-0.502-0.502 0.703-1.306 1.506-1.104 0.502 0.1 0.201 0.903-0.502 1.104-0.401 0.2-0.903 0.2-1.004 0zm-17.067-2.611c-0.502-0.301 0.2-1.205 1.204-1.505 0.502-0.201 0.603-0.201 0.804 0 0.401 0.201 0.301 0.501-0.201 1.004-0.602 0.501-1.406 0.802-1.807 0.501zm16.766-0.703c-0.201-0.1-0.201-0.401-0.101-0.602 0.301-0.502 1.807-0.703 2.108-0.402 0.201 0.101 0.201 0.502 0 0.703-0.501 0.402-1.605 0.602-2.007 0.301zm-13.754-1.104c-0.101-0.402 0.602-1.004 1.205-0.904 0.401 0 0.602 0.101 0.501 0.401-0.1 0.503-1.505 0.905-1.706 0.503zm7.128-0.1c-0.2-0.101-0.2-0.602 0.101-0.803 0.301-0.301 1.205-0.502 1.606-0.502 0.502 0 0.803 0.101 0.803 0.402 0 0.401-0.402 0.703-1.205 0.903-0.702 0.2-1.004 0.2-1.305 0z" fill="#E05056"/>
	<path d="m17.594 103.3c-0.201-0.201-0.201-0.502 0.201-0.804 0.302-0.301 1.305-0.301 1.406-0.1 0.201 0.2 0.101 0.603-0.201 0.803-0.301 0.2-1.205 0.3-1.406 0.1zm7.731-0.1c-0.703-0.502 0.301-1.305 1.406-1.305 0.401-0.102 0.803 0.301 0.703 0.602-0.101 0.302-0.401 0.503-1.004 0.703s-0.804 0.2-1.105 0zm-3.915-1.11c-0.302-0.303-0.302-0.402 0.1-0.804 0.603-0.603 2.008-0.903 2.31-0.502 0.2 0.301-0.101 0.702-0.804 1.003-0.804 0.5-1.406 0.5-1.606 0.3zm7.529-0.4c-0.101-0.101-0.201-0.302-0.201-0.401 0-0.301 0.401-0.703 1.406-1.306 5.622-3.312 9.036-8.634 9.638-14.657 0.201-1.305 0.201-3.112 0.101-3.213-0.101 0-0.201 0.402-0.201 0.904-0.301 2.208-1.104 4.718-2.108 6.625-0.602 1.004-1.506 2.511-2.409 3.514-1.004 1.306-3.213 3.414-3.916 3.916-1.104 0.702-1.907 0.702-1.907 0.1 0-0.4 0.401-1.003 1.707-2.107 2.811-2.409 5.12-5.422 6.425-8.333 0.903-2.309 1.305-3.915 1.305-6.425 0-2.309 0-2.108 0.201-2.108 0.201-0.101 0.402-0.201 0.602-0.402l0.302-0.301 0.1 0.301c0.803 1.406 1.205 5.723 1.004 8.233-0.702 6.124-3.915 11.244-8.935 14.657-2.01 1.3-2.612 1.5-3.114 1zm-16.465-0.2c-0.201-0.101-0.201-0.501 0.101-0.702 0.301-0.302 1.205-0.503 1.505-0.401 0.804 0.301 0 1.204-1.004 1.204-0.2 0-0.501 0-0.602-0.1zm-2.911-1.1c-0.904-0.604-2.41-1.908-3.213-2.812-2.711-3.012-4.417-6.425-5.12-10.341-0.201-1.104-0.201-1.807-0.201-3.312 0-2.208 0.101-3.012 0.603-4.919 0.401-1.506 1.004-3.012 1.606-4.217 1.707-3.313 4.719-6.525 6.124-6.626 0.502-0.101 0.803 0.101 0.803 0.502 0 0.201-0.301 0.502-1.606 1.807-2.008 1.908-3.012 3.414-4.116 5.522-1.807 3.514-2.41 6.927-1.907 10.742 0.201 1.104 0.401 2.209 0.401 1.808 0.101-1.808 0.201-2.51 0.301-3.213 0.301-3.112 1.405-6.224 3.012-8.935 1.204-2.008 3.714-4.919 5.822-6.526 2.008-1.606 5.121-3.413 5.823-3.514 0.803 0 0.903 0.803 0.201 1.405-0.201 0.101-0.703 0.502-1.205 0.804-7.328 4.413-11.445 10.135-12.549 16.961-0.201 1.507-0.301 3.716-0.201 5.321 0.201 1.606 0.301 2.108 0.301 1.004 0.101-0.903 0.301-3.012 0.502-4.217 0.703-3.012 1.908-5.922 3.614-8.533 2.309-3.514 5.723-6.727 9.739-9.136 1.807-1.004 1.707-1.004 1.807-0.703 0 0.1 0.1 0.301 0.1 0.502 0 0.1 0.101 0.301 0.101 0.502 0.101 0.201 0.101 0.201-1.606 1.405-2.41 1.506-3.614 2.51-5.623 4.518-1.907 1.907-2.71 2.811-3.814 4.618-1.908 2.71-3.012 5.521-3.414 8.634-0.201 1.104-0.301 5.32-0.201 5.12 0 0 0.101-0.603 0.201-1.305 0.602-5.623 2.811-10.14 7.028-14.357 3.112-3.112 5.02-4.417 5.823-4.016 0.401 0.201 0.401 0.703 0.1 1.205-0.1 0.101-1.004 0.904-2.008 1.707-6.325 4.92-9.537 10.441-10.04 17.368-0.1 0.703-0.1 0.904 0 0.804 0.101 0 0.201-0.201 0.201-0.301 0-0.503 0.602-2.912 1.104-4.116 1.506-3.815 4.417-7.63 7.53-10.04 0.903-0.603 1.506-0.803 1.907-0.502 0.201 0.101 0.301 0.201 0.301 0.502 0 0.502-0.201 0.703-2.309 2.51-3.414 2.911-5.622 5.822-6.827 9.236-0.502 1.305-1.004 4.016-0.803 4.016 0.101 0 0.201-0.302 0.201-0.603 0.402-1.606 1.305-3.515 2.41-4.92 1.305-1.907 2.61-3.012 7.329-6.625 3.112-2.309 4.92-3.715 6.325-5.121 1.305-1.104 1.707-1.405 2.008-1.506 0.201-0.1 0.301-0.1 0.301 0-0.101 0.101 0.1 0.101 0.201 0 0.101-0.1 0.201-0.1 0.402 0 0.201 0.101 0.301 0.101 0.301 0v0.201c0.101 0.703-0.401 1.205-1.807 2.51-1.706 1.607-4.016 3.413-6.727 5.421-1.505 1.004-3.212 2.31-3.915 2.812-1.506 1.204-3.112 2.811-3.916 4.016-1.104 1.405-2.008 3.614-1.908 4.518 0 0.301 0 0.201 0.201-0.301 0.501-1.305 1.907-2.912 3.915-4.417 1.104-0.904 3.012-2.209 5.923-4.016 2.209-1.406 4.317-2.812 5.321-3.615 0.803-0.702 1.205-0.803 1.707-0.803 0.703 0 1.004 0.401 0.502 1.104-0.402 0.803-3.012 2.61-7.53 5.221-4.719 2.811-5.923 3.714-7.529 5.221-1.506 1.605-2.008 3.011-1.406 3.814 0.503 0.71 0.302 0.71-0.601 0.21zm6.425 0.09c-0.201-0.201-0.201-0.602 0.1-0.803 0.301-0.302 0.803-0.503 1.506-0.703 0.804-0.2 1.205-0.101 1.205 0.302 0.101 0.401-0.1 0.603-0.803 1.003-0.703 0.31-1.807 0.51-2.008 0.2zm9.537-0.4c-0.402-0.401 0.101-1.104 1.205-1.706 0.903-0.402 1.506-0.302 1.506 0.301 0 0.706-2.309 1.915-2.711 1.405zm-5.421-1.201c-0.201-0.2-0.201-0.702 0.1-1.004 0.101-0.101 0.803-0.602 1.807-1.104 3.715-1.808 6.325-3.615 8.835-6.226 3.313-3.212 5.421-6.826 6.225-10.641 0.1-0.401 0.2-0.803 0.301-0.903 0.201-0.301 0.402-0.301 0.301-0.101-0.101 0.101 0 0.101 0.301-0.1l0.301-0.201-0.1 1.104c-0.101 2.51-1.305 5.622-3.012 8.232-0.903 1.405-1.707 2.309-3.112 3.814-2.61 2.51-5.723 4.619-9.336 6.525-1.607 0.705-2.309 0.906-2.611 0.605zm-3.614-2.811c-0.201-0.101-0.201-0.603 0-0.803 0.502-0.603 2.41-1.205 2.812-0.804 0.301 0.201 0.201 0.603-0.301 1.004-0.603 0.603-2.21 1.005-2.511 0.603zm36.644-0.802l-0.301-0.402v-21.786l0.301-0.401c0.402-0.301 0.502-0.301 1.004-0.301 0.803 0 1.004 0.1 1.707 1.506 0.301 0.703 1.908 4.016 3.514 7.429 1.707 3.514 3.012 6.324 3.112 6.324 0 0 1.707-3.312 3.614-7.429 3.916-8.232 3.715-7.931 4.618-7.831 0.603 0 1.104 0.201 1.305 0.703s0.201 21.284 0 21.785c-0.201 0.402-0.703 0.703-1.205 0.703-0.402 0-0.502 0-0.903-0.301l-0.3-0.402v-8.132c0-4.417-0.101-8.131-0.101-8.031 0 0-1.406 2.811-2.912 6.225-1.606 3.312-3.012 6.225-3.212 6.425-0.402 0.401-1.305 0.502-1.808 0-0.2-0.2-1.104-2.008-3.212-6.425-1.606-3.414-2.911-6.124-3.012-6.124 0 0-0.101 3.514-0.101 7.931 0 6.325 0 8.031-0.1 8.232-0.201 0.401-0.703 0.603-1.105 0.603-0.4-0.001-0.501-0.001-0.903-0.301zm24.498 0.099c-0.704-0.301-0.603-0.1-0.603-7.831 0-7.629-0.101-7.328 0.501-7.73 0.402-0.301 1.205-0.301 1.606 0 0.603 0.402 0.603 0.301 0.603 7.73 0 7.731 0 7.53-0.703 7.831-0.2 0.201-0.501 0.201-0.704 0.201-0.199 0-0.5 0-0.7-0.201zm7.629 0.101c-0.703-0.401-0.603-0.302-0.603-6.525 0-6.224-0.101-6.425-0.703-6.927-0.703-0.502-0.802-0.703-0.802-1.205 0-1.004 1.205-1.405 2.408-0.803 0.402 0.201 1.205 1.004 1.205 1.205s0 0.201 0.402-0.201c0.501-0.401 1.204-0.803 2.007-1.104 0.602-0.201 0.903-0.301 2.109-0.301 0.903-0.101 1.605 0 2.007 0 1.306 0.301 2.409 1.104 2.912 2.309 0.502 1.104 0.603 1.506 0.502 7.429 0 4.217 0 5.521-0.102 5.622-0.2 0.401-0.701 0.603-1.204 0.603-0.402 0-0.502 0-0.803-0.301l-0.402-0.302-0.101-5.421c0-5.221 0-5.321-0.2-5.923-0.501-1.104-1.506-1.606-3.012-1.506-1.406 0.101-2.61 0.603-3.213 1.506l-0.302 0.402v5.221c0 5.822 0 5.822-0.703 6.123-0.398 0.3-1 0.3-1.402 0.099zm19.479 0c-0.903-0.2-1.708-0.603-2.31-1.104-0.603-0.604-1.003-1.206-1.304-2.209-0.302-0.804-0.302-0.904-0.302-3.916-0.101-2.51 0-3.312 0.1-4.016 0.402-2.409 1.707-4.016 3.615-4.518 0.803-0.201 2.609-0.201 3.414 0 0.301 0.1 0.903 0.301 1.304 0.502s0.703 0.402 0.804 0.402c0 0.101 0.102-1.506 0.102-3.414 0-3.212 0-3.414 0.199-3.715 0.302-0.602 1.104-0.803 1.706-0.501 0.603 0.301 0.603-0.301 0.703 10.039 0 9.236 0 9.336 0.2 9.838 0.202 0.301 0.402 0.502 0.704 0.703 0.503 0.301 0.602 0.702 0.401 1.305-0.201 1.104-2.107 1.004-3.112-0.101l-0.402-0.502-0.501 0.402c-1.105 0.603-2.009 0.903-3.413 0.903-0.9 0.002-1.5 0.002-1.9-0.098zm3.61-2.409c0.302-0.201 0.805-0.401 1.105-0.703l0.704-0.301v-8.734l-0.402-0.301c-0.202-0.2-0.703-0.502-1.105-0.703-0.803-0.401-0.803-0.401-1.807-0.401-0.903 0-1.205 0-1.607 0.2-0.802 0.402-1.304 1.104-1.604 2.209-0.202 0.804-0.301 4.217-0.202 5.723 0.202 1.907 0.805 2.71 2.311 3.111 0.69 0.2 1.9 0.101 2.6-0.1zm21.59 2.409c-0.2-0.101-0.4-0.302-0.501-0.603-0.2-0.401-0.2-0.603-0.2-6.124 0-6.626 0-6.324-0.903-6.927-0.503-0.401-0.703-0.703-0.603-1.205 0.2-1.004 1.706-1.205 2.71-0.402 0.402 0.201 0.903 0.904 1.104 1.305 0 0 0.202-0.1 0.402-0.301 0.502-0.602 1.406-1.205 2.311-1.506 0.501-0.1 0.903-0.201 1.905-0.1 1.105 0 1.407 0 1.708 0.2 1.104 0.603 1.005 2.109-0.301 2.51-0.102 0-0.504 0-1.005-0.101-2.107-0.401-3.715 0.301-4.418 1.908-0.2 0.602-0.2 0.703-0.2 5.722l-0.101 5.12-0.4 0.302c-0.301 0.301-0.402 0.301-0.805 0.301-0.2 0.001-0.5 0.001-0.7-0.099zm13.95 0c-2.107-0.502-3.613-2.008-4.316-4.316-0.2-0.703-0.2-1.005-0.2-3.515 0-2.609 0-2.911 0.2-3.613 0.703-2.309 2.209-3.815 4.218-4.317 1.506-0.401 3.813-0.1 5.019 0.502 0.703 0.402 1.606 1.406 2.009 2.209 0.501 1.004 0.703 1.606 0.703 3.614l0.099 1.706-0.301 0.302-0.2 0.301h-4.517l-4.52 0.101v0.603c0 1.807 0.703 3.312 1.908 3.915 0.501 0.302 0.602 0.302 1.907 0.302 1.405 0 2.008-0.102 3.414-0.704 0.903-0.4 1.404-0.1 1.706 0.704 0.201 0.803-0.4 1.305-1.908 1.807-1.51 0.499-3.91 0.7-5.22 0.399zm5.02-10.24c0-1.305-0.301-2.008-0.903-2.61-1.104-1.205-3.613-1.205-4.719 0-0.803 0.602-1.205 1.907-1.205 3.112v0.603h6.928l-0.09-1.105zm10.24 10.24c-2.107-0.502-3.613-2.008-4.216-4.217-0.301-0.903-0.301-5.622-0.101-6.826 0.501-2.41 2.007-4.116 4.216-4.719 0.805-0.201 2.812-0.201 3.615 0 1.104 0.301 2.007 0.803 2.609 1.506 1.205 1.205 1.606 2.51 1.606 4.919v1.606l-0.301 0.302-0.301 0.301-4.418 0.101h-4.518v0.804c0.102 1.907 0.703 3.111 1.908 3.714 0.501 0.302 0.703 0.302 1.706 0.302 1.204 0.1 2.009-0.102 3.313-0.603 0.904-0.302 1.003-0.302 1.305-0.201 0.602 0.201 0.903 1.004 0.602 1.606-0.2 0.401-1.404 1.004-2.811 1.305-1.01 0.2-3.41 0.301-4.22 0.1zm5.12-9.537c0.1-0.603-0.101-2.008-0.401-2.51-0.402-1.004-1.205-1.506-2.409-1.606-2.209-0.301-3.715 0.904-4.016 3.313-0.102 0.501-0.102 0.903-0.102 1.003 0 0.101 0.502 0.101 3.515 0.101h3.413v-0.301zm-42.37 9.235c-1.003-0.2-1.506-0.501-2.108-1.104-0.501-0.603-0.802-1.104-1.002-2.008-0.402-1.104-0.402-2.31-0.402-6.325v-3.714h-0.903c-1.105 0-1.506-0.301-1.506-1.205-0.101-0.803 0.501-1.104 1.604-1.104h0.805v-1.807c0-1.907 0-2.209 0.603-2.51 0.401-0.301 1.104-0.301 1.505 0 0.502 0.301 0.603 0.703 0.603 2.51v1.707l2.009 0.1c2.207 0 2.409 0.1 2.609 0.603 0.301 0.502 0.2 0.903-0.2 1.305l-0.301 0.401h-4.217l0.101 4.417c0 3.915 0 4.518 0.2 4.818 0.402 1.205 1.206 1.707 2.712 1.707 1.205 0.101 1.605 0.2 1.807 0.702 0.2 0.503 0.1 1.005-0.301 1.406l-0.301 0.401-1.306-0.101c-0.98 0.002-1.48 0.002-1.99-0.199zm-101.39-0.802c-0.201-0.201-0.201-0.604 0-1.005 0.101-0.1 0.502-0.401 1.004-0.702 5.02-2.711 8.936-5.723 11.044-8.634 0.602-0.804 1.505-2.41 1.907-3.514 0.301-0.703 0.301-0.803 0.703-0.803 0.201 0 0.401-0.1 0.603-0.1 0.201-0.101 0.201-0.101 0.201 0.301-0.201 1.104-1.205 3.313-2.208 4.819-1.406 2.108-3.815 4.618-6.325 6.325-1.807 1.305-4.518 2.911-5.522 3.313-0.705 0.2-1.106 0.2-1.407 0zm7.128-10.04c-0.301-0.201-0.201-0.803 0.201-1.305 0.301-0.401 1.305-1.004 1.606-1.004 0.803 0 0.502 1.406-0.603 2.108-0.401 0.401-1.003 0.502-1.204 0.201zm2.811-3.212c-0.201-0.301-0.201-0.603 0.1-1.004 0.201-0.301 0.502-0.401 0.603-0.1 0 0 0.201 0 0.401-0.101 0.201 0 0.301 0 0.301 0.201 0 0.402-0.301 0.803-0.603 1.004-0.4 0.201-0.601 0.201-0.802 0zm-12.047-0.603c-0.201 0-0.201-0.1-0.201-0.402 0-0.903 2.108-2.208 2.811-1.706 0.502 0.501-0.401 1.706-1.606 2.108-0.503 0.201-0.703 0.201-1.004 0zm3.513-2.409c-0.2-0.1-0.2-0.401 0.101-0.702 0.301-0.402 0.703-0.603 1.104-0.502 0.302 0 0.302 0 0.302 0.301s-0.101 0.401-0.302 0.703c-0.502 0.3-0.904 0.401-1.205 0.2zm55.62-2.209c-1.004-0.703-1.004-2.209 0.101-2.811 0.4-0.201 0.903-0.201 1.405 0.1 0.602 0.201 0.802 0.603 0.802 1.205 0.101 0.703-0.2 1.104-0.702 1.506-0.402 0.201-1.204 0.201-1.606 0zm-57.326-1.406c-0.301-0.1-0.301-0.501-0.1-0.903 0.301-0.402 0.903-0.803 1.104-0.703 0 0.101 0.101 0.201 0 0.201 0 0 0 0.1 0.201 0.201 0.1 0.1 0.301 0.301 0.301 0.401 0 0.201 0.1 0.302 0.1 0.302 0.1 0.1-0.502 0.401-0.904 0.501-0.301 0.101-0.501 0.101-0.702 0zm-9.538-6.726c-0.502-0.301 0.2-1.205 1.204-1.505 0.502-0.201 0.603-0.201 0.804 0 0.401 0.201 0.301 0.501-0.201 1.004-0.602 0.501-1.406 0.802-1.807 0.501zm3.012-1.807c-0.101-0.402 0.602-1.004 1.205-0.904 0.401 0 0.602 0.101 0.501 0.401-0.1 0.503-1.505 0.905-1.706 0.503z" fill="#D92C71"/>
	<path d="m17.594 103.3c-0.201-0.201-0.201-0.502 0.201-0.804 0.302-0.301 1.305-0.301 1.406-0.1 0.201 0.2 0.101 0.603-0.201 0.803-0.301 0.2-1.205 0.3-1.406 0.1zm7.731-0.1c-0.703-0.502 0.301-1.305 1.406-1.305 0.401-0.102 0.803 0.301 0.703 0.602-0.101 0.302-0.401 0.503-1.004 0.703s-0.804 0.2-1.105 0zm-3.915-1.11c-0.302-0.303-0.302-0.402 0.1-0.804 0.603-0.603 2.008-0.903 2.31-0.502 0.2 0.301-0.101 0.702-0.804 1.003-0.804 0.5-1.406 0.5-1.606 0.3zm7.529-0.4c-0.101-0.101-0.201-0.302-0.201-0.401 0-0.301 0.401-0.703 1.406-1.306 3.514-2.108 6.325-5.12 7.931-8.433 0.903-1.908 1.606-4.116 1.707-5.823 0.101-0.401 0.101-0.803 0.201-0.803 0 0 0.101-0.201 0.101-0.302 0-0.2 0-0.301 0.401-0.301 0.603-0.201 0.603 0 0.402 1.707-0.703 6.124-3.815 11.244-8.835 14.657-2.009 1.3-2.611 1.5-3.113 1zm-16.465-0.2c-0.201-0.101-0.201-0.501 0.101-0.702 0.301-0.302 1.205-0.503 1.505-0.401 0.804 0.301 0 1.204-1.004 1.204-0.2 0-0.501 0-0.602-0.1zm-2.911-1.1c-0.904-0.604-2.41-1.908-3.213-2.812-2.711-3.012-4.417-6.425-5.12-10.341-0.201-1.104-0.201-1.807-0.201-3.312 0-2.208 0.101-3.012 0.603-4.919 0.603-2.209 1.406-4.016 2.71-6.023 1.707-2.711 4.117-4.92 5.221-4.819 0.401 0 0.602 0.101 0.602 0.502 0 0.201-0.301 0.502-1.606 1.807-2.008 2.008-3.112 3.414-4.116 5.522-1.807 3.514-2.41 6.927-1.907 10.742 0.201 1.104 0.401 2.209 0.401 1.808 0-0.201 0.101-0.804 0.101-1.306 0.301-6.325 3.012-11.946 7.73-16.264 1.205-1.104 2.711-2.108 3.012-2.108 0.502 0 0.401 1.104 0 1.606-0.1 0.201-0.301 0.301-0.301 0.301s-0.502 0.401-1.707 1.506c-4.116 3.715-6.626 8.232-7.43 13.251-0.201 1.507-0.301 3.716-0.201 5.321 0.201 1.606 0.301 2.108 0.301 1.004 0.101-0.903 0.301-3.012 0.502-4.217 0.803-3.613 2.209-6.826 4.619-9.938 0.703-1.004 4.216-4.618 4.317-4.518 0.101 0 0.2 0 0.301-0.2 0.201-0.201 0.603-0.201 0.603 0 0 0 0 0.301 0.201 0.501 0.1 0.201 0.2 0.402 0.2 0.502 0 0-0.803 0.803-1.707 1.706-0.903 1.004-2.008 2.209-2.51 2.711-2.912 3.514-4.518 7.027-5.12 11.043-0.201 1.104-0.301 5.32-0.201 5.12 0 0 0.101-0.603 0.201-1.305 0.502-4.418 1.907-8.032 4.518-11.545 1.004-1.205 3.714-4.117 4.819-4.92l0.804-0.602 0.401 0.502c0.502 0.603 0.502 1.004-0.1 1.506-2.209 1.707-4.317 3.915-5.823 6.124-2.208 3.312-3.414 6.727-3.715 10.842-0.1 0.703-0.1 0.904 0 0.804 0.101 0 0.201-0.201 0.201-0.301 0-0.503 0.602-2.912 1.104-4.116 1.506-3.815 4.317-7.529 7.53-9.939 0.803-0.703 1.406-0.903 1.807-0.603 0.301 0.101 0.401 0.603 0.301 0.904-0.101 0.2-0.803 0.803-1.707 1.606-0.804 0.703-1.908 1.707-2.41 2.208-2.812 2.911-4.819 6.325-5.421 9.437-0.301 1.306-0.402 2.109-0.301 2.109s0.201-0.302 0.201-0.603c0.301-0.904 0.803-2.41 1.305-3.213 1.004-1.907 2.31-3.514 4.317-5.12 1.104-0.903 6.023-4.618 6.727-5.02 0.201-0.201 0.401-0.301 0.401-0.301 0-0.1 0.101-0.2 0.402-0.2 0.101-0.101 0.101-0.101 0.201-0.101 0.1-0.101 0.201-0.101 0.301-0.101 0.2 0 1.104 0.602 1.004 0.703 0 0.301-0.904 1.104-3.012 2.61-5.421 3.814-7.229 5.421-8.835 7.63-1.004 1.305-1.907 3.514-1.807 4.417 0 0.301 0 0.201 0.201-0.301 0.803-2.209 3.514-4.519 9.437-8.232 2.51-1.606 5.421-3.514 6.024-4.016 0.201-0.201 1.104-0.502 1.405-0.502 0.1 0 0.201 0 0.301 0.201 0 0.1 0.201 0.2 0.201 0.2 0.301 0 0.201 0.301-0.201 0.803-0.703 0.904-3.012 2.51-7.329 5.12-4.719 2.711-5.923 3.614-7.529 5.121-1.506 1.605-2.008 3.011-1.406 3.814 0.502 0.7 0.301 0.7-0.602 0.2zm6.425 0.09c-0.201-0.201-0.201-0.602 0.1-0.803 0.301-0.302 0.803-0.503 1.506-0.703 0.804-0.2 1.205-0.101 1.205 0.302 0.101 0.401-0.1 0.603-0.803 1.003-0.703 0.31-1.807 0.51-2.008 0.2zm9.537-0.4c-0.402-0.401 0.101-1.104 1.205-1.706 0.903-0.402 1.506-0.302 1.506 0.301 0 0.706-2.309 1.915-2.711 1.405zm-5.421-1.201c-0.201-0.2-0.201-0.702 0.1-1.004 0.101-0.101 0.803-0.602 1.807-1.104 4.819-2.409 8.333-5.121 11.144-8.635 0.401-0.502 0.703-1.003 0.803-1.003 0.101-0.101 0.302-0.503 0.502-0.804 0.502-0.603 0.703-0.703 0.803-0.502 0.101 0.101 0.201 0.101 0.502 0 0.101-0.101 0.301-0.101 0.301-0.101 0.201 0.201-0.2 1.004-1.004 2.209-2.61 4.016-6.927 7.63-12.348 10.34-1.606 0.704-2.308 0.905-2.61 0.604zm9.437-1.305c-0.301-0.201-0.301-0.703 0.101-1.104 0.201-0.301 0.804-0.903 1.406-1.405 2.61-2.209 4.719-4.819 6.024-7.43 0.2-0.501 0.401-0.903 0.501-1.004 0 0 0.101-0.101 0.101-0.301 0-0.201 0.101-0.401 0.201-0.401v-0.101s0-0.201 0.201-0.401c0.101-0.201 0.201-0.301 0.201-0.401 0 0 0.1-0.101 0.201-0.101 0.301-0.201 0.402-0.101 0.502 0 0.101 0.101 0.101 0.201 0.101 0.401-0.101 0.603-0.201 0.803-0.201 0.903 0.1 0.101-0.603 1.907-1.104 2.812-1.004 2.108-2.41 4.115-4.518 6.324-0.803 0.703-1.707 1.506-2.008 1.707-0.705 0.502-1.407 0.702-1.709 0.502zm-13.051-1.506c-0.201-0.101-0.201-0.603 0-0.803 0.502-0.603 2.41-1.205 2.812-0.804 0.301 0.201 0.201 0.603-0.301 1.004-0.603 0.603-2.21 1.005-2.511 0.603zm36.644-0.802l-0.301-0.402v-21.786l0.301-0.401c0.402-0.301 0.502-0.301 1.004-0.301 0.803 0 1.004 0.1 1.707 1.506 0.301 0.703 1.908 4.016 3.514 7.429 1.707 3.514 3.012 6.324 3.112 6.324 0 0 1.707-3.312 3.614-7.429 3.916-8.232 3.715-7.931 4.618-7.831 0.603 0 1.104 0.201 1.305 0.703s0.201 21.284 0 21.785c-0.201 0.402-0.703 0.703-1.205 0.703-0.402 0-0.502 0-0.903-0.301l-0.3-0.402v-8.132c0-4.417-0.101-8.131-0.101-8.031 0 0-1.406 2.811-2.912 6.225-1.606 3.312-3.012 6.225-3.212 6.425-0.402 0.401-1.305 0.502-1.808 0-0.2-0.2-1.104-2.008-3.212-6.425-1.606-3.414-2.911-6.124-3.012-6.124 0 0-0.101 3.514-0.101 7.931 0 6.325 0 8.031-0.1 8.232-0.201 0.401-0.703 0.603-1.105 0.603-0.4-0.001-0.501-0.001-0.903-0.301zm24.498 0.099c-0.704-0.301-0.603-0.1-0.603-7.831 0-7.629-0.101-7.328 0.501-7.73 0.402-0.301 1.205-0.301 1.606 0 0.603 0.402 0.603 0.301 0.603 7.73 0 7.731 0 7.53-0.703 7.831-0.2 0.201-0.501 0.201-0.704 0.201-0.199 0-0.5 0-0.7-0.201zm7.629 0.101c-0.703-0.401-0.603-0.302-0.603-6.525 0-6.224-0.101-6.425-0.703-6.927-0.703-0.502-0.802-0.703-0.802-1.205 0-1.004 1.205-1.405 2.408-0.803 0.402 0.201 1.205 1.004 1.205 1.205s0 0.201 0.402-0.201c0.501-0.401 1.204-0.803 2.007-1.104 0.602-0.201 0.903-0.301 2.109-0.301 0.903-0.101 1.605 0 2.007 0 1.306 0.301 2.409 1.104 2.912 2.309 0.502 1.104 0.603 1.506 0.502 7.429 0 4.217 0 5.521-0.102 5.622-0.2 0.401-0.701 0.603-1.204 0.603-0.402 0-0.502 0-0.803-0.301l-0.402-0.302-0.101-5.421c0-5.221 0-5.321-0.2-5.923-0.501-1.104-1.506-1.606-3.012-1.506-1.406 0.101-2.61 0.603-3.213 1.506l-0.302 0.402v5.221c0 5.822 0 5.822-0.703 6.123-0.398 0.3-1 0.3-1.402 0.099zm19.479 0c-0.903-0.2-1.708-0.603-2.31-1.104-0.603-0.604-1.003-1.206-1.304-2.209-0.302-0.804-0.302-0.904-0.302-3.916-0.101-2.51 0-3.312 0.1-4.016 0.402-2.409 1.707-4.016 3.615-4.518 0.803-0.201 2.609-0.201 3.414 0 0.301 0.1 0.903 0.301 1.304 0.502s0.703 0.402 0.804 0.402c0 0.101 0.102-1.506 0.102-3.414 0-3.212 0-3.414 0.199-3.715 0.302-0.602 1.104-0.803 1.706-0.501 0.603 0.301 0.603-0.301 0.703 10.039 0 9.236 0 9.336 0.2 9.838 0.202 0.301 0.402 0.502 0.704 0.703 0.503 0.301 0.602 0.702 0.401 1.305-0.201 1.104-2.107 1.004-3.112-0.101l-0.402-0.502-0.501 0.402c-1.105 0.603-2.009 0.903-3.413 0.903-0.9 0.002-1.5 0.002-1.9-0.098zm3.61-2.409c0.302-0.201 0.805-0.401 1.105-0.703l0.704-0.301v-8.734l-0.402-0.301c-0.202-0.2-0.703-0.502-1.105-0.703-0.803-0.401-0.803-0.401-1.807-0.401-0.903 0-1.205 0-1.607 0.2-0.802 0.402-1.304 1.104-1.604 2.209-0.202 0.804-0.301 4.217-0.202 5.723 0.202 1.907 0.805 2.71 2.311 3.111 0.69 0.2 1.9 0.101 2.6-0.1zm21.59 2.409c-0.2-0.101-0.4-0.302-0.501-0.603-0.2-0.401-0.2-0.603-0.2-6.124 0-6.626 0-6.324-0.903-6.927-0.503-0.401-0.703-0.703-0.603-1.205 0.2-1.004 1.706-1.205 2.71-0.402 0.402 0.201 0.903 0.904 1.104 1.305 0 0 0.202-0.1 0.402-0.301 0.502-0.602 1.406-1.205 2.311-1.506 0.501-0.1 0.903-0.201 1.905-0.1 1.105 0 1.407 0 1.708 0.2 1.104 0.603 1.005 2.109-0.301 2.51-0.102 0-0.504 0-1.005-0.101-2.107-0.401-3.715 0.301-4.418 1.908-0.2 0.602-0.2 0.703-0.2 5.722l-0.101 5.12-0.4 0.302c-0.301 0.301-0.402 0.301-0.805 0.301-0.2 0.001-0.5 0.001-0.7-0.099zm13.95 0c-2.107-0.502-3.613-2.008-4.316-4.316-0.2-0.703-0.2-1.005-0.2-3.515 0-2.609 0-2.911 0.2-3.613 0.703-2.309 2.209-3.815 4.218-4.317 1.506-0.401 3.813-0.1 5.019 0.502 0.703 0.402 1.606 1.406 2.009 2.209 0.501 1.004 0.703 1.606 0.703 3.614l0.099 1.706-0.301 0.302-0.2 0.301h-4.517l-4.52 0.101v0.603c0 1.807 0.703 3.312 1.908 3.915 0.501 0.302 0.602 0.302 1.907 0.302 1.405 0 2.008-0.102 3.414-0.704 0.903-0.4 1.404-0.1 1.706 0.704 0.201 0.803-0.4 1.305-1.908 1.807-1.51 0.499-3.91 0.7-5.22 0.399zm5.02-10.24c0-1.305-0.301-2.008-0.903-2.61-1.104-1.205-3.613-1.205-4.719 0-0.803 0.602-1.205 1.907-1.205 3.112v0.603h6.928l-0.09-1.105zm10.24 10.24c-2.107-0.502-3.613-2.008-4.216-4.217-0.301-0.903-0.301-5.622-0.101-6.826 0.501-2.41 2.007-4.116 4.216-4.719 0.805-0.201 2.812-0.201 3.615 0 1.104 0.301 2.007 0.803 2.609 1.506 1.205 1.205 1.606 2.51 1.606 4.919v1.606l-0.301 0.302-0.301 0.301-4.418 0.101h-4.518v0.804c0.102 1.907 0.703 3.111 1.908 3.714 0.501 0.302 0.703 0.302 1.706 0.302 1.204 0.1 2.009-0.102 3.313-0.603 0.904-0.302 1.003-0.302 1.305-0.201 0.602 0.201 0.903 1.004 0.602 1.606-0.2 0.401-1.404 1.004-2.811 1.305-1.01 0.2-3.41 0.301-4.22 0.1zm5.12-9.537c0.1-0.603-0.101-2.008-0.401-2.51-0.402-1.004-1.205-1.506-2.409-1.606-2.209-0.301-3.715 0.904-4.016 3.313-0.102 0.501-0.102 0.903-0.102 1.003 0 0.101 0.502 0.101 3.515 0.101h3.413v-0.301zm-42.37 9.235c-1.003-0.2-1.506-0.501-2.108-1.104-0.501-0.603-0.802-1.104-1.002-2.008-0.402-1.104-0.402-2.31-0.402-6.325v-3.714h-0.903c-1.105 0-1.506-0.301-1.506-1.205-0.101-0.803 0.501-1.104 1.604-1.104h0.805v-1.807c0-1.907 0-2.209 0.603-2.51 0.401-0.301 1.104-0.301 1.505 0 0.502 0.301 0.603 0.703 0.603 2.51v1.707l2.009 0.1c2.207 0 2.409 0.1 2.609 0.603 0.301 0.502 0.2 0.903-0.2 1.305l-0.301 0.401h-4.217l0.101 4.417c0 3.915 0 4.518 0.2 4.818 0.402 1.205 1.206 1.707 2.712 1.707 1.205 0.101 1.605 0.2 1.807 0.702 0.2 0.503 0.1 1.005-0.301 1.406l-0.301 0.401-1.306-0.101c-0.98 0.002-1.48 0.002-1.99-0.199zm-101.39-0.802c-0.201-0.201-0.201-0.604 0-1.005 0.101-0.1 0.502-0.401 1.004-0.702 3.313-1.808 6.124-3.715 8.734-5.924 0.904-0.903 1.305-1.104 1.205-0.803 0 0.101 0 0.2 0.1 0.2 0.101 0 0.201-0.1 0.201-0.2s0-0.101 0 0 0.101 0.101 0.402 0.101c0.101-0.101 0.301-0.101 0.301 0h0.101c0.1-0.101 0 0.1-0.301 0.401-0.101 0.2-0.201 0.401-0.201 0.502s-2.008 2.008-2.811 2.811c-2.811 2.31-7.028 4.819-8.232 4.819-0.102 0-0.302-0.1-0.503-0.2zm-2.108-13.955c-0.201-0.101-0.201-0.201-0.101-0.402 0.101-0.401 0.301-0.401 0.602 0.1l0.201 0.302h-0.301c-0.201 0.1-0.201 0.1 0 0.201 0.201 0 0.201 0 0 0-0.1 0-0.301 0-0.401-0.201zm59.133-4.518c-1.004-0.703-1.004-2.209 0.101-2.811 0.4-0.201 0.903-0.201 1.405 0.1 0.602 0.201 0.802 0.603 0.802 1.205 0.101 0.703-0.2 1.104-0.702 1.506-0.402 0.201-1.204 0.201-1.606 0zm-66.864-8.132c-0.402-0.2 0-1.004 0.803-1.405 0.703-0.301 1.606-0.1 1.406 0.301v0.201c-0.101 0.501-1.707 1.204-2.209 0.903z" fill="#CD1288"/>
	<path d="m17.594 103.3c-0.201-0.201-0.201-0.502 0.201-0.804 0.302-0.301 1.305-0.301 1.406-0.1 0.201 0.2 0.101 0.603-0.201 0.803-0.301 0.2-1.205 0.3-1.406 0.1zm7.731-0.1c-0.703-0.502 0.301-1.305 1.406-1.305 0.401-0.102 0.803 0.301 0.703 0.602-0.101 0.302-0.401 0.503-1.004 0.703s-0.804 0.2-1.105 0zm-3.915-1.11c-0.302-0.303-0.302-0.402 0.1-0.804 0.603-0.603 2.008-0.903 2.31-0.502 0.2 0.301-0.101 0.702-0.804 1.003-0.804 0.5-1.406 0.5-1.606 0.3zm7.529-0.4c-0.101-0.101-0.201-0.302-0.201-0.401 0-0.301 0.401-0.703 1.406-1.306 3.514-2.108 6.325-5.02 7.931-8.433 0.301-0.603 0.502-1.005 0.502-0.804 0 0.101-0.301 0.603-0.603 1.205-0.201 0.502-0.402 1.004-0.402 1.104 0.101 0 0 0.1 0 0-0.1 0-0.401 0.401-0.301 0.502 0 0.1 0.402 0.1 0.603 0 0.501-0.101 0.703-0.201 0.602-0.301-0.101 0 0-0.102 0 0 0.101 0 0.201-0.102 0.301-0.302 0-0.201 0.101-0.301 0.201-0.301 0 0 0.101-0.102 0.101-0.302 0-0.101 0.101-0.2 0.101-0.101 0.1 0-0.502 1.306-1.104 2.109-1.506 2.609-3.614 4.617-6.024 6.324-2.009 1.31-2.611 1.51-3.113 1.01zm-16.465-0.2c-0.201-0.101-0.201-0.501 0.101-0.702 0.301-0.302 1.205-0.503 1.505-0.401 0.804 0.301 0 1.204-1.004 1.204-0.2 0-0.501 0-0.602-0.1zm-2.911-1.1c-0.904-0.604-2.41-1.908-3.213-2.812-2.711-3.012-4.417-6.425-5.12-10.341-0.201-1.104-0.201-1.807-0.201-3.312 0-2.208 0.101-3.012 0.603-4.919 0.603-2.209 1.406-4.016 2.71-6.023 0.904-1.506 2.41-3.213 3.313-3.916 0.301-0.201 0.301-0.201-0.201 0.301-1.004 1.1-1.305 1.502-1.204 1.502 0.2 0.1 0.1 0.803-0.101 1.104-0.201 0.2-0.101 0.2 0 0.301 0.201 0.101 0.401 0 1.305-0.904 0.603-0.602 1.406-1.305 1.808-1.706 0.401-0.302 0 0.1-0.803 0.903-1.908 1.807-3.012 3.313-4.016 5.421-1.807 3.514-2.41 6.927-1.907 10.742 0.201 1.104 0.401 2.209 0.401 1.808 0.201-3.614 0.401-5.12 1.305-7.63 1.004-3.212 2.811-6.224 5.321-8.734 1.104-1.104 1.104-1.104 0.2-0.101-1.104 1.104-1.807 2.008-2.309 2.812-0.401 0.602-0.401 0.602-0.2 0.803 0 0.101 0.1 0.201 0 0.101-0.101 0-0.201 0.101-0.201 0.201l-0.1 0.1c0.1 0 0.201 0 0.201 0.101s0 0.201 0 0.201c0.101-0.1 0.201 0 0.301 0 0.101 0.1 0.201 0 0.101 0-0.101-0.1 0-0.1 0.201 0h0.101s0.101-0.201 0.201-0.301c0.201-0.201 0.502-0.603 0.803-0.903 0.402-0.402 1.004-1.104 1.606-1.707l1.004-1.004-1.004 1.104c-3.514 3.715-5.421 7.429-6.125 11.946-0.201 1.507-0.301 3.716-0.201 5.321 0.201 1.606 0.301 2.108 0.301 1.004 0.101-1.606 0.502-4.317 1.004-6.124 1.004-3.514 3.112-7.127 5.421-9.638l0.703-0.703-0.703 0.804c-1.004 1.205-2.208 2.912-2.108 2.912v0.201c-0.1 0.101-0.1 0.201-0.1 0.201 0.1 0 0.1 0 0.1 0.201 0 0.1 0.101 0.201 0.301 0.301l0.301 0.1 0.703-0.702c0.301-0.402 0.803-1.004 1.004-1.205s0.101 0-0.301 0.402c-2.71 3.413-4.317 6.926-4.919 10.842-0.201 1.104-0.301 5.32-0.201 5.12 0 0 0.101-0.603 0.201-1.305 0.502-4.619 2.208-8.635 5.02-12.148 0.502-0.502 1.004-1.205 1.305-1.406 0.301-0.301 0.201-0.201-0.301 0.401-1.004 1.104-1.305 1.506-1.305 1.808 0 0.1 0 0.301-0.101 0.401-0.101 0.201-0.101 0.201 0.101 0.402 0.101 0.201 0.2 0.301 0.2 0.401 0 0.301 0.301 0.1 0.703-0.301 0.201-0.302 0.903-1.104 1.606-1.808 0.703-0.703 0.904-0.904 0.402-0.401-3.414 3.714-5.12 6.726-6.124 10.641-0.401 1.707-0.803 4.92-0.603 4.719 0.101 0 0.201-0.201 0.201-0.301 0-0.101 0.1-0.804 0.301-1.606 1.104-4.217 3.714-8.434 7.027-11.445 1.004-0.903 0.903-0.803-0.502 0.602-0.603 0.603-1.104 1.205-1.104 1.305 0 0-0.101 0.201-0.101 0.302s0 0.201 0 0.302c0.101 0 0.201 0.2 0.201 0.301 0 0.2 0 0.301 0.301 0.301s0.402-0.101 0.502-0.101c0-0.101 1.606-1.605 2.008-1.807 0.101-0.1-0.201 0.201-0.703 0.603-3.112 3.012-5.02 5.722-6.225 8.835-0.502 1.305-1.004 4.016-0.803 4.016 0.101 0 0.201-0.302 0.201-0.603 0.301-0.904 0.803-2.41 1.305-3.213 1.306-2.51 3.012-4.216 6.927-7.128 0.703-0.603 1.506-1.104 1.506-1.204 0.101 0 0.201-0.101 0.201 0 0 0-0.402 0.301-0.803 0.602-0.502 0.302-1.104 0.903-1.506 1.205-0.703 0.602-0.703 0.602-0.603 0.803 0.1 0.101 0.301 0.201 0.401 0.201s0.201 0 0.201 0.101c0.1 0.1 0.803 0.1 1.104-0.101 0.502-0.402 2.51-1.808 2.51-1.707 0 0-0.301 0.201-0.703 0.502-1.205 0.803-3.614 2.711-4.718 3.614-1.908 1.606-3.212 3.213-4.117 4.92-0.501 1.003-0.803 2.208-0.703 2.71 0 0.301 0 0.201 0.201-0.301 0.501-1.305 1.907-2.912 3.915-4.417 1.305-1.005 3.916-2.812 7.931-5.321 0.101-0.101 0.302-0.101 0.201-0.101-0.101 0.101-0.502 0.401-1.104 0.803-1.305 0.804-1.606 1.104-1.606 1.306 0 0.2 0 0.301 0.101 0.2 0.1 0 0.703 0.401 0.703 0.502 0 0 0.1 0.101 0.2 0.101 0.101 0 0.301-0.101 0.301-0.101 0-0.101 0.101-0.2 0.301-0.2 0.101-0.101 0.803-0.502 1.305-0.804 1.305-0.803 1.405-0.803 1.104-0.602-0.301 0.301-2.008 1.305-5.121 3.112-4.216 2.51-6.425 4.316-7.228 6.023-0.502 0.903-0.502 1.506-0.101 2.008 0.506 0.7 0.305 0.7-0.598 0.2zm6.425 0.09c-0.201-0.201-0.201-0.602 0.1-0.803 0.301-0.302 0.803-0.503 1.506-0.703 0.804-0.2 1.205-0.101 1.205 0.302 0.101 0.401-0.1 0.603-0.803 1.003-0.703 0.31-1.807 0.51-2.008 0.2zm9.537-0.4c-0.402-0.401 0.101-1.104 1.205-1.706 0.903-0.402 1.506-0.302 1.506 0.301 0 0.706-2.309 1.915-2.711 1.405zm-5.421-1.201c-0.201-0.2-0.201-0.702 0.1-1.004 0.101-0.101 0.803-0.602 1.807-1.104 2.912-1.406 5.12-2.812 7.128-4.519 0.904-0.903 1.306-1.104 1.306-1.004 0 0-0.603 0.502-1.205 1.004-1.205 1.005-1.205 1.104-1.205 1.606h0.301c0.1 0 0.301 0 0.501 0.101 0.301 0.101 0.402 0 1.306-0.702 0.602-0.503 1.305-1.104 1.807-1.507 0.502-0.401 0.402-0.401-0.301 0.302-2.41 2.31-5.522 4.417-8.935 6.224-1.606 0.703-2.308 0.904-2.61 0.603zm9.437-1.305c-0.301-0.201-0.301-0.703 0.101-1.104 0.201-0.301 0.804-0.903 1.406-1.405 1.406-1.104 3.012-2.812 3.815-4.016 0.401-0.503 0.702-0.804 0.702-0.804 0.101 0-0.702 1.104-2.008 2.61-0.703 0.903-0.803 1.104-0.803 1.205 0.1 0.2 0.2 0.2 0.501 0.2 0.201-0.1 0.402-0.1 0.402 0 0.101 0.102 0.301 0 0.401-0.2 0 0 0.101-0.201 0.201-0.302 0.401-0.2 1.506-1.506 2.108-2.409 0.502-0.703 0.703-0.903 0.402-0.301-0.703 1.104-3.112 4.016-4.417 5.12-1.305 1.205-2.409 1.707-2.811 1.406zm-13.051-1.506c-0.201-0.101-0.201-0.603 0-0.803 0.502-0.603 2.41-1.205 2.812-0.804 0.301 0.201 0.201 0.603-0.301 1.004-0.603 0.603-2.21 1.005-2.511 0.603zm36.644-0.802l-0.301-0.402v-21.786l0.301-0.401c0.402-0.301 0.502-0.301 1.004-0.301 0.803 0 1.004 0.1 1.707 1.506 0.301 0.703 1.908 4.016 3.514 7.429 1.707 3.514 3.012 6.324 3.112 6.324 0 0 1.707-3.312 3.614-7.429 3.916-8.232 3.715-7.931 4.618-7.831 0.603 0 1.104 0.201 1.305 0.703s0.201 21.284 0 21.785c-0.201 0.402-0.703 0.703-1.205 0.703-0.402 0-0.502 0-0.903-0.301l-0.3-0.402v-8.132c0-4.417-0.101-8.131-0.101-8.031 0 0-1.406 2.811-2.912 6.225-1.606 3.312-3.012 6.225-3.212 6.425-0.402 0.401-1.305 0.502-1.808 0-0.2-0.2-1.104-2.008-3.212-6.425-1.606-3.414-2.911-6.124-3.012-6.124 0 0-0.101 3.514-0.101 7.931 0 6.325 0 8.031-0.1 8.232-0.201 0.401-0.703 0.603-1.105 0.603-0.4-0.001-0.501-0.001-0.903-0.301zm24.498 0.099c-0.704-0.301-0.603-0.1-0.603-7.831 0-7.629-0.101-7.328 0.501-7.73 0.402-0.301 1.205-0.301 1.606 0 0.603 0.402 0.603 0.301 0.603 7.73 0 7.731 0 7.53-0.703 7.831-0.2 0.201-0.501 0.201-0.704 0.201-0.199 0-0.5 0-0.7-0.201zm7.629 0.101c-0.703-0.401-0.603-0.302-0.603-6.525 0-6.224-0.101-6.425-0.703-6.927-0.703-0.502-0.802-0.703-0.802-1.205 0-1.004 1.205-1.405 2.408-0.803 0.402 0.201 1.205 1.004 1.205 1.205s0 0.201 0.402-0.201c0.501-0.401 1.204-0.803 2.007-1.104 0.602-0.201 0.903-0.301 2.109-0.301 0.903-0.101 1.605 0 2.007 0 1.306 0.301 2.409 1.104 2.912 2.309 0.502 1.104 0.603 1.506 0.502 7.429 0 4.217 0 5.521-0.102 5.622-0.2 0.401-0.701 0.603-1.204 0.603-0.402 0-0.502 0-0.803-0.301l-0.402-0.302-0.101-5.421c0-5.221 0-5.321-0.2-5.923-0.501-1.104-1.506-1.606-3.012-1.506-1.406 0.101-2.61 0.603-3.213 1.506l-0.302 0.402v5.221c0 5.822 0 5.822-0.703 6.123-0.398 0.3-1 0.3-1.402 0.099zm19.479 0c-0.903-0.2-1.708-0.603-2.31-1.104-0.603-0.604-1.003-1.206-1.304-2.209-0.302-0.804-0.302-0.904-0.302-3.916-0.101-2.51 0-3.312 0.1-4.016 0.402-2.409 1.707-4.016 3.615-4.518 0.803-0.201 2.609-0.201 3.414 0 0.301 0.1 0.903 0.301 1.304 0.502s0.703 0.402 0.804 0.402c0 0.101 0.102-1.506 0.102-3.414 0-3.212 0-3.414 0.199-3.715 0.302-0.602 1.104-0.803 1.706-0.501 0.603 0.301 0.603-0.301 0.703 10.039 0 9.236 0 9.336 0.2 9.838 0.202 0.301 0.402 0.502 0.704 0.703 0.503 0.301 0.602 0.702 0.401 1.305-0.201 1.104-2.107 1.004-3.112-0.101l-0.402-0.502-0.501 0.402c-1.105 0.603-2.009 0.903-3.413 0.903-0.9 0.002-1.5 0.002-1.9-0.098zm3.61-2.409c0.302-0.201 0.805-0.401 1.105-0.703l0.704-0.301v-8.734l-0.402-0.301c-0.202-0.2-0.703-0.502-1.105-0.703-0.803-0.401-0.803-0.401-1.807-0.401-0.903 0-1.205 0-1.607 0.2-0.802 0.402-1.304 1.104-1.604 2.209-0.202 0.804-0.301 4.217-0.202 5.723 0.202 1.907 0.805 2.71 2.311 3.111 0.69 0.2 1.9 0.101 2.6-0.1zm21.59 2.409c-0.2-0.101-0.4-0.302-0.501-0.603-0.2-0.401-0.2-0.603-0.2-6.124 0-6.626 0-6.324-0.903-6.927-0.503-0.401-0.703-0.703-0.603-1.205 0.2-1.004 1.706-1.205 2.71-0.402 0.402 0.201 0.903 0.904 1.104 1.305 0 0 0.202-0.1 0.402-0.301 0.502-0.602 1.406-1.205 2.311-1.506 0.501-0.1 0.903-0.201 1.905-0.1 1.105 0 1.407 0 1.708 0.2 1.104 0.603 1.005 2.109-0.301 2.51-0.102 0-0.504 0-1.005-0.101-2.107-0.401-3.715 0.301-4.418 1.908-0.2 0.602-0.2 0.703-0.2 5.722l-0.101 5.12-0.4 0.302c-0.301 0.301-0.402 0.301-0.805 0.301-0.2 0.001-0.5 0.001-0.7-0.099zm13.95 0c-2.107-0.502-3.613-2.008-4.316-4.316-0.2-0.703-0.2-1.005-0.2-3.515 0-2.609 0-2.911 0.2-3.613 0.703-2.309 2.209-3.815 4.218-4.317 1.506-0.401 3.813-0.1 5.019 0.502 0.703 0.402 1.606 1.406 2.009 2.209 0.501 1.004 0.703 1.606 0.703 3.614l0.099 1.706-0.301 0.302-0.2 0.301h-4.517l-4.52 0.101v0.603c0 1.807 0.703 3.312 1.908 3.915 0.501 0.302 0.602 0.302 1.907 0.302 1.405 0 2.008-0.102 3.414-0.704 0.903-0.4 1.404-0.1 1.706 0.704 0.201 0.803-0.4 1.305-1.908 1.807-1.51 0.499-3.91 0.7-5.22 0.399zm5.02-10.24c0-1.305-0.301-2.008-0.903-2.61-1.104-1.205-3.613-1.205-4.719 0-0.803 0.602-1.205 1.907-1.205 3.112v0.603h6.928l-0.09-1.105zm10.24 10.24c-2.107-0.502-3.613-2.008-4.216-4.217-0.301-0.903-0.301-5.622-0.101-6.826 0.501-2.41 2.007-4.116 4.216-4.719 0.805-0.201 2.812-0.201 3.615 0 1.104 0.301 2.007 0.803 2.609 1.506 1.205 1.205 1.606 2.51 1.606 4.919v1.606l-0.301 0.302-0.301 0.301-4.418 0.101h-4.518v0.804c0.102 1.907 0.703 3.111 1.908 3.714 0.501 0.302 0.703 0.302 1.706 0.302 1.204 0.1 2.009-0.102 3.313-0.603 0.904-0.302 1.003-0.302 1.305-0.201 0.602 0.201 0.903 1.004 0.602 1.606-0.2 0.401-1.404 1.004-2.811 1.305-1.01 0.2-3.41 0.301-4.22 0.1zm5.12-9.537c0.1-0.603-0.101-2.008-0.401-2.51-0.402-1.004-1.205-1.506-2.409-1.606-2.209-0.301-3.715 0.904-4.016 3.313-0.102 0.501-0.102 0.903-0.102 1.003 0 0.101 0.502 0.101 3.515 0.101h3.413v-0.301zm-42.37 9.235c-1.003-0.2-1.506-0.501-2.108-1.104-0.501-0.603-0.802-1.104-1.002-2.008-0.402-1.104-0.402-2.31-0.402-6.325v-3.714h-0.903c-1.105 0-1.506-0.301-1.506-1.205-0.101-0.803 0.501-1.104 1.604-1.104h0.805v-1.807c0-1.907 0-2.209 0.603-2.51 0.401-0.301 1.104-0.301 1.505 0 0.502 0.301 0.603 0.703 0.603 2.51v1.707l2.009 0.1c2.207 0 2.409 0.1 2.609 0.603 0.301 0.502 0.2 0.903-0.2 1.305l-0.301 0.401h-4.217l0.101 4.417c0 3.915 0 4.518 0.2 4.818 0.402 1.205 1.206 1.707 2.712 1.707 1.205 0.101 1.605 0.2 1.807 0.702 0.2 0.503 0.1 1.005-0.301 1.406l-0.301 0.401-1.306-0.101c-0.98 0.002-1.48 0.002-1.99-0.199zm-101.39-0.802c-0.201-0.201-0.201-0.604 0-1.005 0.101-0.1 0.703-0.502 1.405-0.903 0.603-0.401 1.808-1.005 2.51-1.506 0.702-0.402 1.305-0.703 1.305-0.703s-0.803 0.603-2.008 1.306c-0.402 0.2-0.703 0.502-0.703 0.702-0.101 0.201-0.101 0.301 0.1 0.301s0.402 0 0.502 0.102c0.201 0.1 0.301 0.1 0.502 0.1 0.1-0.1 0.301-0.1 0.301-0.1h0.201c0-0.102 0-0.201 0.101-0.102 0.301 0 0.501-0.1 1.505-0.803 1.506-0.903 1.406-0.903 1.305-0.803-0.1 0.201-2.008 1.506-3.012 2.008-1.907 1.104-2.911 1.606-3.514 1.606-0.099 0-0.299-0.1-0.5-0.2zm7.63-0.603v-0.2c0.1 0 0.1 0 0.1 0.1 0 0.2 0 0.2-0.1 0.1zm11.144-1.807c0.201-0.603 0.502-1.205 0.502-1.205 0.101 0-0.301 1.104-0.502 1.306 0 0.1-0.1 0.1 0-0.101zm-8.433-1.306c0.502-0.401 0.603-0.502 0.603-0.401 0 0-0.301 0.201-0.502 0.502l-0.501 0.402 0.4-0.503zm2.208-0.1c0.301-0.301 0.502-0.501 0.502-0.501 0.101 0-0.703 0.803-0.803 0.903-0.1 0 0-0.201 0.301-0.402zm-5.321 0.302c0.101-0.201 0.703-0.603 0.703-0.502 0 0-0.201 0.2-0.401 0.301-0.201 0.201-0.402 0.201-0.302 0.201zm9.337-0.402c0-0.201 0.1-0.201 0.1-0.201s0 0 0 0.201c-0.1 0.1-0.201 0.2-0.201 0.2s0.001-0.1 0.101-0.2zm2.811 0.1c0-0.1 0-0.2 0.1-0.2v-0.101s0 0.201 0 0.301c-0.1 0-0.1 0.1-0.1 0zm-1.205-0.2c0-0.101 0-0.201 0.101-0.201v-0.1 0.301c-0.101 0-0.101 0.1-0.101 0zm-10.039-0.201c0.101-0.2 0.201-0.2 0.201-0.2 0.101 0 0 0-0.1 0.2l-0.201 0.201c-0.101 0-0.001-0.101 0.1-0.201zm-2.51-0.201s0.1-0.101 0.301-0.201c0.1-0.2 0.301-0.2 0.301-0.2s-0.201 0.1-0.301 0.301c-0.201 0.1-0.301 0.1-0.301 0.1zm11.345-0.301c0.1-0.2 0.201-0.301 0.201-0.301s0 0.101-0.101 0.301c-0.1 0.101-0.201 0.302-0.201 0.302s0-0.202 0.101-0.302zm-8.132-0.1c0.1-0.101 0.2-0.201 0.2-0.201 0.101 0 0 0.101-0.1 0.201-0.201 0.1-0.301 0.301-0.301 0.301-0.1 0 0-0.201 0.201-0.301zm4.417 0.2s0-0.101 0.1-0.2c0.201-0.101 0.201-0.101 0.1 0.1-0.2 0.1-0.2 0.201-0.2 0.1zm0.402-0.501s0-0.101 0.101-0.201c0.201-0.101 0.201-0.101 0.1 0.101-0.201 0.1-0.201 0.2-0.201 0.1zm-4.016-0.402c0.201-0.301 0.401-0.401 0.401-0.401 0.1 0-0.1 0.101-0.301 0.401-0.201 0.201-0.401 0.402-0.401 0.402-0.101 0 0.1-0.201 0.301-0.402zm7.63 0.302c0-0.101 0-0.201 0.101-0.302 0.1-0.201 0.1-0.301 0.1-0.201 0 0.101 0 0.201-0.1 0.402-0.101 0.101-0.101 0.201-0.101 0.101zm-5.12-0.403c0.101-0.2 0.201-0.2 0.201-0.2 0.1 0 0 0-0.1 0.2l-0.201 0.201c-0.101 0 0-0.1 0.1-0.201zm6.626-0.2v-0.101 0.2-0.099zm-11.244 0s0-0.101 0.101-0.201c0.201-0.101 0.201-0.101 0.1 0.101-0.201 0.1-0.201 0.2-0.201 0.1zm12.549-0.502v-0.101 0.2-0.099zm-8.835-0.804c0.101-0.1 0.201-0.2 0.201-0.2 0.101 0 0 0.101-0.1 0.2-0.201 0.101-0.301 0.301-0.301 0.301-0.101 0-0.001-0.2 0.2-0.301zm-9.638 0.101c0.1-0.2 0.502-0.401 0.502-0.301 0 0-0.201 0.101-0.301 0.2l-0.201 0.101zm18.674-0.401v-0.201 0.302-0.101zm-15.059-0.101s0-0.101 0.101-0.201c0.201-0.101 0.201-0.101 0.1 0.101-0.201 0.1-0.201 0.201-0.201 0.1zm-1.908-0.703s0-0.1 0.1-0.2c0.201-0.101 0.201-0.101 0.1 0.101-0.2 0.099-0.2 0.199-0.2 0.099zm16.063-0.803v-0.2 0.301-0.101zm1.104-0.502v-0.201 0.503-0.302zm-22.889 0.201c0.1-0.201 0.702-0.603 0.702-0.503 0 0-0.201 0.201-0.401 0.302-0.201 0.201-0.402 0.201-0.301 0.201zm1.706-1.305s0-0.101 0.1-0.201c0.201-0.1 0.201-0.1 0.101 0.101-0.201 0.1-0.201 0.2-0.201 0.1zm-3.614-0.402c0.1-0.201 0.2-0.201 0.2-0.201 0.101 0 0 0-0.1 0.201-0.1 0.101-0.201 0.201-0.201 0.201-0.1 0 0-0.1 0.101-0.201zm0.602-0.501s0-0.101 0.101-0.201c0.201-0.101 0.201-0.101 0.101 0.101-0.202 0.1-0.202 0.2-0.202 0.1zm-1.606-0.904s0-0.101 0.101-0.201c0.201-0.101 0.201-0.101 0.1 0.1-0.201 0.101-0.201 0.201-0.201 0.101zm0.502-0.402s0-0.1 0.1-0.201c0.201-0.101 0.201-0.101 0.101 0.101-0.201 0.1-0.201 0.201-0.201 0.1zm1.907-0.401c-0.2-0.201-0.2-0.201 0 0 0.101 0.1 0.201 0.201 0.101 0.201 0 0-0.101-0.101-0.101-0.201zm-0.702-0.201h0.301s0 0-0.101 0h-0.2zm1.706-0.301h0.301-0.101-0.2zm-4.217-3.112c0.101-0.201 0.302-0.301 0.302-0.301 0.1 0-0.101 0.101-0.201 0.301-0.201 0.201-0.402 0.401-0.402 0.401-0.1 0 0.101-0.201 0.301-0.401zm-2.309-0.502c0.301-0.201 0.502-0.402 0.502-0.402 0.101 0 0 0-0.402 0.502l-0.501 0.402 0.401-0.502zm1.305-1.205l0.201-0.201c0.101 0 0 0.1-0.101 0.201-0.201 0.101-0.301 0.301-0.301 0.301-0.1 0 0.001-0.201 0.201-0.301zm64.154 0.1c-1.004-0.703-1.004-2.209 0.101-2.811 0.4-0.201 0.903-0.201 1.405 0.1 0.602 0.201 0.802 0.603 0.802 1.205 0.101 0.703-0.2 1.104-0.702 1.506-0.402 0.201-1.204 0.201-1.606 0zm-63.752-0.502s0-0.1 0.101-0.2c0.2-0.101 0.2-0.101 0.101 0.101-0.202 0.099-0.202 0.199-0.202 0.099zm-1.104-1.104c0.1-0.201 0.201-0.201 0.201-0.201 0.1 0 0 0-0.101 0.201-0.1 0.101-0.201 0.201-0.201 0.201-0.1-0.001 0.001-0.101 0.101-0.201zm1.004-0.904c0.1-0.201 0.201-0.201 0.201-0.201 0.101 0 0 0-0.101 0.201-0.1 0.101-0.201 0.201-0.201 0.201-0.1 0 0.001-0.101 0.101-0.201zm-1.607-1.405l0.201-0.201c0.1 0 0 0.101-0.101 0.201-0.201 0.1-0.301 0.301-0.301 0.301-0.1 0 0.001-0.201 0.201-0.301zm-1.004-1.205c0.201-0.301 0.402-0.401 0.402-0.401 0.101 0-0.101 0.1-0.301 0.401-0.201 0.201-0.402 0.401-0.402 0.401-0.1 0 0.101-0.2 0.301-0.401zm-1.104-2.108c0-0.401 0-0.401-0.401-0.502h-0.502 0.402c0.201 0 0.502 0 0.502 0.101 0.201 0.1 0.201 0.602 0.1 0.703-0.101-0.001-0.101-0.102-0.101-0.302zm-1.807 0.1c0.101-0.2 0.502-0.401 0.502-0.301 0 0-0.201 0.101-0.301 0.201l-0.201 0.1zm2.41-1.004c-0.201-0.2 0-0.602 0.301-0.903l0.402-0.401-0.301 0.401c-0.301 0.301-0.401 0.502-0.301 0.703-0.001 0.3-0.001 0.3-0.101 0.2zm1.706-0.301s0-0.101 0.1-0.201c0.201-0.101 0.201-0.101 0.101 0.1-0.201 0.101-0.201 0.202-0.201 0.101zm0.502-1.004c-0.1-0.301-0.1-0.301 0-0.101 0.101 0.101 0.201 0.201 0.101 0.201 0 0.101-0.101 0-0.101-0.1z" fill="#706E73"/>
	<path d="m17.594 103.3c-0.301-0.201-0.201-0.603 0.301-0.804 0.903-0.4 1.606-0.301 1.406 0.302-0.1 0.5-1.305 0.8-1.707 0.5zm7.831-0.1c-0.603-0.302-0.302-0.903 0.502-1.205 0.903-0.301 1.506-0.201 1.506 0.302 0 0.401-0.502 0.803-0.904 0.903-0.201 0-0.501 0.101-0.602 0.101-0.2 0-0.402 0-0.502-0.1zm-4.116-1.11c-0.201-0.201 0-0.704 0.301-0.904 0.602-0.502 1.907-0.803 2.108-0.502 0.401 0.302-0.101 0.903-0.904 1.305-0.501 0.09-1.304 0.19-1.505 0.09zm7.731-0.3c-0.301-0.2-0.301-0.702-0.101-1.003 0.101-0.101 0.703-0.603 1.406-0.903 1.707-1.104 2.51-1.707 4.116-3.313s2.71-3.112 3.614-5.02c0.301-0.603 0.502-1.005 0.502-0.804 0 0.101-0.301 0.603-0.603 1.205-0.201 0.502-0.402 1.004-0.402 1.104 0.101 0 0 0.1 0 0-0.1 0-0.401 0.401-0.301 0.502 0 0.1 0.402 0.1 0.603 0 0.501-0.101 0.703-0.201 0.602-0.301-0.101 0 0-0.102 0 0 0.101 0 0.201-0.102 0.301-0.302 0-0.201 0.101-0.301 0.201-0.301 0 0 0.101-0.102 0.101-0.302 0-0.101 0.101-0.2 0.101-0.101 0 0-0.101 0.402-0.301 0.804-1.104 2.209-2.912 4.518-4.819 6.123-1.807 1.406-3.915 2.712-4.618 2.712-0.101 0-0.302 0-0.402-0.1zm-16.566-0.3c-0.502-0.401 0.301-1.104 1.305-1.004 0.502 0 0.502 0 0.502 0.302 0.1 0.401-0.101 0.602-0.602 0.702-0.502 0.2-1.004 0.2-1.205 0zm-2.61-1.01c-1.606-0.803-4.217-3.514-5.622-5.622-2.108-3.213-3.213-6.927-3.213-10.842 0-3.313 0.603-5.924 2.008-8.835 1.104-2.309 3.112-4.919 4.618-6.125 0.301-0.201 0.301-0.201-0.201 0.301-1.004 1.111-1.305 1.513-1.204 1.513 0.2 0.1 0.1 0.803-0.101 1.104-0.201 0.2-0.101 0.2 0 0.301 0.201 0.101 0.401 0 1.305-0.904 0.603-0.602 1.406-1.305 1.808-1.706 0.401-0.302 0 0.1-0.803 0.903-1.606 1.505-2.711 3.012-3.614 4.618-2.41 4.217-3.012 8.333-2.108 12.75 0.101 0.401 0.201 0.702 0.201 0.702 0.101 0 0.101-0.803 0.201-1.706 0.201-5.723 2.41-10.742 6.426-14.758 1.104-1.104 1.104-1.104 0.2-0.101-1.104 1.104-1.807 2.008-2.309 2.812-0.2 0.301-0.401 0.602-0.401 0.602s0.101 0.101 0.201 0.201c0 0.101 0.1 0.201 0 0.101-0.101 0-0.201 0.101-0.201 0.201l-0.1 0.1c0.1 0 0.201 0 0.201 0.101s0 0.201 0 0.201h0.301c0.101 0.1 0.201 0 0.101 0-0.101-0.1 0-0.1 0.201 0h0.101s0.101-0.201 0.201-0.301c0.201-0.201 0.502-0.603 0.803-0.903 0.402-0.402 1.004-1.104 1.606-1.707l1.004-1.004-1.004 1.104c-1.908 2.008-3.212 3.815-4.216 5.923-1.406 2.811-2.008 5.321-2.109 8.633-0.1 1.606 0.101 3.916 0.201 4.217 0.101 0.101 0.201-0.401 0.201-1.004 0.301-4.417 1.506-8.333 3.715-11.846 0.803-1.205 1.807-2.61 2.61-3.414l0.703-0.703-0.703 0.804c-1.004 1.205-2.208 2.912-2.108 2.912v0.201c-0.1 0.101-0.1 0.201-0.1 0.201 0.1 0 0.1 0 0.1 0.201 0 0.1 0.101 0.201 0.301 0.301l0.301 0.1 0.703-0.702c0.301-0.402 0.803-1.004 1.004-1.205s0 0-0.301 0.502c-1.807 2.108-3.413 4.919-4.116 7.229-0.401 1.205-0.803 3.112-0.904 4.518-0.201 1.405-0.201 4.217 0 4.217 0 0 0.101-0.301 0.101-0.502 0-0.804 0.301-3.012 0.602-4.317 0.904-3.213 2.309-6.124 4.417-8.734 0.502-0.502 1.004-1.205 1.305-1.406 0.301-0.301 0.201-0.201-0.301 0.401-1.004 1.104-1.305 1.506-1.305 1.808 0 0.1 0 0.301-0.101 0.401-0.101 0.201-0.101 0.201 0.101 0.402 0.101 0.201 0.2 0.301 0.2 0.401 0 0.301 0.301 0.1 0.703-0.301 0.201-0.302 0.903-1.104 1.606-1.808 0.703-0.703 0.904-0.904 0.402-0.401-3.715 4.116-5.622 7.73-6.425 12.248-0.301 1.306-0.401 3.213-0.301 3.112 0.101 0 0.201-0.502 0.301-1.004 0.603-3.012 2.41-6.827 4.417-9.337 0.903-1.104 1.907-2.208 2.811-3.011 1.004-0.903 0.903-0.803-0.502 0.602-0.603 0.603-1.104 1.205-1.104 1.305 0 0-0.101 0.201-0.101 0.302s0 0.201 0 0.302c0.101 0 0.201 0.2 0.201 0.301 0 0.2 0 0.301 0.301 0.301s0.402-0.101 0.502-0.101c0-0.101 1.606-1.605 2.008-1.807 0.101-0.1-0.201 0.201-0.703 0.603-2.51 2.409-4.016 4.316-5.221 6.626-1.004 1.807-1.606 3.814-1.807 5.521-0.101 0.903 0.101 0.903 0.301 0 0.301-1.004 0.903-2.61 1.406-3.514 1.405-2.31 3.012-3.915 6.726-6.727 0.703-0.603 1.506-1.104 1.506-1.204 0.101 0 0.201-0.101 0.201 0 0 0-0.402 0.301-0.803 0.602-0.502 0.302-1.104 0.903-1.506 1.205-0.703 0.602-0.703 0.602-0.603 0.803 0.1 0.101 0.301 0.201 0.401 0.201s0.201 0 0.201 0.101c0.1 0.1 0.803 0.1 1.104-0.101 0.502-0.402 2.51-1.808 2.51-1.707 0 0-0.301 0.201-0.703 0.502-1.205 0.803-3.614 2.711-4.718 3.614-1.205 1.004-2.208 2.108-3.012 3.112-1.004 1.305-1.907 3.514-1.807 4.417v0.401l0.201-0.502c0.301-1.003 0.903-1.706 2.108-2.911 1.807-1.807 3.414-2.911 9.738-6.927 0.101-0.101 0.302-0.101 0.201-0.101-0.101 0.101-0.502 0.401-1.104 0.803-1.305 0.804-1.606 1.104-1.606 1.306 0 0.2 0 0.301 0.101 0.2 0.1 0 0.703 0.401 0.703 0.502 0 0 0.1 0.101 0.2 0.101 0.101 0 0.301-0.101 0.301-0.101 0-0.101 0.101-0.2 0.301-0.2 0.101-0.101 0.803-0.502 1.305-0.804 1.305-0.803 1.405-0.803 1.104-0.602-0.301 0.301-2.208 1.405-5.221 3.212-3.012 1.808-5.421 3.514-6.325 4.618-0.501 0.703-1.104 1.808-1.205 2.41-0.101 0.301 0 0.501 0.201 0.903 0.501 0.61 0.501 0.71-0.202 0.3zm6.124 0c-0.301-0.201-0.201-0.602 0.201-0.903 0.703-0.502 2.209-0.803 2.51-0.502 0.401 0.301 0 0.804-0.803 1.204-0.703 0.31-1.707 0.41-1.908 0.2zm9.537-0.4c-0.501-0.302 0.101-1.104 1.205-1.706 0.903-0.402 1.506-0.302 1.506 0.301 0 0.706-2.108 1.805-2.711 1.405zm-5.421-1.201c-0.201-0.301-0.201-0.702 0.1-1.004 0.101-0.101 0.903-0.602 1.908-1.104 2.811-1.406 5.02-2.912 7.027-4.519 0.904-0.903 1.306-1.104 1.306-1.004 0 0-0.603 0.502-1.205 1.004-1.205 1.005-1.205 1.104-1.205 1.606h0.301c0.1 0 0.301 0 0.501 0.101 0.301 0.101 0.402 0 1.306-0.702 0.602-0.503 1.305-1.104 1.807-1.507 0.502-0.401 0.402-0.401-0.301 0.302-2.41 2.31-5.522 4.417-8.935 6.224-1.606 0.804-2.308 0.904-2.61 0.603zm9.337-1.405c-0.201-0.2-0.201-0.603 0.201-1.004 0.201-0.301 0.804-0.903 1.406-1.405 1.406-1.104 3.012-2.812 3.815-4.016 0.401-0.503 0.702-0.804 0.702-0.804 0.101 0-0.702 1.104-2.008 2.61-0.703 0.903-0.803 1.104-0.803 1.205 0.1 0.2 0.2 0.2 0.501 0.2 0.201-0.1 0.402-0.1 0.402 0 0.101 0.102 0.301 0 0.401-0.2 0 0 0.101-0.201 0.201-0.302 0.401-0.2 1.506-1.506 2.108-2.409 0.502-0.703 0.703-0.903 0.402-0.301-0.402 0.602-1.807 2.409-2.812 3.514-1.907 2.008-3.212 3.112-4.016 3.112-0.199 0.001-0.5-0.1-0.5-0.2zm-12.951-1.406c-0.201-0.201-0.201-0.603 0.101-0.803 0.201-0.302 1.205-0.804 1.808-0.903 0.301-0.102 0.501-0.102 0.702 0 0.803 0.301 0.201 1.204-1.104 1.605-0.704 0.302-1.307 0.302-1.507 0.101zm4.016-1.706c-0.201-0.201-0.201-0.604 0-1.005 0.101-0.1 0.703-0.502 1.405-0.903 0.603-0.401 1.808-1.005 2.51-1.506 0.702-0.402 1.305-0.703 1.305-0.703s-0.803 0.603-2.008 1.306c-0.402 0.2-0.703 0.502-0.703 0.702-0.101 0.201-0.101 0.301 0.1 0.301s0.402 0 0.502 0.102c0.201 0.1 0.301 0.1 0.502 0.1 0.1-0.1 0.301-0.1 0.301-0.1h0.201c0-0.102 0-0.201 0.101-0.102 0.301 0 0.501-0.1 1.505-0.803 1.506-0.903 1.406-0.903 1.305-0.803-0.1 0.201-2.008 1.506-3.012 2.008-1.907 1.104-2.911 1.606-3.514 1.606-0.099 0-0.299-0.1-0.5-0.2zm7.63-0.603v-0.2c0.1 0 0.1 0 0.1 0.1 0 0.2 0 0.2-0.1 0.1zm11.144-1.807c0.201-0.603 0.502-1.205 0.502-1.205 0.101 0-0.301 1.104-0.502 1.306 0 0.1-0.1 0.1 0-0.101zm-8.433-1.306c0.502-0.401 0.603-0.502 0.603-0.401 0 0-0.301 0.201-0.502 0.502l-0.501 0.402 0.4-0.503zm2.208-0.1c0.301-0.301 0.502-0.501 0.502-0.501 0.101 0-0.703 0.803-0.803 0.903-0.1 0 0-0.201 0.301-0.402zm-5.321 0.302c0.101-0.201 0.703-0.603 0.703-0.502 0 0-0.201 0.2-0.401 0.301-0.201 0.201-0.402 0.201-0.302 0.201zm9.337-0.402c0-0.201 0.1-0.201 0.1-0.201s0 0 0 0.201c-0.1 0.1-0.201 0.2-0.201 0.2s0.001-0.1 0.101-0.2zm2.811 0.1c0-0.1 0-0.2 0.1-0.2v-0.101s0 0.201 0 0.301c-0.1 0-0.1 0.1-0.1 0zm-1.205-0.2c0-0.101 0-0.201 0.101-0.201v-0.1 0.301c-0.101 0-0.101 0.1-0.101 0zm-10.039-0.201c0.101-0.2 0.201-0.2 0.201-0.2 0.101 0 0 0-0.1 0.2l-0.201 0.201c-0.101 0-0.001-0.101 0.1-0.201zm-2.51-0.201s0.1-0.101 0.301-0.201c0.1-0.2 0.301-0.2 0.301-0.2s-0.201 0.1-0.301 0.301c-0.201 0.1-0.301 0.1-0.301 0.1zm11.345-0.301c0.1-0.2 0.201-0.301 0.201-0.301s0 0.101-0.101 0.301c-0.1 0.101-0.201 0.302-0.201 0.302s0-0.202 0.101-0.302zm-8.132-0.1c0.1-0.101 0.2-0.201 0.2-0.201 0.101 0 0 0.101-0.1 0.201-0.201 0.1-0.301 0.301-0.301 0.301-0.1 0 0-0.201 0.201-0.301zm4.417 0.2s0-0.101 0.1-0.2c0.201-0.101 0.201-0.101 0.1 0.1-0.2 0.1-0.2 0.201-0.2 0.1zm0.402-0.501s0-0.101 0.101-0.201c0.201-0.101 0.201-0.101 0.1 0.101-0.201 0.1-0.201 0.2-0.201 0.1zm-4.016-0.402c0.201-0.301 0.401-0.401 0.401-0.401 0.1 0-0.1 0.101-0.301 0.401-0.201 0.201-0.401 0.402-0.401 0.402-0.101 0 0.1-0.201 0.301-0.402zm7.63 0.302c0-0.101 0-0.201 0.101-0.302 0.1-0.201 0.1-0.301 0.1-0.201 0 0.101 0 0.201-0.1 0.402-0.101 0.101-0.101 0.201-0.101 0.101zm-5.12-0.403c0.101-0.2 0.201-0.2 0.201-0.2 0.1 0 0 0-0.1 0.2l-0.201 0.201c-0.101 0 0-0.1 0.1-0.201zm6.626-0.2v-0.101 0.2-0.099zm-11.244 0s0-0.101 0.101-0.201c0.201-0.101 0.201-0.101 0.1 0.101-0.201 0.1-0.201 0.2-0.201 0.1zm12.549-0.502v-0.101 0.2-0.099zm-8.835-0.804c0.101-0.1 0.201-0.2 0.201-0.2 0.101 0 0 0.101-0.1 0.2-0.201 0.101-0.301 0.301-0.301 0.301-0.101 0-0.001-0.2 0.2-0.301zm-9.638 0.101c0.1-0.2 0.502-0.401 0.502-0.301 0 0-0.201 0.101-0.301 0.2l-0.201 0.101zm18.674-0.401v-0.201 0.302-0.101zm-15.059-0.101s0-0.101 0.101-0.201c0.201-0.101 0.201-0.101 0.1 0.101-0.201 0.1-0.201 0.201-0.201 0.1zm-1.908-0.703s0-0.1 0.1-0.2c0.201-0.101 0.201-0.101 0.1 0.101-0.2 0.099-0.2 0.199-0.2 0.099zm16.063-0.803v-0.2 0.301-0.101zm1.104-0.502v-0.201 0.503-0.302zm-22.889 0.201c0.1-0.201 0.702-0.603 0.702-0.503 0 0-0.201 0.201-0.401 0.302-0.201 0.201-0.402 0.201-0.301 0.201zm1.706-1.305s0-0.101 0.1-0.201c0.201-0.1 0.201-0.1 0.101 0.101-0.201 0.1-0.201 0.2-0.201 0.1zm-3.614-0.402c0.1-0.201 0.2-0.201 0.2-0.201 0.101 0 0 0-0.1 0.201-0.1 0.101-0.201 0.201-0.201 0.201-0.1 0 0-0.1 0.101-0.201zm0.602-0.501s0-0.101 0.101-0.201c0.201-0.101 0.201-0.101 0.101 0.101-0.202 0.1-0.202 0.2-0.202 0.1zm-1.606-0.904s0-0.101 0.101-0.201c0.201-0.101 0.201-0.101 0.1 0.1-0.201 0.101-0.201 0.201-0.201 0.101zm0.502-0.402s0-0.1 0.1-0.201c0.201-0.101 0.201-0.101 0.101 0.101-0.201 0.1-0.201 0.201-0.201 0.1zm1.907-0.401c-0.2-0.201-0.2-0.201 0 0 0.101 0.1 0.201 0.201 0.101 0.201 0 0-0.101-0.101-0.101-0.201zm-0.702-0.201h0.301s0 0-0.101 0h-0.2zm1.706-0.301h0.301-0.101-0.2zm-4.217-3.112c0.101-0.201 0.302-0.301 0.302-0.301 0.1 0-0.101 0.101-0.201 0.301-0.201 0.201-0.402 0.401-0.402 0.401-0.1 0 0.101-0.201 0.301-0.401zm-2.309-0.502c0.301-0.201 0.502-0.402 0.502-0.402 0.101 0 0 0-0.402 0.502l-0.501 0.402 0.401-0.502zm1.305-1.205l0.201-0.201c0.101 0 0 0.1-0.101 0.201-0.201 0.101-0.301 0.301-0.301 0.301-0.1 0 0.001-0.201 0.201-0.301zm0.402-0.402s0-0.1 0.101-0.2c0.2-0.101 0.2-0.101 0.101 0.101-0.202 0.099-0.202 0.199-0.202 0.099zm-1.104-1.104c0.1-0.201 0.201-0.201 0.201-0.201 0.1 0 0 0-0.101 0.201-0.1 0.101-0.201 0.201-0.201 0.201-0.1-0.001 0.001-0.101 0.101-0.201zm1.004-0.904c0.1-0.201 0.201-0.201 0.201-0.201 0.101 0 0 0-0.101 0.201-0.1 0.101-0.201 0.201-0.201 0.201-0.1 0 0.001-0.101 0.101-0.201zm-1.607-1.405l0.201-0.201c0.1 0 0 0.101-0.101 0.201-0.201 0.1-0.301 0.301-0.301 0.301-0.1 0 0.001-0.201 0.201-0.301zm-1.004-1.205c0.201-0.301 0.402-0.401 0.402-0.401 0.101 0-0.101 0.1-0.301 0.401-0.201 0.201-0.402 0.401-0.402 0.401-0.1 0 0.101-0.2 0.301-0.401zm-1.104-2.108c0-0.401 0-0.401-0.401-0.502h-0.502 0.402c0.201 0 0.502 0 0.502 0.101 0.201 0.1 0.201 0.602 0.1 0.703-0.101-0.001-0.101-0.102-0.101-0.302zm-1.807 0.1c0.101-0.2 0.502-0.401 0.502-0.301 0 0-0.201 0.101-0.301 0.201l-0.201 0.1zm2.41-1.004c-0.201-0.2 0-0.602 0.301-0.903l0.402-0.401-0.301 0.401c-0.301 0.301-0.401 0.502-0.301 0.703-0.001 0.3-0.001 0.3-0.101 0.2zm1.706-0.301s0-0.101 0.1-0.201c0.201-0.101 0.201-0.101 0.101 0.1-0.201 0.101-0.201 0.202-0.201 0.101zm0.502-1.004c-0.1-0.301-0.1-0.301 0-0.101 0.101 0.101 0.201 0.201 0.101 0.201 0 0.101-0.101 0-0.101-0.1z" fill="#A11B88"/>
	<path d="m17.594 103.3c-0.301-0.201-0.201-0.603 0.301-0.804 0.903-0.4 1.606-0.301 1.406 0.302-0.1 0.5-1.305 0.8-1.707 0.5zm7.831-0.1c-0.603-0.302-0.302-0.903 0.502-1.205 0.903-0.301 1.506-0.201 1.506 0.302 0 0.401-0.502 0.803-0.904 0.903-0.201 0-0.501 0.101-0.602 0.101-0.2 0-0.402 0-0.502-0.1zm-4.116-1.11c-0.201-0.201 0-0.704 0.301-0.904 0.602-0.502 1.907-0.803 2.108-0.502 0.401 0.302-0.101 0.903-0.904 1.305-0.501 0.09-1.304 0.19-1.505 0.09zm7.731-0.3c-0.201-0.1-0.201-0.301-0.201-0.501 0-0.502 0.201-0.703 1.607-1.507 0.301-0.2 0.401-0.2 0.301-0.1-0.201 0.201-0.502 0.301-0.602 0.401-0.502 0.2-1.104 0.904-1.104 1.205 0 0.1 0 0.1 0.1 0.1h0.201c0 0.101 0.2 0.101 0.301 0.101s0.201 0 0.301 0.101c0.201 0 0.402-0.101 0.402-0.201s0-0.1 0.101-0.1c0.1 0 0.501-0.101 0.903-0.301 0.401-0.302 0.803-0.402 0.803-0.402 0 0.101-1.406 0.903-1.908 1.104-0.603 0.31-0.904 0.31-1.205 0.11zm-16.566-0.3c-0.502-0.401 0.301-1.104 1.305-1.004 0.502 0 0.502 0 0.502 0.302 0.1 0.401-0.101 0.602-0.602 0.702-0.502 0.2-1.004 0.2-1.205 0zm-2.61-1.01c-0.703-0.301-1.907-1.306-2.911-2.309-3.112-3.013-4.92-6.626-5.723-11.043-0.402-2.31-0.201-5.924 0.301-7.73 0.1-0.402 0.1-0.402 0.1-0.101 0 0.101-0.1 0.501-0.1 0.803 0 0.201-0.101 0.603-0.201 0.803-0.1 0.301 0 0.402 0.101 0.603 0.101 0.101 0.201 0.402 0.101 0.703 0 0.402 0 0.402 0.602 0.402 0.101 0 0.201-0.201 0.201-0.402s0-0.501 0.101-0.501v0.602c-0.101 1.104-0.101 3.112 0 4.116 0.201 1.104 0.502 2.409 0.603 2.409 0 0 0.1-0.803 0.1-1.807 0.101-1.808 0.301-3.916 0.301-2.812v0.804c-0.101 0.401-0.101 0.401 0.402 1.004 0.201 0.301 0.301 0.301 0.301 0.1v-0.702c0.101-0.201 0.201-0.502 0.201-0.703 0-0.101 0.101-0.301 0.101-0.201 0 0 0 0.402-0.101 1.004-0.201 1.306-0.301 4.017-0.201 5.522 0.101 0.702 0.201 1.305 0.201 1.305 0.101 0.101 0.201-0.401 0.201-1.104 0.1-1.706 0.603-4.818 0.703-4.618 0.1 0 0 0.302 0 0.703l-0.201 0.603 0.301 0.301c0.201 0.201 0.402 0.201 0.402 0.201v-0.101c0.101 0 0.201-0.301 0.301-0.703 0.101-0.301 0.201-0.602 0.201-0.602s-0.101 0.501-0.201 1.204-0.301 1.707-0.301 2.209c-0.201 1.405-0.201 4.217 0 4.217 0 0 0.101-0.301 0.101-0.502 0-0.804 0.301-3.012 0.602-4.317 0.201-0.702 0.402-1.305 0.402-1.305v0.803l-0.101 0.903h0.402c0.301 0 0.301 0 0.502-0.401 0-0.201 0.1-0.401 0.201-0.401 0 0-0.101 0.401-0.301 0.903-0.101 0.603-0.401 1.606-0.502 2.31-0.201 1.405-0.401 3.514-0.301 3.312 0.101 0 0.201-0.502 0.301-1.004 0.301-1.405 1.506-4.919 1.606-4.719 0 0 0 0.201-0.101 0.401-0.1 0.101-0.1 0.402-0.1 0.503 0 0.1 0 0.2-0.101 0.2-0.1 0 0.201 0.502 0.301 0.603 0.1 0 0.201 0 0.201-0.101 0.101-0.101 0.201-0.101 0.201-0.101 0 0.101 0.101-0.101 0.201-0.302 0.401-0.501 0.401-0.4 0.1 0.201-0.703 1.306-1.405 3.514-1.506 4.92-0.101 0.903 0.101 0.903 0.301 0 0.301-1.004 0.903-2.61 1.406-3.514 0.501-0.804 1.204-1.808 1.305-1.808 0 0-0.101 0.2-0.301 0.401-0.502 0.703-0.603 0.903-0.502 1.104v0.201c-0.1 0-0.201 0-0.201 0.101-0.101 0.201 0.201 0.502 0.402 0.401 0.1-0.101 0.201 0 0.1 0-0.201 0.301 0.302 0 0.803-0.502l0.603-0.603-0.502 0.603c-1.305 1.606-2.309 3.815-2.209 4.919v0.401l0.201-0.502c0.1-0.301 0.301-0.803 0.501-1.104 0.402-0.603 2.008-2.41 2.711-2.912 0.301-0.2 0.301-0.101-0.201 0.302-0.602 0.603-0.803 0.903-0.502 0.803 0.502-0.2 0.602-0.2 0.602 0 0 0.201 0.101 0.201 0.201 0.201 0-0.101 0.101 0 0 0.1-0.101 0.201 0 0.201 0.401-0.1 0.1-0.201 0.401-0.302 0.401-0.302 0.101 0 0.201-0.1 0.201-0.1 0-0.101 0.101-0.201 0.201-0.201 0.301-0.201 0.301-0.201 0.101 0-0.101 0.101-0.703 0.502-1.205 1.004-1.205 0.904-2.008 1.808-2.41 2.711-0.502 1.003-0.502 1.405-0.201 2.008 0.502 0.61 0.502 0.71-0.201 0.3zm6.124 0c-0.301-0.201-0.201-0.602 0.201-0.903 0.703-0.502 2.209-0.803 2.51-0.502 0.401 0.301 0 0.804-0.803 1.204-0.703 0.31-1.707 0.41-1.908 0.2zm16.566-0.2c0.1-0.2 0.702-0.602 0.702-0.502 0 0-0.201 0.201-0.401 0.302-0.201 0.2-0.402 0.2-0.301 0.2zm-7.029-0.2c-0.201-0.101-0.201-0.502 0.101-0.803l0.201-0.302-0.201 0.302c-0.201 0.501-0.101 0.803 0.301 0.903h0.101c-0.201 0-0.402 0-0.503-0.1zm0.804 0c0-0.101 1.004-0.401 1.004-0.401s-0.201 0.1-0.301 0.201c-0.302 0.103-0.804 0.3-0.703 0.2zm7.128-0.498c0.1-0.201 0.201-0.201 0.201-0.201 0.101 0 0 0-0.101 0.201-0.1 0.101-0.201 0.2-0.201 0.2-0.1 0 0-0.099 0.101-0.2zm0.602-0.502c0.101-0.201 0.201-0.201 0.201-0.201 0.1 0 0 0-0.101 0.201-0.101 0.1-0.201 0.201-0.201 0.201-0.1 0 0-0.101 0.101-0.201zm-13.955-0.201c-0.301-0.401-0.101-1.004 0.602-1.405 0.301-0.2 0.301-0.2 0.1 0-0.501 0.401-0.702 0.603-0.702 1.004 0 0.302 0.1 0.401 0.502 0.502h0.401-0.401c-0.2-0.001-0.401-0.001-0.502-0.101zm7.932-0.1l0.101-0.101c0.1 0.101 0 0.2 0 0.301-0.101 0-0.101 0-0.101-0.2zm-6.626 0c0.1-0.101 0.602-0.302 1.004-0.503 0.401-0.2 0.803-0.301 0.803-0.301 0.101 0-1.907 1.004-2.008 0.903-0.101 0.001-0.001 0.001 0.201-0.099zm5.22-0.301c0.101-0.1 0.201-0.1 0.301-0.1s0 0-0.101 0.1c-0.201 0.101-0.301 0.101-0.401 0.101-0.1-0.001 0-0.001 0.201-0.101zm1.406-0.1c0-0.102-0.201-0.201-0.402-0.201h-0.401 0.401c0.301 0 0.703 0.201 0.502 0.301 0 0-0.1 0-0.1-0.1zm4.818-0.201s0-0.101 0.1-0.201c0.201-0.101 0.201-0.101 0.101 0.101-0.201 0.1-0.201 0.199-0.201 0.1zm-9.135-0.502s0-0.101 0.101-0.101c0.1 0 0.1 0 0.1 0.101-0.101 0-0.201 0.099-0.201 0zm-2.309-0.503c0-0.1 0.1-0.1 0.201-0.1s0 0 0 0.1h-0.301s-0.001 0 0.1 0zm-4.92-1.104c-0.201-0.101-0.201-0.603 0-0.803 0.201-0.201 0.201-0.102 0 0.1v0.502c0 0.201 0.101 0.201 0.502 0.302h0.401-0.401c-0.201 0-0.502 0-0.502-0.101zm1.104 0h0.201-0.1-0.101zm0.503-0.1c0-0.101 0.1-0.101 0.201-0.101s0 0 0 0.101h-0.301s-0.001 0 0.1 0zm-3.916-1.707s0-0.1 0.101-0.2c0.201-0.101 0.201-0.101 0.1 0.101-0.201 0.099-0.201 0.2-0.201 0.099zm-1.105-0.904s0-0.1 0.101-0.201c0.201-0.1 0.201-0.1 0.101 0.102-0.202 0.099-0.202 0.2-0.202 0.099zm-0.702-1.707c0.302-0.301 0.502-0.501 0.502-0.501 0.1 0-0.101 0.2-0.402 0.501-0.301 0.201-0.502 0.503-0.502 0.503-0.1 0 0.1-0.301 0.402-0.503zm-2.711-0.702v-0.201c0.1 0 0.1 0 0.1 0.101-0.1 0.201-0.1 0.201-0.1 0.1zm-0.904-1.004c0-0.101 0.101-0.101 0.101-0.101 0.101 0 0 0.101 0 0.201-0.101 0.101-0.101 0.101-0.101-0.1zm3.213 0s0-0.101 0.1-0.201c0.201-0.101 0.201-0.101 0.101 0.101-0.201 0.1-0.201 0.201-0.201 0.1zm-4.015-0.802c0-0.101 0-0.201 0.1-0.201v-0.101s0 0.201 0 0.302c-0.1 0-0.1 0.1-0.1 0zm0.401-1.005c0-0.1 0-0.2 0.101-0.2v-0.101s0 0.201 0 0.301c-0.101 0-0.101 0.1-0.101 0zm-1.004-0.904v-0.2c0.1 0 0.1 0 0.1 0.101-0.1 0.2-0.1 0.2-0.1 0.099zm-1.004-0.502v-0.101 0.201-0.1zm-1.004-0.401c0-0.101 0-0.301 0.101-0.401v0 0.401c-0.101 0.101-0.101 0.101-0.101 0zm0.201-0.804v-0.1 0.2-0.1zm-1.004-1.404v-0.1 0.2-0.1zm-1.004-0.603c0-0.1 0-0.301 0.1-0.401v-0.301 0.301 0.401c-0.1 0.201-0.1 0.201-0.1 0zm0.201-0.903v-0.101 0.201-0.1zm0.2-0.804v-0.1 0.201-0.101zm-1.405-0.602c0-0.201 0-0.401 0.1-0.501v0 0.501l-0.1 0.301v-0.301zm0.201-0.903v-0.101 0.201-0.1zm0.1-0.402v-0.101 0.201-0.1zm-1.104-1.205v-0.1 0.201-0.101zm0.201-0.602c0-0.1 0-0.301 0.1-0.502 0.201-0.401 0.201-0.2 0 0.301-0.1 0.101-0.1 0.201-0.1 0.201z" fill="#752787"/>
</svg>
