<?xml version="1.0" encoding="UTF-8" standalone="no"?>
<!-- Generator: Adobe Illustrator 16.0.0, SVG Export Plug-In . SVG Version: 6.00 Build 0)  -->
<!DOCTYPE svg  PUBLIC '-//W3C//DTD SVG 1.1//EN'  'http://www.w3.org/Graphics/SVG/1.1/DTD/svg11.dtd' [
	<!ENTITY st0 "fill:#4F4E50;">
	<!ENTITY st1 "fill:#B62C59;">
	<!ENTITY st2 "fill:#9D9EA1;">
	<!ENTITY st3 "fill:#3475A9;">
	<!ENTITY st4 "fill:#779D45;">
]>
<svg id="Layer_1" style="enable-background:new 0 0 168 168" xmlns="http://www.w3.org/2000/svg" xml:space="preserve" height="168px" viewBox="0 0 168 168" width="168px" version="1.1" y="0px" x="0px" xmlns:xlink="http://www.w3.org/1999/xlink">
	<path d="m18.6 62.6l9.8 18.9 9.8-18.9s-4.3-2.4-9.8-2.4-9.8 2.4-9.8 2.4" fill="#B62C59"/>
	<path d="m18.6 105.3l9.8-18.9 9.8 18.9s-4.3 2.4-9.8 2.4c-5.5 0.1-9.8-2.4-9.8-2.4" fill="#779D45"/>
	<path d="m7.1 93.9l18.9-9.8-18.9-9.9s-2.4 4.3-2.4 9.8c0 5.6 2.4 9.9 2.4 9.9" fill="#3475A9"/>
	<path d="m74.9 107.1h-23.2c-3.8 0-6.6-1-8.6-3s-3-4.9-3-8.6v-23.2c0-3.7 1-6.5 3-8.5s4.9-3 8.6-3h23.2v11.6h-19.2c-1.6 0-2.7 0.3-3.2 0.8s-0.8 1.6-0.8 3.3l-0.1 16.8c0 1.1 0.4 1.8 1.3 2.1 0.3 0.1 1.2 0.1 2.8 0.1h7.6v-17.4h11.6v29z" fill="#4F4E50"/>
	<polygon points="125.4 60.7 108 107.1 95.3 107.1 77.9 60.7 90.1 60.7 101.7 91.6 113.2 60.7" fill="#4F4E50"/>
	<polygon points="107.3 60.7 101.7 76.3 95.9 60.7" fill="#9D9EA1"/>
	<path d="m163.3 95.5c0 3.7-1 6.6-3 8.6s-4.9 3-8.6 3h-23.2v-11.6h19.2c1.6 0 2.5 0 2.8-0.1 0.9-0.3 1.3-1 1.3-2.1v-16.9c0-1.7-0.3-2.8-0.8-3.3s-1.6-0.8-3.3-0.8h-7.6v17.4h-11.6v-29h23.2c3.7 0 6.5 1 8.6 3 2 2 3 4.9 3 8.5v23.3z" fill="#4F4E50"/>
</svg>
