<?xml version="1.0" encoding="utf-8"?>
<!-- Generator: Adobe Illustrator 16.0.0, SVG Export Plug-In . SVG Version: 6.00 Build 0)  -->
<!DOCTYPE svg PUBLIC "-//W3C//DTD SVG 1.1//EN" "http://www.w3.org/Graphics/SVG/1.1/DTD/svg11.dtd">
<svg version="1.1" id="Layer_1" xmlns="http://www.w3.org/2000/svg" xmlns:xlink="http://www.w3.org/1999/xlink" x="0px" y="0px"
	 width="168px" height="168px" viewBox="0 0 168 168" enable-background="new 0 0 168 168" xml:space="preserve">
<linearGradient id="SVGID_1_" gradientUnits="userSpaceOnUse" x1="13.3843" y1="100.9043" x2="13.3843" y2="64.7827">
	<stop  offset="0.1783" style="stop-color:#0556D3"/>
	<stop  offset="0.3582" style="stop-color:#0449C7"/>
	<stop  offset="0.6869" style="stop-color:#0228A9"/>
	<stop  offset="1" style="stop-color:#000387"/>
</linearGradient>
<polygon fill="url(#SVGID_1_)" points="15.2,64.8 23.5,64.8 23.5,100.9 15.2,100.9 15.2,86.2 11.6,86.2 11.6,100.9 3.2,100.9 
	3.2,64.8 11.6,64.8 11.6,79.5 15.2,79.5 "/>
<linearGradient id="SVGID_2_" gradientUnits="userSpaceOnUse" x1="37.2505" y1="100.9043" x2="37.2505" y2="64.7827">
	<stop  offset="0.1783" style="stop-color:#0556D3"/>
	<stop  offset="0.3582" style="stop-color:#0449C7"/>
	<stop  offset="0.6869" style="stop-color:#0228A9"/>
	<stop  offset="1" style="stop-color:#000387"/>
</linearGradient>
<polygon fill="url(#SVGID_2_)" points="39.1,64.8 47.8,64.8 47.8,95.4 42.6,100.9 32.6,100.9 26.7,95.4 26.7,64.8 35.4,64.8 
	35.4,94.2 39.1,94.2 "/>
<linearGradient id="SVGID_3_" gradientUnits="userSpaceOnUse" x1="61.7866" y1="100.9062" x2="61.7866" y2="64.7822">
	<stop  offset="0.1783" style="stop-color:#0556D3"/>
	<stop  offset="0.3582" style="stop-color:#0449C7"/>
	<stop  offset="0.6869" style="stop-color:#0228A9"/>
	<stop  offset="1" style="stop-color:#000387"/>
</linearGradient>
<polygon fill="url(#SVGID_3_)" points="59.4,100.9 51.5,100.9 51.5,64.8 59,64.8 64.2,81.9 64.2,64.8 72.1,64.8 72.1,100.9 
	65,100.9 59.4,83.9 "/>
<linearGradient id="SVGID_4_" gradientUnits="userSpaceOnUse" x1="86.4512" y1="100.9043" x2="86.4512" y2="64.7822">
	<stop  offset="0.1783" style="stop-color:#0556D3"/>
	<stop  offset="0.3582" style="stop-color:#0449C7"/>
	<stop  offset="0.6869" style="stop-color:#0228A9"/>
	<stop  offset="1" style="stop-color:#000387"/>
</linearGradient>
<path fill="url(#SVGID_4_)" d="M90.9,64.8l5.9,5.1v25.5l-5.5,5.5H76.1V64.8H90.9z M84.4,93.8h3.6V71.2h-3.6V93.8z"/>
<linearGradient id="SVGID_5_" gradientUnits="userSpaceOnUse" x1="110.1221" y1="100.9043" x2="110.1221" y2="64.7827">
	<stop  offset="0.1783" style="stop-color:#0556D3"/>
	<stop  offset="0.3582" style="stop-color:#0449C7"/>
	<stop  offset="0.6869" style="stop-color:#0228A9"/>
	<stop  offset="1" style="stop-color:#000387"/>
</linearGradient>
<polygon fill="url(#SVGID_5_)" points="112,64.8 120.7,64.8 120.7,95.4 115.5,100.9 105.5,100.9 99.6,95.4 99.6,64.8 108.3,64.8 
	108.3,94.2 112,94.2 "/>
<linearGradient id="SVGID_6_" gradientUnits="userSpaceOnUse" x1="134.8369" y1="100.9043" x2="134.8369" y2="64.7822">
	<stop  offset="0.1783" style="stop-color:#0556D3"/>
	<stop  offset="0.3582" style="stop-color:#0449C7"/>
	<stop  offset="0.6869" style="stop-color:#0228A9"/>
	<stop  offset="1" style="stop-color:#000387"/>
</linearGradient>
<path fill="url(#SVGID_6_)" d="M133,86.2v14.7h-8.3V64.8h14.4l5.9,5.1v9.6l-4.4,3.1l4.4,3.6v14.7h-8.3V86.2H133z M133,79.5h3.6v-8
	H133V79.5z"/>
<linearGradient id="SVGID_7_" gradientUnits="userSpaceOnUse" x1="157.0195" y1="100.9043" x2="157.0195" y2="64.7827">
	<stop  offset="0.1783" style="stop-color:#0556D3"/>
	<stop  offset="0.3582" style="stop-color:#0449C7"/>
	<stop  offset="0.6869" style="stop-color:#0228A9"/>
	<stop  offset="1" style="stop-color:#000387"/>
</linearGradient>
<polygon fill="url(#SVGID_7_)" points="164.8,64.8 164.8,71.5 158,71.5 158,78.3 163.6,78.3 163.6,85.1 158,85.1 158,94.2 
	164.8,94.2 164.8,100.9 149.3,100.9 149.3,64.8 "/>
</svg>
