<?xml version="1.0" encoding="UTF-8" standalone="no"?>
<!-- Generator: Adobe Illustrator 16.0.0, SVG Export Plug-In . SVG Version: 6.00 Build 0)  -->
<!DOCTYPE svg  PUBLIC '-//W3C//DTD SVG 1.1//EN'  'http://www.w3.org/Graphics/SVG/1.1/DTD/svg11.dtd'>
<svg id="Layer_1" xmlns="http://www.w3.org/2000/svg" xml:space="preserve" height="168px" viewBox="0 0 168 168" width="168px" version="1.1" y="0px" x="0px" xmlns:xlink="http://www.w3.org/1999/xlink" enable-background="new 0 0 168 168">
	<path d="m55.5 99.5l12.8-15.6h-21.8l4.3-5.2h21.8l4.3-5.2h-30.3l-12.8 15.6h21.7l-4.3 5.2h-21.8l-4.3 5.2h30.4zm-26.1-26h8.6l-12.8 15.6h-8.6l12.8-15.6zm30.4-10.4l-21.8-0.1-4.3 5.2h21.8l4.3-5.1zm-21.8-10.4h21.8l-4.3 5.2h-13.2l-4.3-5.2z" fill="#05357C"/>
	<path d="m59.8 52.7l-4.3-5.2h-30.3l12.8 15.5h21.8l4.3 5.2h-21.8l4.3 5.2h30.3l-12.8-15.5h-21.8l-4.3-5.2h21.8zm-21.8 20.8h-8.6l-4.3-5.2h8.5l4.4 5.2zm-8.5 20.8l-4.3-5.2h21.8l4.3 5.2h-21.8zm38.9-10.4h-21.9l4.3-5.2h13.2l4.4 5.2z" fill="#68BBFD"/>
		<path d="m121.7 54.8v8.8h-14.7c-1.5 0-1.5 5.4 0 5.4h8.3c10.9 0 10.9 23 0 23h-16v-8.8h14.7c1.5 0 1.5-5.4 0-5.4h-8.3c-10.9 0-10.9-23 0-23h16z" fill="#05357C"/>
	<rect y="54.8" x="84.4" height="37.3" width="8.9" fill="#05357C"/>
		<path d="m149.5 54.8v8.8h-14.7c-1.5 0-1.5 5.4 0 5.4h8.3c10.9 0 10.9 23 0 23h-16v-8.8h14.7c1.5 0 1.5-5.4 0-5.4h-8.3c-10.9 0-10.9-23 0-23h16z" fill="#05357C"/>
	<rect y="112.7" x="2.2" height="7.7" width="1" fill="#05357C"/>
		<path d="m5.2 120.4v-7.7h1.1l2.5 3.9c0.6 0.9 1 1.7 1.4 2.5-0.1-1-0.1-2-0.1-3.2v-3.2h1v7.7h-1l-2.5-3.9c-0.5-0.9-1.1-1.7-1.5-2.6 0.1 1 0.1 1.9 0.1 3.2v3.3h-1z" fill="#05357C"/>
	<polygon points="14.6 113.6 12.2 113.6 12.2 112.7 18 112.7 18 113.6 15.6 113.6 15.6 120.4 14.6 120.4" fill="#05357C"/>
	<polygon points="23.2 116.8 20.1 116.8 20.1 119.6 23.5 119.6 23.5 120.4 19.1 120.4 19.1 112.7 23.3 112.7 23.3 113.6 20.1 113.6 20.1 116 23.2 116" fill="#05357C"/>
	<polygon points="25.1 112.7 26.1 112.7 26.1 119.6 29.4 119.6 29.4 120.4 25.1 120.4" fill="#05357C"/>
	<polygon points="30.8 112.7 31.8 112.7 31.8 119.6 35.2 119.6 35.2 120.4 30.8 120.4" fill="#05357C"/>
	<rect y="112.7" x="36.5" height="7.7" width="1" fill="#05357C"/>
		<path d="m45.5 120.1c-0.5 0.2-1.4 0.4-2.4 0.4-1.2 0-2.2-0.3-2.9-1-0.7-0.6-1.1-1.7-1.1-2.9 0-2.3 1.6-4 4.2-4 0.9 0 1.6 0.2 2 0.4l-0.3 0.8c-0.4-0.2-0.9-0.3-1.7-0.3-1.9 0-3.2 1.2-3.2 3.1 0 2 1.2 3.1 3 3.1 0.7 0 1.1-0.1 1.4-0.2v-2.3h-1.6v-0.8h2.6v3.7z" fill="#05357C"/>
	<polygon points="51.3 116.8 48.3 116.8 48.3 119.6 51.7 119.6 51.7 120.4 47.3 120.4 47.3 112.7 51.5 112.7 51.5 113.6 48.3 113.6 48.3 116 51.3 116" fill="#05357C"/>
		<path d="m53.2 120.4v-7.7h1.1l2.5 3.9c0.6 0.9 1 1.7 1.4 2.5-0.1-1-0.1-2-0.1-3.2v-3.2h1v7.7h-1l-2.5-3.9c-0.5-0.9-1.1-1.7-1.5-2.6 0.1 1 0.1 1.9 0.1 3.2v3.3h-1z" fill="#05357C"/>
	<polygon points="62.6 113.6 60.2 113.6 60.2 112.7 66 112.7 66 113.6 63.6 113.6 63.6 120.4 62.6 120.4" fill="#05357C"/>
		<path d="m69.7 119.2c0.5 0.3 1.1 0.5 1.8 0.5 1 0 1.6-0.5 1.6-1.3 0-0.7-0.4-1.1-1.5-1.5-1.3-0.5-2.1-1.1-2.1-2.2 0-1.2 1-2.1 2.5-2.1 0.8 0 1.4 0.2 1.7 0.4l-0.3 0.8c-0.2-0.1-0.8-0.4-1.5-0.4-1.1 0-1.5 0.6-1.5 1.2 0 0.7 0.5 1.1 1.6 1.5 1.3 0.5 2 1.1 2 2.3s-0.9 2.2-2.7 2.2c-0.8 0-1.6-0.2-2-0.5l0.4-0.9z" fill="#05357C"/>
	<polygon points="79.9 116.8 76.8 116.8 76.8 119.6 80.2 119.6 80.2 120.4 75.8 120.4 75.8 112.7 80.1 112.7 80.1 113.6 76.8 113.6 76.8 116 79.9 116" fill="#05357C"/>
	<g fill="#05357C">
		<path d="m87.2 120.2c-0.4 0.2-1.1 0.4-2.1 0.4-2.2 0-3.9-1.4-3.9-3.9 0-2.4 1.7-4 4.1-4 1 0 1.6 0.2 1.9 0.3l-0.3 0.8c-0.4-0.2-0.9-0.3-1.6-0.3-1.8 0-3.1 1.2-3.1 3.2 0 1.9 1.1 3.1 3 3.1 0.6 0 1.3-0.1 1.7-0.3l0.3 0.7z"/>
		<path d="m89.8 112.7v4.6c0 1.7 0.8 2.4 1.8 2.4 1.2 0 1.9-0.8 1.9-2.4v-4.6h1v4.5c0 2.4-1.3 3.3-3 3.3-1.6 0-2.8-0.9-2.8-3.3v-4.5h1.1z"/>
		<path d="m97.5 116.3h1c1.1 0 1.8-0.6 1.8-1.5 0-1-0.7-1.4-1.8-1.4-0.5 0-0.8 0-1 0.1v2.8zm-1-3.5c0.5-0.1 1.3-0.2 1.9-0.2 1.1 0 1.8 0.2 2.3 0.6 0.4 0.3 0.6 0.9 0.6 1.5 0 1-0.7 1.7-1.5 2 0.6 0.2 1 0.8 1.1 1.6 0.3 1.1 0.4 1.8 0.6 2.1h-1c-0.1-0.2-0.3-0.9-0.5-1.8-0.2-1.1-0.7-1.5-1.6-1.5h-1v3.3h-1v-7.6z"/>
	</g>
	<rect y="112.7" x="103" height="7.7" width="1" fill="#05357C"/>
	<polygon points="107.5 113.6 105.1 113.6 105.1 112.7 110.9 112.7 110.9 113.6 108.5 113.6 108.5 120.4 107.5 120.4" fill="#05357C"/>
	<g fill="#05357C">
		<path d="m114.1 120.4v-3.3l-2.5-4.4h1.2l1.1 2.1c0.3 0.6 0.5 1.1 0.8 1.6 0.2-0.5 0.5-1 0.8-1.6l1.1-2.1h1.1l-2.6 4.4v3.3h-1z"/>
		<path d="m121.5 119.2c0.5 0.3 1.1 0.5 1.8 0.5 1 0 1.6-0.5 1.6-1.3 0-0.7-0.4-1.1-1.5-1.5-1.3-0.5-2.1-1.1-2.1-2.2 0-1.2 1-2.1 2.5-2.1 0.8 0 1.4 0.2 1.7 0.4l-0.3 0.8c-0.2-0.1-0.8-0.4-1.5-0.4-1.1 0-1.5 0.6-1.5 1.2 0 0.7 0.5 1.1 1.6 1.5 1.3 0.5 2 1.1 2 2.3s-0.9 2.2-2.7 2.2c-0.8 0-1.6-0.2-2-0.5l0.4-0.9z"/>
		<path d="m129.3 120.4v-3.3l-2.5-4.4h1.2l1.1 2.1c0.3 0.6 0.5 1.1 0.8 1.6 0.2-0.5 0.5-1 0.8-1.6l1.1-2.1h1.1l-2.6 4.4v3.3h-1z"/>
		<path d="m133.8 119.2c0.5 0.3 1.1 0.5 1.8 0.5 1 0 1.6-0.5 1.6-1.3 0-0.7-0.4-1.1-1.5-1.5-1.3-0.5-2.1-1.1-2.1-2.2 0-1.2 1-2.1 2.5-2.1 0.8 0 1.4 0.2 1.7 0.4l-0.3 0.8c-0.2-0.1-0.8-0.4-1.5-0.4-1.1 0-1.5 0.6-1.5 1.2 0 0.7 0.5 1.1 1.6 1.5 1.3 0.5 2 1.1 2 2.3s-0.9 2.2-2.7 2.2c-0.8 0-1.6-0.2-2-0.5l0.4-0.9z"/>
	</g>
	<polygon points="141.4 113.6 139 113.6 139 112.7 144.8 112.7 144.8 113.6 142.4 113.6 142.4 120.4 141.4 120.4" fill="#05357C"/>
	<polygon points="150 116.8 147 116.8 147 119.6 150.3 119.6 150.3 120.4 145.9 120.4 145.9 112.7 150.2 112.7 150.2 113.6 147 113.6 147 116 150 116" fill="#05357C"/>
	<g fill="#05357C">
		<path d="m158.5 117c-0.1-1.1-0.1-2.4-0.1-3.3-0.3 0.9-0.6 1.9-1 2.9l-1.4 3.7h-0.8l-1.3-3.7c-0.4-1.1-0.7-2.1-0.9-3 0 1-0.1 2.2-0.2 3.4l-0.2 3.3h-1l0.5-7.7h1.3l1.3 3.7c0.3 1 0.6 1.8 0.8 2.6 0.2-0.8 0.5-1.6 0.8-2.6l1.4-3.7h1.3l0.5 7.7h-1v-3.3z"/>
		<path d="m161.4 119.2c0.5 0.3 1.1 0.5 1.8 0.5 1 0 1.6-0.5 1.6-1.3 0-0.7-0.4-1.1-1.5-1.5-1.3-0.5-2.1-1.1-2.1-2.2 0-1.2 1-2.1 2.5-2.1 0.8 0 1.4 0.2 1.7 0.4l-0.3 0.8c-0.2-0.1-0.8-0.4-1.5-0.4-1.1 0-1.5 0.6-1.5 1.2 0 0.7 0.5 1.1 1.6 1.5 1.3 0.5 2 1.1 2 2.3s-0.9 2.2-2.7 2.2c-0.8 0-1.6-0.2-2-0.5l0.4-0.9z"/>
	</g>
</svg>
