<?xml version="1.0" encoding="UTF-8" standalone="no"?>
<!-- Generator: Adobe Illustrator 16.0.0, SVG Export Plug-In . SVG Version: 6.00 Build 0)  -->
<!DOCTYPE svg  PUBLIC '-//W3C//DTD SVG 1.1//EN'  'http://www.w3.org/Graphics/SVG/1.1/DTD/svg11.dtd' [
	<!ENTITY st0 "fill:#241A16;">
	<!ENTITY st1 "fill:#D92728;">
]>
<svg id="Layer_1" style="enable-background:new 0 0 168 168" xmlns="http://www.w3.org/2000/svg" xml:space="preserve" height="168px" viewBox="0 0 168 168" width="168px" version="1.1" y="0px" x="0px" xmlns:xlink="http://www.w3.org/1999/xlink">
	<polygon points="54.5 77.3 54.5 79.4 66.5 79.4 66.5 77.3 63.4 77.3 63.4 64 66.6 64 66.6 62 54.5 62 54.5 64 57.4 64 57.4 77.3" fill="#241A16"/>
	<path d="m73.8 64.1h2.5c1.6 0 2.3 2.5 2.3 4.5v10.8h5v-10.2c0-1.8-0.6-4.1-1.8-5.2-1.4-1.2-3.4-2-5-2h-7.9v17.4h4.9v-15.3z" fill="#241A16"/>
	<polygon points="112.5 64 117.1 64 117.1 62 114 62 103.3 62 103.3 64.1 107.8 64.1 107.8 79.5 112.5 79.5" fill="#241A16"/>
	<polygon points="133.1 77.3 124.2 77.3 124.2 71.1 133.1 71.1 133.1 69.3 124.2 69.3 124.2 64 133.1 64 133.1 62 119.4 62 119.4 79.4 133.1 79.4" fill="#241A16"/>
	<polygon points="147.3 79.5 153 79.5 145.9 70.5 152.5 62 147.1 62 141 69.5 141 62 135.4 62 135.4 79.5 141 79.5 141 71.2" fill="#241A16"/>
	<path d="m93.8 64h7v-2h-9.1s-5.7-0.3-5.7 3.7c0 3.6 3.3 5.1 5.2 5.8 2.1 0.7 3.3 1.7 3.8 3.9 0.1 0.5 0 1.3 0.1 1.9h-9.1v2.2h15.1v-3.3c-0.2-0.5-0.4-1.4-0.7-1.9-1.7-3-5-4.1-7.4-5.2-2.2-1.1-2.5-5 0.8-5.1z" fill="#241A16"/>
	<g fill="#241A16">
		<path d="m65.7 101.1h-5.2v-13.1c1.5 0 3.6 0 4.6 2 0.7 1.4 0.7 4.3 0.7 5.9-0.1 0.4-0.1 5.2-0.1 5.2zm2.7-12.8c-1.7-1.7-4.3-2.2-6.4-2.2h-6.4v17.3h15.1v-8.7c0-3-0.9-5.1-2.3-6.4z"/>
		<path d="m100.8 93.9h-5.1v7.3h-4.7v-6.2c0-5.8 2.2-7 4.7-7h5.1v-1.9h-5.1c-3.6 0-9.8 0.2-9.8 8.2v9h15v-9.4z"/>
		<polygon points="125.8 87.9 130.7 87.9 130.7 86.1 127.4 86.1 116 86.1 116 88 120.7 88 120.7 103.3 125.8 103.3"/>
		<path d="m135.1 100.3l4-10.4 3.8 10.4h-7.8zm6.5-14.2h-5l-7.1 17.3h19l-6.9-17.3z"/>
		<polygon points="166 101.1 156.5 101.1 156.5 86.1 151.3 86.1 151.3 103.3 161.2 103.3 166 103.3"/>
		<polygon points="73.2 101.2 73.2 103.3 83.3 103.3 83.3 101.2 80.7 101.2 80.7 88 83.3 88 83.3 86.1 73.2 86.1 73.2 88.1 75.7 88.1 75.7 101.2"/>
		<polygon points="103.4 101.2 103.4 103.3 113.4 103.3 113.4 101.2 110.9 101.2 110.9 88 113.5 88 113.5 86.1 103.4 86.1 103.4 88.1 105.8 88.1 105.8 101.2"/>
	</g>
		<path d="m7.6 61.6c-1.4 0-2.9 0.6-4 1.7-2 2.1-2.1 5.3-0.5 7.6v0.1c1.1 1.4 2.6 3 2.6 4.7s-1.5 3.3-2.6 4.7c-1.6 2.1-1.6 5 0 7 1.1 1.4 2.6 3.1 2.6 4.7s-1.5 3.5-2.5 4.9c-1.7 2.3-1.6 5.6 0.4 7.7 1.1 1.1 2.5 1.7 4 1.7 1.4 0 2.9-0.6 4-1.7 2-2.1 2.2-5.4 0.4-7.7-1-1.4-2.6-3-2.6-4.7s1.6-3.3 2.6-4.8c1.5-2.1 1.5-5 0-7.1-1-1.4-2.6-3.1-2.6-4.7 0.1-1.7 1.6-3.3 2.6-4.7v-0.1c1.7-2.3 1.5-5.6-0.5-7.6-1-1.1-2.5-1.7-3.9-1.7" fill="#241A16"/>
		<path d="m27.6 71.5c2.2-2.3 2.2-5.9 0-8.2s-5.8-2.3-7.9 0c-2.2 2.3-2.2 5.9 0 8.2 2.1 2.3 5.7 2.3 7.9 0z" fill="#D92728"/>
		<path d="m39.6 61.6c-1.4 0-2.9 0.6-4 1.7-2 2.1-2.2 5.3-0.5 7.6v0.1c1 1.4 2.6 3 2.6 4.7 0 1.5-1.1 2.9-2.1 4.1-1.2 1-2.6 2.2-4 2.2-1.6 0-3.2-1.6-4.6-2.7-1-0.8-2.2-1.2-3.4-1.2-1.4 0-2.9 0.6-3.9 1.7-2 2.1-2.2 5.4-0.5 7.6 1 1.4 2.6 3.1 2.6 4.7s-1.5 3.3-2.6 4.7c-1.7 2.3-1.6 5.6 0.4 7.7 1.1 1.1 2.5 1.7 4 1.7 1.2 0 2.4-0.4 3.4-1.2 1.3-1.1 2.9-2.7 4.6-2.7 1.6 0 3.2 1.6 4.6 2.7 1 0.8 2.3 1.2 3.5 1.2 1.4 0 2.9-0.6 3.9-1.7 2-2.1 2.1-5.4 0.4-7.7-1-1.4-2.6-3-2.6-4.7s1.5-3.3 2.6-4.7c1.6-2.1 1.5-5 0-7-1-1.4-2.6-3.1-2.6-4.7 0-1.7 1.5-3.3 2.6-4.7v-0.1c1.7-2.3 1.6-5.5-0.5-7.6-1-1.1-2.4-1.7-3.9-1.7m-8 37c-1.4 0-2.8-1.2-4-2.2-1-1.3-2.1-2.7-2.1-4.2 0-1.4 1.1-2.9 2.1-4.2 1.2-1 2.6-2.2 4-2.2s2.8 1.2 4 2.2c1 1.3 2.1 2.7 2.1 4.2s-1.1 2.9-2.1 4.2c-1.2 1.1-2.6 2.2-4 2.2" fill="#241A16"/>
</svg>
