<?xml version="1.0" encoding="UTF-8" standalone="no"?>
<!-- Generator: Adobe Illustrator 16.0.0, SVG Export Plug-In . SVG Version: 6.00 Build 0)  -->
<!DOCTYPE svg  PUBLIC '-//W3C//DTD SVG 1.1//EN'  'http://www.w3.org/Graphics/SVG/1.1/DTD/svg11.dtd' [
	<!ENTITY st0 "fill:#0E719E;">
]>
<svg id="Layer_1" style="enable-background:new 0 0 168 168" xmlns="http://www.w3.org/2000/svg" xml:space="preserve" height="168px" viewBox="0 0 168 168" width="168px" version="1.1" y="0px" x="0px" xmlns:xlink="http://www.w3.org/1999/xlink">
	<g fill="#0E719E">
		<path d="m31.6 93.2c-5.7 0-8.6-3.1-8.6-9.4v-0.1c0-6.2 2.9-9.3 8.6-9.3h6.8v3.3h-7.7c-1.5 0-2.6 0.5-3.3 1.5s-1.1 2.5-1.1 4.7c0 4.1 1.5 6.1 4.4 6.1h7.7v3.3h-6.8z"/>
		<path d="m49.5 74.4c5.7 0 8.5 3.1 8.6 9.3v0.1c0 6.3-2.9 9.4-8.6 9.4h-1.5c-5.7 0-8.6-3.1-8.6-9.4v-0.1c0-6.2 2.9-9.3 8.6-9.3h1.5zm-2.3 3.3c-1.5 0-2.6 0.5-3.3 1.5s-1.1 2.5-1.1 4.7c0 4.1 1.5 6.1 4.4 6.1h3.2c3 0 4.4-2 4.4-6.1 0-2.1-0.4-3.7-1.1-4.7s-1.9-1.5-3.3-1.5h-3.2z"/>
		<path d="m78 88.8c0 0.7-0.1 1.3-0.4 1.9s-0.6 1.1-1 1.5-1 0.7-1.5 0.9c-0.6 0.2-1.2 0.3-1.9 0.3-1 0-1.9-0.3-2.6-0.8s-1.3-1.2-1.6-2.2l-3.8-11.6c-0.1-0.4-0.3-0.7-0.4-0.9-0.2-0.2-0.4-0.3-0.7-0.3-0.9 0-1.4 0.5-1.4 1.6v13.9h-3.5v-14.1c0-0.7 0.1-1.3 0.4-1.9 0.2-0.6 0.6-1.1 1-1.5s1-0.7 1.5-0.9c0.6-0.2 1.2-0.3 1.9-0.3 1 0 1.8 0.3 2.6 0.8s1.3 1.2 1.6 2.2l3.8 11.5c0.1 0.4 0.3 0.7 0.4 0.9 0.2 0.2 0.4 0.3 0.7 0.3 0.9 0 1.4-0.5 1.4-1.6v-14h3.5v14.3z"/>
		<path d="m93.7 77.7h-6.1c-1.4 0-2.6 0.4-3.5 1.1s-1.4 1.8-1.4 3.3h11.1v3.3h-11.1v7.8h-3.3v-10.6c0-1.3 0.2-2.4 0.5-3.4s0.9-1.9 1.6-2.6 1.6-1.2 2.6-1.6 2.2-0.6 3.6-0.6h6v3.3z"/>
		<rect height="18.8" width="3.3" y="74.4" x="94.7"/>
		<path d="m107.6 93.2c-5.7 0-8.6-3.1-8.6-9.4v-0.1c0-6.2 2.9-9.3 8.6-9.3h6.8v3.3h-7.7c-1.5 0-2.6 0.5-3.3 1.5s-1.1 2.5-1.1 4.7c0 4.1 1.5 6.1 4.4 6.1h3.9c0.3 0 0.5-0.1 0.8-0.2s0.5-0.3 0.7-0.5 0.3-0.5 0.4-0.7c0.1-0.3 0.2-0.6 0.2-0.9 0-0.6-0.2-1.1-0.6-1.6-0.4-0.4-0.9-0.7-1.5-0.7h-3v-3.3h3.1c0.7 0 1.4 0.1 2 0.4s1.2 0.7 1.6 1.2c0.5 0.5 0.8 1.1 1.1 1.8s0.4 1.5 0.4 2.3c0 0.7-0.1 1.4-0.4 2s-0.7 1.2-1.1 1.7c-0.5 0.5-1 0.9-1.7 1.2-0.6 0.3-1.3 0.5-2 0.5h-3z"/>
		<path d="m133 86.1c0 1.1-0.2 2-0.5 2.9s-0.8 1.6-1.5 2.2-1.5 1.1-2.5 1.4-2.1 0.5-3.5 0.5c-1.3 0-2.4-0.2-3.4-0.5s-1.8-0.8-2.5-1.5c-0.7-0.6-1.2-1.4-1.5-2.3s-0.5-1.8-0.5-2.9v-11.5h3.3v11.6c0 1.1 0.4 2.1 1.2 2.8s2 1.1 3.5 1.1h0.1c1.5 0 2.6-0.4 3.3-1.1s1.1-1.7 1.1-2.8v-11.6h3.3v11.7z"/>
		<path d="m143.7 74.4c1 0 1.9 0.1 2.7 0.4s1.4 0.7 1.8 1.2c0.5 0.5 0.8 1.1 1.1 1.8 0.2 0.7 0.3 1.4 0.3 2.1s-0.1 1.3-0.3 2-0.5 1.2-1 1.8c-0.5 0.5-1.1 0.9-1.8 1.3-0.8 0.3-1.7 0.5-2.7 0.5h-1.5l7.6 4.3v3.9l-12.2-7.4v7h-3.3v-18.9h9.3zm-6.1 7.8h6.6c0.6 0 1.1-0.2 1.5-0.7 0.4-0.4 0.6-1 0.6-1.6 0-0.3-0.1-0.6-0.2-0.8-0.1-0.3-0.3-0.5-0.5-0.7s-0.4-0.4-0.7-0.5-0.5-0.2-0.8-0.2h-6.6v4.5z"/>
		<path d="m165.7 77.7h-9.9c-0.3 0-0.6 0.1-0.8 0.2-0.3 0.1-0.5 0.3-0.7 0.5s-0.3 0.4-0.5 0.7c-0.1 0.3-0.2 0.5-0.2 0.8 0 0.6 0.2 1.1 0.6 1.6 0.4 0.4 0.9 0.6 1.6 0.6h9.9v3.3h-9.9c-0.3 0-0.6 0.1-0.8 0.2-0.3 0.1-0.5 0.3-0.7 0.5s-0.3 0.4-0.5 0.7c-0.1 0.3-0.2 0.5-0.2 0.8 0 0.7 0.2 1.3 0.6 1.7s0.9 0.7 1.6 0.7h9.9v3.3h-9.4c-1.1 0-2-0.2-2.8-0.5s-1.4-0.7-1.8-1.3c-0.5-0.5-0.8-1.1-1-1.8s-0.3-1.3-0.3-2c0-0.8 0.2-1.5 0.5-2.2s0.8-1.3 1.6-1.7c-0.7-0.4-1.2-1-1.6-1.7-0.3-0.7-0.5-1.4-0.5-2.1 0-0.8 0.1-1.5 0.4-2.2 0.2-0.7 0.6-1.3 1.1-1.8s1.1-0.9 1.8-1.1c0.7-0.3 1.6-0.4 2.7-0.4h9.4v3.2z"/>
		<polygon points="6.6 74.4 9.9 74.4 5.6 93.2 2.3 93.2"/>
		<path d="m8.2 87.6c0.4-1.8 1.3-3.2 2.5-4.1 1.3-0.9 2.8-1.4 4.6-1.4h4c0.6 0 1.2-0.2 1.7-0.6s0.8-1 1-1.6c0.1-0.3 0.1-0.6 0-0.8-0.1-0.3-0.2-0.5-0.3-0.7s-0.3-0.4-0.6-0.5c-0.2-0.1-0.5-0.2-0.8-0.2h-9.9l0.8-3.3h9.4c1 0 1.9 0.1 2.6 0.4s1.2 0.7 1.6 1.2 0.6 1.1 0.7 1.8 0 1.4-0.2 2.1-0.4 1.3-0.8 2-0.8 1.2-1.4 1.8c-0.6 0.5-1.3 0.9-2.1 1.3-0.8 0.3-1.8 0.5-2.9 0.5h-4c-0.6 0-1.1 0.2-1.6 0.7-0.5 0.4-0.8 1-1 1.6l-1.3 5.6h-3.3l1.3-5.8z"/>
	</g>
</svg>
