<?xml version="1.0" encoding="utf-8"?>
<!-- Generator: Adobe Illustrator 16.0.0, SVG Export Plug-In . SVG Version: 6.00 Build 0)  -->
<!DOCTYPE svg PUBLIC "-//W3C//DTD SVG 1.1//EN" "http://www.w3.org/Graphics/SVG/1.1/DTD/svg11.dtd">
<svg version="1.1" id="Ebene_1" xmlns="http://www.w3.org/2000/svg" xmlns:xlink="http://www.w3.org/1999/xlink" x="0px" y="0px"
	 width="168px" height="168px" viewBox="0 0 168 168" enable-background="new 0 0 168 168" xml:space="preserve">
<g>
	<g>
		<defs>
			<rect id="SVGID_1_" x="2.068" y="62.471" width="163.864" height="43.058"/>
		</defs>
		<clipPath id="SVGID_2_">
			<use xlink:href="#SVGID_1_"  overflow="visible"/>
		</clipPath>
		<path clip-path="url(#SVGID_2_)" fill="#231F20" d="M50.77,83.886c0.003-0.175,0.006-0.352,0.006-0.539
			c0-7.529-4.83-13.781-5.336-13.489c-0.506,0.288,3.127,6.265,3.127,13.489c0,0.187,0,0.364,0.005,0.539
			c-0.004,0.176-0.005,0.351-0.005,0.534c0,7.225-3.634,13.206-3.127,13.497c0.506,0.291,5.336-5.963,5.336-13.497
			C50.776,84.236,50.773,84.062,50.77,83.886 M57.087,83.886c0.004-0.224,0.008-0.446,0.008-0.68c0-9.536-7.012-17.45-7.801-17.085
			c-0.785,0.367,4.871,7.94,4.871,17.085c0,0.234,0.001,0.456,0.006,0.68c-0.005,0.222-0.006,0.446-0.006,0.679
			c0,9.145-5.656,16.719-4.871,17.086c0.789,0.365,7.801-7.549,7.801-17.086C57.096,84.332,57.092,84.107,57.087,83.886z"/>
		<path clip-path="url(#SVGID_2_)" fill="#231F20" d="M2.068,84.001c0,11.872,10.215,21.528,22.088,21.528
			c11.871,0,21.059-9.656,21.059-21.528c0-11.873-9.188-21.53-21.059-21.53C12.283,62.471,2.068,72.128,2.068,84.001 M5.157,84.001
			c0-10.836,8.934-19.649,19.768-19.649c10.835,0,18.919,8.813,18.919,19.649c0,10.835-8.083,19.649-18.919,19.649
			C14.091,103.65,5.157,94.836,5.157,84.001z"/>
		<rect x="61.088" y="76.694" clip-path="url(#SVGID_2_)" fill="#F16522" width="3.783" height="13.462"/>
		<path clip-path="url(#SVGID_2_)" fill="#F16522" d="M76.531,76.694h-8.136v13.462h3.783v-5.936h4.353
			c2.268,0,4.512-0.464,4.512-2.904v-1.701C81.042,77.153,78.799,76.694,76.531,76.694 M77.262,81.317
			c0,0.971-0.546,0.971-1.357,0.971h-3.727v-3.636h3.727c0.812-0.023,1.357,0,1.357,0.964V81.317z"/>
		<path clip-path="url(#SVGID_2_)" fill="#231F20" d="M89.158,76.694c-2.266,0-4.514,0.458-4.514,2.921v7.619
			c0,2.461,2.248,2.922,4.514,2.922h3.619c2.273,0,4.518-0.461,4.518-1.957h-7.539c-0.781,0-1.322,0-1.322-0.965v-7.619
			c0-0.964,0.541-0.964,1.322-0.964h7.539c0-1.499-2.244-1.957-4.518-1.957H89.158"/>
		<path clip-path="url(#SVGID_2_)" fill="#231F20" d="M100.682,82.954v4.281c0,2.691,2.246,2.922,4.516,2.922h3.365
			c2.293,0,4.508-0.23,4.508-2.922v-4.281c0-2.461-2.215-2.924-4.508-2.924h-3.365C102.928,80.03,100.682,80.492,100.682,82.954
			h3.734c0-0.967,0.568-0.967,1.383-0.967h2.213c0.785,0,1.303,0.44,1.332,0.967v4.281c0,0.965-0.547,0.965-1.332,0.965h-2.268
			c-0.779,0-1.328,0-1.328-0.965v-4.281H100.682"/>
		<path clip-path="url(#SVGID_2_)" fill="#231F20" d="M120.113,82.954c0-0.967,0.52-0.967,1.303-0.967h2.271V80.03h-2.814
			c-2.271,0-4.539,0.462-4.539,2.924v7.203h3.779V82.954"/>
		<path clip-path="url(#SVGID_2_)" fill="#231F20" d="M135.941,87.234c0,0.965-0.543,0.965-1.33,0.965h-2.266
			c-0.785,0-1.334,0-1.334-0.965v-4.281c0.025-0.527,0.549-0.967,1.334-0.967h3.596V80.03h-4.146c-2.293,0-4.512,0.462-4.512,2.924
			v4.281c0,2.691,2.219,2.922,4.512,2.922h3.365c2.271,0,4.51-0.23,4.51-2.922v-10.54h-3.729V87.234"/>
		<path clip-path="url(#SVGID_2_)" fill="#231F20" d="M150.262,81.986c0.781,0,1.33,0.023,1.33,0.967v0.989h-4.928v1.84h8.652v-2.83
			c0-2.693-2.215-2.924-4.508-2.924h-3.363c-2.27,0-4.514,0.23-4.514,2.924v4.281c0,2.691,2.244,2.922,4.461,2.922h3.465
			c2.244,0,4.459-0.23,4.459-2.922h-3.725c0,0.965-0.549,0.965-1.33,0.965h-2.271c-0.781,0-1.326,0-1.326-0.965v-4.281
			c0-0.967,0.545-0.967,1.326-0.967H150.262"/>
		<path clip-path="url(#SVGID_2_)" fill="#231F20" d="M162.361,82.954c0-0.967,0.52-0.967,1.305-0.967h2.266V80.03h-2.812
			c-2.266,0-4.541,0.462-4.541,2.924v7.203h3.783V82.954"/>
	</g>
	<g>
		<defs>
			<path id="SVGID_3_" d="M40.243,83.979c0,3.968-1.438,7.597-3.818,10.405c-1.434-3.145-2.237-6.672-2.237-10.405
				c0-3.731,0.803-7.26,2.237-10.403C38.806,76.381,40.243,80.014,40.243,83.979z M35.102,71.991
				c-2.853-2.565-6.619-4.133-10.755-4.133c-8.895,0-16.105,7.209-16.105,16.106c0,8.897,7.211,16.108,16.105,16.108
				c4.133,0,7.9-1.566,10.749-4.127c-0.996-3.742-1.538-7.77-1.538-11.966C33.557,79.775,34.101,75.735,35.102,71.991z"/>
		</defs>
		<clipPath id="SVGID_4_">
			<use xlink:href="#SVGID_3_"  overflow="visible"/>
		</clipPath>
		<g clip-path="url(#SVGID_4_)">
			<defs>
				<rect id="SVGID_5_" x="8.241" y="67.858" width="32.003" height="32.173"/>
			</defs>
			<clipPath id="SVGID_6_">
				<use xlink:href="#SVGID_5_"  overflow="visible"/>
			</clipPath>
			<g clip-path="url(#SVGID_6_)">
				<defs>
					<rect id="SVGID_7_" x="8.209" y="67.773" width="32.06" height="32.336"/>
				</defs>
				<clipPath id="SVGID_8_">
					<use xlink:href="#SVGID_7_"  overflow="visible"/>
				</clipPath>
				<g clip-path="url(#SVGID_8_)">
					
						<image overflow="visible" width="188" height="189" xlink:href="4B0C49359C9D1E2F.jpg"  transform="matrix(0.1705 0 0 0.1711 8.2095 67.7734)">
					</image>
				</g>
			</g>
		</g>
	</g>
</g>
</svg>
