<?xml version="1.0" encoding="UTF-8" standalone="no"?>
<!-- Generator: Adobe Illustrator 16.0.0, SVG Export Plug-In . SVG Version: 6.00 Build 0)  -->
<!DOCTYPE svg  PUBLIC '-//W3C//DTD SVG 1.1//EN'  'http://www.w3.org/Graphics/SVG/1.1/DTD/svg11.dtd' [
	<!ENTITY st0 "fill:url(#SVGID_1_);">
	<!ENTITY st1 "fill:url(#SVGID_2_);">
	<!ENTITY st2 "fill:url(#SVGID_3_);">
	<!ENTITY st3 "fill:url(#SVGID_4_);">
	<!ENTITY st4 "fill:url(#SVGID_5_);">
	<!ENTITY st5 "fill:url(#SVGID_6_);">
	<!ENTITY st6 "fill:#002C63;">
	<!ENTITY st7 "fill:#D4311F;">
	<!ENTITY st8 "clip-path:url(#SVGID_8_);fill:url(#SVGID_9_);">
]>
<svg id="Layer_1" style="enable-background:new 0 0 168 168" xmlns="http://www.w3.org/2000/svg" xml:space="preserve" height="168px" viewBox="0 0 168 168" width="168px" version="1.1" y="0px" x="0px" xmlns:xlink="http://www.w3.org/1999/xlink">
	<polygon points="8.6 103.5 8 103.5 6.9 100.6 7.3 100.6 8.3 103.1 8.3 103.1 9.3 100.6 9.8 100.6" fill="#002C63"/>
	<path d="m12.2 100.9h-0.5v-0.4h0.5v0.4zm-0.5 0.5h0.4v2.1h-0.4v-2.1z" fill="#002C63"/>
	<path d="m16.1 103.2c-0.1 0.2-0.4 0.3-0.8 0.3-0.7 0-1-0.6-1-1.1 0-0.6 0.3-1.1 1-1.1 0.4 0 0.6 0.1 0.7 0.3v-1.3h0.4v3.1h-0.4v-0.2zm-0.7 0c0.5 0 0.7-0.4 0.7-0.8s-0.2-0.8-0.7-0.8-0.6 0.4-0.6 0.8c-0.1 0.3 0.1 0.8 0.6 0.8z" fill="#002C63"/>
	<path d="m20.5 103.4c-0.2 0.1-0.3 0.1-0.7 0.1-0.8 0-1.2-0.5-1.2-1.1s0.4-1.1 1.1-1.1c0.8 0 1 0.5 1 1.2h-1.6c0 0.4 0.4 0.7 0.7 0.7s0.6-0.1 0.7-0.2v0.4zm-0.3-1.2c0-0.3-0.2-0.6-0.6-0.6s-0.6 0.3-0.6 0.6h1.2z" fill="#002C63"/>
	<path d="m23.7 101.3c0.7 0 1.1 0.5 1.2 1.1 0 0.6-0.5 1.1-1.1 1.1-0.7 0-1.2-0.5-1.2-1.1s0.4-1.1 1.1-1.1zm0 1.9c0.5 0 0.7-0.4 0.7-0.8s-0.3-0.8-0.7-0.8-0.7 0.4-0.7 0.8 0.2 0.8 0.7 0.8z" fill="#002C63"/>
	<path d="m34 101c-0.2-0.1-0.3-0.1-0.6-0.1-0.2 0-0.5 0.1-0.5 0.4 0 0.6 1.3 0.4 1.3 1.4 0 0.6-0.5 0.9-1.1 0.9-0.2 0-0.4-0.1-0.6-0.1v-0.4c0.2 0.1 0.4 0.1 0.6 0.1 0.3 0 0.6-0.1 0.6-0.5 0-0.6-1.3-0.5-1.3-1.4 0-0.5 0.4-0.8 1-0.8 0.2 0 0.4 0 0.7 0.1l-0.1 0.4z" fill="#002C63"/>
	<path d="m38.3 103.4h-0.4v-0.3c-0.1 0.2-0.4 0.4-0.7 0.4-0.6 0-0.8-0.3-0.8-0.9v-1.3h0.4v1.1c0 0.5 0.1 0.7 0.5 0.8 0.5 0 0.7-0.4 0.7-0.9v-1h0.4l-0.1 2.1z" fill="#002C63"/>
	<path d="m40.6 101.3h0.4v0.3c0.1-0.2 0.4-0.4 0.6-0.4h0.3v0.3h-0.2c-0.4 0-0.6 0.3-0.6 0.9v1h-0.4l-0.1-2.1z" fill="#002C63"/>
	<polygon points="44.8 103.4 44.3 103.4 43.5 101.3 44 101.3 44.6 103 44.6 103 45.2 101.3 45.6 101.3" fill="#002C63"/>
	<path d="m49.3 103.3c-0.2 0.1-0.3 0.1-0.7 0.1-0.8 0-1.2-0.5-1.2-1.1s0.4-1.1 1.1-1.1c0.8 0 1 0.5 1 1.2h-1.6c0 0.4 0.3 0.7 0.7 0.7 0.3 0 0.6-0.1 0.7-0.2v0.4zm-0.2-1.1c0-0.3-0.2-0.6-0.6-0.6s-0.6 0.3-0.6 0.6h1.2z" fill="#002C63"/>
	<path d="m52.1 100.8h-0.5v-0.4h0.5v0.4zm-0.4 0.5h0.4v2.1h-0.4v-2.1z" fill="#002C63"/>
	<rect height="3.1" width=".4" y="100.3" x="54.4" fill="#002C63"/>
	<rect height="3.1" width=".4" y="100.3" x="57.2" fill="#002C63"/>
	<path d="m60.1 101.4c0.2-0.1 0.5-0.2 0.7-0.2 0.6 0 0.9 0.3 0.9 0.9v0.9 0.4h-0.4v-0.3c-0.1 0.1-0.3 0.3-0.7 0.3-0.5 0-0.8-0.2-0.8-0.7s0.6-0.7 1.1-0.7h0.4c0-0.4-0.1-0.5-0.6-0.5-0.2 0-0.5 0.1-0.7 0.2l0.1-0.3zm1.2 1h-0.3c-0.2 0-0.8 0-0.8 0.4 0 0.2 0.2 0.3 0.4 0.3 0.4 0 0.6-0.2 0.6-0.6l0.1-0.1z" fill="#002C63"/>
	<path d="m64 101.3h0.4v0.3c0.1-0.2 0.4-0.4 0.7-0.4 0.6 0 0.8 0.3 0.8 0.9v1.3h-0.4v-1.1c0-0.5-0.1-0.7-0.5-0.8-0.5 0-0.7 0.4-0.7 0.9v1h-0.4l0.1-2.1z" fill="#002C63"/>
	<path d="m69.6 101.6c-0.2-0.1-0.3-0.1-0.5-0.1-0.5 0-0.7 0.4-0.7 0.8s0.2 0.8 0.8 0.8c0.1 0 0.3 0 0.4-0.1v0.3c-0.2 0.1-0.4 0.1-0.5 0.1-0.7 0-1.2-0.5-1.2-1.1s0.5-1.1 1.1-1.1c0.2 0 0.4 0 0.5 0.1l0.1 0.3z" fill="#002C63"/>
	<path d="m73.5 103.3c-0.2 0.1-0.3 0.1-0.7 0.1-0.8 0-1.2-0.5-1.2-1.1s0.4-1.1 1.1-1.1c0.8 0 1 0.5 1 1.2h-1.6c0 0.4 0.4 0.7 0.7 0.7s0.6-0.1 0.7-0.2v0.4zm-0.3-1.2c0-0.3-0.2-0.6-0.6-0.6s-0.6 0.3-0.6 0.6h1.2z" fill="#002C63"/>
	<path d="m81.4 101.4c0.2-0.1 0.5-0.2 0.7-0.2 0.6 0 0.9 0.3 0.9 0.9v0.9 0.4h-0.4v-0.3c-0.1 0.1-0.3 0.3-0.7 0.3-0.5 0-0.8-0.2-0.8-0.7s0.6-0.7 1-0.7h0.4c0-0.4-0.1-0.5-0.6-0.5-0.2 0-0.5 0.1-0.7 0.2l0.2-0.3zm1.2 1h-0.3c-0.2 0-0.8 0-0.8 0.4 0 0.2 0.2 0.3 0.4 0.3 0.4 0 0.6-0.2 0.6-0.6v-0.1z" fill="#002C63"/>
	<path d="m85.3 101.3h0.4v0.3c0.1-0.2 0.4-0.4 0.7-0.4 0.6 0 0.8 0.3 0.8 0.9v1.3h-0.4v-1.1c0-0.5-0.1-0.7-0.5-0.8-0.5 0-0.7 0.4-0.7 0.9v1h-0.4l0.1-2.1z" fill="#002C63"/>
	<path d="m91.2 103.1c-0.1 0.2-0.4 0.3-0.8 0.3-0.7 0-1-0.6-1-1.1 0-0.6 0.3-1.1 1-1.1 0.4 0 0.6 0.1 0.7 0.3v-1.3h0.4v3.1h-0.4v-0.2zm-0.7 0c0.5 0 0.7-0.4 0.7-0.8s-0.2-0.8-0.7-0.8-0.6 0.4-0.6 0.8c-0.1 0.3 0.1 0.8 0.6 0.8z" fill="#002C63"/>
	<path d="m100.8 100.9c-0.2-0.1-0.4-0.1-0.6-0.1s-0.5 0.1-0.5 0.4c0 0.6 1.3 0.4 1.3 1.4 0 0.6-0.5 0.9-1.1 0.9-0.2 0-0.4-0.1-0.6-0.1v-0.4c0.2 0.1 0.4 0.1 0.6 0.1 0.3 0 0.6-0.1 0.6-0.5 0-0.6-1.3-0.5-1.3-1.4 0-0.5 0.4-0.8 1-0.8 0.2 0 0.4 0 0.7 0.1l-0.1 0.4z" fill="#002C63"/>
	<path d="m104.9 103.3c-0.2 0.1-0.3 0.1-0.7 0.1-0.8 0-1.2-0.5-1.2-1.1s0.4-1.1 1.1-1.1c0.8 0 1 0.5 1 1.2h-1.6c0 0.4 0.4 0.7 0.7 0.7s0.6-0.1 0.7-0.2v0.4zm-0.3-1.2c0-0.3-0.2-0.6-0.6-0.6s-0.6 0.3-0.6 0.6h1.2z" fill="#002C63"/>
	<path d="m108.6 101.6c-0.2-0.1-0.3-0.1-0.4-0.1-0.5 0-0.7 0.4-0.7 0.8s0.2 0.8 0.8 0.8c0.1 0 0.3 0 0.4-0.1v0.3c-0.2 0.1-0.4 0.1-0.5 0.1-0.7 0-1.2-0.5-1.2-1.1s0.5-1.1 1.2-1.1c0.2 0 0.4 0 0.5 0.1l-0.1 0.3z" fill="#002C63"/>
	<path d="m112.7 103.3h-0.4v-0.3c-0.1 0.2-0.4 0.4-0.7 0.4-0.6 0-0.8-0.3-0.8-0.9v-1.3h0.4v1.1c0 0.5 0.1 0.7 0.5 0.8 0.5 0 0.7-0.4 0.7-0.9v-1h0.4l-0.1 2.1z" fill="#002C63"/>
	<path d="m114.9 101.2h0.4v0.3c0.1-0.2 0.4-0.4 0.6-0.4h0.3v0.3h-0.2c-0.4 0-0.6 0.3-0.6 0.9v1h-0.4l-0.1-2.1z" fill="#002C63"/>
	<path d="m118.7 100.8h-0.5v-0.4h0.5v0.4zm-0.5 0.4h0.4v2.1h-0.4v-2.1z" fill="#002C63"/>
	<path d="m122.2 101.5h-0.6v1.2c0 0.2 0.2 0.4 0.4 0.4 0.1 0 0.2 0 0.3-0.1v0.3c-0.1 0-0.2 0.1-0.4 0.1-0.4 0-0.7-0.2-0.7-0.6v-1.2h-0.5v-0.3h0.5v-0.5l0.4-0.1v0.6h0.6v0.2z" fill="#002C63"/>
	<path d="m124.1 103.9h0.2c0.4 0 0.5-0.5 0.5-0.5l-0.1-0.2-0.8-2h0.5l0.6 1.7 0.6-1.7h0.4l-0.8 2.2c-0.2 0.4-0.3 0.9-0.9 0.9h-0.3l0.1-0.4z" fill="#002C63"/>
	<path d="m135 100.9c-0.2-0.1-0.4-0.1-0.6-0.1s-0.5 0.1-0.5 0.4c0 0.6 1.3 0.4 1.3 1.4 0 0.6-0.5 0.9-1.1 0.9-0.2 0-0.4-0.1-0.6-0.1v-0.4c0.1 0.1 0.4 0.1 0.6 0.1s0.6-0.1 0.6-0.5c0-0.6-1.3-0.5-1.3-1.4 0-0.5 0.4-0.8 1-0.8 0.2 0 0.4 0 0.7 0.1l-0.1 0.4z" fill="#002C63"/>
	<path d="m138.3 101.2c0.7 0 1.1 0.5 1.2 1.1 0 0.6-0.5 1.1-1.1 1.1-0.7 0-1.2-0.5-1.2-1.1 0-0.7 0.4-1.1 1.1-1.1zm0 1.8c0.5 0 0.7-0.4 0.7-0.8s-0.3-0.8-0.7-0.8-0.7 0.4-0.7 0.8 0.2 0.8 0.7 0.8z" fill="#002C63"/>
	<rect height="3.1" width=".4" y="100.2" x="141.6" fill="#002C63"/>
	<path d="m146.4 103.3h-0.4v-0.3c-0.1 0.2-0.4 0.4-0.7 0.4-0.6 0-0.8-0.3-0.8-0.9v-1.3h0.4v1.1c0 0.5 0.1 0.7 0.5 0.8 0.5 0 0.7-0.4 0.7-0.9v-1h0.4l-0.1 2.1z" fill="#002C63"/>
	<path d="m149.8 101.5h-0.6v1.2c0 0.2 0.2 0.4 0.3 0.4s0.2 0 0.3-0.1v0.3c-0.1 0-0.2 0.1-0.4 0.1-0.4 0-0.7-0.2-0.7-0.6v-1.2h-0.5v-0.3h0.5v-0.5l0.4-0.1v0.6h0.6l0.1 0.2z" fill="#002C63"/>
	<path d="m152.4 100.7h-0.5v-0.4h0.5v0.4zm-0.5 0.5h0.4v2.1h-0.4v-2.1z" fill="#002C63"/>
	<path d="m155.7 101.1c0.7 0 1.1 0.5 1.1 1.1s-0.5 1.1-1.1 1.1c-0.7 0-1.2-0.5-1.2-1.1s0.5-1.1 1.2-1.1zm0 1.9c0.5 0 0.7-0.4 0.7-0.8s-0.3-0.8-0.7-0.8-0.7 0.4-0.7 0.8 0.2 0.8 0.7 0.8z" fill="#002C63"/>
	<path d="m158.9 101.2h0.4v0.3c0.1-0.2 0.4-0.4 0.7-0.4 0.6 0 0.8 0.3 0.8 0.9v1.3h-0.4v-1.1c0-0.5-0.1-0.7-0.5-0.8-0.5 0-0.7 0.4-0.7 0.9v1h-0.4l0.1-2.1z" fill="#002C63"/>
	<path d="m163 102.9c0.2 0.1 0.4 0.1 0.5 0.1 0.2 0 0.4-0.1 0.4-0.3 0-0.4-1-0.4-1-0.9 0-0.4 0.3-0.7 0.8-0.7 0.2 0 0.4 0 0.5 0.1v0.3c-0.1-0.1-0.3-0.1-0.4-0.1-0.2 0-0.4 0.1-0.4 0.3 0 0.4 1 0.3 1 1 0 0.5-0.4 0.7-0.8 0.7-0.2 0-0.4 0-0.6-0.1v-0.4z" fill="#002C63"/>
	<path d="m164.2 79.6c0-3.4-1.2-6.2-3.6-8.6s-5.2-3.5-8.6-3.5c-3.3 0-6.2 1.2-8.5 3.5l-0.2 0.2v-1.1c0-0.5-0.2-0.9-0.5-1.2s-0.8-0.5-1.2-0.5c-0.5 0-0.9 0.2-1.3 0.6-0.3 0.3-0.5 0.8-0.5 1.2v18.6c0 0.5 0.2 0.9 0.5 1.2 0.4 0.3 0.8 0.5 1.2 0.5h0.1c0.5 0 0.9-0.2 1.3-0.5 0.3-0.3 0.5-0.7 0.5-1.2v-11c0.2-1.7 1-3.2 2.6-4.5 1.6-1.4 3.5-2.1 5.9-2 2.4 0 4.3 0.6 5.9 1.9 1.5 1.3 2.4 2.7 2.6 4.2s0.3 3 0.3 4.5v6.9c0 0.5 0.2 0.9 0.5 1.2s0.7 0.5 1.2 0.5h0.1c0.5 0 0.9-0.2 1.2-0.5s0.5-0.7 0.5-1.2v-9.2z" fill="#002C63"/>
	<path d="m94.2 70.4c0.1-0.5 0-0.9-0.3-1.3s-0.7-0.6-1.1-0.7c-0.5-0.1-0.9 0-1.2 0.3l-11.8 8.6-11.8-8.6c-0.4-0.3-0.8-0.4-1.2-0.3-0.5 0.1-0.9 0.3-1.2 0.7s-0.4 0.8-0.3 1.3 0.3 0.8 0.7 1.1l10.9 7.9-11 8c-0.4 0.3-0.6 0.6-0.7 1.1s0 0.9 0.3 1.2c0.3 0.4 0.7 0.6 1.1 0.7 0.5 0.1 0.9 0 1.3-0.3l12-8.7 12 8.6c0.4 0.3 0.8 0.4 1.3 0.3s0.8-0.3 1.1-0.7 0.4-0.8 0.3-1.2c-0.1-0.5-0.3-0.8-0.7-1.1l-11-8 10.9-8c0-0.1 0.3-0.5 0.4-0.9z" fill="#002C63"/>
	<path d="m61.6 70.4c0.1-0.5-0.1-0.9-0.3-1.3-0.3-0.4-0.6-0.6-1.1-0.7s-0.9 0-1.3 0.3l-11.8 8.6-11.9-8.6c-0.4-0.3-0.8-0.4-1.3-0.3s-0.8 0.3-1.1 0.7-0.4 0.8-0.3 1.3 0.3 0.8 0.7 1.1l11 8-11.1 8c-0.4 0.3-0.6 0.6-0.7 1.1s0 0.9 0.3 1.2c0.3 0.4 0.6 0.6 1.1 0.7s0.9 0 1.3-0.3l11.9-8.7 12 8.7c0.4 0.3 0.8 0.4 1.3 0.3s0.8-0.3 1.1-0.7 0.4-0.8 0.3-1.2c-0.1-0.5-0.3-0.8-0.7-1.1l-11.1-8 11-8c0.4-0.3 0.6-0.6 0.7-1.1z" fill="#002C63"/>
	<path d="m7.2 71.2c-2.4 2.4-3.6 5.2-3.6 8.6 0 3.3 1.2 6.2 3.6 8.5 2.4 2.4 5.2 3.5 8.5 3.5s6.2-1.2 8.5-3.5v-0.1 1.1c0 0.5 0.2 0.9 0.6 1.2 0.3 0.3 0.8 0.5 1.2 0.5 0.5 0 0.9-0.2 1.2-0.5s0.5-0.8 0.5-1.3v-10.1 0.1c-0.1-3.2-1.3-5.9-3.6-8.1-2.4-2.4-5.2-3.5-8.6-3.5-3.1 0-6 1.2-8.3 3.6zm2.3 2.2c1.7-1.7 3.8-2.6 6.2-2.6 2.5 0 4.5 0.9 6.3 2.6 1.4 1.4 2.3 3.1 2.5 5v0.6c0 0.2 0 0.5 0.1 0.7 0 2.5-0.8 4.5-2.6 6.3-1.7 1.7-3.8 2.6-6.3 2.6-2.4 0-4.5-0.9-6.2-2.6s-2.6-3.7-2.6-6.1v-0.2-0.7c0.2-2.2 1-4 2.6-5.6z" fill="#002C63"/>
	<path d="m115 63.8v1.5h-0.7-0.7c-0.2 0-0.4 0-0.7 0.1-0.2 0-0.4 0.1-0.6 0.1s-0.4 0.1-0.6 0.1-0.4 0.1-0.6 0.1-0.4 0.1-0.6 0.1-0.4 0.1-0.6 0.2-0.4 0.1-0.6 0.2-0.4 0.1-0.6 0.2-0.4 0.1-0.6 0.2-0.4 0.2-0.6 0.2l-0.6 0.3-0.6 0.3-0.6 0.3-0.6 0.3s-0.1 0-0.1 0.1c0 0-0.1 0-0.1 0.1 0 0-0.1 0-0.1 0.1 0 0-0.1 0-0.1 0.1 0 0-0.1 0-0.1 0.1 0 0-0.1 0-0.1 0.1 0 0-0.1 0-0.1 0.1 0 0-0.1 0-0.1 0.1 0 0-0.1 0-0.1 0.1 0 0-0.1 0-0.1 0.1 0 0-0.1 0-0.1 0.1 0 0-0.1 0-0.1 0.1 0 0-0.1 0-0.1 0.1l-0.1 0.1-0.1 0.1h-0.1s-0.1 0-0.1 0.1c0 0-0.1 0-0.1 0.1 0 0-0.1 0-0.1 0.1 0 0-0.1 0-0.1 0.1 0 0-0.1 0-0.1 0.1 0 0-0.1 0-0.1 0.1 0 0-0.1 0-0.1 0.1 0 0-0.1 0-0.1 0.1 0 0-0.1 0-0.1 0.1 0 0-0.1 0-0.1 0.1l-0.1 0.1-0.1 0.1-0.1 0.1-0.1 0.1-0.1 0.1-0.1 0.1-0.1 0.1-0.1 0.1-0.1 0.1-0.1 0.1s0 0.1-0.1 0.1l-0.1 0.1s0 0.1-0.1 0.1l-0.1 0.1-0.1 0.1-0.1 0.1-0.1 0.1-0.1 0.1s0 0.1-0.1 0.1l-0.1 0.1-0.1 0.1-0.1 0.1c-0.1 0.1-0.1 0.2-0.2 0.2-0.1 0.1-0.1 0.2-0.2 0.3s-0.1 0.2-0.2 0.3-0.1 0.2-0.2 0.3-0.1 0.2-0.2 0.3-0.1 0.2-0.2 0.3-0.1 0.2-0.2 0.3-0.1 0.2-0.2 0.3-0.1 0.2-0.1 0.3-0.1 0.2-0.1 0.3-0.1 0.2-0.1 0.3-0.1 0.2-0.1 0.3-0.1 0.2-0.1 0.3-0.1 0.2-0.1 0.3-0.1 0.2-0.1 0.3-0.1 0.2-0.1 0.3-0.1 0.3-0.1 0.4-0.1 0.3-0.1 0.4 0 0.3-0.1 0.4c0 0.1 0 0.3-0.1 0.4v0.1 0.1 0.1 0.1 0.3 0.3 0.3 0.3 0.4c0 0.1 0 0.3 0.1 0.4 0 0.1 0 0.3 0.1 0.4 0 0.1 0.1 0.3 0.1 0.4s0.1 0.3 0.1 0.4 0.1 0.3 0.1 0.4 0.1 0.3 0.1 0.4 0.1 0.3 0.2 0.4l-3.2 1.3c-0.1-0.2-0.1-0.3-0.2-0.5s-0.1-0.3-0.2-0.5c0-0.2-0.1-0.3-0.1-0.5s-0.1-0.3-0.1-0.5-0.1-0.3-0.1-0.5 0-0.3-0.1-0.5v-0.5-0.5-0.2-0.2-0.2-0.2-0.2-0.2-0.2-0.2c0-0.2 0.1-0.3 0.1-0.5s0.1-0.3 0.1-0.5 0.1-0.3 0.1-0.5 0.1-0.3 0.1-0.5c0.1-0.3 0.2-0.5 0.3-0.7s0.2-0.5 0.3-0.7 0.2-0.5 0.3-0.7 0.2-0.5 0.4-0.7c0.1-0.2 0.2-0.4 0.4-0.6 0.1-0.2 0.3-0.4 0.4-0.6s0.3-0.4 0.5-0.6 0.3-0.4 0.5-0.6 0.3-0.4 0.5-0.5l0.5-0.5c0.2-0.2 0.4-0.3 0.6-0.5s0.4-0.3 0.6-0.5 0.4-0.3 0.6-0.5 0.4-0.3 0.7-0.5c0.2-0.1 0.4-0.3 0.7-0.4 0.2-0.1 0.5-0.3 0.7-0.4s0.4-0.2 0.7-0.4c0.2-0.1 0.5-0.2 0.7-0.3s0.5-0.2 0.7-0.3 0.5-0.2 0.7-0.3 0.5-0.2 0.7-0.3 0.5-0.2 0.7-0.2c0.2-0.1 0.5-0.2 0.7-0.2 0.2-0.1 0.5-0.1 0.7-0.2s0.5-0.1 0.7-0.2 0.5-0.1 0.7-0.2c0.2 0 0.5-0.1 0.7-0.1s0.5-0.1 0.7-0.1 0.5-0.1 0.7-0.1c0.3 0 0.5-0.1 0.8-0.1s0.5 0 0.8-0.1c1-1.6 1.3-1.6 1.6-1.6m0.2 0h-0.8-0.8c-0.3 0-0.5 0-0.8 0.1-0.3 0-0.5 0.1-0.8 0.1s-0.5 0.1-0.8 0.1-0.5 0.1-0.8 0.1c-0.2 0-0.5 0.1-0.7 0.2s-0.5 0.1-0.7 0.2-0.5 0.1-0.7 0.2-0.5 0.1-0.7 0.2-0.5 0.2-0.7 0.2c-0.2 0.1-0.5 0.2-0.7 0.3s-0.5 0.2-0.7 0.3-0.5 0.2-0.7 0.3-0.5 0.2-0.7 0.4c-0.2 0.1-0.5 0.2-0.7 0.4-0.2 0.1-0.5 0.3-0.7 0.4s-0.5 0.3-0.7 0.4c-0.2 0.2-0.4 0.3-0.7 0.5-0.2 0.2-0.4 0.3-0.6 0.5s-0.4 0.3-0.6 0.5-0.4 0.3-0.6 0.5l-0.5 0.5c-0.2 0.2-0.3 0.4-0.5 0.6s-0.3 0.4-0.5 0.6-0.3 0.4-0.5 0.6c-0.1 0.2-0.3 0.4-0.4 0.6s-0.3 0.4-0.4 0.7c-0.1 0.2-0.2 0.5-0.4 0.7-0.1 0.2-0.2 0.5-0.3 0.7s-0.2 0.5-0.3 0.7c-0.1 0.3-0.2 0.5-0.3 0.8-0.1 0.2-0.1 0.3-0.1 0.5s-0.1 0.3-0.1 0.5-0.1 0.3-0.1 0.5-0.1 0.3-0.1 0.5 0 0.3-0.1 0.5v0.5 0.5 0.5 0.5 0.5c0 0.2 0 0.3 0.1 0.5 0 0.2 0.1 0.3 0.1 0.5s0.1 0.3 0.1 0.5c0 0.2 0.1 0.3 0.1 0.5 0.1 0.2 0.1 0.3 0.2 0.5s0.1 0.3 0.2 0.5l3.8-1.6c-0.1-0.1-0.1-0.3-0.2-0.4s-0.1-0.3-0.2-0.4c0-0.1-0.1-0.3-0.1-0.4s-0.1-0.3-0.1-0.4-0.1-0.3-0.1-0.4-0.1-0.3-0.1-0.4 0-0.3-0.1-0.4v-0.4-0.4-0.4-0.4-0.4-0.4c0-0.1 0-0.3 0.1-0.4 0-0.1 0.1-0.3 0.1-0.4s0.1-0.3 0.1-0.4 0.1-0.2 0.1-0.3 0.1-0.2 0.1-0.3 0.1-0.2 0.1-0.3 0.1-0.2 0.1-0.3 0.1-0.2 0.1-0.3 0.1-0.2 0.1-0.3 0.1-0.2 0.1-0.3 0.1-0.2 0.1-0.3 0.1-0.2 0.1-0.3 0.1-0.2 0.2-0.3 0.1-0.2 0.2-0.3 0.1-0.2 0.2-0.3 0.1-0.2 0.2-0.3 0.1-0.2 0.2-0.3 0.1-0.2 0.2-0.2c0.1-0.1 0.1-0.2 0.2-0.2 0 0 0-0.1 0.1-0.1 0 0 0-0.1 0.1-0.1 0 0 0-0.1 0.1-0.1l0.1-0.1s0-0.1 0.1-0.1c0 0 0-0.1 0.1-0.1l0.1-0.1 0.1-0.1s0-0.1 0.1-0.1c0 0 0-0.1 0.1-0.1l0.1-0.1 0.1-0.1 0.1-0.1s0.1 0 0.1-0.1c0 0 0.1 0 0.1-0.1 0 0 0.1 0 0.1-0.1l0.1-0.1 0.1-0.1 0.1-0.1 0.1-0.1 0.1-0.1s0.1 0 0.1-0.1c0 0 0.1 0 0.1-0.1 0 0 0.1 0 0.1-0.1 0 0 0.1 0 0.1-0.1 0 0 0.1 0 0.1-0.1 0 0 0.1 0 0.1-0.1 0 0 0.1 0 0.1-0.1 0 0 0.1 0 0.1-0.1 0 0 0.1 0 0.1-0.1l0.1-0.1s0.1 0 0.1-0.1c0 0 0.1 0 0.1-0.1 0 0 0.1 0 0.1-0.1 0 0 0.1 0 0.1-0.1 0 0 0.1 0 0.1-0.1 0 0 0.1 0 0.1-0.1 0 0 0.1 0 0.1-0.1 0 0 0.1 0 0.1-0.1 0 0 0.1 0 0.1-0.1 0 0 0.1 0 0.1-0.1 0 0 0.1 0 0.1-0.1 0 0 0.1 0 0.1-0.1 0 0 0.1 0 0.1-0.1 0 0 0.1 0 0.1-0.1h0.1s0.1 0 0.1-0.1h0.1l0.6-0.3 0.6-0.3 0.6-0.3 0.6-0.3c0.2-0.1 0.4-0.2 0.6-0.2 0.2-0.1 0.4-0.1 0.6-0.2s0.4-0.1 0.6-0.2 0.4-0.1 0.6-0.2 0.4-0.1 0.6-0.2c0.2 0 0.4-0.1 0.6-0.1s0.4-0.1 0.6-0.1 0.4-0.1 0.6-0.1 0.4-0.1 0.7-0.1c0.2 0 0.4 0 0.7-0.1h0.7 0.7l-0.8-0.5" fill="#D4311F"/>
	<path d="m116.6 63.8h0.8c0.3 0 0.5 0 0.8 0.1 0.3 0 0.5 0 0.8 0.1 0.3 0 0.5 0.1 0.7 0.1s0.5 0.1 0.7 0.1 0.5 0.1 0.7 0.1c0.2 0.1 0.5 0.1 0.7 0.2s0.5 0.1 0.7 0.2 0.5 0.1 0.7 0.2 0.5 0.1 0.7 0.2 0.5 0.2 0.7 0.2c0.2 0.1 0.5 0.2 0.7 0.3s0.5 0.2 0.7 0.3 0.5 0.2 0.7 0.3 0.4 0.2 0.7 0.3c0.2 0.1 0.4 0.2 0.7 0.4 0.2 0.1 0.5 0.3 0.7 0.4s0.5 0.3 0.7 0.4c0.2 0.2 0.4 0.3 0.6 0.5s0.4 0.3 0.6 0.5 0.4 0.3 0.6 0.5 0.4 0.3 0.6 0.5l0.5 0.5c0.2 0.2 0.3 0.4 0.5 0.6s0.3 0.4 0.5 0.6 0.3 0.4 0.4 0.6 0.3 0.4 0.4 0.6 0.3 0.4 0.4 0.6 0.2 0.5 0.3 0.7 0.2 0.5 0.3 0.7 0.2 0.5 0.3 0.7 0.2 0.5 0.2 0.7 0.1 0.3 0.1 0.5 0.1 0.3 0.1 0.5 0.1 0.3 0.1 0.5 0.1 0.3 0.1 0.5v0.2 0.2 0.2 0.2 0.2 0.2 0.2 0.2 0.5 0.5c0 0.2 0 0.3-0.1 0.5 0 0.2-0.1 0.3-0.1 0.5s-0.1 0.3-0.1 0.5-0.1 0.3-0.1 0.5c-0.1 0.2-0.1 0.3-0.2 0.5s-0.1 0.3-0.2 0.5l-3.2-1.4c0.1-0.1 0.1-0.3 0.2-0.4 0-0.1 0.1-0.3 0.1-0.4s0.1-0.3 0.1-0.4 0.1-0.3 0.1-0.4 0.1-0.3 0.1-0.4 0-0.3 0.1-0.4c0-0.1 0-0.3 0.1-0.4v-0.4-0.3-0.3-0.3s0-0.2 0-0.3v-0.1-0.1-0.1-0.1-0.4c0-0.1 0-0.3-0.1-0.4 0-0.1 0-0.3-0.1-0.4 0-0.1-0.1-0.3-0.1-0.4s-0.1-0.2-0.1-0.3-0.1-0.2-0.1-0.3-0.1-0.2-0.1-0.3-0.1-0.2-0.1-0.3-0.1-0.2-0.1-0.3-0.1-0.2-0.1-0.3-0.1-0.2-0.1-0.3-0.1-0.2-0.1-0.3c-0.1-0.1-0.1-0.2-0.2-0.3 0-0.1-0.1-0.2-0.2-0.3s-0.1-0.2-0.2-0.3-0.1-0.2-0.2-0.3-0.1-0.2-0.2-0.3-0.1-0.2-0.2-0.3-0.1-0.2-0.2-0.3-0.1-0.2-0.2-0.2l-0.1-0.1s0-0.1-0.1-0.1l-0.1-0.1s0-0.1-0.1-0.1c0 0 0-0.1-0.1-0.1 0 0 0-0.1-0.1-0.1 0 0 0-0.1-0.1-0.1 0 0 0-0.1-0.1-0.1l-0.1-0.1-0.1-0.1-0.1-0.1-0.1-0.1-0.1-0.1-0.1-0.1-0.1-0.1-0.1-0.1-0.1-0.1s-0.1 0-0.1-0.1l-0.1-0.1s-0.1 0-0.1-0.1l-0.1-0.1s-0.1 0-0.1-0.1c0 0-0.1 0-0.1-0.1l-0.1-0.1s-0.1 0-0.1-0.1l-0.1-0.1s-0.1 0-0.1-0.1c0 0-0.1 0-0.1-0.1l-0.1-0.1s-0.1 0-0.1-0.1c0 0-0.1 0-0.1-0.1 0 0-0.1 0-0.1-0.1 0 0-0.1 0-0.1-0.1 0 0-0.1 0-0.1-0.1l-0.1-0.1s-0.1 0-0.1-0.1c0 0-0.1 0-0.1-0.1 0 0-0.1 0-0.1-0.1 0 0-0.1 0-0.1-0.1 0 0-0.1 0-0.1-0.1 0 0-0.1 0-0.1-0.1 0 0-0.1 0-0.1-0.1 0 0-0.1 0-0.1-0.1 0 0-0.1 0-0.1-0.1 0 0-0.1 0-0.1-0.1 0 0-0.1 0-0.1-0.1 0 0-0.1 0-0.1-0.1 0 0-0.1 0-0.1-0.1h-0.1-0.1-0.1-0.1-0.1-0.1-0.1-0.1-0.1-0.1-0.1-0.1-0.1-0.1-0.1-0.1c-0.2-0.1-0.3-0.2-0.5-0.3s-0.3-0.2-0.5-0.2c-0.2-0.1-0.3-0.2-0.5-0.2-0.2-0.1-0.3-0.1-0.5-0.2s-0.3-0.1-0.5-0.2-0.4-0.1-0.5-0.2c-0.2-0.1-0.4-0.1-0.5-0.2-0.2 0-0.4-0.1-0.5-0.1-0.2 0-0.4-0.1-0.6-0.1s-0.4-0.1-0.5-0.1-0.4-0.1-0.6-0.1c-0.2 0-0.4-0.1-0.6-0.1s-0.4-0.1-0.6-0.1-0.4 0-0.6-0.1h-0.6-0.6l1.5-0.3m-0.2 0v1.8h0.6 0.6c0.2 0 0.4 0 0.6 0.1 0.2 0 0.4 0 0.6 0.1 0.2 0 0.4 0.1 0.6 0.1s0.4 0.1 0.6 0.1 0.4 0.1 0.6 0.1 0.4 0.1 0.5 0.1c0.2 0 0.4 0.1 0.5 0.1 0.2 0.1 0.4 0.1 0.5 0.2 0.2 0.1 0.4 0.1 0.5 0.2 0.2 0.1 0.4 0.1 0.5 0.2 0.2 0.1 0.4 0.1 0.5 0.2 0.2 0.1 0.4 0.1 0.5 0.2 0.2 0.1 0.3 0.2 0.5 0.2 0.2 0.1 0.3 0.2 0.5 0.3h0.1 0.1 0.1 0.1 0.1 0.1 0.1 0.1 0.1 0.1 0.1 0.1 0.1 0.1 0.1 0.1s0.1 0 0.1 0.1c0 0 0.1 0 0.1 0.1l0.1 0.1s0.1 0 0.1 0.1c0 0 0.1 0 0.1 0.1 0 0 0.1 0 0.1 0.1 0 0 0.1 0 0.1 0.1 0 0 0.1 0 0.1 0.1 0 0 0.1 0 0.1 0.1 0 0 0.1 0 0.1 0.1 0 0 0.1 0 0.1 0.1 0 0 0.1 0 0.1 0.1 0 0 0.1 0 0.1 0.1 0 0 0.1 0 0.1 0.1 0 0 0.1 0 0.1 0.1l0.1 0.1s0.1 0 0.1 0.1c0 0 0.1 0 0.1 0.1 0 0 0.1 0 0.1 0.1 0 0 0.1 0 0.1 0.1 0 0 0.1 0 0.1 0.1 0 0 0.1 0 0.1 0.1 0 0 0.1 0 0.1 0.1 0 0 0.1 0 0.1 0.1 0 0 0.1 0 0.1 0.1l0.1 0.1 0.1 0.1s0.1 0 0.1 0.1c0 0 0.1 0 0.1 0.1l0.1 0.1 0.1 0.1 0.1 0.1 0.1 0.1 0.1 0.1 0.1 0.1 0.1 0.1 0.1 0.1 0.1 0.1 0.1 0.1s0 0.1 0.1 0.1l0.1 0.1s0 0.1 0.1 0.1c0 0 0 0.1 0.1 0.1 0 0 0 0.1 0.1 0.1l0.1 0.1s0 0.1 0.1 0.1c0 0 0 0.1 0.1 0.1 0 0 0 0.1 0.1 0.1 0.1 0.1 0.1 0.2 0.2 0.2 0.1 0.1 0.1 0.2 0.2 0.3s0.1 0.2 0.2 0.3 0.1 0.2 0.2 0.3 0.1 0.2 0.2 0.3 0.1 0.2 0.2 0.3 0.1 0.2 0.2 0.3c0 0.1 0.1 0.2 0.1 0.3s0.1 0.2 0.1 0.3 0.1 0.2 0.1 0.3 0.1 0.2 0.1 0.3 0.1 0.2 0.1 0.3 0.1 0.2 0.1 0.3 0.1 0.2 0.1 0.3 0.1 0.2 0.1 0.3 0.1 0.2 0.1 0.3 0.1 0.3 0.1 0.4 0 0.3 0.1 0.4c0 0.1 0 0.3 0.1 0.4v0.4 0.4 0.4 0.4 0.4 0.4c0 0.1 0 0.3-0.1 0.4 0 0.1 0 0.3-0.1 0.4 0 0.1-0.1 0.3-0.1 0.4s-0.1 0.3-0.1 0.4-0.1 0.3-0.1 0.4c-0.1 0.1-0.1 0.3-0.2 0.4s-0.1 0.3-0.2 0.4l3.8 1.6c0.1-0.2 0.1-0.3 0.2-0.5s0.1-0.3 0.2-0.5 0.1-0.3 0.1-0.5 0.1-0.3 0.1-0.5 0.1-0.3 0.1-0.5 0.1-0.3 0.1-0.5 0-0.3 0.1-0.5v-0.5-0.5-0.5-0.5c0-0.2 0-0.3-0.1-0.5 0-0.2 0-0.3-0.1-0.5 0-0.2-0.1-0.3-0.1-0.5s-0.1-0.3-0.1-0.5-0.1-0.3-0.1-0.5c-0.1-0.3-0.2-0.5-0.2-0.8-0.1-0.3-0.2-0.5-0.3-0.7s-0.2-0.5-0.3-0.7-0.2-0.5-0.4-0.7c-0.1-0.2-0.2-0.4-0.4-0.7-0.1-0.2-0.3-0.4-0.4-0.6s-0.3-0.4-0.4-0.6c-0.2-0.2-0.3-0.4-0.5-0.6s-0.3-0.4-0.5-0.6l-0.5-0.5s-0.4-0.3-0.6-0.5c-0.2-0.2-0.4-0.3-0.6-0.5s-0.4-0.3-0.6-0.5-0.4-0.3-0.7-0.5c-0.2-0.2-0.5-0.3-0.7-0.4s-0.5-0.3-0.7-0.4-0.5-0.3-0.7-0.4-0.5-0.2-0.7-0.4c-0.2-0.1-0.5-0.2-0.7-0.3s-0.5-0.2-0.7-0.3-0.5-0.2-0.7-0.3-0.5-0.2-0.7-0.3-0.5-0.2-0.7-0.2c-0.2-0.1-0.5-0.1-0.7-0.2s-0.5-0.1-0.7-0.2-0.5-0.1-0.7-0.2-0.5-0.1-0.8-0.1c-0.2 0-0.5-0.1-0.8-0.1s-0.5-0.1-0.8-0.1-0.5-0.1-0.8-0.1-0.5 0-0.8-0.1c-1.7-0.9-2-0.9-2.2-0.9" fill="#D4311F"/>
	<path d="m104.8 70.3v0c0.1-0.1 0.2-0.1 0.2-0.2 0 0 0.1 0 0.1-0.1l0.1-0.1 0.1-0.1s0.1 0 0.1-0.1c0 0 0.1 0 0.1-0.1 0 0 0.1 0 0.1-0.1 0 0 0.1 0 0.1-0.1 0 0 0.1 0 0.1-0.1 0 0 0.1 0 0.1-0.1 0 0 0.1 0 0.1-0.1 0 0 0.1 0 0.1-0.1 0 0 0.1 0 0.1-0.1 0 0 0.1 0 0.1-0.1 0 0 0.1 0 0.1-0.1 0.1-0.1 0.3-0.2 0.4-0.2 0.1-0.1 0.3-0.2 0.4-0.2 0.1-0.1 0.3-0.1 0.4-0.2s0.3-0.1 0.4-0.2c0.1-0.1 0.3-0.1 0.4-0.2s0.3-0.1 0.4-0.2 0.3-0.1 0.4-0.2c0.2-0.1 0.3-0.1 0.4-0.2 0.1 0 0.3-0.1 0.4-0.1 0.2 0 0.3-0.1 0.5-0.1s0.3-0.1 0.5-0.1 0.3-0.1 0.5-0.1 0.3-0.1 0.5-0.1 0.3-0.1 0.5-0.1 0.3 0 0.5-0.1c0.2 0 0.3 0 0.5-0.1h0.1 0.1 0.1 0.1 0.1 0.1 0.1 0.1 0.1 0.1 0.1 0.1 0.1 0.1 0.1 0.1 0.1 0.1 0.1 0.1 0.1 0.1 0.1 0.1 0.1 0.1 0.1 0.1 0.1 0.1 0.1 0.1 0.1 0.1c0.1 0 0.3 0 0.4 0.1 0.1 0 0.3 0 0.4 0.1 0.1 0 0.3 0.1 0.4 0.1s0.3 0.1 0.4 0.1 0.3 0.1 0.4 0.1 0.3 0.1 0.4 0.1 0.3 0.1 0.4 0.1 0.3 0.1 0.4 0.1 0.3 0.1 0.4 0.1 0.3 0.1 0.4 0.2 0.3 0.1 0.4 0.2 0.3 0.1 0.4 0.2 0.3 0.1 0.4 0.2 0.3 0.1 0.4 0.2 0.3 0.1 0.4 0.2 0.3 0.1 0.4 0.2c0 0 0.1 0 0.1 0.1 0 0 0.1 0 0.1 0.1 0 0 0.1 0 0.1 0.1 0 0 0.1 0 0.1 0.1l0.1 0.1 0.1 0.1 0.1 0.1 0.1 0.1 0.1 0.1s0.1 0 0.1 0.1l0.1 0.1 0.1 0.1 0.1 0.1s0.1 0 0.1 0.1l0.1 0.1 0.1 0.1-2.3 0.9-0.1-0.1-0.1-0.1-0.1-0.1-0.1-0.1-0.1-0.1-0.1-0.1-0.1-0.1-0.1-0.1-0.1-0.1-0.1-0.1-0.1-0.1-0.1-0.1-0.1-0.1h-0.1-0.1-0.1c-0.1-0.1-0.2-0.1-0.3-0.2s-0.2-0.1-0.3-0.2-0.2-0.1-0.3-0.2-0.2-0.1-0.3-0.2c-0.1 0-0.2-0.1-0.3-0.1s-0.2-0.1-0.3-0.1-0.2-0.1-0.3-0.1-0.2-0.1-0.3-0.1-0.2-0.1-0.3-0.1-0.2-0.1-0.3-0.1-0.2-0.1-0.3-0.1-0.2-0.1-0.3-0.1-0.2-0.1-0.3-0.1-0.2 0-0.3-0.1c-0.1 0-0.2 0-0.3-0.1-0.1 0-0.2 0-0.3-0.1h-0.1-0.1-0.1-0.1-0.1-0.1-0.1-0.1-0.1-0.1-0.1-0.1-0.1-0.1-0.1-0.1-0.1-0.1-0.1-0.1-0.1-0.1-0.1-0.1-0.1-0.1-0.1-0.1-0.1-0.1-0.1-0.1-0.1-0.1-0.1-0.1-0.1-0.1-0.1-0.1-0.1-0.1-0.1-0.1-0.1-0.1-0.1-0.1-0.4-0.4c-0.1 0-0.3 0-0.4 0.1-0.1 0-0.3 0-0.4 0.1-0.1 0-0.3 0.1-0.4 0.1s-0.3 0.1-0.4 0.1-0.3 0.1-0.4 0.1-0.3 0.1-0.4 0.1-0.3 0.1-0.4 0.1-0.3 0.1-0.4 0.1-0.2 0.1-0.4 0.2c-0.1 0-0.2 0.1-0.4 0.2-0.1 0.1-0.2 0.1-0.4 0.2-0.1 0.1-0.2 0.1-0.4 0.2-0.1 0.1-0.2 0.1-0.4 0.2-0.1 0.1-0.2 0.1-0.4 0.2h-0.1s-0.1 0-0.1 0.1h-0.1-0.1s-0.1 0-0.1 0.1h-0.1l-0.1 0.1-0.1 0.1-0.1 0.1-0.1 0.1-0.1 0.1-0.1 0.1-0.1 0.1-0.1 0.1-0.1 0.1-0.1 0.1 1.4-0.7m11-3.8h-0.1-0.1-0.1-0.1-0.1-0.1-0.1-0.1-0.1-0.1-0.1-0.1-0.1-0.1-0.1-0.1-0.1c-0.2 0-0.3 0-0.5 0.1-0.2 0-0.3 0-0.5 0.1-0.2 0-0.3 0.1-0.5 0.1s-0.3 0.1-0.5 0.1-0.3 0.1-0.5 0.1-0.3 0.1-0.5 0.1-0.3 0.1-0.5 0.1-0.3 0.1-0.5 0.1-0.3 0.1-0.4 0.2c-0.2 0.1-0.3 0.1-0.5 0.2-0.1 0.1-0.3 0.1-0.4 0.2s-0.3 0.1-0.4 0.2-0.3 0.1-0.4 0.2-0.3 0.1-0.4 0.2-0.3 0.2-0.4 0.2c-0.1 0.1-0.3 0.2-0.4 0.2l-0.1 0.1-0.1 0.1-0.1 0.1-0.1 0.1-0.1 0.1-0.1 0.1-0.1 0.1-0.1 0.1-0.1 0.1-0.1 0.1-0.1 0.1-0.1 0.1-0.1 0.1-0.1 0.1-0.1 0.1-0.1 0.1 2.6 1.1 0.1-0.1 0.1-0.1 0.1-0.1s0.1 0 0.1-0.1c0 0 0.1 0 0.1-0.1 0 0 0.1 0 0.1-0.1l0.1-0.1 0.1-0.1 0.1-0.1 0.1-0.1s0.1 0 0.1-0.1c0 0 0.1 0 0.1-0.1 0 0 0.1 0 0.1-0.1 0 0 0.1 0 0.1-0.1 0 0 0.1 0 0.1-0.1 0 0 0.1 0 0.1-0.1 0.1-0.1 0.2-0.1 0.4-0.2 0.1-0.1 0.2-0.1 0.4-0.2 0.1-0.1 0.2-0.1 0.4-0.2 0.1-0.1 0.2-0.1 0.4-0.2 0.1-0.1 0.2-0.1 0.4-0.2 0.1-0.1 0.2-0.1 0.4-0.2 0.1 0 0.2-0.1 0.4-0.1 0.1 0 0.3-0.1 0.4-0.1s0.3-0.1 0.4-0.1 0.3-0.1 0.4-0.1 0.3-0.1 0.4-0.1 0.3-0.1 0.4-0.1 0.3 0 0.4-0.1c0.1 0 0.3 0 0.4-0.1h0.4 0.4 0.1 0.1 0.1 0.1 0.1 0.1 0.1 0.1 0.1 0.1 0.1 0.1 0.1 0.1 0.1 0.1 0.1 0.1 0.1 0.1 0.1 0.1 0.1 0.1 0.1 0.1 0.1 0.1 0.1 0.1 0.1 0.1 0.1 0.1 0.1 0.1 0.1 0.1 0.1 0.1 0.1 0.1 0.1 0.1 0.1 0.1 0.1 0.1c0.1 0 0.2 0 0.3 0.1 0.1 0 0.2 0 0.3 0.1 0.1 0 0.2 0 0.3 0.1 0.1 0 0.2 0.1 0.3 0.1s0.2 0.1 0.3 0.1 0.2 0.1 0.3 0.1 0.2 0.1 0.3 0.1 0.2 0.1 0.3 0.1 0.2 0.1 0.3 0.1 0.2 0.1 0.3 0.1 0.2 0.1 0.3 0.1 0.2 0.1 0.3 0.1 0.2 0.1 0.3 0.1 0.2 0.1 0.3 0.2 0.2 0.1 0.3 0.2 0.2 0.1 0.3 0.2l0.1 0.1s0.1 0 0.1 0.1c0 0 0.1 0 0.1 0.1 0 0 0.1 0 0.1 0.1 0 0 0.1 0 0.1 0.1 0 0 0.1 0 0.1 0.1l0.1 0.1s0.1 0 0.1 0.1l0.1 0.1s0.1 0 0.1 0.1c0 0 0.1 0 0.1 0.1l0.1 0.1s0.1 0 0.1 0.1l0.1 0.1 0.1 0.1s0.1 0 0.1 0.1l2.7-1.1-0.1-0.1-0.1-0.1-0.1-0.1-0.1-0.1-0.1-0.1-0.1-0.1-0.1-0.1-0.1-0.1-0.1-0.1-0.1-0.1-0.1-0.1-0.1-0.1-0.1-0.1-0.1-0.1-0.1-0.1-0.1-0.1c-0.1-0.1-0.3-0.2-0.4-0.2-0.1-0.1-0.3-0.1-0.4-0.2s-0.3-0.1-0.4-0.2-0.3-0.1-0.4-0.2-0.3-0.1-0.4-0.2-0.3-0.1-0.4-0.2-0.3-0.1-0.4-0.2-0.3-0.1-0.4-0.1-0.3-0.1-0.4-0.1-0.3-0.1-0.4-0.1-0.3-0.1-0.4-0.1-0.3-0.1-0.4-0.1-0.3-0.1-0.4-0.1-0.3-0.1-0.4-0.1-0.3-0.1-0.4-0.1-0.3 0-0.4-0.1h-0.1-0.1-0.1-0.1-0.1-0.1-0.1-0.1-0.1-0.1-0.1-0.1-0.1-0.1-0.1-0.1-0.1-0.1-0.1-0.1-0.1-3.8" fill="#D4311F"/>
	<path d="m125.6 72.4l2.3-1 0.2 0.2c0.1 0.1 0.1 0.2 0.2 0.3s0.1 0.2 0.2 0.3 0.1 0.2 0.2 0.3 0.1 0.2 0.2 0.3 0.1 0.2 0.2 0.3 0.1 0.2 0.2 0.3 0.1 0.2 0.2 0.3 0.1 0.2 0.2 0.3c0 0.1 0.1 0.2 0.1 0.3s0.1 0.2 0.1 0.3 0.1 0.2 0.1 0.3 0.1 0.2 0.1 0.3 0.1 0.2 0.1 0.3 0.1 0.2 0.1 0.3 0.1 0.2 0.1 0.3 0 0.2 0.1 0.4v0.4 0.4 0.4 0.3s0 0.2 0 0.3v0.3 0.3 0.3c0 0.1 0 0.2-0.1 0.3 0 0.1-0.1 0.2-0.1 0.3s-0.1 0.2-0.1 0.3-0.1 0.2-0.1 0.3-0.1 0.2-0.1 0.3-0.1 0.2-0.1 0.3-0.1 0.2-0.2 0.3v0.1 0.1 0.1l-0.1 0.1v0.1 0.1 0.1 0.1 0.1 0.1 0.1l-0.1 0.1-0.1 0.1-0.1 0.1s-0.1 0.1-0.1 0.1l-0.1 0.1-0.1 0.1-0.1 0.1-0.1 0.1-0.1 0.1-0.1 0.1-0.1 0.1-0.1 0.1-0.1 0.1-0.1 0.1-0.1 0.1-0.1 0.1-0.5 0.5c-0.2 0.2-0.3 0.3-0.5 0.4s-0.4 0.3-0.5 0.4c-0.2 0.1-0.4 0.3-0.6 0.4s-0.4 0.2-0.6 0.4l-0.6 0.3-0.6 0.3c-0.2 0.1-0.4 0.2-0.7 0.3-0.2 0.1-0.5 0.2-0.7 0.3s-0.5 0.2-0.7 0.2c-0.2 0.1-0.5 0.1-0.7 0.2s-0.5 0.1-0.7 0.2c-0.3 0.1-0.5 0.1-0.8 0.1s-0.5 0.1-0.8 0.1-0.5 0.1-0.8 0.1-0.5 0-0.8 0.1v-3.1h0.6c0.2 0 0.4 0 0.6-0.1 0.2 0 0.4-0.1 0.6-0.1s0.4-0.1 0.6-0.1 0.4-0.1 0.5-0.1c0.2 0 0.4-0.1 0.5-0.2 0.2-0.1 0.4-0.1 0.5-0.2 0.2-0.1 0.3-0.1 0.5-0.2s0.3-0.1 0.5-0.2 0.3-0.2 0.5-0.2c0.2-0.1 0.3-0.2 0.5-0.2 0.2-0.1 0.3-0.2 0.4-0.3 0.2-0.1 0.3-0.2 0.4-0.3s0.3-0.2 0.4-0.3 0.3-0.2 0.4-0.3 0.3-0.2 0.4-0.3l0.1-0.1 0.1-0.1 0.1-0.1 0.1-0.1s0-0.1 0.1-0.1l0.1-0.1s0-0.1 0.1-0.1l0.1-0.1 0.1-0.1 0.1-0.1 0.1-0.1v-0.1l0.1-0.1v-0.1-0.1-0.1-0.1-0.1-0.1-0.1-0.1-0.1-0.1-0.1-0.1-0.1-0.1-0.1-0.1-0.1-0.1-0.1-0.1-0.1-0.1-0.1c0-0.1 0.1-0.1 0.1-0.2s0-0.1 0.1-0.2c0-0.1 0-0.1 0.1-0.2v-0.2-0.2-0.2-0.2-0.2-0.2-0.2-0.2s0-0.1 0-0.2v-0.2-0.2-0.2-0.2-0.3c0-0.1 0-0.2-0.1-0.3 0-0.1 0-0.2-0.1-0.3 0-0.1 0-0.2-0.1-0.3 0-0.1-0.1-0.2-0.1-0.2 0-0.1-0.1-0.2-0.1-0.2 0-0.1-0.1-0.2-0.1-0.2 0-0.1-0.1-0.2-0.1-0.2 0-0.1-0.1-0.2-0.1-0.2 0-0.1-0.1-0.2-0.1-0.2 0-0.1-0.1-0.1-0.1-0.2s-0.1-0.1-0.1-0.2-0.1-0.1-0.1-0.2-0.1-0.1-0.2-0.2c0-0.1-0.1-0.1-0.2-0.2 0.5 0.6 0.5 0.6 0.4 0.5m2.3-1.2l-2.7 1.2 0.2 0.2 0.2 0.2 0.2 0.2 0.2 0.2c0 0.1 0.1 0.1 0.1 0.2s0.1 0.1 0.1 0.2 0.1 0.2 0.1 0.2c0 0.1 0.1 0.2 0.1 0.2 0 0.1 0.1 0.2 0.1 0.2 0 0.1 0.1 0.2 0.1 0.2 0 0.1 0.1 0.2 0.1 0.2 0 0.1 0.1 0.2 0.1 0.3s0.1 0.2 0.1 0.3 0 0.2 0.1 0.3c0 0.1 0 0.2 0.1 0.3 0 0.1 0 0.2 0.1 0.3v0.2 0.2 0.2 0.2 0.2 0.2 0.2 0.2 0.2 0.2 0.2 0.2c0 0.1 0 0.1-0.1 0.2 0 0.1 0 0.1-0.1 0.2 0 0.1 0 0.1-0.1 0.2 0 0.1 0 0.1-0.1 0.2v0.1 0.1 0.1 0.1 0.1 0.1 0.1 0.1 0.1 0.1 0.1 0.1 0.1 0.1 0.1 0.1 0.1 0.1 0.1 0.1 0.1 0.1 0.1l-0.1 0.1-0.1 0.1-0.1 0.1v0.1l-0.1 0.1v0.1l-0.1 0.1-0.1 0.1-0.1 0.1-0.1 0.1-0.1 0.1-0.1 0.1-0.1 0.1-0.1 0.1-0.1 0.1-0.1 0.1-0.1 0.1-0.1 0.1-0.1 0.1-0.1 0.1-0.1 0.1-0.1 0.1-0.1 0.1-0.1 0.1-0.1 0.1c-0.1 0.1-0.3 0.2-0.4 0.3s-0.3 0.2-0.4 0.3-0.3 0.2-0.4 0.3-0.3 0.2-0.4 0.3c-0.2 0.1-0.3 0.2-0.5 0.3s-0.3 0.2-0.5 0.2c-0.2 0.1-0.3 0.2-0.5 0.2-0.2 0.1-0.3 0.1-0.5 0.2s-0.3 0.1-0.5 0.2-0.4 0.1-0.5 0.2c-0.2 0-0.4 0.1-0.5 0.1-0.2 0-0.4 0.1-0.5 0.1-0.2 0-0.4 0.1-0.6 0.1s-0.4 0.1-0.6 0.1-0.4 0-0.6 0.1h-0.6v3.6c0.3 0 0.6 0 0.8-0.1 0.3 0 0.6 0 0.8-0.1 0.3 0 0.5-0.1 0.8-0.1s0.5-0.1 0.8-0.1c0.3-0.1 0.5-0.1 0.8-0.2s0.5-0.1 0.8-0.2c0.2-0.1 0.5-0.2 0.7-0.2 0.2-0.1 0.5-0.2 0.7-0.3s0.5-0.2 0.7-0.3 0.4-0.2 0.7-0.3c0.2-0.1 0.4-0.2 0.6-0.4 0.2-0.1 0.4-0.2 0.6-0.4 0.2-0.1 0.4-0.3 0.6-0.4s0.4-0.3 0.6-0.4 0.4-0.3 0.6-0.5 0.4-0.3 0.5-0.5l0.1-0.1 0.1-0.1 0.1-0.1 0.1-0.1 0.1-0.1 0.1-0.1 0.1-0.1 0.1-0.1 0.1-0.1 0.1-0.1 0.1-0.1s0.1-0.1 0.1-0.2l0.1-0.1 0.1-0.1 0.1-0.1 0.1-0.1c0.1-0.1 0.1-0.2 0.2-0.3 0-0.1 0.1-0.2 0.1-0.4 0-0.1 0.1-0.2 0.1-0.4 0-0.1 0.1-0.2 0.1-0.4 0-0.1 0.1-0.2 0.1-0.4 0-0.1 0.1-0.2 0.1-0.4 0-0.1 0-0.2 0.1-0.4v-0.4-0.4-0.4-0.4-0.4-0.4-0.4c0-0.1 0-0.2-0.1-0.4 0-0.1 0-0.2-0.1-0.4 0-0.1-0.1-0.2-0.1-0.4 0-0.1-0.1-0.2-0.1-0.4 0-0.1-0.1-0.2-0.1-0.3s-0.1-0.2-0.1-0.3-0.1-0.2-0.1-0.3-0.1-0.2-0.1-0.3-0.1-0.2-0.2-0.3-0.1-0.2-0.2-0.3-0.1-0.2-0.2-0.3-0.1-0.2-0.2-0.3-0.1-0.2-0.2-0.3-0.1-0.2-0.2-0.3-0.1-0.2-0.2-0.3-0.2-0.2-0.2-0.3c-0.1-0.1-0.2-0.2-0.2-0.3 0.7-2.1 0.6-2.2 0.5-2.3" fill="#D4311F"/>
	<path d="m100.8 77.6v-0.1-0.3-0.4c0-0.1 0-0.2 0.1-0.4 0-0.1 0-0.2 0.1-0.4 0-0.1 0.1-0.2 0.1-0.3s0.1-0.2 0.1-0.3 0.1-0.2 0.1-0.3 0.1-0.2 0.1-0.3 0.1-0.2 0.1-0.3 0.1-0.2 0.1-0.3 0.1-0.2 0.1-0.3c0.1-0.1 0.1-0.2 0.2-0.3s0.1-0.2 0.2-0.3 0.1-0.2 0.2-0.3 0.1-0.2 0.2-0.3 0.1-0.2 0.2-0.3 0.1-0.2 0.2-0.3 0.1-0.2 0.2-0.3 0.1-0.2 0.2-0.3l0.2-0.2 2.3 1-0.2 0.2-0.2 0.2-0.2 0.2c0 0.1-0.1 0.1-0.2 0.2 0 0.1-0.1 0.1-0.1 0.2s-0.1 0.2-0.1 0.2c0 0.1-0.1 0.2-0.1 0.2s-0.1 0.2-0.1 0.2c0 0.1-0.1 0.2-0.1 0.2 0 0.1-0.1 0.2-0.1 0.2 0 0.1-0.1 0.2-0.1 0.2 0 0.1-0.1 0.2-0.1 0.2 0 0.1-0.1 0.2-0.1 0.3s0 0.2-0.1 0.3c0 0.1 0 0.2-0.1 0.3v0.3 0.2 0.2 0.2 0.2 0.2 0.2 0.2 0.2 0.2 0.2 0.2 0.2c0 0.1 0 0.1 0.1 0.2 0 0.1 0 0.1 0.1 0.2 0 0.1 0 0.1 0.1 0.2 0 0.1 0 0.1 0.1 0.2v0.1 0.1 0.1 0.1 0.1 0.1 0.1 0.1 0.1 0.1 0.1 0.1 0.1 0.1 0.1 0.1 0.1 0.1 0.1 0.1 0.1 0.1 0.1l0.1 0.1v0.1l0.1 0.1v0.1l0.1 0.1 0.1 0.1 0.1 0.1 0.1 0.1 0.1 0.1v0.1 0.1l0.1 0.1 0.1 0.1v0.1l0.1 0.1 0.1 0.1 0.1 0.1 0.1 0.1 0.1 0.1 0.1 0.1 0.1 0.1 0.1 0.1 0.1 0.1 0.1 0.1 0.1 0.1h0.1 0.1c0.1 0.1 0.2 0.2 0.4 0.3 0.1 0.1 0.2 0.2 0.4 0.3 0.1 0.1 0.3 0.2 0.4 0.2 0.1 0.1 0.3 0.2 0.4 0.2 0.1 0.1 0.3 0.1 0.4 0.2s0.3 0.1 0.4 0.2 0.3 0.1 0.4 0.2 0.3 0.1 0.4 0.2c0.2 0.1 0.3 0.1 0.5 0.2 0.2 0 0.3 0.1 0.5 0.1s0.3 0.1 0.5 0.1 0.3 0.1 0.5 0.1 0.3 0.1 0.5 0.1 0.3 0.1 0.5 0.1c0.2 0 0.3 0 0.5 0.1h0.5l-0.1 3.1c-0.3 0-0.5 0-0.8-0.1-0.3 0-0.5-0.1-0.8-0.1s-0.5-0.1-0.8-0.1-0.5-0.1-0.8-0.1c-0.2-0.1-0.5-0.1-0.7-0.2s-0.5-0.1-0.7-0.2-0.5-0.2-0.7-0.2c-0.2-0.1-0.5-0.2-0.7-0.3l-0.6-0.3-0.6-0.3-0.6-0.3c-0.2-0.1-0.4-0.2-0.6-0.4-0.2-0.1-0.4-0.3-0.6-0.4s-0.4-0.3-0.5-0.4c-0.2-0.1-0.3-0.3-0.5-0.4s-0.3-0.3-0.5-0.5l-0.1-0.1-0.1-0.1-0.1-0.1-0.1-0.1-0.2-0.2-0.1-0.1-0.1-0.1-0.1-0.1-0.1-0.1-0.1-0.1-0.1-0.1-0.1-0.1-0.1-0.1-0.1-0.1s0-0.1-0.1-0.1l-0.1-0.1s0-0.1-0.1-0.1c0 0 0-0.1-0.1-0.1 0 0 0-0.1-0.1-0.1 0 0 0-0.1-0.1-0.1 0 0 0-0.1-0.1-0.1 0-0.1-0.1-0.2-0.1-0.4 0-0.1-0.1-0.2-0.1-0.4 0-0.1-0.1-0.2-0.1-0.4 0-0.1-0.1-0.2-0.1-0.3s-0.1-0.2-0.1-0.3 0-0.2-0.1-0.4c0-0.1 0-0.2-0.1-0.3v-0.4-0.3-0.3-0.3c0.6-1.5 0.6-1.6 0.6-1.7m2.7-6.4l-0.3 0.3c-0.1 0.1-0.2 0.2-0.2 0.3-0.1 0.1-0.2 0.2-0.2 0.3-0.1 0.1-0.1 0.2-0.2 0.3s-0.1 0.2-0.2 0.3-0.1 0.2-0.2 0.3-0.1 0.2-0.2 0.3-0.1 0.2-0.2 0.3-0.1 0.2-0.2 0.3-0.1 0.2-0.2 0.3-0.1 0.2-0.1 0.3-0.1 0.2-0.1 0.3-0.1 0.2-0.1 0.3-0.1 0.2-0.1 0.3-0.1 0.2-0.1 0.4c0 0.1-0.1 0.2-0.1 0.4 0 0.1-0.1 0.2-0.1 0.4 0 0.1 0 0.2-0.1 0.4v0.4 0.4 0.4 0.4 0.4 0.4 0.4c0 0.1 0 0.2 0.1 0.4 0 0.1 0 0.2 0.1 0.4 0 0.1 0.1 0.2 0.1 0.4 0 0.1 0.1 0.2 0.1 0.4 0 0.1 0.1 0.2 0.1 0.4 0 0.1 0.1 0.2 0.1 0.4 0 0.1 0.1 0.2 0.1 0.4 0 0 0 0.1 0.1 0.1 0 0 0 0.1 0.1 0.1 0 0 0 0.1 0.1 0.1 0 0 0 0.1 0.1 0.1 0 0 0 0.1 0.1 0.1 0 0 0 0.1 0.1 0.1 0 0 0 0.1 0.1 0.1l0.1 0.1 0.1 0.1 0.1 0.1 0.1 0.1 0.1 0.1 0.1 0.1 0.1 0.1 0.1 0.1 0.1 0.1 0.5 0.5c0.2 0.2 0.4 0.3 0.5 0.5 0.2 0.1 0.4 0.3 0.6 0.4s0.4 0.3 0.6 0.4 0.4 0.3 0.6 0.4 0.4 0.2 0.6 0.4c0.2 0.1 0.4 0.2 0.7 0.3 0.2 0.1 0.4 0.2 0.7 0.3 0.2 0.1 0.5 0.2 0.7 0.3s0.5 0.2 0.7 0.2c0.2 0.1 0.5 0.1 0.8 0.2s0.5 0.1 0.8 0.2 0.5 0.1 0.8 0.1c0.3 0 0.5 0.1 0.8 0.1s0.5 0.1 0.8 0.1 0.6 0 0.8 0.1l0.1-3.6h-0.5c-0.2 0-0.4 0-0.5-0.1-0.2 0-0.3 0-0.5-0.1s-0.3-0.1-0.5-0.1c-0.2 0-0.3-0.1-0.5-0.1s-0.3-0.1-0.5-0.1-0.3-0.1-0.5-0.1-0.3-0.1-0.5-0.2-0.3-0.1-0.5-0.2-0.3-0.1-0.4-0.2-0.3-0.1-0.4-0.2-0.3-0.1-0.4-0.2-0.3-0.2-0.4-0.2c-0.1-0.1-0.3-0.2-0.4-0.2-0.1-0.1-0.3-0.2-0.4-0.3s-0.2-0.2-0.4-0.3l-0.1-0.1-0.1-0.1-0.1-0.1-0.1-0.1-0.1-0.1-0.1-0.1-0.1-0.1-0.1-0.1-0.1-0.1-0.1-0.1-0.1-0.1-0.1-0.1-0.1-0.1v-0.1l-0.1-0.1-0.1-0.1-0.1-0.1-0.1-0.1-0.1-0.1-0.1-0.1-0.1-0.1v-0.1-0.1-0.1-0.1-0.1-0.1-0.1-0.1-0.1-0.1-0.1-0.1-0.1-0.1-0.1-0.1-0.1-0.1-0.1-0.1-0.1-0.1-0.1-0.1-0.1-0.1-0.1c0-0.1-0.1-0.1-0.1-0.2s0-0.1-0.1-0.2c0-0.1 0-0.1-0.1-0.2v-0.2-0.2-0.2-0.2-0.2-0.2-0.2-0.2-0.2-0.2-0.2-0.2-0.2c0-0.1 0-0.2 0.1-0.3 0-0.1 0-0.2 0.1-0.3 0-0.1 0-0.2 0.1-0.3 0-0.1 0.1-0.2 0.1-0.3s0.1-0.2 0.1-0.3 0.1-0.2 0.1-0.3 0.1-0.2 0.1-0.2c0-0.1 0.1-0.2 0.1-0.2 0-0.1 0.1-0.2 0.1-0.2 0-0.1 0.1-0.2 0.1-0.2 0-0.1 0.1-0.1 0.1-0.2s0.1-0.1 0.1-0.2l0.2-0.2 0.2-0.2 0.2-0.2 0.2-0.2-2.9 0.5" fill="#D4311F"/>
	<path d="m96.6 85.5l3.3-1.4s0.1 0.1 0.1 0.2c0 0 0.1 0.1 0.1 0.2l0.1 0.1 0.1 0.1s0.1 0.1 0.1 0.2l0.1 0.1s0.1 0.1 0.1 0.2 0.1 0.1 0.1 0.2l0.1 0.1c0 0.1 0.1 0.1 0.1 0.1l0.1 0.1c0 0.1 0.1 0.1 0.1 0.2l0.1 0.1 0.1 0.1 0.1 0.1 0.1 0.1 0.4 0.4 0.4 0.4 0.4 0.4c0.1 0.1 0.3 0.2 0.5 0.4 0.2 0.1 0.3 0.2 0.5 0.4 0.2 0.1 0.3 0.2 0.5 0.3s0.3 0.2 0.5 0.3 0.3 0.2 0.5 0.3 0.4 0.2 0.5 0.3l0.6 0.3 0.6 0.3s0.4 0.2 0.6 0.2c0.2 0.1 0.4 0.1 0.6 0.2s0.4 0.1 0.6 0.2 0.4 0.1 0.6 0.2 0.4 0.1 0.6 0.2h0.2 0.2 0.2 0.2 0.2 0.2 0.2 0.2 0.2 0.2 0.2 0.2 0.2 0.2 0.2 0.2 0.2 0.2 0.2 0.2 0.2 0.2 0.2 0.2 0.2 0.2 0.2 0.2 0.2 0.2 0.2 0.2 0.1 0.2 0.2 0.2 0.2 0.2 0.2 0.2 0.2 0.2 0.2 0.2 0.2 0.2 0.2 0.2 0.2c0.3 0 0.6-0.1 0.8-0.1 0.3 0 0.6-0.1 0.8-0.1 0.3-0.1 0.5-0.1 0.8-0.2s0.5-0.1 0.8-0.2 0.5-0.1 0.8-0.2 0.5-0.2 0.8-0.3c0.2-0.1 0.5-0.2 0.7-0.3s0.5-0.2 0.7-0.3 0.5-0.2 0.7-0.3 0.4-0.2 0.7-0.4c0.2-0.1 0.4-0.3 0.6-0.4s0.4-0.3 0.6-0.4 0.4-0.3 0.6-0.4 0.4-0.3 0.6-0.5 0.4-0.3 0.6-0.5l0.5-0.5 0.1-0.1 0.1-0.1 0.1-0.1 0.1-0.1 0.1-0.1 0.1-0.1 0.1-0.1 0.1-0.1 0.1-0.1 0.1-0.1s0.1-0.1 0.1-0.2 0.1-0.1 0.1-0.2 0.1-0.1 0.1-0.2 0.1-0.1 0.1-0.2 0.1-0.1 0.1-0.2 0.1-0.1 0.1-0.2l3.3 1.5c0 0.1-0.1 0.1-0.1 0.2s-0.1 0.1-0.1 0.2-0.1 0.1-0.1 0.2-0.1 0.1-0.1 0.2-0.1 0.1-0.1 0.2-0.1 0.1-0.1 0.2-0.1 0.1-0.1 0.2-0.1 0.1-0.1 0.2-0.1 0.1-0.1 0.2-0.1 0.1-0.2 0.2l-0.2 0.2c0 0.1-0.1 0.1-0.2 0.2l-0.2 0.2-0.2 0.2-0.2 0.2-0.2 0.2c-0.2 0.3-0.5 0.5-0.7 0.8-0.2 0.2-0.5 0.5-0.8 0.7s-0.5 0.5-0.8 0.7l-0.9 0.6-0.9 0.6c-0.3 0.2-0.6 0.4-1 0.6-0.3 0.2-0.7 0.3-1 0.5s-0.7 0.3-1 0.5c-0.4 0.1-0.7 0.3-1.1 0.4s-0.7 0.2-1.1 0.4l-1.2 0.3c-0.4 0.1-0.8 0.2-1.2 0.2-0.4 0.1-0.8 0.1-1.1 0.2-0.4 0.1-0.8 0.1-1.2 0.1s-0.8 0.1-1.2 0.1h-1.2-1.3c-0.4 0-0.9 0-1.3-0.1-0.4 0-0.8-0.1-1.3-0.1-0.4-0.1-0.8-0.1-1.2-0.2l-1.2-0.3-1.2-0.3c-0.4-0.1-0.8-0.2-1.1-0.4-0.4-0.1-0.7-0.3-1.1-0.4s-0.7-0.3-1-0.5-0.7-0.3-1-0.5-0.6-0.4-1-0.6l-0.9-0.6-0.9-0.6c-0.3-0.2-0.6-0.4-0.8-0.7-0.3-0.2-0.5-0.5-0.8-0.7-0.2-0.2-0.5-0.5-0.7-0.8l-0.2-0.2-0.2-0.2-0.2-0.2-0.2-0.2-0.2-0.2c0-0.1-0.1-0.1-0.1-0.2l-0.2-0.2c0-0.1-0.1-0.1-0.1-0.2s-0.1-0.1-0.1-0.2-0.1-0.1-0.1-0.2-0.1-0.1-0.1-0.2-0.1-0.1-0.1-0.2-0.1-0.1-0.1-0.2-0.1-0.1-0.1-0.2-0.1-0.1-0.1-0.2c-1.3 0.3-1.3 0.2-1.4 0.1m3.5-1.7l-3.8 1.7c0 0.1 0.1 0.1 0.1 0.2s0.1 0.1 0.1 0.2 0.1 0.1 0.1 0.2 0.1 0.1 0.1 0.2 0.1 0.1 0.1 0.2 0.1 0.1 0.1 0.2 0.1 0.1 0.1 0.2 0.1 0.1 0.1 0.2 0.1 0.1 0.1 0.2l0.2 0.2 0.2 0.2 0.2 0.2 0.2 0.2 0.2 0.2 0.2 0.2 0.2 0.2c0.2 0.3 0.5 0.5 0.7 0.8 0.3 0.3 0.5 0.5 0.8 0.7s0.5 0.5 0.8 0.7 0.6 0.4 0.9 0.7l0.9 0.6c0.3 0.2 0.6 0.4 1 0.6 0.3 0.2 0.7 0.4 1 0.5 0.3 0.2 0.7 0.3 1 0.5 0.4 0.2 0.7 0.3 1.1 0.4s0.7 0.3 1.1 0.4l1.2 0.3 1.2 0.3c0.4 0.1 0.8 0.1 1.3 0.2 0.4 0.1 0.8 0.1 1.3 0.1 0.4 0 0.9 0.1 1.3 0.1h1.3 1.3c0.4 0 0.9 0 1.3-0.1 0.4 0 0.9-0.1 1.3-0.1 0.4-0.1 0.8-0.1 1.2-0.2s0.8-0.2 1.2-0.2l1.2-0.3c0.4-0.1 0.8-0.2 1.1-0.4 0.4-0.1 0.7-0.3 1.1-0.4s0.7-0.3 1.1-0.5c0.3-0.2 0.7-0.3 1-0.5s0.7-0.4 1-0.6l0.9-0.6 0.9-0.6c0.3-0.2 0.6-0.5 0.8-0.7 0.3-0.2 0.5-0.5 0.8-0.7 0.3-0.3 0.5-0.5 0.7-0.8l0.2-0.2 0.2-0.2 0.2-0.2 0.2-0.2 0.2-0.2 0.2-0.2 0.2-0.2 0.2-0.2 0.2-0.2c0.1-0.1 0.1-0.1 0.1-0.2 0.1-0.1 0.1-0.1 0.1-0.2s0.1-0.1 0.1-0.2 0.1-0.1 0.1-0.2 0.1-0.1 0.1-0.2 0.1-0.1 0.1-0.2 0.1-0.1 0.1-0.2l-3.8-1.7c0 0.1-0.1 0.1-0.1 0.2s-0.1 0.1-0.1 0.2-0.1 0.1-0.1 0.2-0.1 0.1-0.1 0.2-0.1 0.1-0.1 0.2-0.1 0.1-0.1 0.2-0.1 0.1-0.1 0.2-0.1 0.1-0.1 0.2-0.1 0.1-0.1 0.2-0.1 0.1-0.1 0.2-0.1 0.1-0.1 0.2-0.1 0.1-0.1 0.2-0.1 0.1-0.1 0.2-0.1 0.1-0.1 0.2c-0.1 0-0.1 0.1-0.1 0.2l-0.2 0.2-0.5 0.5c-0.2 0.2-0.4 0.3-0.5 0.5-0.2 0.2-0.4 0.3-0.6 0.5-0.2 0.1-0.4 0.3-0.6 0.4s-0.4 0.3-0.6 0.4-0.4 0.3-0.6 0.4-0.4 0.2-0.7 0.4c-0.2 0.1-0.4 0.2-0.7 0.3-0.2 0.1-0.5 0.2-0.7 0.3s-0.5 0.2-0.7 0.3-0.5 0.2-0.7 0.2c-0.3 0.1-0.5 0.2-0.8 0.2-0.3 0.1-0.5 0.1-0.8 0.2s-0.5 0.1-0.8 0.2-0.5 0.1-0.8 0.1-0.6 0.1-0.8 0.1h-0.2-0.2-0.2-0.2-0.2-0.2-0.2-0.2-0.2-0.2-0.2-0.2-0.2-0.2-0.2-0.2-0.2-0.2-0.2-0.2-0.2-0.2-0.2-0.2-0.2-0.2s-0.1 0-0.2 0h-0.2-0.2-0.2-0.2-0.2-0.2-0.2-0.2-0.2-0.2-0.2-0.2-0.2-0.2-0.2-0.2-0.2-0.2-0.2-0.2-0.2c-0.2 0-0.4-0.1-0.6-0.2s-0.4-0.1-0.6-0.2-0.4-0.1-0.6-0.2-0.4-0.1-0.6-0.2-0.4-0.1-0.6-0.2-0.4-0.2-0.6-0.2c-0.2-0.1-0.4-0.2-0.5-0.3-0.2-0.1-0.4-0.2-0.5-0.3-0.2-0.1-0.3-0.2-0.5-0.3s-0.3-0.2-0.5-0.3-0.3-0.2-0.5-0.3-0.3-0.2-0.5-0.3-0.3-0.2-0.4-0.4c-0.1-0.1-0.3-0.2-0.4-0.4l-0.4-0.4-0.4-0.4c0-0.1-0.1-0.1-0.1-0.2 0 0-0.1-0.1-0.1-0.2 0 0-0.1-0.1-0.1-0.2s-0.1-0.1-0.1-0.2-0.1-0.1-0.1-0.2-0.1-0.1-0.1-0.2c0 0-0.1-0.1-0.1-0.2s-0.1-0.1-0.1-0.2-0.1-0.1-0.1-0.2-0.1-0.1-0.1-0.2-0.1-0.1-0.1-0.2-0.1-0.1-0.1-0.2-0.1-0.1-0.1-0.2-0.1-0.1-0.1-0.2-0.1-0.1-0.1-0.2c0.9-0.6 0.9-0.7 0.9-0.8" fill="#D4311F"/>
		<linearGradient id="SVGID_1_" y2="504.43" gradientUnits="userSpaceOnUse" x2="-213.6" gradientTransform="matrix(58.286 108.31 108.31 -58.286 -42066 52637)" y1="504.43" x1="-213.9">
		<stop stop-color="#FABA8B" offset="0"/>
		<stop stop-color="#F79868" offset=".1425"/>
		<stop stop-color="#F47B4A" offset=".2934"/>
		<stop stop-color="#F26734" offset=".442"/>
		<stop stop-color="#F05A27" offset=".5859"/>
		<stop stop-color="#F05623" offset=".7198"/>
		<stop stop-color="#F05623" offset="1"/>
	</linearGradient>
	<path d="m115 63.8h-0.8c-0.3 0-0.5 0-0.8 0.1-0.3 0-0.5 0-0.8 0.1-0.2 0-0.5 0.1-0.7 0.1s-0.5 0.1-0.7 0.1-0.5 0.1-0.7 0.1-0.5 0.1-0.7 0.2-0.5 0.1-0.7 0.2-0.5 0.1-0.7 0.2-0.5 0.1-0.7 0.2-0.5 0.2-0.7 0.2c-0.2 0.1-0.5 0.2-0.7 0.3s-0.5 0.2-0.7 0.3-0.5 0.2-0.7 0.3-0.5 0.2-0.7 0.3-0.5 0.2-0.7 0.4c-0.2 0.1-0.5 0.3-0.7 0.4s-0.5 0.3-0.7 0.4-0.4 0.3-0.7 0.5c-0.2 0.2-0.4 0.3-0.6 0.5s-0.4 0.3-0.6 0.5-0.4 0.3-0.6 0.5l-0.5 0.5c-0.2 0.2-0.3 0.4-0.5 0.5-0.2 0.2-0.3 0.4-0.5 0.6s-0.3 0.4-0.5 0.6c-0.1 0.2-0.3 0.4-0.4 0.6s-0.3 0.4-0.4 0.6-0.2 0.5-0.4 0.7c-0.1 0.2-0.2 0.5-0.3 0.7s-0.2 0.5-0.3 0.7-0.2 0.5-0.3 0.7c0 0.2-0.1 0.3-0.1 0.5s-0.1 0.3-0.1 0.5-0.1 0.3-0.1 0.5-0.1 0.3-0.1 0.5v0.2 0.2 0.2 0.2 0.2 0.2 0.2 0.2 0.5 0.5c0 0.2 0 0.3 0.1 0.5 0 0.2 0.1 0.3 0.1 0.5s0.1 0.3 0.1 0.5 0.1 0.3 0.1 0.5 0.1 0.3 0.2 0.5 0.1 0.3 0.2 0.5l3.2-1.3c-0.1-0.1-0.1-0.3-0.2-0.4s-0.1-0.3-0.1-0.4-0.1-0.3-0.1-0.4-0.1-0.3-0.1-0.4-0.1-0.3-0.1-0.4 0-0.3-0.1-0.4c0-0.1 0-0.3-0.1-0.4v-0.4-0.3-0.3-0.3-0.3-0.1-0.1-0.1-0.1c0-0.1 0-0.3 0.1-0.4 0-0.1 0-0.3 0.1-0.4 0-0.1 0.1-0.3 0.1-0.4s0.1-0.3 0.1-0.4 0.1-0.2 0.1-0.3 0.1-0.2 0.1-0.3 0.1-0.2 0.1-0.3 0.1-0.2 0.1-0.3 0.1-0.2 0.1-0.3 0.1-0.2 0.1-0.3 0.1-0.2 0.1-0.3 0.1-0.2 0.1-0.3 0.1-0.2 0.2-0.3c0-0.1 0.1-0.2 0.2-0.3s0.1-0.2 0.2-0.3 0.1-0.2 0.2-0.3 0.1-0.2 0.2-0.3 0.1-0.2 0.2-0.3 0.1-0.2 0.2-0.3 0.1-0.2 0.2-0.2l0.1-0.1 0.1-0.1 0.1-0.1 0.1-0.1 0.1-0.1s0-0.1 0.1-0.1c0 0 0-0.1 0.1-0.1 0 0 0-0.1 0.1-0.1l0.1-0.1s0-0.1 0.1-0.1l0.1-0.1 0.1-0.1 0.1-0.1 0.1-0.1 0.1-0.1 0.1-0.1 0.1-0.1 0.1-0.1 0.1-0.1 0.1-0.1 0.1-0.1 0.1-0.1 0.1-0.1 0.1-0.1s0.1 0 0.1-0.1c0 0 0.1 0 0.1-0.1 0 0 0.1 0 0.1-0.1 0 0 0.1 0 0.1-0.1 0 0 0.1 0 0.1-0.1 0 0 0.1 0 0.1-0.1 0 0 0.1 0 0.1-0.1 0 0 0.1 0 0.1-0.1h0.1l0.1-0.1s0.1 0 0.1-0.1c0 0 0.1 0 0.1-0.1 0 0 0.1 0 0.1-0.1 0 0 0.1 0 0.1-0.1 0 0 0.1 0 0.1-0.1 0 0 0.1 0 0.1-0.1 0 0 0.1 0 0.1-0.1 0 0 0.1 0 0.1-0.1 0 0 0.1 0 0.1-0.1 0 0 0.1 0 0.1-0.1 0 0 0.1 0 0.1-0.1 0 0 0.1 0 0.1-0.1 0 0 0.1 0 0.1-0.1 0 0 0.1 0 0.1-0.1l0.6-0.3 0.6-0.3 0.6-0.3 0.6-0.3c0.2-0.1 0.4-0.2 0.6-0.2 0.2-0.1 0.4-0.2 0.6-0.2 0.2-0.1 0.4-0.1 0.6-0.2s0.4-0.1 0.6-0.2 0.4-0.1 0.6-0.2 0.4-0.1 0.6-0.1 0.4-0.1 0.6-0.1 0.4-0.1 0.6-0.1 0.4-0.1 0.6-0.1 0.4 0 0.7-0.1h0.7 0.7l-0.8 0.1" fill="url(#SVGID_1_)"/>
		<linearGradient id="SVGID_2_" y2="504.06" gradientUnits="userSpaceOnUse" x2="-213.6" gradientTransform="matrix(58.737 109.15 109.15 -58.737 -42335 53012)" y1="504.06" x1="-213.89">
		<stop stop-color="#FABA8B" offset="0"/>
		<stop stop-color="#F79868" offset=".1425"/>
		<stop stop-color="#F47B4A" offset=".2934"/>
		<stop stop-color="#F26734" offset=".442"/>
		<stop stop-color="#F05A27" offset=".5859"/>
		<stop stop-color="#F05623" offset=".7198"/>
		<stop stop-color="#F05623" offset="1"/>
	</linearGradient>
	<path d="m116.6 63.8v1.5h0.6 0.6c0.2 0 0.4 0 0.6 0.1 0.2 0 0.4 0 0.6 0.1 0.2 0 0.4 0.1 0.6 0.1s0.4 0.1 0.6 0.1 0.4 0.1 0.5 0.1c0.2 0 0.4 0.1 0.6 0.1s0.4 0.1 0.5 0.1c0.2 0.1 0.4 0.1 0.5 0.2 0.2 0.1 0.4 0.1 0.5 0.2 0.2 0.1 0.4 0.1 0.5 0.2 0.2 0.1 0.3 0.1 0.5 0.2s0.3 0.1 0.5 0.2 0.3 0.2 0.5 0.2c0.2 0.1 0.3 0.2 0.5 0.3h0.1 0.1 0.1 0.1 0.1 0.1 0.1 0.1 0.1 0.1 0.1 0.1 0.1 0.1 0.1 0.1s0.1 0 0.1 0.1c0 0 0.1 0 0.1 0.1 0 0 0.1 0 0.1 0.1 0 0 0.1 0 0.1 0.1 0 0 0.1 0 0.1 0.1 0 0 0.1 0 0.1 0.1 0 0 0.1 0 0.1 0.1 0 0 0.1 0 0.1 0.1 0 0 0.1 0 0.1 0.1 0 0 0.1 0 0.1 0.1 0 0 0.1 0 0.1 0.1 0 0 0.1 0 0.1 0.1 0 0 0.1 0 0.1 0.1l0.1 0.1s0.1 0 0.1 0.1c0 0 0.1 0 0.1 0.1l0.1 0.1s0.1 0 0.1 0.1c0 0 0.1 0 0.1 0.1 0 0 0.1 0 0.1 0.1 0 0 0.1 0 0.1 0.1 0 0 0.1 0 0.1 0.1 0 0 0.1 0 0.1 0.1 0 0 0.1 0 0.1 0.1 0 0 0.1 0 0.1 0.1 0 0 0.1 0 0.1 0.1 0 0 0.1 0 0.1 0.1 0 0 0.1 0 0.1 0.1 0 0 0.1 0 0.1 0.1l0.1 0.1s0.1 0 0.1 0.1c0 0 0.1 0 0.1 0.1l0.1 0.1 0.1 0.1 0.1 0.1 0.1 0.1 0.1 0.1 0.1 0.1 0.1 0.1 0.1 0.1 0.1 0.1 0.1 0.1s0 0.1 0.1 0.1c0 0 0 0.1 0.1 0.1 0 0 0 0.1 0.1 0.1l0.1 0.1s0 0.1 0.1 0.1l0.1 0.1c0.1 0.1 0.1 0.2 0.2 0.2 0.1 0.1 0.1 0.2 0.2 0.3s0.1 0.2 0.2 0.3 0.1 0.2 0.2 0.3 0.1 0.2 0.2 0.3 0.1 0.2 0.2 0.3 0.1 0.2 0.2 0.3 0.1 0.2 0.2 0.3c0 0.1 0.1 0.2 0.1 0.3s0.1 0.2 0.1 0.3 0.1 0.2 0.1 0.3 0.1 0.2 0.1 0.3 0.1 0.2 0.1 0.3 0.1 0.2 0.1 0.3 0.1 0.2 0.1 0.3 0.1 0.2 0.1 0.3 0.1 0.3 0.1 0.4 0.1 0.3 0.1 0.4 0 0.3 0.1 0.4v0.4 0.1 0.1 0.1 0.1 0.3s0 0.2 0 0.3v0.3 0.3 0.4c0 0.1 0 0.3-0.1 0.4 0 0.1 0 0.3-0.1 0.4 0 0.1-0.1 0.3-0.1 0.4s-0.1 0.3-0.1 0.4-0.1 0.3-0.1 0.4-0.1 0.3-0.1 0.4c-0.1 0.1-0.1 0.3-0.2 0.4l3.2 1.4c0.1-0.2 0.1-0.3 0.2-0.5s0.1-0.3 0.2-0.5c0-0.2 0.1-0.3 0.1-0.5s0.1-0.3 0.1-0.5 0.1-0.3 0.1-0.5 0-0.3 0.1-0.5v-0.5-0.5-0.2-0.2-0.2-0.2-0.2-0.2-0.2-0.2c0-0.2-0.1-0.3-0.1-0.5s-0.1-0.3-0.1-0.5-0.1-0.3-0.1-0.5-0.1-0.3-0.1-0.5c-0.1-0.3-0.2-0.5-0.2-0.7-0.1-0.2-0.2-0.5-0.3-0.7s-0.2-0.5-0.3-0.7-0.2-0.5-0.3-0.7-0.2-0.4-0.4-0.6c-0.1-0.2-0.3-0.4-0.4-0.6s-0.3-0.4-0.4-0.6c-0.2-0.2-0.3-0.4-0.5-0.6s-0.3-0.4-0.5-0.6l-0.5-0.5c-0.2-0.2-0.4-0.3-0.6-0.5s-0.4-0.3-0.6-0.5-0.4-0.3-0.6-0.5-0.4-0.3-0.6-0.5c-0.2-0.1-0.4-0.3-0.7-0.4-0.2-0.1-0.5-0.3-0.7-0.4s-0.4-0.3-0.7-0.4c-0.2-0.1-0.4-0.2-0.7-0.3-0.2-0.1-0.5-0.2-0.7-0.3s-0.5-0.2-0.7-0.3-0.5-0.2-0.7-0.3-0.5-0.2-0.7-0.2c-0.2-0.1-0.5-0.2-0.7-0.2-0.2-0.1-0.5-0.1-0.7-0.2s-0.5-0.1-0.7-0.2-0.5-0.1-0.7-0.2c-0.2 0-0.5-0.1-0.7-0.1s-0.5-0.1-0.7-0.1-0.5-0.1-0.7-0.1-0.5-0.1-0.8-0.1-0.5 0-0.8-0.1c-1.8-1.2-2.1-1.2-2.3-1.2" fill="url(#SVGID_2_)"/>
		<linearGradient id="SVGID_3_" y2="504.24" gradientUnits="userSpaceOnUse" x2="-213.6" gradientTransform="matrix(59.174 109.96 109.96 -59.174 -42678 53422)" y1="504.24" x1="-213.9">
		<stop stop-color="#FABA8B" offset="0"/>
		<stop stop-color="#F79868" offset=".1425"/>
		<stop stop-color="#F47B4A" offset=".2934"/>
		<stop stop-color="#F26734" offset=".442"/>
		<stop stop-color="#F05A27" offset=".5859"/>
		<stop stop-color="#F05623" offset=".7198"/>
		<stop stop-color="#F05623" offset="1"/>
	</linearGradient>
	<path d="m115.7 66.6h-0.1-0.1-0.1-0.1-0.1-0.1-0.1-0.1-0.1-0.1-0.1-0.1-0.1-0.1-0.1-0.1-0.1c-0.2 0-0.3 0-0.5 0.1-0.2 0-0.3 0-0.5 0.1-0.2 0-0.3 0-0.5 0.1-0.2 0-0.3 0.1-0.5 0.1s-0.3 0.1-0.5 0.1-0.3 0.1-0.5 0.1c-0.1 0-0.3 0.1-0.5 0.1s-0.3 0.1-0.4 0.1c-0.2 0-0.3 0.1-0.4 0.2s-0.3 0.1-0.4 0.2-0.3 0.1-0.4 0.2-0.3 0.1-0.4 0.2-0.3 0.1-0.4 0.2-0.3 0.1-0.4 0.2c-0.1 0.1-0.3 0.2-0.4 0.2-0.1 0.1-0.3 0.2-0.4 0.2 0 0-0.1 0-0.1 0.1 0 0-0.1 0-0.1 0.1 0 0-0.1 0-0.1 0.1 0 0-0.1 0-0.1 0.1 0 0-0.1 0-0.1 0.1 0 0-0.1 0-0.1 0.1 0 0-0.1 0-0.1 0.1 0 0-0.1 0-0.1 0.1 0 0-0.1 0-0.1 0.1 0 0-0.1 0-0.1 0.1l-0.1 0.1-0.1 0.1-0.1 0.1-0.1 0.1-0.1 0.1-0.1 0.1 2.2 1 0.1-0.1 0.1-0.1 0.1-0.1 0.1-0.1 0.1-0.1 0.1-0.1 0.1-0.1 0.1-0.1 0.1-0.1 0.1-0.1h0.1l0.1-0.1h0.1 0.1s0.1 0 0.1-0.1 0 0 0.1 0c0.1-0.1 0.2-0.1 0.4-0.2 0.1-0.1 0.2-0.1 0.4-0.2 0.1-0.1 0.2-0.1 0.4-0.2 0.1-0.1 0.2-0.1 0.4-0.2 0.1-0.1 0.2-0.1 0.4-0.2 0.1-0.1 0.2-0.1 0.4-0.2 0.1 0 0.3-0.1 0.4-0.1s0.2-0.1 0.4-0.1c0.1 0 0.3-0.1 0.4-0.1s0.3-0.1 0.4-0.1 0.3-0.1 0.4-0.1 0.3-0.1 0.4-0.1 0.3 0 0.4-0.1c0.1 0 0.3 0 0.4-0.1h0.4 0.4 0.1 0.1 0.1 0.1 0.1 0.1 0.1 0.1 0.1 0.1 0.1 0.1 0.1 0.1 0.1 0.1 0.1 0.1 0.1 0.1 0.1 0.1 0.1 0.1 0.1 0.1 0.1 0.1 0.1 0.1 0.1 0.1 0.1 0.1 0.1 0.1 0.1 0.1 0.1 0.1 0.1 0.1 0.1 0.1 0.1 0.1 0.1 0.1c0.1 0 0.2 0 0.3 0.1 0.1 0 0.2 0 0.3 0.1 0.1 0 0.2 0 0.3 0.1 0.1 0 0.2 0.1 0.3 0.1s0.2 0.1 0.3 0.1 0.2 0.1 0.3 0.1 0.2 0.1 0.3 0.1 0.2 0.1 0.3 0.1 0.2 0.1 0.3 0.1 0.2 0.1 0.3 0.1 0.2 0.1 0.3 0.1 0.2 0.1 0.3 0.1 0.2 0.1 0.3 0.2 0.2 0.1 0.3 0.2 0.2 0.1 0.3 0.2 0.2 0.1 0.3 0.2h0.1 0.1 0.1l0.1 0.1 0.1 0.1 0.1 0.1 0.1 0.1 0.1 0.1 0.1 0.1 0.1 0.1 0.1 0.1 0.1 0.1 0.1 0.1 0.1 0.1 0.1 0.1 0.1 0.1 2.3-0.9-0.1-0.1-0.1-0.1-0.1-0.1-0.1-0.1-0.1-0.1-0.1-0.1-0.1-0.1-0.1-0.1s-0.1 0-0.1-0.1l-0.1-0.1-0.1-0.1s-0.1 0-0.1-0.1c0 0-0.1 0-0.1-0.1 0 0-0.1 0-0.1-0.1 0 0-0.1 0-0.1-0.1 0 0-0.1 0-0.1-0.1-0.1-0.1-0.3-0.2-0.4-0.2-0.1-0.1-0.3-0.1-0.4-0.2s-0.3-0.1-0.4-0.2-0.3-0.1-0.4-0.2-0.3-0.1-0.4-0.2-0.3-0.1-0.4-0.2-0.3-0.1-0.4-0.2-0.3-0.1-0.4-0.1-0.3-0.1-0.4-0.1-0.3-0.1-0.4-0.1-0.3-0.1-0.4-0.1-0.3-0.1-0.4-0.1-0.3-0.1-0.4-0.1-0.3-0.1-0.4-0.1-0.3-0.1-0.4-0.1-0.3 0-0.4-0.1h-0.1-0.1-0.1-0.1-0.1-0.1-0.1-0.1-0.1-0.1-0.1-0.1-0.1-0.1-0.1-0.1-0.1-0.1l-3.5-0.3" fill="url(#SVGID_3_)"/>
		<linearGradient id="SVGID_4_" y2="504.21" gradientUnits="userSpaceOnUse" x2="-213.6" gradientTransform="matrix(58.396 108.52 108.52 -58.396 -42112 52718)" y1="504.21" x1="-213.9">
		<stop stop-color="#FABA8B" offset="0"/>
		<stop stop-color="#F79868" offset=".1425"/>
		<stop stop-color="#F47B4A" offset=".2934"/>
		<stop stop-color="#F26734" offset=".442"/>
		<stop stop-color="#F05A27" offset=".5859"/>
		<stop stop-color="#F05623" offset=".7198"/>
		<stop stop-color="#F05623" offset="1"/>
	</linearGradient>
	<path d="m127.9 71.4l-2.3 1 0.2 0.2 0.2 0.2 0.2 0.2c0 0.1 0.1 0.1 0.1 0.2s0.1 0.1 0.1 0.2 0.1 0.1 0.1 0.2 0.1 0.1 0.1 0.2 0.1 0.2 0.1 0.2c0 0.1 0.1 0.2 0.1 0.2 0 0.1 0.1 0.2 0.1 0.2 0 0.1 0.1 0.2 0.1 0.2 0 0.1 0.1 0.2 0.1 0.2 0 0.1 0.1 0.2 0.1 0.3s0 0.2 0.1 0.3c0 0.1 0 0.2 0.1 0.3v0.3 0.2 0.2 0.2 0.2 0.2s0 0.1 0 0.2v0.2 0.2 0.2 0.2 0.2 0.2 0.2c0 0.1 0 0.1-0.1 0.2 0 0.1 0 0.1-0.1 0.2 0 0.1-0.1 0.1-0.1 0.2v0.1 0.1 0.1 0.1 0.1 0.1 0.1 0.1 0.1 0.1 0.1 0.1 0.1 0.1 0.1 0.1 0.1 0.1 0.1 0.1 0.1 0.1 0.1l-0.1 0.1v0.1l-0.1 0.1-0.1 0.1-0.1 0.1s0 0.1-0.1 0.1c0 0 0 0.1-0.1 0.1l-0.1 0.1s0 0.1-0.1 0.1l-0.1 0.1-0.1 0.1-0.1 0.1-0.1 0.1c-0.1 0.1-0.3 0.2-0.4 0.3s-0.3 0.2-0.4 0.3-0.3 0.2-0.4 0.3-0.3 0.2-0.4 0.3-0.3 0.2-0.4 0.3c-0.2 0.1-0.3 0.2-0.5 0.2-0.2 0.1-0.3 0.2-0.5 0.2-0.2 0.1-0.3 0.1-0.5 0.2s-0.3 0.1-0.5 0.2-0.3 0.1-0.5 0.2-0.4 0.1-0.5 0.2c-0.2 0-0.4 0.1-0.5 0.1-0.2 0-0.4 0.1-0.6 0.1s-0.4 0.1-0.6 0.1-0.4 0.1-0.6 0.1h-0.6v3.1c0.3 0 0.5 0 0.8-0.1 0.3 0 0.5-0.1 0.8-0.1s0.5-0.1 0.8-0.1 0.5-0.1 0.8-0.1c0.2-0.1 0.5-0.1 0.7-0.2s0.5-0.1 0.7-0.2 0.5-0.2 0.7-0.2c0.2-0.1 0.5-0.2 0.7-0.3s0.4-0.2 0.7-0.3l0.6-0.3 0.6-0.3c0.2-0.1 0.4-0.2 0.6-0.4 0.2-0.1 0.4-0.3 0.6-0.4s0.4-0.3 0.5-0.4c0.2-0.1 0.4-0.3 0.5-0.4 0.2-0.1 0.3-0.3 0.5-0.5l0.1-0.1 0.1-0.1 0.1-0.1 0.1-0.1 0.1-0.1 0.1-0.1 0.1-0.1 0.1-0.1 0.1-0.1 0.1-0.1 0.1-0.1 0.1-0.1 0.1-0.1s0.1-0.1 0.1-0.1l0.1-0.1 0.1-0.1v-0.1-0.1-0.1-0.1-0.1-0.1-0.1l0.1-0.1v-0.1-0.1-0.1c0.1-0.1 0.1-0.2 0.2-0.3s0.1-0.2 0.1-0.3 0.1-0.2 0.1-0.3 0.1-0.2 0.1-0.3 0.1-0.2 0.1-0.3 0.1-0.2 0.1-0.3 0-0.2 0.1-0.3v-0.3-0.3-0.3-0.3s0-0.2 0-0.3v-0.4-0.4-0.4c0-0.1 0-0.2-0.1-0.4 0-0.1 0-0.2-0.1-0.3 0-0.1-0.1-0.2-0.1-0.3s-0.1-0.2-0.1-0.3-0.1-0.2-0.1-0.3-0.1-0.2-0.1-0.3-0.1-0.2-0.1-0.3-0.1-0.2-0.1-0.3-0.1-0.2-0.2-0.3-0.1-0.2-0.2-0.3-0.1-0.2-0.2-0.3-0.1-0.2-0.2-0.3-0.1-0.2-0.2-0.3-0.1-0.2-0.2-0.3-0.1-0.2-0.2-0.3-0.1-0.2-0.2-0.3c-0.7-0.7-0.7-0.8-0.8-0.9" fill="url(#SVGID_4_)"/>
		<linearGradient id="SVGID_5_" y2="504.49" gradientUnits="userSpaceOnUse" x2="-213.6" gradientTransform="matrix(58.659 109.01 109.01 -58.659 -42344 52978)" y1="504.49" x1="-213.9">
		<stop stop-color="#FABA8B" offset="0"/>
		<stop stop-color="#F79868" offset=".1425"/>
		<stop stop-color="#F47B4A" offset=".2934"/>
		<stop stop-color="#F26734" offset=".442"/>
		<stop stop-color="#F05A27" offset=".5859"/>
		<stop stop-color="#F05623" offset=".7198"/>
		<stop stop-color="#F05623" offset="1"/>
	</linearGradient>
	<path d="m103.6 71.3l-0.2 0.2c-0.1 0.1-0.2 0.2-0.2 0.3-0.1 0.1-0.1 0.2-0.2 0.3s-0.1 0.2-0.2 0.3-0.1 0.2-0.2 0.3-0.1 0.2-0.2 0.3-0.1 0.2-0.2 0.3-0.1 0.2-0.2 0.3-0.1 0.2-0.2 0.3-0.1 0.2-0.1 0.3-0.1 0.2-0.1 0.3c0 0.1-0.1 0.2-0.1 0.3s-0.1 0.2-0.1 0.3-0.1 0.2-0.1 0.3-0.1 0.2-0.1 0.3-0.1 0.2-0.1 0.3 0 0.2-0.1 0.4c0 0.1 0 0.2-0.1 0.4v0.4 0.3 0.3 0.3 0.3 0.3 0.4c0 0.1 0 0.2 0.1 0.3 0 0.1 0 0.2 0.1 0.4 0 0.1 0.1 0.2 0.1 0.3s0.1 0.2 0.1 0.3 0.1 0.2 0.1 0.4c0 0.1 0.1 0.2 0.1 0.4 0 0.1 0.1 0.2 0.1 0.4 0 0 0 0.1 0.1 0.1 0 0 0 0.1 0.1 0.1 0 0 0 0.1 0.1 0.1 0 0 0 0.1 0.1 0.1 0 0 0 0.1 0.1 0.1 0 0 0 0.1 0.1 0.1 0 0 0 0.1 0.1 0.1l0.1 0.1 0.1 0.1 0.1 0.1 0.1 0.1 0.1 0.1 0.1 0.1 0.1 0.1 0.1 0.1 0.1 0.1 0.2 0.2 0.1 0.1 0.1 0.1 0.1 0.1 0.1 0.1 0.5 0.5c0.2 0.2 0.3 0.3 0.5 0.4s0.4 0.3 0.5 0.4c0.2 0.1 0.4 0.3 0.6 0.4s0.4 0.3 0.6 0.4l0.6 0.3 0.6 0.3 0.6 0.3c0.2 0.1 0.4 0.2 0.7 0.3 0.2 0.1 0.5 0.2 0.7 0.2 0.2 0.1 0.5 0.1 0.7 0.2s0.5 0.1 0.7 0.2c0.3 0.1 0.5 0.1 0.8 0.1s0.5 0.1 0.8 0.1 0.5 0.1 0.8 0.1 0.5 0 0.8 0.1l0.1-3.1h-0.5c-0.2 0-0.3 0-0.5-0.1-0.2 0-0.3-0.1-0.5-0.1s-0.3-0.1-0.5-0.1c-0.2 0-0.3-0.1-0.5-0.1s-0.3-0.1-0.5-0.1-0.3-0.1-0.5-0.1c-0.2-0.1-0.3-0.1-0.5-0.2s-0.3-0.1-0.4-0.2-0.3-0.1-0.4-0.2-0.3-0.1-0.4-0.2-0.3-0.1-0.4-0.2-0.3-0.2-0.4-0.2c-0.1-0.1-0.3-0.2-0.4-0.2-0.1-0.1-0.3-0.2-0.4-0.3s-0.2-0.2-0.4-0.3h-0.1-0.1l-0.1-0.1-0.1-0.1-0.1-0.1-0.1-0.1-0.1-0.1-0.1-0.1-0.1-0.1-0.1-0.1-0.1-0.1-0.1-0.1-0.1-0.1v-0.1l-0.1-0.1-0.1-0.1v-0.1-0.1l-0.1-0.1-0.1-0.1-0.1-0.1-0.1-0.1-0.1-0.1v-0.1l-0.1-0.1v-0.1l-0.1-0.1v-0.1-0.1-0.1-0.1-0.1-0.1-0.1-0.1-0.1-0.1-0.1-0.1-0.1-0.1-0.1-0.1-0.1-0.1-0.1-0.1-0.1-0.1-0.1c0-0.1 0-0.1-0.1-0.2 0-0.1 0-0.1-0.1-0.2 0-0.1 0-0.1-0.1-0.2 0-0.1 0-0.1-0.1-0.2v-0.2-0.2-0.2-0.2-0.2-0.2-0.2-0.2-0.2-0.2-0.2-0.2-0.3c0-0.1 0-0.2 0.1-0.3 0-0.1 0-0.2 0.1-0.3 0-0.1 0.1-0.2 0.1-0.3s0.1-0.2 0.1-0.2c0-0.1 0.1-0.2 0.1-0.2 0-0.1 0.1-0.2 0.1-0.2 0-0.1 0.1-0.2 0.1-0.2 0-0.1 0.1-0.2 0.1-0.2s0.1-0.2 0.1-0.2c0-0.1 0.1-0.2 0.1-0.2 0-0.1 0.1-0.1 0.1-0.2l0.2-0.2 0.2-0.2 0.2-0.2 0.2-0.2-2.9 0.5" fill="url(#SVGID_5_)"/>
		<linearGradient id="SVGID_6_" y2="504.38" gradientUnits="userSpaceOnUse" x2="-213.6" gradientTransform="matrix(59.057 109.74 109.74 -59.057 -42616 53327)" y1="504.38" x1="-213.89">
		<stop stop-color="#FABA8B" offset="0"/>
		<stop stop-color="#F79868" offset=".1425"/>
		<stop stop-color="#F47B4A" offset=".2934"/>
		<stop stop-color="#F26734" offset=".442"/>
		<stop stop-color="#F05A27" offset=".5859"/>
		<stop stop-color="#F05623" offset=".7198"/>
		<stop stop-color="#F05623" offset="1"/>
	</linearGradient>
	<path d="m99.9 84.1l-3.3 1.4c0 0.1 0.1 0.1 0.1 0.2s0.1 0.1 0.1 0.2 0.1 0.1 0.1 0.2 0.1 0.1 0.1 0.2 0.1 0.1 0.1 0.2 0.1 0.1 0.1 0.2 0.1 0.1 0.1 0.2 0.1 0.1 0.1 0.2 0.1 0.1 0.1 0.2 0.1 0.1 0.2 0.2c0 0.1 0.1 0.1 0.1 0.2l0.2 0.2c0 0.1 0.1 0.1 0.2 0.2l0.2 0.2 0.2 0.2 0.2 0.2c0.2 0.3 0.5 0.5 0.7 0.8 0.2 0.2 0.5 0.5 0.8 0.7s0.5 0.5 0.8 0.7l0.9 0.6 0.9 0.6c0.3 0.2 0.6 0.4 1 0.6 0.3 0.2 0.7 0.3 1 0.5s0.7 0.3 1 0.5c0.4 0.1 0.7 0.3 1.1 0.4s0.7 0.3 1.1 0.4l1.2 0.3 1.2 0.3c0.4 0.1 0.8 0.1 1.2 0.2s0.8 0.1 1.3 0.1c0.4 0 0.8 0.1 1.3 0.1h1.3 1.2c0.4 0 0.8 0 1.2-0.1 0.4 0 0.8-0.1 1.2-0.1s0.8-0.1 1.1-0.2c0.4-0.1 0.8-0.2 1.2-0.2l1.2-0.3c0.4-0.1 0.8-0.2 1.1-0.4 0.4-0.1 0.7-0.3 1.1-0.4s0.7-0.3 1-0.5 0.7-0.3 1-0.5 0.7-0.4 1-0.6l0.9-0.6 0.9-0.6c0.3-0.2 0.6-0.4 0.8-0.7 0.3-0.2 0.5-0.5 0.8-0.7s0.5-0.5 0.7-0.8l0.2-0.2 0.2-0.2 0.2-0.2 0.2-0.2 0.2-0.2 0.2-0.2c0-0.1 0.1-0.1 0.2-0.2 0-0.1 0.1-0.1 0.1-0.2s0.1-0.1 0.1-0.2 0.1-0.1 0.1-0.2 0.1-0.1 0.1-0.2 0.1-0.1 0.1-0.2 0.1-0.1 0.1-0.2 0.1-0.1 0.1-0.2 0.1-0.1 0.1-0.2 0.1-0.1 0.1-0.2l-3.3-1.5c0 0.1-0.1 0.1-0.1 0.2s-0.1 0.1-0.1 0.2-0.1 0.1-0.1 0.2c0 0-0.1 0.1-0.1 0.2s-0.1 0.1-0.1 0.2c0 0-0.1 0.1-0.1 0.2l-0.1 0.1-0.1 0.1-0.1 0.1-0.1 0.1-0.1 0.1-0.1 0.1-0.1 0.1-0.1 0.1-0.1 0.1-0.1 0.1-0.5 0.5c-0.2 0.2-0.4 0.3-0.6 0.5s-0.4 0.3-0.6 0.5c-0.2 0.1-0.4 0.3-0.6 0.4s-0.4 0.3-0.6 0.4-0.4 0.3-0.6 0.4-0.4 0.2-0.7 0.4c-0.2 0.1-0.5 0.2-0.7 0.3s-0.5 0.2-0.7 0.3-0.5 0.2-0.7 0.3-0.5 0.2-0.8 0.3-0.5 0.2-0.8 0.2c-0.3 0.1-0.5 0.1-0.8 0.2s-0.5 0.1-0.8 0.2-0.6 0.1-0.8 0.1c-0.3 0-0.6 0.1-0.8 0.1h-0.2-0.2-0.2-0.2-0.2-0.2-0.2-0.2-0.2-0.2-0.2-0.2-0.2-0.2-0.2-0.2-0.1-0.2-0.2-0.2-0.2-0.2-0.2-0.2-0.2-0.2-0.2-0.2-0.2-0.2-0.2-0.2-0.2-0.2-0.2-0.2-0.2-0.2-0.2-0.2-0.2-0.2-0.2-0.2-0.2-0.2-0.2-0.2-0.2c-0.2-0.1-0.4-0.1-0.6-0.2s-0.4-0.1-0.6-0.2-0.4-0.1-0.6-0.2-0.4-0.1-0.6-0.2-0.4-0.2-0.6-0.2-0.4-0.2-0.6-0.3l-0.6-0.3c-0.2-0.1-0.4-0.2-0.5-0.3-0.2-0.1-0.4-0.2-0.5-0.3-0.2-0.1-0.3-0.2-0.5-0.3s-0.3-0.2-0.5-0.3-0.3-0.2-0.5-0.4c-0.2-0.1-0.3-0.2-0.5-0.4-0.2-0.1-0.3-0.3-0.4-0.4l-0.4-0.4-0.4-0.4c0-0.1-0.1-0.1-0.1-0.1l-0.1-0.1-0.1-0.1c0-0.1-0.1-0.1-0.1-0.1s-0.1-0.1-0.1-0.2l-0.1-0.1-0.1-0.1-0.1-0.1s-0.1-0.1-0.1-0.2c0 0-0.1-0.1-0.1-0.2l-0.1-0.1c0-0.1-0.1-0.1-0.1-0.2s-0.1-0.1-0.1-0.1c0-0.1-0.1-0.1-0.1-0.1 0-0.1-0.1-0.1-0.1-0.2 1.3-0.4 1.2-0.5 1.2-0.5" fill="url(#SVGID_6_)"/>
		<defs>
			<polyline id="SVGID_7_" points="105.1 67.8 124.8 67.8 124.8 85.8 105.1 85.8 105.1 67.8"/>
		</defs>
		<clipPath id="SVGID_8_">
			<use xlink:href="#SVGID_7_"/>
		</clipPath>
			<radialGradient id="SVGID_9_" gradientUnits="userSpaceOnUse" cy="504.24" cx="-215.74" gradientTransform="matrix(42.331 -0.0502 -0.0502 -42.336 9273.2 21409)" r=".295">
			<stop stop-color="#B3D7F2" offset="0"/>
			<stop stop-color="#AFD5F1" offset=".054778"/>
			<stop stop-color="#A2CFEE" offset=".1133"/>
			<stop stop-color="#8CC4E8" offset=".1735"/>
			<stop stop-color="#6FB5E1" offset=".2349"/>
			<stop stop-color="#48A2D7" offset=".2973"/>
			<stop stop-color="#1A8CCB" offset=".3595"/>
			<stop stop-color="#007FC5" offset=".3901"/>
			<stop stop-color="#002A61" offset="1"/>
		</radialGradient>
		<path style="clip-path:url(#SVGID_8_)" d="m112.1 76c-0.3 0-0.5-0.1-0.7-0.2-0.3-0.3-0.5-0.6-0.5-1-0.1-0.6 0-1.2 0.3-1.9 0.2-0.5 0.6-1 1-1.4 0.5-0.4 1-0.7 1.6-0.9s1.2-0.3 1.9-0.3h0.1 0.1c0.7 0 1.4 0.2 2 0.5s1.1 0.6 1.5 1.1c0.4 0.4 0.7 0.9 0.9 1.5s0.2 1.2 0.1 1.8c0 0.2-0.1 0.4-0.3 0.5-0.2 0.2-0.4 0.3-0.7 0.3h-0.3c-0.6-0.1-1.1-0.3-1.7-0.4-0.5-0.1-1-0.2-1.5-0.2h-0.6c-0.7 0.1-1.5 0.2-2.2 0.4-0.3 0.1-0.6 0.2-1 0.2m3.6-6.3c-4.2 0-7.6 3.4-7.6 7.6s3.4 7.6 7.6 7.6 7.6-3.4 7.6-7.6-3.4-7.6-7.6-7.6" fill="url(#SVGID_9_)"/>
		<defs>
			<path id="SVGID_10_" d="m115.7 70.3h-0.1c-0.6 0-1.3 0.1-1.9 0.3s-1.1 0.5-1.6 0.9-0.8 0.9-1 1.4c-0.3 0.6-0.3 1.2-0.3 1.9 0 0.4 0.2 0.7 0.5 1 0.2 0.1 0.4 0.2 0.7 0.2s0.7-0.1 1-0.2c0.7-0.2 1.4-0.4 2.2-0.4h0.6c0.5 0 1 0.1 1.5 0.2 0.6 0.1 1.2 0.3 1.7 0.4h0.3c0.3 0 0.5-0.1 0.7-0.3 0.2-0.1 0.3-0.3 0.3-0.5 0.1-0.6 0.1-1.2-0.1-1.8-0.2-0.5-0.5-1-0.9-1.5-0.4-0.4-0.9-0.8-1.5-1.1s-1.3-0.5-2-0.5h-0.1"/>
		</defs>
		<clipPath id="SVGID_11_">
			<use xlink:href="#SVGID_10_"/>
		</clipPath>
		<g style="clip-path:url(#SVGID_11_)">
				<image width="141" xlink:href="93C142D608CFFAC.jpg" transform="matrix(.070982 0 0 -.070982 110.67 76.083)" height="83">
			</image>
		</g>
</svg>
