<?xml version="1.0" encoding="utf-8"?>
<!-- Generator: Adobe Illustrator 16.0.0, SVG Export Plug-In . SVG Version: 6.00 Build 0)  -->
<!DOCTYPE svg PUBLIC "-//W3C//DTD SVG 1.1//EN" "http://www.w3.org/Graphics/SVG/1.1/DTD/svg11.dtd">
<svg version="1.1" id="Layer_1" xmlns="http://www.w3.org/2000/svg" xmlns:xlink="http://www.w3.org/1999/xlink" x="0px" y="0px"
	 width="168px" height="168px" viewBox="0 0 168 168" enable-background="new 0 0 168 168" xml:space="preserve">
<g>
	<path fill="#496F5A" d="M0.731,69.049l0.011,22.718c0,6.315,5.004,7.185,10.414,7.185l10.738-0.004v-5.155l-9.579-0.003
		c-2.494,0-3.755-1.243-3.748-4.045l-0.01-20.695H0.731z"/>
	<path fill="#496F5A" d="M33.977,89.532l10.014,0.005v4.927H33.972C29.212,94.464,29.151,89.532,33.977,89.532 M27.184,76.666
		c0,0,1.022,1.954,2.038,3.545c0.429,0.629,1.054,0.911,1.811,0.911h10.775c2.325,0,2.207,1.051,2.207,1.676
		c0,0.08,0.007,2.23,0.007,2.23H31.987c-10.735,0-10.578,13.879,0.356,13.879l18.854,0.001L51.191,82.25
		c0-3.624-1.917-5.59-6.856-5.59C44.325,76.659,27.184,76.666,27.184,76.666"/>
	<path fill="#496F5A" d="M56.166,76.667V98.92h7.658l-0.009-18.052l7.183,0.003c2.322,0.018,3.944,1.267,4.033,3.108l0,14.94h7.68
		V82.996c0.015-4.047-3.232-6.298-9.178-6.338C73.53,76.658,56.166,76.667,56.166,76.667"/>
	<path fill="#496F5A" d="M87.955,76.667v22.268h7.659l0.006-18.066l7.168,0.003c2.306,0.018,3.917,1.267,4.009,3.108l-0.002,14.94
		h7.703l-0.007-15.924c0.018-3.753-3.668-6.301-9.17-6.338C105.318,76.658,87.955,76.667,87.955,76.667"/>
	<path fill="#496F5A" d="M131.526,76.515h0.006c-8.988,0-13.688,5.455-13.688,10.844c0,4.618,3.959,11.52,15.754,11.52l12.177,0.013
		l0.007-4.502l-11.177-0.008c-6.538,0-9.516-3.688-9.516-7.113c0-3.246,2.626-6.531,7.646-6.531h4.926l-7.636,9.347h6.714
		c1.187,0,1.724-0.626,2.291-1.29l5.177-6.505c2.139-2.692,2.766-5.793-2.654-5.817C135.379,76.445,131.566,76.514,131.526,76.515"
		/>
	<path fill="#496F5A" d="M157.157,83.745c0-1.649,1.92-2.837,3.44-2.837h2.822c0,0,1.158,0.106,1.812-0.938
		c0.996-1.601,2.037-3.304,2.037-3.304s-9.424-0.006-9.434-0.006c-5.547,0-8.43,3.139-8.43,6.55v15.698l7.752-0.001V83.745z"/>
</g>
</svg>
