<?xml version="1.0" encoding="UTF-8" standalone="no"?>
<!-- Generator: Adobe Illustrator 16.0.0, SVG Export Plug-In . SVG Version: 6.00 Build 0)  -->
<!DOCTYPE svg  PUBLIC '-//W3C//DTD SVG 1.1//EN'  'http://www.w3.org/Graphics/SVG/1.1/DTD/svg11.dtd' [
	<!ENTITY st0 "fill:#010101;">
	<!ENTITY st1 "fill:#029DD9;">
]>
<svg id="Layer_1" style="enable-background:new 0 0 168 168" xmlns="http://www.w3.org/2000/svg" xml:space="preserve" height="168px" viewBox="0 0 168 168" width="168px" version="1.1" y="0px" x="0px" xmlns:xlink="http://www.w3.org/1999/xlink">
	<polygon points="5.2 64.3 11.7 64.3 11.7 79.9 19.8 79.9 19.8 85.1 5.2 85.1" fill="#010101"/>
	<polygon points="24 64.4 40.4 64.4 40.4 68.9 30.6 68.9 30.6 72 39.8 72 39.8 76.5 30.6 76.5 30.6 80.6 41.3 80.6 41.3 85.1 24 85.1" fill="#010101"/>
		<path d="m46.5 64.4h7l4.7 7.8c1.1 2.1 1.5 2.8 2.5 5.1-0.2-2-0.2-2.5-0.3-4.8v-8.1h6.1v20.7h-7.1l-4.2-7.2c-1.2-2.1-1.6-2.7-2.9-5.5 0.1 1.9 0.2 2.4 0.2 4.2v8.4h-6.1v-20.6z" fill="#010101"/>
		<path d="m75.9 77.9c0.6 0.9 1.1 1.7 2.9 2.3 0.9 0.3 1.9 0.5 2.9 0.5 0.5 0 3.1-0.1 3.1-1.6 0-0.1 0-0.9-1.1-1.3-0.7-0.3-4.6-0.9-5.4-1.1-1.9-0.5-5.6-1.7-5.6-6 0-0.9 0.2-1.9 0.6-2.7 1.4-3.1 4.8-4.3 8.6-4.3 2.4 0 4.6 0.5 6.3 1.3 1.6 0.8 2.3 1.6 3.1 2.4l-4.3 3.4c-0.3-0.4-0.7-0.9-1.6-1.4-1.2-0.6-2.8-0.8-3.8-0.8-1.1 0-2.4 0.3-2.4 1.4 0 1 1.1 1.3 2.8 1.6 4.6 0.8 9.2 1.6 9.2 6.8 0 2.2-0.9 3.7-1.9 4.7-2.6 2.7-6.8 2.7-7.9 2.7-1.6 0-3.2-0.1-4.8-0.6-3.3-0.9-4.8-2.8-5.8-3.9l5.1-3.4z" fill="#010101"/>
		<polygon points="96.4 64.4 112.9 64.4 112.9 68.9 103 68.9 103 72 112.2 72 112.2 76.5 103 76.5 103 80.6 113.7 80.6 113.7 85.1 96.4 85.1" fill="#010101"/>
		<path d="m138.6 79.8c-0.5 1-1 1.9-2 2.9-2.1 2.1-5.1 3.1-8 3.1-7.4 0-10.8-5.6-10.8-10.9 0-5.6 3.7-11.3 10.8-11.3 3.1 0 6.1 1.1 8.3 3.3 0.9 0.9 1.3 1.6 1.7 2.4l-5.5 2.7c-0.5-1.2-1.5-3.4-4.3-3.4-1.4 0-2.3 0.7-2.8 1.1-1.6 1.5-1.6 3.8-1.6 4.7 0 3.1 1.1 6 4.4 6 3.1 0 4-2.7 4.2-3.4l5.6 2.8z" fill="#010101"/>
		<polygon points="71.6 59.1 71.6 50.6 80.3 50.6 80.3 45.5 66.6 45.5 66.6 59.1" fill="#029DD9"/>
		<polygon points="131.3 50.4 139.8 50.4 139.8 59.1 145 59.1 145 45.5 131.3 45.5" fill="#029DD9"/>
		<polygon points="140 90.2 140 98.7 131.3 98.7 131.3 103.8 145 103.8 145 90.2" fill="#029DD9"/>
		<polygon points="80.3 98.9 71.8 98.9 71.8 90.2 66.6 90.2 66.6 103.8 80.3 103.8" fill="#029DD9"/>
		<polygon points="53.8 115.2 51.9 115.2 51.9 120.9 50.6 120.9 50.6 115.2 48.8 115.2 48.8 114 53.8 114" fill="#010101"/>
		<path d="m55.8 114v2.5c0.4-0.4 0.9-0.6 1.6-0.6 0.6 0 1.1 0.2 1.3 0.5 0.4 0.4 0.4 0.9 0.4 1.5v3h-1.1v-2.7c0-0.4 0-0.5-0.1-0.7 0-0.1-0.2-0.5-0.9-0.5-0.8 0-1.1 0.6-1.2 0.9v0.8 2.3h-1.2v-7h1.2z" fill="#010101"/>
		<path d="m65 119.8c-0.6 0.8-1.4 1.2-2.4 1.2-1.3 0-2.5-0.8-2.5-2.6 0-1.6 1.1-2.6 2.4-2.6s1.8 0.8 1.9 0.9c0.4 0.6 0.5 1.4 0.5 1.9h-3.6c0.1 0.8 0.6 1.2 1.4 1.2s1.1-0.5 1.3-0.7l1 0.7zm-1.3-1.9c-0.1-0.8-0.6-1-1.1-1-0.6 0-1.1 0.4-1.2 1h2.3z" fill="#010101"/>
		<path d="m69 114h2.3c0.4 0 0.8 0 1.2 0.1 0.7 0.2 1.6 0.8 1.6 2.2 0 0.9-0.4 1.9-1.7 2.2-0.4 0.1-0.7 0.1-1.2 0.1h-1v2.3h-1.2v-6.9zm1.3 1.1v2.4h0.9c0.3 0 0.5 0 0.7-0.1 0.8-0.2 0.9-0.9 0.9-1.2 0-0.5-0.2-0.8-0.3-0.9-0.3-0.3-0.8-0.3-1.2-0.3h-1z" fill="#010101"/>
		<path d="m77.2 121.1c-1.5 0-2.5-1.1-2.5-2.6s1-2.6 2.5-2.6c1.4 0 2.5 1 2.5 2.6-0.1 1.5-1.1 2.6-2.5 2.6m-0.1-4.1c-0.7 0-1.3 0.6-1.3 1.5 0 1 0.6 1.6 1.3 1.6 0.9 0 1.3-0.7 1.3-1.6s-0.5-1.5-1.3-1.5" fill="#010101"/>
		<polygon points="85.8 116 87 116 85.6 120.9 84.4 120.9 83.5 117.8 82.6 120.9 81.4 120.9 80 116 81.2 116 82.1 119.4 83 116 84 116 85 119.4" fill="#010101"/>
		<path d="m92.3 119.8c-0.6 0.8-1.4 1.2-2.4 1.2-1.3 0-2.5-0.8-2.5-2.6 0-1.6 1.1-2.6 2.4-2.6s1.8 0.8 1.9 0.9c0.4 0.6 0.5 1.4 0.5 1.9h-3.6c0.1 0.8 0.6 1.2 1.4 1.2s1.1-0.5 1.3-0.7l1 0.7zm-1.3-1.9c-0.1-0.8-0.6-1-1.1-1-0.6 0-1.1 0.4-1.2 1h2.3z" fill="#010101"/>
		<path d="m94.4 116v0.7c0.1-0.3 0.5-0.8 1.6-0.8v1.2c-0.3 0-0.7 0-1.1 0.3-0.5 0.4-0.5 0.9-0.5 1.7v1.8h-1.1v-4.9h1.1z" fill="#010101"/>
		<path d="m101.8 121.1c-1.5 0-2.5-1.1-2.5-2.6s1-2.6 2.5-2.6c1.4 0 2.5 1 2.5 2.6 0 1.5-1 2.6-2.5 2.6m0-4.1c-0.7 0-1.3 0.6-1.3 1.5 0 1 0.6 1.6 1.3 1.6 0.9 0 1.3-0.7 1.3-1.6s-0.5-1.5-1.3-1.5" fill="#010101"/>
		<path d="m106.6 116.9v4.1h-1.2v-4.1h-0.7v-0.9h0.7v-0.6c0-0.7 0-1.5 1.6-1.5h0.7v1h-0.4c-0.3 0-0.5 0.1-0.6 0.2 0 0.1-0.1 0.2-0.1 0.4v0.4h1.1v0.8h-1.1z" fill="#010101"/>
		<path d="m111.4 114h2.3c0.4 0 0.8 0 1.2 0.1 0.7 0.2 1.6 0.8 1.6 2.2 0 0.9-0.4 1.9-1.7 2.2-0.4 0.1-0.7 0.1-1.2 0.1h-1v2.3h-1.3v-6.9zm1.3 1.1v2.4h0.9c0.3 0 0.5 0 0.7-0.1 0.8-0.2 0.9-0.9 0.9-1.2 0-0.5-0.2-0.8-0.3-0.9-0.3-0.3-0.8-0.3-1.2-0.3h-1z" fill="#010101"/>
		<path d="m121.9 119.8c-0.6 0.8-1.4 1.2-2.4 1.2-1.3 0-2.5-0.8-2.5-2.6 0-1.6 1.1-2.6 2.4-2.6s1.8 0.8 1.9 0.9c0.4 0.6 0.5 1.4 0.5 1.9h-3.6c0.1 0.8 0.6 1.2 1.4 1.2s1.1-0.5 1.3-0.7l1 0.7zm-1.3-1.9c-0.1-0.8-0.6-1-1.1-1-0.6 0-1.1 0.4-1.2 1h2.3z" fill="#010101"/>
		<path d="m124 116v0.7c0.1-0.3 0.5-0.8 1.6-0.8v1.2c-0.3 0-0.7 0-1.1 0.3-0.5 0.4-0.5 0.9-0.5 1.7v1.8h-1.1v-4.9h1.1z" fill="#010101"/>
		<path d="m126.9 119.5c0.3 0.4 0.7 0.6 1.4 0.6s1-0.3 1-0.6-0.4-0.4-0.5-0.4c-0.2 0-1-0.2-1.1-0.2-1.2-0.3-1.4-1-1.4-1.4 0-0.8 0.8-1.6 2.1-1.6 0.7 0 1.3 0.2 1.6 0.5 0.2 0.2 0.4 0.3 0.5 0.4l-0.8 0.8c-0.1-0.3-0.5-0.7-1.3-0.7-0.6 0-0.8 0.2-0.8 0.5 0 0.4 0.4 0.5 1 0.6 1 0.2 1.3 0.2 1.6 0.5 0.3 0.2 0.5 0.6 0.5 1 0 0.8-0.7 1.7-2.2 1.7-0.9 0-1.7-0.3-2.4-0.9l0.8-0.8z" fill="#010101"/>
		<path d="m131.5 116h1.2v0.4c0.2-0.2 0.6-0.6 1.3-0.6 1.4 0 2.2 1.3 2.2 2.6 0 1.5-0.9 2.5-2.2 2.5-0.7 0-1.1-0.3-1.3-0.5v2h-1.2v-6.4zm2.4 4c0.6 0 1.2-0.4 1.2-1.5 0-1.2-0.9-1.5-1.2-1.5-0.5 0-1.2 0.4-1.2 1.4 0 1.1 0.5 1.6 1.2 1.6" fill="#010101"/>
		<path d="m141.9 119.8c-0.6 0.8-1.4 1.2-2.4 1.2-1.3 0-2.5-0.8-2.5-2.6 0-1.6 1.1-2.6 2.4-2.6s1.8 0.8 1.9 0.9c0.4 0.6 0.5 1.4 0.5 1.9h-3.6c0.1 0.8 0.6 1.2 1.4 1.2s1.1-0.5 1.3-0.7l1 0.7zm-1.3-1.9c-0.1-0.8-0.6-1-1.1-1-0.6 0-1.1 0.4-1.2 1h2.3z" fill="#010101"/>
		<path d="m146 117.8c-0.1-0.3-0.4-0.8-1.1-0.8s-1.2 0.5-1.2 1.5c0 0.9 0.5 1.5 1.2 1.5s1-0.6 1.2-1l1 0.5c-0.4 1.1-1.4 1.5-2.2 1.5-1.4 0-2.4-1-2.4-2.6 0-1.5 1.1-2.6 2.5-2.6 1.2 0 1.9 0.8 2.1 1.4l-1.1 0.6z" fill="#010101"/>
		<path d="m149.3 116.9v2.2c0 0.6 0 0.9 0.6 0.9 0.2 0 0.3 0 0.5-0.1v1c-0.4 0.1-0.6 0.1-0.9 0.1-0.2 0-1.1 0-1.3-0.6-0.1-0.2-0.1-0.5-0.1-1v-2.5h-0.7v-0.9h0.7v-1.7h1.2v1.7h1.1v0.8h-1.1z" fill="#010101"/>
		<path d="m152.4 115.3h-1.2v-1.2h1.2v1.2zm0 5.6h-1.2v-4.9h1.2v4.9z" fill="#010101"/>
		<polygon points="157.6 116 156 120.9 154.7 120.9 153.1 116 154.3 116 155.4 119.4 156.4 116" fill="#010101"/>
		<path d="m162.8 119.8c-0.6 0.8-1.4 1.2-2.4 1.2-1.3 0-2.5-0.8-2.5-2.6 0-1.6 1.1-2.6 2.4-2.6s1.8 0.8 1.9 0.9c0.4 0.6 0.5 1.4 0.5 1.9h-3.6c0.1 0.8 0.6 1.2 1.4 1.2s1.1-0.5 1.3-0.7l1 0.7zm-1.3-1.9c-0.1-0.8-0.6-1-1.1-1-0.6 0-1.1 0.4-1.2 1h2.3z" fill="#010101"/>
</svg>
