<?xml version="1.0" encoding="UTF-8" standalone="no"?>
<!-- Generator: Adobe Illustrator 16.0.0, SVG Export Plug-In . SVG Version: 6.00 Build 0)  -->
<!DOCTYPE svg  PUBLIC '-//W3C//DTD SVG 1.1//EN'  'http://www.w3.org/Graphics/SVG/1.1/DTD/svg11.dtd' [
	<!ENTITY st0 "fill:#80C99B;">
	<!ENTITY st1 "fill:#BDD646;">
	<!ENTITY st2 "fill:#231F20;">
	<!ENTITY st3 "fill:#005469;">
	<!ENTITY st4 "fill:#007089;">
	<!ENTITY st5 "fill:#0097A1;">
	<!ENTITY st6 "fill:#A1CF6D;">
	<!ENTITY st7 "fill:#45C0BE;">
]>
<svg id="Layer_1" style="enable-background:new 0 0 168 168" xmlns="http://www.w3.org/2000/svg" xml:space="preserve" height="168px" viewBox="0 0 168 168" width="168px" version="1.1" y="0px" x="0px" xmlns:xlink="http://www.w3.org/1999/xlink">
	<polygon points="16.2 83.4 6.3 83.4 8 74.5 17.9 74.5" fill="#A1CF6D"/>
	<polygon points="17.9 74.5 8 74.5 9.8 65.6 19.6 65.6" fill="#BDD646"/>
	<polygon points="26 83.4 16.2 83.4 17.9 74.5 27.7 74.5" fill="#80C99B"/>
	<polygon points="14.5 92.4 4.6 92.4 6.3 83.4 16.2 83.4" fill="#80C99B"/>
	<polygon points="24.3 92.4 14.5 92.4 16.2 83.4 26 83.4" fill="#45C0BE"/>
	<polygon points="27.7 74.5 17.9 74.5 19.6 65.6 29.4 65.6" fill="#A1CF6D"/>
	<polygon points="35.9 83.4 26 83.4 27.7 74.5 37.6 74.5" fill="#45C0BE"/>
	<polygon points="34.2 92.4 24.3 92.4 26 83.4 35.9 83.4" fill="#0097A1"/>
	<polygon points="12.8 101.3 2.9 101.3 4.6 92.4 14.5 92.4" fill="#45C0BE"/>
	<polygon points="22.6 101.3 12.8 101.3 14.5 92.4 24.3 92.4" fill="#0097A1"/>
	<polygon points="32.4 101.3 22.6 101.3 24.3 92.4 34.2 92.4" fill="#007089"/>
	<polygon points="37.6 74.5 27.7 74.5 29.4 65.6 39.3 65.6" fill="#80C99B"/>
	<polygon points="45.7 83.4 35.9 83.4 37.6 74.5 47.4 74.5" fill="#0097A1"/>
	<polygon points="44 92.4 34.2 92.4 35.9 83.4 45.7 83.4" fill="#007089"/>
	<polygon points="42.3 101.3 32.4 101.3 34.2 92.4 44 92.4" fill="#005469"/>
	<polygon points="47.4 74.5 37.6 74.5 39.3 65.6 49.1 65.6" fill="#45C0BE"/>
	<polygon points="67.3 101.3 53.5 101.3 58.6 74.5 63.4 74.5 59.1 97 68.1 97" fill="#231F20"/>
	<g fill="#231F20">
		<path d="m86.8 92.5c-0.5 2.5-1.2 6.6-1.6 8.9h-4.6c0.2-1.1 0.6-2.8 1.6-5.8h-0.1c-1.7 3.3-4.3 6.2-7.8 6.2-3.6 0-4.7-2.5-4-6.2l2.3-12.1h4.7l-2.1 11c-0.4 2.3-0.1 3.2 1.1 3.2 2.5 0 5.7-5.1 6.6-9.5l0.9-4.7h4.7l-1.7 9z"/>
		<polygon points="101.7 92.5 106.5 101.3 101.2 101.3 98.3 95.4 91.8 102.4 88.1 100.1 96.2 91.9 91.6 83.4 96.8 83.4 99.5 89 105.7 82.4 109.3 84.6"/>
		<path d="m121.6 87.7c-2.7-0.9-5.8 3.3-7.1 9.6l-0.8 4h-4.7l1.9-9.7c0.5-2.6 1.1-5.8 1.5-8.2h4.5c-0.3 1.4-0.7 3.1-1.6 5.6h0.1c2-3.9 4-6.5 7.2-6l-1 4.7z"/>
		<polygon points="126.9 101.3 122.2 101.3 125.6 83.4 130.3 83.4"/>
		<path d="m128.8 81c-1.6 0-2.8-1.3-2.8-2.8 0-1.7 1.5-3 3.2-3 1.6 0 2.8 1.3 2.8 2.7-0.1 1.8-1.6 3.1-3.2 3.1"/>
		<path d="m142.2 87.1c-3.5 0-5.4 3.4-5.4 7.1 0 2 0.8 3.3 3 3.3 3.3 0 5.6-3.7 5.6-7.8 0-2.1-1-2.6-3.2-2.6m-3.1 14.6c-5.2 0-7.2-2.5-7.2-6.7 0-7.8 5.1-12 11-12 5.3 0 7.4 2.1 7.4 6.1 0 7.7-5.3 12.6-11.2 12.6"/>
		<path d="m164.3 87.1h-4.3l-1.4 7.7c-0.4 2.2-0.1 2.8 1.4 2.8 0.9 0 1.6-0.1 2.3-0.3l-0.4 3.8c-1.2 0.3-2.7 0.5-3.8 0.5-4 0-5.1-1.9-4.3-6.4l1.5-8.2h-3.2l0.7-3.7h3.1l1.1-5.7 4.9-1-1.3 6.7h4.4l-0.7 3.8z"/>
	</g>
</svg>
