<?xml version="1.0" encoding="UTF-8" standalone="no"?>
<!-- Generator: Adobe Illustrator 16.0.0, SVG Export Plug-In . SVG Version: 6.00 Build 0)  -->
<!DOCTYPE svg  PUBLIC '-//W3C//DTD SVG 1.1//EN'  'http://www.w3.org/Graphics/SVG/1.1/DTD/svg11.dtd'>
<svg id="Layer_1" xmlns="http://www.w3.org/2000/svg" xml:space="preserve" height="168px" viewBox="0 0 168 168" width="168px" version="1.1" y="0px" x="0px" xmlns:xlink="http://www.w3.org/1999/xlink" enable-background="new 0 0 168 168">
		<defs>
			<path id="SVGID_1_" d="m23.4 90.3l-4.8-2.6c0.9-0.1 1.3-1 1.3-2.7l4.8 2.6c0 1.7-0.4 2.6-1.3 2.7"/>
		</defs>
		<clipPath id="SVGID_2_">
			<use overflow="visible" xlink:href="#SVGID_1_"/>
		</clipPath>
		<polyline fill="#C2C4C6" points="23.4 90.3 18.6 87.7 18.6 87.7 23.4 90.3 23.4 90.3" clip-path="url(#SVGID_2_)"/>
		<polyline fill="#C2C4C6" points="23.4 90.3 18.6 87.7 18.6 87.7 23.4 90.3 23.4 90.3" clip-path="url(#SVGID_2_)"/>
		<polyline fill="#C1C3C5" points="23.4 90.3 18.6 87.7 18.7 87.7 23.4 90.3 23.4 90.3" clip-path="url(#SVGID_2_)"/>
		<polyline fill="#C0C2C4" points="23.4 90.3 18.7 87.7 18.7 87.7 23.5 90.3 23.4 90.3" clip-path="url(#SVGID_2_)"/>
		<polyline fill="#C0C1C4" points="23.5 90.3 18.7 87.7 18.7 87.7 23.5 90.3 23.5 90.3" clip-path="url(#SVGID_2_)"/>
		<polyline fill="#C0C1C4" points="23.5 90.3 18.7 87.7 18.7 87.7 23.5 90.3 23.5 90.3" clip-path="url(#SVGID_2_)"/>
		<polyline fill="#BFC1C3" points="23.5 90.3 18.7 87.7 18.7 87.7 23.5 90.3 23.5 90.3" clip-path="url(#SVGID_2_)"/>
		<polyline fill="#BEC0C2" points="23.5 90.3 18.7 87.7 18.7 87.7 23.5 90.3 23.5 90.3" clip-path="url(#SVGID_2_)"/>
		<polyline fill="#BDBFC1" points="23.5 90.3 18.7 87.7 18.7 87.7 23.5 90.3 23.5 90.3" clip-path="url(#SVGID_2_)"/>
		<polyline fill="#BDBFC1" points="23.5 90.3 18.7 87.7 18.7 87.7 23.5 90.3 23.5 90.3" clip-path="url(#SVGID_2_)"/>
		<polyline fill="#BCBEC0" points="23.5 90.3 18.7 87.7 18.7 87.7 23.5 90.3 23.5 90.3" clip-path="url(#SVGID_2_)"/>
		<polyline fill="#BBBDC0" points="23.5 90.3 18.7 87.7 18.7 87.7 23.5 90.3 23.5 90.3" clip-path="url(#SVGID_2_)"/>
		<polyline fill="#BBBDBF" points="23.5 90.3 18.7 87.7 18.7 87.7 23.5 90.3 23.5 90.3" clip-path="url(#SVGID_2_)"/>
		<polyline fill="#BABCBE" points="23.5 90.3 18.7 87.7 18.7 87.7 23.5 90.3 23.5 90.3" clip-path="url(#SVGID_2_)"/>
		<polyline fill="#BABCBE" points="23.5 90.3 18.7 87.7 18.8 87.7 23.5 90.3 23.5 90.3" clip-path="url(#SVGID_2_)"/>
		<polyline fill="#B9BBBD" points="23.5 90.3 18.8 87.7 18.8 87.7 23.6 90.3 23.5 90.3" clip-path="url(#SVGID_2_)"/>
		<polyline fill="#B8BABC" points="23.6 90.3 18.8 87.7 18.8 87.7 23.6 90.3 23.6 90.3" clip-path="url(#SVGID_2_)"/>
		<polyline fill="#B7B9BC" points="23.6 90.3 18.8 87.7 18.8 87.7 23.6 90.3 23.6 90.3" clip-path="url(#SVGID_2_)"/>
		<polyline fill="#B7B9BC" points="23.6 90.3 18.8 87.7 18.8 87.7 23.6 90.3 23.6 90.3" clip-path="url(#SVGID_2_)"/>
		<polyline fill="#B6B8BB" points="23.6 90.3 18.8 87.7 18.8 87.7 23.6 90.3 23.6 90.3" clip-path="url(#SVGID_2_)"/>
		<polyline fill="#B6B8BA" points="23.6 90.3 18.8 87.7 18.8 87.7 23.6 90.3 23.6 90.3" clip-path="url(#SVGID_2_)"/>
		<polyline fill="#B5B7B9" points="23.6 90.3 18.8 87.7 18.8 87.7 23.6 90.3 23.6 90.3" clip-path="url(#SVGID_2_)"/>
		<polyline fill="#B5B7B9" points="23.6 90.3 18.8 87.7 18.8 87.7 23.6 90.3 23.6 90.3" clip-path="url(#SVGID_2_)"/>
		<polyline fill="#B4B6B8" points="23.6 90.3 18.8 87.7 18.8 87.7 23.6 90.3 23.6 90.3" clip-path="url(#SVGID_2_)"/>
		<polyline fill="#B3B5B8" points="23.6 90.3 18.8 87.7 18.8 87.7 23.6 90.3 23.6 90.3" clip-path="url(#SVGID_2_)"/>
		<polyline fill="#B2B4B7" points="23.6 90.3 18.8 87.7 18.8 87.7 23.6 90.3 23.6 90.3" clip-path="url(#SVGID_2_)"/>
		<polyline fill="#B2B4B7" points="23.6 90.3 18.8 87.7 18.8 87.7 23.6 90.3 23.6 90.3" clip-path="url(#SVGID_2_)"/>
		<polyline fill="#B2B4B6" points="23.6 90.3 18.8 87.7 18.9 87.7 23.6 90.3 23.6 90.3" clip-path="url(#SVGID_2_)"/>
		<polyline fill="#B1B3B5" points="23.6 90.3 18.9 87.7 18.9 87.7 23.6 90.3 23.6 90.3" clip-path="url(#SVGID_2_)"/>
		<polyline fill="#B0B2B4" points="23.6 90.3 18.9 87.7 18.9 87.7 23.7 90.3 23.6 90.3" clip-path="url(#SVGID_2_)"/>
		<polyline fill="#AFB1B4" points="23.7 90.3 18.9 87.7 18.9 87.7 23.7 90.3 23.7 90.3" clip-path="url(#SVGID_2_)"/>
		<polyline fill="#AFB1B4" points="23.7 90.3 18.9 87.7 18.9 87.7 23.7 90.3 23.7 90.3" clip-path="url(#SVGID_2_)"/>
		<polyline fill="#AEB0B3" points="23.7 90.3 18.9 87.7 18.9 87.7 23.7 90.3 23.7 90.3" clip-path="url(#SVGID_2_)"/>
		<polyline fill="#ADB0B2" points="23.7 90.3 18.9 87.7 18.9 87.7 23.7 90.3 23.7 90.3" clip-path="url(#SVGID_2_)"/>
		<polyline fill="#ADAFB1" points="23.7 90.3 18.9 87.7 18.9 87.7 23.7 90.3 23.7 90.3" clip-path="url(#SVGID_2_)"/>
		<polyline fill="#ADAFB1" points="23.7 90.3 18.9 87.7 18.9 87.7 23.7 90.3 23.7 90.3" clip-path="url(#SVGID_2_)"/>
		<polyline fill="#ACAEB0" points="23.7 90.3 18.9 87.7 18.9 87.7 23.7 90.3 23.7 90.3" clip-path="url(#SVGID_2_)"/>
		<polyline fill="#ABADB0" points="23.7 90.3 18.9 87.7 18.9 87.7 23.7 90.3 23.7 90.3" clip-path="url(#SVGID_2_)"/>
		<polyline fill="#AAACAF" points="23.7 90.3 18.9 87.7 18.9 87.7 23.7 90.3 23.7 90.3" clip-path="url(#SVGID_2_)"/>
		<polyline fill="#AAACAF" points="23.7 90.3 18.9 87.7 18.9 87.6 23.7 90.2 23.7 90.3" clip-path="url(#SVGID_2_)"/>
		<polyline fill="#A9ACAE" points="23.7 90.2 18.9 87.6 18.9 87.6 23.7 90.2 23.7 90.2" clip-path="url(#SVGID_2_)"/>
		<polyline fill="#A9ABAD" points="23.7 90.2 18.9 87.6 19 87.6 23.7 90.2 23.7 90.2" clip-path="url(#SVGID_2_)"/>
		<polyline fill="#A8AAAD" points="23.7 90.2 19 87.6 19 87.6 23.8 90.2 23.7 90.2" clip-path="url(#SVGID_2_)"/>
		<polyline fill="#A8AAAD" points="23.8 90.2 19 87.6 19 87.6 23.8 90.2 23.8 90.2" clip-path="url(#SVGID_2_)"/>
		<polyline fill="#A7A9AC" points="23.8 90.2 19 87.6 19 87.6 23.8 90.2 23.8 90.2" clip-path="url(#SVGID_2_)"/>
		<polyline fill="#A6A8AB" points="23.8 90.2 19 87.6 19 87.6 23.8 90.2 23.8 90.2" clip-path="url(#SVGID_2_)"/>
		<polyline fill="#A5A8AA" points="23.8 90.2 19 87.6 19 87.6 23.8 90.2 23.8 90.2" clip-path="url(#SVGID_2_)"/>
		<polyline fill="#A5A7A9" points="23.8 90.2 19 87.6 19 87.6 23.8 90.2 23.8 90.2" clip-path="url(#SVGID_2_)"/>
		<polyline fill="#A5A7A9" points="23.8 90.2 19 87.6 19 87.6 23.8 90.2 23.8 90.2" clip-path="url(#SVGID_2_)"/>
		<polyline fill="#A4A6A9" points="23.8 90.2 19 87.6 19 87.6 23.8 90.2 23.8 90.2" clip-path="url(#SVGID_2_)"/>
		<polyline fill="#A3A5A8" points="23.8 90.2 19 87.6 19 87.6 23.8 90.2 23.8 90.2" clip-path="url(#SVGID_2_)"/>
		<polyline fill="#A2A4A7" points="23.8 90.2 19 87.6 19 87.6 23.8 90.2 23.8 90.2" clip-path="url(#SVGID_2_)"/>
		<polyline fill="#A2A4A7" points="23.8 90.2 19 87.6 19 87.6 23.8 90.2 23.8 90.2" clip-path="url(#SVGID_2_)"/>
		<polyline fill="#A1A4A6" points="23.8 90.2 19 87.6 19.1 87.6 23.8 90.2 23.8 90.2" clip-path="url(#SVGID_2_)"/>
		<polyline fill="#A1A3A5" points="23.8 90.2 19.1 87.6 19.1 87.6 23.8 90.2 23.8 90.2" clip-path="url(#SVGID_2_)"/>
		<polyline fill="#A0A2A5" points="23.8 90.2 19.1 87.6 19.1 87.6 23.9 90.2 23.8 90.2" clip-path="url(#SVGID_2_)"/>
		<polyline fill="#A0A2A5" points="23.9 90.2 19.1 87.6 19.1 87.6 23.9 90.2 23.9 90.2" clip-path="url(#SVGID_2_)"/>
		<polyline fill="#9FA1A4" points="23.9 90.2 19.1 87.6 19.1 87.6 23.9 90.2 23.9 90.2" clip-path="url(#SVGID_2_)"/>
		<polyline fill="#9EA0A3" points="23.9 90.2 19.1 87.6 19.1 87.6 23.9 90.2 23.9 90.2" clip-path="url(#SVGID_2_)"/>
		<polyline fill="#9EA0A2" points="23.9 90.2 19.1 87.6 19.1 87.6 23.9 90.2 23.9 90.2" clip-path="url(#SVGID_2_)"/>
		<polyline fill="#9EA0A2" points="23.9 90.2 19.1 87.6 19.1 87.6 23.9 90.2 23.9 90.2" clip-path="url(#SVGID_2_)"/>
		<polyline fill="#9D9FA1" points="23.9 90.2 19.1 87.6 19.1 87.6 23.9 90.2 23.9 90.2" clip-path="url(#SVGID_2_)"/>
		<polyline fill="#9C9EA1" points="23.9 90.2 19.1 87.6 19.1 87.5 23.9 90.2 23.9 90.2" clip-path="url(#SVGID_2_)"/>
		<polyline fill="#9B9DA0" points="23.9 90.2 19.1 87.5 19.1 87.5 23.9 90.1 23.9 90.2" clip-path="url(#SVGID_2_)"/>
		<polyline fill="#9A9D9F" points="23.9 90.1 19.1 87.5 19.2 87.5 23.9 90.1 23.9 90.1" clip-path="url(#SVGID_2_)"/>
		<polyline fill="#9A9D9F" points="23.9 90.1 19.2 87.5 19.2 87.5 23.9 90.1 23.9 90.1" clip-path="url(#SVGID_2_)"/>
		<polyline fill="#9A9C9E" points="23.9 90.1 19.2 87.5 19.2 87.5 24 90.1 23.9 90.1" clip-path="url(#SVGID_2_)"/>
		<polyline fill="#999B9E" points="24 90.1 19.2 87.5 19.2 87.5 24 90.1 24 90.1" clip-path="url(#SVGID_2_)"/>
		<polyline fill="#989A9D" points="24 90.1 19.2 87.5 19.2 87.5 24 90.1 24 90.1" clip-path="url(#SVGID_2_)"/>
		<polyline fill="#989A9D" points="24 90.1 19.2 87.5 19.2 87.5 24 90.1 24 90.1" clip-path="url(#SVGID_2_)"/>
		<polyline fill="#97999C" points="24 90.1 19.2 87.5 19.2 87.5 24 90.1 24 90.1" clip-path="url(#SVGID_2_)"/>
		<polyline fill="#97999B" points="24 90.1 19.2 87.5 19.2 87.5 24 90.1 24 90.1" clip-path="url(#SVGID_2_)"/>
		<polyline fill="#96989B" points="24 90.1 19.2 87.5 19.3 87.4 24 90.1 24 90.1" clip-path="url(#SVGID_2_)"/>
		<polyline fill="#96989B" points="24 90.1 19.3 87.4 19.3 87.4 24.1 90 24 90.1" clip-path="url(#SVGID_2_)"/>
		<polyline fill="#95979A" points="24.1 90 19.3 87.4 19.3 87.4 24.1 90 24.1 90" clip-path="url(#SVGID_2_)"/>
		<polyline fill="#949699" points="24.1 90 19.3 87.4 19.4 87.3 24.2 89.9 24.1 90" clip-path="url(#SVGID_2_)"/>
		<path fill="#949698" d="m24.2 89.9l-4.8-2.6c0.4-0.4 0.6-1.2 0.6-2.4l4.8 2.6c-0.1 1.2-0.3 2-0.6 2.4" clip-path="url(#SVGID_2_)"/>
	<polyline points="23.1 90.4 18.3 87.8 18.6 87.7 23.4 90.3 23.1 90.4" fill="#BDBFC1"/>
	<polyline points="24.7 87.6 19.9 85 20 78.5 24.7 81.1 24.7 87.6" fill="#95979A"/>
	<polyline points="18 91.1 13.2 88.5 18.3 87.8 23.1 90.4 18 91.1" fill="#BDBFC1"/>
		<defs>
			<path id="SVGID_3_" d="m19.3 76.3c0.8 0.4 1.6 0.9 2.4 1.3s1.6 0.9 2.4 1.3c0.5 0.3 0.7 1 0.7 2.3l-4.8-2.7c0-1.2-0.3-2-0.7-2.2"/>
		</defs>
		<clipPath id="SVGID_4_">
			<use overflow="visible" xlink:href="#SVGID_3_"/>
		</clipPath>
		<path fill="#949698" d="m24.7 81.1l-4.7-2.6c0-1.2-0.2-2-0.7-2.3l4.8 2.6c0.4 0.3 0.6 1.1 0.6 2.3" clip-path="url(#SVGID_4_)"/>
		<defs>
			<path id="SVGID_5_" d="m21.8 71.9l4.8 2.6c-0.8-0.4-1.7-0.6-2.9-0.4l-4.8-2.6c1.2-0.1 2.1 0 2.9 0.4"/>
		</defs>
		<clipPath id="SVGID_6_">
			<use overflow="visible" xlink:href="#SVGID_5_"/>
		</clipPath>
		<polyline fill="#C2C4C6" points="23.7 74.2 18.9 71.6 18.9 71.6 23.7 74.2 23.7 74.2" clip-path="url(#SVGID_6_)"/>
		<polyline fill="#C3C5C7" points="23.7 74.2 18.9 71.6 19 71.5 23.7 74.2 23.7 74.2" clip-path="url(#SVGID_6_)"/>
		<polyline fill="#C4C6C8" points="23.7 74.2 19 71.5 19 71.5 23.8 74.1 23.7 74.2" clip-path="url(#SVGID_6_)"/>
		<polyline fill="#C5C6C8" points="23.8 74.1 19 71.5 19 71.5 23.8 74.1 23.8 74.1" clip-path="url(#SVGID_6_)"/>
		<polyline fill="#C5C6C8" points="23.8 74.1 19 71.5 19.1 71.5 23.9 74.1 23.8 74.1" clip-path="url(#SVGID_6_)"/>
		<polyline fill="#C5C7C9" points="23.9 74.1 19.1 71.5 19.1 71.5 23.9 74.1 23.9 74.1" clip-path="url(#SVGID_6_)"/>
		<polyline fill="#C6C8CA" points="23.9 74.1 19.1 71.5 19.2 71.5 24 74.1 23.9 74.1" clip-path="url(#SVGID_6_)"/>
		<polyline fill="#C7C9CB" points="24 74.1 19.2 71.5 19.2 71.5 24 74.1 24 74.1" clip-path="url(#SVGID_6_)"/>
		<polyline fill="#C8CACC" points="24 74.1 19.2 71.5 19.3 71.5 24.1 74.1 24 74.1" clip-path="url(#SVGID_6_)"/>
		<polyline fill="#C8CACC" points="24.1 74.1 19.3 71.5 19.3 71.5 24.1 74.1 24.1 74.1" clip-path="url(#SVGID_6_)"/>
		<polyline fill="#C9CBCC" points="24.1 74.1 19.3 71.5 19.4 71.5 24.1 74.1 24.1 74.1" clip-path="url(#SVGID_6_)"/>
		<polyline fill="#CACBCD" points="24.1 74.1 19.4 71.5 19.4 71.5 24.2 74.1 24.1 74.1" clip-path="url(#SVGID_6_)"/>
		<polyline fill="#CBCCCE" points="24.2 74.1 19.4 71.5 19.4 71.5 24.2 74.1 24.2 74.1" clip-path="url(#SVGID_6_)"/>
		<polyline fill="#CBCCCE" points="24.2 74.1 19.4 71.5 19.5 71.5 24.3 74.1 24.2 74.1" clip-path="url(#SVGID_6_)"/>
		<polyline fill="#CBCDCF" points="24.3 74.1 19.5 71.5 19.5 71.5 24.3 74.1 24.3 74.1" clip-path="url(#SVGID_6_)"/>
		<polyline fill="#CCCED0" points="24.3 74.1 19.5 71.5 19.6 71.5 24.4 74.1 24.3 74.1" clip-path="url(#SVGID_6_)"/>
		<polyline fill="#CDCFD0" points="24.3 74.1 19.6 71.5 19.6 71.5 24.4 74.1 24.3 74.1" clip-path="url(#SVGID_6_)"/>
		<polyline fill="#CDCFD0" points="24.4 74.1 19.6 71.5 19.6 71.5 24.4 74.1 24.4 74.1" clip-path="url(#SVGID_6_)"/>
		<polyline fill="#CECFD1" points="24.4 74.1 19.6 71.5 19.7 71.5 24.5 74.1 24.4 74.1" clip-path="url(#SVGID_6_)"/>
		<polyline fill="#CFD0D2" points="24.5 74.1 19.7 71.5 19.7 71.5 24.5 74.1 24.5 74.1" clip-path="url(#SVGID_6_)"/>
		<polyline fill="#CFD1D3" points="24.5 74.1 19.7 71.5 19.8 71.5 24.5 74.1 24.5 74.1" clip-path="url(#SVGID_6_)"/>
		<polyline fill="#CFD1D3" points="24.5 74.1 19.8 71.5 19.8 71.5 24.6 74.1 24.5 74.1" clip-path="url(#SVGID_6_)"/>
		<polyline fill="#D0D2D3" points="24.6 74.1 19.8 71.5 19.8 71.5 24.6 74.1 24.6 74.1" clip-path="url(#SVGID_6_)"/>
		<polyline fill="#D1D3D4" points="24.6 74.1 19.8 71.5 19.9 71.5 24.7 74.1 24.6 74.1" clip-path="url(#SVGID_6_)"/>
		<polyline fill="#D2D3D5" points="24.7 74.1 19.9 71.5 19.9 71.5 24.7 74.1 24.7 74.1" clip-path="url(#SVGID_6_)"/>
		<polyline fill="#D3D4D6" points="24.7 74.1 19.9 71.5 20 71.5 24.7 74.1 24.7 74.1" clip-path="url(#SVGID_6_)"/>
		<polyline fill="#D3D4D6" points="24.7 74.1 20 71.5 20 71.5 24.8 74.1 24.7 74.1" clip-path="url(#SVGID_6_)"/>
		<polyline fill="#D4D5D7" points="24.8 74.1 20 71.5 20 71.5 24.8 74.1 24.8 74.1" clip-path="url(#SVGID_6_)"/>
		<polyline fill="#D4D6D7" points="24.8 74.1 20 71.5 20.1 71.5 24.9 74.1 24.8 74.1" clip-path="url(#SVGID_6_)"/>
		<polyline fill="#D5D7D8" points="24.9 74.1 20.1 71.5 20.1 71.5 24.9 74.1 24.9 74.1" clip-path="url(#SVGID_6_)"/>
		<polyline fill="#D5D7D8" points="24.9 74.1 20.1 71.5 20.1 71.5 24.9 74.1 24.9 74.1" clip-path="url(#SVGID_6_)"/>
		<polyline fill="#D6D7D9" points="24.9 74.1 20.1 71.5 20.2 71.5 25 74.1 24.9 74.1" clip-path="url(#SVGID_6_)"/>
		<polyline fill="#D7D8DA" points="25 74.1 20.2 71.5 20.2 71.5 25 74.1 25 74.1" clip-path="url(#SVGID_6_)"/>
		<polyline fill="#D8D9DB" points="25 74.1 20.2 71.5 20.2 71.5 25 74.1 25 74.1" clip-path="url(#SVGID_6_)"/>
		<polyline fill="#D8D9DB" points="25 74.1 20.2 71.5 20.3 71.5 25.1 74.1 25 74.1" clip-path="url(#SVGID_6_)"/>
		<polyline fill="#D9DADB" points="25.1 74.1 20.3 71.5 20.3 71.5 25.1 74.1 25.1 74.1" clip-path="url(#SVGID_6_)"/>
		<polyline fill="#D9DBDC" points="25.1 74.1 20.3 71.5 20.4 71.5 25.1 74.1 25.1 74.1" clip-path="url(#SVGID_6_)"/>
		<polyline fill="#DADBDD" points="25.1 74.1 20.4 71.5 20.4 71.5 25.2 74.1 25.1 74.1" clip-path="url(#SVGID_6_)"/>
		<polyline fill="#DADBDD" points="25.2 74.1 20.4 71.5 20.4 71.5 25.2 74.1 25.2 74.1" clip-path="url(#SVGID_6_)"/>
		<polyline fill="#DBDCDE" points="25.2 74.1 20.4 71.5 20.5 71.5 25.2 74.1 25.2 74.1" clip-path="url(#SVGID_6_)"/>
		<polyline fill="#DCDDDE" points="25.2 74.1 20.5 71.5 20.5 71.5 25.3 74.1 25.2 74.1" clip-path="url(#SVGID_6_)"/>
		<polyline fill="#DDDEDF" points="25.3 74.1 20.5 71.5 20.5 71.5 25.3 74.1 25.3 74.1" clip-path="url(#SVGID_6_)"/>
		<polyline fill="#DEDFE0" points="25.3 74.1 20.5 71.5 20.6 71.5 25.4 74.1 25.3 74.1" clip-path="url(#SVGID_6_)"/>
		<polyline fill="#DEDFE0" points="25.4 74.1 20.6 71.5 20.6 71.5 25.4 74.2 25.4 74.1" clip-path="url(#SVGID_6_)"/>
		<polyline fill="#DEDFE1" points="25.4 74.2 20.6 71.5 20.6 71.6 25.4 74.2 25.4 74.2" clip-path="url(#SVGID_6_)"/>
		<polyline fill="#DFE0E1" points="25.4 74.2 20.6 71.6 20.7 71.6 25.5 74.2 25.4 74.2" clip-path="url(#SVGID_6_)"/>
		<polyline fill="#E0E1E2" points="25.5 74.2 20.7 71.6 20.7 71.6 25.5 74.2 25.5 74.2" clip-path="url(#SVGID_6_)"/>
		<polyline fill="#E0E1E2" points="25.5 74.2 20.7 71.6 20.7 71.6 25.5 74.2 25.5 74.2" clip-path="url(#SVGID_6_)"/>
		<polyline fill="#E1E2E3" points="25.5 74.2 20.7 71.6 20.8 71.6 25.6 74.2 25.5 74.2" clip-path="url(#SVGID_6_)"/>
		<polyline fill="#E2E3E4" points="25.6 74.2 20.8 71.6 20.8 71.6 25.6 74.2 25.6 74.2" clip-path="url(#SVGID_6_)"/>
		<polyline fill="#E3E4E5" points="25.6 74.2 20.8 71.6 20.8 71.6 25.6 74.2 25.6 74.2" clip-path="url(#SVGID_6_)"/>
		<polyline fill="#E3E4E5" points="25.6 74.2 20.8 71.6 20.9 71.6 25.7 74.2 25.6 74.2" clip-path="url(#SVGID_6_)"/>
		<polyline fill="#E3E4E5" points="25.7 74.2 20.9 71.6 20.9 71.6 25.7 74.2 25.7 74.2" clip-path="url(#SVGID_6_)"/>
		<polyline fill="#E4E5E6" points="25.7 74.2 20.9 71.6 20.9 71.6 25.7 74.2 25.7 74.2" clip-path="url(#SVGID_6_)"/>
		<polyline fill="#E5E6E7" points="25.7 74.2 20.9 71.6 21 71.6 25.8 74.2 25.7 74.2" clip-path="url(#SVGID_6_)"/>
		<polyline fill="#E5E6E7" points="25.8 74.2 21 71.6 21 71.6 25.8 74.2 25.8 74.2" clip-path="url(#SVGID_6_)"/>
		<polyline fill="#E6E7E8" points="25.8 74.2 21 71.6 21 71.6 25.8 74.2 25.8 74.2" clip-path="url(#SVGID_6_)"/>
		<polyline fill="#E7E8E8" points="25.8 74.2 21 71.6 21.1 71.7 25.9 74.3 25.8 74.2" clip-path="url(#SVGID_6_)"/>
		<polyline fill="#E8E8E9" points="25.9 74.3 21.1 71.7 21.1 71.7 25.9 74.3 25.9 74.3" clip-path="url(#SVGID_6_)"/>
		<polyline fill="#E9E9EA" points="25.9 74.3 21.1 71.7 21.1 71.7 25.9 74.3 25.9 74.3" clip-path="url(#SVGID_6_)"/>
		<polyline fill="#E9E9EA" points="25.9 74.3 21.1 71.7 21.2 71.7 26 74.3 25.9 74.3" clip-path="url(#SVGID_6_)"/>
		<polyline fill="#E9EAEB" points="26 74.3 21.2 71.7 21.2 71.7 26 74.3 26 74.3" clip-path="url(#SVGID_6_)"/>
		<polyline fill="#EAEBEC" points="26 74.3 21.2 71.7 21.2 71.7 26 74.3 26 74.3" clip-path="url(#SVGID_6_)"/>
		<polyline fill="#EBECEC" points="26 74.3 21.2 71.7 21.3 71.7 26.1 74.3 26 74.3" clip-path="url(#SVGID_6_)"/>
		<polyline fill="#EBECEC" points="26.1 74.3 21.3 71.7 21.3 71.7 26.1 74.3 26.1 74.3" clip-path="url(#SVGID_6_)"/>
		<polyline fill="#ECEDED" points="26.1 74.3 21.3 71.7 21.3 71.7 26.1 74.3 26.1 74.3" clip-path="url(#SVGID_6_)"/>
		<polyline fill="#EDEDEE" points="26.1 74.3 21.3 71.7 21.4 71.8 26.2 74.4 26.1 74.3" clip-path="url(#SVGID_6_)"/>
		<polyline fill="#EDEEEF" points="26.2 74.4 21.4 71.8 21.4 71.8 26.2 74.4 26.2 74.4" clip-path="url(#SVGID_6_)"/>
		<polyline fill="#EDEEEF" points="26.2 74.4 21.4 71.8 21.4 71.8 26.2 74.4 26.2 74.4" clip-path="url(#SVGID_6_)"/>
		<polyline fill="#EEEFF0" points="26.2 74.4 21.4 71.8 21.5 71.8 26.3 74.4 26.2 74.4" clip-path="url(#SVGID_6_)"/>
		<polyline fill="#EFF0F0" points="26.3 74.4 21.5 71.8 21.5 71.8 26.3 74.4 26.3 74.4" clip-path="url(#SVGID_6_)"/>
		<polyline fill="#F0F1F1" points="26.3 74.4 21.5 71.8 21.6 71.8 26.3 74.4 26.3 74.4" clip-path="url(#SVGID_6_)"/>
		<polyline fill="#F0F1F1" points="26.3 74.4 21.6 71.8 21.6 71.8 26.4 74.4 26.3 74.4" clip-path="url(#SVGID_6_)"/>
		<polyline fill="#F1F1F2" points="26.4 74.4 21.6 71.8 21.6 71.9 26.4 74.5 26.4 74.4" clip-path="url(#SVGID_6_)"/>
		<polyline fill="#F2F2F3" points="26.4 74.5 21.6 71.9 21.7 71.9 26.4 74.5 26.4 74.5" clip-path="url(#SVGID_6_)"/>
		<polyline fill="#F3F3F3" points="26.4 74.5 21.7 71.9 21.7 71.9 26.5 74.5 26.4 74.5" clip-path="url(#SVGID_6_)"/>
		<polyline fill="#F3F4F4" points="26.5 74.5 21.7 71.9 21.7 71.9 26.5 74.5 26.5 74.5" clip-path="url(#SVGID_6_)"/>
		<polyline fill="#F3F4F4" points="26.5 74.5 21.7 71.9 21.8 71.9 26.6 74.5 26.5 74.5" clip-path="url(#SVGID_6_)"/>
		<polyline fill="#F4F5F5" points="26.6 74.5 21.8 71.9 21.8 71.9 26.6 74.6 26.6 74.5" clip-path="url(#SVGID_6_)"/>
	<polyline points="23.2 74.2 18.4 71.6 18.9 71.6 23.7 74.2 23.2 74.2" fill="#BDBFC1"/>
	<polyline points="12.8 91.8 8 89.2 13.2 88.5 18 91.1 12.8 91.8" fill="#BDBFC1"/>
	<polyline points="12.5 91.9 7.8 89.3 8 89.2 12.8 91.8 12.5 91.9" fill="#BDBFC1"/>
		<defs>
			<path id="SVGID_7_" d="m11.9 91.8l-4.8-2.6c0.2 0.1 0.4 0.1 0.6 0.1l4.8 2.6c-0.2 0-0.4 0-0.6-0.1"/>
		</defs>
		<clipPath id="SVGID_8_">
			<use overflow="visible" xlink:href="#SVGID_7_"/>
		</clipPath>
		<polyline fill="#F4F5F5" points="11.9 91.8 7.2 89.2 7.2 89.2 11.9 91.8 11.9 91.8" clip-path="url(#SVGID_8_)"/>
		<polyline fill="#F3F4F4" points="11.9 91.8 7.2 89.2 7.2 89.2 12 91.8 11.9 91.8" clip-path="url(#SVGID_8_)"/>
		<polyline fill="#F3F4F4" points="12 91.8 7.2 89.2 7.2 89.2 12 91.8 12 91.8" clip-path="url(#SVGID_8_)"/>
		<polyline fill="#F3F3F3" points="12 91.8 7.2 89.2 7.2 89.2 12 91.8 12 91.8" clip-path="url(#SVGID_8_)"/>
		<polyline fill="#F2F2F3" points="12 91.8 7.2 89.2 7.2 89.2 12 91.8 12 91.8" clip-path="url(#SVGID_8_)"/>
		<polyline fill="#F1F1F2" points="12 91.8 7.2 89.2 7.2 89.2 12 91.8 12 91.8" clip-path="url(#SVGID_8_)"/>
		<polyline fill="#F0F1F1" points="12 91.8 7.2 89.2 7.2 89.2 12 91.8 12 91.8" clip-path="url(#SVGID_8_)"/>
		<polyline fill="#F0F1F1" points="12 91.8 7.2 89.2 7.2 89.2 12 91.8 12 91.8" clip-path="url(#SVGID_8_)"/>
		<polyline fill="#EFF0F0" points="12 91.8 7.2 89.2 7.2 89.2 12 91.8 12 91.8" clip-path="url(#SVGID_8_)"/>
		<polyline fill="#EEEFF0" points="12 91.8 7.2 89.2 7.2 89.2 12 91.8 12 91.8" clip-path="url(#SVGID_8_)"/>
		<polyline fill="#EDEEEF" points="12 91.8 7.2 89.2 7.2 89.2 12 91.8 12 91.8" clip-path="url(#SVGID_8_)"/>
		<polyline fill="#EDEEEF" points="12 91.8 7.2 89.2 7.3 89.2 12 91.8 12 91.8" clip-path="url(#SVGID_8_)"/>
		<polyline fill="#EDEDEE" points="12 91.8 7.3 89.2 7.3 89.2 12 91.8 12 91.8" clip-path="url(#SVGID_8_)"/>
		<polyline fill="#ECEDED" points="12 91.8 7.3 89.2 7.3 89.2 12.1 91.8 12 91.8" clip-path="url(#SVGID_8_)"/>
		<polyline fill="#EBECEC" points="12.1 91.8 7.3 89.2 7.3 89.2 12.1 91.8 12.1 91.8" clip-path="url(#SVGID_8_)"/>
		<polyline fill="#EBECEC" points="12.1 91.8 7.3 89.2 7.3 89.2 12.1 91.8 12.1 91.8" clip-path="url(#SVGID_8_)"/>
		<polyline fill="#EAEBEC" points="12.1 91.8 7.3 89.2 7.3 89.2 12.1 91.8 12.1 91.8" clip-path="url(#SVGID_8_)"/>
		<polyline fill="#E9EAEB" points="12.1 91.8 7.3 89.2 7.3 89.2 12.1 91.8 12.1 91.8" clip-path="url(#SVGID_8_)"/>
		<polyline fill="#E9E9EA" points="12.1 91.8 7.3 89.2 7.3 89.2 12.1 91.8 12.1 91.8" clip-path="url(#SVGID_8_)"/>
		<polyline fill="#E9E9EA" points="12.1 91.8 7.3 89.2 7.3 89.2 12.1 91.8 12.1 91.8" clip-path="url(#SVGID_8_)"/>
		<polyline fill="#E8E8E9" points="12.1 91.8 7.3 89.2 7.3 89.2 12.1 91.8 12.1 91.8" clip-path="url(#SVGID_8_)"/>
		<polyline fill="#E7E8E8" points="12.1 91.8 7.3 89.2 7.3 89.2 12.1 91.8 12.1 91.8" clip-path="url(#SVGID_8_)"/>
		<polyline fill="#E6E7E8" points="12.1 91.8 7.3 89.2 7.3 89.2 12.1 91.8 12.1 91.8" clip-path="url(#SVGID_8_)"/>
		<polyline fill="#E5E6E7" points="12.1 91.8 7.3 89.2 7.3 89.2 12.1 91.8 12.1 91.8" clip-path="url(#SVGID_8_)"/>
		<polyline fill="#E5E6E7" points="12.1 91.8 7.3 89.2 7.3 89.2 12.1 91.8 12.1 91.8" clip-path="url(#SVGID_8_)"/>
		<polyline fill="#E4E5E6" points="12.1 91.8 7.3 89.2 7.4 89.2 12.1 91.8 12.1 91.8" clip-path="url(#SVGID_8_)"/>
		<polyline fill="#E3E4E5" points="12.1 91.9 7.4 89.2 7.4 89.2 12.2 91.9 12.1 91.9" clip-path="url(#SVGID_8_)"/>
		<polyline fill="#E3E4E5" points="12.1 91.9 7.4 89.2 7.4 89.3 12.2 91.9 12.1 91.9" clip-path="url(#SVGID_8_)"/>
		<polyline fill="#E3E4E5" points="12.2 91.9 7.4 89.2 7.4 89.3 12.2 91.9 12.2 91.9" clip-path="url(#SVGID_8_)"/>
		<polyline fill="#E2E3E4" points="12.2 91.9 7.4 89.3 7.4 89.3 12.2 91.9 12.2 91.9" clip-path="url(#SVGID_8_)"/>
		<polyline fill="#E1E2E3" points="12.2 91.9 7.4 89.3 7.4 89.3 12.2 91.9 12.2 91.9" clip-path="url(#SVGID_8_)"/>
		<polyline fill="#E0E1E2" points="12.2 91.9 7.4 89.3 7.4 89.3 12.2 91.9 12.2 91.9" clip-path="url(#SVGID_8_)"/>
		<polyline fill="#E0E1E2" points="12.2 91.9 7.4 89.3 7.4 89.3 12.2 91.9 12.2 91.9" clip-path="url(#SVGID_8_)"/>
		<polyline fill="#DFE0E1" points="12.2 91.9 7.4 89.3 7.4 89.3 12.2 91.9 12.2 91.9" clip-path="url(#SVGID_8_)"/>
		<polyline fill="#DEDFE1" points="12.2 91.9 7.4 89.3 7.4 89.3 12.2 91.9 12.2 91.9" clip-path="url(#SVGID_8_)"/>
		<polyline fill="#DEDFE0" points="12.2 91.9 7.4 89.3 7.4 89.3 12.2 91.9 12.2 91.9" clip-path="url(#SVGID_8_)"/>
		<polyline fill="#DEDFE0" points="12.2 91.9 7.4 89.3 7.4 89.3 12.2 91.9 12.2 91.9" clip-path="url(#SVGID_8_)"/>
		<polyline fill="#DDDEDF" points="12.2 91.9 7.4 89.3 7.4 89.3 12.2 91.9 12.2 91.9" clip-path="url(#SVGID_8_)"/>
		<polyline fill="#DCDDDE" points="12.2 91.9 7.4 89.3 7.4 89.3 12.2 91.9 12.2 91.9" clip-path="url(#SVGID_8_)"/>
		<polyline fill="#DBDCDE" points="12.2 91.9 7.4 89.3 7.5 89.3 12.2 91.9 12.2 91.9" clip-path="url(#SVGID_8_)"/>
		<polyline fill="#DADBDD" points="12.2 91.9 7.5 89.3 7.5 89.3 12.3 91.9 12.2 91.9" clip-path="url(#SVGID_8_)"/>
		<polyline fill="#DADBDD" points="12.3 91.9 7.5 89.3 7.5 89.3 12.3 91.9 12.3 91.9" clip-path="url(#SVGID_8_)"/>
		<polyline fill="#D9DBDC" points="12.3 91.9 7.5 89.3 7.5 89.3 12.3 91.9 12.3 91.9" clip-path="url(#SVGID_8_)"/>
		<polyline fill="#D9DADB" points="12.3 91.9 7.5 89.3 7.5 89.3 12.3 91.9 12.3 91.9" clip-path="url(#SVGID_8_)"/>
	<polyline points="12.3 91.9 7.5 89.3 7.5 89.3 12.3 91.9 12.3 91.9" fill="#D8D9DB"/>
		<defs>
			<path id="SVGID_9_" d="m11.9 91.8l-4.8-2.6c0.2 0.1 0.4 0.1 0.6 0.1l4.8 2.6c-0.2 0-0.4 0-0.6-0.1"/>
		</defs>
		<clipPath id="SVGID_10_">
			<use overflow="visible" xlink:href="#SVGID_9_"/>
		</clipPath>
		<polyline fill="#D8D9DB" points="12.3 91.9 7.5 89.3 7.5 89.3 12.3 91.9 12.3 91.9" clip-path="url(#SVGID_10_)"/>
		<polyline fill="#D7D8DA" points="12.3 91.9 7.5 89.3 7.5 89.3 12.3 91.9 12.3 91.9" clip-path="url(#SVGID_10_)"/>
	<polyline points="12.3 91.9 7.5 89.3 7.5 89.3 12.3 91.9 12.3 91.9" fill="#D6D7D9"/>
		<defs>
			<path id="SVGID_11_" d="m11.9 91.8l-4.8-2.6c0.2 0.1 0.4 0.1 0.6 0.1l4.8 2.6c-0.2 0-0.4 0-0.6-0.1"/>
		</defs>
		<clipPath id="SVGID_12_">
			<use overflow="visible" xlink:href="#SVGID_11_"/>
		</clipPath>
		<polyline fill="#D5D7D8" points="12.3 91.9 7.5 89.3 7.5 89.3 12.3 91.9 12.3 91.9" clip-path="url(#SVGID_12_)"/>
	<polyline points="12.3 91.9 7.5 89.3 7.5 89.3 12.3 91.9 12.3 91.9" fill="#D5D7D8"/>
	<polyline points="12.3 91.9 7.5 89.3 7.5 89.3 12.3 91.9 12.3 91.9" fill="#D4D6D7"/>
		<defs>
			<path id="SVGID_13_" d="m11.9 91.8l-4.8-2.6c0.2 0.1 0.4 0.1 0.6 0.1l4.8 2.6c-0.2 0-0.4 0-0.6-0.1"/>
		</defs>
		<clipPath id="SVGID_14_">
			<use overflow="visible" xlink:href="#SVGID_13_"/>
		</clipPath>
		<polyline fill="#D4D5D7" points="12.3 91.9 7.5 89.3 7.5 89.3 12.3 91.9 12.3 91.9" clip-path="url(#SVGID_14_)"/>
		<polyline fill="#D3D4D6" points="12.3 91.9 7.5 89.3 7.6 89.3 12.3 91.9 12.3 91.9" clip-path="url(#SVGID_14_)"/>
		<polyline fill="#D3D4D6" points="12.3 91.9 7.6 89.3 7.6 89.3 12.3 91.9 12.3 91.9" clip-path="url(#SVGID_14_)"/>
		<polyline fill="#D2D3D5" points="12.3 91.9 7.6 89.3 7.6 89.3 12.4 91.9 12.3 91.9" clip-path="url(#SVGID_14_)"/>
		<polyline fill="#D1D3D4" points="12.4 91.9 7.6 89.3 7.6 89.3 12.4 91.9 12.4 91.9" clip-path="url(#SVGID_14_)"/>
		<polyline fill="#D0D2D3" points="12.4 91.9 7.6 89.3 7.6 89.3 12.4 91.9 12.4 91.9" clip-path="url(#SVGID_14_)"/>
		<polyline fill="#CFD1D3" points="12.4 91.9 7.6 89.3 7.6 89.3 12.4 91.9 12.4 91.9" clip-path="url(#SVGID_14_)"/>
		<polyline fill="#CFD1D3" points="12.4 91.9 7.6 89.3 7.6 89.3 12.4 91.9 12.4 91.9" clip-path="url(#SVGID_14_)"/>
		<polyline fill="#CFD0D2" points="12.4 91.9 7.6 89.3 7.6 89.3 12.4 91.9 12.4 91.9" clip-path="url(#SVGID_14_)"/>
		<polyline fill="#CECFD1" points="12.4 91.9 7.6 89.3 7.6 89.3 12.4 91.9 12.4 91.9" clip-path="url(#SVGID_14_)"/>
		<polyline fill="#CDCFD0" points="12.4 91.9 7.6 89.3 7.6 89.3 12.4 91.9 12.4 91.9" clip-path="url(#SVGID_14_)"/>
		<polyline fill="#CDCFD0" points="12.4 91.9 7.6 89.3 7.6 89.3 12.4 91.9 12.4 91.9" clip-path="url(#SVGID_14_)"/>
		<polyline fill="#CCCED0" points="12.4 91.9 7.6 89.3 7.6 89.3 12.4 91.9 12.4 91.9" clip-path="url(#SVGID_14_)"/>
		<polyline fill="#CBCDCF" points="12.4 91.9 7.6 89.3 7.6 89.3 12.4 91.9 12.4 91.9" clip-path="url(#SVGID_14_)"/>
		<polyline fill="#CBCCCE" points="12.4 91.9 7.6 89.3 7.7 89.3 12.4 91.9 12.4 91.9" clip-path="url(#SVGID_14_)"/>
		<polyline fill="#CBCCCE" points="12.4 91.9 7.7 89.3 7.7 89.3 12.5 91.9 12.4 91.9" clip-path="url(#SVGID_14_)"/>
		<polyline fill="#CACBCD" points="12.5 91.9 7.7 89.3 7.7 89.3 12.5 91.9 12.5 91.9" clip-path="url(#SVGID_14_)"/>
		<polyline fill="#C9CBCC" points="12.5 91.9 7.7 89.3 7.7 89.3 12.5 91.9 12.5 91.9" clip-path="url(#SVGID_14_)"/>
		<polyline fill="#C8CACC" points="12.5 91.9 7.7 89.3 7.7 89.3 12.5 91.9 12.5 91.9" clip-path="url(#SVGID_14_)"/>
		<polyline fill="#C8CACC" points="12.5 91.9 7.7 89.3 7.7 89.3 12.5 91.9 12.5 91.9" clip-path="url(#SVGID_14_)"/>
		<polyline fill="#C7C9CB" points="12.5 91.9 7.7 89.3 7.7 89.3 12.5 91.9 12.5 91.9" clip-path="url(#SVGID_14_)"/>
		<polyline fill="#C6C8CA" points="12.5 91.9 7.7 89.3 7.7 89.3 12.5 91.9 12.5 91.9" clip-path="url(#SVGID_14_)"/>
		<polyline fill="#C5C7C9" points="12.5 91.9 7.7 89.3 7.7 89.3 12.5 91.9 12.5 91.9" clip-path="url(#SVGID_14_)"/>
		<polyline fill="#C5C6C8" points="12.5 91.9 7.7 89.3 7.7 89.3 12.5 91.9 12.5 91.9" clip-path="url(#SVGID_14_)"/>
		<polyline fill="#C5C6C8" points="12.5 91.9 7.7 89.3 7.7 89.3 12.5 91.9 12.5 91.9" clip-path="url(#SVGID_14_)"/>
		<polyline fill="#C4C6C8" points="12.5 91.9 7.7 89.3 7.7 89.3 12.5 91.9 12.5 91.9" clip-path="url(#SVGID_14_)"/>
		<polyline fill="#C3C5C7" points="12.5 91.9 7.7 89.3 7.8 89.3 12.5 91.9 12.5 91.9" clip-path="url(#SVGID_14_)"/>
		<polyline fill="#C2C4C6" points="12.5 91.9 7.8 89.3 12.5 91.9" clip-path="url(#SVGID_14_)"/>
	<polyline points="18 75 13.2 72.4 18.4 71.6 23.2 74.2 18 75" fill="#BDBFC1"/>
		<defs>
			<path id="SVGID_15_" d="m9.4 96l-4.8-2.6c-1.7-0.9-2.5-3.1-2.5-6.7l4.9 2.6c0 3.6 0.8 5.8 2.4 6.7"/>
		</defs>
		<clipPath id="SVGID_16_">
			<use overflow="visible" xlink:href="#SVGID_15_"/>
		</clipPath>
		<path fill="#949698" d="m9.4 96l-4.8-2.6c-1.7-0.9-2.5-3.1-2.5-6.7l4.9 2.6c0 3.6 0.8 5.8 2.4 6.7" clip-path="url(#SVGID_16_)"/>
	<polyline points="12.9 75.7 8.1 73.1 13.2 72.4 18 75 12.9 75.7" fill="#BDBFC1"/>
	<polyline points="12.3 75.8 7.5 73.2 8.1 73.1 12.9 75.7 12.3 75.8" fill="#BDBFC1"/>
	<polyline points="7 89.3 2.2 86.7 2.2 81.8 7 84.4 7 89.3" fill="#95979A"/>
	<path stroke="#949698" stroke-width=".3" stroke-miterlimit="10" d="m23.7 74.2c3.6-0.5 5.4 1.9 5.4 7.1v5c0 5.2-1.8 8.1-5.5 8.6l-0.5 0.1-10.3 1.4-0.4 0.1c-3.7 0.5-5.4-1.9-5.4-7.2v-5c0-5.2 1.8-8.1 5.4-8.6l0.5-0.1 10.3-1.4h0.5m1 13.4v-6.4c0-1.7-0.4-2.5-1.3-2.3l-10.6 1.5h-0.3c-0.9 0.1-1.3 1-1.3 2.7v6.4c0 1.7 0.4 2.5 1.3 2.4h0.3l5.1-0.7 5.1-0.7h0.3c1-0.3 1.4-1.2 1.4-2.9" fill="#fff"/>
		<defs>
			<path id="SVGID_17_" d="m7 84.4l-4.8-2.6c0-5.2 1.8-8.1 5.4-8.6l4.8 2.6c-3.6 0.5-5.4 3.3-5.4 8.6"/>
		</defs>
		<clipPath id="SVGID_18_">
			<use overflow="visible" xlink:href="#SVGID_17_"/>
		</clipPath>
		<path fill="#949698" d="m7 84.4l-4.8-2.6c0-3.2 0.7-5.5 2-6.9l4.8 2.6c-1.4 1.4-2 3.7-2 6.9" clip-path="url(#SVGID_18_)"/>
		<polyline fill="#949699" points="8.9 77.5 4.1 74.9 4.4 74.6 9.2 77.2 8.9 77.5" clip-path="url(#SVGID_18_)"/>
		<polyline fill="#95979A" points="9.2 77.2 4.4 74.6 4.5 74.5 9.3 77.1 9.2 77.2" clip-path="url(#SVGID_18_)"/>
		<polyline fill="#96989B" points="9.3 77.1 4.5 74.5 4.6 74.4 9.4 77 9.3 77.1" clip-path="url(#SVGID_18_)"/>
		<polyline fill="#96989B" points="9.4 77 4.6 74.4 4.6 74.4 9.4 77 9.4 77" clip-path="url(#SVGID_18_)"/>
		<polyline fill="#97999B" points="9.4 77 4.6 74.4 4.7 74.3 9.5 76.9 9.4 77" clip-path="url(#SVGID_18_)"/>
		<polyline fill="#97999C" points="9.5 76.9 4.7 74.3 4.8 74.3 9.6 76.9 9.5 76.9" clip-path="url(#SVGID_18_)"/>
		<polyline fill="#989A9D" points="9.6 76.9 4.8 74.3 4.9 74.2 9.6 76.8 9.6 76.9" clip-path="url(#SVGID_18_)"/>
		<polyline fill="#989A9D" points="9.6 76.8 4.9 74.2 4.9 74.2 9.7 76.8 9.6 76.8" clip-path="url(#SVGID_18_)"/>
		<polyline fill="#999B9E" points="9.7 76.8 4.9 74.2 4.9 74.1 9.7 76.8 9.7 76.8" clip-path="url(#SVGID_18_)"/>
		<polyline fill="#9A9C9E" points="9.7 76.8 4.9 74.1 5 74.1 9.8 76.7 9.7 76.8" clip-path="url(#SVGID_18_)"/>
		<polyline fill="#9A9D9F" points="9.8 76.7 5 74.1 5 74.1 9.8 76.7 9.8 76.7" clip-path="url(#SVGID_18_)"/>
		<polyline fill="#9A9D9F" points="9.8 76.7 5 74.1 5.1 74.1 9.9 76.7 9.8 76.7" clip-path="url(#SVGID_18_)"/>
		<polyline fill="#9B9DA0" points="9.9 76.7 5.1 74.1 5.1 74 9.9 76.6 9.9 76.7" clip-path="url(#SVGID_18_)"/>
		<polyline fill="#9C9EA1" points="9.9 76.6 5.1 74 5.2 74 10 76.6 9.9 76.6" clip-path="url(#SVGID_18_)"/>
		<polyline fill="#9D9FA1" points="10 76.6 5.2 74 5.2 74 10 76.6 10 76.6" clip-path="url(#SVGID_18_)"/>
		<polyline fill="#9EA0A2" points="10 76.6 5.2 74 5.3 73.9 10 76.5 10 76.6" clip-path="url(#SVGID_18_)"/>
		<polyline fill="#9EA0A2" points="10.1 76.5 5.3 73.9 5.3 73.9 10.1 76.5 10.1 76.5" clip-path="url(#SVGID_18_)"/>
		<polyline fill="#9EA0A3" points="10.1 76.5 5.3 73.9 5.3 73.9 10.1 76.5 10.1 76.5" clip-path="url(#SVGID_18_)"/>
		<polyline fill="#9FA1A4" points="10.1 76.5 5.3 73.9 5.4 73.9 10.2 76.5 10.1 76.5" clip-path="url(#SVGID_18_)"/>
		<polyline fill="#A0A2A5" points="10.2 76.5 5.4 73.9 5.4 73.8 10.2 76.5 10.2 76.5" clip-path="url(#SVGID_18_)"/>
		<polyline fill="#A0A2A5" points="10.2 76.4 5.4 73.8 5.5 73.8 10.2 76.4 10.2 76.4" clip-path="url(#SVGID_18_)"/>
		<polyline fill="#A1A3A5" points="10.2 76.4 5.5 73.8 5.5 73.8 10.3 76.4 10.2 76.4" clip-path="url(#SVGID_18_)"/>
		<polyline fill="#A1A4A6" points="10.3 76.4 5.5 73.8 5.5 73.8 10.3 76.4 10.3 76.4" clip-path="url(#SVGID_18_)"/>
		<polyline fill="#A2A4A7" points="10.3 76.4 5.5 73.8 5.6 73.8 10.4 76.4 10.3 76.4" clip-path="url(#SVGID_18_)"/>
		<polyline fill="#A2A4A7" points="10.4 76.4 5.6 73.8 5.6 73.7 10.4 76.3 10.4 76.4" clip-path="url(#SVGID_18_)"/>
		<polyline fill="#A3A5A8" points="10.4 76.3 5.6 73.7 5.6 73.7 10.4 76.3 10.4 76.3" clip-path="url(#SVGID_18_)"/>
		<polyline fill="#A4A6A9" points="10.4 76.3 5.6 73.7 5.7 73.7 10.5 76.3 10.4 76.3" clip-path="url(#SVGID_18_)"/>
		<polyline fill="#A5A7A9" points="10.5 76.3 5.7 73.7 5.7 73.7 10.5 76.3 10.5 76.3" clip-path="url(#SVGID_18_)"/>
		<polyline fill="#A5A7A9" points="10.5 76.3 5.7 73.7 5.8 73.7 10.5 76.3 10.5 76.3" clip-path="url(#SVGID_18_)"/>
		<polyline fill="#A5A8AA" points="10.5 76.3 5.8 73.7 5.8 73.7 10.6 76.3 10.5 76.3" clip-path="url(#SVGID_18_)"/>
		<polyline fill="#A6A8AB" points="10.6 76.3 5.8 73.7 5.8 73.6 10.6 76.2 10.6 76.3" clip-path="url(#SVGID_18_)"/>
		<polyline fill="#A7A9AC" points="10.6 76.2 5.8 73.6 5.9 73.6 10.6 76.2 10.6 76.2" clip-path="url(#SVGID_18_)"/>
		<polyline fill="#A8AAAD" points="10.6 76.2 5.9 73.6 5.9 73.6 10.7 76.2 10.6 76.2" clip-path="url(#SVGID_18_)"/>
		<polyline fill="#A8AAAD" points="10.7 76.2 5.9 73.6 5.9 73.6 10.7 76.2 10.7 76.2" clip-path="url(#SVGID_18_)"/>
		<polyline fill="#A9ABAD" points="10.7 76.2 5.9 73.6 6 73.6 10.8 76.2 10.7 76.2" clip-path="url(#SVGID_18_)"/>
		<polyline fill="#A9ACAE" points="10.8 76.2 6 73.6 6 73.6 10.8 76.2 10.8 76.2" clip-path="url(#SVGID_18_)"/>
		<polyline fill="#AAACAF" points="10.8 76.2 6 73.6 6 73.5 10.8 76.2 10.8 76.2" clip-path="url(#SVGID_18_)"/>
		<polyline fill="#AAACAF" points="10.8 76.2 6 73.5 6.1 73.5 10.9 76.1 10.8 76.2" clip-path="url(#SVGID_18_)"/>
		<polyline fill="#ABADB0" points="10.9 76.1 6.1 73.5 6.1 73.5 10.9 76.1 10.9 76.1" clip-path="url(#SVGID_18_)"/>
		<polyline fill="#ACAEB0" points="10.9 76.1 6.1 73.5 6.1 73.5 10.9 76.1 10.9 76.1" clip-path="url(#SVGID_18_)"/>
		<polyline fill="#ADAFB1" points="10.9 76.1 6.1 73.5 6.2 73.5 11 76.1 10.9 76.1" clip-path="url(#SVGID_18_)"/>
		<polyline fill="#ADAFB1" points="11 76.1 6.2 73.5 6.2 73.5 11 76.1 11 76.1" clip-path="url(#SVGID_18_)"/>
		<polyline fill="#ADB0B2" points="11 76.1 6.2 73.5 6.2 73.5 11 76.1 11 76.1" clip-path="url(#SVGID_18_)"/>
		<polyline fill="#AEB0B3" points="11 76.1 6.2 73.5 6.3 73.5 11.1 76.1 11 76.1" clip-path="url(#SVGID_18_)"/>
		<polyline fill="#AFB1B4" points="11.1 76.1 6.3 73.5 6.3 73.4 11.1 76 11.1 76.1" clip-path="url(#SVGID_18_)"/>
		<polyline fill="#AFB1B4" points="11.1 76 6.3 73.4 6.4 73.4 11.1 76 11.1 76" clip-path="url(#SVGID_18_)"/>
		<polyline fill="#B0B2B4" points="11.1 76 6.4 73.4 6.4 73.4 11.2 76 11.1 76" clip-path="url(#SVGID_18_)"/>
		<polyline fill="#B1B3B5" points="11.2 76 6.4 73.4 6.4 73.4 11.2 76 11.2 76" clip-path="url(#SVGID_18_)"/>
		<polyline fill="#B2B4B6" points="11.2 76 6.4 73.4 6.5 73.4 11.2 76 11.2 76" clip-path="url(#SVGID_18_)"/>
		<polyline fill="#B2B4B7" points="11.2 76 6.5 73.4 6.5 73.4 11.3 76 11.2 76" clip-path="url(#SVGID_18_)"/>
		<polyline fill="#B2B4B7" points="11.3 76 6.5 73.4 6.5 73.4 11.3 76 11.3 76" clip-path="url(#SVGID_18_)"/>
		<polyline fill="#B3B5B8" points="11.3 76 6.5 73.4 6.6 73.4 11.4 76 11.3 76" clip-path="url(#SVGID_18_)"/>
		<polyline fill="#B4B6B8" points="11.4 76 6.6 73.4 6.6 73.3 11.4 76 11.4 76" clip-path="url(#SVGID_18_)"/>
		<polyline fill="#B5B7B9" points="11.4 76 6.6 73.3 6.6 73.3 11.4 75.9 11.4 76" clip-path="url(#SVGID_18_)"/>
		<polyline fill="#B5B7B9" points="11.4 75.9 6.6 73.3 6.7 73.3 11.5 75.9 11.4 75.9" clip-path="url(#SVGID_18_)"/>
		<polyline fill="#B6B8BA" points="11.5 75.9 6.7 73.3 6.7 73.3 11.5 75.9 11.5 75.9" clip-path="url(#SVGID_18_)"/>
		<polyline fill="#B6B8BB" points="11.5 75.9 6.7 73.3 6.8 73.3 11.5 75.9 11.5 75.9" clip-path="url(#SVGID_18_)"/>
		<polyline fill="#B7B9BC" points="11.5 75.9 6.8 73.3 6.8 73.3 11.6 75.9 11.5 75.9" clip-path="url(#SVGID_18_)"/>
		<polyline fill="#B7B9BC" points="11.6 75.9 6.8 73.3 6.8 73.3 11.6 75.9 11.6 75.9" clip-path="url(#SVGID_18_)"/>
		<polyline fill="#B8BABC" points="11.6 75.9 6.8 73.3 6.9 73.3 11.7 75.9 11.6 75.9" clip-path="url(#SVGID_18_)"/>
		<polyline fill="#B9BBBD" points="11.7 75.9 6.9 73.3 6.9 73.3 11.7 75.9 11.7 75.9" clip-path="url(#SVGID_18_)"/>
		<polyline fill="#BABCBE" points="11.7 75.9 6.9 73.3 6.9 73.3 11.7 75.9 11.7 75.9" clip-path="url(#SVGID_18_)"/>
		<polyline fill="#BABCBE" points="11.7 75.9 6.9 73.3 7 73.2 11.8 75.9 11.7 75.9" clip-path="url(#SVGID_18_)"/>
		<polyline fill="#BBBDBF" points="11.8 75.9 7 73.2 7 73.2 11.8 75.8 11.8 75.9" clip-path="url(#SVGID_18_)"/>
		<polyline fill="#BBBDC0" points="11.8 75.8 7 73.2 7.1 73.2 11.9 75.8 11.8 75.8" clip-path="url(#SVGID_18_)"/>
		<polyline fill="#BCBEC0" points="11.9 75.8 7.1 73.2 7.1 73.2 11.9 75.8 11.9 75.8" clip-path="url(#SVGID_18_)"/>
		<polyline fill="#BDBFC1" points="11.9 75.8 7.1 73.2 7.2 73.2 11.9 75.8 11.9 75.8" clip-path="url(#SVGID_18_)"/>
		<polyline fill="#BDBFC1" points="11.9 75.8 7.2 73.2 7.2 73.2 12 75.8 11.9 75.8" clip-path="url(#SVGID_18_)"/>
		<polyline fill="#BEC0C2" points="12 75.8 7.2 73.2 7.2 73.2 12 75.8 12 75.8" clip-path="url(#SVGID_18_)"/>
		<polyline fill="#BFC1C3" points="12 75.8 7.2 73.2 7.3 73.2 12.1 75.8 12 75.8" clip-path="url(#SVGID_18_)"/>
		<polyline fill="#C0C1C4" points="12.1 75.8 7.3 73.2 7.3 73.2 12.1 75.8 12.1 75.8" clip-path="url(#SVGID_18_)"/>
		<polyline fill="#C0C1C4" points="12.1 75.8 7.3 73.2 7.4 73.2 12.2 75.8 12.1 75.8" clip-path="url(#SVGID_18_)"/>
		<polyline fill="#C0C2C4" points="12.2 75.8 7.4 73.2 7.4 73.2 12.2 75.8 12.2 75.8" clip-path="url(#SVGID_18_)"/>
		<polyline fill="#C1C3C5" points="12.2 75.8 7.4 73.2 7.5 73.2 12.2 75.8 12.2 75.8" clip-path="url(#SVGID_18_)"/>
		<polyline fill="#C2C4C6" points="12.2 75.8 7.5 73.2 7.5 73.2 12.3 75.8 12.2 75.8" clip-path="url(#SVGID_18_)"/>
		<polyline fill="#C2C4C6" points="12.3 75.8 7.5 73.2 7.5 73.2 12.3 75.8 12.3 75.8" clip-path="url(#SVGID_18_)"/>
	<path d="m50.1 89.3c0 0.9-0.3 1.6-1.3 1.6-0.9 0-1.6-0.6-1.6-1.6v-7.2c0-0.3-0.6-0.6-1.6-0.6h-3.6c-1.3 0-1.9 0.3-1.9 0.6v7.2c0 0.9-0.3 1.6-1.3 1.6-0.9 0-1.6-0.6-1.6-1.6v-7.2c0-2.5 1.9-3.5 5-3.5h3.1c3.1 0 4.7 0.9 4.7 3.5v7.2m8.6-3.8c-0.9 0-1.3-0.3-1.3-0.9 0-0.9 0.3-1.3 1.3-1.3h5v-0.9c0-0.6-0.3-0.9-1.3-0.9h-4.3c-1.3 0-1.9 0.3-1.9 0.9v4.1c0 0.9 0.6 1.3 1.9 1.3h7.2c0.6 0 1.3 0.6 1.3 1.6 0 0.9-0.6 1.3-1.3 1.3h-6.6c-3.4 0-5-1.3-5-3.8v-4.4c0-2.5 1.6-3.8 5-3.8h3.4c2.8 0 4.4 0.9 4.4 3.5v2.5c0 0.6-0.6 0.9-1.3 0.9h-6.5zm13.8-4v7.8c0 0.9-0.3 1.6-1.3 1.6-0.9 0-1.6-0.6-1.6-1.6v-12.9c0-0.9 0.6-1.6 1.6-1.6 0.9 0 1.3 0.6 1.3 1.6v2.2h2.5c0.9 0 1.3 0.3 1.3 1.3 0 0.9-0.3 1.6-1.3 1.6h-2.5zm10.7 9.1c-3.4 0-5-1.3-5-3.8v-4.4c0-2.5 1.6-3.8 4.7-3.8h5.6c0.9 0 1.6 0.3 1.6 1.3 0 0.9-0.6 1.6-1.6 1.6h-6c-0.9 0-1.6 0.3-1.6 0.9v4.1c0 0.9 0.6 1.3 1.9 1.3h5.6c0.9 0 1.3 0.6 1.3 1.6 0 0.9-0.3 1.3-1.3 1.3h-5.2zm8.7-8.5c0-2.5 1.9-3.5 5-3.5h4.7c2.2 0 3.1 0.9 3.1 3.1v7.5c0 0.9-0.3 1.6-1.3 1.6-0.9 0-1.3-0.6-1.3-1.6v-7.5c0-0.3-0.3-0.3-0.6-0.3h-5c-1.3 0-1.9 0.3-1.9 0.9v4.1c0 0.9 0.6 1.3 1.6 1.3h3.8c0.9 0 1.3 0.6 1.3 1.6 0 0.9-0.3 1.3-1.3 1.3h-3.4c-3.1 0-4.7-1.3-4.7-3.8v-4.7zm26.4 7.2c0 0.9-0.3 1.6-1.3 1.6-0.9 0-1.6-0.6-1.6-1.6v-5.6c0-0.9 0.6-1.6 1.6-1.6 0.9 0 1.3 0.6 1.3 1.6v5.6zm-5.4-7.8c-1.3 0-1.9 0.3-1.9 0.9v6.9c0 0.9-0.6 1.6-1.6 1.6-0.9 0-1.3-0.6-1.3-1.6v-6.9c0-2.5 1.6-3.8 4.7-3.8h7.8c3.1 0 4.7 1.3 4.7 3.8v6.9c0 0.9-0.3 1.6-1.3 1.6-0.9 0-1.6-0.6-1.6-1.6v-6.9c0-0.6-0.6-0.9-1.9-0.9h-7.6zm15.4 0.6c0-2.5 1.6-3.5 5-3.5h4.7c2.2 0 3.1 0.9 3.1 3.1v7.5c0 0.9-0.3 1.6-1.3 1.6-0.9 0-1.6-0.6-1.6-1.6v-7.5c0-0.3 0-0.3-0.3-0.3h-5c-1.3 0-1.9 0.3-1.9 0.9v4.1c0 0.9 0.3 1.3 1.6 1.3h3.8c0.6 0 1.3 0.6 1.3 1.6 0 0.9-0.6 1.3-1.3 1.3h-3.8c-2.8 0-4.4-1.3-4.4-3.8v-4.7zm19.8-0.6c-0.6 0-0.6 0-0.6 0.6v7.2c0 0.9-0.6 1.6-1.6 1.6s-1.3-0.6-1.3-1.6v-7.5c0-2.2 0.9-3.1 3.4-3.1h1.9c0.6 0 1.3 0.3 1.3 1.3 0 0.9-0.6 1.6-1.3 1.6h-1.8zm4.7 0.6c0-2.5 1.9-3.5 5.3-3.5h4.4c2.2 0 3.4 0.9 3.4 3.1v7.5c0 0.9-0.6 1.6-1.6 1.6-0.9 0-1.3-0.6-1.3-1.6v-7.5c0-0.3-0.3-0.3-0.3-0.3h-5c-1.6 0-2.2 0.3-2.2 0.9v4.1c0 0.9 0.6 1.3 1.6 1.3h3.8c0.9 0 1.3 0.6 1.3 1.6 0 0.9-0.3 1.3-1.3 1.3h-3.4c-3.1 0-4.7-1.3-4.7-3.8v-4.7z" fill="#1794C5"/>
</svg>
