<?xml version="1.0" encoding="utf-8"?>
<!-- Generator: Adobe Illustrator 16.0.0, SVG Export Plug-In . SVG Version: 6.00 Build 0)  -->
<!DOCTYPE svg PUBLIC "-//W3C//DTD SVG 1.1//EN" "http://www.w3.org/Graphics/SVG/1.1/DTD/svg11.dtd">
<svg version="1.1" id="Layer_1" xmlns="http://www.w3.org/2000/svg" xmlns:xlink="http://www.w3.org/1999/xlink" x="0px" y="0px"
	 width="168px" height="168px" viewBox="0 0 168 168" enable-background="new 0 0 168 168" xml:space="preserve">
<g>
	<g>
		<path fill="#212A2F" d="M137.27,90.28c-1.295,0-2.312,0.555-3.33,1.827v-1.781l-0.139-0.046c-1.227,0.484-2.059,0.785-3.332,1.179
			v0.37c0.211-0.022,0.371-0.022,0.58-0.022c0.785,0,0.947,0.231,0.947,1.317v10.823c0,1.203-0.254,1.458-1.619,1.596v0.394h5.598
			v-0.417c-1.736-0.022-2.035-0.277-2.035-1.734v-3.63c0.832,0.763,1.363,0.994,2.336,0.994c2.752,0,4.855-2.591,4.855-5.943
			C141.131,92.338,139.512,90.28,137.27,90.28 M136.344,100.409c-1.086,0-2.404-0.832-2.404-1.526v-5.689
			c0-0.693,1.295-1.526,2.357-1.526c1.711,0,2.846,1.758,2.846,4.464C139.143,98.675,138.008,100.409,136.344,100.409"/>
		<path fill="#212A2F" d="M124.572,90.28c-3.121,0-5.203,2.149-5.203,5.364s2.197,5.505,4.994,5.505
			c3.123,0,5.205-2.358,5.205-5.573C129.568,92.385,127.395,90.28,124.572,90.28 M124.758,100.502c-0.832,0-1.574-0.416-2.082-1.156
			c-0.855-1.249-1.225-2.914-1.225-4.741c0-2.312,1.086-3.677,2.682-3.677c0.994,0,1.643,0.462,2.197,1.155
			c0.74,0.948,1.156,2.545,1.156,4.117C127.486,98.883,126.469,100.502,124.758,100.502"/>
		<path fill="#212A2F" d="M146.566,99.947c-0.855,0-1.203-0.602-1.203-2.082v-6.614h2.336v-0.74h-2.336v-2.683
			c0-0.231-0.045-0.301-0.16-0.301c-0.141,0.231-0.324,0.439-0.463,0.647c-0.879,1.272-1.643,2.128-2.244,2.476
			c-0.254,0.161-0.393,0.3-0.393,0.438c0,0.07,0.021,0.115,0.092,0.162h1.227v6.962c0,1.942,0.693,2.937,2.035,2.937
			c1.156,0,2.035-0.556,2.797-1.758l-0.299-0.255C147.445,99.738,147.076,99.947,146.566,99.947"/>
		<path fill="#212A2F" d="M152.371,98.489v-8.117l-0.092-0.092l-3.584,1.271v0.37c0.414-0.115,0.762-0.115,0.971-0.115
			c0.576,0,0.764,0.369,0.764,1.457v5.25c0,1.757-0.232,1.965-1.828,2.058v0.347h5.48v-0.347
			C152.557,100.456,152.371,100.201,152.371,98.489"/>
		<path fill="#212A2F" d="M151.191,87.481c0.693,0,1.203-0.51,1.203-1.18c0-0.647-0.51-1.179-1.18-1.179
			c-0.648,0-1.18,0.531-1.18,1.179C150.035,86.972,150.545,87.481,151.191,87.481"/>
		<path fill="#212A2F" d="M163.842,99.183l-2.959-4.532l1.918-2.775c0.439-0.624,1.133-0.994,1.875-1.017v-0.348h-3.654v0.348
			c0.693,0.046,0.924,0.185,0.924,0.508c0,0.277-0.346,0.694-0.855,1.504c-0.23,0.347-0.461,0.717-0.693,1.017
			c-0.092-0.161-0.207-0.3-0.324-0.462c-0.67-0.995-1.062-1.758-1.062-2.059c0-0.347,0.301-0.485,0.994-0.508v-0.348h-4.789v0.348
			h0.209c0.693,0,1.064,0.301,1.781,1.387l2.174,3.331l-2.637,3.815c-0.648,0.948-0.926,1.11-1.688,1.18v0.347h3.352v-0.347
			c-0.67,0-0.924-0.115-0.924-0.416c0-0.163,0.139-0.44,0.463-0.948l1.826-2.845l2.105,3.237c0.092,0.139,0.139,0.255,0.139,0.416
			c0,0.416-0.162,0.51-0.926,0.556v0.347h4.648v-0.347C165.021,100.571,164.49,100.178,163.842,99.183"/>
		<path fill="#34A1DA" d="M94.391,90.21c-3.121,0-5.203,2.151-5.203,5.366s2.197,5.504,4.996,5.504c3.121,0,5.203-2.359,5.203-5.573
			C99.387,92.314,97.213,90.21,94.391,90.21 M94.576,100.432c-0.832,0-1.572-0.416-2.08-1.155c-0.855-1.25-1.227-2.914-1.227-4.742
			c0-2.312,1.086-3.676,2.684-3.676c0.994,0,1.641,0.461,2.195,1.155c0.742,0.948,1.156,2.545,1.156,4.117
			C97.305,98.813,96.289,100.432,94.576,100.432"/>
		<path fill="#34A1DA" d="M106.557,90.21c-0.971,0-1.619,0.509-2.775,2.175v-2.129l-0.115-0.046
			c-1.227,0.485-2.059,0.81-3.424,1.249v0.37c0.324-0.069,0.531-0.092,0.811-0.092c0.578,0,0.785,0.37,0.785,1.387v5.781
			c0,1.156-0.162,1.319-1.643,1.597v0.347h5.551v-0.347c-1.57-0.07-1.965-0.416-1.965-1.734v-5.203c0-0.741,0.973-1.897,1.619-1.897
			c0.139,0,0.346,0.116,0.602,0.347c0.369,0.348,0.623,0.463,0.924,0.463c0.555,0,0.902-0.394,0.902-1.041
			C107.828,90.673,107.344,90.21,106.557,90.21"/>
		<path fill="#34A1DA" d="M116.594,98.813l-3.539-4.486l0.672-0.625c2.844-2.637,3.516-2.914,4.994-2.914v-0.347h-4.717v0.323
			c0.902,0.023,1.156,0.116,1.156,0.417c0,0.208-0.209,0.509-0.531,0.81l-3.168,2.821V85.1l-0.094-0.047
			c-0.902,0.277-1.504,0.463-2.891,0.833l-0.695,0.185v0.37c0.301-0.023,0.51-0.047,0.742-0.047c0.785,0,0.994,0.302,0.994,1.411
			v11.147c0,1.203-0.07,1.272-1.736,1.55v0.347h5.412v-0.347l-0.463-0.023c-0.924-0.047-1.27-0.37-1.27-1.18v-4.256l3.469,4.58
			c0.184,0.231,0.254,0.416,0.254,0.532c0,0.207-0.209,0.347-0.486,0.347h-0.439v0.347h5.041v-0.347
			C118.281,100.432,117.543,100.016,116.594,98.813"/>
		<path fill="#34A1DA" d="M54.174,98.883v-5.111c0-2.289-0.971-3.562-2.729-3.562c-1.063,0-2.128,0.509-3.33,1.873h-0.023V90.28
			l-0.185-0.07c-1.134,0.417-1.896,0.671-3.169,1.041v0.393c0.162-0.069,0.416-0.092,0.671-0.092c0.647,0,0.81,0.37,0.81,1.503v5.62
			c0,1.364-0.255,1.734-1.435,1.827v0.347h4.88v-0.347c-1.179-0.093-1.503-0.416-1.503-1.319v-6.382
			c1.064-1.041,1.619-1.318,2.382-1.318c1.134,0,1.688,0.693,1.688,2.336v4.602c0,1.527-0.277,1.989-1.434,2.082l-0.023,0.347h4.811
			v-0.347C54.452,100.387,54.174,100.132,54.174,98.883"/>
		<path fill="#34A1DA" d="M61.807,99.483c-1.064,0-1.92-0.415-2.567-1.271c-0.833-1.111-0.948-2.013-1.064-3.77h7.124
			c-0.093-1.25-0.324-1.99-0.787-2.637c-0.74-1.042-1.78-1.597-3.215-1.597c-2.913,0-4.787,2.359-4.787,5.62
			c0,3.191,1.665,5.25,4.395,5.25c2.312,0,3.932-1.342,4.833-3.862l-0.37-0.161C64.234,98.768,63.355,99.483,61.807,99.483
			 M60.673,91.043c1.526,0,2.013,0.786,2.267,2.659h-4.718C58.476,91.968,59.378,91.043,60.673,91.043"/>
		<path fill="#34A1DA" d="M70.756,99.877c-0.855,0-1.202-0.601-1.202-2.081v-6.614h2.336v-0.74h-2.336v-2.683
			c0-0.231-0.047-0.3-0.162-0.3c-0.139,0.23-0.323,0.438-0.462,0.646c-0.879,1.271-1.643,2.128-2.244,2.475
			c-0.254,0.162-0.393,0.301-0.393,0.439c0,0.069,0.022,0.115,0.092,0.162h1.227v6.961c0,1.943,0.693,2.938,2.034,2.938
			c1.156,0,2.035-0.555,2.799-1.757l-0.301-0.255C71.635,99.669,71.265,99.877,70.756,99.877"/>
		<path fill="#34A1DA" d="M85.627,90.788c0.785,0.162,1.018,0.324,1.018,0.694s-0.139,0.926-0.395,1.549l-2.08,5.135l-1.942-5.18
			c-0.277-0.718-0.394-0.995-0.394-1.389c0-0.485,0.254-0.647,1.342-0.81v-0.347H78.48v0.347c0.855,0.093,1.156,0.347,1.596,1.597
			l0.463,1.295l-2.104,4.602l-2.29-6.036c-0.093-0.231-0.139-0.462-0.139-0.693c0-0.486,0.255-0.671,1.064-0.764v-0.347h-4.163
			v0.347c0.531,0.047,0.74,0.208,1.226,1.457l3.122,7.91c0.277,0.716,0.463,1.017,0.602,1.017c0.115,0,0.3-0.301,0.578-0.901
			l2.59-5.551l2.104,5.458c0.348,0.879,0.394,0.994,0.556,0.994c0.161,0,0.277-0.208,0.647-1.133l3.191-8.001
			c0.369-0.926,0.484-1.088,0.947-1.25v-0.347h-2.844V90.788z"/>
		<path fill="#212A2F" d="M41.371,100.154c0,0.561-0.459,1.018-1.019,1.018H3.28c-0.561,0-1.019-0.457-1.019-1.018V63.082
			c0-0.561,0.458-1.019,1.019-1.019h37.072c0.56,0,1.019,0.458,1.019,1.019V100.154z"/>
		<path fill="#FFFFFF" d="M24.523,93.684c-0.376-0.079-0.729-0.143-1.077-0.229c-0.614-0.154-1.014-0.541-1.136-1.169
			c-0.068-0.352-0.12-0.713-0.121-1.07c-0.01-2.922,0.013-5.845-0.017-8.768c-0.008-0.809-0.097-1.627-0.251-2.421
			c-0.218-1.118-0.712-2.123-1.667-2.806c-1.349-0.965-2.837-1.009-4.363-0.521c-1.408,0.449-2.493,1.383-3.49,2.432
			c-0.116,0.122-0.229,0.246-0.4,0.428c0-0.943,0.001-1.798,0-2.652c0-0.484-0.119-0.561-0.573-0.408
			c-1.51,0.508-3.021,1.012-4.534,1.507c-0.572,0.187-0.576,0.173-0.507,0.773c0.001,0.01,0.008,0.019,0,0.002
			c0.368-0.035,0.724-0.086,1.082-0.097c0.728-0.021,1.127,0.292,1.257,1.005c0.071,0.395,0.117,0.799,0.118,1.198
			c0.01,3.128,0.008,6.257,0.002,9.386c0,0.485-0.021,0.97-0.056,1.453c-0.073,1.038-0.524,1.562-1.542,1.808
			c-0.258,0.062-0.521,0.095-0.785,0.142v0.569h8.142v-0.558c-0.415-0.08-0.812-0.138-1.198-0.238
			c-0.659-0.174-1.113-0.569-1.229-1.274c-0.035-0.212-0.051-0.431-0.051-0.645c-0.003-3.119-0.003-6.237-0.001-9.356
			c0.001-0.473-0.121-1.012,0.064-1.402c0.196-0.414,0.68-0.7,1.056-1.021c0.923-0.789,1.952-1.3,3.213-1.171
			c0.868,0.088,1.552,0.46,1.964,1.256c0.32,0.617,0.463,1.286,0.468,1.969c0.018,2.881,0.015,5.762,0.012,8.643
			c-0.001,0.401-0.026,0.805-0.072,1.204c-0.127,1.103-0.614,1.667-1.632,1.907c-0.218,0.051-0.442,0.074-0.682,0.114
			c-0.014,0.187-0.026,0.367-0.042,0.57h8.049V93.684z"/>
		<path fill="#34A1DA" d="M36.251,68.991h-4.026c-0.062,0.256-0.062,0.406,0.273,0.43c0.709,0.049,0.885,0.407,0.522,1.009
			c-0.202,0.336-0.421,0.661-0.637,0.988c-0.282,0.429-0.569,0.854-0.873,1.307c-0.123-0.165-0.232-0.287-0.314-0.427
			c-0.386-0.656-0.788-1.305-1.136-1.98c-0.245-0.478-0.085-0.751,0.441-0.875c0.175-0.041,0.358-0.05,0.543-0.073v-0.373H25.72
			v0.354c1.039,0.056,1.234,0.256,2.043,1.342c0.013,0.018,0.023,0.035,0.035,0.052c0.8,1.227,1.596,2.455,2.403,3.677
			c0.106,0.162,0.11,0.272-0.002,0.435c-0.979,1.404-1.946,2.817-2.922,4.224c-0.422,0.608-0.905,1.135-1.725,1.121v0.4h3.741
			c-0.007-0.144-0.014-0.262-0.02-0.367c-0.251-0.036-0.469-0.045-0.675-0.101c-0.338-0.092-0.427-0.285-0.284-0.607
			c0.095-0.216,0.207-0.426,0.334-0.625c0.669-1.053,1.346-2.101,2.021-3.149c0.035-0.056,0.085-0.102,0.146-0.174
			c0.584,0.898,1.151,1.771,1.718,2.644c0.219,0.336,0.451,0.666,0.653,1.014c0.263,0.45,0.097,0.813-0.407,0.921
			c-0.157,0.034-0.32,0.043-0.489,0.063v0.38h5.158c0.039-0.365,0.038-0.361-0.277-0.409c-0.11-0.017-0.222-0.048-0.326-0.088
			c-0.512-0.197-0.891-0.567-1.185-1.009c-1.158-1.741-2.295-3.498-3.452-5.242c-0.128-0.192-0.113-0.312,0.01-0.488
			c0.653-0.927,1.294-1.862,1.938-2.795c0.411-0.596,0.974-0.967,1.674-1.132c0.137-0.033,0.277-0.043,0.421-0.064V68.991z"/>
	</g>
</g>
</svg>
