<?xml version="1.0" encoding="utf-8"?>
<!-- Generator: Adobe Illustrator 19.2.1, SVG Export Plug-In . SVG Version: 6.00 Build 0)  -->
<svg version="1.1" id="圖層_1" xmlns="http://www.w3.org/2000/svg" xmlns:xlink="http://www.w3.org/1999/xlink" x="0px" y="0px"
	 viewBox="0 0 586 586" style="enable-background:new 0 0 586 586;" xml:space="preserve">
<style type="text/css">
	.st0{fill:#0A93D5;}
	.st1{fill:#00247C;}
</style>
<path class="st0" d="M34.8,251c5.1-8.2,14.5-13.6,24.2-13.3c16,0.1,32,0,48,0c14,0.7,26.1,13.3,26.3,27.4c0.1,15.7,0,31.3,0,47
	c0,9.8-5.5,19.4-14,24.4c-5.6,3.5-12.3,4.2-18.7,3.8c0.7-16-3.9-32.3-13.9-44.8c-13-17-34.8-26.4-56.1-25
	C30.3,263.7,31,256.7,34.8,251z"/>
<path class="st1" d="M164.1,245.1c4.5-2.3,9.6-1.7,14.5-1.6c5.9,0.3,12.4,4.2,13.4,10.4c0.4,6.3-0.2,12.7,0.2,19
	c0.7,3.8,5,5.9,8.6,6.1c4.2,0.2,9.1,0.5,12.3-2.8c2.1-1.7,2.3-4.6,2.3-7.1c-0.1-8.6,0-17.1-0.1-25.7c2,0,4,0,6,0
	c-0.1,9.5,0.1,19.1,0,28.6c0.1,4.3-3.2,7.7-6.8,9.6c-4.6,2.5-10,2.1-15.1,1.9c-5.6-0.5-11.8-3.9-13.2-9.7
	c-0.8-6.8,0.4-13.8-0.6-20.6c-2.3-5.4-8.9-5.6-13.8-5.2c-4.3,0-9.3,3.1-8.8,7.8c0,9.2,0,18.5,0,27.7c-2.1,0-4.1,0-6.2,0
	c0.1-9.6,0-19.1,0-28.7C156.7,250.4,160.4,246.9,164.1,245.1z"/>
<path class="st1" d="M298.4,243.4c1.9,0,3.8,0,5.8,0c0,8.5-0.1,16.9,0,25.4c0,5,4.7,9.4,9.7,9c11.4,0,22.8,0,34.1,0
	c4.6,0.1,9.2-4,8.9-8.7c0-8.6,0-17.1,0-25.7c2,0,4,0,6,0c0,8.6,0,17.1,0,25.7c0,7.4-6.4,14.4-13.9,14.5c-12,0.1-24.1,0-36.1,0
	c-7.6,0.1-14.4-6.6-14.5-14.2C298.3,260.7,298.5,252.1,298.4,243.4z"/>
<path class="st1" d="M506,243.4c2,0,4,0,6,0c0,8.6,0,17.1,0,25.7c-0.1,4.7,4.3,8.9,9,8.7c14.2,0,28.4,0,42.6,0c0,1.9,0,3.9,0,5.8
	c-14.5-0.1-29.1,0-43.6-0.1c-7.5-0.1-13.9-7-14-14.4C506,260.6,506,252,506,243.4z"/>
<path class="st1" d="M229.3,256.5c0.5-7.4,7-14.1,14.6-13.7c13.3,0.5,26.6,1.1,40,1.6c6,0.1,10.8,6.2,10.1,12
	c0,6.1-6,11.3-11.9,10.8c-14.2-0.5-28.4-1.1-42.7-1.7c0.1-1.9,0.2-3.8,0.2-5.7c13.9,0.6,27.8,1.1,41.6,1.7c2.7,0.2,5.6-1.1,6.7-3.7
	c1.5-3.4-1.5-7.9-5.2-7.7c-12.7-0.5-25.4-1-38.1-1.5c-4.6-0.5-9.2,3.6-9.2,8.3c-0.3,3.8-0.4,7.6-0.5,11.4c-0.2,4.6,3.9,8.9,8.4,8.9
	c15.4,0.7,30.9,1.2,46.3,1.9c-0.1,1.9-0.2,3.8-0.2,5.7c-15.4-0.6-30.8-1.2-46.3-1.9c-6.5,0-12.4-5-13.8-11.3
	C228.3,266.7,229.2,261.5,229.3,256.5z"/>
<path class="st1" d="M370.9,257c0.5-7.5,7.4-14.1,15.1-13.6c14.2,0,28.4,0,42.6,0c0,1.9,0,3.9,0,5.8c-14.2,0-28.5,0-42.7,0
	c-4.7-0.2-9,3.9-9.2,8.5c-0.2,8.6,0,17.3-0.1,25.9c-1.9,0-3.9,0-5.8,0C370.9,274.7,370.7,265.8,370.9,257z"/>
<path class="st1" d="M433.7,258c-0.2-7.6,6.7-14.7,14.3-14.5c12,0,24,0,36,0c7.6-0.1,14.3,7,14.1,14.6c0,8.5,0,17,0,25.6
	c-1.9,0-3.9,0-5.8,0c0-8.5,0.1-17.1,0-25.6c0-4.9-4.5-9.2-9.4-8.9c-11.7,0-23.4,0-35.1,0c-5,0-8.9,4.9-8.6,9.7
	c0.1,4.1-0.5,8.4,0.5,12.4c1.1,3.9,5,6.8,9.1,6.5c11.8,0,23.6,0,35.4,0c0,1.9,0,3.8,0,5.8c-12.1,0-24.2,0-36.3,0
	c-7.7,0.1-14.5-6.9-14.4-14.6C433.6,265.3,433.6,261.6,433.7,258z"/>
<path class="st1" d="M46.1,296.1c13.5-2.2,27.2,9.2,27.2,22.9c0.9,11.7-8.1,22.9-19.6,24.8C44.3,345.7,34,341.2,29,333
	c-5-7.9-5-18.9,0.5-26.6C33.2,300.8,39.5,297,46.1,296.1z"/>
<path class="st1" d="M156.8,300.4c1.9,0,3.9,0,5.8,0c0,8.5-0.1,17.1,0,25.6c0.1,4.8,4.5,9.1,9.3,8.9c14.1,0,28.3,0,42.4,0
	c0,1.9,0,3.8,0,5.8c-14.4,0-28.9,0-43.3,0c-7.6,0.1-14.3-7-14.2-14.5C156.8,317.5,156.9,309,156.8,300.4z"/>
<path class="st1" d="M219,314.9c0.1-7.4,6.4-14.4,13.9-14.5c12-0.1,24.1,0,36.1,0c7.5-0.3,14.4,6.4,14.5,13.8c0.1,8.8,0,17.6,0,26.4
	c-1.9,0-3.9,0-5.8,0c0-8.6,0.1-17.1,0-25.6c0-4.6-4.2-8.8-8.8-8.8c-11.7,0-23.4,0-35,0c-4.6-0.2-9.1,4-9,8.7
	c-0.1,3.8-0.1,7.5,0,11.3c-0.1,4.6,4.3,8.8,8.9,8.6c12,0,24,0,36.1,0c0,1.9,0,3.8,0,5.7c-12,0-24,0-36,0
	c-6.4,0.3-12.5-4.4-14.2-10.5C218.4,325.2,219.1,320,219,314.9z"/>
<path class="st1" d="M361.9,316.9c-3.9-7.1,2-16.9,10.2-16.4c16.6,0,33.3,0,49.9,0c0,1.9,0,3.8,0,5.7c-16.7,0-33.3,0-50,0
	c-3.7-0.1-6.6,4.3-5.1,7.6c0.9,2.4,3.5,4,6.1,3.8c13.7,0,27.3,0,40.9,0c6.1-0.3,11.5,5.3,11.4,11.3c0.4,6.1-5.2,12-11.4,11.6
	c-17.7,0-35.4,0-53.2,0c0-1.9,0-3.8,0-5.7c17.7,0,35.5,0,53.2,0c4.1,0.2,7.1-5.2,4.7-8.5c-1-2.1-3.5-3-5.8-2.9c-13.7,0-27.3,0-41,0
	C367.7,323.4,363.7,320.7,361.9,316.9z"/>
<path class="st1" d="M341.2,308c-11.4,0-22.9,0-34.3,0c-3.5,0-6.9,1.2-9.9,3c0-5.2,0-10.4,0-15.6c-2,0-4,0-6,0
	c0,8.2,0,16.4-0.1,24.5c0.2,4.5,0.8,9.1,2.6,13.2c2.1,4.7,7.3,7.5,12.4,7.4c11.8,0,23.5,0,35.2,0c2.6,0,5.3-0.6,7.5-2
	c5.4-3,6.7-9.8,7-15.5C356.1,315.1,349,308.1,341.2,308z M349.9,324.1c-0.4,3.2-0.9,6.9-3.7,9.1c-2.5,2.2-6,1.6-9.1,1.7
	c-10.9-0.1-21.8,0.2-32.8-0.2c-5.4-0.8-7.1-7-7.1-11.7c-0.4-3.6,2.2-6.8,5.3-8.3c1.7-0.8,3.7-0.6,5.5-0.7c11,0.1,22,0,33.1,0
	C346.2,313.7,350.8,319,349.9,324.1z"/>
</svg>
