<?xml version="1.0" encoding="utf-8"?>
<!-- Generator: Adobe Illustrator 16.0.0, SVG Export Plug-In . SVG Version: 6.00 Build 0)  -->
<!DOCTYPE svg PUBLIC "-//W3C//DTD SVG 1.1//EN" "http://www.w3.org/Graphics/SVG/1.1/DTD/svg11.dtd">
<svg version="1.1" id="Layer_1" xmlns="http://www.w3.org/2000/svg" xmlns:xlink="http://www.w3.org/1999/xlink" x="0px" y="0px"
	 width="168px" height="168px" viewBox="0 0 168 168" enable-background="new 0 0 168 168" xml:space="preserve">
<g>
	<path d="M97.4,90.6c-0.4,2.6-1,4.5-1.8,5.9c-1.5,2.4-3.6,3.6-6.3,3.6c-2.6,0-4.7-1.2-6.2-3.7c-1.5-2.5-2.3-6.6-2.3-12.2
		c0-5.7,0.8-9.8,2.3-12.3c1.5-2.5,3.6-3.7,6.1-3.7c2.6,0,4.7,1.2,6.3,3.7c0.9,1.4,1.5,3.4,1.9,5.8h12.7c-0.7-6.2-2.4-11.2-5.2-15.1
		c-3.7-5-8.9-7.5-15.7-7.5c-6.6,0-11.8,2.6-15.5,7.7c-3.7,5.1-5.6,12.3-5.6,21.4c0,6.6,0.9,12,2.8,16.4s4.3,7.6,7.3,9.6
		c3,2,6.8,3,11.4,3c4.5,0,8.3-1.2,11.3-3.5c3-2.3,5.3-5.6,6.9-9.8c1-2.6,1.7-5.7,2.1-9.2L97.4,90.6L97.4,90.6z"/>
	<path d="M2.4,54.9H14L29.1,87V54.9h11.7V113H29.1l-15-31.9V113H2.4V54.9z"/>
	<path d="M49.5,54.9H62V113H49.5V54.9z"/>
	<path d="M114.4,54.9h33.2v12.4h-20.8v9.2h19.3v11.9h-19.3v11.5h21.4V113h-33.8V54.9z"/>
	<rect x="36.3" y="77.1" fill="#0067AD" width="13.2" height="13.2"/>
	<rect x="62" y="77.1" fill="#0067AD" width="13.2" height="13.2"/>
	<rect x="109.9" y="77.1" fill="#0067AD" width="13.2" height="13.2"/>
	<g>
		<path d="M155.9,66.1V59h3c0.8,0,1.3,0.1,1.6,0.2c0.3,0.1,0.6,0.4,0.8,0.7s0.3,0.7,0.3,1.1c0,0.5-0.2,1-0.5,1.3
			c-0.3,0.3-0.8,0.6-1.4,0.7c0.3,0.2,0.6,0.4,0.8,0.6c0.2,0.2,0.5,0.6,0.8,1.1l0.9,1.4h-1.7l-1-1.5c-0.4-0.5-0.6-0.9-0.8-1
			c-0.1-0.1-0.3-0.2-0.4-0.3c-0.2-0.1-0.4-0.1-0.7-0.1h-0.3v3L155.9,66.1L155.9,66.1z M157.3,62h1.1c0.7,0,1.1,0,1.3-0.1
			c0.2-0.1,0.3-0.2,0.4-0.3c0.1-0.1,0.1-0.3,0.1-0.5c0-0.2-0.1-0.4-0.2-0.6c-0.1-0.1-0.3-0.2-0.5-0.3c-0.1,0-0.5,0-1,0h-1.1V62
			L157.3,62z"/>
	</g>
	<ellipse fill="none" stroke="#000000" cx="158.8" cy="62.6" rx="6.7" ry="6.7"/>
</g>
</svg>
