<?xml version="1.0" encoding="UTF-8" standalone="no"?>
<!-- Generator: Adobe Illustrator 16.0.0, SVG Export Plug-In . SVG Version: 6.00 Build 0)  -->
<!DOCTYPE svg  PUBLIC '-//W3C//DTD SVG 1.1//EN'  'http://www.w3.org/Graphics/SVG/1.1/DTD/svg11.dtd' [
	<!ENTITY st0 "font-family:'HelveticaNeueOTS';">
	<!ENTITY st1 "fill:#221E1F;">
	<!ENTITY st2 "font-size:9.602;">
	<!ENTITY st3 "letter-spacing:1;">
	<!ENTITY st4 "fill:#6D7071;">
]>
<svg id="Layer_1" style="enable-background:new 0 0 168 168" xmlns="http://www.w3.org/2000/svg" xml:space="preserve" height="168px" viewBox="0 0 168 168" width="168px" version="1.1" y="0px" x="0px" xmlns:xlink="http://www.w3.org/1999/xlink">
		<path d="m57.1 95.4c8.2 0 14.9-6.6 14.9-14.9v-23.4h-8.4v23.4c0 3.6-2.9 6.5-6.4 6.5-3.6 0-6.5-2.9-6.5-6.5v-23.4h-8.4v23.4c-0.1 8.2 6.6 14.9 14.8 14.9" fill="#221E1F"/>
		<path d="m19.8 57.1c8.2 0 14.9 6.6 14.9 14.9v23.4h-8.4v-23.5c0-3.6-2.9-6.5-6.4-6.5-3.6 0-6.5 2.9-6.5 6.5v23.4h-8.4v-23.4c0-8.2 6.6-14.8 14.8-14.8" fill="#221E1F"/>
		<path d="m94.7 95.4c8.2 0 14.9-6.6 14.9-14.9v-23.4h-8.4v23.4c0 3.6-2.9 6.5-6.5 6.5s-6.4-2.9-6.4-6.5v-23.4h-8.4v23.4c0 8.2 6.6 14.9 14.8 14.9" fill="#221E1F"/>
		<path d="m136 86.7c-5.8 0-10.5-4.7-10.5-10.5s4.7-10.5 10.5-10.5 10.5 4.7 10.5 10.5c0 5.7-4.7 10.5-10.5 10.5m0-29.8c-10.6 0-19.3 8.6-19.3 19.3 0 10.6 8.6 19.3 19.3 19.3 10.6 0 19.3-8.6 19.3-19.3s-8.6-19.3-19.3-19.3" fill="#221E1F"/>
		<path d="m162.4 58.8c-0.4-0.6-0.8-1.1-1.5-1.5-0.6-0.3-1.3-0.5-1.9-0.5-0.7 0-1.3 0.2-1.9 0.5s-1.1 0.8-1.5 1.5c-0.4 0.6-0.5 1.3-0.5 2s0.2 1.3 0.5 2c0.3 0.6 0.8 1.1 1.5 1.5 0.6 0.3 1.3 0.5 2 0.5s1.3-0.2 2-0.5c0.6-0.3 1.1-0.8 1.5-1.5 0.3-0.6 0.5-1.3 0.5-2-0.2-0.7-0.3-1.3-0.7-2m-0.6 3.7c-0.3 0.5-0.7 0.9-1.2 1.2s-1.1 0.4-1.6 0.4c-0.6 0-1.1-0.1-1.6-0.4s-0.9-0.7-1.2-1.2-0.4-1.1-0.4-1.6c0-0.6 0.1-1.1 0.4-1.7 0.3-0.5 0.7-0.9 1.2-1.2s1.1-0.4 1.6-0.4c0.6 0 1.1 0.1 1.6 0.4s0.9 0.7 1.2 1.2 0.4 1.1 0.4 1.7c0.1 0.5-0.1 1-0.4 1.6m-2.2-1.2c-0.1-0.1-0.2-0.2-0.4-0.2 0.4 0 0.7-0.2 0.9-0.4s0.3-0.5 0.3-0.8c0-0.2-0.1-0.4-0.2-0.6s-0.3-0.3-0.5-0.4-0.6-0.1-1.1-0.1h-1.5v4.3h0.7v-1.8h0.4c0.2 0 0.4 0 0.6 0.1s0.4 0.5 0.7 1l0.4 0.7h0.8l-0.5-0.8c-0.2-0.6-0.4-0.9-0.6-1m-0.9-0.8h-0.8v-1.3h0.8c0.3 0 0.6 0 0.7 0.1 0.1 0 0.2 0.1 0.3 0.2s0.1 0.2 0.1 0.3c0 0.2-0.1 0.4-0.2 0.5-0.2 0.2-0.5 0.2-0.9 0.2" fill="#221E1F"/>
		<text font-size="9.602" font-family="&apos;HelveticaNeueOTS&apos;" transform="translate(5.4731 108.36)" fill="#6D7071"><tspan y="0" x="0">T</tspan><tspan style="letter-spacing:1" y="0" x="4.4">ru</tspan><tspan style="letter-spacing:1" y="0" x="15.7">st</tspan><tspan style="letter-spacing:1" y="0" x="25.1">e</tspan><tspan style="letter-spacing:1" y="0" x="32.6">d </tspan><tspan style="letter-spacing:1" y="0" x="44.1">V</tspan><tspan style="letter-spacing:1" y="0" x="51.9">i</tspan><tspan style="letter-spacing:1" y="0" x="55.1">d</tspan><tspan style="letter-spacing:1" y="0" x="62.9">eo</tspan><tspan style="letter-spacing:1" y="0" x="77.9"> </tspan><tspan style="letter-spacing:1" y="0" x="81.5">Managemen</tspan><tspan y="0" x="154.3">t</tspan></text>
</svg>
