<?xml version="1.0" encoding="UTF-8" standalone="no"?>
<!-- Generator: Adobe Illustrator 16.0.0, SVG Export Plug-In . SVG Version: 6.00 Build 0)  -->
<!DOCTYPE svg  PUBLIC '-//W3C//DTD SVG 1.1//EN'  'http://www.w3.org/Graphics/SVG/1.1/DTD/svg11.dtd'>
<svg id="Ebene_1" xmlns="http://www.w3.org/2000/svg" xml:space="preserve" height="168px" viewBox="0 0 168 168" width="168px" version="1.1" y="0px" x="0px" xmlns:xlink="http://www.w3.org/1999/xlink" enable-background="new 0 0 168 168">
	<line y2="68" x1="170.2" x2="-1.2" stroke="#000018" y1="68" stroke-width=".5" fill="none"/>
	<line y2="100.2" x1="170.2" x2="-1.2" stroke="#000018" y1="100.2" stroke-width=".5" fill="none"/>
	<path d="m86 93.1c-4.5 0-7.3-3.7-7.3-9s2.9-9 7.3-9c4.5 0 7.4 3.7 7.4 9s-2.9 9-7.4 9m0-15.3c-3 0-4.7 2.5-4.7 6.3s1.7 6.4 4.7 6.4c3.1 0 4.7-2.5 4.7-6.4s-1.7-6.3-4.7-6.3" fill="#000018"/>
	<path d="m104.1 92.8v-7.4c0-2.6-1-3.6-2.7-3.6s-2.7 1.2-2.7 3.3v7.6h-2.6v-13h2.6v1.3c0.6-0.9 1.9-1.5 3.3-1.5 3 0 4.6 2 4.6 5.8v7.5h-2.5z" fill="#000018"/>
	<path d="m115.4 93.1c-2.5 0-4.7-1.1-6.2-2.8l1.9-1.8c1.2 1.3 2.9 2.1 4.5 2.1 2.4 0 3.6-0.8 3.6-2.5 0-1.3-1-2-3.9-2.9-3.7-1.1-5.4-2-5.4-5.1 0-3 2.5-4.8 5.7-4.8 2.4 0 4.1 0.9 5.7 2.4l-1.8 1.9c-1.1-1.1-2.3-1.7-4-1.7-2 0-2.9 1-2.9 2.2s0.8 1.8 3.8 2.7c3.4 1 5.6 2.1 5.6 5.2-0.2 3-2.2 5.1-6.6 5.1" fill="#4E89BD"/>
	<path d="m130.1 93.1c-2.5 0-4.7-1.1-6.2-2.8l1.9-1.8c1.2 1.3 2.9 2.1 4.5 2.1 2.4 0 3.6-0.8 3.6-2.5 0-1.3-1-2-3.9-2.9-3.7-1.1-5.4-2-5.4-5.1 0-3 2.5-4.8 5.7-4.8 2.4 0 4.1 0.9 5.7 2.4l-1.8 1.9c-1.1-1.1-2.3-1.7-4-1.7-2 0-2.9 1-2.9 2.2s0.8 1.8 3.8 2.7c3.4 1 5.6 2.1 5.6 5.2-0.2 3-2.2 5.1-6.6 5.1" fill="#4E89BD"/>
	<rect y="75.5" x="140" height="17.4" width="2.6" fill="#4E89BD"/>
	<path d="m47 76.4c-4.2 0-7.7 3.4-7.7 7.6s3.4 7.6 7.7 7.6c4.2 0 7.6-3.4 7.6-7.6 0.1-4.2-3.3-7.6-7.6-7.6" fill="#000018"/>
	<path d="m52.8 84c0 3.2-2.6 5.7-5.7 5.7-3.2 0-5.7-2.6-5.7-5.7 0-3.2 2.6-5.7 5.7-5.7s5.7 2.5 5.7 5.7" fill="#BED2E8"/>
	<path d="m62 84.9c-0.1 0.1-0.2 0.1-0.3 0.2-1.5 0.9-2.8 1.9-4.1 2.9-3.1 2.4-6.1 4.7-10.6 4.7-4.6 0-7.5-2.3-10.6-4.7-3.4-2.6-6.9-5.3-12.5-5.3h-3.5v2.6h3.5c4.6 0 7.6 2.5 10.7 5 3.4 2.6 6.9 5.3 12.4 5.3s9-2.7 12.4-5.3c1.3-1 2.5-1.9 3.8-2.7 0.8-0.5 1.6-0.9 2.4-1.2-1.3-0.5-2.5-1-3.6-1.5" fill="#000018"/>
	<path d="m31.9 83.2c0.1-0.1 0.2-0.1 0.3-0.2 1.5-0.9 2.8-1.9 4.1-2.9 3.1-2.4 6.1-4.7 10.6-4.7s7.5 2.3 10.6 4.7c3.4 2.6 6.9 5.2 12.5 5.2h3.5v-2.6h-3.5c-4.6 0-7.6-2.5-10.7-4.9-3.4-2.6-6.9-5.3-12.4-5.3-5.6 0-9 2.7-12.4 5.3-1.3 1-2.5 1.9-3.8 2.7-0.8 0.5-1.6 0.9-2.4 1.2 1.4 0.4 2.5 0.9 3.6 1.5" fill="#000018"/>
	<path d="m49.9 84c0 1.6-1.3 2.9-2.9 2.9s-2.9-1.3-2.9-2.9 1.3-2.9 2.9-2.9 2.9 1.3 2.9 2.9" fill="#000018"/>
	<line y2="100" x1="20.4" x2="20.4" stroke="#000018" y1="68.1" stroke-width=".295" fill="none"/>
		<line y2="100" x1="9.8" x2="9.8" stroke="#000018" stroke-linecap="round" stroke-dasharray="3.000000e-02,0.62" y1="68.1" stroke-width=".295" fill="none"/>
	<line y2="100" x1="73.6" x2="73.6" stroke="#000018" y1="68.1" stroke-width=".295" fill="none"/>
	<line y2="100" x1="148.1" x2="148.1" stroke="#000018" y1="68.1" stroke-width=".295" fill="none"/>
		<line y2="100" x1="158.7" x2="158.7" stroke="#000018" stroke-linecap="round" stroke-dasharray="3.000000e-02,0.62" y1="68.1" stroke-width=".295" fill="none"/>
</svg>
