<?xml version="1.0" encoding="utf-8"?>
<!-- Generator: Adobe Illustrator 16.0.0, SVG Export Plug-In . SVG Version: 6.00 Build 0)  -->
<!DOCTYPE svg PUBLIC "-//W3C//DTD SVG 1.1//EN" "http://www.w3.org/Graphics/SVG/1.1/DTD/svg11.dtd">
<svg version="1.1" id="Ebene_1" xmlns="http://www.w3.org/2000/svg" xmlns:xlink="http://www.w3.org/1999/xlink" x="0px" y="0px"
	 width="168px" height="168px" viewBox="0 0 168 168" enable-background="new 0 0 168 168" xml:space="preserve">
<g>
	<line fill="none" stroke="#000018" stroke-width="0.5" x1="170.2" y1="68" x2="-1.2" y2="68"/>
	<line fill="none" stroke="#000018" stroke-width="0.5" x1="170.2" y1="100.2" x2="-1.2" y2="100.2"/>
	<path fill="#000018" d="M86,93.1c-4.5,0-7.3-3.7-7.3-9s2.9-9,7.3-9c4.5,0,7.4,3.7,7.4,9S90.5,93.1,86,93.1 M86,77.8
		c-3,0-4.7,2.5-4.7,6.3s1.7,6.4,4.7,6.4c3.1,0,4.7-2.5,4.7-6.4S89,77.8,86,77.8"/>
	<path fill="#000018" d="M104.1,92.8v-7.4c0-2.6-1-3.6-2.7-3.6c-1.7,0-2.7,1.2-2.7,3.3v7.6h-2.6v-13h2.6V81c0.6-0.9,1.9-1.5,3.3-1.5
		c3,0,4.6,2,4.6,5.8v7.5H104.1z"/>
	<path fill="#4E89BD" d="M115.4,93.1c-2.5,0-4.7-1.1-6.2-2.8l1.9-1.8c1.2,1.3,2.9,2.1,4.5,2.1c2.4,0,3.6-0.8,3.6-2.5
		c0-1.3-1-2-3.9-2.9c-3.7-1.1-5.4-2-5.4-5.1c0-3,2.5-4.8,5.7-4.8c2.4,0,4.1,0.9,5.7,2.4l-1.8,1.9c-1.1-1.1-2.3-1.7-4-1.7
		c-2,0-2.9,1-2.9,2.2c0,1.2,0.8,1.8,3.8,2.7c3.4,1,5.6,2.1,5.6,5.2C121.8,91,119.8,93.1,115.4,93.1"/>
	<path fill="#4E89BD" d="M130.1,93.1c-2.5,0-4.7-1.1-6.2-2.8l1.9-1.8c1.2,1.3,2.9,2.1,4.5,2.1c2.4,0,3.6-0.8,3.6-2.5
		c0-1.3-1-2-3.9-2.9c-3.7-1.1-5.4-2-5.4-5.1c0-3,2.5-4.8,5.7-4.8c2.4,0,4.1,0.9,5.7,2.4l-1.8,1.9c-1.1-1.1-2.3-1.7-4-1.7
		c-2,0-2.9,1-2.9,2.2c0,1.2,0.8,1.8,3.8,2.7c3.4,1,5.6,2.1,5.6,5.2C136.5,91,134.5,93.1,130.1,93.1"/>
	<rect x="140" y="75.5" fill="#4E89BD" width="2.6" height="17.4"/>
	<path fill="#000018" d="M47,76.4c-4.2,0-7.7,3.4-7.7,7.6c0,4.2,3.4,7.6,7.7,7.6c4.2,0,7.6-3.4,7.6-7.6C54.7,79.8,51.3,76.4,47,76.4
		"/>
	<path fill="#BED2E8" d="M52.8,84c0,3.2-2.6,5.7-5.7,5.7c-3.2,0-5.7-2.6-5.7-5.7c0-3.2,2.6-5.7,5.7-5.7C50.2,78.3,52.8,80.8,52.8,84
		"/>
	<path fill="#000018" d="M62,84.9c-0.1,0.1-0.2,0.1-0.3,0.2c-1.5,0.9-2.8,1.9-4.1,2.9c-3.1,2.4-6.1,4.7-10.6,4.7
		c-4.6,0-7.5-2.3-10.6-4.7c-3.4-2.6-6.9-5.3-12.5-5.3h-3.5v2.6h3.5c4.6,0,7.6,2.5,10.7,5c3.4,2.6,6.9,5.3,12.4,5.3
		c5.5,0,9-2.7,12.4-5.3c1.3-1,2.5-1.9,3.8-2.7c0.8-0.5,1.6-0.9,2.4-1.2C64.3,85.9,63.1,85.4,62,84.9"/>
	<path fill="#000018" d="M31.9,83.2c0.1-0.1,0.2-0.1,0.3-0.2c1.5-0.9,2.8-1.9,4.1-2.9c3.1-2.4,6.1-4.7,10.6-4.7
		c4.5,0,7.5,2.3,10.6,4.7c3.4,2.6,6.9,5.2,12.5,5.2h3.5v-2.6h-3.5c-4.6,0-7.6-2.5-10.7-4.9c-3.4-2.6-6.9-5.3-12.4-5.3
		c-5.6,0-9,2.7-12.4,5.3c-1.3,1-2.5,1.9-3.8,2.7c-0.8,0.5-1.6,0.9-2.4,1.2C29.7,82.1,30.8,82.6,31.9,83.2"/>
	<path fill="#000018" d="M49.9,84c0,1.6-1.3,2.9-2.9,2.9c-1.6,0-2.9-1.3-2.9-2.9c0-1.6,1.3-2.9,2.9-2.9C48.6,81.1,49.9,82.4,49.9,84
		"/>
	<line fill="none" stroke="#000018" stroke-width="0.295" x1="20.4" y1="68.1" x2="20.4" y2="100"/>
	
		<line fill="none" stroke="#000018" stroke-width="0.295" stroke-linecap="round" stroke-dasharray="3.000000e-02,0.62" x1="9.8" y1="68.1" x2="9.8" y2="100"/>
	<line fill="none" stroke="#000018" stroke-width="0.295" x1="73.6" y1="68.1" x2="73.6" y2="100"/>
	<line fill="none" stroke="#000018" stroke-width="0.295" x1="148.1" y1="68.1" x2="148.1" y2="100"/>
	
		<line fill="none" stroke="#000018" stroke-width="0.295" stroke-linecap="round" stroke-dasharray="3.000000e-02,0.62" x1="158.7" y1="68.1" x2="158.7" y2="100"/>
</g>
</svg>
