<?xml version="1.0" encoding="utf-8"?>
<!-- Generator: Adobe Illustrator 19.2.1, SVG Export Plug-In . SVG Version: 6.00 Build 0)  -->
<svg version="1.2" baseProfile="tiny" id="Layer_1" xmlns="http://www.w3.org/2000/svg" xmlns:xlink="http://www.w3.org/1999/xlink"
	 x="0px" y="0px" viewBox="0 0 888 888" xml:space="preserve">
<g>
	<g>
		<polygon fill="#004990" points="197.3,404.6 174.8,471 234.9,471.1 240.4,458.6 205,458.6 223.6,404.6 		"/>
	</g>
	<g>
		<path fill="#004990" d="M282.8,404.7L238.5,471H268l6.8-13.4h19v13.6l28.1-0.2l1.8-66.3H282.8L282.8,404.7z M296.2,422.3l0.1,20.8
			l-13.6,0.1L296.2,422.3z"/>
	</g>
	<g>
		<polygon fill="#004990" points="336.1,404.7 408,404.7 403.9,418.3 380.8,418.3 362.7,471.1 333.9,471.1 352.6,418.4 331.9,418.4 
					"/>
	</g>
	<g>
		<polygon fill="#004990" points="475.4,404.6 412.8,404.7 391.4,471 451.8,471.2 456.6,458.1 420,458.5 424.2,442.9 455.2,443.1 
			459.4,430.7 429.8,430.5 434.2,418.2 470.6,418.2 		"/>
	</g>
	<g>
		<polygon fill="#004990" points="560.5,403.9 588.2,404.4 591.5,429.8 615.5,404.4 642.6,404.5 618.9,471.1 591.8,471.1 
			603.1,436.7 581.6,461.2 577.2,436.6 564.5,471.1 536.8,471.1 		"/>
	</g>
	<g>
		<path fill="#004990" d="M735,404.7l-24.6,66.4h30.1l4.2-15.2l9.5,15.2h31.4l-13.8-19.6c0,0-3.8-3.9,2.3-4.7s14.7-1.5,21.3-16.6
			c6.7-15.1,0.9-25.4-1.4-25.4C791.7,404.7,735,404.7,735,404.7L735,404.7z M757.9,417.3c2.9-0.4,15.4-2.7,11.5,8.3
			c-3.9,11-17.8,7.5-17.8,7.5L757.9,417.3z"/>
	</g>
	<g>
		<path fill="#004990" d="M667.2,404.7L622.9,471h29.5l6.8-13.4h19v13.6l28.1-0.2l1.8-66.3H667.2L667.2,404.7z M680.7,422.3
			l0.1,20.8l-13.6,0.1L680.7,422.3z"/>
	</g>
	<g>
		<polygon fill="#004990" points="805.1,404.7 877,404.7 872.9,418.3 849.8,418.3 831.9,471.1 803,471.1 821.7,418.4 800.9,418.4 		
			"/>
	</g>
	<g>
		<path fill="#004990" d="M116,391.3l-30,79.9h33.4l11.2-29.5l33.5-0.3c19.1,0,42.9-50.6,16.5-49.7C173.8,391.7,123,391.9,116,391.3
			L116,391.3z M144.2,408.1c7.7-0.4,10.2-0.6,11,3.9c0.8,4.7-1.8,11.2-6.6,13.3c-5.3,2.3-10.1-0.3-10.1-0.3L144.2,408.1z"/>
	</g>
	<g>
		<path fill="#004990" d="M557.1,391.5h-56.7c-23.4,0-35.4,48.4-17.8,48.4c8.3,0,26.8,1.2,26.8,1.2c4.1,0.6,5.7,10.2-2.9,11.7
			c-13.7,0-40-0.5-43.4,0l-5.3,18.2h59c21.3-1.3,34.2-48.3,21-48.8c-3.7-0.8-18.2-0.3-25-0.3c-10.3,0-9.1-12.2,1.8-12.2
			c11.1,0.3,36.7,0,36.7,0L557.1,391.5z"/>
	</g>
</g>
<g>
	<g>
		<path fill="#2E4A82" d="M851.8,458.8c1.1,0,2,0.2,3.1,0.8c1,0.5,1.7,1.3,2.4,2.3c0.5,1,0.9,2,0.9,3.1s-0.3,2.2-0.9,3.1
			c-0.5,1-1.3,1.7-2.3,2.3c-1,0.5-2,0.9-3.1,0.9c-1.1,0-2.2-0.3-3.1-0.9c-1-0.5-1.7-1.3-2.3-2.3s-0.9-2-0.9-3.1s0.3-2.2,0.9-3.1
			c0.5-1,1.3-1.7,2.4-2.3C849.7,459.1,850.7,458.8,851.8,458.8z M851.8,460c-0.9,0-1.7,0.2-2.5,0.6c-0.8,0.4-1.4,1.1-1.8,1.8
			c-0.4,0.8-0.6,1.6-0.6,2.5c0,0.9,0.2,1.7,0.6,2.5c0.4,0.8,1.1,1.4,1.8,1.8c0.8,0.4,1.6,0.6,2.5,0.6c0.9,0,1.7-0.2,2.5-0.6
			c0.8-0.4,1.4-1.1,1.8-1.8s0.6-1.6,0.6-2.5c0-0.9-0.2-1.7-0.6-2.5c-0.4-0.8-1.1-1.4-1.8-1.8S852.6,460,851.8,460z M849,468.4v-6.6
			h1.3c1.3,0,1.9,0,2.2,0c0.4,0,0.8,0.1,1.1,0.2c0.2,0.1,0.4,0.3,0.6,0.6c0.2,0.3,0.2,0.6,0.2,1c0,0.4-0.1,0.9-0.4,1.2
			c-0.3,0.3-0.8,0.5-1.3,0.6c0.2,0.1,0.3,0.1,0.4,0.2c0.1,0.1,0.2,0.2,0.4,0.5c0,0.1,0.2,0.3,0.5,0.8l0.8,1.3h-1.6l-0.5-1.1
			c-0.3-0.8-0.6-1.2-1-1.4c-0.2-0.2-0.5-0.3-1-0.3h-0.3v2.7H849V468.4z M850.4,464.6h0.5c0.8,0,1.3,0,1.4-0.1
			c0.2-0.1,0.3-0.2,0.4-0.3c0.1-0.1,0.2-0.3,0.2-0.5s0-0.3-0.1-0.5c-0.1-0.1-0.2-0.2-0.4-0.3c-0.2-0.1-0.6-0.1-1.4-0.1h-0.5v1.9
			H850.4z"/>
	</g>
</g>
<g>
	<g>
		<path fill="#231F20" d="M78.5,508.4v-1c1,0,1.9-0.3,2.8-0.9c0.9-0.5,2-1.6,3.3-3.2l17.5-20.6h1.8v20.8c0,1.7,0.2,2.8,0.8,3.2
			c0.5,0.4,1.5,0.6,3.1,0.6v1c-1.2,0-2.4-0.1-3.4-0.1c-1.1,0-2.3,0-3.2,0c-1.1,0-2.2,0-3.1,0c-1,0-1.9,0-2.9,0.1v-1
			c1.9-0.1,3.1-0.4,3.8-0.9c0.6-0.4,0.9-1.6,1-3.3l0.1-5h-9.4l-3.3,4c-0.8,1-1.4,1.7-1.7,2.3c-0.3,0.6-0.5,1.2-0.5,1.6
			c0,0.4,0.2,0.6,0.6,0.9c0.4,0.2,1.1,0.3,1.9,0.4v1c-0.6,0-1.4-0.1-2-0.1c-0.8,0-1.4,0-2.3,0c-0.8,0-1.5,0-2.3,0
			C80.1,508.3,79.3,508.3,78.5,508.4z M91.4,497.1h8.4l0.2-10L91.4,497.1z"/>
		<path fill="#231F20" d="M87.7,508.7h-0.3c-0.6,0-1.4-0.1-2-0.1c-1.4,0-2.9,0-4.5,0c-0.8,0-1.5,0-2.4,0.1h-0.3v-1.6h0.3
			c0.9,0,1.8-0.3,2.6-0.9c0.9-0.5,1.9-1.6,3.2-3.2l17.6-20.7h2.4v21.2c0,1.9,0.3,2.7,0.6,3c0.3,0.2,1.1,0.5,2.9,0.5h0.3v1.6h-0.3
			c-1.2,0-2.4-0.1-3.4-0.1c-2.3,0-4.4,0-6.4,0c-1,0-1.9,0-2.9,0.1h-0.3v-1.6h0.3c2.3-0.1,3.2-0.5,3.6-0.8s0.8-1,0.9-3l0.1-4.6h-8.9
			l-3.2,3.9c-0.8,0.9-1.4,1.7-1.7,2.3c-0.3,0.5-0.4,1.1-0.4,1.4c0,0.1,0,0.4,0.4,0.6c0.4,0.2,1,0.3,1.8,0.3h0.3v1.5H87.7z
			 M101.1,507.9c1.1,0,2.2,0,3.3,0c1,0,2,0,3.1,0.1v-0.2c-1.5,0-2.5-0.3-3-0.8c-0.5-0.5-0.9-1.6-0.9-3.4v-20.5h-1.4l-17.3,20.5
			c-1.4,1.6-2.5,2.7-3.4,3.3c-0.9,0.5-1.7,0.9-2.7,1v0.2c0.6,0,1.4,0,2-0.1c1.6,0,3.1,0,4.5,0c0.5,0,1.2,0,1.7,0.1v-0.2
			c-0.8-0.1-1.3-0.2-1.7-0.4c-0.8-0.3-0.9-0.9-0.9-1.2c0-0.5,0.2-1.1,0.5-1.7c0.3-0.6,1-1.4,1.7-2.4l3.4-4.1h9.9l-0.1,5.3
			c0,1.8-0.4,3-1.1,3.6c-0.6,0.4-1.8,0.8-3.7,0.9v0.2c0.9,0,1.7-0.1,2.6-0.1C98.9,507.9,100,507.9,101.1,507.9z M100.1,497.5h-9.5
			l9.8-11.3L100.1,497.5z M92.2,496.7h7.4l0.2-8.8L92.2,496.7z"/>
	</g>
	<g>
		<path fill="#231F20" d="M120.2,488c0.3-0.8,0.4-1.4,0.5-1.8c0.1-0.4,0.1-0.9,0.1-1.2c0-0.4-0.3-0.8-0.9-1.1
			c-0.5-0.2-1.3-0.4-2.3-0.5v-0.9c1.6,0,2.8,0,3.7,0c0.9,0,1.6,0,2.4,0c1.3,0,3.3,0,6.1-0.1h0.1v0.9c-2.7,0-4.4,1.3-5.3,3.8v0.2
			l-5.3,16.4c-0.1,0.3-0.2,0.6-0.3,1c-0.1,0.3-0.1,0.5-0.1,0.9c0,0.5,0.2,1,0.6,1.2c0.4,0.2,1.2,0.3,2.3,0.3h4.2
			c3.1,0,5.7-0.4,7.7-1.3s3.7-2.3,5.2-4.2l1,0.2l-2.4,6.4c-2.6,0-5.2-0.1-7.7-0.1c-2.5,0-4.8,0-7.2,0c-1.5,0-3.1,0-4.7,0
			c-1.7,0-4,0-7,0.1v-1c2-0.2,3.4-1.4,4.2-3.7l0.1-0.2L120.2,488z"/>
		<path fill="#231F20" d="M137.8,508.8h-0.2c-2.6,0-5.2-0.1-7.7-0.1c-2.5,0-4.8,0-7.2,0c-1.5,0-3.1,0-4.7,0l-7.3,0.1v-1.6h0.3
			c1.9-0.2,3.2-1.3,3.9-3.4l0.1-0.2l5.1-15.5c0.2-0.8,0.4-1.4,0.5-1.8c0.1-0.4,0.1-0.8,0.1-1.1c0-0.1,0-0.4-0.6-0.8
			c-0.5-0.2-1.2-0.4-2.2-0.4h-0.3v-1.5h0.3c1.6,0,2.8,0,3.7,0c0.9,0,1.6,0,2.4,0c1.3,0,3.3,0,6.1-0.1h0.4v1.5h-0.3
			c-2.6,0-4.2,1.2-5,3.6v0.1l-5.3,16.4c-0.1,0.3-0.2,0.6-0.2,1c0,0.3-0.1,0.5-0.1,0.8c0,0.4,0.1,0.8,0.5,1c0.4,0.2,1.1,0.3,2,0.3
			h4.2c3.1,0,5.6-0.4,7.5-1.2c1.9-0.8,3.6-2.2,5.1-4.1l0.1-0.2l1.5,0.4L137.8,508.8z M122.7,507.9c2.4,0,4.7,0,7.2,0
			c2.4,0,4.8,0,7.4,0.1l2.2-5.8l-0.3-0.1c-1.5,1.9-3.2,3.3-5.2,4.1c-1.9,0.9-4.6,1.3-7.8,1.3H122c-1.1,0-1.9-0.1-2.4-0.4
			c-0.5-0.3-0.9-0.9-0.9-1.5c0-0.2,0-0.5,0.1-0.9c0.1-0.3,0.1-0.6,0.3-1l5.4-16.6c0.9-2.5,2.6-3.9,5.3-4V483c-2.7,0-4.6,0.1-5.9,0.1
			c-0.8,0-1.5,0-2.4,0c-0.8,0-1.8,0-3.3,0v0.2c0.9,0.1,1.6,0.2,2,0.5c0.6,0.3,1,0.8,1,1.3c0,0.3,0,0.8-0.1,1.2
			c-0.1,0.4-0.3,1.1-0.5,1.9l-5.1,15.7c-0.8,2.3-2.2,3.6-4.2,3.9v0.3l6.6-0.1C119.6,507.9,121.1,507.9,122.7,507.9z"/>
	</g>
	<g>
		<path fill="#231F20" d="M149.6,503c-0.2,0.6-0.4,1.3-0.5,1.7c-0.1,0.4-0.1,0.9-0.1,1.3s0.3,0.8,0.9,1.1c0.5,0.2,1.4,0.4,2.5,0.4v1
			c-0.6,0-1.4,0-2.2-0.1c-0.8,0-1.9,0-3.4,0c-1.6,0-2.8,0-3.6,0c-0.8,0-1.5,0-2.3,0.1v-1c2-0.2,3.4-1.4,4.2-3.7l0.1-0.2l5-15.4
			c0.3-0.8,0.4-1.4,0.5-1.8c0.1-0.4,0.1-0.9,0.1-1.2c0-0.4-0.3-0.8-0.9-1.1c-0.5-0.2-1.3-0.4-2.3-0.5v-0.9c1,0,1.9,0,2.8,0.1
			c0.9,0,1.7,0,2.5,0c0.9,0,1.9,0,3.1,0s1.9,0,2.3,0c3.7,0,6.2,0.4,8,1.4c1.6,1,2.5,2.5,2.5,4.6c0,2.4-1.2,4.2-3.4,5.7
			c-2.4,1.4-5.4,2.2-9.3,2.2c-0.5,0-1.2,0-1.9-0.1c-0.8,0-1.5-0.1-2.4-0.2L149.6,503z M152.2,495c0.8,0.1,1.4,0.2,1.9,0.2
			c0.6,0,1.2,0.1,1.6,0.1c2.6,0,4.7-0.6,6.2-1.9c1.5-1.3,2.4-3,2.4-5.3c0-1.4-0.4-2.5-1.4-3.2c-1-0.8-2.3-1.2-3.9-1.2
			c-1.3,0-2.3,0.2-2.8,0.5c-0.5,0.4-1.1,1.4-1.7,3.2L152.2,495z"/>
		<path fill="#231F20" d="M152.7,508.7h-0.3c-0.6,0-1.4,0-2.2-0.1c-0.8,0-1.9,0-3.4,0c-1.6,0-2.8,0-3.6,0c-0.8,0-1.5,0-2.3,0.1h-0.3
			v-1.6h0.3c1.9-0.2,3.2-1.3,3.9-3.4l0.1-0.2L150,488c0.2-0.8,0.4-1.4,0.5-1.8s0.1-0.8,0.1-1.1c0-0.1,0-0.4-0.6-0.8
			c-0.5-0.2-1.2-0.4-2.2-0.4h-0.3v-1.5h0.3c1,0,1.9,0,2.8,0.1c0.9,0,1.7,0,2.5,0c0.9,0,1.9,0,3.1,0c1.2,0,1.9,0,2.3,0
			c3.7,0,6.4,0.5,8.1,1.5s2.6,2.7,2.6,5c0,2.5-1.2,4.4-3.7,5.9c-2.4,1.5-5.6,2.3-9.5,2.3c-0.5,0-1.2,0-1.9-0.1c-0.6,0-1.3-0.1-2-0.2
			l-2,6.5c-0.2,0.6-0.4,1.2-0.4,1.7c-0.1,0.4-0.1,0.9-0.1,1.2c0,0.1,0,0.4,0.6,0.8c0.5,0.2,1.3,0.3,2.4,0.4h0.3L152.7,508.7z
			 M141.2,507.7v0.3c0.5,0,1.2,0,1.9,0c0.8,0,2,0,3.7,0c1.6,0,2.7,0,3.6,0c0.6,0,1.3,0,1.8,0v-0.3c-1-0.1-1.7-0.2-2.3-0.4
			c-0.9-0.4-1.1-1-1.1-1.4c0-0.3,0.1-0.9,0.2-1.3c0.1-0.5,0.3-1.1,0.5-1.7l2.3-6.9h0.3c0.9,0.1,1.6,0.1,2.3,0.2
			c0.8,0,1.3,0.1,1.8,0.1c3.8,0,6.8-0.8,9.1-2.2c2.3-1.4,3.3-3.1,3.3-5.4c0-2-0.8-3.4-2.3-4.3c-1.6-1-4.2-1.4-7.8-1.4
			c-0.3,0-1.1,0-2.3,0s-2.3,0-3.1,0c-0.8,0-1.6,0-2.5,0c-0.8,0-1.6,0-2.5-0.1v0.2c0.9,0.1,1.6,0.2,2,0.5c0.6,0.3,1,0.8,1,1.3
			c0,0.3,0,0.8-0.1,1.2c-0.1,0.4-0.3,1.1-0.5,1.9l-5.1,15.7C144.6,506.1,143.2,507.4,141.2,507.7z M155.8,495.7
			c-0.5,0-1.1,0-1.7-0.1c-0.6,0-1.3-0.1-2-0.2l-0.4-0.1l2.6-7.9c0.5-1.8,1.2-3,1.8-3.4s1.6-0.6,3-0.6c1.7,0,3.1,0.4,4.1,1.2
			c1,0.9,1.5,2,1.5,3.6c0,2.3-0.9,4.2-2.5,5.5C160.8,495,158.5,495.7,155.8,495.7z M152.6,494.7c0.5,0.1,1.1,0.1,1.6,0.2
			c0.5,0,1.2,0.1,1.6,0.1c2.6,0,4.6-0.6,6-1.8c1.5-1.3,2.3-2.9,2.3-5.1c0-1.3-0.4-2.3-1.3-3c-0.9-0.8-2-1.1-3.7-1.1
			c-1.2,0-2.2,0.2-2.6,0.5c-0.3,0.2-0.9,1-1.5,3L152.6,494.7z"/>
	</g>
	<g>
		<path fill="#231F20" d="M177.4,503c-0.2,0.8-0.4,1.3-0.5,1.7c-0.1,0.4-0.1,0.9-0.1,1.2c0,0.4,0.3,0.8,0.9,1.1
			c0.5,0.2,1.4,0.4,2.5,0.4v1c-0.6,0-1.4,0-2.2-0.1c-0.8,0-1.9,0-3.4,0c-1.6,0-2.8,0-3.6,0c-0.8,0-1.5,0-2.3,0.1v-1
			c2-0.2,3.4-1.4,4.2-3.7l0.1-0.2l5-15.4c0.3-0.8,0.4-1.4,0.5-1.8s0.1-0.9,0.1-1.2c0-0.4-0.3-0.8-0.9-1.1c-0.5-0.2-1.3-0.4-2.3-0.5
			v-1c0.9,0,1.6,0,2.6,0.1c0.9,0,2,0,3.6,0c1,0,2,0,3.3,0c1.2,0,1.9,0,2.2,0c4.1,0,7.1,0.4,8.9,1.3c1.8,0.9,2.8,2.2,2.8,4
			s-1,3.4-2.8,4.7c-1.8,1.3-4.8,2.5-8.8,3.3c0.5,0.6,1.1,1.3,1.6,2c0.5,0.8,1.1,1.6,1.7,2.5l2.2,3.2c0.9,1.3,1.7,2.3,2.5,2.8
			c0.9,0.5,1.9,0.8,3.1,0.9v1c-0.4,0-0.9,0-1.3-0.1c-0.4,0-1.2,0-2.2,0s-1.7,0-2.3,0s-1,0-1.4,0.1c-1.4-1.9-2.7-3.9-4-5.8
			c-1.3-1.9-2.5-3.9-3.8-5.8c-0.6,0.1-1.3,0.2-2,0.3c-0.6,0.1-1.4,0.1-2,0.2L177.4,503z M179.5,496.2c5.3-0.8,9.2-1.7,11.5-3
			c2.5-1.3,3.7-3,3.7-5.1c0-1.4-0.6-2.5-1.8-3.2c-1.2-0.8-3-1.1-5.4-1.1c-1.6,0-2.7,0.2-3.2,0.5c-0.6,0.3-1.1,1.1-1.5,2.2
			L179.5,496.2z"/>
		<path fill="#231F20" d="M198.5,508.7h-0.3c-0.4,0-0.9,0-1.3-0.1c-0.4,0-1.2,0-2.2,0s-1.7,0-2.3,0s-1,0-1.4,0.1h-0.2v-0.1
			c-1.4-1.9-2.7-3.9-4-5.8c-1.2-1.8-2.5-3.8-3.7-5.7c-0.6,0.1-1.2,0.2-1.8,0.2c-0.6,0.1-1.3,0.1-1.9,0.2l-1.8,5.5
			c-0.2,0.6-0.4,1.3-0.4,1.7c-0.1,0.4-0.1,0.9-0.1,1.2c0,0.1,0,0.4,0.6,0.8c0.5,0.2,1.3,0.3,2.4,0.4h0.3v1.6h-0.3
			c-0.6,0-1.4,0-2.2-0.1c-0.8,0-1.9,0-3.4,0c-1.6,0-2.8,0-3.6,0c-0.8,0-1.5,0-2.3,0.1h-0.3v-1.6h0.3c1.9-0.2,3.2-1.3,3.9-3.4
			l0.1-0.2l5.1-15.4c0.2-0.8,0.4-1.4,0.5-1.8c0.1-0.4,0.1-0.8,0.1-1.1c0-0.1,0-0.4-0.6-0.8c-0.5-0.2-1.2-0.4-2.2-0.4h-0.3v-1.6h0.3
			c0.9,0,1.6,0,2.6,0.1c1.4,0,3.8,0,6.9,0c1.2,0,1.9,0,2.2,0c4.2,0,7.2,0.4,9.1,1.3c1.9,0.9,2.9,2.4,2.9,4.3s-1,3.7-2.9,5.1
			c-1.8,1.3-4.6,2.4-8.4,3.3c0.4,0.5,0.9,1.1,1.3,1.6c0.5,0.8,1.1,1.6,1.7,2.5l2.2,3.2c0.9,1.3,1.6,2.2,2.5,2.7
			c0.8,0.5,1.8,0.8,3,0.8h0.3v1.5H198.5z M183.5,496.4l0.1,0.2c1.2,1.9,2.5,4,3.8,5.8c1.2,1.8,2.5,3.8,3.9,5.6c0.4,0,0.8,0,1.2,0
			c0.5,0,1.3,0,2.3,0c1,0,1.7,0,2.2,0c0.3,0,0.6,0,1,0v-0.3c-1.2-0.1-2.2-0.3-3-0.9c-0.9-0.5-1.7-1.5-2.6-2.9l-2.2-3.2
			c-0.5-1-1.2-1.7-1.6-2.5c-0.5-0.8-1.1-1.4-1.6-1.9l-0.4-0.4l0.5-0.1c4-1,6.9-2,8.7-3.3s2.7-2.7,2.7-4.4s-0.9-2.9-2.6-3.7
			c-1.8-0.9-4.7-1.2-8.8-1.2c-0.2,0-1,0-2.2,0c-3.1,0-5.5,0-6.9,0c-0.8,0-1.5,0-2.2,0v0.2c0.9,0.1,1.6,0.2,2,0.5
			c0.6,0.3,1,0.8,1,1.3c0,0.3,0,0.8-0.1,1.2c-0.1,0.4-0.3,1.1-0.5,1.9l-5.1,15.7c-0.8,2.3-2.2,3.6-4.2,3.9v0.3c0.5,0,1.2,0,1.9,0
			c0.8,0,2,0,3.7,0s2.7,0,3.6,0c0.6,0,1.3,0,1.8,0v-0.3c-1-0.1-1.7-0.2-2.3-0.4c-0.9-0.4-1.1-1-1.1-1.4c0-0.3,0.1-0.8,0.2-1.3
			c0.1-0.5,0.3-1.1,0.5-1.8l0,0l1.9-5.9h0.2c0.8-0.1,1.4-0.1,2-0.2c0.6-0.1,1.3-0.2,2-0.3L183.5,496.4z M179.1,496.6l3.4-10.2
			c0.4-1.2,1-1.9,1.6-2.4s1.8-0.5,3.4-0.5c2.5,0,4.3,0.4,5.6,1.2c1.3,0.8,2,1.9,2,3.6c0,2.3-1.3,4-3.8,5.4
			c-2.5,1.3-6.4,2.4-11.6,3.1L179.1,496.6z M187.5,484c-1.5,0-2.6,0.2-3.1,0.4c-0.5,0.3-1,1-1.3,2l-3,9.3c5-0.8,8.6-1.7,10.9-2.9
			c2.4-1.3,3.4-2.8,3.4-4.8c0-1.3-0.5-2.3-1.6-2.9C191.6,484.5,189.9,484,187.5,484z"/>
	</g>
	<g>
		<path fill="#231F20" d="M220.7,503c-0.3,0.9-0.4,1.5-0.5,1.8c-0.1,0.4-0.1,0.8-0.1,1.1c0,0.4,0.3,0.8,0.9,1.1
			c0.5,0.2,1.4,0.4,2.5,0.4v1c-0.6,0-1.3,0-2.2-0.1c-0.8,0-1.9,0-3.7,0c-1.7,0-2.9,0-3.8,0s-1.7,0-2.5,0.1v-1
			c2.4-0.1,3.9-1.4,4.7-3.8v-0.2l5-15.4c0.3-0.8,0.4-1.4,0.5-1.8s0.1-0.9,0.1-1.2c0-0.4-0.2-0.8-0.8-1.1c-0.5-0.2-1.3-0.4-2.3-0.5
			v-0.9c1.6,0,2.8,0,3.7,0c0.9,0,1.6,0,2.4,0c1.3,0,3.3,0,6.1-0.1h0.1v0.9c-2.7,0-4.4,1.3-5.3,3.8v0.2L220.7,503z"/>
		<path fill="#231F20" d="M223.7,508.7h-0.3c-0.6,0-1.3,0-2-0.1c-0.8,0-1.9,0-3.7,0s-2.9,0-3.8,0c-0.9,0-1.7,0-2.5,0.1h-0.3v-1.6
			h0.3c2.3-0.1,3.7-1.3,4.4-3.4v-0.2l5.1-15.5c0.2-0.8,0.4-1.4,0.5-1.8s0.1-0.8,0.1-1.1c0-0.1,0-0.4-0.6-0.8
			c-0.5-0.2-1.2-0.4-2.2-0.4h-0.3v-1.5h0.3c1.6,0,2.8,0,3.7,0c0.9,0,1.6,0,2.4,0c1.3,0,3.3,0,6.1-0.1h0.4v1.5H231
			c-2.6,0-4.2,1.2-5,3.6v0.1l-5.1,15.5c-0.3,0.9-0.4,1.4-0.5,1.8c-0.1,0.4-0.1,0.8-0.1,1.1c0,0.1,0,0.4,0.6,0.8
			c0.5,0.2,1.3,0.4,2.4,0.4h0.3L223.7,508.7L223.7,508.7z M211.7,507.7v0.3c0.6,0,1.4,0,2.2,0c0.9,0,2.2,0,3.9,0c1.6,0,2.8,0,3.7,0
			c0.6,0,1.2,0,1.7,0v-0.3c-1-0.1-1.7-0.2-2.3-0.4c-0.8-0.3-1.1-0.8-1.1-1.3c0-0.3,0-0.8,0.1-1.2c0.1-0.4,0.3-1.1,0.5-1.9l5.1-15.6
			c0.9-2.5,2.6-3.9,5.3-4v-0.2c-2.7,0-4.6,0.1-5.9,0.1c-0.8,0-1.5,0-2.4,0c-0.8,0-1.8,0-3.3,0v0.2c0.9,0.1,1.6,0.2,2.2,0.5
			c0.6,0.3,1,0.8,1,1.3c0,0.3,0,0.8-0.1,1.2c-0.1,0.4-0.3,1.1-0.5,1.9l-5.1,15.6C215.6,506.2,214,507.5,211.7,507.7z"/>
	</g>
	<g>
		<path fill="#231F20" d="M229.4,508.3c1.8-3.4,3.2-6.2,4.1-8.4c1-2.2,1.4-3.7,1.4-4.4c0-0.2,0-0.3-0.1-0.4s-0.1-0.1-0.3-0.1
			c-0.3,0-0.9,0.2-1.5,0.6c-0.6,0.4-1.6,1.2-2.9,2.3l-0.6-0.5c2-1.7,3.8-3,5-3.8c1.3-0.8,2.3-1.2,3-1.2c0.4,0,0.8,0.1,1,0.3
			c0.2,0.2,0.3,0.5,0.3,1c0,0.3-0.1,0.8-0.2,1.2c-0.2,0.4-0.4,1.2-1,2l-1.1,2.2l0.3,0.1c1.8-2.4,3.6-4,5.1-5.2
			c1.6-1.1,3.1-1.6,4.5-1.6c0.8,0,1.5,0.2,1.9,0.6c0.5,0.4,0.8,1,0.8,1.7c0,0.4-0.1,0.9-0.2,1.3s-0.4,1.1-0.9,2l-2.9,6
			c0,0.1-0.1,0.2-0.2,0.3c-0.3,0.8-0.5,1.2-0.5,1.4c0,0.1,0,0.1,0,0.2l0.1,0.1c0.3,0,0.9-0.2,1.6-0.6c0.8-0.4,1.7-1.1,2.8-1.8
			l0.4,0.6c-1.6,1.3-3.1,2.4-4.5,3.1c-1.4,0.8-2.6,1.2-3.4,1.2c-0.4,0-0.8-0.1-1-0.2c-0.2-0.2-0.3-0.4-0.3-0.8
			c0-0.3,0.1-0.8,0.4-1.3c0.3-0.5,0.9-1.6,1.8-3.2c1.3-2.3,2.2-4,2.7-5c0.4-1.1,0.6-1.8,0.6-2.4c0-0.4-0.1-0.8-0.3-0.9
			c-0.2-0.2-0.6-0.3-1.2-0.3c-1.7,0-3.7,1.3-5.9,3.9c-2.3,2.6-4.2,5.9-5.8,10h-2.9V508.3z"/>
		<path fill="#231F20" d="M241.7,508.8c-0.5,0-0.9-0.1-1.2-0.3c-0.3-0.2-0.4-0.5-0.4-1c0-0.3,0.1-0.9,0.4-1.4
			c0.3-0.6,0.9-1.7,1.8-3.2c1.3-2.3,2.2-4,2.6-5s0.6-1.7,0.6-2.3c0-0.3-0.1-0.5-0.2-0.6c-0.2-0.1-0.5-0.2-1-0.2
			c-1.6,0-3.6,1.3-5.7,3.8c-2.3,2.6-4.2,5.9-5.8,9.9l0,0.1h-4.1l0.2-0.5c1.8-3.4,3.2-6.2,4.1-8.4c0.9-2.2,1.4-3.6,1.4-4.3
			c0-0.2,0-0.2,0-0.3c-0.2,0-0.6,0.1-1.4,0.6c-0.6,0.4-1.6,1.2-2.9,2.2L230,498l-1.1-1l0.3-0.2c2-1.7,3.8-3,5.1-3.8
			c1.3-0.8,2.4-1.2,3.2-1.2c0.5,0,0.9,0.1,1.2,0.4c0.3,0.3,0.4,0.6,0.4,1.2c0,0.3-0.1,0.8-0.3,1.3c-0.2,0.5-0.4,1.2-1,2.2l-0.4,0.9
			c1.5-1.8,3-3.2,4.3-4.2c1.6-1.2,3.2-1.7,4.7-1.7c0.9,0,1.6,0.2,2.2,0.8c0.6,0.5,0.9,1.2,0.9,1.9c0,0.4-0.1,0.9-0.2,1.4
			c-0.1,0.4-0.4,1.2-0.9,2l-2.9,6c0,0.1-0.1,0.2-0.2,0.3c-0.3,0.6-0.4,1-0.4,1.2c0.2-0.1,0.6-0.2,1.3-0.5c0.8-0.4,1.7-1.1,2.8-1.7
			l0.2-0.2l0.9,1.1l-0.2,0.2c-1.6,1.3-3.1,2.4-4.6,3.1C243.8,508.4,242.6,508.8,241.7,508.8z M244.5,494c0.6,0,1.1,0.1,1.4,0.4
			c0.3,0.2,0.5,0.6,0.5,1.2c0,0.6-0.2,1.5-0.8,2.6c-0.4,1.1-1.4,2.7-2.7,5.1c-1,1.6-1.5,2.7-1.8,3.2c-0.3,0.6-0.4,1-0.4,1.2
			c0,0.3,0.1,0.4,0.2,0.4c0.1,0.1,0.4,0.2,0.8,0.2c0.8,0,1.9-0.3,3.2-1.1c1.3-0.8,2.8-1.7,4.3-2.9l-0.1-0.1c-1,0.6-1.8,1.2-2.6,1.6
			c-1.2,0.6-1.6,0.6-1.8,0.6c-0.2,0-0.3-0.1-0.4-0.2c-0.1-0.1-0.1-0.2-0.1-0.3c0-0.2,0.1-0.5,0.5-1.6c0.1-0.1,0.1-0.2,0.2-0.3l2.9-6
			c0.4-0.9,0.6-1.5,0.8-1.9c0.1-0.4,0.2-0.9,0.2-1.2c0-0.6-0.2-1.1-0.6-1.4c-0.4-0.4-1.1-0.5-1.7-0.5c-1.4,0-2.9,0.5-4.3,1.6
			c-1.5,1.1-3.2,2.8-5,5.1l-0.1,0.2l-0.9-0.3l1.2-2.5c0.4-0.9,0.8-1.6,0.9-2c0.1-0.4,0.2-0.8,0.2-1.1c0-0.3-0.1-0.5-0.2-0.8
			c-0.1-0.1-0.4-0.2-0.8-0.2c-0.8,0-1.7,0.3-2.9,1.1s-2.7,1.8-4.6,3.4l0.1,0.1c1.2-1,2-1.6,2.7-2c1.2-0.8,1.9-1,2.3-0.4
			c0.1,0.1,0.1,0.3,0.1,0.6c0,0.9-0.4,2.4-1.4,4.5c-0.9,2-2.2,4.7-3.9,8h2.5c1.6-4,3.6-7.3,5.8-9.9C240.6,495.3,242.6,494,244.5,494
			z"/>
	</g>
	<g>
		<path fill="#231F20" d="M258.8,494.6h-3.7l0.6-1.5h3.7l1.7-3.7l3.3-0.3l-1.8,4h3l-0.6,1.5h-3l-4.5,9.6c-0.1,0.3-0.2,0.5-0.3,0.8
			c0,0.1-0.1,0.2-0.1,0.3c0,0.2,0.1,0.3,0.2,0.4s0.3,0.2,0.4,0.2c0.4,0,1.1-0.2,2-0.8c0.9-0.5,2.2-1.3,3.7-2.5l0.8,0.5
			c-1.9,1.7-3.8,3-5.4,4c-1.6,1-2.9,1.4-3.9,1.4c-0.5,0-0.9-0.1-1.2-0.3c-0.3-0.2-0.4-0.5-0.4-1c0-0.2,0.1-0.6,0.2-1.1
			c0.1-0.4,0.3-1,0.6-1.6L258.8,494.6z"/>
		<path fill="#231F20" d="M254.9,508.8c-0.5,0-1.1-0.1-1.4-0.4c-0.3-0.3-0.5-0.8-0.5-1.2c0-0.3,0.1-0.6,0.2-1.2
			c0.1-0.5,0.4-1.1,0.6-1.6l4.4-9.4h-3.6l1-2.2h3.7l1.7-3.7l4.1-0.4l-1.9,4h3l-1,2.2h-3l-4.4,9.4c-0.1,0.3-0.2,0.5-0.3,0.6
			c0,0.1,0,0.2,0,0.2c0,0.1,0,0.1,0.1,0.2s0.1,0.1,0.2,0.1c0.2,0,0.8-0.1,1.8-0.8c0.9-0.5,2.2-1.3,3.6-2.5l0.2-0.1l1.3,1l-0.3,0.2
			c-1.9,1.7-3.8,3-5.4,4C257.3,508.4,255.9,508.8,254.9,508.8z M255.7,494.3h3.7l-5,10.3c-0.3,0.5-0.5,1.1-0.6,1.6
			c-0.1,0.4-0.2,0.8-0.2,1c0,0.3,0.1,0.5,0.3,0.6c0.2,0.2,0.5,0.3,1,0.3c1,0,2.2-0.4,3.8-1.4c1.5-0.9,3.2-2.2,5-3.7l-0.2-0.2
			c-1.4,1.1-2.6,1.8-3.4,2.4c-1,0.5-1.7,0.9-2.2,0.9c-0.2,0-0.4-0.1-0.6-0.3c-0.2-0.2-0.3-0.4-0.3-0.6c0-0.1,0-0.2,0.1-0.4
			c0-0.1,0.1-0.3,0.3-0.8l4.6-9.8h3l0.4-0.9h-3l1.8-3.9l-2.6,0.2l-1.7,3.7h-3.7L255.7,494.3z"/>
	</g>
	<g>
		<path fill="#231F20" d="M280.3,504.5c-1.2,1.3-2.6,2.3-4,2.9s-2.9,1.1-4.3,1.1c-1.5,0-2.7-0.4-3.7-1.2c-0.9-0.8-1.4-1.8-1.4-3.1
			c0-1.2,0.3-2.4,1-3.7c0.6-1.3,1.6-2.5,2.8-3.8c1.4-1.4,3-2.5,4.6-3.3c1.6-0.8,3.2-1.2,4.8-1.2c1.1,0,1.9,0.2,2.7,0.6
			c0.6,0.4,1.1,1.1,1.1,1.8c0,1.3-0.9,2.3-2.5,2.9c-1.6,0.6-4,1.1-6.9,1.1c-0.4,0-0.8,0-1,0c-0.2,0-0.4,0-0.6,0
			c-0.8,0.9-1.4,1.7-1.7,2.6c-0.4,0.9-0.6,1.6-0.6,2.4s0.3,1.4,0.9,1.9c0.5,0.4,1.4,0.8,2.4,0.8c0.9,0,1.8-0.2,2.8-0.6
			c1-0.4,2-1,3.1-1.8L280.3,504.5z M273.5,497.9c2.4,0,4.2-0.3,5.6-0.9c1.4-0.5,2-1.3,2-2.3c0-0.4-0.1-0.8-0.4-1.1
			c-0.3-0.2-0.8-0.3-1.3-0.3c-0.9,0-1.7,0.3-2.6,1.1C275.9,495.1,274.8,496.3,273.5,497.9z"/>
		<path fill="#231F20" d="M272,508.8c-1.6,0-2.9-0.4-3.9-1.2c-1-0.9-1.5-1.9-1.5-3.3c0-1.2,0.3-2.5,1-3.8s1.6-2.6,2.9-3.9
			c1.4-1.4,3-2.6,4.7-3.3c1.7-0.8,3.3-1.2,5-1.2c1.2,0,2.2,0.2,2.9,0.8c0.8,0.5,1.2,1.2,1.2,2c0,1.4-0.9,2.5-2.7,3.2
			c-1.6,0.8-4,1.1-7,1.1c-0.4,0-0.8,0-1,0c-0.2,0-0.3,0-0.4,0c-0.6,0.8-1.2,1.6-1.6,2.4c-0.3,0.8-0.5,1.5-0.5,2.3
			c0,0.6,0.2,1.3,0.8,1.6c1,0.9,2.9,0.9,4.8,0.1c1-0.4,1.9-1,3-1.7l0.2-0.2l1,1l-0.2,0.2c-1.3,1.3-2.6,2.3-4.1,3
			C274.9,508.5,273.4,508.8,272,508.8z M280.2,492.6c-1.5,0-3.1,0.4-4.7,1.2c-1.6,0.8-3.1,1.8-4.5,3.2c-1.2,1.2-2.2,2.5-2.8,3.7
			c-0.6,1.2-0.9,2.4-0.9,3.4c0,1.2,0.4,2.2,1.3,2.8c0.9,0.8,2,1.1,3.4,1.1c1.4,0,2.8-0.3,4.1-1c1.3-0.6,2.6-1.5,3.7-2.6l-0.1-0.1
			c-1.1,0.8-2,1.3-2.9,1.7c-1,0.4-2,0.6-3,0.6c-1.1,0-1.9-0.3-2.6-0.8c-0.6-0.5-1-1.3-1-2.2c0-0.9,0.2-1.7,0.6-2.6s1-1.7,1.8-2.6
			l0.1-0.1h0.2c0.2,0,0.4,0,0.6,0s0.5,0,1,0c2.9,0,5.2-0.3,6.8-1c1.5-0.6,2.3-1.5,2.3-2.7c0-0.6-0.3-1.1-0.9-1.5
			C282,492.9,281.3,492.6,280.2,492.6z M272.9,498.3l0.4-0.5c1.3-1.7,2.5-2.9,3.3-3.7c1-0.8,1.9-1.1,2.8-1.1c0.6,0,1.2,0.1,1.5,0.4
			c0.4,0.3,0.5,0.8,0.5,1.3c0,1.1-0.8,1.9-2.3,2.6c-1.4,0.6-3.3,0.9-5.7,1H272.9z M279.3,493.7c-0.8,0-1.5,0.3-2.4,1
			c-0.8,0.6-1.7,1.6-2.8,2.9c1.9-0.1,3.6-0.3,4.7-0.9c1.3-0.5,1.8-1.2,1.8-1.9c0-0.3-0.1-0.6-0.3-0.8
			C280.2,493.7,279.9,493.7,279.3,493.7z"/>
	</g>
	<g>
		<path fill="#231F20" d="M293.4,486.7c0.3-0.6,0.5-1.2,0.6-1.5c0.1-0.3,0.2-0.6,0.2-0.9c0-0.3-0.2-0.6-0.6-0.9
			c-0.4-0.2-1.1-0.3-2-0.4v-0.6h6.9l-8.3,19.9l-0.1,0.2c-0.5,1.4-0.9,2.3-0.9,2.7c0,0.3,0.1,0.5,0.2,0.6c0.1,0.2,0.3,0.2,0.5,0.2
			c0.3,0,0.8-0.2,1.4-0.5c0.5-0.4,1.6-1.3,3.2-2.8l0.6,0.4c-1.3,1.6-2.7,2.9-4,3.8c-1.3,0.9-2.5,1.4-3.6,1.4c-0.6,0-1.2-0.2-1.6-0.5
			c-0.4-0.3-0.5-0.9-0.5-1.5c0-0.4,0.1-1.1,0.3-1.7c0.2-0.6,0.6-1.8,1.4-3.4L293.4,486.7z"/>
		<path fill="#231F20" d="M287.6,508.8c-0.8,0-1.4-0.2-1.8-0.5c-0.4-0.4-0.6-1-0.6-1.7c0-0.5,0.1-1.1,0.3-1.8
			c0.2-0.8,0.6-1.8,1.4-3.4l6.2-14.5c0.3-0.6,0.4-1.1,0.6-1.5c0.1-0.4,0.2-0.6,0.2-0.8s0-0.3-0.4-0.5c-0.4-0.2-1.1-0.3-1.9-0.4h-0.3
			v-1.3h7.8l-8.6,20.7c-0.6,1.6-0.9,2.3-0.9,2.5c0,0.2,0,0.3,0.1,0.5c0.1,0.1,0.1,0.1,0.3,0.1c0.2,0,0.5-0.1,1.2-0.5
			c0.5-0.3,1.6-1.3,3.1-2.7l0.2-0.2l1.1,0.9l-0.2,0.2c-1.3,1.6-2.7,3-4,3.9C290,508.3,288.7,508.8,287.6,508.8z M293.8,486.8
			l-6.2,14.5c-0.6,1.5-1.1,2.7-1.3,3.3c-0.2,0.6-0.3,1.2-0.3,1.6c0,0.5,0.1,1,0.4,1.2c0.3,0.3,0.8,0.4,1.3,0.4c1,0,2.2-0.4,3.3-1.3
			c1.2-0.9,2.5-2,3.7-3.4l-0.1-0.1c-1.5,1.4-2.5,2.3-3,2.6c-1.1,0.8-1.9,0.9-2.4,0.2c-0.2-0.2-0.3-0.5-0.3-0.9
			c0-0.3,0.1-0.9,0.9-2.8l0.1-0.2l8.1-19.5h-6l0,0c0.8,0.1,1.4,0.2,1.8,0.4c0.8,0.3,0.9,0.9,0.9,1.2c0,0.2-0.1,0.5-0.2,1
			C294.3,485.8,294.1,486.2,293.8,486.8z"/>
	</g>
	<g>
		<path fill="#231F20" d="M306.7,486.7c0.3-0.6,0.5-1.2,0.6-1.5c0.1-0.3,0.2-0.6,0.2-0.9c0-0.3-0.2-0.6-0.6-0.9
			c-0.4-0.2-1.1-0.3-2-0.4v-0.6h6.9l-8.3,19.9l-0.1,0.2c-0.5,1.4-0.9,2.3-0.9,2.7c0,0.3,0.1,0.5,0.2,0.6c0.1,0.2,0.3,0.2,0.5,0.2
			c0.3,0,0.8-0.2,1.4-0.5c0.5-0.4,1.6-1.3,3.2-2.8l0.6,0.4c-1.3,1.6-2.7,2.9-4,3.8c-1.3,0.9-2.5,1.4-3.6,1.4c-0.6,0-1.2-0.2-1.6-0.5
			c-0.4-0.3-0.5-0.9-0.5-1.5c0-0.4,0.1-1.1,0.3-1.7c0.2-0.6,0.6-1.8,1.4-3.4L306.7,486.7z"/>
		<path fill="#231F20" d="M300.9,508.8c-0.8,0-1.4-0.2-1.8-0.5c-0.4-0.4-0.6-1-0.6-1.7c0-0.5,0.1-1.1,0.3-1.8
			c0.2-0.8,0.6-1.8,1.4-3.4l6.2-14.5c0.3-0.6,0.4-1.1,0.6-1.5c0.1-0.4,0.2-0.6,0.2-0.8s0-0.3-0.4-0.5c-0.4-0.2-1.1-0.3-1.9-0.4h-0.3
			v-1.3h7.8l-8.6,20.7c-0.6,1.6-0.9,2.3-0.9,2.5c0,0.2,0,0.3,0.1,0.5c0.1,0.1,0.1,0.1,0.3,0.1c0.2,0,0.5-0.1,1.2-0.5
			c0.5-0.3,1.6-1.3,3.1-2.7l0.2-0.2l1.1,0.9l-0.2,0.2c-1.3,1.6-2.7,3-4,3.9C303.2,508.3,301.9,508.8,300.9,508.8z M307,486.8
			l-6.2,14.5c-0.6,1.5-1.1,2.7-1.3,3.3c-0.2,0.6-0.3,1.2-0.3,1.6c0,0.5,0.1,1,0.4,1.2c0.3,0.3,0.8,0.4,1.3,0.4c1,0,2.2-0.4,3.3-1.3
			c1.2-0.9,2.5-2,3.7-3.4l-0.1-0.1c-1.5,1.4-2.5,2.3-3,2.6c-1.1,0.8-1.9,0.9-2.4,0.2c-0.2-0.2-0.3-0.5-0.3-0.9
			c0-0.3,0.1-0.9,0.9-2.8l0.1-0.2l8.1-19.5h-6l0,0c0.8,0.1,1.4,0.2,1.8,0.4c0.8,0.3,0.9,0.9,0.9,1.2c0,0.2-0.1,0.5-0.2,1
			C307.4,485.8,307.2,486.2,307,486.8z"/>
	</g>
	<g>
		<path fill="#231F20" d="M316.3,504.7c-0.1,0.2-0.2,0.4-0.2,0.6c-0.1,0.2-0.1,0.3-0.1,0.4c0,0.2,0,0.3,0.1,0.4s0.2,0.2,0.3,0.2
			c0.4,0,1-0.2,1.6-0.6c0.6-0.4,1.5-1.1,2.5-2l0.5,0.4c-1.2,1.4-2.5,2.4-3.8,3.1c-1.3,0.8-2.5,1.1-3.6,1.1c-0.4,0-0.9-0.1-1.1-0.3
			s-0.3-0.4-0.3-0.8c0-0.2,0.1-0.4,0.2-0.9s0.2-0.9,0.4-1.3l3.9-8.6c0.1-0.2,0.2-0.4,0.2-0.6s0.1-0.3,0.1-0.4c0-0.2,0-0.4-0.1-0.5
			s-0.2-0.2-0.3-0.2c-0.3,0-0.8,0.2-1.4,0.5c-0.5,0.3-1.3,0.9-2.2,1.6l-0.6-0.4c1.5-1.3,2.8-2.4,4.1-3c1.3-0.8,2.3-1.1,3-1.1
			c0.4,0,0.8,0.1,1,0.3c0.2,0.2,0.3,0.5,0.3,1c0,0.3-0.1,0.6-0.3,1.3c-0.2,0.5-0.4,1.2-0.8,2L316.3,504.7z M319.9,484
			c0-0.4,0.2-0.9,0.6-1.2c0.4-0.3,1-0.5,1.5-0.5c0.5,0,1.1,0.2,1.5,0.5c0.4,0.3,0.6,0.8,0.6,1.2c0,0.5-0.2,0.9-0.6,1.3
			c-0.4,0.3-0.9,0.5-1.5,0.5c-0.5,0-1.1-0.2-1.5-0.5C320.2,485,319.9,484.6,319.9,484z"/>
		<path fill="#231F20" d="M313.8,508.8c-0.5,0-1-0.1-1.3-0.3c-0.3-0.2-0.5-0.6-0.5-1.1c0-0.2,0.1-0.5,0.2-1s0.3-0.9,0.4-1.3l3.9-8.6
			c0.1-0.2,0.1-0.4,0.2-0.5c0-0.2,0.1-0.3,0.1-0.3c0-0.2,0-0.3-0.1-0.3c-0.2,0-0.5,0.1-1.2,0.4c-0.5,0.3-1.3,0.9-2.2,1.5l-0.2,0.1
			l-1.2-0.9l0.3-0.3c1.5-1.3,2.9-2.4,4.2-3.1c1.3-0.8,2.4-1.2,3.2-1.2c0.5,0,0.9,0.1,1.2,0.4c0.3,0.3,0.4,0.6,0.4,1.2
			c0,0.3-0.1,0.8-0.3,1.3c-0.2,0.5-0.4,1.2-0.9,2l-3.6,7.9c-0.1,0.2-0.2,0.4-0.2,0.5c-0.1,0.2-0.1,0.3-0.1,0.3c0,0.1,0,0.2,0.1,0.3
			c0.4,0,1-0.2,1.5-0.5c0.6-0.4,1.5-1.1,2.5-2l0.2-0.2l1.1,0.9l-0.2,0.2c-1.3,1.4-2.6,2.5-3.9,3.2
			C316.2,508.4,314.9,508.8,313.8,508.8z M316.7,494.5c0.2,0,0.4,0.1,0.6,0.3c0.1,0.2,0.1,0.4,0.1,0.6c0,0.1,0,0.3-0.1,0.5
			c0,0.2-0.1,0.4-0.2,0.6l-3.9,8.6c-0.2,0.4-0.3,0.9-0.4,1.2c-0.1,0.4-0.1,0.6-0.1,0.8c0,0.3,0.1,0.4,0.2,0.5
			c0.2,0.1,0.5,0.2,0.9,0.2c1,0,2.2-0.3,3.3-1.1c1.2-0.6,2.4-1.6,3.4-2.8l0,0c-1,0.9-1.7,1.5-2.4,1.8c-0.8,0.4-1.3,0.6-1.8,0.6
			c-0.2,0-0.4-0.1-0.6-0.3c-0.1-0.2-0.2-0.4-0.2-0.6s0-0.3,0.1-0.5c0.1-0.2,0.2-0.4,0.3-0.6l3.6-7.9c0.3-0.9,0.6-1.5,0.8-2
			c0.2-0.6,0.2-1,0.2-1.2c0-0.3-0.1-0.5-0.2-0.6c-0.1-0.1-0.4-0.2-0.8-0.2c-0.8,0-1.7,0.3-2.9,1.1c-1.2,0.6-2.4,1.6-3.8,2.8l0.1,0.1
			c0.8-0.6,1.5-1.1,2-1.4C315.8,494.7,316.3,494.5,316.7,494.5z M322.1,486.2c-0.6,0-1.3-0.2-1.7-0.6c-0.5-0.4-0.8-0.9-0.8-1.5
			c0-0.5,0.2-1.1,0.8-1.5c1-0.8,2.5-0.8,3.3,0c0.4,0.4,0.8,0.9,0.8,1.5c0,0.6-0.2,1.1-0.8,1.5C323.4,486,322.7,486.2,322.1,486.2z
			 M322.1,482.6c-0.5,0-0.9,0.1-1.3,0.4c-0.3,0.3-0.5,0.5-0.5,1c0,0.4,0.2,0.8,0.5,1c0.3,0.3,0.8,0.4,1.3,0.4c0.5,0,0.9-0.1,1.3-0.4
			c0.3-0.3,0.4-0.6,0.4-1c0-0.4-0.1-0.6-0.4-1C323.1,482.8,322.6,482.6,322.1,482.6z"/>
	</g>
	<g>
		<path fill="#231F20" d="M328.7,502.5c-0.5-0.5-1-1.1-1.3-1.7c-0.3-0.6-0.4-1.3-0.4-1.9c0-1.8,0.8-3.4,2.3-4.6
			c1.5-1.2,3.4-1.8,5.8-1.8c1,0,1.9,0.1,2.8,0.4c0.9,0.3,1.6,0.6,2.3,1.3c0.8-0.3,1.5-0.6,2.2-0.9c0.6-0.2,1.2-0.3,1.5-0.3
			c0.4,0,0.9,0.2,1.2,0.5c0.3,0.3,0.4,0.8,0.4,1.3c0,0.2-0.1,0.3-0.3,0.4c-0.2,0.1-0.5,0.1-1,0.1c-0.1,0-0.4-0.1-1-0.3
			c-0.5-0.2-0.9-0.3-1.3-0.3c-0.2,0-0.4,0-0.5,0c-0.2,0-0.3,0.1-0.5,0.1c0.1,0.4,0.3,1,0.3,1.4c0.1,0.4,0.1,0.9,0.1,1.2
			c0,1.9-0.8,3.6-2.2,4.8c-1.5,1.3-3.3,1.8-5.6,1.8c-0.8,0-1.5-0.1-2.2-0.2s-1.3-0.3-1.8-0.6c-0.4,0.2-0.9,0.4-1.1,0.6
			c-0.3,0.2-0.4,0.4-0.4,0.8c0,0.3,0.2,0.6,0.8,1c0.4,0.3,1.2,0.8,2.3,1.2l5.3,2.3c1.3,0.5,2.3,1.2,2.9,1.7c0.6,0.5,1,1.2,1,1.8
			c0,1.4-1,2.5-2.9,3.4c-1.9,1-4.3,1.4-7.2,1.4c-2.7,0-5-0.3-6.6-1.1c-1.6-0.8-2.5-1.7-2.5-2.8c0-0.9,0.6-1.7,1.9-2.6
			c1.3-0.9,3.1-1.5,5.6-2.3c-1.2-0.6-2.2-1.3-2.7-1.8c-0.5-0.5-0.9-1.1-0.9-1.5c0-0.4,0.2-0.8,0.6-1.2
			C325.8,503.9,326.8,503.3,328.7,502.5z M329.7,509.5c-1.9,0.5-3.3,1.1-4.2,1.7c-1,0.6-1.4,1.3-1.4,2c0,1,0.5,1.7,1.7,2.4
			s2.7,0.9,4.5,0.9c2,0,3.6-0.2,4.8-0.8c1.2-0.5,1.8-1.2,1.8-1.9c0-0.4-0.2-0.9-0.8-1.3c-0.5-0.4-1.3-0.9-2.3-1.3L329.7,509.5z
			 M335.1,493.3c-1.4,0-2.7,0.6-3.8,1.8s-1.6,2.7-1.6,4.4c0,1.1,0.3,1.9,0.9,2.6c0.5,0.6,1.4,1,2.5,1c1.4,0,2.7-0.6,3.8-1.8
			c1.1-1.2,1.6-2.7,1.6-4.4c0-1.1-0.3-1.9-0.9-2.6C337,493.6,336.1,493.3,335.1,493.3z"/>
		<path fill="#231F20" d="M329.9,517.9c-2.8,0-5-0.4-6.7-1.1c-1.8-0.8-2.7-1.8-2.7-3.1c0-1.1,0.6-2,2-2.9c1.2-0.8,2.8-1.4,5-2
			c-0.9-0.5-1.6-1-2-1.5c-0.6-0.6-1-1.2-1-1.8c0-0.5,0.2-1,0.8-1.4c0.4-0.3,1.4-0.9,2.9-1.6c-0.4-0.4-0.8-1-1-1.5
			c-0.3-0.6-0.4-1.4-0.4-2c0-1.9,0.8-3.7,2.4-5c1.6-1.3,3.6-1.9,6-1.9c1,0,1.9,0.1,2.9,0.4c0.9,0.2,1.5,0.6,2.2,1.2
			c0.8-0.3,1.4-0.5,2-0.8c0.6-0.2,1.2-0.3,1.6-0.3c0.5,0,1.1,0.2,1.4,0.6c0.3,0.4,0.5,1,0.5,1.5c0,0.2-0.1,0.5-0.5,0.8
			c-0.2,0.1-0.6,0.1-1.1,0.1c-0.1,0-0.4,0-1.1-0.3c-0.6-0.3-1.2-0.3-1.6-0.2c-0.1,0-0.1,0-0.2,0c0.1,0.3,0.2,0.8,0.2,1.1
			c0.1,0.4,0.1,0.9,0.1,1.3c0,2-0.8,3.8-2.3,5.1c-1.5,1.3-3.4,1.9-5.8,1.9c-0.8,0-1.5-0.1-2.3-0.2c-0.6-0.1-1.2-0.3-1.7-0.6
			c-0.3,0.2-0.6,0.3-0.9,0.5c-0.1,0.1-0.3,0.3-0.3,0.4c0,0.2,0.2,0.4,0.5,0.6c0.4,0.3,1.2,0.8,2.3,1.2l5.3,2.3
			c1.3,0.5,2.3,1.2,3,1.8c0.8,0.6,1.1,1.3,1.1,2c0,1.5-1.1,2.8-3,3.8C335.2,517.3,332.8,517.9,329.9,517.9z M335,492.6
			c-2.3,0-4.1,0.6-5.6,1.7c-1.4,1.2-2.2,2.6-2.2,4.4c0,0.6,0.1,1.3,0.4,1.8c0.2,0.5,0.6,1.1,1.2,1.6l0.3,0.3l-0.4,0.2
			c-1.7,0.8-2.8,1.4-3.1,1.7c-0.3,0.3-0.5,0.5-0.5,0.9c0,0.4,0.2,0.9,0.8,1.3c0.5,0.5,1.5,1.1,2.7,1.7l0.8,0.4l-0.8,0.2
			c-2.5,0.6-4.3,1.4-5.6,2.2c-1.2,0.8-1.7,1.5-1.7,2.3c0,1,0.8,1.8,2.3,2.5c1.6,0.8,3.8,1.1,6.5,1.1c2.8,0,5.2-0.4,7-1.4
			c1.8-0.9,2.7-1.9,2.7-3.2c0-0.5-0.3-1.1-0.9-1.5c-0.6-0.5-1.5-1.1-2.8-1.6l-5.3-2.3c-1.1-0.5-1.8-0.9-2.4-1.3
			c-0.5-0.4-0.9-0.9-0.9-1.2c0-0.3,0.2-0.6,0.5-1c0.3-0.2,0.6-0.5,1.2-0.8l0.1-0.1l0.1,0.1c0.5,0.3,1.1,0.5,1.7,0.6
			c0.6,0.1,1.3,0.2,2,0.2c2.2,0,4-0.6,5.4-1.8c1.4-1.2,2-2.7,2-4.5c0-0.3,0-0.8-0.1-1.2c-0.1-0.4-0.2-0.9-0.3-1.3l-0.1-0.3l0.3-0.1
			c0.2-0.1,0.4-0.1,0.6-0.1c0.6-0.1,1.2,0,2,0.3c0.6,0.3,0.9,0.3,0.9,0.3c0.4,0,0.8-0.1,0.9-0.1c0.1,0,0.1-0.1,0.1-0.1
			c0-0.4-0.1-0.9-0.4-1.1c-0.5-0.5-1.2-0.5-2.4-0.1c-0.6,0.2-1.3,0.4-2.2,0.9l-0.2,0.1l-0.1-0.1c-0.6-0.5-1.3-1-2.2-1.2
			C336.9,492.9,336,492.6,335,492.6z M330.4,516.8c-1.9,0-3.6-0.3-4.7-1c-1.3-0.6-1.9-1.5-1.9-2.6c0-0.9,0.5-1.6,1.5-2.4
			c1-0.6,2.4-1.3,4.3-1.8h0.1h0.1l4.3,1.8c1.1,0.4,1.8,0.9,2.4,1.3c0.5,0.4,0.9,1,0.9,1.5c0,1-0.6,1.7-2,2.3
			C334.2,516.6,332.4,516.8,330.4,516.8z M329.7,509.8c-1.8,0.5-3.1,1.1-4.1,1.6c-0.9,0.5-1.3,1.2-1.3,1.8c0,0.9,0.5,1.5,1.6,2
			s2.6,0.9,4.4,0.9c1.9,0,3.6-0.2,4.7-0.8c1.1-0.4,1.6-1,1.6-1.6c0-0.3-0.2-0.6-0.6-1.1c-0.4-0.4-1.2-0.8-2.3-1.2L329.7,509.8z
			 M333,503.4c-1.2,0-2-0.3-2.7-1.1c-0.6-0.6-1-1.6-1-2.8c0-1.7,0.5-3.3,1.7-4.6c1.2-1.3,2.5-1.9,4.1-1.9c1.2,0,2,0.3,2.7,1.1
			c0.6,0.6,1,1.6,1,2.8c0,1.7-0.5,3.3-1.7,4.6C335.9,502.8,334.5,503.4,333,503.4z M335.1,493.7c-1.4,0-2.5,0.5-3.6,1.7
			s-1.5,2.6-1.5,4.2c0,1,0.2,1.8,0.8,2.4c0.5,0.5,1.3,0.9,2.3,0.9c1.4,0,2.5-0.5,3.6-1.7s1.5-2.6,1.5-4.1c0-1.1-0.2-1.8-0.8-2.4
			C336.8,493.9,336.1,493.7,335.1,493.7z"/>
	</g>
	<g>
		<path fill="#231F20" d="M358.2,504.5c-1.2,1.3-2.6,2.3-4,2.9s-2.9,1.1-4.3,1.1c-1.5,0-2.7-0.4-3.7-1.2c-0.9-0.8-1.4-1.8-1.4-3.1
			c0-1.2,0.3-2.4,1-3.7c0.6-1.3,1.6-2.5,2.8-3.8c1.4-1.4,3-2.5,4.6-3.3c1.6-0.8,3.2-1.2,4.8-1.2c1.1,0,1.9,0.2,2.7,0.6
			c0.6,0.4,1.1,1.1,1.1,1.8c0,1.3-0.9,2.3-2.5,2.9c-1.6,0.6-4,1.1-6.9,1.1c-0.4,0-0.8,0-1,0c-0.2,0-0.4,0-0.6,0
			c-0.8,0.9-1.4,1.7-1.7,2.6c-0.4,0.9-0.6,1.6-0.6,2.4s0.3,1.4,0.9,1.9c0.5,0.4,1.4,0.8,2.4,0.8c0.9,0,1.8-0.2,2.8-0.6
			c1-0.4,2-1,3.1-1.8L358.2,504.5z M351.4,497.9c2.4,0,4.2-0.3,5.6-0.9c1.4-0.5,2-1.3,2-2.3c0-0.4-0.1-0.8-0.4-1.1
			c-0.3-0.2-0.8-0.3-1.3-0.3c-0.9,0-1.7,0.3-2.6,1.1C353.8,495.1,352.7,496.3,351.4,497.9z"/>
		<path fill="#231F20" d="M349.9,508.8c-1.6,0-2.9-0.4-3.9-1.2c-1-0.9-1.5-1.9-1.5-3.3c0-1.2,0.3-2.5,1-3.8c0.6-1.3,1.6-2.6,2.9-3.9
			c1.4-1.4,3-2.6,4.7-3.3c1.7-0.8,3.3-1.2,5-1.2c1.2,0,2.2,0.2,2.9,0.8c0.8,0.5,1.2,1.2,1.2,2c0,1.4-0.9,2.5-2.7,3.2
			c-1.6,0.8-4,1.1-7,1.1c-0.4,0-0.8,0-1,0s-0.3,0-0.4,0c-0.6,0.8-1.2,1.6-1.6,2.4c-0.3,0.8-0.5,1.5-0.5,2.3c0,0.6,0.2,1.3,0.8,1.6
			c1,0.9,2.9,0.9,4.8,0.1c1-0.4,1.9-1,3-1.7l0.2-0.2l1,1l-0.2,0.2c-1.3,1.3-2.6,2.3-4.1,3C352.8,508.5,351.3,508.8,349.9,508.8z
			 M358.1,492.6c-1.5,0-3.1,0.4-4.7,1.2c-1.6,0.8-3.1,1.8-4.5,3.2c-1.2,1.2-2.2,2.5-2.8,3.7c-0.6,1.2-0.9,2.4-0.9,3.4
			c0,1.2,0.4,2.2,1.3,2.8c0.9,0.8,2,1.1,3.4,1.1c1.4,0,2.8-0.3,4.1-1c1.3-0.6,2.6-1.5,3.7-2.6l-0.1-0.1c-1.1,0.8-2,1.3-2.9,1.7
			c-1,0.4-2,0.6-3,0.6c-1.1,0-1.9-0.3-2.6-0.8c-0.6-0.5-1-1.3-1-2.2c0-0.9,0.2-1.7,0.6-2.6s1-1.7,1.8-2.6l0.1-0.1h0.2
			c0.2,0,0.4,0,0.6,0c0.2,0,0.5,0,1,0c2.9,0,5.2-0.3,6.8-1c1.5-0.6,2.3-1.5,2.3-2.7c0-0.6-0.3-1.1-0.9-1.5
			C360,492.9,359.2,492.6,358.1,492.6z M350.8,498.3l0.4-0.5c1.3-1.7,2.5-2.9,3.3-3.7c1-0.8,1.9-1.1,2.8-1.1c0.6,0,1.2,0.1,1.5,0.4
			c0.4,0.3,0.5,0.8,0.5,1.3c0,1.1-0.8,1.9-2.3,2.6c-1.4,0.6-3.3,0.9-5.7,1H350.8z M357.3,493.7c-0.8,0-1.5,0.3-2.4,1
			c-0.8,0.6-1.7,1.6-2.8,2.9c1.9-0.1,3.6-0.3,4.7-0.9c1.3-0.5,1.8-1.2,1.8-1.9c0-0.3-0.1-0.6-0.3-0.8
			C358.2,493.7,357.8,493.7,357.3,493.7z"/>
	</g>
	<g>
		<path fill="#231F20" d="M363,508.3c1.8-3.4,3.2-6.2,4.1-8.4c1-2.2,1.4-3.7,1.4-4.4c0-0.2,0-0.3-0.1-0.4s-0.1-0.1-0.3-0.1
			c-0.3,0-0.9,0.2-1.5,0.6c-0.6,0.4-1.6,1.2-2.9,2.3l-0.6-0.5c2-1.7,3.8-3,5-3.8c1.3-0.8,2.3-1.2,3-1.2c0.4,0,0.8,0.1,1,0.3
			c0.2,0.2,0.3,0.5,0.3,1c0,0.3-0.1,0.8-0.2,1.2c-0.2,0.4-0.4,1.2-1,2L370,499l0.3,0.1c1.8-2.4,3.6-4,5.1-5.2
			c1.6-1.1,3.1-1.6,4.5-1.6c0.8,0,1.5,0.2,1.9,0.6c0.5,0.4,0.8,1,0.8,1.7c0,0.4-0.1,0.9-0.2,1.3s-0.4,1.1-0.9,2l-2.9,6
			c0,0.1-0.1,0.2-0.2,0.3c-0.3,0.8-0.5,1.2-0.5,1.4c0,0.1,0,0.1,0,0.2l0.1,0.1c0.3,0,0.9-0.2,1.6-0.6c0.8-0.4,1.7-1.1,2.8-1.8
			l0.4,0.6c-1.6,1.3-3.1,2.4-4.5,3.1s-2.6,1.2-3.4,1.2c-0.4,0-0.8-0.1-1-0.2c-0.2-0.2-0.3-0.4-0.3-0.8c0-0.3,0.1-0.8,0.4-1.3
			c0.3-0.5,0.9-1.6,1.8-3.2c1.3-2.3,2.2-4,2.7-5c0.4-1.1,0.6-1.8,0.6-2.4c0-0.4-0.1-0.8-0.3-0.9c-0.2-0.2-0.6-0.3-1.2-0.3
			c-1.7,0-3.7,1.3-5.9,3.9c-2.3,2.6-4.2,5.9-5.8,10H363V508.3z"/>
		<path fill="#231F20" d="M375.4,508.8c-0.5,0-0.9-0.1-1.2-0.3c-0.3-0.2-0.4-0.5-0.4-1c0-0.3,0.1-0.9,0.4-1.4
			c0.3-0.6,0.9-1.7,1.8-3.2c1.3-2.3,2.2-4,2.6-5c0.4-1,0.6-1.7,0.6-2.3c0-0.3-0.1-0.5-0.2-0.6c-0.2-0.1-0.5-0.2-1-0.2
			c-1.6,0-3.6,1.3-5.7,3.8c-2.3,2.6-4.2,5.9-5.8,9.9l-0.1,0.2h-4.1l0.2-0.5c1.8-3.4,3.2-6.2,4.1-8.4c0.9-2.2,1.4-3.6,1.4-4.3
			c0-0.2,0-0.2,0-0.3c-0.2,0-0.6,0.1-1.4,0.6c-0.6,0.4-1.6,1.2-2.9,2.2l-0.2,0.2l-1.1-1l0.3-0.2c2-1.7,3.8-3,5.1-3.8
			s2.4-1.2,3.2-1.2c0.5,0,0.9,0.1,1.2,0.4c0.3,0.3,0.4,0.6,0.4,1.2c0,0.3-0.1,0.8-0.3,1.3c-0.2,0.5-0.4,1.2-1,2.2l-0.4,0.9
			c1.5-1.8,3-3.2,4.3-4.2c1.6-1.2,3.2-1.7,4.7-1.7c0.9,0,1.6,0.2,2.2,0.8c0.6,0.5,0.9,1.2,0.9,1.9c0,0.4-0.1,0.9-0.2,1.4
			c-0.1,0.4-0.4,1.2-0.9,2l-2.9,6c0,0.1-0.1,0.2-0.2,0.3c-0.3,0.6-0.4,1-0.4,1.2c0.2-0.1,0.6-0.2,1.3-0.5c0.8-0.4,1.7-1.1,2.8-1.7
			l0.2-0.2l0.9,1.1l-0.2,0.2c-1.6,1.3-3.1,2.4-4.6,3.1C377.5,508.4,376.3,508.8,375.4,508.8z M378.1,494c0.6,0,1.1,0.1,1.4,0.4
			c0.3,0.2,0.5,0.6,0.5,1.2c0,0.6-0.2,1.5-0.8,2.6c-0.4,1.1-1.4,2.7-2.7,5.1c-1,1.6-1.5,2.7-1.8,3.2c-0.3,0.6-0.4,1-0.4,1.2
			c0,0.3,0.1,0.4,0.2,0.4c0.1,0.1,0.4,0.2,0.8,0.2c0.8,0,1.9-0.3,3.2-1.1s2.8-1.7,4.3-2.9l-0.1-0.1c-1,0.6-1.8,1.2-2.6,1.6
			c-1.2,0.6-1.6,0.6-1.8,0.6s-0.3-0.1-0.4-0.2c-0.1-0.1-0.1-0.2-0.1-0.3c0-0.2,0.1-0.5,0.5-1.6c0.1-0.1,0.1-0.2,0.2-0.3l2.9-6
			c0.4-0.9,0.6-1.5,0.8-1.9c0.1-0.4,0.2-0.9,0.2-1.2c0-0.6-0.2-1.1-0.6-1.4c-0.4-0.4-1.1-0.5-1.7-0.5c-1.4,0-2.9,0.5-4.3,1.6
			c-1.5,1.1-3.2,2.8-5.1,5.1l-0.1,0.2l-0.9-0.3l1.2-2.5c0.4-0.9,0.8-1.6,0.9-2c0.1-0.4,0.2-0.8,0.2-1.1c0-0.3-0.1-0.5-0.2-0.8
			c-0.1-0.1-0.4-0.2-0.8-0.2c-0.8,0-1.7,0.3-2.9,1.1s-2.7,1.8-4.6,3.4l0.1,0.1c1.2-1,2-1.6,2.7-2c1.2-0.8,1.9-1,2.3-0.4
			c0.1,0.1,0.1,0.3,0.1,0.6c0,0.9-0.4,2.4-1.4,4.5c-0.9,2-2.2,4.7-3.9,8h2.5c1.6-4,3.6-7.3,5.8-9.9C374.2,495.3,376.3,494,378.1,494
			z"/>
	</g>
	<g>
		<path fill="#231F20" d="M392.6,494.6h-3.7l0.6-1.5h3.7l1.7-3.7l3.3-0.3l-1.8,4h3l-0.6,1.5h-3l-4.5,9.6c-0.1,0.3-0.2,0.5-0.3,0.8
			c0,0.1-0.1,0.2-0.1,0.3c0,0.2,0.1,0.3,0.2,0.4s0.3,0.2,0.4,0.2c0.4,0,1.1-0.2,2-0.8c0.9-0.5,2.2-1.3,3.7-2.5l0.8,0.5
			c-1.9,1.7-3.8,3-5.4,4c-1.6,1-2.9,1.4-3.9,1.4c-0.5,0-0.9-0.1-1.2-0.3c-0.3-0.2-0.4-0.5-0.4-1c0-0.2,0.1-0.6,0.2-1.1
			c0.1-0.4,0.3-1,0.6-1.6L392.6,494.6z"/>
		<path fill="#231F20" d="M388.6,508.8c-0.5,0-1.1-0.1-1.4-0.4c-0.3-0.3-0.5-0.8-0.5-1.2c0-0.3,0.1-0.6,0.2-1.2
			c0.1-0.5,0.4-1.1,0.6-1.6l4.4-9.4h-3.6l1-2.2h3.7l1.7-3.7l4.1-0.4l-1.9,4h3l-1,2.2h-3l-4.4,9.4c-0.1,0.3-0.2,0.5-0.3,0.6
			c0,0.1,0,0.2,0,0.2c0,0.1,0,0.1,0.1,0.2s0.1,0.1,0.2,0.1c0.2,0,0.8-0.1,1.8-0.8c0.9-0.5,2.2-1.3,3.6-2.5l0.2-0.1l1.3,1l-0.3,0.2
			c-1.9,1.7-3.8,3-5.4,4C390.9,508.4,389.7,508.8,388.6,508.8z M389.4,494.3h3.7l-5,10.3c-0.3,0.5-0.5,1.1-0.6,1.6
			c-0.1,0.4-0.2,0.8-0.2,1c0,0.3,0.1,0.5,0.3,0.6c0.2,0.2,0.5,0.3,1,0.3c1,0,2.2-0.4,3.8-1.4c1.5-0.9,3.2-2.2,5.1-3.7l-0.2-0.2
			c-1.4,1.1-2.6,1.8-3.4,2.4c-1,0.5-1.7,0.9-2.2,0.9c-0.2,0-0.4-0.1-0.6-0.3c-0.2-0.2-0.3-0.4-0.3-0.6c0-0.1,0-0.2,0.1-0.4
			c0-0.1,0.1-0.3,0.3-0.8l4.6-9.8h3l0.4-0.9h-3l1.8-3.9l-2.6,0.2l-1.7,3.7H390L389.4,494.3z"/>
	</g>
	<g>
		<path fill="#231F20" d="M418.2,508.5l0.3-21V487c0-1.5-0.2-2.4-0.8-2.9c-0.5-0.4-1.5-0.6-3-0.6v-1c1.2,0,2.3,0.1,3.4,0.1
			c1.1,0,2.3,0,3.3,0s2.2,0,3.1,0s1.9,0,2.9-0.1v1c-1.8,0.1-3.1,0.4-3.7,0.9c-0.5,0.4-0.9,1.5-1,3.3l-0.4,16.6
			c1.7-1.7,3.2-3.4,4.6-5c1.4-1.5,2.6-2.9,3.6-4.1l4.5-5.5c1.2-1.4,1.9-2.4,2.4-3.1s0.6-1.3,0.6-1.8c0-0.4-0.3-0.6-0.9-0.9
			c-0.5-0.2-1.4-0.3-2.4-0.4v-1c0.8,0,1.6,0.1,2.4,0.1c0.8,0,1.6,0,2.4,0c0.9,0,1.6,0,2.4,0s1.6,0,2.4-0.1v1
			c-1.7,0.3-3.3,1.3-4.8,3.1c-0.1,0.1-0.2,0.2-0.2,0.3c-4.8,5.8-10.3,12.1-16.4,18.7c-1.2,1.3-2,2.3-2.5,2.7h-2.4V508.5z"/>
		<path fill="#231F20" d="M420.8,508.8h-2.9l0.3-21.8c0-1.7-0.3-2.4-0.6-2.6c-0.3-0.2-1.1-0.5-2.8-0.5h-0.3v-1.6h0.3
			c1.2,0,2.3,0.1,3.4,0.1c2.3,0,4.4,0,6.5,0c1,0,1.9,0,2.9-0.1h0.3v1.6h-0.3c-2.3,0.1-3.1,0.5-3.6,0.8c-0.3,0.2-0.8,1-0.8,3.1
			l-0.3,15.7c1.5-1.5,2.8-3,4.1-4.4c1.4-1.5,2.6-2.9,3.6-4.1l4.6-5.5c1.1-1.3,1.9-2.4,2.4-3.1c0.4-0.6,0.6-1.2,0.6-1.6
			c0-0.1,0-0.3-0.6-0.6c-0.5-0.2-1.3-0.3-2.3-0.3H435v-1.6h0.3c0.8,0,1.6,0.1,2.4,0.1c1.6,0,3.2,0,4.8,0c0.8,0,1.6,0,2.4-0.1h0.3
			v1.5h-0.3c-1.6,0.3-3.2,1.3-4.6,3c-0.1,0.1-0.2,0.2-0.2,0.3c-4.8,5.8-10.3,12.1-16.4,18.7c-1.2,1.3-2,2.3-2.5,2.7L420.8,508.8z
			 M418.5,508.2h1.9c0.4-0.5,1.3-1.4,2.4-2.6c6-6.7,11.5-12.9,16.4-18.7c0.1-0.1,0.1-0.1,0.2-0.3c1.5-1.7,3.1-2.9,4.7-3.2V483
			c-0.6,0-1.3,0-2,0.1c-1.6,0-3.2,0-4.8,0c-0.6,0-1.4,0-2-0.1v0.2c1,0,1.6,0.2,2.2,0.4c0.9,0.3,1.1,0.9,1.1,1.2
			c0,0.5-0.2,1.2-0.8,1.9c-0.4,0.8-1.3,1.8-2.4,3.1l-4.6,5.5c-1,1.2-2.2,2.5-3.6,4.1c-1.4,1.5-2.9,3.2-4.6,5l-0.6,0.6l0.4-17.5
			c0-1.9,0.4-3.1,1.1-3.6c0.6-0.4,1.8-0.8,3.6-0.9V483c-0.9,0-1.7,0-2.6,0.1c-2,0-4.2,0-6.5,0c-1,0-2,0-3.1-0.1v0.2
			c1.4,0,2.4,0.3,2.9,0.8c0.5,0.5,0.9,1.5,0.9,3.1v0.3L418.5,508.2z"/>
	</g>
	<g>
		<path fill="#231F20" d="M443.4,504.7c-0.1,0.2-0.2,0.4-0.2,0.6c-0.1,0.2-0.1,0.3-0.1,0.4c0,0.2,0,0.3,0.1,0.4s0.2,0.2,0.3,0.2
			c0.4,0,1-0.2,1.6-0.6c0.6-0.4,1.5-1.1,2.5-2l0.5,0.4c-1.2,1.4-2.5,2.4-3.8,3.1c-1.3,0.8-2.5,1.1-3.6,1.1c-0.4,0-0.9-0.1-1.1-0.3
			s-0.3-0.4-0.3-0.8c0-0.2,0.1-0.4,0.2-0.9s0.2-0.9,0.4-1.3l3.9-8.6c0.1-0.2,0.2-0.4,0.2-0.6s0.1-0.3,0.1-0.4c0-0.2,0-0.4-0.1-0.5
			s-0.2-0.2-0.3-0.2c-0.3,0-0.8,0.2-1.4,0.5c-0.5,0.3-1.3,0.9-2.2,1.6l-0.6-0.4c1.5-1.3,2.8-2.4,4.1-3c1.3-0.8,2.3-1.1,3-1.1
			c0.4,0,0.8,0.1,1,0.3c0.2,0.2,0.3,0.5,0.3,1c0,0.3-0.1,0.6-0.3,1.3c-0.2,0.5-0.4,1.2-0.8,2L443.4,504.7z M447.1,484
			c0-0.4,0.2-0.9,0.6-1.2c0.4-0.3,1-0.5,1.5-0.5c0.5,0,1.1,0.2,1.5,0.5c0.4,0.3,0.6,0.8,0.6,1.2c0,0.5-0.2,0.9-0.6,1.3
			c-0.4,0.3-0.9,0.5-1.5,0.5c-0.5,0-1.1-0.2-1.5-0.5C447.3,485,447.1,484.6,447.1,484z"/>
		<path fill="#231F20" d="M440.9,508.8c-0.5,0-1-0.1-1.3-0.3c-0.3-0.2-0.5-0.6-0.5-1.1c0-0.2,0.1-0.5,0.2-1s0.3-0.9,0.4-1.3l3.9-8.6
			c0.1-0.2,0.1-0.4,0.2-0.5c0-0.2,0.1-0.3,0.1-0.3c0-0.2,0-0.3-0.1-0.3c-0.2,0-0.5,0.1-1.2,0.4c-0.5,0.3-1.3,0.9-2.2,1.5l-0.2,0.1
			l-1.2-0.9l0.3-0.3c1.5-1.3,2.9-2.4,4.2-3.1c1.3-0.8,2.4-1.2,3.2-1.2c0.5,0,0.9,0.1,1.2,0.4c0.3,0.3,0.4,0.6,0.4,1.2
			c0,0.3-0.1,0.8-0.3,1.3c-0.2,0.5-0.4,1.2-0.9,2l-3.6,7.9c-0.1,0.2-0.2,0.4-0.2,0.5c-0.1,0.2-0.1,0.3-0.1,0.3c0,0.1,0,0.2,0.1,0.3
			c0.4,0,0.9-0.2,1.5-0.5c0.6-0.4,1.5-1.1,2.5-2l0.2-0.2l1.1,0.9l-0.2,0.2c-1.3,1.4-2.6,2.5-3.9,3.2
			C443.3,508.4,442,508.8,440.9,508.8z M443.7,494.5c0.2,0,0.4,0.1,0.6,0.3c0.1,0.2,0.1,0.4,0.1,0.6c0,0.1,0,0.3-0.1,0.5
			c0,0.2-0.1,0.4-0.2,0.6l-3.9,8.6c-0.2,0.4-0.3,0.9-0.4,1.2c-0.1,0.4-0.1,0.6-0.1,0.8c0,0.3,0.1,0.4,0.2,0.5
			c0.2,0.1,0.5,0.2,0.9,0.2c1,0,2.2-0.3,3.3-1.1c1.2-0.6,2.4-1.6,3.4-2.8l0,0c-1,0.9-1.7,1.5-2.4,1.8c-0.8,0.4-1.3,0.6-1.8,0.6
			c-0.2,0-0.4-0.1-0.6-0.3c-0.1-0.2-0.2-0.4-0.2-0.6s0-0.3,0.1-0.5c0.1-0.2,0.2-0.4,0.3-0.6l3.6-7.9c0.3-0.9,0.6-1.5,0.8-2
			c0.2-0.6,0.2-1,0.2-1.2c0-0.3-0.1-0.5-0.2-0.6c-0.1-0.1-0.4-0.2-0.8-0.2c-0.8,0-1.7,0.3-2.9,1.1c-1.2,0.6-2.4,1.6-3.8,2.8l0.1,0.1
			c0.8-0.6,1.5-1.1,2-1.4C442.9,494.7,443.4,494.5,443.7,494.5z M449.2,486.2c-0.6,0-1.3-0.2-1.7-0.6c-0.5-0.4-0.8-0.9-0.8-1.5
			c0-0.5,0.2-1.1,0.8-1.5c1-0.8,2.5-0.8,3.3,0c0.4,0.4,0.8,0.9,0.8,1.5c0,0.6-0.2,1.1-0.8,1.5C450.4,486,449.9,486.2,449.2,486.2z
			 M449.2,482.6c-0.5,0-0.9,0.1-1.3,0.4c-0.3,0.3-0.5,0.5-0.5,1c0,0.4,0.2,0.8,0.5,1c0.3,0.3,0.8,0.4,1.3,0.4c0.5,0,0.9-0.1,1.3-0.4
			c0.3-0.3,0.4-0.6,0.4-1c0-0.4-0.1-0.6-0.4-1C450.1,482.8,449.8,482.6,449.2,482.6z"/>
	</g>
	<g>
		<path fill="#231F20" d="M464.2,502.7c-1.4,1.8-2.9,3.3-4.5,4.3c-1.5,1-3,1.5-4.4,1.5c-1.1,0-1.9-0.3-2.7-1c-0.6-0.6-1-1.6-1-2.7
			c0-1.6,0.5-3.2,1.6-4.8c1.1-1.7,2.7-3.3,4.7-4.8c1.1-0.9,2.3-1.5,3.4-2c1.2-0.4,2.4-0.8,3.3-0.8c0.6,0,1.2,0.1,1.6,0.3
			c0.4,0.2,0.9,0.4,1.1,0.9l2.6-6.8v-0.1c0.4-1,0.5-1.7,0.5-2.2c0-0.4-0.2-0.9-0.8-1.1c-0.5-0.2-1.3-0.3-2.4-0.3h-0.3v-0.6h7.7
			l-8.2,21.4c0,0,0,0.1,0,0.2c-0.1,0.4-0.2,0.8-0.2,1c0,0.2,0,0.3,0.1,0.4s0.2,0.1,0.3,0.1c0.4,0,1-0.2,1.5-0.6
			c0.6-0.4,1.4-1.1,2.4-1.9l0.8,0.3c-1.4,1.6-2.8,2.9-4.1,3.8s-2.4,1.3-3.3,1.3c-0.5,0-0.9-0.1-1.2-0.3c-0.2-0.2-0.3-0.6-0.3-1.1
			c0-0.3,0.1-0.9,0.3-1.5C463.2,504.7,463.7,503.9,464.2,502.7z M455.2,504.8c0,0.4,0.2,0.9,0.5,1.2c0.3,0.3,0.8,0.4,1.3,0.4
			c0.8,0,1.6-0.3,2.7-1c1-0.6,2-1.5,3.1-2.6c1.2-1.2,2-2.6,2.8-4c0.6-1.4,1.1-2.7,1.1-3.7c0-0.5-0.2-1-0.5-1.3
			c-0.3-0.3-0.9-0.4-1.5-0.4c-0.8,0-1.5,0.2-2.3,0.8c-0.8,0.4-1.6,1.2-2.5,2.2c-1.4,1.5-2.6,3.1-3.4,4.7
			C455.6,502.7,455.2,504,455.2,504.8z"/>
		<path fill="#231F20" d="M455.3,508.8c-1.2,0-2.2-0.3-2.9-1.1c-0.8-0.8-1.1-1.7-1.1-2.9c0-1.6,0.5-3.3,1.7-5.1
			c1.1-1.7,2.7-3.3,4.7-5c1.2-0.9,2.4-1.6,3.6-2c2-0.8,4-1,5.3-0.4c0.3,0.1,0.6,0.3,0.9,0.5l2.4-6.4c0.3-1,0.5-1.6,0.5-2
			c0-0.2-0.1-0.5-0.5-0.8c-0.4-0.2-1.2-0.3-2.3-0.3h-0.6V482h8.4l-8.3,21.9v0.1c-0.2,0.5-0.2,0.8-0.2,0.9s0,0.2,0,0.2l0,0
			c0,0,0,0,0.1,0c0.3,0,0.8-0.2,1.4-0.5c0.5-0.4,1.4-1.1,2.3-1.9l0.1-0.1l1.4,0.6l-0.3,0.3c-1.4,1.6-2.8,2.9-4.1,3.9
			c-1.3,1-2.5,1.4-3.4,1.4c-0.6,0-1.1-0.1-1.4-0.4c-0.3-0.3-0.4-0.8-0.4-1.3c0-0.4,0.1-1,0.4-1.6c0.1-0.2,0.1-0.4,0.2-0.6
			c-1,1.1-2,1.9-3.1,2.6C458.3,508.3,456.7,508.8,455.3,508.8z M464.8,492.6c-1,0-2,0.2-3.2,0.6c-1.2,0.4-2.4,1.1-3.4,1.9
			c-2,1.5-3.6,3.1-4.6,4.7c-1.1,1.6-1.6,3.2-1.6,4.6c0,1,0.3,1.8,0.9,2.4c0.6,0.6,1.4,1,2.4,1c1.4,0,2.8-0.4,4.3-1.4
			c1.5-1,3-2.4,4.4-4.2l1.8-2.4l-1.3,2.7c-0.5,1.1-0.9,2-1.2,2.7c-0.2,0.6-0.3,1.1-0.3,1.4c0,0.4,0.1,0.6,0.2,0.9
			c0.2,0.2,0.5,0.2,1,0.2c0.9,0,1.9-0.4,3.1-1.3c1.2-0.8,2.4-1.9,3.7-3.4l-0.2-0.1c-0.9,0.9-1.6,1.5-2.3,1.8
			c-0.6,0.4-1.2,0.6-1.7,0.6c-0.3,0-0.5-0.2-0.6-0.3c-0.1-0.1-0.1-0.3-0.1-0.6c0-0.2,0.1-0.5,0.2-1.1c0,0,0-0.1,0-0.2l8-21h-6.8
			c1.1,0,1.9,0.1,2.5,0.4c0.8,0.3,1,1,1,1.4c0,0.5-0.2,1.2-0.6,2.3v0.1l-2.8,7.3l-0.3-0.5c-0.2-0.3-0.5-0.6-1-0.8
			C465.8,492.8,465.4,492.6,464.8,492.6z M457,506.8c-0.6,0-1.2-0.2-1.5-0.5c-0.4-0.3-0.6-0.9-0.6-1.4c0-1,0.4-2.3,1.3-4
			c0.9-1.6,2-3.2,3.4-4.7c0.9-1,1.7-1.7,2.6-2.2c0.9-0.5,1.7-0.8,2.5-0.8c0.8,0,1.3,0.2,1.7,0.5c0.4,0.3,0.6,0.9,0.6,1.5
			c0,1.1-0.3,2.4-1.1,3.9c-0.8,1.5-1.6,2.8-2.8,4.1c-1.1,1.2-2.2,2-3.2,2.7C458.8,506.4,457.9,506.8,457,506.8z M464.6,493.8
			c-0.6,0-1.4,0.2-2.2,0.6c-0.8,0.4-1.6,1.2-2.4,2c-1.4,1.5-2.5,3-3.3,4.6s-1.3,2.8-1.3,3.7c0,0.3,0.1,0.6,0.4,0.9
			c0.8,0.6,2,0.4,3.6-0.5c1-0.6,2-1.5,3.1-2.6c1.1-1.2,2-2.5,2.7-3.9c0.6-1.4,1-2.6,1-3.6c0-0.4-0.1-0.8-0.4-1.1
			C465.6,493.9,465.2,493.8,464.6,493.8z"/>
	</g>
	<g>
		<path fill="#231F20" d="M487.5,504.5c-1.2,1.3-2.6,2.3-4,2.9s-2.9,1.1-4.3,1.1c-1.5,0-2.7-0.4-3.7-1.2c-0.9-0.8-1.4-1.8-1.4-3.1
			c0-1.2,0.3-2.4,1-3.7c0.6-1.3,1.6-2.5,2.8-3.8c1.4-1.4,3-2.5,4.6-3.3c1.6-0.8,3.2-1.2,4.8-1.2c1.1,0,1.9,0.2,2.7,0.6
			c0.6,0.4,1.1,1.1,1.1,1.8c0,1.3-0.9,2.3-2.5,2.9c-1.6,0.6-4,1.1-6.9,1.1c-0.4,0-0.8,0-1,0c-0.2,0-0.4,0-0.6,0
			c-0.8,0.9-1.4,1.7-1.7,2.6c-0.4,0.9-0.6,1.6-0.6,2.4s0.3,1.4,0.9,1.9c0.5,0.4,1.4,0.8,2.4,0.8c0.9,0,1.8-0.2,2.8-0.6
			c1-0.4,2-1,3.1-1.8L487.5,504.5z M480.7,497.9c2.4,0,4.2-0.3,5.6-0.9c1.4-0.5,2-1.3,2-2.3c0-0.4-0.1-0.8-0.4-1.1
			c-0.3-0.2-0.8-0.3-1.3-0.3c-0.9,0-1.7,0.3-2.6,1.1C483.1,495.1,482,496.3,480.7,497.9z"/>
		<path fill="#231F20" d="M479.2,508.8c-1.6,0-2.9-0.4-3.9-1.2c-1-0.9-1.5-1.9-1.5-3.3c0-1.2,0.3-2.5,1-3.8s1.6-2.6,2.9-3.9
			c1.4-1.4,3-2.6,4.7-3.3c1.7-0.8,3.3-1.2,5-1.2c1.2,0,2.2,0.2,2.9,0.8c0.8,0.5,1.2,1.2,1.2,2c0,1.4-0.9,2.5-2.7,3.2
			c-1.6,0.8-4,1.1-7,1.1c-0.4,0-0.8,0-1,0c-0.2,0-0.3,0-0.4,0c-0.6,0.8-1.2,1.6-1.6,2.4c-0.3,0.8-0.5,1.5-0.5,2.3
			c0,0.6,0.2,1.3,0.8,1.6c1,0.9,2.9,0.9,4.8,0.1c1-0.4,1.9-1,3-1.7l0.2-0.2l1,1l-0.2,0.2c-1.3,1.3-2.6,2.3-4.1,3
			C482.1,508.5,480.6,508.8,479.2,508.8z M487.4,492.6c-1.5,0-3.1,0.4-4.7,1.2c-1.6,0.8-3.1,1.8-4.5,3.2c-1.2,1.2-2.2,2.5-2.8,3.7
			c-0.6,1.2-0.9,2.4-0.9,3.4c0,1.2,0.4,2.2,1.3,2.8c0.9,0.8,2,1.1,3.4,1.1c1.4,0,2.8-0.3,4.1-1c1.3-0.6,2.6-1.5,3.7-2.6l-0.1-0.1
			c-1.1,0.8-2,1.3-2.9,1.7c-1,0.4-2,0.6-3,0.6c-1.1,0-1.9-0.3-2.6-0.8c-0.6-0.5-1-1.3-1-2.2c0-0.9,0.2-1.7,0.6-2.6s1-1.7,1.8-2.6
			l0.1-0.1h0.2c0.2,0,0.4,0,0.6,0c0.2,0,0.5,0,1,0c2.9,0,5.2-0.3,6.8-1c1.5-0.6,2.3-1.5,2.3-2.7c0-0.6-0.3-1.1-0.9-1.5
			C489.2,492.9,488.4,492.6,487.4,492.6z M479.9,498.3l0.4-0.5c1.3-1.7,2.5-2.9,3.3-3.7c1-0.8,1.9-1.1,2.8-1.1
			c0.6,0,1.2,0.1,1.5,0.4c0.4,0.3,0.5,0.8,0.5,1.3c0,1.1-0.8,1.9-2.3,2.6c-1.4,0.6-3.3,0.9-5.7,1H479.9z M486.5,493.7
			c-0.8,0-1.5,0.3-2.4,1c-0.8,0.6-1.7,1.6-2.8,2.9c1.9-0.1,3.6-0.3,4.7-0.9c1.3-0.5,1.8-1.2,1.8-1.9c0-0.3-0.1-0.6-0.3-0.8
			C487.4,493.7,487.1,493.7,486.5,493.7z"/>
	</g>
	<g>
		<path fill="#231F20" d="M511,498.1c0,1.4-0.3,2.8-1,4c-0.6,1.2-1.6,2.4-2.9,3.4c-1.1,0.9-2.4,1.6-3.8,2c-1.4,0.4-2.8,0.8-4.2,0.8
			c-2,0-3.7-0.5-4.8-1.6c-1.3-1.1-1.8-2.5-1.8-4.2c0-1.4,0.3-2.7,1-4c0.6-1.3,1.6-2.5,2.9-3.4c1.1-0.9,2.3-1.5,3.7-2
			c1.4-0.5,2.8-0.8,4.2-0.8c2,0,3.6,0.5,4.8,1.6C510.3,495,511,496.4,511,498.1z M498.8,507.5c1,0,2-0.3,3.1-1
			c1.1-0.6,2.2-1.5,3-2.6c0.9-1.1,1.6-2.3,2.2-3.6c0.5-1.3,0.8-2.5,0.8-3.7c0-1.1-0.3-1.8-0.9-2.5c-0.5-0.6-1.3-1-2.2-1
			c-1.1,0-2.2,0.3-3.2,0.9c-1.1,0.5-2,1.5-3,2.6c-1,1.2-1.6,2.4-2.2,3.6c-0.5,1.3-0.8,2.5-0.8,3.7c0,1.1,0.3,1.9,0.9,2.5
			C497.1,507.2,497.8,507.5,498.8,507.5z"/>
		<path fill="#231F20" d="M499.2,508.8c-2,0-3.8-0.5-5.1-1.7s-1.9-2.7-1.9-4.5c0-1.4,0.3-2.8,1.1-4.2c0.6-1.3,1.7-2.5,3-3.6
			c1.1-0.9,2.4-1.6,3.8-2.2c1.4-0.5,2.9-0.8,4.3-0.8c2,0,3.8,0.5,5.1,1.7c1.3,1.1,1.9,2.6,1.9,4.5c0,1.5-0.3,2.9-1,4.2
			c-0.6,1.3-1.7,2.5-3,3.6c-1.1,0.9-2.4,1.6-3.8,2.2C502,508.5,500.6,508.8,499.2,508.8z M504.3,492.6c-1.4,0-2.8,0.2-4.1,0.8
			c-1.3,0.4-2.6,1.2-3.6,2c-1.3,1-2.2,2.2-2.8,3.3c-0.6,1.2-1,2.5-1,3.9c0,1.6,0.5,2.9,1.7,4c1.2,1,2.7,1.5,4.6,1.5
			c1.3,0,2.7-0.2,4.1-0.8c1.4-0.5,2.6-1.2,3.7-2c1.3-1,2.2-2.2,2.8-3.3s1-2.5,1-3.9c0-1.7-0.5-3-1.7-4
			C507.7,493.2,506.2,492.6,504.3,492.6z M498.8,507.8c-1.1,0-1.9-0.3-2.5-1.1c-0.6-0.6-1-1.6-1-2.7c0-1.3,0.2-2.6,0.8-3.9
			c0.5-1.3,1.3-2.5,2.2-3.7c1-1.2,2-2.2,3.1-2.7c1.1-0.6,2.3-1,3.4-1c1,0,1.8,0.3,2.5,1.1c0.6,0.6,1,1.6,1,2.7
			c0,1.2-0.2,2.5-0.8,3.8c-0.5,1.3-1.3,2.6-2.2,3.7c-1,1.2-2,2-3.1,2.7C501,507.5,499.8,507.8,498.8,507.8z M504.8,493.6
			c-1.1,0-2,0.3-3.1,0.9c-1,0.5-1.9,1.4-2.9,2.6c-0.9,1.1-1.6,2.3-2,3.4c-0.5,1.2-0.8,2.4-0.8,3.6c0,1,0.2,1.7,0.8,2.3
			c0.5,0.5,1.2,0.9,2,0.9c1,0,1.9-0.3,2.9-0.9c1.1-0.6,2-1.5,3-2.6c0.9-1.1,1.6-2.3,2-3.4c0.5-1.2,0.8-2.5,0.8-3.6
			c0-1-0.2-1.7-0.8-2.3C506.2,493.9,505.6,493.6,504.8,493.6z"/>
	</g>
	<g>
		<path fill="#231F20" d="M521.1,508.4v-1c1,0,1.9-0.3,2.8-0.9c0.9-0.5,2-1.6,3.3-3.2l17.5-20.6h1.8v20.8c0,1.7,0.2,2.8,0.8,3.2
			c0.5,0.4,1.5,0.6,3.1,0.6v1c-1.2,0-2.4-0.1-3.4-0.1c-1.1,0-2.3,0-3.2,0c-1.1,0-2.2,0-3.1,0c-1,0-1.9,0-2.9,0.1v-1
			c1.9-0.1,3.1-0.4,3.8-0.9c0.6-0.4,0.9-1.6,1-3.3l0.1-5h-9.4l-3.3,4c-0.8,1-1.4,1.7-1.7,2.3c-0.3,0.6-0.5,1.2-0.5,1.6
			c0,0.4,0.2,0.6,0.6,0.9c0.4,0.2,1.1,0.3,1.9,0.4v1c-0.6,0-1.4-0.1-2-0.1c-0.8,0-1.4,0-2.3,0c-0.8,0-1.5,0-2.3,0
			C522.7,508.3,522,508.3,521.1,508.4z M534,497.1h8.4l0.2-10L534,497.1z"/>
		<path fill="#231F20" d="M530.5,508.7h-0.3c-0.6,0-1.4-0.1-2-0.1c-1.4,0-2.9,0-4.5,0c-0.8,0-1.5,0-2.4,0.1h-0.3v-1.6h0.3
			c0.9,0,1.8-0.3,2.6-0.9c0.9-0.5,1.9-1.6,3.2-3.2l17.6-20.7h2.4v21.2c0,1.9,0.3,2.7,0.6,3c0.3,0.2,1.1,0.5,2.9,0.5h0.3v1.6h-0.3
			c-1.2,0-2.4-0.1-3.4-0.1c-2.3,0-4.4,0-6.4,0c-1,0-1.9,0-2.9,0.1h-0.3v-1.6h0.3c2.3-0.1,3.2-0.5,3.6-0.8c0.3-0.2,0.8-1,0.9-3
			l0.1-4.6h-8.9l-3.2,3.9c-0.8,0.9-1.4,1.7-1.7,2.3c-0.3,0.5-0.4,1.1-0.4,1.4c0,0.1,0,0.4,0.4,0.6c0.4,0.2,1,0.3,1.8,0.3h0.3v1.5
			H530.5z M543.7,507.9c1.1,0,2.2,0,3.3,0c1,0,2,0,3.1,0.1v-0.2c-1.5,0-2.5-0.3-3-0.8c-0.5-0.5-0.9-1.6-0.9-3.4v-20.5h-1.4
			l-17.3,20.5c-1.4,1.6-2.5,2.7-3.4,3.3c-0.9,0.5-1.7,0.9-2.7,1v0.2c0.6,0,1.4,0,2-0.1c1.6,0,3.1,0,4.5,0c0.5,0,1.2,0,1.7,0.1v-0.2
			c-0.8-0.1-1.3-0.2-1.7-0.4c-0.8-0.3-0.9-0.9-0.9-1.2c0-0.5,0.2-1.1,0.5-1.7c0.3-0.6,1-1.4,1.7-2.4l3.4-4.1h9.9l-0.1,5.3
			c0,1.8-0.4,3-1.1,3.6c-0.6,0.4-1.8,0.8-3.7,0.9v0.2c0.9,0,1.7-0.1,2.6-0.1C541.7,507.9,542.7,507.9,543.7,507.9z M542.8,497.5
			h-9.5l9.8-11.3L542.8,497.5z M534.8,496.7h7.4l0.2-8.8L534.8,496.7z"/>
	</g>
	<g>
		<path fill="#231F20" d="M554.3,508.3c1.8-3.4,3.2-6.2,4.1-8.4c1-2.2,1.4-3.7,1.4-4.4c0-0.2,0-0.3-0.1-0.4s-0.1-0.1-0.3-0.1
			c-0.3,0-0.9,0.2-1.5,0.6c-0.6,0.4-1.6,1.2-2.9,2.3l-0.6-0.5c2-1.7,3.8-3,5-3.8c1.3-0.8,2.3-1.2,3-1.2c0.4,0,0.8,0.1,1,0.3
			c0.2,0.2,0.3,0.5,0.3,1c0,0.3-0.1,0.8-0.2,1.2c-0.2,0.4-0.4,1.2-1,2l-1.1,2.2l0.3,0.1c1.8-2.4,3.6-4,5.1-5.2
			c1.6-1.1,3.1-1.6,4.5-1.6c0.8,0,1.5,0.2,1.9,0.6c0.5,0.4,0.8,1,0.8,1.7c0,0.4-0.1,0.9-0.2,1.3c-0.1,0.4-0.4,1.1-0.9,2l-2.9,6
			c0,0.1-0.1,0.2-0.2,0.3c-0.3,0.8-0.5,1.2-0.5,1.4c0,0.1,0,0.1,0,0.2l0.1,0.1c0.3,0,0.9-0.2,1.6-0.6s1.7-1.1,2.8-1.8l0.4,0.6
			c-1.6,1.3-3.1,2.4-4.5,3.1c-1.4,0.8-2.6,1.2-3.4,1.2c-0.4,0-0.8-0.1-1-0.2c-0.2-0.2-0.3-0.4-0.3-0.8c0-0.3,0.1-0.8,0.4-1.3
			c0.3-0.5,0.9-1.6,1.8-3.2c1.3-2.3,2.2-4,2.7-5c0.4-1.1,0.6-1.8,0.6-2.4c0-0.4-0.1-0.8-0.3-0.9c-0.2-0.2-0.6-0.3-1.2-0.3
			c-1.7,0-3.7,1.3-5.9,3.9c-2.3,2.6-4.2,5.9-5.8,10h-2.9V508.3z"/>
		<path fill="#231F20" d="M566.6,508.8c-0.5,0-0.9-0.1-1.2-0.3c-0.3-0.2-0.4-0.5-0.4-1c0-0.3,0.1-0.9,0.4-1.4
			c0.3-0.6,0.9-1.7,1.8-3.2c1.3-2.3,2.2-4,2.6-5s0.6-1.7,0.6-2.3c0-0.3-0.1-0.5-0.2-0.6c-0.2-0.1-0.5-0.2-1-0.2
			c-1.6,0-3.6,1.3-5.7,3.8c-2.3,2.6-4.2,5.9-5.8,9.9l-0.1,0.2h-4.1l0.2-0.5c1.8-3.4,3.2-6.2,4.1-8.4c0.9-2.2,1.4-3.6,1.4-4.3
			c0-0.2,0-0.2,0-0.3c-0.2,0-0.6,0.1-1.4,0.6c-0.6,0.4-1.6,1.2-2.9,2.2l-0.2,0.2l-1.1-1l0.3-0.2c2-1.7,3.8-3,5.1-3.8
			s2.4-1.2,3.2-1.2c0.5,0,0.9,0.1,1.2,0.4c0.3,0.3,0.4,0.6,0.4,1.2c0,0.3-0.1,0.8-0.3,1.3c-0.2,0.5-0.4,1.2-1,2.2l-0.4,0.9
			c1.5-1.8,3-3.2,4.3-4.2c1.6-1.2,3.2-1.7,4.7-1.7c0.9,0,1.6,0.2,2.2,0.8c0.6,0.5,0.9,1.2,0.9,1.9c0,0.4-0.1,0.9-0.2,1.4
			c-0.1,0.4-0.4,1.2-0.9,2l-2.9,6c0,0.1-0.1,0.2-0.2,0.3c-0.3,0.6-0.4,1-0.4,1.2c0.2-0.1,0.6-0.2,1.3-0.5c0.8-0.4,1.7-1.1,2.8-1.7
			l0.2-0.2l0.9,1.1l-0.2,0.2c-1.6,1.3-3.1,2.4-4.6,3.1C568.7,508.4,567.5,508.8,566.6,508.8z M569.4,494c0.6,0,1.1,0.1,1.4,0.4
			c0.3,0.2,0.5,0.6,0.5,1.2c0,0.6-0.2,1.5-0.8,2.6c-0.4,1.1-1.4,2.7-2.7,5.1c-1,1.6-1.5,2.7-1.8,3.2c-0.3,0.6-0.4,1-0.4,1.2
			c0,0.3,0.1,0.4,0.2,0.4c0.1,0.1,0.4,0.2,0.8,0.2c0.8,0,1.9-0.3,3.2-1.1c1.3-0.8,2.8-1.7,4.3-2.9l-0.1-0.1c-1,0.6-1.8,1.2-2.6,1.6
			c-1.2,0.6-1.6,0.6-1.8,0.6s-0.3-0.1-0.4-0.2c-0.1-0.1-0.1-0.2-0.1-0.3c0-0.2,0.1-0.5,0.5-1.6c0.1-0.1,0.1-0.2,0.2-0.3l2.9-6
			c0.4-0.9,0.6-1.5,0.8-1.9c0.1-0.4,0.2-0.9,0.2-1.2c0-0.6-0.2-1.1-0.6-1.4c-0.4-0.4-1.1-0.5-1.7-0.5c-1.4,0-2.9,0.5-4.3,1.6
			c-1.5,1.1-3.2,2.8-5,5.1l-0.1,0.2l-0.9-0.3l1.2-2.5c0.4-0.9,0.8-1.6,0.9-2c0.1-0.4,0.2-0.8,0.2-1.1c0-0.3-0.1-0.5-0.2-0.8
			c-0.1-0.1-0.4-0.2-0.8-0.2c-0.8,0-1.7,0.3-2.9,1.1s-2.7,1.8-4.6,3.4l0.1,0.1c1.2-1,2-1.6,2.7-2c1.2-0.8,1.9-1,2.3-0.4
			c0.1,0.1,0.1,0.3,0.1,0.6c0,0.9-0.4,2.4-1.4,4.5c-0.9,2-2.2,4.7-3.9,8h2.5c1.6-4,3.6-7.3,5.8-9.9C565.5,495.3,567.5,494,569.4,494
			z"/>
	</g>
	<g>
		<path fill="#231F20" d="M590.1,501.2c-1.9,2.6-3.7,4.4-5.2,5.5c-1.5,1.2-3,1.7-4.3,1.7c-0.9,0-1.6-0.2-2-0.8
			c-0.4-0.4-0.8-1.2-0.8-2c0-1.3,0.3-2.8,1.1-4.3c0.6-1.5,1.6-3,2.9-4.3c1.4-1.5,2.8-2.7,4.4-3.6c1.5-0.8,3-1.2,4.6-1.2
			c0.4,0,1.2,0.1,2.2,0.3c0.3,0.1,0.5,0.1,0.8,0.2l0.6-1.1l2.5,0.6l-5.1,11.3c-0.1,0.4-0.3,0.8-0.4,1.1c-0.1,0.3-0.1,0.5-0.1,0.8
			s0,0.3,0.1,0.4c0.1,0.1,0.2,0.2,0.3,0.2c0.3,0,0.9-0.2,1.5-0.8c0.6-0.5,1.5-1.3,2.6-2.3l0.8,0.4c-1.4,1.6-2.7,2.8-4,3.7
			c-1.3,0.9-2.3,1.3-3.1,1.3c-0.4,0-0.9-0.1-1.1-0.3c-0.3-0.2-0.4-0.4-0.4-0.8c0-0.4,0.2-1.1,0.5-1.9
			C588.6,504.5,589.2,503.1,590.1,501.2z M580.9,504.2c0,0.6,0.1,1.1,0.3,1.4c0.2,0.3,0.5,0.4,1.1,0.4c0.6,0,1.3-0.2,1.9-0.5
			c0.6-0.4,1.5-1.1,2.5-2c1.7-1.6,3-3.1,4.1-4.7c1-1.5,1.5-2.8,1.5-3.7c0-0.6-0.2-1.1-0.5-1.4c-0.3-0.3-0.9-0.4-1.6-0.4
			c-1.1,0-2.2,0.3-3.2,1c-1.1,0.6-2,1.6-3,2.9c-0.9,1.2-1.6,2.5-2.2,3.8C581.2,502.2,580.9,503.3,580.9,504.2z"/>
		<path fill="#231F20" d="M589.3,508.8c-0.5,0-1-0.1-1.3-0.3c-0.3-0.3-0.5-0.6-0.5-1.1c0-0.4,0.2-1.1,0.5-2c0.2-0.5,0.4-1.2,0.9-2
			c-1.4,1.6-2.6,2.9-3.8,3.8c-1.6,1.2-3.1,1.7-4.5,1.7c-1,0-1.7-0.3-2.3-0.9c-0.5-0.5-0.8-1.3-0.8-2.3c0-1.4,0.3-2.9,1.1-4.4
			c0.8-1.5,1.7-3,2.9-4.4c1.4-1.5,2.9-2.8,4.5-3.6c1.6-0.9,3.1-1.3,4.7-1.3c0.4,0,1.2,0.1,2.3,0.4l0.5,0.1l0.6-1.1l3,0.8l-5.2,11.6
			c-0.1,0.3-0.3,0.8-0.3,1c-0.1,0.4-0.1,0.5-0.1,0.6s0,0.2,0.1,0.3c0.1,0,0.5-0.1,1.3-0.6c0.6-0.5,1.5-1.2,2.6-2.3l0.2-0.2l1.3,0.6
			l-0.3,0.3c-1.4,1.6-2.8,2.8-4,3.8C591.3,508.4,590.2,508.8,589.3,508.8z M591.4,498.8l-1.1,2.5c-0.9,1.9-1.4,3.3-1.7,4.3
			c-0.4,1.1-0.4,1.6-0.4,1.8s0.1,0.4,0.3,0.5c0.8,0.5,2,0.2,3.9-1c1.2-0.8,2.4-1.9,3.7-3.3l-0.1-0.1c-1,1-1.8,1.6-2.5,2.2
			c-0.8,0.5-1.3,0.8-1.7,0.8c-0.2,0-0.4-0.1-0.5-0.3c-0.1-0.2-0.1-0.4-0.1-0.6s0-0.4,0.1-0.9c0.1-0.3,0.2-0.8,0.4-1.1l4.8-10.9
			l-1.8-0.4l-0.6,1.1l-1-0.2c-1-0.2-1.7-0.3-2.2-0.3c-1.5,0-3,0.4-4.4,1.2c-1.5,0.8-2.9,1.9-4.3,3.4c-1.2,1.3-2.2,2.7-2.8,4.2
			c-0.6,1.5-1,2.9-1,4.1c0,0.8,0.2,1.4,0.6,1.8c0.4,0.4,1,0.6,1.8,0.6c1.3,0,2.7-0.5,4.1-1.6c1.5-1.1,3.2-2.9,5.2-5.5L591.4,498.8z
			 M582.3,506.4c-0.6,0-1.1-0.2-1.4-0.5c-0.2-0.3-0.4-0.9-0.4-1.6c0-1,0.3-2.2,0.9-3.4c0.5-1.3,1.3-2.6,2.2-3.9c1-1.3,2-2.3,3.1-2.9
			c1.1-0.6,2.3-1.1,3.3-1.1c0.9,0,1.4,0.2,1.8,0.5c0.4,0.3,0.6,0.9,0.6,1.6c0,1-0.5,2.3-1.5,3.9c-1,1.5-2.4,3.1-4.1,4.7
			c-1,1-1.8,1.7-2.6,2C583.7,506.2,583,506.4,582.3,506.4z M590.2,493.6c-1,0-2,0.3-3,1c-1.1,0.6-2,1.6-3,2.8
			c-0.9,1.2-1.6,2.4-2.2,3.7c-0.5,1.3-0.8,2.4-0.8,3.2c0,0.8,0.1,1.1,0.2,1.2c0.1,0.2,0.4,0.3,0.9,0.3c0.5,0,1.1-0.2,1.7-0.5
			c0.6-0.3,1.5-1.1,2.5-1.9c1.7-1.6,3-3.1,4-4.6c1-1.5,1.4-2.7,1.4-3.6c0-0.5-0.1-0.9-0.4-1.1C591.3,493.7,590.8,493.6,590.2,493.6z
			"/>
	</g>
	<g>
		<path fill="#231F20" d="M607.5,486.7c0.3-0.6,0.5-1.2,0.6-1.5c0.1-0.3,0.2-0.6,0.2-0.9c0-0.3-0.2-0.6-0.6-0.9
			c-0.4-0.2-1.1-0.3-2-0.4v-0.6h6.9l-8.3,19.9l-0.1,0.2c-0.5,1.4-0.9,2.3-0.9,2.7c0,0.3,0.1,0.5,0.2,0.6c0.1,0.2,0.3,0.2,0.5,0.2
			c0.3,0,0.8-0.2,1.4-0.5c0.5-0.4,1.6-1.3,3.2-2.8l0.6,0.4c-1.3,1.6-2.7,2.9-4,3.8c-1.3,0.9-2.5,1.4-3.6,1.4c-0.6,0-1.2-0.2-1.6-0.5
			c-0.4-0.3-0.5-0.9-0.5-1.5c0-0.4,0.1-1.1,0.3-1.7c0.2-0.6,0.6-1.8,1.4-3.4L607.5,486.7z"/>
		<path fill="#231F20" d="M601.7,508.8c-0.8,0-1.4-0.2-1.8-0.5c-0.4-0.4-0.6-1-0.6-1.7c0-0.5,0.1-1.1,0.3-1.8
			c0.2-0.8,0.6-1.8,1.4-3.4l6.2-14.5c0.3-0.6,0.4-1.1,0.6-1.5c0.1-0.4,0.2-0.6,0.2-0.8s0-0.3-0.4-0.5s-1.1-0.3-1.9-0.4h-0.3v-1.3
			h7.8l-8.6,20.7c-0.6,1.6-0.9,2.3-0.9,2.5c0,0.2,0,0.3,0.1,0.5c0.1,0.1,0.1,0.1,0.3,0.1s0.5-0.1,1.2-0.5c0.5-0.3,1.6-1.3,3.1-2.7
			l0.2-0.2l1.1,0.9l-0.2,0.2c-1.3,1.6-2.7,3-4,3.9C604.1,508.3,602.9,508.8,601.7,508.8z M607.8,486.8l-6.2,14.5
			c-0.6,1.5-1.1,2.7-1.3,3.3c-0.2,0.6-0.3,1.2-0.3,1.6c0,0.5,0.1,1,0.4,1.2c0.3,0.3,0.8,0.4,1.3,0.4c1,0,2.2-0.4,3.3-1.3
			c1.2-0.9,2.5-2,3.7-3.4l-0.1-0.1c-1.5,1.4-2.5,2.3-3,2.6c-1.1,0.8-1.9,0.9-2.4,0.2c-0.2-0.2-0.3-0.5-0.3-0.9
			c0-0.3,0.1-0.9,0.9-2.8l0.1-0.2l8.1-19.5h-6l0,0c0.8,0.1,1.4,0.2,1.8,0.4c0.8,0.3,0.9,0.9,0.9,1.2c0,0.2-0.1,0.5-0.2,1
			C608.4,485.8,608.2,486.2,607.8,486.8z"/>
	</g>
	<g>
		<path fill="#231F20" d="M611.8,497.6c1-1.6,1.9-2.9,2.9-3.9c1-1,1.7-1.4,2.5-1.4c1.3,0,2.5,4,3.7,12c0.2,1.3,0.3,2.4,0.4,3
			c2-2.7,3.6-4.8,4.3-6.6c0.8-1.6,1.2-3.2,1.2-4.7c0-0.2,0-0.4,0-0.9s0-0.8,0-1c0-0.6,0.1-1.1,0.3-1.4c0.2-0.3,0.5-0.4,1-0.4
			c0.5,0,0.9,0.1,1.1,0.4c0.2,0.3,0.3,0.8,0.3,1.4c0,1.4-0.6,3.3-1.8,5.6c-1.2,2.3-3,5-5.4,8.1c-2.5,3.2-4.6,5.6-6.5,7.3
			c-1.8,1.6-3.2,2.5-4.3,2.5c-0.4,0-0.9-0.1-1.1-0.3s-0.4-0.5-0.4-0.9c0-0.4,0.2-0.8,0.5-1.1c0.3-0.2,0.8-0.4,1.4-0.4
			c0.2,0,0.4,0,0.8,0s0.5,0,0.8,0c0.6,0,1.6-0.8,3-2.3l0.3-0.3c0.9-0.9,1.4-1.5,1.6-1.9c0.2-0.4,0.3-1,0.3-1.4
			c0-0.5-0.1-1.6-0.4-3.1l-0.1-0.3l-1.8-8.6c-0.1-0.5-0.3-1.1-0.4-1.3c-0.2-0.3-0.3-0.4-0.5-0.4c-0.3,0-0.6,0.2-1.2,0.6
			c-0.4,0.4-1.1,1.2-1.7,2.2L611.8,497.6z"/>
		<path fill="#231F20" d="M611.5,517.9c-0.5,0-1-0.1-1.3-0.4c-0.3-0.3-0.5-0.6-0.5-1.2s0.2-1,0.6-1.3c0.4-0.3,1-0.4,1.6-0.4
			c0.2,0,0.4,0,0.8,0s0.5,0,0.6,0c0.3,0,1.1-0.3,2.8-2.2l0.3-0.3c0.9-0.9,1.4-1.5,1.6-1.9c0.2-0.4,0.3-0.9,0.3-1.3
			c0-0.5-0.1-1.5-0.4-3l-1.9-8.9c-0.1-0.5-0.2-1-0.4-1.2c-0.1-0.2-0.2-0.3-0.3-0.3c-0.1,0-0.4,0.1-1,0.6c-0.4,0.4-1,1.2-1.6,2
			l-0.2,0.2l-1.2-0.6l0.2-0.3c1-1.6,2-3,3-4c1.1-1.1,1.9-1.5,2.7-1.5c1,0,2.4,1.4,4,12.2c0.1,0.9,0.2,1.6,0.3,2.3
			c1.8-2.4,3.1-4.3,3.8-5.8c0.8-1.6,1.2-3.1,1.2-4.6c0-0.2,0-0.4,0-0.9c0-0.4,0-0.8,0-1c0-0.6,0.1-1.2,0.4-1.5
			c0.3-0.4,0.6-0.6,1.2-0.6c0.6,0,1.1,0.2,1.4,0.5c0.3,0.3,0.4,0.9,0.4,1.5c0,1.5-0.6,3.4-1.8,5.7c-1.2,2.3-3,5.1-5.4,8.1
			c-2.5,3.2-4.6,5.7-6.5,7.3C614.2,517,612.7,517.9,611.5,517.9z M611.8,515.3c-0.5,0-0.9,0.1-1.2,0.3c-0.2,0.2-0.4,0.4-0.4,0.8
			c0,0.3,0.1,0.5,0.3,0.6c0.2,0.2,0.5,0.2,0.9,0.2c1,0,2.4-0.8,4.1-2.4c1.8-1.6,4-4.1,6.5-7.2c2.4-3,4.1-5.7,5.3-8
			c1.2-2.3,1.7-4.1,1.7-5.4c0-0.5-0.1-0.9-0.3-1.2c-0.2-0.2-0.4-0.3-0.9-0.3c-0.3,0-0.5,0.1-0.6,0.3c-0.2,0.2-0.2,0.6-0.2,1.2
			c0,0.2,0,0.5,0,1c0,0.4,0,0.8,0,0.9c0,1.5-0.4,3.1-1.2,4.8c-0.8,1.7-2.3,3.9-4.3,6.6l-0.4,0.6l-0.1-0.8c-0.1-0.8-0.3-1.7-0.4-3
			c-1.6-10.6-2.9-11.6-3.3-11.6c-0.5,0-1.3,0.4-2.2,1.3c-0.9,0.9-1.8,2-2.7,3.6h0.1c0.6-0.9,1.1-1.5,1.6-1.9c1-1,1.7-1.1,2.3-0.2
			c0.2,0.3,0.3,0.8,0.5,1.4l1.9,8.9c0.3,1.6,0.5,2.6,0.5,3.2c0,0.5-0.1,1.1-0.4,1.6c-0.2,0.5-0.9,1.2-1.7,2l-0.3,0.3
			c-1.5,1.6-2.6,2.4-3.2,2.4c-0.1,0-0.4,0-0.8,0C612.4,515.3,612,515.3,611.8,515.3z"/>
	</g>
	<g>
		<path fill="#231F20" d="M637.4,494.6h-3.7l0.6-1.5h3.7l1.7-3.7l3.3-0.3l-1.8,4h3l-0.6,1.5h-3l-4.5,9.6c-0.1,0.3-0.2,0.5-0.3,0.8
			c0,0.1-0.1,0.2-0.1,0.3c0,0.2,0.1,0.3,0.2,0.4c0.1,0.1,0.3,0.2,0.4,0.2c0.4,0,1.1-0.2,2-0.8c0.9-0.5,2.2-1.3,3.7-2.5l0.8,0.5
			c-1.9,1.7-3.8,3-5.4,4c-1.6,1-2.9,1.4-3.9,1.4c-0.5,0-0.9-0.1-1.2-0.3c-0.3-0.2-0.4-0.5-0.4-1c0-0.2,0.1-0.6,0.2-1.1
			c0.1-0.4,0.3-1,0.6-1.6L637.4,494.6z"/>
		<path fill="#231F20" d="M633.4,508.8c-0.5,0-1.1-0.1-1.4-0.4c-0.3-0.3-0.5-0.8-0.5-1.2c0-0.3,0.1-0.6,0.2-1.2
			c0.1-0.5,0.4-1.1,0.6-1.6l4.4-9.4h-3.6l1-2.2h3.7l1.7-3.7l4.1-0.4l-1.9,4h3l-1,2.2h-3l-4.4,9.4c-0.1,0.3-0.2,0.5-0.3,0.6
			c0,0.1,0,0.2,0,0.2c0,0.1,0,0.1,0.1,0.2c0.1,0.1,0.1,0.1,0.2,0.1c0.2,0,0.8-0.1,1.8-0.8c0.9-0.5,2.2-1.3,3.6-2.5l0.2-0.1l1.3,1
			l-0.3,0.2c-1.9,1.7-3.8,3-5.4,4C635.8,508.4,634.5,508.8,633.4,508.8z M634.2,494.3h3.7l-5,10.3c-0.3,0.5-0.5,1.1-0.6,1.6
			c-0.1,0.4-0.2,0.8-0.2,1c0,0.3,0.1,0.5,0.3,0.6c0.2,0.2,0.5,0.3,1,0.3c1,0,2.2-0.4,3.8-1.4c1.5-0.9,3.2-2.2,5.1-3.7l-0.2-0.2
			c-1.4,1.1-2.6,1.8-3.4,2.4c-1,0.5-1.7,0.9-2.2,0.9c-0.2,0-0.4-0.1-0.6-0.3c-0.2-0.2-0.3-0.4-0.3-0.6c0-0.1,0-0.2,0.1-0.4
			c0-0.1,0.1-0.3,0.3-0.8l4.6-9.8h3l0.4-0.9h-3l1.8-3.9l-2.6,0.2l-1.7,3.7h-3.7L634.2,494.3z"/>
	</g>
	<g>
		<path fill="#231F20" d="M650.4,504.7c-0.1,0.2-0.2,0.4-0.2,0.6c-0.1,0.2-0.1,0.3-0.1,0.4c0,0.2,0,0.3,0.1,0.4
			c0.1,0.1,0.2,0.2,0.3,0.2c0.4,0,1-0.2,1.6-0.6c0.6-0.4,1.5-1.1,2.5-2l0.5,0.4c-1.2,1.4-2.5,2.4-3.8,3.1c-1.3,0.8-2.5,1.1-3.6,1.1
			c-0.4,0-0.9-0.1-1.1-0.3s-0.3-0.4-0.3-0.8c0-0.2,0.1-0.4,0.2-0.9c0.1-0.4,0.2-0.9,0.4-1.3l3.9-8.6c0.1-0.2,0.2-0.4,0.2-0.6
			s0.1-0.3,0.1-0.4c0-0.2,0-0.4-0.1-0.5s-0.2-0.2-0.3-0.2c-0.3,0-0.8,0.2-1.4,0.5c-0.5,0.3-1.3,0.9-2.2,1.6l-0.6-0.4
			c1.5-1.3,2.8-2.4,4.1-3c1.3-0.8,2.3-1.1,3-1.1c0.4,0,0.8,0.1,1,0.3c0.2,0.2,0.3,0.5,0.3,1c0,0.3-0.1,0.6-0.3,1.3
			c-0.2,0.5-0.4,1.2-0.8,2L650.4,504.7z M654.1,484c0-0.4,0.2-0.9,0.6-1.2c0.4-0.3,1-0.5,1.5-0.5c0.5,0,1.1,0.2,1.5,0.5
			s0.6,0.8,0.6,1.2c0,0.5-0.2,0.9-0.6,1.3c-0.4,0.3-0.9,0.5-1.5,0.5c-0.5,0-1.1-0.2-1.5-0.5C654.3,485,654.1,484.6,654.1,484z"/>
		<path fill="#231F20" d="M647.9,508.8c-0.5,0-1-0.1-1.3-0.3c-0.3-0.2-0.5-0.6-0.5-1.1c0-0.2,0.1-0.5,0.2-1c0.1-0.4,0.3-0.9,0.4-1.3
			l3.9-8.6c0.1-0.2,0.1-0.4,0.2-0.5c0-0.2,0.1-0.3,0.1-0.3c0-0.2,0-0.3-0.1-0.3c-0.2,0-0.5,0.1-1.2,0.4c-0.5,0.3-1.3,0.9-2.2,1.5
			l-0.2,0.1l-1.2-0.9l0.3-0.3c1.5-1.3,2.9-2.4,4.2-3.1c1.3-0.8,2.4-1.2,3.2-1.2c0.5,0,0.9,0.1,1.2,0.4s0.4,0.6,0.4,1.2
			c0,0.3-0.1,0.8-0.3,1.3c-0.2,0.5-0.4,1.2-0.9,2l-3.6,7.9c-0.1,0.2-0.2,0.4-0.2,0.5c-0.1,0.2-0.1,0.3-0.1,0.3c0,0.1,0,0.2,0.1,0.3
			c0.4,0,0.9-0.2,1.5-0.5c0.6-0.4,1.5-1.1,2.5-2l0.2-0.2l1.1,0.9l-0.2,0.2c-1.3,1.4-2.6,2.5-3.9,3.2
			C650.3,508.4,649,508.8,647.9,508.8z M650.7,494.5c0.2,0,0.4,0.1,0.6,0.3c0.1,0.2,0.1,0.4,0.1,0.6c0,0.1,0,0.3-0.1,0.5
			c0,0.2-0.1,0.4-0.2,0.6l-3.9,8.6c-0.2,0.4-0.3,0.9-0.4,1.2c-0.1,0.4-0.1,0.6-0.1,0.8c0,0.3,0.1,0.4,0.2,0.5
			c0.2,0.1,0.5,0.2,0.9,0.2c1,0,2.2-0.3,3.3-1.1c1.2-0.6,2.4-1.6,3.4-2.8l0,0c-1,0.9-1.7,1.5-2.4,1.8c-0.8,0.4-1.3,0.6-1.8,0.6
			c-0.2,0-0.4-0.1-0.6-0.3c-0.1-0.2-0.2-0.4-0.2-0.6s0-0.3,0.1-0.5c0.1-0.2,0.2-0.4,0.3-0.6l3.6-7.9c0.3-0.9,0.6-1.5,0.8-2
			c0.2-0.6,0.2-1,0.2-1.2c0-0.3-0.1-0.5-0.2-0.6c-0.1-0.1-0.4-0.2-0.8-0.2c-0.8,0-1.7,0.3-2.9,1.1c-1.2,0.6-2.4,1.6-3.8,2.8l0.1,0.1
			c0.8-0.6,1.5-1.1,2-1.4C649.9,494.7,650.4,494.5,650.7,494.5z M656.2,486.2c-0.6,0-1.3-0.2-1.7-0.6c-0.5-0.4-0.8-0.9-0.8-1.5
			c0-0.5,0.2-1.1,0.8-1.5c1-0.8,2.5-0.8,3.3,0c0.4,0.4,0.8,0.9,0.8,1.5c0,0.6-0.2,1.1-0.8,1.5C657.4,486,656.9,486.2,656.2,486.2z
			 M656.2,482.6c-0.5,0-0.9,0.1-1.3,0.4c-0.3,0.3-0.5,0.5-0.5,1c0,0.4,0.2,0.8,0.5,1c0.3,0.3,0.8,0.4,1.3,0.4c0.5,0,0.9-0.1,1.3-0.4
			c0.3-0.3,0.4-0.6,0.4-1c0-0.4-0.1-0.6-0.4-1C657.1,482.8,656.8,482.6,656.2,482.6z"/>
	</g>
	<g>
		<path fill="#231F20" d="M671.8,504.5c-1.3,1.3-2.7,2.3-4.1,2.9s-2.8,1-4.1,1c-1.6,0-2.8-0.4-3.7-1.2c-0.9-0.8-1.4-1.8-1.4-3.2
			c0-1.5,0.5-2.9,1.5-4.4c1-1.5,2.4-2.9,4.2-4.1c1.5-1,2.9-1.7,4.4-2.3c1.5-0.5,2.8-0.8,4-0.8c1.2,0,2,0.2,2.8,0.8
			c0.8,0.4,1.1,1.1,1.1,1.7c0,0.3-0.1,0.6-0.3,0.9c-0.2,0.2-0.5,0.3-1,0.3c-0.5,0-1.2-0.3-1.9-1.1l0,0c-0.5-0.5-1-1-1.3-1.2
			s-0.6-0.2-1-0.2c-0.6,0-1.4,0.3-2.3,0.9c-0.9,0.6-1.9,1.5-3,2.7c-1.3,1.3-2.3,2.6-2.9,3.8c-0.6,1.2-1,2.3-1,3.1s0.3,1.5,0.9,1.9
			c0.5,0.4,1.3,0.8,2.3,0.8c1,0,1.9-0.2,2.9-0.6c1-0.4,2-1.1,3.1-1.9L671.8,504.5z"/>
		<path fill="#231F20" d="M663.6,508.8c-1.6,0-2.9-0.4-3.9-1.3c-1-0.9-1.5-2-1.5-3.4c0-1.5,0.5-3.1,1.6-4.6c1.1-1.5,2.5-3,4.3-4.2
			c1.5-1,3-1.8,4.5-2.4c2.9-1.1,5.5-1.1,7.2-0.1c0.9,0.5,1.3,1.2,1.3,2c0,0.4-0.1,0.9-0.4,1.1c-0.3,0.2-0.6,0.4-1.2,0.4
			c-0.6,0-1.3-0.3-2-1.1l0,0l-0.1-0.1c-0.6-0.6-1.1-1-1.3-1.1s-0.5-0.2-0.8-0.2c-0.5,0-1.3,0.3-2.2,0.9c-0.9,0.5-1.8,1.5-3,2.7
			c-1.3,1.3-2.2,2.5-2.8,3.7c-0.6,1.1-1,2.2-1,3c0,0.8,0.2,1.3,0.8,1.7c1,0.9,2.9,0.9,4.8,0c1-0.4,1.9-1.1,3-1.9l0.2-0.1l1.3,0.9
			l-0.3,0.3c-1.4,1.3-2.8,2.4-4.2,3C666.4,508.5,665,508.8,663.6,508.8z M672.7,492.6c-1.2,0-2.5,0.2-3.9,0.8
			c-1.4,0.5-2.9,1.3-4.3,2.3c-1.7,1.2-3.1,2.6-4.1,4c-1,1.5-1.5,2.9-1.5,4.3c0,1.3,0.4,2.3,1.3,3c0.9,0.8,2,1.1,3.4,1.1
			c1.3,0,2.6-0.3,4-1c1.3-0.6,2.5-1.5,3.8-2.6l-0.2-0.1c-1.1,0.9-2,1.5-3,1.8c-1.1,0.4-2,0.6-3,0.6c-1.1,0-1.8-0.3-2.5-0.8
			c-0.6-0.5-1-1.3-1-2.3s0.3-2,1.1-3.3c0.6-1.2,1.6-2.5,2.9-3.8c1.2-1.2,2.2-2.2,3.1-2.8c1.4-1,2.6-1.3,3.6-0.6
			c0.3,0.2,0.8,0.5,1.3,1.1l0.1,0.1c0.6,0.6,1.2,1,1.6,1c0.3,0,0.5-0.1,0.8-0.2s0.2-0.3,0.2-0.5c0-0.5-0.3-1.1-1-1.4
			C674.6,492.9,673.8,492.6,672.7,492.6z"/>
	</g>
	<g>
		<path fill="#231F20" d="M678.5,508.5c-1.2,0-2-0.2-2.8-0.5c-0.8-0.3-1.2-0.8-1.2-1.2c0-0.5,0.1-1.1,0.3-1.4
			c0.2-0.4,0.4-0.5,0.8-0.5c0.1,0,0.8,0.3,1.7,1.1c1,0.8,2,1.1,3.1,1.1c0.9,0,1.5-0.1,1.9-0.4c0.4-0.3,0.8-0.6,0.8-1.2
			c0-0.3-0.1-0.6-0.2-1c-0.1-0.3-0.4-0.8-0.9-1.3c-0.1-0.2-0.3-0.4-0.6-0.8c-1.3-1.5-1.9-2.7-1.9-3.7c0-0.8,0.3-1.5,0.9-2.4
			c0.5-0.9,1.4-1.6,2.4-2.4c0.6-0.4,1.3-0.9,2-1.1c0.8-0.3,1.4-0.4,1.9-0.4c0.8,0,1.4,0.1,1.9,0.4s0.8,0.6,0.8,1.2
			c0,0.4-0.1,0.9-0.4,1.1c-0.3,0.2-0.6,0.4-1.2,0.4c-0.4,0-1.1-0.1-1.8-0.4c-0.8-0.3-1.3-0.4-1.7-0.4c-0.6,0-1.2,0.2-1.6,0.5
			c-0.4,0.4-0.6,0.9-0.6,1.4c0,0.6,0.4,1.4,1.3,2.4c0.2,0.3,0.4,0.5,0.5,0.8c0.6,0.9,1.2,1.5,1.4,2.2c0.3,0.6,0.4,1.2,0.4,1.7
			c0,1.3-0.8,2.5-2.2,3.4C682.1,507.9,680.4,508.5,678.5,508.5z"/>
		<path fill="#231F20" d="M678.5,508.8c-1.2,0-2.2-0.2-3-0.5c-0.9-0.4-1.3-0.9-1.3-1.5c0-0.6,0.1-1.2,0.3-1.6
			c0.3-0.5,0.6-0.8,1.1-0.8c0.2,0,0.4,0.1,1.9,1.1c1,0.6,1.9,1,2.9,1c0.8,0,1.3-0.1,1.7-0.4c0.3-0.2,0.5-0.5,0.5-0.9
			c0-0.3-0.1-0.5-0.2-0.9c-0.1-0.3-0.4-0.8-0.9-1.2c-0.1-0.2-0.3-0.4-0.6-0.6c-1.3-1.6-1.9-2.8-1.9-3.9c0-0.9,0.3-1.7,0.9-2.6
			s1.4-1.6,2.5-2.5c0.6-0.4,1.4-0.9,2.2-1.2c1.7-0.6,3.1-0.5,4.2,0.1c0.6,0.4,1,0.9,1,1.4c0,0.5-0.2,1-0.5,1.3
			c-0.6,0.6-1.7,0.8-3.4,0c-0.9-0.3-1.3-0.4-1.6-0.4c-0.5,0-1,0.2-1.4,0.5c-0.3,0.3-0.5,0.8-0.5,1.2c0,0.3,0.2,1.1,1.2,2.2
			c0.2,0.3,0.4,0.5,0.5,0.8c0.6,0.9,1.2,1.6,1.5,2.2c0.3,0.6,0.4,1.3,0.4,1.9c0,1.4-0.8,2.7-2.3,3.8
			C682.2,508.3,680.5,508.8,678.5,508.8z M675.6,505c-0.1,0-0.3,0.1-0.4,0.4c-0.2,0.3-0.3,0.8-0.3,1.3c0,0.4,0.5,0.8,1,0.9
			c0.8,0.3,1.6,0.5,2.7,0.5c1.8,0,3.4-0.5,4.7-1.4c1.3-1,1.9-1.9,1.9-3.1c0-0.5-0.1-1.1-0.4-1.6c-0.3-0.5-0.8-1.3-1.4-2
			c-0.1-0.2-0.3-0.4-0.5-0.6c-0.9-1.1-1.3-1.9-1.3-2.6c0-0.6,0.2-1.2,0.8-1.7c0.5-0.4,1.1-0.6,1.8-0.6c0.4,0,1,0.1,1.8,0.5
			c1.4,0.5,2.3,0.5,2.7,0.1c0.2-0.2,0.3-0.4,0.3-0.9c0-0.3-0.2-0.6-0.6-0.9c-0.8-0.5-2-0.6-3.6,0c-0.6,0.2-1.3,0.6-1.9,1.1
			c-1,0.8-1.8,1.5-2.4,2.3c-0.5,0.8-0.8,1.5-0.8,2.2c0,0.9,0.6,2,1.8,3.4c0.3,0.3,0.4,0.5,0.6,0.8c0.4,0.5,0.8,1,1,1.4
			c0.1,0.3,0.2,0.8,0.2,1.2c0,0.6-0.3,1.1-0.9,1.5c-0.5,0.3-1.2,0.4-2.2,0.4c-1.2,0-2.3-0.3-3.3-1.1
			C675.9,505.3,675.6,505.1,675.6,505z"/>
	</g>
	<g>
		<path fill="#231F20" d="M701,506.7l1.1-6h1.1c0.3,2.3,1,4,2.2,5.1c1.2,1.1,2.9,1.6,5.1,1.6c2,0,3.6-0.4,4.7-1.3
			c1.2-0.9,1.8-1.9,1.8-3.3c0-0.8-0.2-1.5-0.6-2.4c-0.4-0.9-1.2-1.6-2-2.5c-0.3-0.3-0.8-0.8-1.4-1.3c-3.9-3.4-5.8-6.1-5.8-8
			c0-1.7,0.9-3.2,2.6-4.4c1.7-1.2,3.9-1.7,6.6-1.7c1.1,0,2.3,0.1,3.6,0.4c1.3,0.2,2,0.4,2.2,0.4s0.3,0,0.4-0.1
			c0.1-0.1,0.2-0.2,0.4-0.4h1l-1,6.4H722c-0.5-1.9-1.3-3.4-2.3-4.2c-1-0.9-2.2-1.2-3.8-1.2c-1.5,0-2.8,0.3-3.8,1.1
			c-1,0.8-1.5,1.6-1.5,2.7c0,1.3,1.4,3.1,4.3,5.6c0.8,0.6,1.4,1.2,1.8,1.6c1.3,1.2,2.4,2.4,3,3.4c0.6,1.2,1,2.3,1,3.4
			c0,2.2-1,3.9-2.9,5.2s-4.5,1.8-8,1.8c-1.8,0-3.4-0.1-5-0.4C703.5,507.7,702.2,507.3,701,506.7z"/>
		<path fill="#231F20" d="M710,508.8c-1.8,0-3.4-0.1-5-0.4c-1.5-0.3-2.9-0.8-4-1.4l-0.2-0.1l1.2-6.6h1.6v0.3c0.2,2.2,1,3.8,2,4.8
			c1.1,1,2.8,1.5,4.8,1.5c1.9,0,3.4-0.4,4.6-1.2c1.1-0.8,1.6-1.8,1.6-3.1c0-0.8-0.2-1.4-0.6-2.3c-0.4-0.8-1.1-1.6-1.9-2.4l-1.4-1.3
			c-4-3.6-5.9-6.2-5.9-8.2c0-1.8,0.9-3.4,2.7-4.6c1.7-1.2,4-1.8,6.8-1.8c1.1,0,2.4,0.1,3.7,0.4c1.7,0.3,2,0.3,2.2,0.3
			c0.1,0,0.1,0,0.2-0.1c0.1,0,0.2-0.1,0.3-0.4l0.1-0.1h1.5l-1.1,7h-1.4l-0.1-0.2c-0.5-1.9-1.3-3.3-2.2-4.1c-0.9-0.8-2-1.2-3.6-1.2
			c-1.4,0-2.7,0.3-3.6,1c-0.9,0.6-1.4,1.5-1.4,2.5c0,0.9,0.8,2.4,4.2,5.4c0.9,0.6,1.4,1.2,1.8,1.6c1.4,1.2,2.4,2.4,3,3.6
			c0.6,1.2,1,2.4,1,3.6c0,2.3-1,4.1-3,5.4C716.1,508.2,713.3,508.8,710,508.8z M701.5,506.4c1.1,0.5,2.3,1,3.7,1.2
			c1.4,0.3,3.1,0.4,4.8,0.4c3.3,0,5.9-0.6,7.8-1.8s2.7-2.8,2.7-4.8c0-1.1-0.3-2.2-0.9-3.2c-0.6-1.1-1.6-2.3-2.9-3.3
			c-0.4-0.4-1-1-1.8-1.6c-2.9-2.5-4.4-4.4-4.4-5.8c0-1.2,0.5-2.3,1.6-3c1.1-0.8,2.4-1.2,4-1.2c1.7,0,3,0.4,4,1.3
			c1,0.9,1.7,2.3,2.3,4.1h0.3l0.9-5.7h-0.3c-0.1,0.2-0.2,0.3-0.3,0.4c-0.2,0.1-0.4,0.2-0.6,0.2c-0.1,0-0.5,0-2.3-0.4
			c-1.3-0.2-2.5-0.3-3.6-0.3c-2.6,0-4.7,0.5-6.4,1.7c-1.6,1.1-2.4,2.5-2.4,4.1c0,1.7,1.9,4.3,5.7,7.7l1.4,1.3c1,0.9,1.6,1.7,2,2.6
			s0.8,1.7,0.8,2.6c0,1.5-0.6,2.7-1.9,3.7c-1.3,0.9-2.9,1.3-5,1.3c-2.3,0-4.1-0.5-5.4-1.7c-1.2-1.1-1.9-2.7-2.3-5h-0.4L701.5,506.4z
			"/>
	</g>
	<g>
		<path fill="#231F20" d="M743.6,498.1c0,1.4-0.3,2.8-1,4c-0.6,1.2-1.6,2.4-2.9,3.4c-1.1,0.9-2.4,1.6-3.8,2
			c-1.4,0.5-2.8,0.8-4.2,0.8c-2,0-3.7-0.5-4.8-1.6c-1.3-1.1-1.8-2.5-1.8-4.2c0-1.4,0.3-2.7,1-4c0.6-1.3,1.6-2.5,2.9-3.4
			c1.1-0.9,2.3-1.5,3.7-2s2.8-0.8,4.2-0.8c2,0,3.6,0.5,4.8,1.6C743.1,495,743.6,496.4,743.6,498.1z M731.4,507.5c1,0,2-0.3,3.1-1
			c1.1-0.6,2.2-1.5,3-2.6s1.6-2.3,2.2-3.6c0.5-1.3,0.8-2.5,0.8-3.7c0-1.1-0.3-1.8-0.9-2.5c-0.5-0.6-1.3-1-2.2-1
			c-1.1,0-2.2,0.3-3.2,0.9c-1.1,0.5-2,1.5-3,2.6c-1,1.2-1.6,2.4-2.2,3.6c-0.5,1.3-0.8,2.5-0.8,3.7c0,1.1,0.3,1.9,0.9,2.5
			C729.7,507.2,730.5,507.5,731.4,507.5z"/>
		<path fill="#231F20" d="M731.9,508.8c-2,0-3.8-0.5-5.1-1.7c-1.3-1.2-1.9-2.7-1.9-4.5c0-1.4,0.3-2.8,1.1-4.2c0.6-1.3,1.7-2.5,3-3.6
			c1.1-0.9,2.4-1.6,3.8-2.2c1.4-0.5,2.9-0.8,4.3-0.8c2,0,3.8,0.5,5.1,1.7c1.3,1.1,1.9,2.6,1.9,4.5c0,1.5-0.3,2.9-1,4.2
			c-0.6,1.3-1.7,2.5-3,3.6c-1.1,0.9-2.4,1.6-3.8,2.2C734.7,508.5,733.3,508.8,731.9,508.8z M736.9,492.6c-1.4,0-2.8,0.2-4.1,0.8
			c-1.3,0.4-2.6,1.2-3.6,2c-1.3,1-2.2,2.2-2.8,3.3c-0.6,1.2-1,2.5-1,3.9c0,1.6,0.5,2.9,1.7,4c1.2,1,2.7,1.5,4.6,1.5
			c1.3,0,2.7-0.2,4.1-0.8c1.4-0.5,2.6-1.2,3.7-2c1.3-1,2.2-2.2,2.8-3.3c0.6-1.2,1-2.5,1-3.9c0-1.7-0.5-3-1.7-4
			C740.4,493.2,738.9,492.6,736.9,492.6z M731.4,507.8c-1.1,0-1.9-0.3-2.5-1.1c-0.6-0.6-1-1.6-1-2.7c0-1.3,0.2-2.6,0.8-3.9
			c0.5-1.3,1.3-2.5,2.2-3.7c1-1.2,2-2.2,3.1-2.7c1.1-0.6,2.3-1,3.4-1c1,0,1.8,0.3,2.5,1.1c0.6,0.6,1,1.6,1,2.7
			c0,1.2-0.2,2.5-0.8,3.8s-1.3,2.6-2.2,3.7c-1,1.2-2,2-3.1,2.7C733.6,507.5,732.5,507.8,731.4,507.8z M737.5,493.6
			c-1.1,0-2,0.3-3.1,0.9c-1,0.5-1.9,1.4-2.9,2.6c-0.9,1.1-1.6,2.3-2,3.4c-0.5,1.2-0.8,2.4-0.8,3.6c0,1,0.2,1.7,0.8,2.3
			c0.5,0.5,1.2,0.9,2,0.9c1,0,1.9-0.3,2.9-0.9c1.1-0.6,2-1.5,3-2.6c0.9-1.1,1.6-2.3,2-3.4c0.5-1.2,0.8-2.5,0.8-3.6
			c0-1-0.2-1.7-0.8-2.3C738.9,493.9,738.2,493.6,737.5,493.6z"/>
	</g>
	<g>
		<path fill="#231F20" d="M754.6,486.7c0.3-0.6,0.5-1.2,0.6-1.5c0.1-0.3,0.2-0.6,0.2-0.9c0-0.3-0.2-0.6-0.6-0.9
			c-0.4-0.2-1.1-0.3-2-0.4v-0.6h6.9l-8.3,19.9l-0.1,0.2c-0.5,1.4-0.9,2.3-0.9,2.7c0,0.3,0.1,0.5,0.2,0.6c0.1,0.2,0.3,0.2,0.5,0.2
			c0.3,0,0.8-0.2,1.4-0.5c0.5-0.4,1.6-1.3,3.2-2.8l0.6,0.4c-1.3,1.6-2.7,2.9-4,3.8c-1.3,0.9-2.5,1.4-3.6,1.4c-0.6,0-1.2-0.2-1.6-0.5
			c-0.3-0.3-0.5-0.9-0.5-1.5c0-0.4,0.1-1.1,0.3-1.7c0.2-0.6,0.6-1.8,1.4-3.4L754.6,486.7z"/>
		<path fill="#231F20" d="M748.8,508.8c-0.8,0-1.4-0.2-1.8-0.5c-0.4-0.4-0.6-1-0.6-1.7c0-0.5,0.1-1.1,0.3-1.8
			c0.2-0.8,0.6-1.8,1.4-3.4l6.2-14.5c0.3-0.6,0.4-1.1,0.6-1.5c0.1-0.4,0.2-0.6,0.2-0.8s0-0.3-0.4-0.5c-0.4-0.2-1.1-0.3-1.9-0.4h-0.3
			v-1.3h7.8l-8.6,20.7c-0.6,1.6-0.9,2.3-0.9,2.5c0,0.2,0,0.3,0.1,0.5c0.1,0.1,0.1,0.1,0.3,0.1s0.5-0.1,1.2-0.5
			c0.5-0.3,1.6-1.3,3.1-2.7l0.2-0.2l1.1,0.9l-0.2,0.2c-1.3,1.6-2.7,3-4,3.9C751.2,508.3,749.9,508.8,748.8,508.8z M754.9,486.8
			l-6.2,14.5c-0.6,1.5-1.1,2.7-1.3,3.3c-0.2,0.6-0.3,1.2-0.3,1.6c0,0.5,0.1,1,0.4,1.2c0.3,0.3,0.8,0.4,1.3,0.4c1,0,2.2-0.4,3.3-1.3
			c1.2-0.9,2.5-2,3.7-3.4l-0.1-0.1c-1.5,1.4-2.5,2.3-3,2.6c-1.1,0.8-1.9,0.9-2.4,0.2c-0.2-0.2-0.3-0.5-0.3-0.9
			c0-0.3,0.1-0.9,0.9-2.8l0.1-0.2l8.1-19.5h-6l0,0c0.8,0.1,1.4,0.2,1.8,0.4c0.8,0.3,0.9,0.9,0.9,1.2c0,0.2-0.1,0.5-0.2,1
			C755.5,485.8,755.2,486.2,754.9,486.8z"/>
	</g>
	<g>
		<path fill="#231F20" d="M781.3,492.5c-1.8,3.6-3.2,6.4-4.1,8.4c-0.9,2-1.3,3.3-1.3,4.1c0,0.2,0,0.4,0.1,0.5s0.2,0.2,0.3,0.2
			c0.3,0,0.9-0.2,1.5-0.6c0.6-0.4,1.4-1.1,2.3-1.9l0.8,0.4c-1.5,1.5-2.9,2.8-4.3,3.7s-2.5,1.3-3.4,1.3c-0.4,0-0.8-0.1-1-0.3
			c-0.2-0.2-0.3-0.5-0.3-1c0-0.5,0.2-1.5,0.8-2.7c0.5-1.3,1.3-3,2.3-5.2c-2.5,2.8-4.8,5.1-7.2,6.7c-2.3,1.6-4.1,2.5-5.5,2.5
			c-0.6,0-1.2-0.2-1.6-0.6c-0.4-0.4-0.5-1-0.5-1.6c0-0.6,0.2-1.6,0.6-2.6c0.4-1.1,1-2.2,1.7-3.3l2.2-3.4c0.2-0.2,0.3-0.5,0.4-0.8
			c0.1-0.2,0.1-0.4,0.1-0.6c0-0.1,0-0.1-0.1-0.2c-0.1,0-0.1-0.1-0.2-0.1c-0.6,0-1.9,0.5-3.7,1.8c-0.2,0.1-0.4,0.2-0.5,0.3l-0.4-0.6
			c1.6-1.4,3.1-2.4,4.4-3.1s2.4-1.1,3.2-1.1c0.4,0,0.8,0.1,1.1,0.3c0.3,0.2,0.4,0.4,0.4,0.8c0,0.4-0.5,1.6-1.6,3.4l-0.2,0.4
			c-0.2,0.4-0.5,1-1.1,1.7c-1.7,2.9-2.7,4.7-2.7,5.7c0,0.3,0.1,0.5,0.4,0.9c0.3,0.2,0.6,0.3,1.1,0.3c1.5,0,3.6-1.3,6.1-3.8
			c2.5-2.5,4.7-5.7,6.7-9.5h3.3V492.5z"/>
		<path fill="#231F20" d="M773.2,508.8c-0.5,0-1-0.1-1.2-0.4c-0.3-0.3-0.4-0.6-0.4-1.2c0-0.6,0.2-1.5,0.8-2.9
			c0.3-0.9,0.8-1.9,1.4-3.1c-1.9,2-3.9,3.8-5.7,5.1c-2.4,1.7-4.3,2.6-5.7,2.6c-0.8,0-1.4-0.2-1.8-0.6c-0.4-0.4-0.6-1.1-0.6-1.8
			s0.2-1.6,0.6-2.7c0.4-1.1,1-2.3,1.7-3.4l2.2-3.4c0.2-0.2,0.3-0.4,0.3-0.8c0.1-0.2,0.1-0.3,0.1-0.4c-0.4,0-1.4,0.3-3.4,1.7
			c-0.2,0.1-0.4,0.2-0.5,0.3l-0.2,0.2l-0.9-1.2l0.2-0.2c1.6-1.4,3.1-2.5,4.5-3.1c2.2-1.2,3.7-1.4,4.6-0.8c0.3,0.2,0.5,0.6,0.5,1
			c0,0.3-0.2,1.1-1.7,3.6l-0.2,0.4c-0.2,0.4-0.5,1-1.1,1.7c-2.2,3.6-2.6,5-2.6,5.6c0,0.1,0,0.3,0.3,0.5c0.2,0.2,0.5,0.3,0.9,0.3
			c1.4,0,3.4-1.3,5.8-3.7c2.5-2.5,4.7-5.6,6.6-9.4l0.1-0.2h4l-0.2,0.5c-1.8,3.6-3.2,6.4-4.1,8.3c-0.9,1.9-1.3,3.3-1.3,4
			c0,0.2,0,0.3,0,0.3c0.2,0,0.6-0.1,1.4-0.6c0.6-0.4,1.4-1.1,2.2-1.8l0.2-0.2l1.4,0.9l-0.3,0.3c-1.5,1.5-2.9,2.8-4.3,3.7
			C775.4,508.4,774.2,508.8,773.2,508.8z M776.4,497.2l-1.1,2.3c-1.1,2.2-1.8,3.9-2.3,5.2c-0.4,1.2-0.8,2.2-0.8,2.6
			c0,0.3,0.1,0.6,0.2,0.8c0.1,0.1,0.4,0.2,0.8,0.2c0.9,0,1.9-0.4,3.2-1.3c1.3-0.8,2.6-1.9,3.9-3.2l-0.2-0.1
			c-0.8,0.8-1.5,1.3-2.2,1.7c-1.2,0.8-1.9,1-2.4,0.4c-0.1-0.2-0.1-0.4-0.1-0.6c0-0.8,0.4-2.2,1.3-4.2c0.9-1.9,2.2-4.5,3.9-7.9h-2.5
			c-1.9,3.8-4.2,6.9-6.7,9.4c-2.6,2.6-4.6,3.9-6.4,3.9c-0.4,0-0.9-0.1-1.3-0.4c-0.4-0.3-0.5-0.6-0.5-1.1c0-1.1,0.9-2.9,2.7-5.9
			c0.4-0.8,0.8-1.3,1.1-1.7l0.2-0.4c1.5-2.5,1.6-3.1,1.6-3.2s0-0.3-0.3-0.4c-0.6-0.5-2-0.2-3.9,0.9c-1.2,0.6-2.6,1.6-4.1,2.9
			l0.1,0.1c0.1,0,0.1-0.1,0.2-0.1c1.8-1.2,3.1-1.8,3.8-1.8c0.1,0,0.3,0,0.4,0.1c0.1,0.1,0.2,0.2,0.2,0.4c0,0.2,0,0.5-0.1,0.8
			c-0.1,0.3-0.2,0.5-0.4,0.9l-2.2,3.4c-0.8,1.2-1.3,2.3-1.7,3.3c-0.4,1-0.5,1.8-0.5,2.5c0,0.6,0.1,1.1,0.4,1.4
			c0.3,0.3,0.8,0.5,1.3,0.5c1.3,0,3.1-0.9,5.4-2.4c2.3-1.6,4.6-3.9,7.1-6.7L776.4,497.2z"/>
	</g>
	<g>
		<path fill="#231F20" d="M789.6,494.6H786l0.6-1.5h3.7l1.7-3.7l3.3-0.3l-1.8,4h3l-0.6,1.5h-3l-4.5,9.6c-0.1,0.3-0.2,0.5-0.3,0.8
			c0,0.1-0.1,0.2-0.1,0.3c0,0.2,0.1,0.3,0.2,0.4c0.1,0.1,0.3,0.2,0.4,0.2c0.4,0,1.1-0.2,2-0.8c0.9-0.5,2.2-1.3,3.7-2.5l0.8,0.5
			c-1.9,1.7-3.8,3-5.4,4c-1.6,1-2.9,1.4-3.9,1.4c-0.5,0-0.9-0.1-1.2-0.3c-0.3-0.2-0.4-0.5-0.4-1c0-0.2,0.1-0.6,0.2-1.1
			c0.1-0.4,0.3-1,0.6-1.6L789.6,494.6z"/>
		<path fill="#231F20" d="M785.6,508.8c-0.5,0-1.1-0.1-1.4-0.4s-0.5-0.8-0.5-1.2c0-0.3,0.1-0.6,0.2-1.2c0.1-0.5,0.4-1.1,0.6-1.6
			l4.4-9.4h-3.6l1-2.2h3.7l1.7-3.7l4.1-0.4l-1.9,4h3l-1,2.2h-3l-4.4,9.4c-0.1,0.3-0.2,0.5-0.3,0.6c0,0.1,0,0.2,0,0.2
			c0,0.1,0,0.1,0.1,0.2s0.1,0.1,0.2,0.1c0.2,0,0.8-0.1,1.8-0.8c0.9-0.5,2.2-1.3,3.6-2.5l0.2-0.1l1.3,1l-0.3,0.2
			c-1.9,1.7-3.8,3-5.4,4C788,508.4,786.7,508.8,785.6,508.8z M786.5,494.3h3.7l-5,10.3c-0.3,0.5-0.5,1.1-0.6,1.6
			c-0.1,0.4-0.2,0.8-0.2,1c0,0.3,0.1,0.5,0.3,0.6c0.2,0.2,0.5,0.3,1,0.3c1,0,2.2-0.4,3.8-1.4c1.5-0.9,3.2-2.2,5.1-3.7l-0.2-0.2
			c-1.4,1.1-2.6,1.8-3.4,2.4c-1,0.5-1.7,0.9-2.2,0.9c-0.2,0-0.4-0.1-0.6-0.3c-0.2-0.2-0.3-0.4-0.3-0.6c0-0.1,0-0.2,0.1-0.4
			c0-0.1,0.1-0.3,0.3-0.8l4.6-9.8h3l0.4-0.9h-3l1.8-3.9l-2.6,0.2l-1.7,3.7H787L786.5,494.3z"/>
	</g>
	<g>
		<path fill="#231F20" d="M802.7,504.7c-0.1,0.2-0.2,0.4-0.2,0.6c-0.1,0.2-0.1,0.3-0.1,0.4c0,0.2,0,0.3,0.1,0.4s0.2,0.2,0.3,0.2
			c0.4,0,1-0.2,1.6-0.6c0.6-0.4,1.5-1.1,2.5-2l0.5,0.4c-1.2,1.4-2.5,2.4-3.8,3.1c-1.3,0.8-2.5,1.1-3.6,1.1c-0.4,0-0.9-0.1-1.1-0.3
			s-0.3-0.4-0.3-0.8c0-0.2,0.1-0.4,0.2-0.9c0.1-0.4,0.2-0.9,0.4-1.3l3.9-8.6c0.1-0.2,0.2-0.4,0.2-0.6s0.1-0.3,0.1-0.4
			c0-0.2,0-0.4-0.1-0.5s-0.2-0.2-0.3-0.2c-0.3,0-0.8,0.2-1.4,0.5c-0.5,0.3-1.3,0.9-2.2,1.6l-0.6-0.4c1.5-1.3,2.8-2.4,4.1-3
			c1.3-0.8,2.3-1.1,3-1.1c0.4,0,0.8,0.1,1,0.3c0.2,0.2,0.3,0.5,0.3,1c0,0.3-0.1,0.6-0.3,1.3c-0.2,0.5-0.4,1.2-0.8,2L802.7,504.7z
			 M806.3,484c0-0.4,0.2-0.9,0.6-1.2c0.4-0.3,1-0.5,1.5-0.5c0.5,0,1.1,0.2,1.5,0.5s0.6,0.8,0.6,1.2c0,0.5-0.2,0.9-0.6,1.3
			c-0.4,0.3-0.9,0.5-1.5,0.5c-0.5,0-1.1-0.2-1.5-0.5C806.5,485,806.3,484.6,806.3,484z"/>
		<path fill="#231F20" d="M800.2,508.8c-0.5,0-1-0.1-1.3-0.3c-0.3-0.2-0.5-0.6-0.5-1.1c0-0.2,0.1-0.5,0.2-1c0.1-0.4,0.3-0.9,0.4-1.3
			l3.9-8.6c0.1-0.2,0.1-0.4,0.2-0.5c0-0.2,0.1-0.3,0.1-0.3c0-0.2,0-0.3-0.1-0.3c-0.2,0-0.5,0.1-1.2,0.4c-0.5,0.3-1.3,0.9-2.2,1.5
			l-0.2,0.1l-1.2-0.9l0.3-0.3c1.5-1.3,2.9-2.4,4.2-3.1c1.3-0.8,2.4-1.2,3.2-1.2c0.5,0,0.9,0.1,1.2,0.4s0.4,0.6,0.4,1.2
			c0,0.3-0.1,0.8-0.3,1.3c-0.2,0.5-0.4,1.2-0.9,2l-3.6,7.9c-0.1,0.2-0.2,0.4-0.2,0.5c-0.1,0.2-0.1,0.3-0.1,0.3c0,0.1,0,0.2,0.1,0.3
			c0.4,0,0.9-0.2,1.5-0.5c0.6-0.4,1.5-1.1,2.5-2l0.2-0.2l1.1,0.9l-0.2,0.2c-1.3,1.4-2.6,2.5-3.9,3.2
			C802.5,508.4,801.3,508.8,800.2,508.8z M803.1,494.5c0.2,0,0.4,0.1,0.6,0.3c0.1,0.2,0.1,0.4,0.1,0.6c0,0.1,0,0.3-0.1,0.5
			c0,0.2-0.1,0.4-0.2,0.6l-3.9,8.6c-0.2,0.4-0.3,0.9-0.4,1.2c-0.1,0.4-0.1,0.6-0.1,0.8c0,0.3,0.1,0.4,0.2,0.5
			c0.2,0.1,0.5,0.2,0.9,0.2c1,0,2.2-0.3,3.3-1.1c1.2-0.6,2.4-1.6,3.4-2.8l0,0c-1,0.9-1.7,1.5-2.4,1.8c-0.8,0.4-1.3,0.6-1.8,0.6
			c-0.2,0-0.4-0.1-0.6-0.3c-0.1-0.2-0.2-0.4-0.2-0.6s0-0.3,0.1-0.5c0.1-0.2,0.2-0.4,0.3-0.6l3.6-7.9c0.3-0.9,0.6-1.5,0.8-2
			c0.2-0.6,0.2-1,0.2-1.2c0-0.3-0.1-0.5-0.2-0.6c-0.1-0.1-0.4-0.2-0.8-0.2c-0.8,0-1.7,0.3-2.9,1.1c-1.2,0.6-2.4,1.6-3.8,2.8l0.1,0.1
			c0.8-0.6,1.5-1.1,2-1.4C802.1,494.7,802.7,494.5,803.1,494.5z M808.5,486.2c-0.6,0-1.3-0.2-1.7-0.6c-0.5-0.4-0.8-0.9-0.8-1.5
			c0-0.5,0.2-1.1,0.8-1.5c1-0.8,2.5-0.8,3.3,0c0.4,0.4,0.8,0.9,0.8,1.5c0,0.6-0.2,1.1-0.8,1.5C809.8,486,809.1,486.2,808.5,486.2z
			 M808.5,482.6c-0.5,0-0.9,0.1-1.3,0.4c-0.3,0.3-0.5,0.5-0.5,1c0,0.4,0.2,0.8,0.5,1c0.3,0.3,0.8,0.4,1.3,0.4c0.5,0,0.9-0.1,1.3-0.4
			c0.3-0.3,0.4-0.6,0.4-1c0-0.4-0.1-0.6-0.4-1C809.4,482.8,809,482.6,808.5,482.6z"/>
	</g>
	<g>
		<path fill="#231F20" d="M829.8,498.1c0,1.4-0.3,2.8-1,4c-0.6,1.2-1.6,2.4-2.9,3.4c-1.1,0.9-2.4,1.6-3.8,2
			c-1.4,0.4-2.8,0.8-4.2,0.8c-2,0-3.7-0.5-4.8-1.6c-1.3-1.1-1.8-2.5-1.8-4.2c0-1.4,0.3-2.7,1-4c0.6-1.3,1.6-2.5,2.9-3.4
			c1.1-0.9,2.3-1.5,3.7-2s2.8-0.8,4.2-0.8c2,0,3.6,0.5,4.8,1.6S829.8,496.4,829.8,498.1z M817.6,507.5c1,0,2-0.3,3.1-1
			c1.1-0.6,2.2-1.5,3-2.6s1.6-2.3,2.2-3.6c0.5-1.3,0.8-2.5,0.8-3.7c0-1.1-0.3-1.8-0.9-2.5c-0.5-0.6-1.3-1-2.2-1
			c-1.1,0-2.2,0.3-3.2,0.9c-1.1,0.5-2,1.5-3,2.6c-1,1.2-1.6,2.4-2.2,3.6c-0.5,1.3-0.8,2.5-0.8,3.7c0,1.1,0.3,1.9,0.9,2.5
			C815.9,507.2,816.7,507.5,817.6,507.5z"/>
		<path fill="#231F20" d="M818.1,508.8c-2,0-3.8-0.5-5.1-1.7c-1.3-1.2-1.9-2.7-1.9-4.5c0-1.4,0.3-2.8,1.1-4.2c0.6-1.3,1.7-2.5,3-3.6
			c1.1-0.9,2.4-1.6,3.8-2.2c1.4-0.5,2.9-0.8,4.3-0.8c2,0,3.8,0.5,5.1,1.7c1.3,1.1,1.9,2.6,1.9,4.5c0,1.5-0.3,2.9-1,4.2
			c-0.6,1.3-1.7,2.5-3,3.6c-1.1,0.9-2.4,1.6-3.8,2.2C820.9,508.5,819.5,508.8,818.1,508.8z M823.1,492.6c-1.4,0-2.8,0.2-4.1,0.8
			c-1.3,0.4-2.6,1.2-3.6,2c-1.3,1-2.2,2.2-2.8,3.3c-0.6,1.2-1,2.5-1,3.9c0,1.6,0.5,2.9,1.7,4c1.2,1,2.7,1.5,4.6,1.5
			c1.3,0,2.7-0.2,4.1-0.8c1.4-0.5,2.6-1.2,3.7-2c1.3-1,2.2-2.2,2.8-3.3c0.6-1.2,1-2.5,1-3.9c0-1.7-0.5-3-1.7-4
			C826.6,493.2,825.1,492.6,823.1,492.6z M817.6,507.8c-1.1,0-1.9-0.3-2.5-1.1c-0.6-0.6-1-1.6-1-2.7c0-1.3,0.2-2.6,0.8-3.9
			c0.5-1.3,1.3-2.5,2.2-3.7c1-1.2,2-2.2,3.1-2.7c1.1-0.6,2.3-1,3.4-1c1,0,1.8,0.3,2.5,1.1c0.6,0.6,1,1.6,1,2.7
			c0,1.2-0.2,2.5-0.8,3.8c-0.5,1.3-1.3,2.6-2.2,3.7c-1,1.2-2,2-3.1,2.7C819.7,507.5,818.6,507.8,817.6,507.8z M823.7,493.6
			c-1.1,0-2,0.3-3.1,0.9c-1,0.5-1.9,1.4-2.9,2.6c-0.9,1.1-1.6,2.3-2,3.4c-0.5,1.2-0.8,2.4-0.8,3.6c0,1,0.2,1.7,0.8,2.3
			c0.5,0.5,1.2,0.9,2,0.9c1,0,1.9-0.3,2.9-0.9c1.1-0.6,2-1.5,3-2.6c0.9-1.1,1.6-2.3,2-3.4c0.5-1.2,0.8-2.5,0.8-3.6
			c0-1-0.2-1.7-0.8-2.3C825.1,493.9,824.4,493.6,823.7,493.6z"/>
	</g>
	<g>
		<path fill="#231F20" d="M832.5,508.3c1.8-3.4,3.2-6.2,4.1-8.4c1-2.2,1.4-3.7,1.4-4.4c0-0.2,0-0.3-0.1-0.4s-0.1-0.1-0.3-0.1
			c-0.3,0-0.9,0.2-1.5,0.6c-0.6,0.4-1.6,1.2-2.9,2.3l-0.6-0.5c2-1.7,3.8-3,5-3.8c1.3-0.8,2.3-1.2,3-1.2c0.4,0,0.8,0.1,1,0.3
			c0.2,0.2,0.3,0.5,0.3,1c0,0.3-0.1,0.8-0.2,1.2c-0.2,0.4-0.4,1.2-1,2l-1.1,2.2l0.3,0.1c1.8-2.4,3.6-4,5.1-5.2
			c1.6-1.1,3.1-1.6,4.5-1.6c0.8,0,1.5,0.2,1.9,0.6c0.5,0.4,0.8,1,0.8,1.7c0,0.4-0.1,0.9-0.2,1.3c-0.1,0.4-0.4,1.1-0.9,2l-2.9,6
			c0,0.1-0.1,0.2-0.2,0.3c-0.3,0.8-0.5,1.2-0.5,1.4c0,0.1,0,0.1,0,0.2l0.1,0.1c0.3,0,0.9-0.2,1.6-0.6c0.8-0.4,1.7-1.1,2.8-1.8
			l0.4,0.6c-1.6,1.3-3.1,2.4-4.5,3.1s-2.6,1.2-3.4,1.2c-0.4,0-0.8-0.1-1-0.2c-0.2-0.2-0.3-0.4-0.3-0.8c0-0.3,0.1-0.8,0.4-1.3
			c0.3-0.5,0.9-1.6,1.8-3.2c1.3-2.3,2.2-4,2.7-5c0.4-1.1,0.6-1.8,0.6-2.4c0-0.4-0.1-0.8-0.3-0.9c-0.2-0.2-0.6-0.3-1.2-0.3
			c-1.7,0-3.7,1.3-5.9,3.9c-2.3,2.6-4.2,5.9-5.8,10h-2.9V508.3z"/>
		<path fill="#231F20" d="M844.8,508.8c-0.5,0-0.9-0.1-1.2-0.3c-0.3-0.2-0.4-0.5-0.4-1c0-0.3,0.1-0.9,0.4-1.4
			c0.3-0.6,0.9-1.7,1.8-3.2c1.3-2.3,2.2-4,2.6-5s0.6-1.7,0.6-2.3c0-0.3-0.1-0.5-0.2-0.6c-0.2-0.1-0.5-0.2-1-0.2
			c-1.6,0-3.6,1.3-5.7,3.8c-2.3,2.6-4.2,5.9-5.8,9.9l-0.1,0.2H832l0.2-0.5c1.8-3.4,3.2-6.2,4.1-8.4c0.9-2.2,1.4-3.6,1.4-4.3
			c0-0.2,0-0.2,0-0.3c-0.2,0-0.6,0.1-1.4,0.6c-0.6,0.4-1.6,1.2-2.9,2.2l-0.2,0.2l-1.1-1l0.3-0.2c2-1.7,3.8-3,5.1-3.8
			c1.3-0.8,2.4-1.2,3.2-1.2c0.5,0,0.9,0.1,1.2,0.4c0.3,0.3,0.4,0.6,0.4,1.2c0,0.3-0.1,0.8-0.3,1.3c-0.2,0.5-0.4,1.2-1,2.2l-0.4,0.8
			c1.5-1.8,3-3.2,4.3-4.2c1.6-1.2,3.2-1.7,4.7-1.7c0.9,0,1.6,0.2,2.2,0.8c0.6,0.5,0.9,1.2,0.9,1.9c0,0.4-0.1,0.9-0.2,1.4
			c-0.1,0.4-0.4,1.2-0.9,2l-2.9,6c0,0.1-0.1,0.2-0.2,0.3c-0.3,0.6-0.4,1-0.4,1.2c0.2-0.1,0.6-0.2,1.3-0.5c0.8-0.4,1.7-1.1,2.8-1.7
			l0.2-0.2l0.9,1.1l-0.2,0.2c-1.6,1.3-3.1,2.4-4.6,3.1C846.9,508.4,845.8,508.8,844.8,508.8z M847.6,494c0.6,0,1.1,0.1,1.4,0.4
			c0.3,0.2,0.5,0.6,0.5,1.2c0,0.6-0.2,1.5-0.8,2.6c-0.4,1.1-1.4,2.7-2.7,5.1c-1,1.6-1.5,2.7-1.8,3.2c-0.3,0.6-0.4,1-0.4,1.2
			c0,0.3,0.1,0.4,0.2,0.4c0.1,0.1,0.4,0.2,0.8,0.2c0.8,0,1.9-0.3,3.2-1.1s2.8-1.7,4.3-2.9l-0.1-0.1c-1,0.6-1.8,1.2-2.6,1.6
			c-1.2,0.6-1.6,0.6-1.8,0.6s-0.3-0.1-0.4-0.2c-0.1-0.1-0.1-0.2-0.1-0.3c0-0.2,0.1-0.5,0.5-1.6c0.1-0.1,0.1-0.2,0.2-0.3l2.9-6
			c0.4-0.9,0.6-1.5,0.8-1.9c0.1-0.4,0.2-0.9,0.2-1.2c0-0.6-0.2-1.1-0.6-1.4c-0.4-0.4-1.1-0.5-1.7-0.5c-1.4,0-2.9,0.5-4.3,1.6
			c-1.5,1.1-3.2,2.8-5.1,5.1l-0.1,0.2l-0.9-0.3l1.2-2.5c0.4-0.9,0.8-1.6,0.9-2c0.1-0.4,0.2-0.8,0.2-1.1c0-0.3-0.1-0.5-0.2-0.8
			c-0.1-0.1-0.4-0.2-0.8-0.2c-0.8,0-1.7,0.3-2.9,1.1c-1.2,0.8-2.7,1.8-4.6,3.4l0.1,0.1c1.2-1,2-1.6,2.7-2c1.2-0.8,1.9-1,2.3-0.4
			c0.1,0.1,0.1,0.3,0.1,0.6c0,0.9-0.4,2.4-1.4,4.5c-0.9,2-2.2,4.7-3.9,8h2.5c1.6-4,3.6-7.3,5.8-9.9C843.7,495.3,845.8,494,847.6,494
			z"/>
	</g>
	<g>
		<path fill="#231F20" d="M858.3,508.5c-1.2,0-2-0.2-2.8-0.5c-0.8-0.3-1.2-0.8-1.2-1.2c0-0.5,0.1-1.1,0.3-1.4
			c0.2-0.4,0.4-0.5,0.8-0.5c0.1,0,0.8,0.3,1.7,1.1c1,0.8,2,1.1,3.1,1.1c0.9,0,1.5-0.1,1.9-0.4c0.4-0.3,0.8-0.6,0.8-1.2
			c0-0.3-0.1-0.6-0.2-1c-0.1-0.3-0.4-0.8-0.9-1.3c-0.1-0.2-0.3-0.4-0.6-0.8c-1.3-1.5-1.9-2.7-1.9-3.7c0-0.8,0.3-1.5,0.9-2.4
			c0.5-0.9,1.4-1.6,2.4-2.4c0.6-0.4,1.3-0.9,2-1.1c0.8-0.3,1.4-0.4,1.9-0.4c0.8,0,1.4,0.1,1.9,0.4c0.5,0.3,0.8,0.6,0.8,1.2
			c0,0.4-0.1,0.9-0.4,1.1c-0.3,0.2-0.6,0.4-1.2,0.4c-0.4,0-1.1-0.1-1.8-0.4c-0.8-0.3-1.3-0.4-1.7-0.4c-0.6,0-1.2,0.2-1.6,0.5
			c-0.4,0.4-0.6,0.9-0.6,1.4c0,0.6,0.4,1.4,1.3,2.4c0.2,0.3,0.4,0.5,0.5,0.8c0.6,0.9,1.2,1.5,1.4,2.2c0.3,0.6,0.4,1.2,0.4,1.7
			c0,1.3-0.8,2.5-2.2,3.4C861.8,507.9,860.2,508.5,858.3,508.5z"/>
		<path fill="#231F20" d="M858.3,508.8c-1.2,0-2.2-0.2-3-0.5c-0.9-0.4-1.3-0.9-1.3-1.5c0-0.6,0.1-1.2,0.3-1.6
			c0.3-0.5,0.6-0.8,1.1-0.8c0.2,0,0.4,0.1,1.9,1.1c1,0.6,1.9,1,2.9,1c0.8,0,1.3-0.1,1.7-0.4c0.3-0.2,0.5-0.5,0.5-0.9
			c0-0.3-0.1-0.5-0.2-0.9c-0.1-0.3-0.4-0.8-0.9-1.2c-0.1-0.2-0.3-0.4-0.6-0.6c-1.3-1.6-1.9-2.8-1.9-3.9c0-0.9,0.3-1.7,0.9-2.6
			c0.5-0.9,1.4-1.6,2.5-2.5c0.6-0.4,1.4-0.9,2.2-1.2c1.7-0.6,3.1-0.5,4.2,0.1c0.6,0.4,1,0.9,1,1.4c0,0.5-0.2,1-0.5,1.3
			c-0.6,0.6-1.7,0.8-3.4,0c-0.9-0.3-1.3-0.4-1.6-0.4c-0.5,0-1,0.2-1.4,0.5c-0.3,0.3-0.5,0.8-0.5,1.2c0,0.3,0.2,1.1,1.2,2.2
			c0.2,0.3,0.4,0.5,0.5,0.8c0.6,0.9,1.2,1.6,1.5,2.2c0.3,0.6,0.4,1.3,0.4,1.9c0,1.4-0.8,2.7-2.3,3.8
			C861.9,508.3,860.2,508.8,858.3,508.8z M855.3,505c-0.1,0-0.3,0.1-0.4,0.4c-0.2,0.3-0.3,0.8-0.3,1.3c0,0.4,0.5,0.8,1,0.9
			c0.8,0.3,1.6,0.5,2.7,0.5c1.8,0,3.4-0.5,4.7-1.4c1.3-1,1.9-1.9,1.9-3.1c0-0.5-0.1-1.1-0.4-1.6c-0.3-0.5-0.8-1.3-1.4-2
			c-0.1-0.2-0.3-0.4-0.5-0.6c-0.9-1.1-1.3-1.9-1.3-2.6c0-0.6,0.2-1.2,0.8-1.7c0.5-0.4,1.1-0.6,1.8-0.6c0.4,0,1,0.1,1.8,0.5
			c1.4,0.5,2.3,0.5,2.7,0.1c0.2-0.2,0.3-0.4,0.3-0.9c0-0.3-0.2-0.6-0.6-0.9c-0.8-0.5-2-0.6-3.6,0c-0.6,0.2-1.3,0.6-1.9,1.1
			c-1,0.8-1.8,1.5-2.4,2.3c-0.5,0.8-0.8,1.5-0.8,2.2c0,0.9,0.6,2,1.8,3.4c0.3,0.3,0.4,0.5,0.6,0.8c0.4,0.5,0.8,1,1,1.4
			c0.1,0.3,0.2,0.8,0.2,1.2c0,0.6-0.3,1.1-0.9,1.5c-0.5,0.3-1.2,0.4-2.2,0.4c-1.2,0-2.3-0.3-3.3-1.1
			C855.7,505.3,855.5,505.1,855.3,505z"/>
	</g>
</g>
<g>
	<path fill="#F3B11C" d="M278.8,383.5l-0.5-0.4l0.1,0.1l-0.9-0.5l0,0l-3.7-1.7l4.2,2.8C279.2,384.5,277.8,383,278.8,383.5
		L278.8,383.5z M276.9,382.2c-4-2.5-21.4-13.7-42-27.3L219,344.3l0,0c-1.7-1.7-3.4-1.7-5.1-0.1c-0.8,0.6-1.4,1.4-2.2,2
		c-17.5,14.4-54.6,14.3-65,0.1c-1.2-1.7-4-1.9-5.1-0.6l0,0l0,0c-5.5,4.1-13.6,7.4-20.6,9.1c-1.4,0.4-2.7,0.8-4,1
		c-2.2,0.3-4.3,0.4-6.5,0.5c-0.5,0-1.1,0-1.6-0.1c-10.2,0.1-22.3-2.6-31.2-8.6l0,0c-0.2-0.1-0.4-0.2-0.5-0.4
		c-0.2-0.1-0.4-0.3-0.6-0.4l0,0c-0.9-0.8-2.4-1.9-5,0.5l-0.1,0.1l0,0l-1,1c-8.5,8.5-7.1,7.1-15.1,15.1c-1.7,1.5-1.5,2.7-0.4,4l0,0
		l0.1,0.1l0,0l-0.1,0l0,0l0,0l0,0l0.1,0.1l0,0l0.1,0.1l0.1,0.1c9.1,9.7,8.4,29,4.6,42.6c-5.5,17-16.5,33-20.4,38.9
		c-4,7-7.2,12.9-8.2,18.5c-1.3,5.2-0.8,9.2,1.5,13.9c1.3,3.1,3.2,6.6,5.9,10.3c0.1,0.2,0.3,0.4,0.4,0.5c5.8,9.7,13.6,19.1,20.6,27.9
		c11.5,13.3,35.2,35.9,50.4,46.7c1,1,1.9,1.8,2.8,2.6c-1.9-1-4-2.3-6.1-3.7h0.1l0.2,0.1l0.1,0.1l0.1,0.1l0.1,0.1l0.1,0.1l0.1,0.1
		l0.1,0.1l0.1,0.1l0.1,0.1l0.1,0.1l0.1,0.1l0.1,0.1l0.1,0.1l0.1,0.1l0.2,0.1l0.1,0.1l0.1,0.1l0.1,0.1l0.1,0.1l0.1,0.1l0.6,0.4
		l0.1,0.1l0.1,0.1l0,0l0.2,0.1h0.1l0.1,0.1l1,0.5h0.1l0.1,0.1l0,0l0,0h0.1l1.3,0.8c-27.3-16.8-68.1-52.8-85.9-78
		c-0.2-0.3-0.3-0.5-0.5-0.9l0,0v-0.1c-0.2-0.2-0.3-0.5-0.5-0.8l0,0c-0.2-0.3-0.3-0.5-0.5-0.8l0,0l0,0l0,0c-0.1-0.3-0.3-0.5-0.4-0.9
		l0,0c-0.1-0.3-0.3-0.5-0.4-0.9l0,0c-0.1-0.2-0.2-0.5-0.4-0.8l-0.1-0.1l-0.3-0.6l-0.1-0.2c-0.1-0.2-0.2-0.4-0.3-0.6l-0.1-0.1
		c-0.1-0.2-0.2-0.4-0.3-0.6l-0.5-1.3c-0.1-0.2-0.2-0.4-0.3-0.6l-0.1-0.1c-0.1-0.2-0.2-0.4-0.2-0.6l-0.1-0.2l-0.2-0.5l-0.1-0.2
		l-0.2-0.5l-0.1-0.3l-0.1-0.4l-0.1-0.3l-0.1-0.4l-0.1-0.3l-0.1-0.4l-0.1-0.3l0,0v-0.2V478c0-0.2-0.1-0.3-0.1-0.5l0,0l0,0
		c-1.3-6.1-0.5-11.7,1.5-17.5c0.1-0.4,0.3-0.8,0.4-1.2l0.1-0.2l0,0c0.1-0.2,0.2-0.4,0.3-0.6v-0.1l0.2-0.4l0.1-0.2l0.1-0.2l0.1-0.2
		l0.1-0.2v-0.1l0.2-0.3l0,0l0.1-0.2l0.2-0.4l0.1-0.2l0.1-0.2l0.1-0.2l0.1-0.2v-0.1l0.2-0.4l0.1-0.2l0.1-0.2l0.1-0.2l0.1-0.2l0.1-0.2
		l0.1-0.2l0.1-0.2l0.1-0.2l0.1-0.2l0.1-0.2l0.1-0.2l0.1-0.2l0.1-0.2l0.1-0.2v-0.1l0.1-0.2l0.1-0.2l0.1-0.2v-0.1l0.1-0.2l0.1-0.2
		l0.1-0.2v-0.1l0.1-0.2l0.1-0.2l0.1-0.2v-0.1l0.1-0.2l0.1-0.2l0.1-0.2v-0.1l0.1-0.2l0.1-0.2l0.1-0.2l0.3-0.5l0.1-0.2v-0.1l0.1-0.2
		l0.1-0.2l0.1-0.2v-0.1l0.1-0.2l0.1-0.2L29,445v-0.1c2.2-3.2,4.3-6.8,6.6-10.6l0.1-0.2l0.1-0.2l0.2-0.3l0,0l0.2-0.3l0.1-0.2l0.1-0.1
		l0.2-0.4l0.1-0.1l0.1-0.3l0.2-0.3l0,0l0.2-0.4l0.1-0.2l0.1-0.2l0.2-0.4l0,0L38,430l0.1-0.2l0.1-0.1l0.2-0.4v-0.1l0.2-0.3l0.2-0.3
		v-0.1L39,428l0.1-0.2l0.1-0.2l0.2-0.4l0,0l0.2-0.4l0.1-0.2l0.1-0.2l0.2-0.4v-0.1v-0.1l0.3-0.6l0.1-0.1l0.3-0.5l0,0L41,424l0.2-0.4
		l0,0l0.2-0.4l0.1-0.2l0,0l0.3-0.6l0,0l0.2-0.4l0.1-0.3l0.1-0.1l0.2-0.4l0.2-0.3v-0.1l0.2-0.4V420l0.2-0.4l0,0l0.2-0.4l0,0l0.2-0.4
		l0,0l1.8-0.6l0.2-0.5v-0.1l0.1-0.2l0.2-0.5v-0.1l0.2-0.4l0.2-0.4v-0.1c0.2-0.4,0.3-0.9,0.5-1.3l0.1-0.2l0,0l0.2-0.5v-0.1l0.1-0.3
		V413l0.2-0.5v-0.1l0.2-0.4l0.1-0.2l0.1-0.3l0,0l0.2-0.5l0,0l0.1-0.2l0.2-0.6l0,0l0.3-0.8l0,0l0.3-0.8l0,0v-0.1l0.2-0.6l0.1-0.2
		l0.2-0.6v-0.1v-0.1l0.2-0.5V406v-0.1l0.2-0.6l0.1-0.2l0.2-0.6c1.6-5.7,2.6-12.1,2.2-18c-0.6-8.6-4.5-17-10-23.1l0,0l0,0l0,0
		c-0.3-0.5-0.1-1.2,0.5-1.9l0,0l0,0l0,0l0,0l0,0l0,0l0,0l0,0l0,0l0,0l0,0l0,0l0,0l0.1-0.1l0.1-0.1l0,0l0.1-0.1l0.1-0.1l0,0l0.1-0.1
		l0.1-0.1l0,0l0.1-0.1l0,0l0.1-0.1l0.1-0.1l0.1-0.1l0,0l0.1-0.1l0.1-0.1l0.1-0.1l0,0l0.1-0.1l0.1-0.1l0,0l0.1-0.1l0.1-0.1l0.1-0.1
		l0.1-0.1l0.1-0.1l0.1-0.1l0.1-0.1l0.1-0.1l0,0l0,0l0.1-0.1l0.1-0.1l0,0l0,0l0.1-0.1l0.1-0.1l0.1-0.1l0.1-0.1l0.1-0.1l0.1-0.1
		l0.1-0.1l0.1-0.1l0,0l0.1-0.1l0.1-0.1l0.1-0.1l0.1-0.1l0.1-0.1l0.1-0.1l0.2-0.2l0.2-0.2l0.1-0.1l0,0l0.2-0.2l0.2-0.1l0.1-0.1l0,0
		l0.2-0.1l0.1-0.1l0.1-0.1l0,0l0.1-0.1l0.1-0.1l0.1-0.1l0,0l0.1-0.1l0.1-0.1l0.1-0.1l0.1-0.1l0.1-0.1l0.1-0.1l0.1-0.1l0.1-0.1
		l0.1-0.1l0.1-0.1l0.1-0.1l0.1-0.1l0.1-0.1l0.1-0.1l0,0l0.1-0.1l0.1-0.1l0.1-0.1l0,0l0.1-0.1l0.1-0.1l0.1-0.1l0,0l0.1-0.1l0.1-0.1
		l0.1-0.1l0,0l0.1-0.1l0.1-0.1l0.1-0.1l0,0l0.1-0.1l0.1-0.1l0.1-0.1l0,0l0.1-0.1l0.1-0.1l0.1-0.1l0,0l0.1-0.1l0.1-0.1l0.1-0.1l0,0
		l0.1-0.1l0.1-0.1l0.1-0.1l0,0l0.1-0.1l0.1-0.1l0.1-0.1l0,0l0.1-0.1l0.1-0.1l0,0l0.1-0.1l2.3-1.7l0.1-0.1l0,0l0.1-0.1l0.1-0.1
		l0.1-0.1l0,0l0.1-0.1l0.1-0.1l0.1-0.1l0,0l0.1-0.1l0.1-0.1l0.1-0.1l0,0c4.3-4,8.4-8.2,13.3-12.9l0,0l0.4-0.4l0,0l0.5-0.5l0.1-0.1
		l0,0l0.1-0.1l0,0l0.1-0.1l0.1-0.1l0.1-0.1l0,0l0.1-0.1l0,0l0.1-0.1l0,0l0.1-0.1l0.1-0.1l0.1-0.1l0.1-0.1l0.1-0.1h0.1H73h0.1h0.1
		h0.1h0.1h0.1h0.1h0.1h0.1H74h0.1l0,0l0,0l0,0l0,0l0,0l0,0h0.1l0,0h0.1h0.1l0,0l0,0l0,0l0,0l0,0l0,0l0,0l0,0l0,0l0,0l0,0l0,0l0,0
		l0,0l0,0l0,0l0,0l0,0l0,0l0,0l0,0l0,0l0,0l0,0l0,0l0,0l0,0l0,0l0,0l0,0l0,0l0,0l0,0l0,0h0.1l0,0l0,0l0,0l0,0l0,0l0,0l0,0l0,0l0,0
		l0,0l0,0l0,0h0.1l0,0h0.1h0.1l0,0l0,0l0,0h0.1l0,0l0,0H75l0,0l0,0l0,0l0,0l0,0l0.1,0.1h0.1l0,0h0.1l0,0h0.1l0.1,0.1h0.1l0,0h0.1
		l0,0l0,0l0,0l0,0l0,0l0,0l0,0l0,0l0,0l0,0l0,0l0,0l0,0l0,0l0,0l0,0l0,0l0,0c25.4,20.1,41.5,16.1,65.2-1.2l0,0l0,0l0,0l0,0l0,0l0,0
		l0,0l0,0l0,0l0,0l0,0l0,0l0,0l0,0l0,0h0.1l0,0h0.1l0,0l0,0l0,0l0,0l0,0l0,0l0,0l0,0h0.1l0,0l0,0h0.1l0,0h0.1l0,0h0.1l0,0h0.1l0,0
		l0,0l0,0l0,0l0,0l0,0l0,0l0,0l0,0h0.1h0.1l0,0h0.1l0,0h0.1l0,0h0.1l0,0h0.1h0.1l0,0l0,0l0,0l0,0h0.1l0,0h0.1l0,0h0.1l0,0h0.1h0.1
		l0,0h0.1l0,0l0,0h0.1l0,0l0,0h0.1l0,0h0.1h0.1l0,0h0.1l0,0h0.1l0,0h0.1c0.1,0,0.1,0,0.2,0h0.1l0,0l0,0h0.1h0.1l0,0h0.1l0,0h0.1l0,0
		l0,0h0.1l0,0l0,0l0,0l0,0l0,0l0,0h0.1l0,0l0,0h0.1l0,0h0.1l0,0l0.1,0.1l0,0l0,0c0,0,0.1,0,0.1,0.1l0.4,0.4l0,0
		c0.1,0.1,0.2,0.2,0.3,0.3l0,0l0.3,0.3l0,0l0,0l0,0l0.3,0.3c0.1,0.1,0.2,0.2,0.3,0.3l0,0l0,0c0.1,0.1,0.2,0.2,0.3,0.3l0,0
		c0.2,0.2,0.4,0.4,0.6,0.6h0.1l0,0l0.3,0.3l0,0l0,0l0.3,0.3h0.1l0.1,0.1l0.3,0.2l0,0l0,0l0.3,0.2l0,0l0,0l0.4,0.3l0,0l0,0l0.3,0.2
		l0,0l0,0l0.3,0.2l0,0l0,0l0.3,0.2l0,0l0,0l0.1,0.1l0.2,0.1l0.1,0.1l0,0l0.3,0.2l0,0l0,0l0.3,0.2l0.1,0.1h0.1l0.2,0.1l0.2,0.1l0,0
		l0.1,0.1l0.2,0.1l0,0l0.2,0.1l0,0l0.2,0.1l0.2,0.1l0.1,0.1h0.1l0.2,0.1l0.1,0.1h0.1l0.2,0.1h0.1l0.2,0.1h0.1l0.2,0.1l0.1,0.1h0.1
		l0.2,0.1l0.4,0.2l0.2,0.1l0,0c2.8,1.5,5.7,2.7,8.7,3.7h0.1l0,0h0.1h0.1h0.1l0,0h0.1h0.1h0.1l0,0h0.1l0.3,0.1l0,0h0.1l0.3,0.1h0.1
		h0.1l0.3,0.1h0.1h0.1l0.3,0.1l0,0l0,0h0.1h0.1h0.1l0,0l0.4,0.1l0,0l0.4,0.1l0,0h0.1c0.2,0,0.4,0.1,0.6,0.1h0.1h0.1h0.2h0.1l0,0h0.1
		h0.1h0.1l0,0l0.3,0.1l0,0l0.3,0.1l0,0h0.1c0.2,0,0.4,0.1,0.6,0.1l0,0h0.3l0,0h0.2h0.1l0,0h0.1h0.2c0.3,0,0.5,0,0.9,0l0,0
		c0.2,0,0.5,0,0.8,0h0.1c0.2,0,0.5,0,0.8,0h0.1c0.2,0,0.4,0,0.8,0l0,0l0,0h0.1h0.8h0.1h0.1c0.2,0,0.4,0,0.8,0l0,0l0,0l0,0h0.6h0.2
		h0.2h0.1h0.1l0,0h0.2l0.5-0.1h0.3h0.2h0.1h0.1l0,0h0.3h0.1h0.2l0.4-0.1l0,0h0.1h0.1c6.8-0.9,13.6-3,19.6-6.4l0.1-0.1l0.3-0.2l0,0
		l0.1-0.1l0.3-0.2l0.1-0.1l0,0l0.1-0.1l0.1-0.1l0.1-0.1l0.1-0.1l0,0l0.1-0.1l0.2-0.1l0,0l0,0l0.1-0.1l0.3-0.2h0.1h0.1l0.3-0.2
		l0.1-0.1l0,0l0.1-0.1l0.2-0.1l0,0h0.1h0.1l0.1-0.1l0.1-0.1l0.1-0.1l0,0l0.1-0.1l0.1-0.1l0.1-0.1l0.1-0.1l0,0l0,0l0.3-0.2l0.2-0.1
		l0,0l0.1-0.1l0.1-0.1l0.1-0.1l0,0l0.1-0.1l0.1-0.1l0.1-0.1l0,0l0.1-0.1l0.1-0.1l0.1-0.1l0.1-0.1l0,0l0,0l0.3-0.2l0,0h0.1l0.2-0.2
		l0.1-0.1l0.2-0.2l0,0l0,0l0,0l0.3-0.2l0,0l0,0l0.1-0.1l0.2-0.1l0.1-0.1l0,0c0.5-0.4,1-0.9,1.5-1.3l0,0l0.2-0.2l0,0l0,0l0,0l0.1-0.1
		l0.1-0.1l0.1-0.1l0.1-0.1l0.1-0.1l0.1-0.1l0.1-0.1l0.1-0.1l0.1-0.1l0.1-0.1h0.1l0,0h0.1h0.1l0,0h0.1l0,0h0.1h0.1h0.1h0.1h0.1h0.1
		h0.1h0.1l0,0h0.1l0,0h0.1l0,0h0.1h0.1h0.1l0,0h0.1h0.1h0.1h0.1l0,0h0.1h0.1l0,0l0,0l0,0l0,0l0,0l0,0l0,0l0,0l0,0l0,0l0,0l0,0l0,0
		l0,0l0,0l0,0l0,0l0,0l0,0l0,0l0,0l0,0l0,0l0,0l0,0l0,0l0,0l0,0l0,0l0,0l0,0l0,0l0,0l0,0h0.1l0,0h0.1l0,0h0.1h0.1l0,0h0.1h0.1h0.1
		l0,0h0.1l0,0h0.1l0,0h0.1h0.1h0.1h0.1h0.1h0.1l0,0h0.1l0,0h0.1h0.1l0.1,0.1h0.1l0,0l0.1,0.1l0,0l0.1,0.1l0.1,0.1l0.1,0.1l0.1,0.1
		l0.1,0.1l0.1,0.1l0.1,0.1l0.1,0.1l0.8,0.6l0.8,0.6l0.8,0.6l0.8,0.6l0.8,0.8l0.8,0.8l0.9,0.8l0.4,0.3l0.4,0.3l0.9,0.8l0.9,0.8
		l0.9,0.8l0.2,0.2l0.6,0.6l0.9,0.8l0.9,0.8h0.1l0.9,0.8l1,0.9l1,0.9l1,0.9l1,0.9l0.6,0.5l0.3,0.2l0.6,0.5l0.3,0.3l1,0.9l1,0.9l1,0.9
		l0.3,0.3l0.6,0.5l0.3,0.3l0.6,0.6l0.2,0.2l0.8,0.6l0.2,0.2l0.8,0.8l1,0.9l0.1,0.1l1,0.9l0,0l1,0.9l1,0.9l0.9,0.8l0.2,0.2l1,0.9
		l0.6,0.6l0.3,0.3l0.6,0.5l0,0l0,0l0.9,0.8l0,0l0,0l0,0l0,0l0,0l0,0l0,0l0,0l0,0l0,0l0,0l0,0l0,0l0,0l0,0l0,0l0,0l0,0l0,0l0,0l0,0
		l0,0l0,0l0,0l0,0l0,0l0,0l0,0l0,0l0,0l0,0l0,0l0,0l0,0l0,0l0,0l0,0l0,0l0,0l0,0l0,0l0,0l0,0l0,0l0,0l0,0l0,0l0,0l0,0l0,0l0,0l0,0
		l0,0l0,0l0,0l0,0l0,0l0,0l0,0l0,0l0,0l0,0l0,0l0,0l0,0l0,0l0,0l0.1,0.1c0.9,0.8,1.7,1.4,2.5,2.2l0.2,0.2l0.8,0.6l1,0.9l0.1,0.1
		l0.9,0.8h0.1l1,0.8l0,0c0.6,0.5,1.3,1.1,1.9,1.6l0.8,0.6l0,0l0,0l0,0l0,0l0,0l0,0l0,0l0,0l0,0l0,0l0,0l0,0l0,0l0,0l0,0l0,0l0,0l0,0
		l0,0l0,0l0,0l0,0l0,0l0,0l0,0l0,0l0,0l0,0l0,0l0,0l0,0l0,0l0,0l0,0l0,0l0,0l0,0l0,0l0,0l0,0l0,0l0,0l0,0l0,0l0,0l0,0l0,0l0,0l0,0
		l0,0l0.1,0.1l0,0l0,0l0,0l0,0l0,0l0,0l0,0l0,0l0,0l0,0l0,0l0.3,0.3l0,0l0.6,0.4l0.2,0.2l0,0l0.8,0.5l0.2,0.2h0.1l0.4,0.3l0.4,0.4
		l0,0l0.4,0.3l0.1,0.1l0.3,0.2l0.6,0.4l0.2,0.1l0,0l0.6,0.5l0,0l0.1,0.1l0,0l0,0l0,0l0,0l0,0l0,0l0,0l0,0l0,0l0,0l0,0l0,0l0,0
		l0.2,0.2l0,0l0,0l0,0l0,0l0,0l0,0l0,0l0,0l0,0l0,0l0,0l0,0l0,0l0,0l0.3,0.2l0,0l0,0l0,0l0,0l0,0l0,0l0,0l0,0l0,0l0,0l0,0l0,0l0,0
		l0,0l0,0l0,0l0,0l0,0l0,0l0,0l0,0l0,0l0,0l0,0l0.1,0.1l0.6,0.5l0.9,0.5l0,0l0.9,0.6l0.9,0.6L276.9,382.2z"/>
</g>
<g>
	<path fill="#231F20" d="M278.4,383.2L219,320.4c-1.8-1.8-3.2-1.8-5-0.1c-8.8,8.5-42.5,32.9-67.2,1.2c-1.2-1.6-3.6-1.6-5.1-0.3
		c-34.4,29.1-52.7,10.6-64.9,1.5c-0.9-1.4-4.8-1.1-5.4-0.1c-10.7,10-32.8,29.8-39,34.8c-1.8,1.5-2.3,4.3-0.6,6.4
		c4,5.2,14.9,15.7,9.9,33.8c-5.8,18.4-17.5,35.6-21.5,42c-10.8,17.1-16.5,32-3.2,51.9c18.2,27.5,56.7,62.2,96,78.2
		c-27.3-16.8-68.1-52.8-85.9-78c-12.6-19.2-7-30.5,3.2-47c3.9-6.1,14.9-22.4,20.4-40.1c1.6-5.7,2.6-12.1,2.2-18
		c-0.6-8.6-4.5-17-10-23.1c-1.4-1.5,3.7-5.1,5.9-7.3c10.7-10.3,12.1-11.5,22.6-22.1c2.7-2.7,5-0.5,5.1-0.1
		c25.4,20.1,41.5,16.1,65.2-1.2c1.1-0.8,3.4-1.7,5.1,0.2c7.1,8,21.1,13,27.8,13.5c18.4,0.6,33.8-8.4,39.3-13.8
		c1.7-1.7,3.3-1.8,5.1,0C234.5,346.4,260.9,371.3,278.4,383.2z"/>
</g>
<g>
	<path fill="#004990" d="M121.1,354.7c-4.2,1.3-8.3,1.7-12.1,1.4c-10.8,0.1-23.5-2.9-32.5-9.5c-0.9-0.8-2.5-2-5.1,0.6
		c-9.5,9.5-7.9,7.8-16.1,16.1c-1.7,1.7-1.4,2.9,0,4.4c9.1,9.7,8.4,29,4.6,42.6c-5.5,17-16.5,33-20.4,38.9
		c-3.7,5.6-7.4,12.5-8.8,19.1c-1.7,8.3,2.8,14.5,8.4,24c5.8,9.7,13.6,19.4,20.6,28.3c12.3,14.1,38.6,38.8,53.6,48.4
		c-20.1-17.8-46.2-54.7-60-78.1c-10.2-17.3-8.4-25,0-39.9c3.1-5.6,11.5-20.6,16.1-36.5c3.1-12.8,4.7-35.1-2.3-47.2
		c-0.9-1.5-1.9-2.7-0.6-4.4c3.3-4.4,2.9-2.7,6-6.6c2-2.6,4.3-0.9,5.1-0.1c15.2,14.1,50.5,13.3,64.4,2c1-0.8,3.6-1.1,5.1,0.1
		c13.6,10.6,44.1,12.2,67.1-2.3c2.2-1.3,3.1-1,5.1,0l58.8,26.5c0.4,0.4-28.8-18.2-58.8-38.5c-1.7-1.7-3.7-1.5-5.1-0.1
		c-16.4,16.4-55,15.1-67.1,1.4c-1.4-1.6-4-1.3-5.1,0.1C136.2,349.7,128.1,353.1,121.1,354.7z"/>
</g>
</svg>
