<?xml version="1.0" encoding="utf-8"?>
<!-- Generator: Adobe Illustrator 16.0.0, SVG Export Plug-In . SVG Version: 6.00 Build 0)  -->
<!DOCTYPE svg PUBLIC "-//W3C//DTD SVG 1.1//EN" "http://www.w3.org/Graphics/SVG/1.1/DTD/svg11.dtd">
<svg version="1.1" id="Ebene_1" xmlns="http://www.w3.org/2000/svg" xmlns:xlink="http://www.w3.org/1999/xlink" x="0px" y="0px"
	 width="168px" height="168px" viewBox="0 0 168 168" enable-background="new 0 0 168 168" xml:space="preserve">
<g>
	<path fill="#CBCBCB" d="M63.61,91.731c0-2.274,0.758-3.032,1.516-3.032c0.759-0.759,2.275-1.518,3.034-2.276
		c1.516-0.758,6.824-3.79,7.582-3.79c0,0,0.759,0.758,0.759,1.516c0,4.55-6.066,10.616-10.616,10.616
		C62.852,94.765,62.852,94.007,63.61,91.731z M132.613,93.248c-1.517-0.758-3.033-0.758-3.033-0.758s-0.759-1.517-1.517-3.033
		c-0.759-1.517-1.517-3.792-0.759-6.824c0-6.067,2.275-8.341,8.341-8.341c4.55-0.758,5.308-0.758,7.583,2.274
		c2.275,2.275,3.033,3.033,3.033,6.825c0,3.791-1.517,7.583-3.791,9.099C140.953,94.007,135.646,94.765,132.613,93.248z
		 M140.195,89.457c1.517-0.758,2.275-2.275,2.275-5.308c0-4.549-1.518-6.065-4.551-6.824c-1.516,0-3.032,0-4.549,0.758
		c-1.517,1.516-1.517,2.274-1.517,6.065c0,3.033,0,4.55,1.517,5.308c0.758,0.759,2.274,1.517,3.791,1.517
		C137.92,90.974,139.437,90.216,140.195,89.457z M4.465,83.391v-9.857l6.825,0.758c6.066,0,6.824,0,8.341,1.516
		c1.516,3.034,1.516,6.825-0.758,9.099c-1.517,1.516-1.517,1.516-0.758,3.792c0.758,0.758,2.274,2.274,2.274,3.032
		c0.758,1.517,0.758,2.275-0.758,2.275c-2.275,0-3.033-0.759-4.55-3.791c-1.517-3.034-1.517-3.034-4.549-3.034H8.257v3.034
		c0,3.032-0.759,3.791-2.275,3.791H4.465V83.391z M15.839,80.358c0-2.274,0-2.274-3.792-2.274l-3.791-0.758v3.033v3.033l3.791-0.758
		C15.839,82.633,15.839,82.633,15.839,80.358z M24.938,92.49c-3.792-3.033-5.308-9.857-2.274-14.407
		c1.517-2.275,5.308-3.792,9.857-3.792c3.791,0,4.549,0,4.549,1.516c0,1.517-0.758,2.275-4.549,2.275
		c-3.792,0-6.066,0.758-6.066,3.033c0,0.758,0.758,1.517,5.308,1.517c4.549,0,5.308,0,5.308,1.516c0,1.516-0.758,2.274-5.308,2.274
		c-4.55,0-5.308,0-5.308,0.759c0,1.518,1.517,3.034,6.066,3.034c3.791,0,4.549,0,4.549,1.516c0,1.517-0.758,1.517-5.308,1.517
		C28.73,93.248,26.455,93.248,24.938,92.49z M43.137,93.248c-4.549-2.274-6.066-9.099-3.791-14.406
		c1.517-3.792,4.549-4.55,10.616-4.55c3.792,0,4.55,0,4.55,1.516c0,1.517-0.758,2.275-4.55,2.275c-5.308,0-6.825,0.758-6.825,6.065
		c-0.758,4.55,0,5.308,6.066,6.067c3.792,0,4.55,0,4.55,1.516c0.758,1.517,0,1.517-4.55,1.517
		C46.928,93.248,43.895,93.248,43.137,93.248z M57.544,90.974c-3.033-3.033-3.791-6.825-2.274-10.616
		c1.516-3.033,3.033-3.792,5.308-2.274c1.517,1.516,2.275,1.516,2.275,8.339C62.852,94.765,62.094,95.522,57.544,90.974z
		 M81.05,89.457c-3.033-6.824-6.066-15.165-6.066-15.165s0.758,0,2.274,0c2.275,0,2.275,0.758,4.55,6.824
		c1.517,3.791,3.033,6.824,3.792,6.824c0,0.759,2.274-3.033,2.274-4.549c0-0.758,0.759-3.033,1.517-5.308
		c1.517-3.792,2.274-3.792,3.791-3.792c0.758,0,2.274,0,2.274,0c0,0.758-5.308,12.89-6.823,15.165
		c-0.759,1.517-0.759,3.033-0.759,3.033c0,0.758-1.517,1.517-2.274,1.517C83.326,94.007,83.326,93.248,81.05,89.457z M96.216,83.391
		v-9.857l1.517,0.758h2.275v9.857l0.758,9.858h-2.274h-2.275V83.391z M103.04,91.731c0-1.516,0-1.516,6.066-1.516
		c4.55,0,6.066-0.759,6.824-1.517c0.759-1.518-1.516-2.276-6.066-2.276c-3.791,0-5.308-0.758-6.065-1.516
		c-2.274-2.274-2.274-6.824-0.759-9.099c1.517-1.516,2.275-1.516,9.1-1.516l7.583-0.758v2.274c0,1.517-0.759,1.517-6.825,2.275
		c-6.824,0-6.824,0-6.824,2.274c-0.758,2.275,0.758,2.275,7.583,2.275c4.55,0.758,6.824,1.516,6.824,5.307
		c0,4.55-1.517,5.308-9.857,5.308l-7.583,0.759V91.731z M121.997,83.391c0-9.857,0-9.857,1.517-9.099c1.516,0,1.516,0,1.516,9.857
		l0.759,9.858h-2.274h-1.517V83.391z M147.778,84.149v-9.857h2.274c2.274,0,3.033,0,6.066,6.066l3.792,6.824v-6.824l0.758-6.824
		l1.517,0.758h2.274v9.857v9.099h-2.274c-1.517,0.759-3.033-1.517-8.342-10.615l-1.517-3.034v6.823v7.584h-2.274h-2.274V84.149z
		 M69.676,83.391c0-0.758-3.033-2.275-6.066-3.792c-4.549-3.033-5.308-3.792-3.791-4.55c1.516-2.274,7.583-2.274,10.615-0.758
		c2.275,1.516,5.308,4.55,5.308,6.066c0,0.758-4.549,3.791-5.308,3.791L69.676,83.391z"/>
	<path fill="#F39B9E" d="M63.61,91.731c0-2.274,0.758-3.032,1.516-3.032c0.759-0.759,3.034-1.518,6.066-3.792
		c2.275-1.516,4.549-3.033,4.549-3.033c0.759,0.759,0,4.548-1.516,6.825c-1.517,3.791-5.308,6.065-8.341,6.065
		S62.852,94.007,63.61,91.731z M4.465,84.149V75.05l6.066-0.758c6.066,0,7.583,0.758,8.341,2.274c2.274,1.517,2.274,5.308,0,7.583
		c-0.758,0.758-1.517,2.274-1.517,2.274s0.758,1.518,1.517,3.034c2.274,3.033,2.274,4.55,0,4.55c-1.517,0-2.275-0.759-3.792-3.791
		c-1.517-3.793-1.517-3.793-4.549-3.793l-2.275-0.758v3.792c0,3.791-0.759,4.55-2.275,4.55H4.465V84.149z M16.598,81.875
		c1.517-2.275-0.758-3.791-4.55-3.791l-3.791-0.758v3.033v3.033h3.033C14.323,83.391,15.839,82.633,16.598,81.875z M26.455,93.248
		c-0.758-0.758-2.274-2.274-3.033-3.032c-1.517-2.275-2.275-3.034-1.517-6.825c0-4.549,0.759-5.308,2.275-6.825
		c1.516-1.517,3.033-1.517,7.583-1.517c4.549,0,5.308,0,5.308,1.517c0,0.759-0.758,1.517-4.549,1.517
		c-4.55,0-6.066,0.758-6.066,3.033c0,0.758,0,1.517,5.308,1.517c4.549,0,5.308,0,5.308,1.516c0,1.516-0.758,2.274-6.066,2.274
		h-5.308l0.758,1.518c0.758,2.275,2.275,2.275,6.825,2.275c3.033,0,3.791,0.758,3.791,2.274c0,0.758-0.758,0.758-4.549,0.758
		C30.247,93.248,27.213,93.248,26.455,93.248z M42.378,92.49c-3.791-2.274-5.308-7.583-3.033-12.891
		c1.517-3.792,3.791-4.55,9.857-4.55c4.55,0,5.308,0,4.55,0.758c0,1.517-0.758,1.517-4.55,1.517
		c-5.308,0.758-6.066,2.274-6.066,7.582c0,4.55,1.517,6.066,6.825,6.066c3.792,0,4.55,0,4.55,1.517c0,0.758-0.758,0.758-5.308,0.758
		C46.928,93.248,43.895,93.248,42.378,92.49z M57.544,90.974c-1.517-1.517-3.033-3.792-3.033-4.551c0-3.032,0.758-7.581,2.274-8.339
		c0.758-1.517,1.517-1.517,3.034,0c2.274,0.758,2.274,1.516,2.274,8.339C62.852,94.765,62.094,95.522,57.544,90.974z M79.534,84.907
		c-2.275-4.549-3.792-9.099-3.792-9.099c0-0.758,0.759-0.758,1.517-0.758c2.275,0,2.275,0.758,4.55,6.825
		c1.517,3.791,3.033,6.066,3.792,6.066c0,0,0.758-0.759,1.517-2.275c0-1.516,1.517-4.549,2.274-6.823
		c1.517-3.792,1.517-3.792,3.791-3.792h1.517l-2.274,6.066c-1.517,3.033-3.033,6.824-3.791,8.341
		c-0.759,0.759-0.759,2.274-0.759,3.033c0,0.758-0.758,1.517-2.274,1.517C84.083,94.007,83.326,92.49,79.534,84.907z M96.216,84.149
		V75.05h2.275l2.274-0.758l-0.758,9.857v9.099h-2.275l-1.517,0.759V84.149z M103.04,92.49c0-1.517,0-1.517,5.308-1.517
		c6.067,0,9.1-1.517,7.583-3.792c-0.758-0.759-2.274-0.759-6.066-0.759c-3.791,0-4.549-0.758-6.065-2.274
		c-1.517-1.516-2.274-2.274-1.517-4.549c0.758-4.55,2.274-4.55,9.857-4.55c6.824,0,7.583,0,7.583,0.758
		c0,1.517-0.759,1.517-6.825,2.275c-6.824,0-6.824,0-6.824,1.516c-0.758,3.034,0.758,3.034,6.824,3.034
		c5.309,0.758,7.583,1.516,7.583,5.307c0,4.55-3.033,6.066-11.374,6.066C103.04,94.007,103.04,93.248,103.04,92.49z M121.997,84.149
		V75.05h1.517h2.274l-0.759,9.099c0,9.099,0,9.099-1.516,9.099C121.997,94.007,121.997,94.007,121.997,84.149z M129.58,90.974
		c-2.275-2.274-2.275-3.033-2.275-6.066c0-7.582,3.033-10.615,9.857-10.615c5.309,0,9.1,3.033,9.1,9.857
		c0,3.792-0.758,4.55-3.033,6.825s-2.275,3.033-6.824,3.033C132.613,94.007,131.854,93.248,129.58,90.974z M140.953,89.457
		c0.759-0.758,1.518-2.275,1.518-5.308c0-4.549-2.275-6.824-5.309-6.824c-3.791,0-5.308,2.274-5.308,6.824
		c0,2.274,0,3.792,0.759,5.308C134.129,90.974,138.679,90.974,140.953,89.457z M147.778,84.149V75.05h2.274
		c3.033,0,3.033,0,6.825,6.066l3.033,6.065v-6.065c0.758-6.066,0.758-6.066,2.274-6.066h2.274v9.099
		c0,9.099-0.758,9.858-2.274,9.858s-2.274-1.517-8.342-11.374c-0.758-1.517-2.274-3.034-2.274-3.034s-0.758,3.034,0,6.823v6.825
		h-2.274l-1.517,0.759V84.149z M65.885,80.358c-3.033-1.516-5.308-3.033-6.066-3.792c-1.517-0.758-1.517-0.758,0.758-2.274
		c3.792-1.517,6.825-1.517,9.857,0.758c2.275,0.758,5.308,5.308,4.55,6.066c-1.517,1.517-3.792,2.275-3.792,2.275
		C70.435,83.391,68.16,81.875,65.885,80.358z"/>
	<path fill="#ACACAC" d="M63.61,91.731c0-1.516,0.758-2.274,1.516-3.032c0.759,0,3.034-1.518,5.308-3.034
		c2.275-1.516,4.55-3.032,4.55-2.274c0,0,0.758,0.758,0.758,2.274c0,3.792-6.066,9.1-9.857,9.1
		C63.61,94.765,62.852,94.007,63.61,91.731z M4.465,84.149V75.05l6.066-0.758c6.066,0,7.583,0.758,8.341,2.274
		c2.274,1.517,2.274,5.308,0,7.583c-0.758,0.758-1.517,2.274-1.517,2.274s0.758,1.518,1.517,3.034c2.274,3.033,2.274,4.55,0,4.55
		c-1.517,0-2.275-0.759-3.792-3.791c-1.517-3.793-1.517-3.793-4.549-3.793l-2.275-0.758v3.792c0,3.791-0.759,4.55-2.275,4.55H4.465
		V84.149z M16.598,81.875c1.517-2.275-0.758-3.791-4.55-3.791l-3.791-0.758v3.033v3.033h3.033
		C14.323,83.391,15.839,82.633,16.598,81.875z M26.455,93.248c-0.758-0.758-2.274-2.274-3.033-3.032
		c-1.517-2.275-2.275-3.034-1.517-6.825c0-4.549,0.759-5.308,2.275-6.825c1.516-1.517,3.033-1.517,7.583-1.517
		c4.549,0,5.308,0,5.308,1.517c0,0.759-0.758,1.517-4.549,1.517c-4.55,0-6.066,0.758-6.066,3.033c0,0.758,0,1.517,5.308,1.517
		c4.549,0,5.308,0,5.308,1.516c0,1.516-0.758,2.274-6.066,2.274h-5.308l0.758,1.518c0.758,2.275,2.275,2.275,6.825,2.275
		c3.033,0,3.791,0.758,3.791,2.274c0,0.758-0.758,0.758-4.549,0.758C30.247,93.248,27.213,93.248,26.455,93.248z M42.378,92.49
		c-3.791-2.274-5.308-7.583-3.033-12.891c1.517-3.792,3.791-4.55,9.857-4.55c4.55,0,5.308,0,4.55,0.758
		c0,1.517-0.758,1.517-4.55,1.517c-5.308,0.758-6.066,2.274-6.066,7.582c0,4.55,1.517,6.066,6.825,6.066c3.792,0,4.55,0,4.55,1.517
		c0,0.758-0.758,0.758-5.308,0.758C46.928,93.248,43.895,93.248,42.378,92.49z M58.302,90.974c-3.033-3.033-3.033-3.792-3.033-6.825
		c0-2.274,1.516-7.583,2.274-6.824c0.758,0,1.517,0,2.275,0.758c1.516,1.516,2.274,2.274,1.516,9.098v6.825L58.302,90.974z
		 M79.534,84.907c-2.275-4.549-3.792-9.099-3.792-9.099c0-0.758,0.759-0.758,1.517-0.758c2.275,0,2.275,0.758,4.55,6.825
		c1.517,3.791,3.033,6.066,3.792,6.066c0,0,0.758-0.759,1.517-2.275c0-1.516,1.517-4.549,2.274-6.823
		c1.517-3.792,1.517-3.792,3.791-3.792h1.517l-2.274,6.066c-1.517,3.033-3.033,6.824-3.791,8.341
		c-0.759,0.759-0.759,2.274-0.759,3.033c0,0.758-0.758,1.517-2.274,1.517C84.083,94.007,83.326,92.49,79.534,84.907z M96.216,84.149
		V75.05h2.275l2.274-0.758l-0.758,9.857v9.099h-2.275l-1.517,0.759V84.149z M103.04,92.49c0-1.517,0-1.517,5.308-1.517
		c6.067,0,9.1-1.517,7.583-3.792c-0.758-0.759-2.274-0.759-6.066-0.759c-3.791,0-4.549-0.758-6.065-2.274
		c-1.517-1.516-2.274-2.274-1.517-4.549c0.758-4.55,2.274-4.55,9.857-4.55c6.824,0,7.583,0,7.583,0.758
		c0,1.517-0.759,1.517-6.825,2.275c-6.824,0-6.824,0-6.824,1.516c-0.758,3.034,0.758,3.034,6.824,3.034
		c5.309,0.758,7.583,1.516,7.583,5.307c0,4.55-3.033,6.066-11.374,6.066C103.04,94.007,103.04,93.248,103.04,92.49z M121.997,84.149
		V75.05h1.517h2.274l-0.759,9.099c0,9.099,0,9.099-1.516,9.099C121.997,94.007,121.997,94.007,121.997,84.149z M129.58,90.974
		c-2.275-2.274-2.275-3.033-2.275-6.066c0-7.582,3.033-10.615,9.857-10.615c5.309,0,9.1,3.033,9.1,9.857
		c0,3.792-0.758,4.55-3.033,6.825s-2.275,3.033-6.824,3.033C132.613,94.007,131.854,93.248,129.58,90.974z M140.953,89.457
		c0.759-0.758,1.518-2.275,1.518-5.308c0-4.549-2.275-6.824-5.309-6.824c-3.791,0-5.308,2.274-5.308,6.824
		c0,2.274,0,3.792,0.759,5.308C134.129,90.974,138.679,90.974,140.953,89.457z M147.778,84.149V75.05h2.274
		c3.033,0,3.033,0,6.825,6.066l3.033,6.065v-6.065c0.758-6.066,0.758-6.066,2.274-6.066h2.274v9.099
		c0,9.099-0.758,9.858-2.274,9.858s-2.274-1.517-8.342-11.374c-0.758-1.517-2.274-3.034-2.274-3.034s-0.758,3.034,0,6.823v6.825
		h-2.274l-1.517,0.759V84.149z M68.918,82.633c0-0.759-2.275-2.275-4.55-3.792c-3.033-1.517-4.549-3.034-4.549-3.792
		c0,0,1.516-0.758,3.791-1.516c2.275,0,3.033,0,5.308,0.758c2.274,0.758,6.066,4.55,6.066,6.066
		C74.984,81.875,69.676,84.149,68.918,82.633z"/>
	<path fill="#8F8D8E" d="M63.61,91.731c0-1.516,0.758-2.274,1.516-3.032c0.759,0,3.034-1.518,5.308-3.034
		c2.275-1.516,4.55-3.032,4.55-2.274c0,0,0.758,0.758,0.758,2.274c0,3.792-6.066,9.1-9.857,9.1
		C63.61,94.765,62.852,94.007,63.61,91.731z M4.465,93.248c0-0.758,0-4.549,0-9.857V75.05h6.066c7.583,0,8.341,0,9.099,2.275
		c1.516,3.033,1.516,4.549-0.758,6.824c-0.758,0.758-1.517,2.274-1.517,2.274c-0.758,0,0.758,1.518,1.517,3.034
		c2.274,3.791,2.274,4.55,0,4.55c-1.517,0-2.275-0.759-3.792-3.791c-1.517-3.793-1.517-3.793-4.549-3.793H8.257v3.793
		c0,3.032-0.759,3.791-1.517,3.791C5.982,94.007,5.224,93.248,4.465,93.248z M15.839,81.875c0.758-0.758,0.758-1.517,0.758-2.275
		c-0.758-1.516-0.758-1.516-4.55-1.516H8.257v2.274v3.033h3.033C13.564,83.391,15.839,82.633,15.839,81.875z M26.455,93.248
		c-0.758-0.758-2.274-2.274-3.033-3.032c-3.034-3.793-2.275-12.891,1.516-14.408c1.517-0.758,3.792-0.758,6.825-0.758
		c4.549,0,5.308,0,5.308,0.758c0,1.517-0.758,1.517-5.308,2.275c-3.792,0-4.55,0-5.308,1.516c-0.758,1.517-0.758,2.275-0.758,3.034
		c0,0,3.033,0.758,6.066,0.758c3.791,0,5.308,0,5.308,0.758c0,0.758-1.517,0.758-6.066,1.516c-6.066,0-6.824,0.758-4.55,3.034
		c1.517,1.517,3.033,2.274,6.066,2.274c3.791,0,4.549,0,4.549,1.517c0,0.758-0.758,0.758-4.549,0.758
		C30.247,93.248,27.213,93.248,26.455,93.248z M43.137,92.49c-5.307-2.274-6.066-11.374-1.516-15.924
		c1.516-1.517,2.274-2.274,6.824-2.274c4.55,0.758,6.066,0.758,6.066,1.516s-1.517,1.517-3.792,0.758
		c-6.066,0-7.583,2.275-7.583,7.583c0,5.308,1.517,6.825,6.825,6.825c3.792,0,4.55,0,3.792,0.758
		C53.753,94.007,46.17,94.007,43.137,92.49z M58.302,90.974c-3.033-3.033-3.033-3.792-3.033-6.825c0-2.274,1.516-7.583,2.274-6.824
		c0.758,0,1.517,0,2.275,0.758c1.516,1.516,2.274,2.274,1.516,9.098v6.825L58.302,90.974z M80.292,85.665
		c-2.275-3.791-4.55-8.34-4.55-9.099c-0.758-1.517,0-2.274,1.517-1.517c1.517,0,2.275,0.758,4.55,6.066
		c3.033,8.341,3.792,8.341,4.549,6.065c0.759-0.759,0.759-2.274,0.759-3.033c0-0.758,1.517-3.033,2.274-5.307
		c1.517-3.792,1.517-3.792,3.791-3.792h1.517l-3.033,6.825c-1.517,3.791-3.032,7.583-3.791,9.099
		c-0.758,2.274-1.517,3.033-2.274,3.033C84.083,94.007,83.326,92.49,80.292,85.665z M96.216,93.248c0-0.758,0-4.549,0-9.857V75.05
		h1.517h2.275v9.099c0,8.341-0.759,9.858-1.517,9.858C97.732,94.007,96.974,93.248,96.216,93.248z M103.04,93.248
		c0,0,0-0.758,0-1.517c0-0.758,0.759-0.758,5.308-0.758c6.067,0,8.342-1.517,7.583-3.792c0-0.759-1.516-0.759-5.308-0.759
		c-4.55,0-5.308-0.758-6.824-2.274c-2.274-2.274-2.274-3.791-0.759-6.824c0.759-2.275,1.517-2.275,9.1-2.275
		c6.824,0,7.583,0,6.824,0.758c0,1.517-0.758,1.517-6.824,2.275h-6.066v2.274v2.275l6.066,0.758c4.55,0,6.066,0,6.824,1.516
		c1.517,2.274,1.517,4.55,0,6.824c-1.517,1.517-2.274,1.517-8.341,1.517C106.831,94.007,103.799,93.248,103.04,93.248z
		 M121.997,93.248c0-0.758,0-4.549,0-9.857c0-8.341,0-8.341,1.517-8.341c0.758,0,1.516,0,1.516,9.099
		c0,7.583-0.758,9.858-1.516,9.858C122.755,94.007,122.755,93.248,121.997,93.248z M131.097,92.49
		c-6.067-3.791-5.309-15.165,0.758-17.44c7.582-3.033,13.649,0.758,13.649,9.857c0,3.033,0,3.792-2.275,6.066
		c-1.517,2.274-2.275,3.033-6.066,3.033C134.129,94.007,131.854,93.248,131.097,92.49z M140.953,89.457
		c0.759-0.758,1.518-2.275,1.518-6.066c0-3.033-0.759-4.549-2.275-5.308c-3.033-2.275-7.582-0.758-8.341,3.033
		c-1.517,3.033-0.758,6.065,0.759,8.341C134.129,90.974,138.679,90.974,140.953,89.457z M147.778,93.248c0-0.758,0-4.549,0-9.857
		v-9.099l2.274,0.758c3.033,0,3.033,0,6.066,6.066c2.275,3.033,3.792,6.065,3.792,6.824c0.758,0,0.758-2.275,0.758-6.066
		l-0.758-6.825h2.274h2.274v9.099c0,9.099-0.758,9.099-2.274,9.099c-0.759,0-2.274-0.758-4.55-5.308
		c-6.824-10.615-6.066-10.615-6.066-1.518c0,6.825-0.758,7.584-1.517,7.584C149.295,94.007,148.536,93.248,147.778,93.248z
		 M68.918,82.633c0-0.759-2.275-2.275-4.55-3.792c-3.033-1.517-4.549-3.034-4.549-3.792c0,0,1.516-0.758,3.791-1.516
		c2.275,0,3.033,0,5.308,0.758c2.274,0.758,6.066,4.55,6.066,6.066C74.984,81.875,69.676,84.149,68.918,82.633z"/>
	<path fill="#ED2028" d="M63.61,91.731c0-1.516,0.758-2.274,1.516-3.032c0.759,0,3.034-1.518,5.308-3.034
		c2.275-1.516,4.55-3.032,4.55-2.274c0,0,0.758,0.758,0.758,2.274c0,3.792-6.066,9.1-9.857,9.1
		C63.61,94.765,62.852,94.007,63.61,91.731z M4.465,93.248c0-0.758,0-4.549,0-9.857V75.05h6.066c7.583,0,8.341,0,9.857,3.792
		c0.758,2.274-0.758,6.065-3.033,6.065c-1.517,0.758-1.517,0.758,1.517,4.55c2.274,3.791,2.274,4.55,0,3.791
		c-0.758,0-2.275-1.517-3.033-3.791c-2.275-3.034-2.275-3.034-5.308-3.034H8.257v3.793c0,3.032-0.759,3.791-1.517,3.791
		C5.982,94.007,5.224,93.248,4.465,93.248z M16.598,81.116c0.758-3.033,0-3.033-4.55-3.033H8.257v2.274v3.033h3.791
		C15.839,83.391,16.598,82.633,16.598,81.116z M27.213,92.49c-3.791-0.759-5.308-3.791-5.308-7.583
		c-0.758-7.582,2.275-10.615,9.858-9.857c3.791,0,5.308,0,5.308,0.758s-1.517,1.517-4.549,0.758c-3.033,0-3.792,0.759-5.308,2.275
		c-3.033,3.033-2.275,4.549,3.792,4.549c4.549,0,6.066,0,6.066,0.758c0,0.758-1.517,1.516-6.066,1.516c-5.308,0-5.308,0-5.308,0.758
		c0,3.034,2.275,4.551,6.825,4.551c3.791,0,4.549,0,3.791,0.758C36.312,93.248,31.005,94.007,27.213,92.49z M45.412,93.248
		c-5.308-1.517-7.583-5.308-6.825-11.374c1.517-5.308,3.791-6.825,9.857-6.825c3.792,0,5.308,0,5.308,0.758s-1.517,0.758-4.55,1.517
		c-5.308,0-6.066,1.517-6.066,6.824c0,5.308,0.758,6.825,6.066,6.825c3.792,0,4.55,0,4.55,1.517c0,0.758-0.758,0.758-3.792,0.758
		C47.687,93.248,45.412,93.248,45.412,93.248z M58.302,90.974c-3.033-3.033-3.033-3.792-3.033-6.825
		c0-2.274,1.516-7.583,2.274-6.824c0.758,0,1.517,0,2.275,0.758c1.516,1.516,2.274,2.274,1.516,9.098v6.825L58.302,90.974z
		 M81.809,90.216c-1.517-3.793-6.067-14.408-6.067-15.166c0,0,0.759,0,1.517,0c1.517,0,2.275,0.758,4.55,6.066
		c0.758,3.033,2.274,6.824,3.033,6.824c0.759,1.517,1.517,0.759,1.517-0.759c0.759-0.759,1.517-2.274,1.517-3.033
		c0-0.758,0.759-3.033,1.517-5.307c1.517-3.034,2.274-3.792,3.033-3.792c1.516,0,2.274,0,2.274,0c0,0.758-4.55,10.615-6.065,13.649
		c-0.759,1.517-0.759,3.032-0.759,3.791c0,0.758-0.758,1.517-2.274,1.517C84.083,94.007,83.326,93.248,81.809,90.216z
		 M96.974,84.149c0-9.099,0-9.099,1.518-9.099c0.758,0,1.517,0,1.517,9.099s-0.759,9.858-1.517,9.858
		C96.974,94.007,96.974,93.248,96.974,84.149z M103.799,92.49c0-1.517,0-1.517,5.308-1.517c3.791,0,6.066-0.758,6.066-1.517
		c2.274-2.275,0.758-3.034-4.55-3.792c-6.824,0-8.341-1.516-8.341-5.307c0-4.55,1.517-5.308,9.857-5.308
		c6.824,0,7.583,0,6.824,0.758c0,1.517-0.758,1.517-6.824,2.275h-6.066v2.274v2.275l6.066,0.758c4.55,0,6.066,0,6.824,1.516
		c1.517,2.274,1.517,4.55,0,6.824c-1.517,1.517-2.274,1.517-8.341,1.517C103.799,94.007,103.799,94.007,103.799,92.49z
		 M122.755,84.149c0-7.583,0-9.099,0.759-9.099c0.758,0,1.516,1.517,1.516,9.099s-0.758,9.858-1.516,9.858
		C122.755,94.007,122.755,91.731,122.755,84.149z M132.613,93.248c-3.792-1.517-6.066-6.066-5.309-11.374
		c0.759-4.549,3.033-6.825,7.583-7.583c6.065-0.758,9.857,2.274,10.616,8.341c0.758,6.824-2.275,11.374-8.342,10.615
		C134.888,93.248,132.613,93.248,132.613,93.248z M139.437,90.974c2.275,0,3.792-9.857,1.517-12.89c-1.517-1.517-6.824-1.517-8.34,0
		c-2.275,2.274-2.275,7.582-0.759,9.857s3.791,3.791,5.308,3.033C137.92,90.974,138.679,90.974,139.437,90.974z M148.536,84.149
		V75.05h1.517c2.274,0,3.033,0,6.066,5.308c5.308,9.099,5.308,9.099,4.55,1.517c0-6.825,0-7.583,1.517-6.825
		c1.517,0,2.274,0,2.274,9.099s-0.758,9.099-2.274,9.099c-0.759,0-2.274-0.758-3.033-2.274c-0.758-1.517-3.033-4.551-3.792-6.825
		c-1.517-3.033-3.033-4.549-3.791-4.549c0,0,0,3.034,0,6.823c0,6.825-0.758,7.584-1.517,7.584
		C148.536,94.007,148.536,93.248,148.536,84.149z M68.918,82.633c0-0.759-2.275-2.275-4.55-3.792
		c-3.033-1.517-4.549-3.034-4.549-3.792c0,0,1.516-0.758,3.791-1.516c2.275,0,3.033,0,5.308,0.758
		c2.274,0.758,6.066,4.55,6.066,6.066C74.984,81.875,69.676,84.149,68.918,82.633z"/>
	<path fill="#686667" d="M4.465,93.248c0-0.758,0-4.549,0-9.857V75.05h6.066c7.583,0,8.341,0,9.857,3.792
		c0.758,2.274-0.758,6.065-3.033,6.065c-1.517,0.758-1.517,0.758,1.517,4.55c2.274,3.791,2.274,4.55,0,3.791
		c-0.758,0-2.275-1.517-3.033-3.791c-2.275-3.034-2.275-3.034-5.308-3.034H8.257v3.793c0,3.032-0.759,3.791-1.517,3.791
		C5.982,94.007,5.224,93.248,4.465,93.248z M16.598,81.116c0.758-3.033,0-3.033-4.55-3.033H8.257v2.274v3.033h3.791
		C15.839,83.391,16.598,82.633,16.598,81.116z M27.213,92.49c-3.791-0.759-5.308-3.791-5.308-7.583
		c-0.758-7.582,2.275-10.615,9.858-9.857c3.791,0,5.308,0,5.308,0.758s-1.517,1.517-4.549,0.758c-3.033,0-3.792,0.759-5.308,2.275
		c-3.033,3.033-2.275,4.549,3.792,4.549c4.549,0,6.066,0,6.066,0.758c0,0.758-1.517,1.516-6.066,1.516c-5.308,0-5.308,0-5.308,0.758
		c0,3.034,2.275,4.551,6.825,4.551c3.791,0,4.549,0,3.791,0.758C36.312,93.248,31.005,94.007,27.213,92.49z M45.412,93.248
		c-5.308-1.517-7.583-5.308-6.825-11.374c1.517-5.308,3.791-6.825,9.857-6.825c3.792,0,5.308,0,5.308,0.758s-1.517,0.758-4.55,1.517
		c-5.308,0-6.066,1.517-6.066,6.824c0,5.308,0.758,6.825,6.066,6.825c3.792,0,4.55,0,4.55,1.517c0,0.758-0.758,0.758-3.792,0.758
		C47.687,93.248,45.412,93.248,45.412,93.248z M81.809,90.216c-1.517-3.793-6.067-14.408-6.067-15.166c0,0,0.759,0,1.517,0
		c1.517,0,2.275,0.758,4.55,6.066c0.758,3.033,2.274,6.824,3.033,6.824c0.759,1.517,1.517,0.759,1.517-0.759
		c0.759-0.759,1.517-2.274,1.517-3.033c0-0.758,0.759-3.033,1.517-5.307c1.517-3.034,2.274-3.792,3.033-3.792
		c1.516,0,2.274,0,2.274,0c0,0.758-4.55,10.615-6.065,13.649c-0.759,1.517-0.759,3.032-0.759,3.791c0,0.758-0.758,1.517-2.274,1.517
		C84.083,94.007,83.326,93.248,81.809,90.216z M96.974,84.149c0-9.099,0-9.099,1.518-9.099c0.758,0,1.517,0,1.517,9.099
		s-0.759,9.858-1.517,9.858C96.974,94.007,96.974,93.248,96.974,84.149z M103.799,92.49c0-1.517,0-1.517,5.308-1.517
		c3.791,0,6.066-0.758,6.066-1.517c2.274-2.275,0.758-3.034-4.55-3.792c-6.824,0-8.341-1.516-8.341-5.307
		c0-4.55,1.517-5.308,9.857-5.308c6.824,0,7.583,0,6.824,0.758c0,1.517-0.758,1.517-6.824,2.275h-6.066v2.274v2.275l6.066,0.758
		c4.55,0,6.066,0,6.824,1.516c1.517,2.274,1.517,4.55,0,6.824c-1.517,1.517-2.274,1.517-8.341,1.517
		C103.799,94.007,103.799,94.007,103.799,92.49z M122.755,84.149c0-7.583,0-9.099,0.759-9.099c0.758,0,1.516,1.517,1.516,9.099
		s-0.758,9.858-1.516,9.858C122.755,94.007,122.755,91.731,122.755,84.149z M132.613,93.248c-3.792-1.517-6.066-6.066-5.309-11.374
		c0.759-4.549,3.033-6.825,7.583-7.583c6.065-0.758,9.857,2.274,10.616,8.341c0.758,6.824-2.275,11.374-8.342,10.615
		C134.888,93.248,132.613,93.248,132.613,93.248z M139.437,90.974c2.275,0,3.792-9.857,1.517-12.89c-1.517-1.517-6.824-1.517-8.34,0
		c-2.275,2.274-2.275,7.582-0.759,9.857s3.791,3.791,5.308,3.033C137.92,90.974,138.679,90.974,139.437,90.974z M148.536,84.149
		V75.05h1.517c2.274,0,3.033,0,6.066,5.308c5.308,9.099,5.308,9.099,4.55,1.517c0-6.825,0-7.583,1.517-6.825
		c1.517,0,2.274,0,2.274,9.099s-0.758,9.099-2.274,9.099c-0.759,0-2.274-0.758-3.033-2.274c-0.758-1.517-3.033-4.551-3.792-6.825
		c-1.517-3.033-3.033-4.549-3.791-4.549c0,0,0,3.034,0,6.823c0,6.825-0.758,7.584-1.517,7.584
		C148.536,94.007,148.536,93.248,148.536,84.149z"/>
	<path fill="#221E1F" d="M131.854,92.49c-2.274-0.759-3.033-3.033-4.55-6.825c-0.758-2.274,0.759-7.582,3.033-9.099
		c1.517-1.517,3.033-1.517,6.066-1.517c4.549-0.758,5.308,0,6.824,1.517c3.033,4.55,3.033,12.133,0,15.165
		C140.953,93.248,134.888,94.007,131.854,92.49z M140.195,90.216c1.517-0.759,2.275-2.275,2.275-6.067
		c0-6.065-1.518-6.824-5.309-6.824c-4.549-0.759-6.065,2.274-6.065,6.824C131.097,90.216,135.646,93.248,140.195,90.216z
		 M5.224,84.149V75.05h5.308c7.583-0.758,9.099,0.758,9.857,4.55c0,3.034-1.516,6.065-3.791,6.065c-0.758,0-0.758,0.758,0.758,2.275
		c0,0,1.517,1.517,2.275,3.033c1.516,1.517,1.516,2.274-0.758,2.274c-1.517,0-2.275-0.758-3.792-3.791
		c-0.758-3.034-1.517-3.034-4.549-3.034H8.257v3.034c0,3.033-0.759,3.791-1.517,3.791C5.224,93.248,5.224,92.49,5.224,84.149z
		 M15.839,82.633c0.758,0,1.517-1.517,1.517-2.275c0-2.274-2.275-3.033-6.066-3.033H8.257v3.033v3.791h3.033
		C12.806,84.149,15.081,83.391,15.839,82.633z M24.181,90.974c-2.275-2.274-3.034-4.551-2.275-9.099
		c0.759-5.308,3.033-6.825,9.858-6.825c3.791-0.758,5.308,0,5.308,0.758s-1.517,1.517-4.549,1.517
		c-4.55-0.759-6.825,1.517-6.825,4.549c0,0.759,0,1.517,5.308,1.517c4.549,0,6.066,0,6.066,0.758c0,0.758-1.517,1.516-6.066,1.516
		c-5.308,0-5.308,0-5.308,0.758c0,3.034,2.275,4.551,6.825,4.551c3.033,0,4.549,0,4.549,0.758c0,0.759-1.517,1.517-6.066,1.517
		C26.455,93.248,25.697,92.49,24.181,90.974z M40.862,90.974c-1.517-2.274-1.517-3.033-1.517-6.066c0-7.582,2.275-9.857,9.857-9.857
		c3.033,0,4.55,0,4.55,0.758s-1.517,1.517-3.792,1.517c-4.549-0.759-6.825,1.517-7.583,5.308c-0.758,5.307,0.758,8.34,6.825,8.34
		c3.033,0,4.55,0,4.55,0.758c0,0.759-1.517,1.517-5.308,1.517C43.895,93.248,43.137,92.49,40.862,90.974z M82.567,90.216
		c-1.517-2.275-3.033-5.309-6.066-12.891c-0.759-2.275-0.759-2.275,0.758-2.275s2.275,0.758,4.55,6.825
		c3.033,7.583,3.792,8.341,5.308,4.548c2.274-6.823,3.791-11.373,5.308-11.373c1.516,0,2.274,0,2.274,0s-1.517,3.792-3.791,7.583
		c-1.517,3.79-3.033,7.583-3.033,8.34C87.117,94.007,84.083,93.248,82.567,90.216z M96.974,84.149c0-9.099,0-9.099,1.518-9.099
		c0.758,0,1.517,0,1.517,9.099c0,8.341-0.759,9.099-1.517,9.099C96.974,93.248,96.974,92.49,96.974,84.149z M103.799,91.731
		c0-0.758,0.758-0.758,6.065-1.516c5.309,0,6.066,0,6.066-1.517c0.759-2.276-1.516-3.792-6.824-3.034
		c-5.308,0-6.066-1.516-6.066-6.065c0-3.792,1.517-4.55,9.1-4.55c5.308,0,6.824,0,6.824,0.758s-1.517,1.517-5.308,0.758
		c-6.825,0-7.583,0.759-7.583,3.792v2.275l5.308,0.758c3.792,0,6.825,0.758,7.583,0.758c0.759,1.516,0.759,6.825-0.758,7.583
		C115.931,93.248,103.799,93.248,103.799,91.731z M122.755,84.149c0-7.583,0-9.099,0.759-9.099c0.758,0,1.516,1.517,1.516,9.099
		s-0.758,9.099-1.516,9.099C122.755,93.248,122.755,91.731,122.755,84.149z M148.536,84.149V75.05h1.517
		c2.274-0.758,3.033,0,5.308,5.308c5.309,9.099,5.309,9.099,5.309,1.517c0-6.825,0.758-6.825,2.274-6.825
		c0.759,0,1.517,0,1.517,9.099v9.099h-2.274c-1.517,0-2.274-1.517-6.066-7.583l-4.55-7.582v7.582
		c-0.758,6.825-0.758,7.583-2.274,7.583C148.536,93.248,148.536,92.49,148.536,84.149z"/>
</g>
</svg>
