<?xml version="1.0" encoding="UTF-8" standalone="no"?>
<!-- Generator: Adobe Illustrator 16.0.0, SVG Export Plug-In . SVG Version: 6.00 Build 0)  -->
<!DOCTYPE svg  PUBLIC '-//W3C//DTD SVG 1.1//EN'  'http://www.w3.org/Graphics/SVG/1.1/DTD/svg11.dtd'>
<svg id="Ebene_1" xmlns="http://www.w3.org/2000/svg" xml:space="preserve" height="168px" viewBox="0 0 168 168" width="168px" version="1.1" y="0px" x="0px" xmlns:xlink="http://www.w3.org/1999/xlink" enable-background="new 0 0 168 168">
	<path d="m25.161 114.03c-5.481-2.437-8.527-4.264-12.181-7.918-4.264-4.263-8.527-12.181-9.745-16.444-1.218-7.308 0-17.053 2.436-18.271 0.609-0.609 1.218-1.218 0.609-1.218 0-0.609 1.218-1.827 6.091-7.309 5.481-6.091 13.399-9.136 21.926-9.136 1.827 0 4.263-0.609 4.263-0.609 0-0.609 0-0.609 0.609-0.609 0 0 1.827 0.609 3.045 0.609 3.045 0.609 6.699 1.827 10.354 4.263 3.045 1.828 9.136 7.918 10.354 9.745 0.609 0.609 1.218 2.436 2.436 3.654 3.654 4.873 4.264 17.663 1.219 25.581-3.045 7.309-9.745 14.008-17.054 17.053-3.654 1.828-5.481 1.828-12.181 1.828-7.918 0.61-8.527 0-12.181-1.22zm7.918-6.7c-0.609-6.091-0.609-6.091-3.654-6.091-3.655 0-4.264 1.218-1.827 4.872 2.436 3.654 3.045 3.654 4.263 3.654s1.218-0.6 1.218-2.43zm7.308 2.43c0-0.608 0-1.218 0.609-1.827 1.827-1.218 3.045-4.872 3.654-6.09 0-1.219 0-1.219-2.436-1.219-1.828 0.609-3.045 0.609-3.655 1.219-0.609 0.608-1.218 7.309-1.218 7.917 0.61 0.61 3.046 0.61 3.046 0zm-16.445-1.82c0-0.608 0-1.218-0.609-1.218 0 0-1.218-1.827-1.827-3.045-1.218-2.437-1.827-3.046-3.045-3.046-0.609 0-1.218 0-1.218 0.609h-1.218c-1.827-0.609-0.609 0.609 1.827 2.437 1.218 1.218 3.045 2.436 3.654 3.045 1.218 1.83 1.827 1.83 2.436 1.22zm26.799-1.83c3.654-3.045 6.7-5.481 6.091-6.09s-0.609-0.609-1.218 0c-0.609 0-1.218 0.608-1.827 0.608-2.436 0.609-4.263 1.827-4.263 2.437s-1.218 1.827-1.827 3.045c-1.218 0.609-1.827 1.827-1.827 1.827-0.001 0.6 2.435-0.62 4.871-1.84zm-31.671-9.744s0-1.218-0.609-1.827c-0.609-1.218-1.218-3.046-1.218-4.873l-0.609-3.045h-3.045c-5.482 0.609-4.873 0-3.655 7.309 0 1.827 1.828 3.046 4.873 3.046 2.436 0 3.654-0.61 4.263-0.61zm14.009-3.654c-0.609-6.699-0.609-6.699-4.873-6.091-2.437 0-4.264 0.609-4.873 1.219-0.609 0.608-0.609 7.917 0.609 8.526h4.873 4.264v-3.654zm14.008 3.654v-3.654c0.609-6.699 1.218-6.091-3.045-6.091-2.437 0.609-4.264 0.609-4.873 0.609 0 0-0.609 1.827-0.609 3.045 0 1.827-0.609 3.654-0.609 4.873l-0.609 1.827h4.873c2.435 0.001 4.872-0.609 4.872-0.609zm13.399-1.218c0.609-0.609 1.218-1.827 0.609-1.827 0 0 0-1.828 0.609-3.655 0.609-1.826 0.609-3.045 0.609-3.045 0.609-0.608-7.309 0.609-7.918 1.219-0.609 0-0.609 1.218-0.609 1.826 0 1.219-0.609 3.046-1.218 4.264-1.218 1.219-1.218 2.437-1.218 2.437s1.827 0 4.263 0c3.655-0.001 4.264-0.001 4.873-1.219zm-43.852-14.008c0.609 0 0.609-2.436 0.609-4.873v-3.654h-2.436c-3.045 0-3.655 0-4.873 4.264-0.609 1.827-1.218 3.654-1.827 3.654-0.609 0.609-0.609 0.609 0 1.218 1.218 0.609 8.527 0 8.527-0.609zm15.226 0.609c1.218-0.609 1.218-1.218 1.218-4.263-0.609-4.873-0.609-4.873-4.873-4.873-3.655 0-4.264 0-4.873 4.264 0 1.827-0.609 3.045-1.218 3.045v1.218s7.31 1.218 9.746 0.609zm16.445 0c0-0.609 0-3.654-1.218-7.309l-0.609-1.827h-3.654c-3.654 0-4.264 0-4.873 5.482v3.654h4.873 5.481zm14.008-0.609c0.609 0 0.609-1.218 0-3.045-1.218-5.482-1.827-6.091-5.481-5.482h-3.654v4.264c0 2.436 0 4.263 0.609 4.872 0.608 0 7.917 0 8.526-0.609zm-42.025-14.618c0.609 0 0.609-1.218 0.609-1.218 0-0.609 0.609-1.827 1.218-3.045 2.436-3.045 1.218-3.045-1.218 0-1.218 0.609-6.09 4.263-6.09 4.263-0.609 0-1.218 0-1.218 0.609 0 0 0.609 0.609 3.045 0.609 1.827 0.001 3.654-0.609 3.654-1.218zm12.791 0.609v-4.263c-0.609-3.654-0.609-4.264-1.827-4.264-0.609-0.609-0.609 0-0.609 0 0 0.609-0.609 1.218-1.218 1.827-0.609 1.218-1.827 2.437-2.437 3.655 0 1.218-0.609 2.436-1.218 2.436v0.609c0 0.61 6.699 0.61 7.309 0zm12.181-0.609s0-0.609-0.609-1.218-1.218-2.436-2.436-3.654c-0.609-1.827-1.218-2.436-1.828-2.436v-0.609-0.609c-1.218 0-2.436 1.827-2.436 5.481v4.264h3.654c1.828 0 3.655-0.61 3.655-1.219zm12.18 0c0-0.609-3.045-3.045-6.09-4.873-1.827-1.218-2.437-1.218-3.654-0.609-0.609 0.609-0.609 0.609 0.609 3.045 0.609 1.218 1.218 2.436 1.827 2.436v0.609s1.218 0.609 3.045 0.609c2.436 0.002 4.263-0.608 4.263-1.217zm41.416 41.418c-0.609-0.608-1.827-1.218-1.827-1.218-0.609 0 0 0.609 0.609 0.609l-1.219 1.218c-2.436 1.218-6.09 1.218-7.917 0-1.218-1.218-1.827-1.218-3.045 0-3.047 1.827-8.527 0.609-7.31-1.218 0-0.609 0-1.219-0.609-1.219-1.218 0-1.218-0.608-1.218-1.827 0-0.608 0-0.608 1.218 0 1.219 0.609 2.437 0.609 3.046 0.609 1.826 0.609 1.218-0.609-1.219-1.827-1.218-0.609-1.827-1.218-1.827-1.827 0 0 0-1.218-0.608-1.218-2.437-2.437 0-5.481 4.263-5.481 1.218 0 2.437 0 3.045 1.218 0.61 1.219 1.219 1.219 1.219 1.219 0.608-1.219 3.654-2.437 5.481-2.437 1.218 0 2.436 0.609 4.263 2.437l2.437 2.436v-2.436c0-1.827 0-2.437 0.608-2.437 0.609 0 1.219 0 1.219 0.609 0 0.608 0 1.827 1.218 1.827 0.609 0.608 1.218 1.218 0.609 4.263 0 3.654 0 3.654 1.827 3.654 1.827 0.609 2.436 1.218 0.608 1.827-1.218 0-0.608 0 0 0.609h2.437c0.609-0.609 0.609-0.609 0-2.437-1.218-2.437-1.218-10.354 0-10.354 0.609 0 1.218 0 1.218 1.218 0 0.609 0 1.219 0.609 1.219 1.218 0 1.827 1.218 1.827 4.872 0 3.045 0 3.654 0.609 3.045 1.218 0 1.827-1.827 1.827-6.699 0-3.045 0.609-3.654 1.218-3.654s1.219 0 1.219 0.609c0 1.218 1.218 1.827 3.654 1.827 1.827-0.609 1.218-1.219-1.218-1.219-1.219 0-1.827-0.608-1.827-0.608 0-0.609 2.436-0.609 7.308-0.609 4.264 0 7.918 0 7.918 0.609 0 0-0.609 0.608-1.218 0.608l0.608 0.609c1.219 0 1.827 0 3.654-1.218 1.218-0.609 2.437-0.609 3.654-0.609 1.827-0.609 4.873 2.437 6.091 4.263v-1.826c0-2.437 0.609-2.437 1.219-2.437 1.218 0 3.045 1.218 4.872 4.263l0.609 1.827 0.608-3.045c0-3.045 1.827-4.872 1.827-1.827 0 1.827 0.609 2.437 3.046 0 1.218-1.218 1.827-1.218 3.654-1.218 2.436 0 3.045 0 3.653 1.827 1.219 2.436 0.609 2.436-1.218 2.436-0.609 0-1.827 0-1.827 0.609 0 0 0 0.609 0.609 0.609 0.608 0 4.872 4.263 4.872 5.481 0 3.045-6.09 5.481-8.526 3.045-0.609-0.609-0.609-0.609-2.437 0-1.827 1.218-3.045 0.609-4.263-2.437-1.219-1.827-2.437-3.045-2.437-0.608 0.609 1.218 0 3.654-1.218 3.654-0.609 0-1.219-0.609-1.219-1.219-0.608-0.608-1.218-0.608-3.045 0.609s-4.873 1.218-6.7 0c-1.827-0.609-3.045-2.437-3.045-3.045v-1.219c-1.218-0.608-0.609 1.827 0 3.046 0 0.608-0.609 1.218-1.218 1.827-1.827 1.218-4.264 0-3.654-1.827 0-0.609 0-0.609-0.609-0.609-1.218 0-1.218-0.609-1.218-0.609 0-0.608 0-0.608 0.608-0.608 0.609 0 1.219-0.609 0.609-1.219v-3.654c0-1.827-0.609-2.436-1.218-2.436-1.219 0-1.827 1.827-1.827 6.09 0 3.046-0.609 4.264-1.219 4.264-1.218 0.609-3.045-0.609-2.436-1.827v-0.609c-0.609 0-0.609-1.827-1.218-4.263 0-4.264 0-4.264-1.219-3.654-0.608 0-0.608 1.218-0.608 3.654 0 4.263 0 4.263-1.827 6.09-0.609 1.219-1.219 1.827-3.655 1.827-1.827 0-3.045-0.608-3.654-1.218-1.218-1.218-1.827-1.218-2.437 0-0.608 0.609-1.827 0.609-2.436 1.218-1.8 0.02-2.41 0.02-4.234-1.8zm-17.053-1.22h-1.218 0.608 0.61zm12.791-1.22c0.608-1.219 0.608-1.219-0.609-0.609-0.609 1.218-1.218 1.827-0.609 1.827-0.001 0 0.608-0.61 1.218-1.22zm-1.827-1.22c0.608-1.218 1.218-2.436 0.608-3.654 0-1.827 0-2.436-1.218-2.436-1.827 0.608-2.437 1.218-2.437 3.045-0.608 3.65 0.61 4.87 3.047 3.04zm46.283 0c1.219-1.827 1.219-5.481-0.609-5.481-1.218-0.608-3.045 2.437-2.436 4.264 0.62 2.44 1.23 2.44 3.05 1.22zm20.71 0.61c0-0.609-0.608-1.218-1.827-1.827-1.218 0-2.436-0.609-2.436-1.218s-0.609 0.608-0.609 1.827c-0.6 0.61 4.27 1.83 4.88 1.22zm-74.911-4.87c0-1.827 0-1.827-1.828-1.827-1.828 0.608-3.045 1.827-1.218 1.827 0.608 0 1.218 0 1.828 1.218 1.218 1.22 1.218 1.22 1.218-1.22zm-3.046-3.654c1.218 0.609 0.608 0 0-0.609-1.218-0.608-3.654 0.609-3.654 1.219 0 0.608 0.609 0.608 1.218 0 1.218-0.61 1.826-0.61 2.436-0.61zm8.527 0.61c1.218-0.609 1.218-1.219 0-1.219-0.609 0-2.437 0.609-2.437 1.827h0.609c0.001 0 1.219-0.608 1.828-0.608zm45.68 0c0.608-0.609 1.218-0.609 1.827-0.609 0.608 0.609 0 0 0-0.609-0.609-0.608-1.219-0.608-2.437 0-0.609 0.609-1.218 1.219-1.218 1.219 0 1.216 0.61 1.216 1.83-0.001zm23.14-1.219c0.608-0.608-0.609-0.608-1.827 0-0.609 0-0.609 0.609-0.609 1.219 0 0.608 0 0.608 1.218 0 0.61 0 1.22-0.61 1.22-1.219zm-32.28 0h-3.045-1.219c1.219 0 1.827 0.609 2.437 1.219 0.62 0.608 1.83 0 1.83-1.219zm-14.01-7.309c-2.437-0.608-6.7-3.045-8.527-4.873-1.827-2.436-3.654-7.309-4.264-10.354-1.218-6.699 2.437-12.79 9.136-15.835 6.7-2.436 15.227-1.218 18.881 3.655 0.609 1.218 1.219 1.827 1.827 1.827v1.218c2.437 0 3.654 9.745 1.827 10.962-0.608 0.609-4.872 0.609-9.744 0.609-4.872-0.609-9.745 0-10.963 0-1.828 0.609-1.828 0.609-1.219 1.218 2.437 3.045 10.354 3.654 15.227 1.218l2.437-1.218 1.218 1.827c1.827 1.827 1.827 3.045 1.827 6.09-0.63 2.438-11.59 4.874-17.69 3.656zm9.75-21.926c0-1.827-0.608-2.436-4.263-2.436-2.437 0-4.264 0.609-5.481 1.218l-1.827 1.218 5.481 0.609h6.09v-0.609zm-41.417 21.318c-0.608-0.609-1.218-1.219-1.827-2.437-0.608-1.218-0.608-3.045-0.608-14.618 0-13.399 0-13.399 1.218-14.008 3.045-0.609 5.482-0.609 5.482 0.609 0.608 1.828 0.608 1.828 2.436 0.609 3.046-2.437 9.745-2.437 9.745-0.609 0 0.609 0 1.218 1.218 1.828 1.218 0.609 1.218 3.654 0 4.873-0.609 0.609-1.827 1.218-3.654 1.218-1.218 0-3.045 0-3.654 0.609-3.045 1.827-3.045 3.654-3.045 12.79 0 7.309-0.609 8.527-1.218 8.527-1.828 1.217-5.483 1.217-6.093 0.609zm54.817-0.61c-0.609 0-0.609-0.609-0.609-1.218s-0.609-1.219-1.218-1.219c-1.218 0-1.218-1.827-0.609-2.436 0.609 0 7.309-7.918 9.136-10.354 1.219-0.609 0.609-1.218-2.436-5.481-1.828-2.436-4.264-5.481-4.873-6.091-1.827-2.436-1.827-2.436-0.609-3.045 0.609-0.609 2.437-0.609 3.654-0.609 2.437 0 2.437 0 6.7 4.873l3.654 5.481 3.654-5.481 3.654-4.873h3.046c3.045-0.609 3.653 0 3.653 0.609 0 1.218 0.609 1.218 1.219 1.828 1.218 0 1.827 1.827 0 3.654-3.654 4.873-8.526 10.354-9.136 9.745 0-0.609-0.609 0 0 0 0 0.609 2.437 3.654 4.872 6.7 5.481 6.091 5.481 6.7 4.264 7.918-0.609 1.218-4.872 1.218-6.699 0.609-0.609 0-1.827-2.437-3.654-4.873s-3.046-4.263-3.654-4.263c-0.609 0-1.827 1.218-2.437 3.045-3.045 5.482-4.873 6.7-7.918 6.7-1.8-0.001-3.63-0.609-3.63-1.219z" fill="#A7CCDA"/>
	<path d="m25.161 114.03c-4.873-1.827-9.745-4.872-12.181-7.918-3.655-3.654-7.918-10.354-8.527-14.008-0.609-2.437 0-2.437 1.218 0.609 1.218 1.827 2.436 4.264 3.654 5.481 1.218 1.827 1.218 1.827 1.218 0.608 0-0.608 0.609-1.826 1.218-1.826 1.827-0.609 20.099 0 20.708 0 0.609 0.608 0.609 1.218 0.609 2.436-0.609 1.827-0.609 1.827-3.045 1.827-2.436-0.609-3.045 0-3.654 0.609-0.609 1.218-0.609 1.218 0.609 3.654 2.437 4.872 0.609 4.263-1.827-0.609-1.827-2.437-2.437-3.045-1.827-1.218 1.218 1.827 1.218 2.436 0.609 2.436-1.218 0-3.654-4.263-3.654-5.481 0-0.608 0-0.608-1.218 0h-1.827v0.609h-1.218s-0.609 0-1.218 0.609c-1.218 0.608-1.218 0.608-0.609 0 0.609-0.609 0-1.219 0-0.609-0.609 0-1.218 0-1.827-0.609-1.827-1.218-0.609 0.609 1.218 2.437 6.699 6.699 19.49 9.136 30.453 6.091 10.354-2.437 19.49-13.399 20.099-24.971 0.609-1.827 0-5.481 0-7.918-1.218-3.654-3.654-9.745-4.872-10.963-0.609-0.609-0.609-1.218-0.609-1.218-0.609-0.609-1.218-1.218-1.827-2.437-0.609-0.609-1.218-1.827-1.218-1.827 1.218 0 6.7 6.7 9.136 10.354 4.263 6.09 4.872 17.663 1.827 26.189-3.045 7.309-9.745 14.008-17.054 17.053-3.654 1.828-5.481 1.828-12.181 1.828-7.92 0.61-8.529 0-12.183-1.22zm-2.437-13.4c-0.609-1.218-1.218-1.218-1.218-1.218s0 0.609 0.609 1.827c0 0.609 0.609 0.609 0.609 0.609s0-0.61 0-1.22zm76.132 7.31c-0.609-0.608-1.827-1.218-1.827-1.218-0.609 0 0 0.609 0.609 0.609l-1.219 1.218c-2.436 1.218-6.09 1.218-7.917 0-1.218-1.218-1.827-1.218-3.045 0-3.047 1.827-8.527 0.609-7.31-1.218 0-0.609 0-1.219-0.609-1.219-1.218 0-1.218-0.608-1.218-1.827 0-0.608 0-0.608 1.218 0 1.219 0.609 2.437 0.609 3.046 0.609 1.826 0.609 1.218-0.609-1.219-1.827-1.218-0.609-1.827-1.218-1.827-1.827 0 0 0-1.218-0.608-1.218-2.437-2.437 0-5.481 4.263-5.481 1.218 0 2.437 0 3.045 1.218 0.61 1.219 1.219 1.219 1.219 1.219 0.608-1.219 3.654-2.437 5.481-2.437 1.218 0 2.436 0.609 4.263 2.437l2.437 2.436v-2.436c0-1.827 0-2.437 0.608-2.437 0.609 0 1.219 0 1.219 0.609 0 0.608 0 1.827 1.218 1.827 0.609 0.608 1.218 1.218 0.609 4.263 0 3.654 0 3.654 1.827 3.654 1.827 0.609 2.436 1.218 0.608 1.827-1.218 0-0.608 0 0 0.609h2.437c0.609-0.609 0.609-0.609 0-2.437-1.218-2.437-1.218-10.354 0-10.354 0.609 0 1.218 0 1.218 1.218 0 0.609 0 1.219 0.609 1.219 1.218 0 1.827 1.218 1.827 4.872 0 2.436 0 3.654 0.609 3.654 1.827 0 2.437-1.827 2.437-6.7 0-3.653 0-4.263 0.608-4.263 0.609 0 1.219 0 1.219 0.609 0 1.218 1.218 1.827 3.654 1.827 1.827-0.609 1.218-1.219-1.218-1.219-1.219 0-1.827-0.608-1.827-1.218h7.308c4.264 0 7.918 0 7.918 0.609 0 0-0.609 0.608-1.218 0.608l0.608 0.609c1.219 0 1.827 0 3.654-1.218 1.218-0.609 3.045-0.609 3.654-0.609 1.827 0 4.873 2.437 6.091 4.263v-1.218s0.609-2.436 0.609-2.436c0.609 0 1.218 0 1.218-0.609s2.437 1.827 4.264 4.263l0.609 1.827 0.608-3.045c0-3.045 1.827-4.872 1.827-1.827 0 1.827 0.609 2.437 3.046 0 1.218-1.218 1.827-1.218 3.654-1.218 2.436 0 3.045 0 3.653 1.827 1.219 2.436 0.609 2.436-1.218 2.436-0.609 0-1.827 0-1.827 0.609 0 0 0 0.609 0.609 0.609 0.608 0 4.872 4.263 4.872 5.481 0 3.045-6.09 5.481-8.526 3.045-0.609-0.609-0.609-0.609-2.437 0-1.827 1.218-3.045 0.609-4.263-2.437-1.219-1.827-1.219-2.436-1.827-1.827-0.609 0-0.609 0.609-0.609 1.219 0.609 0.608 0 3.654-1.218 3.654-0.609 0-1.219-0.609-1.219-1.219-0.608-0.608-1.218-0.608-3.045 0.609s-4.873 1.218-6.7 0c-1.827-0.609-3.045-2.437-3.045-3.045v-1.219c-1.218-0.608-0.609 1.827 0 3.046 0 0.608-0.609 1.218-1.218 1.827-1.827 1.218-4.264 0-3.654-1.827 0-0.609 0-0.609-0.609-0.609-1.218 0-1.218-0.609-1.218-0.609 0-0.608 0-0.608 0.608-0.608 0.609 0 0.609-1.219 0.609-2.437 0-3.045 0-4.872-1.218-4.872-1.219 0-1.827 1.827-1.827 6.09 0 3.046-0.609 4.264-1.219 4.264-1.218 0.609-3.045-0.609-2.436-1.827v-0.609c-0.609 0-0.609-1.827-1.218-4.263 0-4.264 0-4.264-1.219-3.654-0.608 0-0.608 1.218-0.608 3.654 0 4.263 0 4.263-1.827 6.09-0.609 1.219-1.219 1.827-3.655 1.827-1.827 0-3.045-0.608-3.654-1.218-1.218-1.218-1.827-1.218-2.437 0-0.608 0.609-1.827 0.609-2.436 1.218-1.8 0.02-2.41 0.02-4.234-1.8zm-17.053-1.22h-1.218 0.608 0.61zm12.791-1.22c0.608-1.219 0.608-1.219-0.609-0.609-0.609 1.218-1.218 1.827-0.609 1.827-0.001 0 0.608-0.61 1.218-1.22zm-1.827-1.22c0.608-1.218 1.218-2.436 0.608-3.654 0-1.827 0-2.436-1.218-2.436-1.827 0.608-2.437 1.218-2.437 3.045-0.608 3.65 0.61 4.87 3.047 3.04zm46.283 0c1.219-1.827 1.219-5.481-0.609-5.481-1.218-0.608-3.045 2.437-2.436 4.264 0.62 2.44 1.23 2.44 3.05 1.22zm20.71 0.61c0-0.609-0.608-1.218-1.827-1.827-1.218 0-2.436-0.609-2.436-1.218s-0.609 0.608-0.609 1.827c-0.6 0.61 4.27 1.83 4.88 1.22zm-8.52-1.83c0-0.609-0.609-0.609-1.218-0.609v0.609l0.608 0.609 0.61-0.61zm-66.391-2.43c0-2.436 0-2.436-1.828-2.436-1.828 0.608-3.045 1.827-1.218 1.827 0.608 0 1.218 0.608 1.828 1.218 0.608 0.609 1.218 1.218 1.218 1.218s0-0.61 0-1.83zm-3.046-4.264c1.218 0.609 0.608 0 0-0.609-1.218-0.608-3.654 0.609-3.654 1.219 0 0.608 0.609 0.608 1.218 0 1.218-0.61 1.826-0.61 2.436-0.61zm8.527 0.61c1.218-0.609 1.218-1.219 0-1.219-0.609 0-2.437 0.609-2.437 1.827h0.609c0.001 0 1.219-0.608 1.828-0.608zm45.68 0c0.608-0.609 1.218-0.609 1.827-0.609 0.608 0.609 0 0 0-0.609-0.609-0.608-1.219-0.608-2.437 0-0.609 0.609-1.218 1.219-1.218 1.219 0 1.216 0.61 1.216 1.83-0.001zm23.14-1.219c0.608-0.608-0.609-0.608-1.827 0-0.609 0-0.609 0.609-0.609 1.219 0 0.608 0 0.608 1.218 0 0.61 0 1.22-0.61 1.22-1.219zm-32.28 0.609c0.609-0.609 0-0.609-3.045-0.609h-1.219c1.219 0 1.827 0.609 2.437 1.219 0.62 0.608 0.62 0.608 1.83-0.61zm-92.574 7.314c0-3.046 0-6.091 0.609-6.091 0.609-0.608 17.663-1.218 21.317-0.608l1.828 0.608-1.828 1.218c-0.609 1.219-1.827 1.827-2.436 1.827-1.827 0.609-4.263 1.827-4.263 2.437 0 1.218-3.045 3.654-4.873 4.264-1.827 0.608-1.827-0.609 0-4.264 0.609-1.827 1.218-3.654 1.218-4.264v-0.608c0 0.608-0.609 0.608-1.218 0.608v0.609c0 1.218-1.827 1.827-4.264 1.827-1.827 0-2.436 1.218-2.436 4.872 0 1.219-0.609 3.046-0.609 3.046h-1.827c-0.609 0.6-0.609-0.61-1.218-5.48zm-26.798-9.141c-1.218-1.827-2.436-6.699-2.436-9.745v-2.436h5.481c3.045 0 6.7 0 7.309 0.609h1.218c0-1.218 13.399-1.218 14.008-0.609v2.436c-0.609 1.827-0.609 1.827-4.873 1.827-2.437 0-4.264 0.609-4.873 1.219 0 0-0.609 1.826-0.609 3.653 0.609 2.437 0 3.046-0.609 3.655-1.827 0.608-1.827 0-3.045-5.482-0.609-4.872-0.609-5.481-2.437-3.653-0.609 0.608-2.436 1.218-4.263 1.218-3.045 0-3.655 0-3.045 4.263 0.61 3.045 0.001 4.872-1.826 3.045zm26.798-5.481v-6.7h7.309c6.7 0 7.309 0 7.309 1.218 0 0.609-0.609 0.609-0.609 0.609-0.609 0-0.609 0-0.609 0.609 0 1.827-1.218 1.827-5.481 2.437h-3.045l-0.609 3.654c0 2.437-0.609 4.264-1.218 4.264h-1.827c-0.611 0.608-0.611-0.61-1.22-6.091zm14.618 1.827c0.609-2.437 0.609-5.481 0.609-6.091v-2.436h6.09c7.309-0.609 8.527 0 7.918 1.218 0 0.609-0.609 0.609-1.218 0.609v0.609c0 1.219-1.827 1.827-5.481 1.827-2.437 0.609-3.045 1.219-3.045 3.045 0 1.219-0.609 2.437-1.218 3.655-0.609 1.827-1.218 1.827-2.436 1.827h-1.827l0.608-4.263zm63.946-2.437c-2.437-0.608-6.7-3.045-8.527-4.873-4.264-5.481-5.481-13.399-2.437-18.88 0.609-1.827 1.219-3.045 1.827-3.045 0 0.609 0.609 0 1.827-0.609 1.219-1.218 3.046-1.827 4.264-2.437 1.219-0.609 1.827-1.218 1.827-1.827-0.608-0.609 9.136-0.609 11.572 0.609 2.437 1.218 7.309 6.091 6.699 6.7-0.608 0 0 0.609 0 0 2.437 0 3.654 9.745 1.827 10.962-0.608 0.609-4.872 0.609-9.744 0.609-9.136-0.609-13.399 0-12.791 1.218 0.609 1.218 4.264 3.045 7.31 3.045 1.827 0 2.437 0 2.437 0.609-0.609 0 0 0.609 1.826 0 3.046-0.609 5.481-1.218 5.481-2.436 0-2.437 4.264 1.218 4.264 4.263s-0.609 3.655-3.045 4.873c-3.04 1.219-10.35 1.829-14.62 1.219zm10.97-20.707s-0.609-1.218-1.219-1.827c-0.608-1.827-5.48-2.437-8.526-1.218-1.218 0.609-2.437 1.218-2.437 1.827 0 0 1.827 0.609 4.873 0.609 3.045 0 5.481 0 5.481 0.609 0 0 0 0.609 0.608 0.609 0.62 0 1.23-0.609 1.23-0.609zm-42.637 20.099c-0.608-0.609-1.218-1.219-1.827-2.437-0.608-1.218-0.608-3.045-0.608-14.618 0-12.181 0-15.835 1.218-12.79v-0.609c0-0.609 0.609-0.609 3.045-0.609 1.828 0 2.437 0 3.045 1.218 0 0.609 0.609 1.827 1.219 1.218 1.218 0 1.827-0.609 0.608-1.218l0.609-0.609c0.609 0 0.609 0 0.609 0.609-0.609 0.609 0.608 0.609 2.436-1.218 0.609-0.609 1.827-0.609 2.437-0.609s1.827 0 2.436 0c0.609 0 1.219 0.609 1.219 1.218s0 1.218 1.218 1.828c1.218 0.609 1.218 3.654 0 4.873-0.609 0.609-1.827 1.218-3.654 1.218-1.218 0-3.045 0-3.654 0.609-3.045 1.827-3.045 3.654-3.045 12.79 0 7.309-0.609 8.527-1.218 8.527-1.828 1.217-5.483 1.217-6.093 0.609zm54.817-0.61c-0.609 0-0.609-0.609-0.609-1.218 0 0-0.609-0.609-1.218-1.219-1.218-0.609-1.218-1.218-0.609-1.827 0.609 0 1.218-0.609 1.827-0.609 0 0 1.218-1.218 2.437-2.436 1.827-1.827 1.827-2.437 1.218-2.437-1.218 0.609-1.218 0.609 0-0.609 1.219-1.828 1.827-1.828 1.219-0.609v0.609c1.218 0 3.654-4.264 3.654-4.873-0.609-0.609-1.827-3.045-3.654-5.481-1.828-2.436-4.264-5.481-4.873-6.091-1.827-2.436-1.827-2.436-0.609-3.045 0.609-0.609 2.437-0.609 3.654-0.609 2.437 0 3.046 0.609 5.482 3.654 1.827 1.828 3.045 4.264 3.654 5.482 1.218 1.218 2.437 2.436 1.827 0.609 0 0 0.609-1.827 1.827-2.436 0.609-1.218 1.827-3.045 1.827-3.045l1.218-1.218c0-0.609 2.437-3.045 3.046-3.045 0 0.609 1.218 0.609 2.436 0 2.437 0 3.045 0 3.045 1.218 0.609 0.609 0.609 0.609 1.219 1.218 1.218 0 1.827 1.827 0 3.654-3.046 4.263-8.526 10.354-9.136 9.745v0s7.917 9.745 9.136 10.963c1.218 1.218 1.218 3.045 0 3.655-0.609 1.218-4.872 1.218-6.699 0.609-0.609 0-1.827-2.437-3.654-4.873s-3.046-4.263-3.654-4.263c-0.609 0-1.827 1.218-2.437 3.045-3.045 5.482-4.873 6.7-7.918 6.7-1.84 0-3.67-0.608-3.67-1.218zm-130.95-9.135c0-1.828 1.218-4.873 1.827-6.7l1.827-3.654h5.482c4.873 0.609 6.09 0.609 4.873 1.218-0.609 0.609-0.609 1.218-1.218 1.827 0 1.218-0.609 1.218-3.045 1.218-3.045 0.609-3.655 0.609-4.873 4.873-1.218 3.654-1.218 3.654-3.654 3.654h-1.828l0.609-2.436zm14.008 1.217c0-3.045 1.218-10.963 1.827-11.572 0.609 0 12.181 0 12.181 0.609 0.609 0 0 1.218 0 1.827-0.609 1.827-0.609 2.436-4.264 2.436-4.264 0-4.873 0-5.481 4.264-0.609 3.045-0.609 3.045-3.045 3.654-1.218 0.001-1.218 0.001-1.218-1.218zm15.835-3.045c0-3.045-0.609-5.481-0.609-6.09-0.609-1.827 0.609-1.827 6.7-2.436h6.091v1.827c0 1.218 0 2.437 0.609 2.437 0 0.609-1.218 0.609-3.654 0.609-2.437-0.609-4.264 0-4.873 0 0 0.609-0.609 2.436-0.609 4.264-0.609 3.654-0.609 3.654-2.436 3.654h-1.218v-4.265zm15.227 3.045c0-0.609-0.609-3.045-1.218-5.481-0.609-2.437-0.609-4.873-0.609-5.481 0.609 0 3.045 0 6.09-0.609h5.482l1.218 1.218c0.609 2.436 1.218 6.7 0.609 6.7 0 0-0.609-1.218-0.609-1.827-0.609-1.218-0.609-1.827-4.263-1.218h-3.654v4.264c-0.609 3.045-0.609 3.654-1.827 3.654-1.219-0.001-1.219-0.001-1.219-1.22zm12.181-2.436v-0.609s0.609 0 0.609 0.609c0.609 1.219 0 1.219-0.609 0zm80.397-3.654c0-0.609 0-0.609 0.609-0.609v0.609l-0.609 0.609v-0.609zm-132.17-6.7c-1.828-1.827 9.136-10.354 12.79-10.354 1.827 0 1.827 0.609 0.609 1.218-0.609 0-0.609 1.218-0.609 1.218 0 0.609-1.218 2.437-2.436 3.045-1.218 1.218-3.045 2.437-4.264 3.045-1.827 1.827-3.045 1.827-3.654 0.609 0-0.609 0 0-0.609 0.609-0.608 1.219-1.218 1.219-1.827 0.61zm11.572-1.218c0-1.218 4.264-9.745 5.482-10.354 1.827-1.218 10.962-1.218 12.79 0 0.609 0.609 1.828 0.609 2.437 0.609 2.437-0.609 11.572 4.264 14.008 7.918 0.609 1.218 0.609 1.827 0 1.827s-1.218-0.609-1.828-1.218c0-0.609-1.827-1.218-3.045-2.437-2.436-1.218-3.045-1.218-4.263-0.609-0.609 0.609-0.609 0.609 0 2.436 0.609 0.609 1.218 1.827 1.218 1.827 0 1.218-1.827 1.218-2.436 0 0-0.609-0.609-0.609-1.218-0.609 0 0-1.218-1.218-2.437-3.045-1.218-1.218-1.827-3.045-2.437-3.045v0c0.609-1.218-0.609-1.218-1.827 0 0 0.609-0.609 1.827-0.609 3.045 0.609 3.654 0 4.264-1.827 4.264-1.218 0-1.218 0-1.827-4.873 0-3.045 0-5.482-0.609-5.482s-0.609 0.609-0.609 1.827c-0.609 1.218-0.609 1.218-1.827 1.218-0.609-0.609-0.609 0-0.609 0 0 0.609-0.609 1.218-1.218 1.827-0.609 1.218-1.827 2.437-2.437 3.655-0.609 1.827-0.609 1.827-3.045 1.827-1.218 0.002-1.827 0.002-1.827-0.608zm23.145-3.654l-1.218-1.218c-0.609 0 1.218 3.655 1.827 3.655 0-0.001 0-1.219-0.609-2.437z" fill="#C8C9B7"/>
	<path d="m32.469 114.64c-0.609 0-1.827-0.609-3.045-0.609s-3.045-1.218-4.264-1.827-2.437-1.218-3.654-1.827c-2.436-0.609-8.526-4.872-11.572-8.526-3.045-3.654-4.872-6.699-5.481-9.745-0.609-2.437 0-2.437 1.218 0.609 1.218 1.827 2.436 4.264 3.654 5.481 1.218 1.827 1.218 1.827 1.218 0.608 0-0.608 0.609-1.826 1.218-1.826 1.827-0.609 18.88-0.609 20.708 0 0.609 0 1.218 0.608 1.218 1.218 0 0.608-1.827 0.608-4.873 0.608-3.045-0.608-4.873 0-4.873 0 0 0.609 0.609 2.437 2.437 4.873 1.218 2.436 1.827 4.872 1.827 4.872 0 0.609-1.827-1.218-3.045-3.654-1.827-2.437-2.437-3.045-1.827-1.218 1.218 1.827 1.218 2.436 0.609 2.436s-3.654-4.263-3.654-5.481c0-1.827-1.218-1.827-4.263-1.827h-3.045s0 1.219 0.609 1.827l1.218 1.827-1.827-1.218c-1.828-1.218-1.828-0.609 0.609 1.827 6.699 6.699 19.49 9.136 30.453 6.091 10.354-2.437 19.49-13.399 20.099-24.971 0.609-1.827 0-5.481 0-7.918-1.218-3.654-3.654-9.745-4.872-10.963-0.609-0.609-0.609-1.218-0.609-1.218 0-0.609-1.218-1.218-1.827-2.437l-1.218-1.218c0.609 0 1.827 1.218 3.655 2.437 5.481 6.699 8.526 15.227 7.917 24.362 0 4.872-0.608 6.091-2.436 10.354-3.655 7.918-10.354 13.399-18.272 15.835-3.046 0.61-12.791 1.83-14.01 1.22zm-9.745-14.01c-0.609-1.218-1.218-1.218-1.218-1.218s0 0.609 0.609 1.827c0 0.609 0.609 0.609 0.609 0.609s0-0.61 0-1.22zm11.572 3.05c0-3.046 0-6.091 0.609-6.091 0.609-0.608 17.663-1.218 21.317-0.608 3.046 0.608 1.218 1.826-3.045 1.826h-4.264l-2.436 4.264c-1.827 4.264-3.045 5.481-3.045 3.654 0-0.609 0.609-2.437 1.218-3.654 0.609-1.827 1.218-3.654 1.218-4.264v-0.608c0 0.608-2.436 0.608-4.873 0.608l-4.264-0.608-0.609 5.481c0 3.654 0 5.481-0.609 5.481-0.608 0.6-0.608-1.22-1.217-5.48zm95.014 3.65c0-0.609-0.609-0.609-1.827-0.609-1.219 0-1.827-0.609-1.827-0.609 0-0.608 0-0.608 0.608-0.608 0.609 0 1.219-1.219 0.609-4.873v-4.872h-5.482v5.481c0 4.264-0.609 5.481-1.218 5.481s-0.609-1.218-0.609-5.481v-5.481h-2.436c-1.219 0-1.827-0.608-1.827-0.608 0.608-1.219 15.226-0.609 15.226 0l-0.609 0.608c-0.608 0-0.608 1.827-0.608 4.872 0 2.437 0 4.873 0.608 4.873 0 0 0.609 0.608 0.609 1.218s-0.609 1.827-0.609 1.827c-0.59 0-0.59-0.61-0.59-1.22zm22.53 0c-1.219-0.609-2.437-3.046-4.264-5.481l-1.827-4.264v4.264c0 3.654-0.609 4.872-1.218 4.872s-0.609-1.218-0.609-6.091c0-3.653 0-5.48 0.609-5.48h0.608c0-1.827 1.219-0.609 3.046 3.653 1.218 2.437 2.436 4.873 2.436 4.873s0-1.827 0-3.654c-0.608-3.045 0-3.654 0.609-4.872 0.609-1.219 0.609-0.609 0.609 4.263 0 3.654 0.608 5.481 1.218 6.091h1.218c0-0.609 0.609-0.609 3.046-0.609 3.045 0 3.045 0 3.045-1.218 0-1.219-0.609-1.827-2.437-2.437-4.263-1.827-4.872-4.263-1.218-6.09 2.437-1.219 4.872-1.219 4.872 0.608 0.609 0.609 0 0.609-1.218 0-2.437-0.608-4.264 0-3.654 1.827 0 0.609 0.609 1.218 2.437 1.827 2.436 0.609 3.045 1.218 3.045 3.045 0 0.609 0.608 1.827 1.218 1.827v1.219c0 1.218 0 1.218-0.609 0-0.608-0.609-0.608-0.609-1.827 0-0.608 0.608-1.218 1.218-3.653 0.608-3.046 0-3.654 0-3.654 1.219 0 0.608 0 1.218-0.609 1.218l-1.23-1.23zm-74.909-1.22c-1.828-0.608-0.609-1.218 1.827-1.218 3.045 0 3.045 0 3.045-1.218 0-1.219-0.609-1.827-1.827-2.437-4.264-1.218-4.873-3.654-1.827-6.09 1.827-1.219 6.09-1.219 6.09 0.608 0 0.609-0.608 0.609-1.218 0.609-2.436-1.218-3.655-1.218-4.263 0-1.219 1.218-0.609 2.436 1.827 3.045 3.654 1.218 4.873 3.654 3.045 6.091-1.219 0.62-4.872 1.23-6.699 0.62zm9.745-1.22c-1.218-1.218-1.218-2.437-1.218-4.872 0-2.437 0-3.045 1.218-3.654 3.654-3.045 7.309-2.437 8.526 1.218 1.218 2.437 0.609 4.872-1.218 7.309s-5.481 2.44-7.308 0zm6.091-0.61c1.218-1.218 1.218-6.09 0-7.308-1.219-1.219-1.827-1.219-2.437-1.219-3.045 0-4.264 5.481-1.827 7.918 1.218 1.83 3.045 1.83 4.264 0.61zm4.872-3.65c0-4.263 0-6.09 0.608-6.09 0.609-0.609 1.219 1.218 1.219 4.872v6.091h2.436c1.219 0 3.046 0 3.046 0.608 0 0-1.827 0.609-4.264 0.609h-3.654l0.603-6.09zm8.521 4.26c-1.218-1.827-1.218-10.354 0-10.354 0.609-0.609 1.218 0.609 1.218 4.263 0 4.873 0.609 6.7 2.437 6.7s2.437-1.827 3.046-6.091c0-3.654 0-4.872 0.608-4.872 0.609-0.609 1.219 0.609 0.609 4.872 0 6.091-0.609 7.309-4.873 7.309-1.84 0-2.45-0.61-3.06-1.83zm26.8 0c-1.219-1.218-1.219-2.437-1.219-4.872 0-2.437 0-3.045 2.437-4.264 3.045-2.436 5.481-1.827 7.309 1.827 0.609 1.827 1.218 2.437 0.609 4.872-1.219 2.437-3.046 4.264-6.091 4.264-1.22 0-2.44-0.61-3.05-1.83zm6.09-0.61c1.219-2.436 1.219-6.09 0-7.308-1.218-1.219-1.827-1.219-2.437-1.219-1.827 0-3.045 1.827-3.045 4.872 0 1.219 0 2.437 1.218 3.654 1.23 1.23 3.66 1.23 4.27 0.01zm-131.55-9.741c-1.218-1.827-2.436-6.699-2.436-9.745v-2.436h5.481c3.045 0 6.7 0 7.309 0.609h1.218c0-0.609 1.827-0.609 6.699-0.609 6.091 0 7.309 0 7.309 1.218 0.609 0.609-0.609 0.609-6.091 0.609l-6.7-0.609 0.609 3.655c0.609 6.699 1.218 8.526 0.609 8.526-1.218 0-1.218-1.218-2.436-6.091-0.609-3.653-0.609-4.263-1.827-4.263-0.609 0-0.609-0.609-0.609-0.609 0-0.609-2.436-0.609-5.481-0.609h-5.481l0.609 1.218c0 1.218 1.218 3.654 1.827 5.481 1.218 3.655 1.218 5.482-0.609 3.655zm26.798-5.481v-6.7h7.309c6.091 0 7.309 0 7.309 0.609 0 1.218-1.218 1.218-6.09 1.218l-6.091-0.609-0.609 6.09c0 3.046 0 5.482-0.609 5.482-0.61 0-0.61-1.827-1.219-6.09zm14.618 1.827c0.609-2.437 0.609-5.481 0.609-6.091v-2.436h6.09c7.309-0.609 8.527 0 7.918 1.218 0 0.609-1.827 0.609-6.091 0.609-6.09-0.609-6.09-0.609-5.481 1.218 0 0.609 0 1.827-0.609 1.827 0 0.609 0 1.218 0.609 1.218s0.609 0 0 0c-0.609 0.609-1.218 1.827-1.218 3.654-1.218 4.874-2.436 4.264-1.827-1.217zm63.946-3.655c-0.609 0-1.219-0.609-1.219-1.218s-1.218-1.219-1.827-1.219c-7.918-1.827-12.181-12.181-7.918-20.099 0.609-1.827 1.219-3.045 1.827-2.436 0 0 1.219-1.218 3.046-1.828 1.827-1.218 3.045-1.827 3.654-1.827s1.218-0.609 1.827-1.218c0.609-1.218 7.918-1.218 10.963 0 3.045 1.828 6.091 4.873 6.699 7.918 0 1.218 0.609 2.437 1.219 3.654 1.218 2.436 1.218 4.263-0.609 5.481-0.609 0.609-4.264 0-3.654-1.218h-9.136-9.745s0 1.218 0.609 2.437c1.218 2.437 3.654 3.654 7.918 4.264 4.263 1.218 8.526 0 9.744-1.827 1.219-1.218 1.219-1.218 2.437 2.436 1.218 3.045 1.218 4.263-1.827 5.482-1.81 1.218-9.73 1.828-14 1.218zm10.36-19.489c0-0.609 0-1.218-1.218-2.437-1.219-2.436-3.654-3.654-7.309-3.045-2.437 0-3.046 0.609-4.873 1.827-0.609 1.218-1.827 2.436-1.218 2.436 0 0.609 3.045 0.609 6.7 1.218h7.308c0.61 0.001 0.61 0.001 0.61 0.001zm36.54 19.489c-1.218 0-2.436-0.609-2.436-1.218s-0.609-1.219-1.219-1.219c0 0-2.436-1.827-4.263-4.872l-3.654-4.873-1.219 1.828c-2.436 3.045-3.045 4.263-1.827 3.654 1.219-0.609 1.219 1.218-1.218 3.654-1.219 2.436-1.827 3.045-4.264 3.045-1.827 0-3.046-0.609-3.046-1.218s-1.218-0.609-1.218-0.609c-0.609 0-1.827-0.609-1.827-1.218s0.609-1.827 1.827-1.827c0 0 1.218-1.218 2.437-2.436 1.218-1.827 1.827-2.437 1.827-2.437-0.609 0.609-1.219 0-0.609 0 0-0.609 0.609-1.218 1.219-1.218 0 0 1.218-0.609 2.436-1.827 1.219-1.827 1.219-1.827 0.609-3.654-0.609-1.218-3.045-4.263-5.481-7.309s-4.264-5.481-3.654-5.481 1.827-0.609 3.654-0.609l3.045-0.609 4.264 5.482c1.827 3.045 3.654 5.481 3.654 5.481 0.609 0 1.219-1.218 1.219-2.437 0.608-1.218 1.218-1.218 1.827-1.218 0 0 0.608 0 0 0-0.609-1.218 2.436-4.873 4.872-6.091 0.609-0.609 2.437-0.609 3.654-1.218 2.436 0 2.436 0 2.436 1.218s0.609 1.827 0.609 1.827c1.218 0.609 1.218 1.218 0 2.437-0.609 0.609-1.827 2.436-3.045 3.045-0.609 1.218-2.437 3.045-3.045 3.654-1.219 0.609-1.219 0.609-1.219-0.609 0.609-1.218-0.608-1.218-1.827 0.609l-1.218 1.827 4.872 6.091c7.32 8.528 7.32 10.965 1.84 10.355zm-78.567-1.217c-0.608-0.609-1.218-0.609-1.827-1.219-0.608 0-0.608-1.218-0.608-14.008 0-11.572 0-13.399 0.608-12.79 0.609 0 1.219 0 1.219-0.609h2.436c1.828 0 3.045 0 3.045 0.609s0 1.218 0.609 1.218c0.609 0.609 4.872-1.218 4.872-2.437h3.046c2.436 0 3.045 0 3.045 1.827 0 0.609 0 1.827 0.608 1.827 0.609 0 0.609 1.828-0.608 2.437 0 0.609-1.827 1.218-3.654 1.218s-2.437-0.609-2.437-1.218c0.609-1.218-0.608-1.218-2.436 0-2.437 1.827-3.046 4.263-3.046 10.963v6.7c1.219 0 1.827 4.263 0.609 5.482-0.608 1.217-4.871 1.217-5.481 0zm-76.131-7.309c0-2.437 1.827-7.918 3.045-9.745 1.218-1.218 1.827-1.218 6.091-1.218 4.873 0.609 7.309 1.218 3.045 1.827-3.045 0-6.7 0.609-6.091 1.218v0.609c-0.609 0-1.218 0.609-1.827 2.437-0.609 1.218-1.218 1.827-1.827 1.827 0 0-0.609 0.609-0.609 1.218-0.609 3.654-1.218 4.263-1.827 4.263v-2.436zm5.481-8.527h-1.218s-0.609 0 0 0c0 0.609 0 1.218-0.609 1.218-0.609 1.218-0.609 1.218 0.609 0.609 0.609-0.609 1.218-1.218 1.218-1.827zm8.527 9.135c0-3.045 1.218-10.963 1.827-11.572h6.7c4.872 0.609 6.09 0.609 6.09 1.827s-1.218 1.218-1.827 0h-3.654s-3.655 0.609-4.873 0.609c-0.609 0-1.827 0-1.827 0.609 0 1.827-0.609 5.481-0.609 7.309-0.609 3.046-1.827 3.655-1.827 1.218zm15.835-3.045c0-3.045-0.609-5.481-0.609-6.09-0.609-1.827 0.609-1.827 6.7-2.436h6.091v1.827c0.609 1.218-0.609 2.437-1.218 0.609 0-0.609-1.827-0.609-4.873-0.609h-4.264v5.481c-0.609 3.655-0.609 5.482-1.218 5.482-0.609 0.609-0.609-0.609-0.609-4.264zm15.227 3.045c0-0.609-0.609-3.045-1.218-5.481-0.609-2.437-0.609-4.873-0.609-5.481 0.609 0 3.045 0 6.09-0.609h5.482l1.218 1.218c0.609 2.436 1.218 6.7 0.609 6.7 0 0-0.609-1.218-0.609-1.827-0.609-3.045-2.436-4.264-7.309-4.264l-4.263-0.609 0.609 1.827c1.218 4.263 1.827 8.527 1.218 9.136-0.609 1.218-1.218 1.218-1.218-0.61zm12.181-2.436v-0.609s0.609 0 0.609 0.609c0.609 1.219 0 1.219-0.609 0zm-15.226-4.872h0.609l0.609 0.609-0.609 0.609c-0.609 0-0.609-0.609-0.609-1.218zm-36.544-5.482c-1.828-1.827 9.136-10.354 12.79-10.354 2.436 0 1.827 0.609-1.827 2.436-1.827 0.609-4.873 3.045-6.699 4.873-1.827 1.827-3.655 3.654-3.655 3.654s0-0.609-0.609-0.609zm11.572-0.608c0-1.827 4.264-10.354 5.482-10.963 1.827-1.218 10.962-1.218 12.79 0 0.609 0.609 1.828 0.609 2.437 0.609 2.437-0.609 8.527 3.045 12.181 6.091 3.655 3.654 2.437 4.264-1.218 1.218-4.263-3.045-7.309-5.482-7.917-4.873-0.609 0-0.609 1.218 0.609 3.045 1.827 3.654 2.436 5.481 1.218 5.481-0.609 0-1.218-0.609-1.218-1.218s-0.609-0.609-1.218-0.609c0 0-1.827-1.218-3.045-3.654-1.218-2.437-3.045-4.873-3.655-4.873l-1.827-0.609v4.873c-0.609 3.655-0.609 5.482-1.218 5.482-0.609 0.609-0.609-0.609-0.609-4.873 0-4.873-0.609-6.7-1.827-5.482 0 0.609-1.218 0.609-1.827 0.609-2.437-0.609-3.045 0-5.482 5.481-2.438 3.655-3.656 5.482-3.656 4.265zm23.145-4.264l-1.218-1.218c-0.609 0 1.218 3.655 1.827 3.655 0-0.001 0-1.219-0.609-2.437z" fill="#A4A9A5"/>
	<path d="m23.942 110.98c-6.09-2.437-6.699-2.437-10.962-6.091-3.655-3.654-7.309-9.136-7.918-11.571-0.609-1.828-0.609-1.828 1.218 0.608 6.7 9.745 10.354 13.399 20.099 15.835 6.7 1.827 17.663 0.609 23.753-3.045 8.527-4.872 13.399-13.398 14.008-22.535 0.609-6.09-0.609-10.354-3.045-15.835-1.218-2.436-1.827-4.873-1.827-4.873 0.609-0.609 4.872 7.309 6.09 10.963 3.654 14.618-3.654 29.235-18.88 35.934-3.045 1.827-4.263 1.827-10.963 1.827-7.309 0.61-8.527 0-11.573-1.22zm10.963-7.92v-6.09h3.045c3.045-0.609 7.918 0 7.918 1.218 0 0-2.436 0.608-4.873 0.608h-4.264v4.264c0 4.872-0.609 6.699-1.827 6.699 0.001 0 0.001-3.04 0.001-6.7zm-8.526 3.66c-2.437-3.045-4.264-7.309-4.264-8.526 0-0.609 2.436-1.827 6.091-1.218 3.045 0 4.873 0 5.481 1.218 0 0.608-1.827 0.608-4.873 0.608-6.091-0.608-6.091 0-3.045 4.873 3.046 5.48 3.655 6.69 0.61 3.04zm17.054 0l1.218-3.654c0.609-1.827 1.827-3.654 1.827-4.872 0.609-1.218 1.218-1.218 4.873-1.218h4.872c2.437 0.608 0.609 1.826-3.045 1.826h-4.264l-2.436 4.264c-1.828 4.26-3.045 5.48-3.045 3.65zm33.498-0.61c-1.828-0.608-0.609-1.218 1.827-1.218 1.827 0.609 3.045 0 3.045 0 1.218-1.827 0-3.045-1.827-3.654s-3.654-1.827-3.654-3.045c0-0.609 0.609-1.218 1.218-1.827 1.827-1.827 6.7-1.827 6.7-0.609 0 0.609-0.608 0.609-2.436 0-1.827-0.608-2.437-0.608-3.045 0.609-1.827 1.218-0.609 2.436 2.436 3.654 3.045 0.608 4.265 3.654 1.828 5.481-1.22 0.61-4.875 1.22-6.092 0.61zm9.745-1.22c-2.437-1.827-1.827-6.091 0-8.526 1.218-1.218 2.437-1.218 4.264-1.218 3.654 0 4.872 1.218 4.872 5.48 0 3.654-2.437 6.091-5.481 6.091-1.219 0-2.437-0.61-3.655-1.83zm6.699-0.61c1.219-1.218 0.609-6.09-0.608-7.917-1.219-1.218-3.046-1.218-4.873 0-1.218 1.218-1.218 5.481 0 7.309 1.218 1.83 4.263 1.83 5.481 0.61zm4.264-3.04c0-5.481 0-6.699 1.218-6.699 0 0 0.609 2.437 0.609 5.481 0 5.481-0.609 5.481 3.045 5.481h1.827c0 0.608-1.827 1.218-3.654 1.218h-3.045v-5.48zm9.131 4.26c-1.827-1.827-1.827-9.136-0.609-10.354 0.609-0.609 1.218-0.609 1.218 3.045 0 5.481 0.609 7.309 2.437 7.309 2.437 0 3.046-1.219 3.046-5.481v-4.872c0.608-1.827 1.827 0 1.827 3.653 0 3.654-0.609 4.873-1.827 6.091-1.22 1.83-4.88 1.83-6.1 0.61zm12.79-4.26v-5.481h-2.436c-3.655 0-2.437-0.608 3.045-1.218h4.872c0 0.609-1.218 1.218-1.827 1.218h-1.827v5.481c0 4.264-0.609 5.481-1.218 5.481-0.59 0-0.59-1.22-0.59-5.48zm6.1 4.87c0-0.608 0.608-0.608 1.218-0.608s0.609-0.609 0.609-1.219v-4.872c0-3.045-0.609-4.263-1.219-4.263-0.608 0 0 0 1.219-0.609 2.436 0 4.263 0 2.436 0.609-1.218 0.608-1.218 10.354 0 10.354 0 0 0.609 0 0.609 0.608 0 0-1.218 0.609-3.045 0.609-1.24 0-1.84-0.61-1.84-0.61zm7.3-1.22c-1.219-1.218-1.219-1.827-1.219-4.264 0-3.653 1.827-6.09 5.481-6.09 3.046 0 4.873 1.827 4.873 6.09 0 3.654-2.437 6.091-5.482 6.091-1.21 0-2.43-0.61-3.65-1.83zm6.7-0.61c0.609-1.218 0.609-5.481-0.609-7.308s-3.045-1.827-4.872-0.609c-1.218 1.218-1.218 5.481 0 7.309s4.26 1.83 5.48 0.61zm4.27-3.65c0-3.653 0-5.48 0.609-5.48h0.608c0-2.437 1.219-0.609 3.046 3.653l2.436 4.873 0.609-4.264c0-6.699 1.218-6.09 1.218 0.609 0 7.917-1.218 8.526-4.872 1.827l-1.827-4.872v4.872c0 3.654-0.609 4.872-1.218 4.872-0.62 0-0.62-1.22-0.62-6.09zm10.96 4.87c-1.218-0.609-1.218-0.609 2.437-0.609 3.045 0 3.045 0 3.045-1.218 0-1.219-0.609-1.827-2.437-2.437-3.654-1.218-4.263-3.045-2.436-5.481 1.218-1.218 6.699-1.218 6.699 0 0 0.609-0.609 0.609-1.827 0-2.437-0.608-4.264 0-3.654 1.827 0 0.609 0.609 1.218 1.218 1.218 3.654 2.437 4.264 2.437 4.264 4.264 0.61 3.05-4.26 4.88-7.31 2.44zm-133.38-3.04l-1.827-3.654h-3.654c-3.654-0.608-4.263-0.608-3.654 0.609 1.218 1.827 0.609 1.827-0.609 0.609-1.828-1.219-1.218-2.437 1.218-3.045 3.045-0.609 7.308 0 7.308 1.218 0.609 0 1.218 1.827 2.436 3.654 1.827 3.654 1.827 4.263 0.609 4.263 0 0-1.218-1.83-1.827-3.65zm-1.218-9.139c-0.609-1.828-1.218-4.264-1.218-6.7v-4.263h6.699c5.482 0 7.309 0 7.309 0.609 0.609 0.609-1.218 1.218-6.091 1.218h-6.7l0.609 3.655c0 2.436 0.609 4.872 0.609 6.09v1.827c-0.608 0-1.217-1.218-1.217-2.436zm14.617-4.263v-6.7h6.7c4.873 0 6.7 0 6.7 0.609 0.609 0.609-1.218 1.218-5.481 1.218h-6.091v4.263c0 5.481-0.609 7.309-1.827 7.309-0.001 0-0.001-3.045-0.001-6.699zm14.009 4.872c0-1.218 0-4.264 0.609-6.699l0.609-4.873h6.09c5.482 0 6.7 0 6.7 1.218 0.609 0.609-0.609 0.609-5.481 0.609l-5.481-0.609-0.609 3.045c-0.609 5.481-1.827 9.136-2.437 9.136v-1.827zm-42.634-1.827c-0.609-1.827-1.218-4.263-1.218-6.699l-0.609-3.655 6.7 0.609c6.091 0 6.091 0 6.091 1.827v0.609c0-0.609-1.827-0.609-6.091-0.609h-5.482l0.609 1.218c0.609 2.437 1.827 7.309 2.436 8.526v1.219c-0.609 0-1.827-1.827-2.436-3.045zm77.959-6.09c0-0.609-1.218-0.609-2.436-0.609s-2.437-0.609-2.437-1.218c-0.608-0.609-0.608-4.263-0.608-13.399v-12.183l1.827-0.609c1.218 0 2.436-0.609 3.045-0.609 1.218-0.609 1.828 0 1.828 1.218l0.608 1.827 2.437-1.218c1.827-1.218 3.045-1.828 3.654-1.218 0.609 0 1.827-0.609 1.827-0.609 0-0.609 1.218-0.609 1.827-0.609 1.218 0 1.827 0 1.218 2.437v3.045h-3.045c-3.654-0.609-6.091 0.609-7.309 3.654-0.609 1.218-1.218 3.654-0.609 10.354 0 4.873-0.608 9.136-0.608 9.136-0.609 1.218-1.219 1.218-1.219 0.61zm76.131 0c-0.609-0.609-1.827-0.609-3.045-0.609-1.219 0-2.437-1.218-4.873-4.873-2.436-3.045-4.263-4.873-4.263-4.873 0-0.609-1.827 1.827-3.654 4.873l-4.264 4.873h-3.046c-2.437 0-3.045-0.609-3.654-1.218 0-0.609 0-1.218 1.218-1.218 1.219-0.609 7.918-7.918 9.137-9.745 0.609-1.218-0.609-3.045-5.482-9.135-2.436-3.045-4.263-5.482-4.263-6.091h3.045c1.218 0 3.046 0 3.046-0.609h0.608c0.609 0 7.31 8.527 7.31 9.745h0.608c0.609 0 2.437-1.827 4.264-4.263 3.045-3.654 3.654-4.264 5.481-4.873 1.218 0 2.436 0 3.045-0.609 1.827 0 1.827 1.218-1.827 5.482-1.827 1.827-4.263 4.873-5.481 6.09l-1.827 1.827 5.481 6.091c3.654 4.872 4.872 6.699 4.872 7.917-0.61 1.826-1.22 1.826-2.44 1.218zm-49.94-1.219c-6.7-1.827-10.354-6.09-9.745-13.399 0-3.654 1.218-7.917 1.827-6.699 0 0 0.609-1.218 1.827-1.827 1.827-2.437 7.309-4.873 9.745-4.873 0.609 0 2.437-0.609 3.046-1.218 1.218-0.609 2.436-0.609 4.872 0.609 5.481 1.828 8.526 6.7 7.917 12.791v2.436h-10.962c-7.31 0-10.964 0.609-10.964 1.218 0 1.827 1.827 3.654 5.481 5.481 3.655 2.436 4.264 2.436 7.309 1.218 2.437 0 4.264-1.218 4.873-1.827 1.218-1.218 1.827-1.218 1.827-1.218s0 1.218 0.608 2.437c0.609 3.045 0 4.263-2.436 4.263-0.609 0-2.437 0.609-4.264 0.609-4.27 1.218-7.32 1.218-10.97-0.001zm12.18-16.444c1.219-1.218 0-3.654-1.827-4.873-2.436-1.827-7.309-1.827-9.744 0-2.437 1.218-3.046 2.437-1.828 4.264 1.219 0.609 1.828 0.609 6.7 0.609h6.7zm-117.55 9.135c0.609-3.045 2.436-8.527 3.654-9.136 0.609-1.218 10.963-0.609 10.963 0.609 0 0-2.436 0.609-4.872 0.609-4.873 0-4.873 0-6.091 1.218-0.609 1.827-1.218 3.654-2.436 8.527 0 0.609-0.609 1.827-1.218 1.827 0 0.001-0.609-1.217 0-3.654zm14.008 2.437c-0.609-1.218 1.218-10.963 1.827-11.572 1.218-1.218 12.181 0 12.79 0.609 0 0.609-1.827 0.609-6.09 0.609l-5.482-0.609-0.609 3.045c-0.609 1.218-1.218 3.654-1.218 4.873 0 3.045-0.609 4.872-1.218 3.045zm15.835-5.482v-6.09h6.091c4.873 0 6.091 0 6.091 0.609s0 1.218 0 1.218c0 0.609-0.609 0-0.609 0-0.609-0.609-1.827-0.609-5.481-0.609h-4.264v4.264c0 5.481-0.609 7.309-1.827 7.309-0.001-0.001-0.001-3.046-0.001-6.701zm14.009 0.609c-0.609-3.654-0.609-6.09-0.609-6.699 0.609 0 3.045 0 6.09-0.609h5.482l1.218 1.827c1.218 3.045 0.609 3.654-1.218 1.218-1.218-1.218-1.218-1.218-5.482-1.218h-4.263s0 1.827 0.609 4.873c0.609 4.264 0.609 6.7 0 6.7-0.609-0.001-1.218-3.046-1.827-6.092zm-37.762-9.745c0-1.827 8.527-8.527 12.181-9.136 1.827-0.609 1.827-0.609 0.609 0.609-0.609 0.609-2.436 1.827-3.654 2.437-1.218 0.609-3.654 2.436-5.481 4.263-3.045 3.045-3.655 3.045-3.655 1.827zm10.963-0.609c1.218-3.045 4.264-9.136 5.482-9.745 1.218-1.218 6.09-1.218 5.481 0 0 0-0.609 0.609-1.827 0.609-2.437 0.609-3.045 1.218-6.091 6.091-1.827 4.264-3.654 6.091-3.045 3.045zm12.79-4.263v-6.09h1.827c1.827 0 3.045 0 3.654 1.218 1.828 1.827 5.482 8.527 4.873 9.136-0.609 0-1.218-1.218-1.827-2.436-1.828-3.045-4.264-6.091-6.091-6.7-1.218 0-1.218 0-1.218 3.655 0.609 4.263 0 7.309-1.218 7.309v-6.092zm11.573 3.045c-1.218-1.827-2.436-3.654-3.045-4.263-1.218-1.828-1.218-4.264 0-3.655 4.263 0 15.226 7.918 13.399 9.136 0 0.609-1.828-0.609-3.654-2.436-3.045-2.437-4.264-3.655-7.309-4.264-1.218-0.609-1.218-0.609-1.218 0 0.609 0.609 1.218 2.436 1.827 3.654 1.218 1.218 1.218 3.045 1.218 3.654 0 1.219-0.609 0.611-1.218-1.826z" fill="#71919E"/>
	<path d="m23.942 110.98c-6.09-2.437-6.699-2.437-10.962-6.091-3.046-3.045-6.091-7.309-6.091-8.526 0-0.609 1.218 1.218 3.045 3.045 7.309 7.918 14.008 11.572 24.362 10.963 10.963 0 18.881-3.654 24.972-12.181 3.654-4.872 5.481-9.745 5.481-16.445 0-4.872-1.828-12.181-3.655-14.008 0-0.609-0.609-1.218 0-1.218 0.609-0.609 2.437 3.045 3.655 6.699 4.263 12.182-0.609 26.189-11.572 33.498-6.7 4.264-9.745 5.481-17.663 5.481-7.308 0.61-7.917 0-11.572-1.22zm10.963-7.92v-5.481h4.873 5.482c0 0.609-1.827 1.218-4.873 1.218h-4.263v4.873c0 3.045-0.609 5.481-1.218 5.481-0.001 0.01-0.001-2.43-0.001-6.09zm8.528 3.66c0-0.609 4.263-9.744 4.263-9.744 1.218-0.609 9.745 0.608 9.745 1.218 0 0-2.437 0.608-4.263 0.608h-4.264l-2.436 4.264c-1.218 1.827-2.436 4.264-3.045 4.264v-0.61zm33.498-0.61c-0.609 0-0.609-0.608-0.609-1.218 0 0 1.218 0 3.045 0.609 0.609 0 1.827 0 2.437-0.609 1.828-1.218 0.608-3.045-1.827-3.654-1.218 0-2.437-1.218-3.045-1.827-1.219-1.218-1.219-1.827 0.608-3.045 0.609-1.218 1.827-1.218 3.654-1.218 1.828 0 3.045 0 3.045 0.608 0 0.609-0.608 0.609-2.436 0-1.827-0.608-2.437-0.608-3.045 0-1.827 1.827-0.609 3.654 3.045 4.264 4.264 1.218 2.436 6.699-1.827 6.09h-3.045zm9.745-1.22c-1.827-1.827-1.827-5.481 0-7.917 1.218-1.827 1.827-1.827 4.264-1.827 3.045 0 4.872 1.218 4.872 5.48 0 3.654-2.437 6.091-5.481 6.091-1.219 0-2.437-0.61-3.655-1.83zm6.091-0.61c1.218-1.218 1.827-1.218 1.218-3.654-0.609-3.045-1.827-4.872-3.654-4.872-3.654 0-4.872 5.481-1.827 8.526 1.826 1.83 2.435 1.83 4.263 0zm4.872-3.04c0-4.263 0-6.09 0.608-6.09 0.609-1.219 1.219-0.609 1.219 4.263 0 6.091 0 6.699 3.045 6.091h1.827c0 0.608-1.827 1.218-3.654 1.218h-3.045v-5.48zm9.741 4.87c-2.436-1.827-3.045-8.526-1.218-10.962 0.609-1.219 1.218-0.609 1.218 3.653 0 4.873 0 5.481 1.219 6.091 1.218 0.609 1.827 0.609 2.437 0.609 1.218-0.609 1.827-1.827 1.827-5.481 0-4.872 0.608-7.309 1.218-4.264 0.609 2.437 0 7.918-1.218 9.136-1.22 1.83-4.27 1.83-5.49 1.22zm12.18-4.87v-5.481l-2.436-0.608h1.827c1.826 0 3.653-0.609 4.263-0.609h1.827c0 0.609-1.218 1.218-1.827 1.218h-1.827v5.481c0 4.264-0.609 5.481-1.218 5.481-0.6 0-0.6-1.22-0.6-5.48zm6.1 4.87c0-0.608 0.608-0.608 1.218-0.608s0.609-0.609 0.609-1.219v-4.872c0-2.436-0.609-3.654-1.219-4.263h0.609s1.218 0 1.218-0.609c0.609-0.609 2.437-0.609 2.437 0.609 0 0-0.609 0.608-1.218 0.608s-0.609 1.219-0.609 4.264 0 4.872 0.609 4.872c1.827 0.609 0.608 1.827-1.827 1.827-1.23 0-1.83-0.61-1.83-0.61zm7.3-1.22c-1.827-1.827-1.827-5.481 0-7.917 1.218-1.827 1.826-1.827 4.263-1.827 3.046 0 4.873 1.218 4.873 5.48 0 3.654-2.437 6.091-5.482 6.091-1.21 0-2.43-0.61-3.65-1.83zm6.09-0.61c1.219-1.218 1.827-1.218 1.219-3.654-0.609-3.045-1.828-4.872-3.655-4.872-3.653 0-4.872 5.481-1.827 8.526 1.83 1.83 2.44 1.83 4.26 0zm4.88-3.04c0-4.872 0-5.481 0.609-6.09 1.218-0.609 1.827-0.609 3.045 2.436 0.609 1.827 1.827 4.264 2.437 4.872 0.608 1.827 0.608 1.219 0.608-3.045 0.609-6.699 1.827-6.09 1.827 0.609 0 7.917-1.218 8.526-4.263 1.827-1.827-3.046-3.046-4.872-3.046-4.872s0 1.826 0 4.263c0 3.654 0 4.872-0.608 4.872-0.61 0.61-0.61-1.22-0.61-4.87zm11.57 4.87c-1.219-0.608-1.219-1.218 0.608-1.218 0.609 0 1.219 0.609 1.219 0.609 1.218 0.608 3.653-1.219 3.045-2.437 0-0.609-0.609-1.218-2.437-1.827-3.654-1.218-4.263-3.045-1.827-5.481 1.219-1.218 6.091-1.218 6.091 0 0 0.609-0.609 0.609-1.827 0-2.437-0.608-4.264 0-3.654 1.827 0 1.218 0.609 1.827 4.872 3.654 1.218 0.609 1.218 3.045-0.609 4.264-1.22 0.62-4.26 1.23-5.48 0.62zm-129.73-1.22c-1.827-1.827-4.263-6.699-3.654-7.309 0.609-0.608 10.354-0.608 10.963 0 0 0.609-1.827 1.218-4.873 1.218h-4.873l1.827 3.654c1.219 3.66 1.828 4.27 0.61 2.44zm-14.008-5.479c-1.828-1.827-0.609-1.827 4.263-1.827 3.045 0 4.873 0 4.873 0.609 0 0.608-1.218 0.608-4.264 0.608-4.263-0.608-4.263 0-4.263 0.609 0.609 1.22 0 1.22-0.609 0.001zm-4.264-6.09c-1.218-1.828-3.045-7.309-2.436-9.136 0-1.827 0-1.827 4.872-1.827 5.482-0.609 7.918 0 7.918 1.218 0 0-2.436 0.609-6.09 0.609h-6.091l0.609 1.218c0 1.218 1.218 3.654 1.827 5.481 0.609 4.264 0.609 4.873-0.609 2.437zm12.79-0.609c-1.218-4.872-1.827-9.745-0.609-10.354 0.609-0.609 10.963-0.609 12.79 0 2.436 1.218 0 1.827-5.481 1.827-6.09 0-6.09 0-6.7 1.218 0 1.218 0.609 4.872 1.218 7.918v1.827c-0.609 0-1.218-1.218-1.218-2.436zm14.617-4.264v-6.09h5.481c6.091-0.609 8.527 0 8.527 1.218 0 0-3.045 0.609-6.699 0.609h-6.091v5.481c0 3.046-0.609 5.482-1.218 5.482v-6.7zm14.009 4.264c0-1.219 0.609-4.264 0.609-6.091 0.609-1.827 0.609-3.654 1.218-4.263s10.354-0.609 11.572 0c2.437 1.218 0.609 1.827-4.873 1.827h-5.481l-0.609 2.436c-0.609 4.872-1.827 8.527-2.437 8.527 0.001 0-0.608-1.218 0.001-2.436zm62.736-7.309c-7.309-1.828-10.963-6.7-10.963-14.009 0-3.045 0-4.263 1.218-5.481 5.481-6.7 8.527-7.918 17.055-8.527 4.263 0 4.263 0 6.699 1.828 3.045 2.436 4.872 6.09 4.263 10.354v3.045h-10.962c-8.527 0-10.964 0.609-10.964 1.218s1.827 4.873 2.437 4.873 1.218 0 1.827 1.218c2.437 1.827 6.091 1.827 10.354 0.609 2.437-0.609 3.654-1.218 3.654-2.436l0.609-0.609c0.609 0 1.827 4.873 1.218 5.481-1.23 1.218-12.19 3.046-16.45 2.436zm12.18-17.662c0-0.609-0.609-1.827-1.827-3.045-2.437-2.436-3.045-2.436-5.481-2.436-3.654 0-6.091 0.609-7.918 3.045-0.609 0.609-0.609 1.218 0 2.437 0.608 0.609 1.218 1.218 7.918 0.609 4.87-0.001 7.31-0.001 7.31-0.61zm-44.464 16.444c-0.608-0.609-0.608-3.654-0.608-13.399v-12.182h2.436c1.218 0 3.045-0.609 3.045-1.218s1.828 0 1.828 1.828c0 1.218 0.609 1.218 3.046 0 1.218-1.218 3.045-1.218 4.263-1.218 1.219 0 2.437-0.609 2.437-0.609 0-0.609 0-0.609 0.608-0.609 0.609 0 1.219 0 0.609 2.437v3.045h-3.045c-3.654-0.609-5.481 0.609-7.309 3.045-0.609 0.609-0.609 4.263-0.609 10.354l-0.608 9.136h-3.047c-1.219-0.001-3.046-0.001-3.046-0.61zm54.814 0c-0.609-0.609-1.218-1.218-0.609-1.218h1.218c0.609 0 1.219-0.609 1.827-1.218 6.091-6.7 8.527-9.745 7.919-9.745-0.609 0-0.609-0.609-0.609-1.218 0 0-2.437-3.045-4.873-6.699-3.045-3.045-4.872-6.091-4.872-6.091s1.218 0 3.045 0c1.827 0.609 3.046 0 3.046 0 0-0.609 0-0.609 0.608-0.609 0.609 0 7.31 8.527 7.31 9.745-0.609 1.827 1.827 0.609 4.872-3.654 3.045-3.654 4.264-4.873 5.481-4.873 1.218-0.609 2.436-0.609 2.436-1.218h1.827c0.609 0.609-0.608 2.437-7.917 10.963l-2.437 2.436 5.481 6.7c2.437 3.045 4.872 6.09 4.872 6.7-0.608 0.609-1.827 0.609-3.653 1.218h-3.046l-3.654-4.873c-2.436-3.045-4.263-4.873-4.263-4.873s-1.827 1.827-3.654 4.873l-4.264 4.873h-2.437c-1.85-0.001-3.68-0.61-3.68-1.219zm-129.12-6.7c0.609-3.654 2.436-8.527 3.654-9.136s10.354-0.609 10.354 0.609c0 0-2.437 0.609-4.873 0.609-4.264 0-4.264 0-5.482 1.218-0.609 1.218-1.218 3.654-1.827 5.481-0.608 4.265-2.435 5.483-1.826 1.219zm14.008 2.437c-0.609-1.218 0.609-9.136 1.827-10.963 0-0.609 1.218-0.609 6.09-0.609 3.045 0 6.091 0 6.091 0.609 0 0-1.827 0.609-5.481 0.609h-5.482l-0.609 3.045c-0.609 1.827-1.218 4.264-1.218 5.482-0.609 1.827-0.609 2.436-1.218 1.827zm15.835-5.482v-6.09h6.091c5.481-0.609 5.481-0.609 5.481 1.218v0.609c-0.609-0.609-1.827-0.609-5.481-0.609h-4.873v5.481c0 3.046-0.609 5.482-1.218 5.482v-6.091zm14.618 0.609c-0.609-3.045-0.609-6.09-0.609-6.09 0-0.609 2.437-0.609 5.481-0.609 5.482 0 5.482 0 6.091 1.218s0 1.827-0.609 0.609c-0.609-0.609-1.218-0.609-5.482-0.609h-4.263s0 2.437 0.609 4.873c0.609 4.264 0.609 6.091 0 6.091-0.609-0.001-1.218-3.047-1.218-5.483zm-38.371-9.745c0-1.827 9.745-9.136 12.181-9.136 1.827-0.609 0.609 0.609-2.436 2.436-1.827 1.218-4.873 3.045-6.7 4.873-1.827 1.218-3.045 3.045-3.045 3.045s0-0.608 0-1.218zm11.572 0c0-1.827 3.655-9.136 5.482-10.354 1.218-1.218 4.873-1.218 4.873-0.609s-1.218 1.218-1.827 1.218c-2.437 0.609-3.045 1.218-6.091 6.091-2.437 4.872-2.437 5.481-2.437 3.654zm12.181 0v-6.09c0-4.264 0-4.873 1.218-4.873 1.827-0.609 3.654 0.609 5.481 3.045 2.437 3.655 1.828 3.655-1.218 0.609-3.654-4.263-4.263-3.654-4.872 3.045 0.001 3.046 0.001 4.874-0.609 4.264zm11.573-1.827c-1.218-3.045-1.218-4.263 0.609-1.218 0.609 1.218 0.609 2.436 0.609 3.045 0 0-0.609-0.609-1.218-1.827zm7.308-1.218c-3.045-1.828-11.572-6.7-9.745-4.873 0.609 0 0.609 1.218 0.609 1.218 0 1.218 0 1.218-0.609 0-2.437-3.045 0-3.654 4.263-1.218 3.654 1.828 8.527 6.091 7.917 6.7 0.001 0.609-1.217 0-2.435-1.827zm-10.353 0.609c0-1.218 0-1.218 0.609-0.609 0 0.609 0.609 1.218 0 1.218 0 0-0.609 0-0.609-0.609z" fill="#66748A"/>
	<path d="m26.988 111.59c-2.437-0.608-5.481-1.827-7.917-3.045-3.045-1.827-10.354-7.309-9.745-7.918 0-0.608 1.827 0.609 3.655 2.437 7.308 6.699 17.662 9.745 28.016 7.309 6.7-1.218 10.963-4.264 15.835-8.526 6.09-7.309 8.526-14.008 7.918-23.144 0-4.264 0-4.873 0.608-3.655 0.609 2.437 1.219 9.136 0.609 12.791-1.827 5.481-4.873 11.571-8.527 15.226s-9.745 7.309-13.399 7.918c-7.917 1.83-10.962 1.83-17.053 0.61zm7.917-3.65c-0.609-0.608-0.609-8.526 0-9.744 0.609-0.609 1.218-0.609 5.481-0.609 3.046 0 4.264 0 4.264 0.609 0 0-2.436 0.608-4.873 0.608h-3.654l-0.609 4.873c0.001 2.43 0.001 4.26-0.609 4.26zm9.137-1.83s0.609-2.436 1.827-4.263l1.827-4.264h4.263 4.873c0 0.609-1.828 1.218-4.264 1.218h-4.263l-0.609 1.827c-1.218 3.05-4.263 7.31-3.654 5.48zm33.497-0.61h0.609c2.437 0.608 4.873-0.609 4.873-1.827 0-1.827-1.218-2.437-3.655-3.046-1.827-0.608-2.436-1.218-2.436-2.436 0-0.609 0.608-1.827 1.218-2.437 0.609-1.218 5.482-1.218 5.482-0.608 0 0.608-1.219 0.608-3.045 0.608-1.827 0-2.437 0-2.437 1.219-0.609 1.218 1.218 3.045 3.654 3.653 2.436 0.609 3.046 3.654 0.608 4.873-1.217 1.23-3.044 1.23-4.871 0.01zm10.355 0c-1.827-0.609-2.436-2.437-1.827-5.481 0.609-4.872 3.046-6.091 6.7-4.264 2.436 1.219 3.045 1.827 3.045 4.872 0 4.26-4.264 6.7-7.918 4.87zm4.263-0.61c0.609 0 1.827-1.218 2.437-2.437 1.218-3.654-3.046-8.526-5.481-6.699-3.046 1.827-3.046 6.091-0.609 8.526 1.217 1.83 1.217 1.83 3.653 0.61zm5.482-3.65c0.608-6.699 0.608-7.309 0.608-1.218v5.481h1.827 3.046c0.608 0 1.218 0 1.218 0.608 0 0-1.827 0.609-3.654 0.609h-3.045v-5.48zm9.741 4.26c-1.218-0.609-1.218-1.219-1.218-4.873 0-6.09 0.609-7.917 0.609-1.827 0.608 6.7 1.827 8.527 4.872 6.091 1.219-0.609 1.219-1.827 1.827-5.481v-4.263 4.872c0 4.263 0 4.872-1.218 5.481-0.609 0.608-1.827 1.218-2.437 1.218s-1.82-0.61-2.43-1.22zm12.18-3.04c0-5.48 0-6.699-2.436-7.308h2.436c1.827 0 4.264-0.609 4.264-0.609h1.218c0 0.609-1.218 1.218-1.827 1.218h-1.827v5.481c0 3.654-0.609 5.481-1.218 5.481-0.6 0-0.6-1.22-0.6-4.26zm7.31 3.04c1.218-0.609 1.218-1.219 0.609-5.481 0-4.264 0-4.872 1.218-5.481s1.827-0.609 1.827 0.609-0.609 0.608-1.218 0.608-0.609 0.609-0.609 4.872c0 3.654 0 4.873 0.609 4.873 0.608 0 1.218 0 1.218 0.608h-2.437c-2.43 0-2.43 0-1.22-0.61zm7.31 0c-2.437-1.827-3.045-3.046-1.827-6.091 0.609-3.045 2.436-4.872 4.263-4.263 1.827 0 1.827 0-1.218 0.608-3.045 0.609-3.654 6.091-0.609 8.526 3.046 4.264 7.31-1.218 4.873-6.09-0.609-2.437-0.609-2.437 0-2.437 1.827 1.219 2.437 2.437 2.437 4.872 0.01 4.27-4.25 7.32-7.91 4.88zm9.75-4.26c0-3.045 0-4.872 0.609-4.872 0 0 0.608 1.827 0.608 4.872s-0.608 5.481-0.608 5.481c-0.61 0-0.61-2.44-0.61-5.48zm3.65 0c-1.218-3.045-2.437-6.09-2.437-6.09 0.609-0.609 3.654 4.263 4.264 7.308 0 0.609 0.609 1.827 1.218 1.827s1.219-4.263 0.609-5.481v-3.045c0.609-1.218 0.609 0 0.609 4.264 0 4.872 0 6.09-0.609 6.09 0.01-0.01-1.82-2.44-3.65-4.88zm7.92 4.26h1.218c2.437 0.608 4.872-0.609 4.872-1.827 0-1.219-2.436-2.437-3.045-2.437s-1.827-0.609-3.045-1.218c-1.219-1.219-1.219-1.219 0-3.045 0-0.609 0.608-1.219 1.218-1.827 1.218-0.609 5.481-0.609 5.481 0 0 0.608-1.219 0.608-2.437 0.608-2.436-0.608-3.654 0.609-3.654 1.827s3.654 3.654 4.264 3.045c1.218-0.608 2.436 1.827 1.827 3.654-1.22 1.84-4.26 2.45-6.7 1.23zm-143.74-6.089v-1.218c0-0.609 0.609-0.609 4.263-0.609 2.436 0 4.263 0 4.263 0.609 0 0-1.827 0.608-4.263 0.608s-3.654 0-3.654 0.609c0.609 0.61 0 0.61-0.609 0.001zm10.962-0.609c0-1.218 0.609-1.218 4.873-1.218h5.481c0 0.609-2.437 1.218-4.873 1.218-3.655 0-5.482 0-5.482 0.609 0.001 0 0.001 0 0.001-0.609zm12.181-4.872v-5.481c0-6.09 0-6.7 6.091-6.09 7.309 0 7.917 0.609 1.218 0.609l-6.091 0.609-0.609 5.482c0.001 3.653 0.001 5.48-0.609 4.871zm14.009 0.609c0-0.609 0-1.827 0.609-3.046v-4.872c0.609-3.654 1.218-4.263 5.481-4.263 2.437-0.609 4.873 0 6.091 0 1.218 0.609 0.609 0.609-3.654 1.218h-6.09l-0.609 4.264c-0.61 4.872-1.219 7.308-1.828 6.699zm-28.017-1.218c0-0.609-0.609-1.828-1.218-2.437-0.609-3.045-0.609-6.7-0.609-7.309 1.218-1.218 8.527-1.827 12.181-1.218 1.218 0.609 0.609 0.609-4.873 0.609l-6.091 0.609v1.218c0 1.219 0 3.654 0.609 5.481 0.61 3.656 0.61 5.483 0.001 3.047zm-15.226-5.481c-1.218-3.655-0.609-4.264 0-4.873 1.827-1.218 8.527-1.218 10.354 0h-4.263l-5.482 0.609v2.437c0.609 2.435 0 3.653-0.609 1.827zm102.32-4.264c-3.654-1.827-6.091-4.263-6.699-7.309-1.219-3.045-1.219-6.7-0.609-5.481 0.609 0.609 1.218 0 1.218-2.436 1.219-4.263 4.873-8.527 8.527-9.136 3.045-1.218 8.527-1.218 10.963-0.609 1.827 0.609 2.437 0.609 3.045 0 0.609-1.218 4.264 3.045 4.873 6.091 0.608 1.218 1.218 3.654 1.218 4.872v3.045h-11.571-11.573c-0.608 0.609 0.609 3.654 2.437 4.873 0.609 1.218 1.219 1.827 1.219 1.827-0.609 1.218 2.436 1.827 6.699 1.827 4.264 0.609 6.699-0.609 8.526-2.436l1.827-1.218-0.608 3.045c0 2.436 0 2.436-3.046 3.654-4.89 1.218-12.8 1.218-16.46-0.609zm16.45-15.835s0-0.609-0.608-1.218c0-0.609-1.219-1.218-1.827-2.436-1.219-1.827-4.872-3.045-7.918-2.437-4.264 0.609-8.527 6.7-5.481 7.309 2.44 0.608 15.23-0.609 15.84-1.218zm32.89 17.053c-1.827-0.609-2.437-1.218-5.481-4.872-1.827-2.437-3.654-4.873-3.654-4.873s-1.827 1.828-3.654 4.873l-3.655 4.263h-3.654c-3.654 0.609-4.263 0-1.827-1.218 1.218-0.609 10.354-10.354 10.354-11.572h-0.609c-0.608 0-10.354-12.181-10.354-12.79h2.437c1.827 0 3.046-0.609 3.654-1.218 0-0.609 6.7 8.527 6.7 9.745 0 3.045 2.437 1.218 6.091-3.654 2.436-3.654 3.654-4.873 5.481-4.873 0.608 0 2.436-0.609 2.436-1.218 0.609 0 1.218 0 1.218 0.609s-2.436 3.654-4.872 6.7c-3.045 3.045-4.872 6.09-4.872 6.09 0 0.609 1.827 3.045 4.872 6.7 2.437 3.045 4.264 6.09 4.264 6.7-0.02 0.608-1.24 0.608-4.89 0.608zm-78.572-0.609c-0.609-0.609 0.608-2.437 1.218-1.827 0 0 0.609-4.873 0.609-11.572 0-12.181 0-12.181 1.826-12.181 0 0.609 1.219 0 1.828-0.609 0.61-1.218 1.219-1.218 1.219 0.609 0 2.437 0.608 2.437 3.654 1.218 1.218-1.218 3.045-1.218 4.263-1.218 1.219 0 2.437-0.609 2.437-1.218 0.608-1.218 0.608-1.218 1.218 0 0 0.609 0.609 1.828 0 2.437 0 1.827 0 1.827-3.654 1.827-3.045 0-3.654 0-5.481 1.827l-1.827 2.437v9.135l-0.608 9.136h-3.047c-1.828-0.001-3.047-0.001-3.655-0.001zm0.608-4.873v-1.827 3.045s0 0.001 0-1.218zm-73.695-1.827c0-1.827 0.609-4.264 1.827-6.091l1.218-3.045h4.264c6.09-0.609 7.308 0.609 1.218 0.609l-4.873 0.609-1.218 3.045c-0.609 1.218-1.218 3.045-1.218 4.264-0.609 1.218-0.609 2.436-1.218 3.045 0 0.61-0.609 0.001 0-2.436zm14.008 0c0-1.827 0-4.264 0.609-6.091l0.609-3.045h5.481 6.09c0.609 0.609-1.218 1.218-4.872 1.218h-5.482l-1.218 3.045c0 1.827-0.609 4.264-1.218 5.482 0.001 1.828 0.001 1.828 0.001-0.609zm15.226 1.827c-0.609-0.609-0.609-9.745 0.609-10.354 0.609-1.218 10.963-1.218 10.963 0 0 0-2.436 0.609-5.481 0.609h-4.873l-0.609 4.873c0.001 3.045 0.001 4.872-0.609 4.872zm14.618-4.872c-0.609-3.045-0.609-5.481-0.609-6.09 0.609-0.609 10.963-0.609 10.963 0.609 0 0-2.437 0.609-5.482 0.609h-4.872l0.609 1.827c1.218 9.745 1.218 10.963-0.609 3.045zm-37.761-9.745c0-1.827 9.136-8.527 10.962-7.918 1.218 0 0.609 0-0.609 0.609-1.827 1.218-5.481 3.655-8.526 6.091-1.218 1.827-1.827 1.827-1.827 1.218zm10.962 0c0-1.218 4.264-9.136 6.091-9.745 1.827-1.218 3.654-1.218 3.654 0 0 0-0.609 0.609-1.218 0.609-1.827 0-4.873 3.045-6.091 6.7-1.218 2.436-2.436 4.263-2.436 2.436zm12.181 0c-0.609-1.218-0.609-8.527 0-9.745s2.437-1.218 4.264 0c0.609 0 0 0.609-1.218 0h-1.827l-0.609 5.481c0 3.046 0 4.873-0.61 4.264zm44.461-1.218v-1.218 1.827-0.609zm-26.798-2.436c-2.436-1.218-4.872-3.045-6.09-3.655-1.827-0.609-2.436-1.218-2.436-1.218 1.827-0.609 10.962 4.873 11.572 6.7 0.608 1.218 0.608 1.218-3.046-1.827z" fill="#0E1949"/>
	<path d="m28.815 111.59c-1.218 0-3.045-0.608-4.264-0.608-1.827-0.609-8.526-3.654-9.135-4.873-0.609 0 4.263 1.827 6.09 3.046 0.609 0 1.827 0.608 1.827 0.608 0.609 0 3.045 0.609 4.873 0.609 3.654 1.218 8.526 1.218 14.617 0 1.827 0 9.745-4.264 12.181-6.091 3.046-3.045 6.7-8.526 8.527-12.181 1.218-3.654 2.436-5.481 1.827-2.437-3.045 9.745-12.181 18.881-21.316 21.317-3.655 1.21-12.791 1.82-15.227 0.6zm6.7-8.53v-5.481h8.527-4.264l-3.654 0.609-0.609 4.872v5.481-5.48zm8.527 3.05s0.609-2.436 1.827-4.263l2.436-4.264h3.045c3.654 0 3.654 0-0.609 0.609-2.436 0-2.436 0-3.654 2.436-0.609 2.43-3.045 6.7-3.045 5.48zm33.497-0.61h1.219c2.436 0.608 4.263-0.609 3.653-2.437 0-1.218-0.608-1.827-3.653-3.045-1.827-0.609-1.827-0.609-1.827-1.827 0.608-2.437 1.218-3.045 1.218-1.218-0.609 1.826 0 2.436 1.827 3.045 1.218 0.608 2.436 1.218 3.045 1.218s0.609 0.609 0.609 1.827c0.609 2.43-3.045 4.26-6.091 2.43zm9.746-0.61c-1.219-0.609-1.219-1.827-1.219-3.654s1.219-5.481 1.827-5.481 0 0.609-0.608 1.219c-1.219 2.436-1.219 4.263 0 6.09 1.827 3.654 4.872 3.654 6.699 0 1.218-1.827 1.218-4.264 0-4.872v-0.609s0-0.608-0.609-1.218c-1.218-1.218-1.218-1.218 0-0.609 3.045 1.827 2.437 7.309 0 9.136-1.827 1.82-4.263 1.82-6.09-0.01zm10.354 1.22c0-0.608 1.218-0.608 3.045-0.608 4.264 0 4.264 1.218 0 1.218-1.824 0-3.041-0.61-3.041-0.61zm9.131-0.61c-0.609-1.219-1.219-1.219-0.609-2.437s0.609-1.218 0.609 0c0.608 2.437 3.045 3.045 4.872 1.827 1.219-0.609 1.219-1.218 1.827-5.481v-4.263 4.263c0 3.654 0 4.872-0.608 6.091-1.82 1.22-4.26 1.22-6.09 0zm12.79-4.87c0-4.872 0-5.48 1.218-5.48h3.046-1.219l-1.827 0.608v5.481c0 2.437-0.608 5.481-0.608 5.481-0.61 0-0.61-3.04-0.61-6.09zm7.31 4.87c0.609-0.609 1.218-1.219 0.609-5.481 0-3.654 0-4.264 1.218-4.872 1.218-1.219 1.827-1.219 1.827 0 0 0-0.609 0.608-1.218 0.608s-0.609 0.609-0.609 4.872c0 3.654 0 4.873 0.609 4.873 0.608 0 1.218 0 1.218 0.608 0 0-1.218 0.609-2.437 0.609-1.83 0-2.43-0.61-1.22-1.22zm6.7-0.61c-1.218-0.609-1.218-1.827-1.218-3.045v-1.827l0.609 1.827c1.218 4.263 5.48 4.872 7.309 1.827 1.218-2.437 1.218-4.873 0.608-5.481-0.608 0-0.608-0.609-0.608-1.218 0-1.219 0-1.219 0.608 0 1.827 1.826 1.219 5.48-0.608 7.917-2.43 1.83-4.26 1.83-6.7 0zm10.36-3.04c0.609-6.699 0.609-7.309 0.609-0.609v5.481c-0.61 0-0.61-2.44-0.61-4.87zm6.09 3.04c-0.609-1.827-0.609-1.827 0-1.218 0.608 0.608 0.608 0.608 1.218-1.219 0-1.218 0.609-3.045 0.609-4.872s0-0.608 0 3.045c0 4.264 0 6.091-0.609 6.091s-1.22-1.21-1.22-1.82zm5.48 0.61h1.218c4.872 0.608 6.09-3.046 1.827-4.264-3.654-1.218-4.264-2.437-3.045-4.263 1.218-1.219 1.827-1.827 3.654-1.827h3.045c0 0.608-1.219 0.608-2.437 0.608-2.436-0.608-2.436 0-3.654 1.219-0.608 1.218-0.608 1.218 0.609 2.436 1.218 0.609 3.045 1.827 4.263 1.218 0.609 0 1.219 1.827 1.219 3.046-0.61 2.43-4.26 3.04-6.7 1.82zm-57.253-5.48v-2.437s0 3.045 0 4.264v-1.83zm48.723-1.218c-1.827-3.045-1.827-4.872-1.218-3.653 1.218 1.218 3.654 6.699 3.045 6.699-0.61 0-1.22-1.83-1.83-3.048zm-14.62 0.609c0-0.609 1.218-3.654 1.827-3.654 0 0 0 0.609-0.609 1.827-1.22 1.827-1.22 2.436-1.22 1.827zm-109.63-1.827h5.482 4.263l-4.872 0.609c-3.046 0-4.873 0-4.873-0.609zm-9.135 0h4.263s0 0-1.827 0h-2.436zm67.604-1.827l-2.436-0.608h2.436c1.218 0 2.437 0 2.437 0.608h-0.609-1.828zm8.528-0.609h1.827-1.218s-1.218 0-0.609 0zm26.799 0h1.827-1.218-0.61zm19.49 0h1.827-1.219-0.61zm-87.096-0.609c0-0.609 1.218-9.136 1.827-10.354v2.436c-0.609 7.918-1.218 9.136-1.827 7.918zm-13.399-6.091v-5.481h12.181-6.091l-5.481 0.609-0.609 4.872v5.481-5.481zm-15.227 1.218v-0.608 1.827-1.219zm44.462-6.09c0.608-4.872 1.218-6.699 1.218-1.827 0.609 3.655 0 6.091-0.609 6.091s-0.609-1.827-0.609-4.264zm-45.071 1.218v-1.827h12.79-6.09l-6.091 0.609-0.609 1.828v-0.61zm-14.008-0.609v-0.609 1.218-0.609zm104.15 0.609c-3.045-1.218-4.872-3.045-6.699-4.872-2.437-3.045-1.827-3.045 1.218-0.609 1.827 1.827 3.045 2.436 4.264 2.436 0.608 0 1.218 0 1.218 0.609-1.218 1.218 10.354 1.218 14.009 0 1.218-0.609 1.827-1.218 1.827-1.827 0 0 0-0.609 1.218-1.827l0.609-1.218v2.437c0 2.436 0 2.436-1.827 3.654-2.44 1.217-12.8 1.826-15.84 1.217zm-30.454-1.218v-0.609h2.437 2.436v-7.918c0-7.308 0-8.526 1.219-10.962 1.827-3.045 4.263-4.873 7.309-4.264 1.827 0 1.827 0 3.045-1.218 0.608-2.436 1.827-1.827 1.218 0.609v2.436h-3.654c-3.045 0-3.654 0-5.481 1.827l-1.827 2.437v9.135l-0.608 9.136h-3.047c-2.437 0.609-3.047 0-3.047-0.609zm54.814 0.609c0-0.609 1.218-1.218 2.436-1.218 3.046-0.609 3.655-0.609 6.091-4.263 1.219-1.827 3.046-3.655 3.046-4.264 0.609-1.218 2.437-1.218 3.654 0 0.609 0.609 1.827 3.045 3.654 4.873 2.437 3.045 3.045 3.654 4.872 3.654s2.437-0.609 1.827-1.827l-0.608-1.218 1.826 1.218c2.437 2.436 1.827 3.654-1.826 3.045h-3.654l-2.437-3.045c-1.218-1.827-3.045-3.654-3.654-4.873l-1.218-1.827-3.654 4.873-3.655 4.873h-3.654c-1.83-0.001-3.05-0.001-3.05-0.001zm-125.46-1.218h5.482-2.436-3.046zm45.07 0h6.091-3.045-3.046zm-48.115-4.872c0-1.218 1.827-7.918 2.436-8.527 1.218-1.218 0.609 0.609-0.609 3.045-0.609 1.218-1.218 3.654-1.218 4.873 0 1.826-0.609 3.045-0.609 0.609zm14.008 0c0-1.218 0-3.046 0.609-3.655v0.609 3.046l-0.609 1.827v-1.827zm15.836-3.655c0-4.873 0-5.481 0.609-6.09 1.827-0.609 9.136-0.609 9.745 0.609 0 0-1.218 0.609-4.873 0.609h-4.873l-0.608 4.872v5.482-5.482zm121.2 3.045c-0.609-1.218-1.827-2.437-3.045-3.654-2.437-3.045-2.437-5.481 0-7.309l2.436-2.436s0.609-1.218 1.219-2.437c1.218-1.218 1.827-1.827 1.827-2.436 0 0 1.218-0.609 1.826-1.218 3.046-1.827 1.827 0.609-3.045 6.7-3.045 3.045-4.872 6.09-4.872 6.09 0 0.609 0.609 2.436 4.872 7.309 0.609 0.609 0.609 1.218 0.609 1.218-0.63 0-1.24-1.217-1.85-1.827zm-49.34-1.218c-1.827-2.436-1.827-3.654-0.608-5.481 1.218-0.609 1.827-0.609 1.827 0h0.608c0-0.609 3.655-0.609 8.527 0h9.745c0.608-0.609 1.218-1.218 0.608-3.654 0-1.827-0.608-4.263-0.608-5.481l-1.219-1.218 1.219 1.218c1.827 1.827 3.045 6.091 2.436 8.527v1.827h-11.571l-11.572 0.609 0.608 1.218c0 0.609 0.609 1.827 1.219 2.436 1.82 2.436 0.6 2.436-1.23-0.001zm-57.248-0.609v-0.609 1.218-0.609zm-29.235-5.481c0-0.609 0-1.218 0.609-1.218 1.218-0.609 9.745-0.609 10.354 0 0 0-1.827 0.609-4.873 0-4.873 0-5.481 0-5.481 1.218 0.609 1.218 0 1.218-0.609 0zm28.017 0.609c-1.218-1.827 0.609-2.436 5.481-2.436 2.437 0 4.873 0 4.873 0.609 0 0-2.437 0.609-4.873 0.609-3.654 0-4.263 0-4.872 0.609 0 1.218 0 1.218-0.609 0.609zm91.356-4.264c-4.264-5.481-6.091-7.918-5.482-7.918s1.219 0 1.219 0.609h0.608s0.609 0 0 0c0 0 0.609 1.218 1.827 2.436 0.609 1.218 1.219 1.827 1.219 2.437l1.827 1.827c3.046 3.045 3.654 3.654 3.046 4.263-0.62 0.001-2.45-1.826-4.28-3.654zm-130.94 2.436c0-0.609 1.827-0.609 4.264-0.609 3.045-0.609 4.872 0 4.872 0 0 1.218-8.527 1.218-9.136 0.609zm97.445-2.436c-1.219-2.436 4.264-6.7 9.136-6.7 3.654 0 7.918 2.437 7.918 4.873 0 1.218-0.609 1.218-1.827-0.609-1.827-3.045-7.309-3.655-10.963-1.218-0.609 0.609-1.828 1.827-3.046 3.045-0.61 1.218-1.22 1.828-1.22 0.609zm38.37-2.436c-1.218-2.437-1.218-3.045 0-1.218 1.219 1.827 2.437 3.654 1.827 3.045-0.61 0.001-1.22-0.609-1.83-1.827zm-133.38 0.609c0.609-2.436 9.136-8.527 11.572-7.918l-1.218 0.609c-2.436 1.218-5.481 3.655-8.526 6.091-1.828 1.827-1.828 1.827-1.828 1.218zm10.962 0.609c-0.609-1.218 3.655-8.527 4.873-9.136 1.218-1.827 4.872-2.436 4.263-1.827 0 0.609-0.609 1.218-1.218 1.218-1.218 0-3.654 2.437-4.873 5.482-1.218 2.436-3.045 5.481-3.045 4.263zm12.791-5.481c-0.609-5.481 0-6.7 2.436-5.481 1.218 0.609 1.218 1.218-0.609 0.609l-1.218-0.609-0.609 5.481v5.481-5.481zm16.444 1.218c-1.218-0.609-2.436-1.827-2.436-2.437-0.609 0-1.218-0.609-1.827-0.609-1.218-0.609-1.218-1.218 0-0.609 1.218 0 7.917 4.873 7.917 5.482s-0.609 0-3.654-1.827zm90.141-1.218c0-1.218 0-1.218 0.608-0.609 0 0.609 0.609 1.218 0 1.218 0 0-0.61 0-0.61-0.609zm-97.45-3.046c0-0.609 0-0.609 0.609-0.609s1.218 0.609 1.218 0.609-0.609 0.609-1.218 0.609c-0.609 0-0.609-0.609-0.609-0.609z" fill="#101A2A"/>
</svg>
