<?xml version="1.0" encoding="utf-8"?>
<!-- Generator: Adobe Illustrator 16.0.0, SVG Export Plug-In . SVG Version: 6.00 Build 0)  -->
<!DOCTYPE svg PUBLIC "-//W3C//DTD SVG 1.1//EN" "http://www.w3.org/Graphics/SVG/1.1/DTD/svg11.dtd">
<svg version="1.1" id="Ebene_1" xmlns="http://www.w3.org/2000/svg" xmlns:xlink="http://www.w3.org/1999/xlink" x="0px" y="0px"
	 width="168px" height="168px" viewBox="0 0 168 168" enable-background="new 0 0 168 168" xml:space="preserve">
<g>
	<g>
		<path fill="#1652A1" d="M50.3,84.6v-0.5c0-3,1.4-5.1,3.8-5.1c2.4,0,3.4,1.7,3.4,4.6L50.3,84.6z M54.3,76c-6,0-9.5,3.7-9.5,9.4
			c0,5.5,3.5,9.5,10.2,9.5c2.9,0,5.7-0.5,7.6-1.4l-1.4-3.3c-1.3,0.6-3.4,1.1-5.3,1.1c-2.9,0-4.8-1.5-5.2-4l12.5-1.5
			c0-0.4,0-0.5,0-0.8C63.3,79.3,60.2,76,54.3,76"/>
	</g>
	<g>
		<path fill="#1652A1" d="M28.7,84.6v-0.5c0-3,1.4-5.1,3.8-5.1c2.4,0,3.4,1.7,3.4,4.6L28.7,84.6z M32.7,76c-6,0-9.5,3.7-9.5,9.4
			c0,5.5,3.5,9.5,10.2,9.5c2.9,0,5.7-0.5,7.6-1.4l-1.4-3.3c-1.3,0.6-3.4,1.1-5.3,1.1c-2.9,0-4.8-1.5-5.2-4l12.5-1.5
			c0-0.4,0-0.5,0-0.8C41.6,79.3,38.6,76,32.7,76"/>
	</g>
	<g>
		<path fill="#CC0935" d="M9.8,77.2c0-1.6,1.5-2.6,3.7-2.6c1.5,0,3.1,0.4,4.3,0.9l1.4-3.3c-1.7-0.8-4-1.4-6.6-1.4
			c-5.4,0-9,2.8-9,6.7c0,7.4,9.9,6.3,9.9,10.5c0,1.5-1.4,2.6-3.7,2.6c-1.6,0-3.4-0.4-4.9-1.1l-1.6,3.7c1.8,0.9,4.4,1.4,7.4,1.4
			c5.7,0,9.3-3,9.3-7.1C20,80.2,9.8,81.4,9.8,77.2"/>
	</g>
	<g>
		<path fill="#1652A1" d="M159.6,91c-2.4,0-4.1-2.2-4.1-5.8c0-3.6,1.7-5.8,4.1-5.8c1,0,3.5,0.3,4.1,0.7l1.3-2.9
			c-1.3-0.8-4.6-1.3-6.8-1.3c-5.1,0-8.9,3.5-8.9,9.4c0,5.9,3.7,9.4,8.9,9.4c2.2,0,5.5-0.5,6.8-1.3l-1.3-3.1
			C163.1,90.8,160.6,91,159.6,91"/>
	</g>
	<g>
		<path fill="#1652A1" d="M133.3,84.6v-0.5c0-3,1.4-5.1,3.8-5.1c2.4,0,3.4,1.7,3.4,4.6L133.3,84.6z M137.3,75.9
			c-6,0-9.5,3.7-9.5,9.4c0,5.5,3.5,9.5,10.2,9.5c2.9,0,5.7-0.5,7.6-1.4l-1.4-3.3c-1.3,0.6-3.4,1.1-5.3,1.1c-2.9,0-4.8-1.5-5.2-4
			l12.5-1.5c0-0.4,0-0.5,0-0.8C146.3,79.2,143.2,75.9,137.3,75.9"/>
	</g>
</g>
<g>
	<polygon fill="#CC0935" points="129.4,71.3 109,71.3 109,75 116.1,75 116.1,94.4 122.3,94.4 122.3,75 129.4,75 	"/>
</g>
<path fill="#CC0935" d="M105.8,84.6c0,0,1.1-2.3,1.6-4.7c0,0-14.9-20.5-39.7,0.4l0.2,0.3C67.9,80.7,89.2,62.1,105.8,84.6"/>
<path fill="#1652A1" d="M71.5,83.7c-1.3,1.3-2.6,2.8-4,4.4l0.3,0.3c0,0,5.7-7.1,13.8-8.7c-1,1.4-1.6,3.1-1.6,5
	c0,4.7,3.8,8.5,8.5,8.5c4.7,0,8.4-3.7,8.5-8.4c1,1,2.1,2,3.1,3.3c-0.4,1-1,2-1.6,2.9c-1.8,2.6-4.7,4.9-8.2,6.5l0,0.1
	c7.1-1.7,11.7-5.1,13.7-8.8c0.3-0.6,0.6-1.1,0.8-1.7l0,0C104.8,87.1,91.1,64.4,71.5,83.7z M88.4,82.5c0-0.7,0.7-0.7,0.7-0.7h2.2
	c0.7,0,0.7,0.7,0.7,0.7v1.3c0,0.7-0.7,0.7-0.7,0.7h-2.2c-0.7,0-0.7-0.7-0.7-0.7V82.5z M88.4,91.6c-3.9,0-7-3.1-7-7
	c0-2.1,1-4,2.5-5.3c0.7,0,1.5,0,2.3,0.1c-2,0.9-3.5,2.9-3.5,5.2c0,3.1,2.6,5.7,5.7,5.7c3.1,0,5.7-2.6,5.7-5.7c0-0.9-0.2-1.7-0.6-2.5
	c0.6,0.4,1.2,0.8,1.8,1.3c0.1,0.4,0.1,0.8,0.1,1.2C95.4,88.5,92.3,91.6,88.4,91.6z"/>
</svg>
