<?xml version="1.0" encoding="utf-8"?>
<!-- Generator: Adobe Illustrator 17.0.0, SVG Export Plug-In . SVG Version: 6.00 Build 0)  -->
<!DOCTYPE svg PUBLIC "-//W3C//DTD SVG 1.1//EN" "http://www.w3.org/Graphics/SVG/1.1/DTD/svg11.dtd">
<svg version="1.1" id="Layer_1" xmlns="http://www.w3.org/2000/svg" xmlns:xlink="http://www.w3.org/1999/xlink" x="0px" y="0px"
	 width="168px" height="168px" viewBox="0 0 168 168" enable-background="new 0 0 168 168" xml:space="preserve">
<g>
	<path fill="#BEA422" d="M133.791,101.908l2.349-24.865l7.53-0.952l-0.733,7.781h4.987c5.776,0,8.595,0.833,8.439,2.487
		l-1.466,15.549h-7.443l1.46-15.443c0.044-0.451-0.833-0.677-2.619-0.677h-3.54l-1.529,16.119L133.791,101.908L133.791,101.908z"/>
	<path fill="#BEA422" d="M128.046,94.985c-0.157,1.642,0.038,2.738,0.564,3.283c0.526,0.545,1.585,0.821,3.17,0.821
		c0.1,0,0.251-0.006,0.47-0.019c0.207-0.013,0.376-0.019,0.489-0.019l-0.276,2.857h-10.13c-1.178-0.99-1.654-2.669-1.429-5.031
		l0.915-9.698h-3.922l0.351-3.721h3.922l0.608-6.403l7.054-0.977l-0.695,7.38h4.88l-0.351,3.721h-4.88L128.046,94.985z"/>
	<path fill="#004A88" d="M95.857,101.908l1.529-16.151c2.869-1.673,6.609-2.638,11.627-2.569c5.294,0,7.869,0.865,7.706,2.575
		l-1.529,16.144h-6.81l1.51-16.038c0.05-0.464-0.752-0.701-2.393-0.701h-3.239l-1.585,16.739H95.857z"/>
	<polygon fill="#004A88" points="61.05,101.908 55.818,83.189 62.917,83.189 65.704,95.173 70.741,83.189 77.846,83.189 
		69.075,101.908 	"/>
	<path fill="#004A88" d="M95.513,91.696l-13.438,1.917c-0.896,5.294,3.64,8.507,9.817,6.265c1.027-0.37,1.98-0.896,2.863-1.572
		l-0.169,1.723c-0.714,0.777-1.566,1.397-2.493,1.879H78.704c-0.507-0.326-0.971-0.708-1.397-1.134
		c-1.779-1.798-2.525-4.166-2.249-7.105c0.288-3.051,1.579-5.569,3.878-7.562C84.768,81.046,96.477,82.067,95.513,91.696
		L95.513,91.696z M88.076,89.967c0.501-0.069,0.827-0.063,0.983-0.175c0.163-0.113,0.257-0.332,0.288-0.652
		c0.426-4.485-6.447-3.89-6.967,1.322c-0.013,0.163-0.006,0.257-0.006,0.27L88.076,89.967z"/>
	<path fill="#004A88" d="M56.426,91.734l-13.388,1.911c-0.896,5.281,3.621,8.476,9.779,6.246c1.021-0.37,1.973-0.896,2.857-1.566
		l-0.169,1.717c-0.714,0.771-1.56,1.385-2.475,1.867H39.668c-0.501-0.326-0.965-0.702-1.384-1.128
		c-1.773-1.792-2.519-4.153-2.243-7.079c0.288-3.038,1.572-5.551,3.865-7.537C45.72,81.115,57.385,82.136,56.426,91.734
		L56.426,91.734z M49.015,90.011c0.501-0.069,0.821-0.063,0.977-0.176c0.163-0.113,0.257-0.332,0.288-0.651
		c0.426-4.473-6.421-3.878-6.941,1.322c-0.013,0.163-0.006,0.251-0.006,0.269L49.015,90.011z"/>
	<path fill="#004A88" d="M34.756,84.667l-2.844,0.426c-0.119-1.485-0.934-2.706-2.437-3.665c-2.211-1.416-5.989-2.092-8.883-0.62
		c-1.541,0.783-1.823,2.506-0.708,3.396c4.981,3.941,16.489,3.746,15.38,11.026c-0.482,3.195-2.531,5.369-5.306,6.678H13.663
		c-0.47-0.194-0.927-0.401-1.366-0.627l-0.006,0.032c-1.084-0.52-2.005-1.115-2.869-1.811c1.046-1.485,2.099-2.97,3.145-4.454h0.207
		c0.908,3.521,4.655,6.202,9.554,6.202c3.941,0,8.113-3.465,4.63-5.764c-5.024-3.314-15.574-3.784-14.559-10.462
		c0.363-2.387,1.735-4.179,4.122-5.382c2.38-1.203,4.98-1.804,7.8-1.804C29.751,77.838,35.088,79.925,34.756,84.667L34.756,84.667z"
		/>
	<path fill="#004A88" d="M12.447,111.123l-1.41-5.413h0.852l1.134,4.636h0.138l2.18-4.636h0.871l-2.625,5.413H12.447z
		 M16.15,111.123l0.614-5.413h0.814l-0.608,5.413H16.15z M16.72,104.62l0.125-1.121h1.153l-0.125,1.121H16.72z M17.804,110.603
		l0.426-0.614c0.295,0.213,0.576,0.37,0.839,0.47c0.263,0.107,0.514,0.157,0.758,0.157c0.382,0,0.708-0.094,0.977-0.282
		c0.269-0.188,0.42-0.419,0.451-0.695c0.019-0.188-0.019-0.345-0.125-0.464c-0.107-0.125-0.301-0.238-0.576-0.345l-1.159-0.432
		c-0.376-0.138-0.658-0.326-0.827-0.564c-0.175-0.238-0.244-0.514-0.213-0.833c0.05-0.414,0.276-0.752,0.683-1.015
		c0.414-0.269,0.915-0.401,1.516-0.401c0.276,0,0.545,0.031,0.814,0.1c0.263,0.069,0.545,0.175,0.833,0.326l-0.382,0.633
		c-0.276-0.151-0.533-0.263-0.771-0.332c-0.232-0.069-0.457-0.106-0.664-0.106c-0.345,0-0.633,0.069-0.858,0.2
		c-0.232,0.138-0.357,0.313-0.382,0.533c-0.019,0.188,0.031,0.351,0.15,0.489c0.119,0.138,0.313,0.257,0.589,0.357l0.902,0.313
		c0.489,0.175,0.833,0.376,1.04,0.614c0.194,0.232,0.276,0.533,0.238,0.883c-0.056,0.482-0.294,0.883-0.72,1.197
		c-0.426,0.313-0.94,0.47-1.541,0.47c-0.395,0-0.764-0.056-1.096-0.163C18.374,110.986,18.073,110.816,17.804,110.603
		L17.804,110.603z M27.37,105.71l-0.576,5.1l-0.896,0.313l0.132-1.203h-0.113c-0.42,0.414-0.814,0.714-1.19,0.915
		c-0.376,0.2-0.746,0.301-1.109,0.301c-0.501,0-0.871-0.151-1.096-0.438c-0.226-0.294-0.307-0.727-0.244-1.297l0.414-3.69h0.858
		l-0.401,3.565c-0.05,0.451-0.019,0.764,0.1,0.952c0.113,0.182,0.338,0.27,0.67,0.27c0.32,0,0.664-0.113,1.04-0.332
		c0.37-0.219,0.758-0.545,1.153-0.965l0.395-3.49L27.37,105.71L27.37,105.71z M31.192,109.595l0.144-1.315h-0.163
		c-0.934,0-1.673,0.125-2.205,0.37c-0.539,0.244-0.827,0.589-0.877,1.034c-0.031,0.275,0.031,0.495,0.194,0.658
		c0.157,0.163,0.382,0.244,0.677,0.244c0.288,0,0.626-0.088,1.021-0.263C30.377,110.146,30.778,109.908,31.192,109.595
		L31.192,109.595z M31.022,110.159c-0.395,0.363-0.783,0.639-1.172,0.821c-0.382,0.188-0.758,0.282-1.121,0.282
		c-0.501,0-0.896-0.144-1.178-0.438c-0.282-0.288-0.395-0.67-0.345-1.14c0.069-0.595,0.445-1.059,1.128-1.391
		c0.683-0.332,1.61-0.501,2.781-0.501h0.276l0.081-0.714c0.031-0.301-0.031-0.52-0.207-0.651c-0.169-0.132-0.47-0.201-0.908-0.201
		c-0.307,0-0.626,0.05-0.946,0.138c-0.326,0.094-0.652,0.226-0.984,0.414l-0.319-0.683c0.432-0.169,0.839-0.294,1.24-0.376
		c0.401-0.082,0.789-0.119,1.172-0.119c0.414,0,0.764,0.05,1.065,0.157c0.295,0.113,0.507,0.257,0.633,0.451
		c0.063,0.081,0.1,0.207,0.113,0.363c0.012,0.156,0.006,0.382-0.025,0.67l-0.301,2.675c-0.025,0.225,0.006,0.388,0.107,0.489
		c0.1,0.106,0.288,0.163,0.551,0.181l-0.075,0.658c-0.47-0.013-0.821-0.113-1.065-0.301c-0.244-0.188-0.363-0.451-0.351-0.783
		L31.022,110.159L31.022,110.159z M33.29,111.123l0.858-7.624l0.89-0.319l-0.896,7.944L33.29,111.123L33.29,111.123z M41.717,110.14
		c-0.276,0.382-0.601,0.664-0.977,0.846c-0.376,0.188-0.814,0.276-1.322,0.276c-0.758,0-1.328-0.251-1.698-0.745
		c-0.37-0.501-0.507-1.197-0.407-2.086c0.1-0.865,0.395-1.56,0.89-2.074c0.489-0.514,1.096-0.77,1.817-0.77
		c0.432,0,0.808,0.081,1.134,0.251c0.32,0.163,0.614,0.426,0.883,0.789l-0.871,0.351c-0.138-0.238-0.313-0.426-0.514-0.551
		c-0.207-0.125-0.438-0.188-0.708-0.188c-0.464,0-0.852,0.194-1.165,0.583c-0.313,0.389-0.507,0.927-0.583,1.61
		c-0.082,0.708,0,1.247,0.238,1.616c0.244,0.37,0.633,0.557,1.178,0.557c0.263,0,0.501-0.063,0.72-0.188
		c0.213-0.125,0.426-0.326,0.633-0.602L41.717,110.14z M42.775,108.43c-0.075,0.683,0,1.222,0.232,1.604
		c0.226,0.376,0.583,0.57,1.071,0.57c0.482,0,0.883-0.194,1.197-0.57c0.313-0.382,0.507-0.921,0.583-1.604
		c0.082-0.689,0-1.228-0.225-1.616c-0.226-0.382-0.583-0.576-1.065-0.576s-0.883,0.194-1.203,0.576
		C43.051,107.202,42.857,107.74,42.775,108.43L42.775,108.43z M41.898,108.43c0.1-0.877,0.395-1.566,0.89-2.074
		c0.495-0.507,1.109-0.758,1.848-0.758c0.739,0,1.297,0.251,1.679,0.758c0.382,0.508,0.52,1.197,0.426,2.074
		c-0.1,0.871-0.395,1.56-0.89,2.067c-0.495,0.507-1.115,0.764-1.848,0.764c-0.739,0-1.303-0.257-1.685-0.764
		C41.942,109.989,41.798,109.3,41.898,108.43L41.898,108.43z M46.979,111.123l0.583-5.212l0.896-0.326l-0.138,1.209h0.107
		c0.414-0.407,0.808-0.708,1.19-0.908c0.376-0.2,0.752-0.301,1.115-0.301c0.507,0,0.871,0.144,1.103,0.438
		c0.226,0.294,0.313,0.727,0.244,1.29l-0.426,3.809h-0.865l0.414-3.684c0.05-0.445,0.019-0.764-0.094-0.946
		c-0.119-0.188-0.345-0.275-0.67-0.275c-0.319,0-0.67,0.106-1.046,0.326c-0.37,0.219-0.758,0.545-1.153,0.965l-0.407,3.615H46.979z
		 M55.75,110.898c-0.301,0.119-0.57,0.213-0.808,0.276c-0.238,0.056-0.457,0.088-0.645,0.088c-0.194,0-0.382-0.031-0.551-0.094
		c-0.175-0.069-0.326-0.163-0.445-0.282c-0.113-0.106-0.188-0.225-0.226-0.376c-0.031-0.144-0.031-0.401,0.013-0.771l0.363-3.239
		h-1.153l0.069-0.589h1.153l0.144-1.29l0.94-0.883l-0.244,2.174h1.447l-0.069,0.589h-1.441l-0.395,3.49
		c-0.025,0.2,0.019,0.351,0.125,0.445c0.107,0.1,0.282,0.151,0.514,0.151c0.138,0,0.307-0.038,0.514-0.1
		c0.207-0.063,0.464-0.163,0.771-0.301L55.75,110.898z M55.956,111.123l0.589-5.212l0.89-0.313l-0.232,2.049h0.125
		c0.564-0.633,1.071-1.121,1.535-1.46c0.457-0.338,0.865-0.532,1.234-0.589l-0.15,1.334h-0.075c-0.507,0-0.983,0.113-1.428,0.338
		c-0.445,0.219-0.883,0.57-1.316,1.046l-0.313,2.807H55.956z M60.48,108.43c-0.081,0.683-0.006,1.222,0.226,1.604
		c0.232,0.376,0.589,0.57,1.071,0.57c0.482,0,0.883-0.194,1.197-0.57c0.313-0.382,0.507-0.921,0.583-1.604
		c0.081-0.689,0.006-1.228-0.219-1.616c-0.232-0.382-0.583-0.576-1.071-0.576c-0.482,0-0.883,0.194-1.197,0.576
		C60.749,107.202,60.555,107.74,60.48,108.43L60.48,108.43z M59.596,108.43c0.1-0.877,0.395-1.566,0.89-2.074
		c0.495-0.507,1.115-0.758,1.854-0.758c0.733,0,1.297,0.251,1.673,0.758c0.382,0.508,0.526,1.197,0.426,2.074
		c-0.1,0.871-0.395,1.56-0.89,2.067c-0.495,0.507-1.109,0.764-1.848,0.764c-0.739,0-1.303-0.257-1.679-0.764
		C59.64,109.989,59.502,109.3,59.596,108.43L59.596,108.43z M65.109,111.123l0.858-7.624l0.89-0.319l-0.89,7.944L65.109,111.123
		L65.109,111.123z"/>
	<polygon fill="#BEB14F" points="100.863,48.3 107.021,47.529 102.448,48.105 105.53,51.445 110.204,50.649 111.419,51.839 
		105.173,53.011 	"/>
	<polygon fill="#BAD8E8" points="102.993,59.019 102.141,57.966 103.751,53.092 100.531,49.484 100.856,48.306 105.173,53.011 	"/>
	<path fill="#6B84B5" d="M94.754,72.676l-9.629-15.574l2.907-18.368l8.194,9.648l-1.754,6.753l3.997,5.375L94.754,72.676z"/>
	<polygon fill="#7BB0C8" points="105.173,53.017 111.419,51.846 109.608,56.162 110.893,53.111 106.15,54.07 104.502,58.668 
		103.005,59.019 	"/>
	<polygon fill="#6B84B5" points="108.619,56.388 127.519,52.103 118.392,68.184 101.238,74.837 108.619,56.388 114.94,54.953 
		112.164,61.067 106.037,62.834 	"/>
	<polygon fill="#4886B9" points="106.15,54.07 116.274,52.021 114.94,54.953 108.619,56.388 106.037,62.834 102.654,63.811 	"/>
	<polygon fill="#5899CE" points="106.15,54.07 110.893,53.111 109.608,56.162 108.951,57.559 108.036,57.841 109.001,57.616 
		104.502,58.668 	"/>
	<polygon fill="#C3B761" points="93.289,34.354 102.278,43.463 108.418,42.906 113.367,47.404 126.198,45.499 111.77,34.229 	"/>
	<polygon fill="#7DAEC7" points="102.141,57.966 99.196,54.333 100.029,55.367 100.531,53.449 99.704,52.478 100.531,49.484 
		103.751,53.092 	"/>
	<path fill="#4886B9" d="M100.43,63.147l-5.958-8.013l1.754-6.753l3.477,4.097l0.827-2.995l3.22,3.609l-6.779-7.599l-2.5,9.641
		l3.997,5.375l1.572-5.137l-0.846-1.04l2.944,3.634L100.43,63.147z M99.704,52.478L99.704,52.478L99.704,52.478z"/>
	<polygon fill="#3C609A" points="98.469,60.51 94.473,55.135 96.227,48.381 99.704,52.478 100.531,53.449 100.042,55.373 	"/>
	<polygon fill="#3C609A" points="114.94,54.953 112.164,61.067 106.037,62.834 108.619,56.388 109.608,56.162 108.612,56.381 
		108.036,57.841 108.619,56.388 	"/>
	<polygon fill="#C7BC6F" points="110.63,44.911 115.923,49.678 105.536,51.439 105.536,51.445 105.53,51.445 105.53,51.445 
		105.53,51.439 98.513,43.846 102.304,43.495 102.304,43.495 106.984,48.225 113.392,47.423 112.86,46.94 112.653,46.734 
		110.636,44.917 110.636,44.917 	"/>
	<polygon fill="#B7AE48" points="102.203,48.037 106.927,47.398 110.166,50.605 105.53,51.539 	"/>
	<polygon fill="#BEA422" points="102.272,43.463 108.418,42.906 113.392,47.423 107.128,48.369 	"/>
</g>
</svg>
