<?xml version="1.0" encoding="utf-8"?>
<!-- Generator: Adobe Illustrator 16.0.0, SVG Export Plug-In . SVG Version: 6.00 Build 0)  -->
<!DOCTYPE svg PUBLIC "-//W3C//DTD SVG 1.1//EN" "http://www.w3.org/Graphics/SVG/1.1/DTD/svg11.dtd">
<svg version="1.1" id="Layer_1" xmlns="http://www.w3.org/2000/svg" xmlns:xlink="http://www.w3.org/1999/xlink" x="0px" y="0px"
	 width="168px" height="168px" viewBox="0 0 168 168" enable-background="new 0 0 168 168" xml:space="preserve">
<g transform="translate(677.75822,-316.64792)">
	<path d="M-648.27,386.708h3.228v8.536h-3.228c-1.607-5.292-9.603-6.084-14.616-6.084c-4.385,0-7.661,1.153-7.661,3.38
		c0,2.575,6.169,2.646,11.157,3.322c6.421,0.87,15.789,0.721,15.789,9.114c0,6.624-8.798,8.872-14.308,8.884
		c-9.863,0.022-12.925-2.819-15.182-2.819c-0.625,0-0.949,0.605-0.949,1.815h-3.225v-9.578h3.225
		c1.212,5.773,10.09,7.032,13.83,7.032c2.652,0,9.475-0.521,9.475-3.673c0-2.988-4.378-2.832-9.697-3.592
		c-5.829-0.832-17.326-1.014-17.326-8.767c0-5.981,6.702-8.844,14.223-8.844c8.735,0,13.054,2.837,14.35,2.837
		C-648.576,388.272-648.27,387.71-648.27,386.708z"/>
	<path d="M-618.001,385.435c-11.829,0-19.662,6.089-19.662,14.213c0,8.125,7.833,14.213,19.662,14.213s19.662-6.088,19.662-14.213
		C-598.339,391.524-606.172,385.435-618.001,385.435z M-618.001,389.225c6.784,0,11.276,4.465,11.276,10.423
		c0,5.957-4.492,10.424-11.276,10.424c-6.784,0-11.276-4.467-11.276-10.424C-629.277,393.69-624.785,389.225-618.001,389.225z"/>
	<path d="M-558.721,412.286h-5.201l-20.76-17.761v13.207c0,0.886,0.443,1.328,1.328,1.328h3.797v3.226h-15.523v-3.226h3.795
		c0.886,0,1.329-0.442,1.329-1.328v-16.168c0-0.885-0.443-1.328-1.329-1.328h-3.795v-3.226h13.017l18.066,15.446v-10.892
		c0-0.885-0.443-1.328-1.329-1.328h-3.796v-3.226h15.523v3.226h-3.795c-0.885,0-1.328,0.443-1.328,1.328V412.286z"/>
	<path d="M-525.016,387.01h15.254v3.226h-2.994c-1.27,0-2.331,0.443-3.184,1.328l-10.214,10.892v5.276
		c0,0.886,0.442,1.328,1.329,1.328h3.795v3.226h-18.408v-3.226h3.795c0.887,0,1.329-0.442,1.329-1.328v-4.934l-10.476-11.235
		c-0.859-0.885-1.922-1.328-3.187-1.328h-2.999v-3.226h18.748v3.226h-1.859c-0.455,0-0.746,0.158-0.873,0.475
		c-0.126,0.316-0.076,0.601,0.152,0.854l6.186,6.604l6.188-6.604c0.227-0.253,0.277-0.537,0.15-0.854
		c-0.125-0.316-0.416-0.475-0.872-0.475h-1.86V387.01z"/>
</g>
</svg>
