<?xml version="1.0" encoding="utf-8"?>
<!-- Generator: Adobe Illustrator 16.0.0, SVG Export Plug-In . SVG Version: 6.00 Build 0)  -->
<!DOCTYPE svg PUBLIC "-//W3C//DTD SVG 1.1//EN" "http://www.w3.org/Graphics/SVG/1.1/DTD/svg11.dtd">
<svg version="1.1" id="Layer_1" xmlns="http://www.w3.org/2000/svg" xmlns:xlink="http://www.w3.org/1999/xlink" x="0px" y="0px"
	 width="168px" height="168px" viewBox="0 0 168 168" enable-background="new 0 0 168 168" xml:space="preserve">
<g>
	<g>
		<path fill="#231F20" d="M3.051,104.368l0.777-0.459c0.543,1.002,1.176,1.503,1.898,1.503c0.467,0,0.866-0.148,1.198-0.445
			c0.331-0.298,0.497-0.667,0.497-1.108c0-0.349-0.14-0.701-0.42-1.058s-0.745-0.779-1.395-1.268
			c-0.65-0.488-1.087-0.854-1.312-1.095c-0.225-0.242-0.391-0.501-0.497-0.777c-0.106-0.276-0.159-0.555-0.159-0.834
			c0-0.595,0.21-1.098,0.63-1.51c0.42-0.412,0.949-0.618,1.586-0.618c0.501,0,0.938,0.126,1.312,0.376
			c0.374,0.251,0.734,0.622,1.083,1.114L7.51,98.763c-0.238-0.322-0.484-0.59-0.739-0.802c-0.255-0.213-0.567-0.319-0.937-0.319
			c-0.369,0-0.671,0.111-0.904,0.332c-0.234,0.221-0.35,0.501-0.35,0.84c0,0.34,0.104,0.636,0.312,0.886
			c0.208,0.251,0.679,0.647,1.414,1.191c0.735,0.543,1.27,1.044,1.605,1.503c0.335,0.458,0.503,0.942,0.503,1.452
			c0,0.662-0.257,1.237-0.771,1.726c-0.514,0.488-1.11,0.732-1.79,0.732C4.656,106.304,3.722,105.658,3.051,104.368z"/>
		<path fill="#231F20" d="M15.7,103.884l0.739,0.382c-0.73,1.359-1.809,2.038-3.235,2.038c-1.019,0-1.86-0.351-2.522-1.051
			c-0.662-0.7-0.994-1.543-0.994-2.528s0.333-1.83,1-2.535s1.491-1.057,2.471-1.057c0.981,0,1.805,0.326,2.471,0.98
			s1.013,1.546,1.038,2.675H10.58c0.025,0.815,0.282,1.472,0.771,1.968c0.488,0.497,1.081,0.745,1.777,0.745
			C14.273,105.501,15.131,104.962,15.7,103.884z M15.7,102.037c-0.119-0.646-0.417-1.151-0.892-1.517
			c-0.476-0.364-1.023-0.548-1.644-0.548c-1.273,0-2.106,0.688-2.497,2.064H15.7z"/>
		<path fill="#231F20" d="M24.718,100.712l-0.688,0.433c-0.594-0.789-1.41-1.185-2.445-1.185c-0.815,0-1.499,0.262-2.051,0.784
			c-0.552,0.521-0.828,1.17-0.828,1.942s0.271,1.435,0.815,1.987c0.543,0.552,1.231,0.827,2.064,0.827
			c0.993,0,1.809-0.395,2.445-1.185l0.688,0.459c-0.34,0.492-0.796,0.87-1.369,1.134c-0.573,0.263-1.191,0.395-1.854,0.395
			c-1.044,0-1.917-0.344-2.618-1.031c-0.701-0.688-1.051-1.529-1.051-2.522s0.354-1.845,1.063-2.554s1.62-1.063,2.732-1.063
			c0.654,0,1.259,0.14,1.815,0.42S24.421,100.22,24.718,100.712z"/>
		<path fill="#231F20" d="M31.979,106.074H31.1v-1.21c-0.696,0.926-1.541,1.389-2.535,1.389c-0.509,0-0.968-0.138-1.375-0.414
			c-0.408-0.275-0.697-0.637-0.866-1.083c-0.17-0.445-0.255-1.102-0.255-1.968v-3.478h0.866v3.223c0,0.79,0.036,1.325,0.108,1.605
			c0.072,0.28,0.182,0.518,0.331,0.713c0.148,0.195,0.337,0.344,0.567,0.446c0.229,0.102,0.507,0.152,0.834,0.152
			c0.327,0,0.647-0.08,0.961-0.242c0.314-0.161,0.582-0.386,0.803-0.675c0.221-0.288,0.369-0.586,0.446-0.892
			c0.076-0.306,0.114-0.921,0.114-1.847v-2.484h0.879V106.074z"/>
		<path fill="#231F20" d="M33.393,99.311h0.892v0.981c0.238-0.399,0.469-0.692,0.694-0.879c0.225-0.188,0.476-0.28,0.751-0.28
			s0.554,0.076,0.834,0.229l-0.458,0.739c-0.127-0.076-0.259-0.115-0.395-0.115c-0.263,0-0.512,0.137-0.745,0.408
			s-0.406,0.622-0.516,1.051c-0.111,0.429-0.166,1.208-0.166,2.338v2.292h-0.892V99.311z"/>
		<path fill="#231F20" d="M36.959,97.426c0-0.195,0.07-0.365,0.21-0.51s0.31-0.217,0.51-0.217c0.199,0,0.369,0.07,0.509,0.21
			c0.14,0.141,0.21,0.311,0.21,0.51c0,0.2-0.07,0.369-0.21,0.51c-0.14,0.14-0.31,0.21-0.509,0.21c-0.2,0-0.37-0.072-0.51-0.217
			C37.029,97.778,36.959,97.612,36.959,97.426z M37.24,99.311h0.879v6.764H37.24V99.311z"/>
		<path fill="#231F20" d="M41.367,105.005c0,0.229,0.03,0.365,0.089,0.407c0.059,0.043,0.212,0.063,0.458,0.063h0.522v0.739
			c-0.356,0.06-0.637,0.089-0.841,0.089c-0.382,0-0.662-0.093-0.84-0.28c-0.178-0.187-0.268-0.479-0.268-0.879v-5.095h-1.197v-0.739
			h1.197v-2.611h0.879v2.611h1.375v0.739h-1.375V105.005z"/>
		<path fill="#231F20" d="M43.137,99.311h0.917l2.331,5.21l2.254-5.21h0.93l-4.038,9.235h-0.917l1.299-2.98L43.137,99.311z"/>
		<path fill="#231F20" d="M53.531,96.929h0.917v9.146h-0.917V96.929z"/>
		<path fill="#231F20" d="M56.219,99.311h0.879v1.21c0.696-0.925,1.541-1.388,2.535-1.388c0.51,0,0.968,0.138,1.376,0.413
			c0.407,0.276,0.696,0.638,0.866,1.083c0.17,0.446,0.255,1.102,0.255,1.968v3.478h-0.866v-3.223c0-0.789-0.036-1.324-0.108-1.604
			c-0.072-0.28-0.183-0.518-0.332-0.714c-0.148-0.195-0.337-0.344-0.567-0.445c-0.229-0.103-0.507-0.153-0.834-0.153
			c-0.327,0-0.648,0.081-0.962,0.242c-0.314,0.161-0.582,0.387-0.802,0.675c-0.221,0.289-0.37,0.586-0.446,0.893
			c-0.076,0.306-0.114,0.921-0.114,1.847v2.483h-0.879V99.311z"/>
		<path fill="#231F20" d="M63.798,99.311h0.879v1.21c0.696-0.925,1.541-1.388,2.535-1.388c0.51,0,0.968,0.138,1.376,0.413
			c0.407,0.276,0.696,0.638,0.866,1.083c0.17,0.446,0.255,1.102,0.255,1.968v3.478h-0.866v-3.223c0-0.789-0.036-1.324-0.108-1.604
			c-0.072-0.28-0.183-0.518-0.332-0.714c-0.148-0.195-0.337-0.344-0.567-0.445c-0.229-0.103-0.507-0.153-0.834-0.153
			c-0.327,0-0.648,0.081-0.962,0.242c-0.314,0.161-0.582,0.387-0.802,0.675c-0.221,0.289-0.37,0.586-0.446,0.893
			c-0.076,0.306-0.114,0.921-0.114,1.847v2.483h-0.879V99.311z"/>
		<path fill="#231F20" d="M71.058,102.737c0-0.993,0.342-1.843,1.025-2.548s1.516-1.057,2.497-1.057c0.98,0,1.813,0.352,2.497,1.057
			s1.025,1.55,1.025,2.535s-0.338,1.828-1.013,2.528c-0.675,0.7-1.51,1.051-2.503,1.051c-0.994,0-1.83-0.351-2.51-1.051
			C71.398,104.553,71.058,103.714,71.058,102.737z M77.224,102.75c0-0.747-0.261-1.395-0.784-1.942
			c-0.522-0.548-1.142-0.822-1.859-0.822c-0.718,0-1.335,0.274-1.854,0.822s-0.777,1.199-0.777,1.955s0.25,1.397,0.751,1.924
			c0.501,0.526,1.123,0.789,1.866,0.789c0.743,0,1.371-0.265,1.885-0.796C76.967,104.149,77.224,103.506,77.224,102.75z"/>
		<path fill="#231F20" d="M78.892,99.311h0.93l2.254,5.146l2.255-5.146h0.929l-3.095,6.993h-0.153L78.892,99.311z"/>
		<path fill="#231F20" d="M93.133,99.311v6.764H92.28v-1.159c-0.773,0.926-1.656,1.389-2.65,1.389c-0.993,0-1.832-0.354-2.516-1.063
			s-1.025-1.554-1.025-2.535c0-0.98,0.344-1.821,1.032-2.521c0.688-0.701,1.512-1.051,2.471-1.051c1.104,0,2,0.471,2.688,1.413
			v-1.235H93.133z M92.331,102.725c0-0.772-0.26-1.425-0.777-1.955c-0.518-0.531-1.152-0.797-1.904-0.797s-1.387,0.274-1.904,0.822
			c-0.519,0.548-0.777,1.195-0.777,1.942s0.264,1.395,0.79,1.942s1.157,0.821,1.892,0.821s1.365-0.263,1.892-0.789
			S92.331,103.522,92.331,102.725z"/>
		<path fill="#231F20" d="M96.547,105.005c0,0.229,0.029,0.365,0.089,0.407c0.06,0.043,0.213,0.063,0.459,0.063h0.522v0.739
			c-0.357,0.06-0.638,0.089-0.841,0.089c-0.383,0-0.663-0.093-0.841-0.28c-0.179-0.187-0.268-0.479-0.268-0.879v-5.095h-1.197
			v-0.739h1.197v-2.611h0.879v2.611h1.376v0.739h-1.376V105.005z"/>
		<path fill="#231F20" d="M98.636,97.426c0-0.195,0.07-0.365,0.21-0.51c0.141-0.145,0.31-0.217,0.51-0.217
			c0.199,0,0.369,0.07,0.51,0.21c0.14,0.141,0.21,0.311,0.21,0.51c0,0.2-0.07,0.369-0.21,0.51c-0.141,0.14-0.311,0.21-0.51,0.21
			c-0.2,0-0.369-0.072-0.51-0.217C98.706,97.778,98.636,97.612,98.636,97.426z M98.916,99.311h0.879v6.764h-0.879V99.311z"/>
		<path fill="#231F20" d="M101.081,102.737c0-0.993,0.342-1.843,1.025-2.548s1.516-1.057,2.497-1.057
			c0.98,0,1.812,0.352,2.496,1.057s1.025,1.55,1.025,2.535s-0.337,1.828-1.013,2.528c-0.675,0.7-1.509,1.051-2.503,1.051
			c-0.993,0-1.83-0.351-2.509-1.051C101.421,104.553,101.081,103.714,101.081,102.737z M107.246,102.75
			c0-0.747-0.261-1.395-0.783-1.942s-1.142-0.822-1.859-0.822s-1.336,0.274-1.854,0.822c-0.519,0.548-0.777,1.199-0.777,1.955
			s0.251,1.397,0.752,1.924s1.123,0.789,1.866,0.789s1.371-0.265,1.885-0.796C106.989,104.149,107.246,103.506,107.246,102.75z"/>
		<path fill="#231F20" d="M109.552,99.311h0.879v1.21c0.696-0.925,1.542-1.388,2.535-1.388c0.51,0,0.968,0.138,1.376,0.413
			c0.407,0.276,0.696,0.638,0.866,1.083c0.17,0.446,0.255,1.102,0.255,1.968v3.478h-0.866v-3.223c0-0.789-0.036-1.324-0.108-1.604
			s-0.183-0.518-0.331-0.714c-0.149-0.195-0.338-0.344-0.567-0.445c-0.229-0.103-0.508-0.153-0.834-0.153
			c-0.327,0-0.647,0.081-0.962,0.242s-0.582,0.387-0.803,0.675c-0.221,0.289-0.369,0.586-0.445,0.893
			c-0.077,0.306-0.115,0.921-0.115,1.847v2.483h-0.879V99.311z"/>
		<path fill="#231F20" d="M120.532,100.05l-0.561,0.573c-0.467-0.45-0.922-0.676-1.363-0.676c-0.288,0-0.53,0.092-0.726,0.274
			s-0.293,0.407-0.293,0.675s0.104,0.497,0.312,0.688c0.208,0.191,0.567,0.421,1.077,0.688c0.509,0.268,0.897,0.556,1.165,0.866
			c0.268,0.31,0.401,0.689,0.401,1.14c0,0.569-0.197,1.049-0.592,1.439c-0.396,0.391-0.882,0.586-1.459,0.586
			c-0.382,0-0.75-0.085-1.102-0.255c-0.353-0.17-0.652-0.407-0.898-0.713l0.548-0.611c0.45,0.501,0.921,0.751,1.414,0.751
			c0.348,0,0.646-0.114,0.892-0.344s0.369-0.499,0.369-0.809s-0.108-0.564-0.324-0.765c-0.217-0.199-0.578-0.427-1.083-0.682
			c-0.506-0.254-0.884-0.532-1.134-0.834c-0.251-0.302-0.376-0.692-0.376-1.172s0.177-0.89,0.528-1.229
			c0.353-0.339,0.82-0.509,1.401-0.509C119.312,99.133,119.912,99.438,120.532,100.05z"/>
		<path fill="#231F20" d="M124.086,104.368l0.776-0.459c0.544,1.002,1.177,1.503,1.898,1.503c0.467,0,0.866-0.148,1.197-0.445
			c0.331-0.298,0.497-0.667,0.497-1.108c0-0.349-0.141-0.701-0.421-1.058s-0.745-0.779-1.395-1.268s-1.087-0.854-1.312-1.095
			c-0.225-0.242-0.391-0.501-0.496-0.777c-0.106-0.276-0.159-0.555-0.159-0.834c0-0.595,0.21-1.098,0.63-1.51
			c0.421-0.412,0.949-0.618,1.586-0.618c0.501,0,0.938,0.126,1.312,0.376c0.373,0.251,0.734,0.622,1.082,1.114l-0.738,0.573
			c-0.238-0.322-0.484-0.59-0.739-0.802c-0.255-0.213-0.566-0.319-0.936-0.319c-0.37,0-0.671,0.111-0.904,0.332
			c-0.234,0.221-0.351,0.501-0.351,0.84c0,0.34,0.104,0.636,0.312,0.886c0.208,0.251,0.68,0.647,1.414,1.191
			c0.734,0.543,1.27,1.044,1.605,1.503c0.335,0.458,0.503,0.942,0.503,1.452c0,0.662-0.257,1.237-0.771,1.726
			s-1.11,0.732-1.79,0.732C125.69,106.304,124.756,105.658,124.086,104.368z"/>
		<path fill="#231F20" d="M130.722,102.737c0-0.993,0.342-1.843,1.025-2.548s1.516-1.057,2.497-1.057
			c0.98,0,1.812,0.352,2.496,1.057s1.025,1.55,1.025,2.535s-0.337,1.828-1.013,2.528c-0.675,0.7-1.509,1.051-2.503,1.051
			c-0.993,0-1.83-0.351-2.509-1.051C131.062,104.553,130.722,103.714,130.722,102.737z M136.887,102.75
			c0-0.747-0.261-1.395-0.783-1.942s-1.142-0.822-1.859-0.822s-1.336,0.274-1.854,0.822c-0.519,0.548-0.777,1.199-0.777,1.955
			s0.251,1.397,0.752,1.924s1.123,0.789,1.866,0.789s1.371-0.265,1.885-0.796C136.63,104.149,136.887,103.506,136.887,102.75z"/>
		<path fill="#231F20" d="M138.874,102.737c0-0.993,0.342-1.843,1.025-2.548s1.516-1.057,2.497-1.057
			c0.98,0,1.812,0.352,2.496,1.057s1.025,1.55,1.025,2.535s-0.337,1.828-1.013,2.528c-0.675,0.7-1.509,1.051-2.503,1.051
			c-0.993,0-1.83-0.351-2.509-1.051C139.214,104.553,138.874,103.714,138.874,102.737z M145.039,102.75
			c0-0.747-0.261-1.395-0.783-1.942s-1.142-0.822-1.859-0.822s-1.336,0.274-1.854,0.822c-0.519,0.548-0.777,1.199-0.777,1.955
			s0.251,1.397,0.752,1.924s1.123,0.789,1.866,0.789s1.371-0.265,1.885-0.796C144.782,104.149,145.039,103.506,145.039,102.75z"/>
		<path fill="#231F20" d="M147.345,99.311h0.879v1.21c0.696-0.925,1.542-1.388,2.535-1.388c0.51,0,0.968,0.138,1.376,0.413
			c0.407,0.276,0.696,0.638,0.866,1.083c0.17,0.446,0.255,1.102,0.255,1.968v3.478h-0.866v-3.223c0-0.789-0.036-1.324-0.108-1.604
			s-0.183-0.518-0.331-0.714c-0.149-0.195-0.338-0.344-0.567-0.445c-0.229-0.103-0.508-0.153-0.834-0.153
			c-0.327,0-0.647,0.081-0.962,0.242s-0.582,0.387-0.803,0.675c-0.221,0.289-0.369,0.586-0.445,0.893
			c-0.077,0.306-0.115,0.921-0.115,1.847v2.483h-0.879V99.311z"/>
		<path fill="#231F20" d="M160.618,103.884l0.738,0.382c-0.73,1.359-1.809,2.038-3.235,2.038c-1.019,0-1.859-0.351-2.521-1.051
			c-0.663-0.7-0.994-1.543-0.994-2.528s0.333-1.83,1-2.535s1.49-1.057,2.472-1.057c0.98,0,1.804,0.326,2.471,0.98
			s1.013,1.546,1.038,2.675h-6.089c0.025,0.815,0.282,1.472,0.771,1.968c0.488,0.497,1.081,0.745,1.777,0.745
			C159.191,105.501,160.049,104.962,160.618,103.884z M160.618,102.037c-0.119-0.646-0.416-1.151-0.892-1.517
			c-0.476-0.364-1.023-0.548-1.644-0.548c-1.273,0-2.106,0.688-2.496,2.064H160.618z"/>
		<path fill="#231F20" d="M162.693,99.311h0.892v0.981c0.238-0.399,0.47-0.692,0.694-0.879c0.225-0.188,0.476-0.28,0.752-0.28
			c0.275,0,0.554,0.076,0.834,0.229l-0.459,0.739c-0.127-0.076-0.259-0.115-0.395-0.115c-0.263,0-0.512,0.137-0.745,0.408
			s-0.405,0.622-0.516,1.051s-0.166,1.208-0.166,2.338v2.292h-0.892V99.311z"/>
	</g>
	<path fill="#FFFFFF" d="M143.851,57.467l-4.743,0.014h-20.324h-1.285v0.001h-0.048H3.394H2.108l0.001,1.285l0.019,31.795v1.287
		h1.285H117.45h0.048l0,0h1.285h31.438h1.285v-1.287V65.261C151.498,61.03,148.055,57.472,143.851,57.467"/>
	<polygon fill="#131F48" points="117.45,58.767 3.395,58.767 3.412,90.562 117.45,90.562 	"/>
	<path fill="#131F48" d="M143.851,58.777l-4.743-0.011h-20.324v31.798h31.438V65.263C150.215,61.738,147.374,58.781,143.851,58.777"
		/>
	<path fill="#FFFFFF" d="M24.613,71.615h-6.567v2.151h6.252c0.958,0,1.616,0.161,1.974,0.482c0.354,0.324,0.53,0.95,0.53,1.879
		v1.377c0,0.928-0.176,1.556-0.53,1.879c-0.356,0.321-1.012,0.483-1.97,0.483h-6.177c-0.956,0-1.611-0.162-1.966-0.483
		c-0.357-0.324-0.535-0.951-0.535-1.879v-0.271l2.054-0.429v1.182h7.071v-2.284h-6.235c-0.958,0-1.609-0.165-1.958-0.485
		c-0.348-0.324-0.523-0.949-0.523-1.88v-1.104c0-0.929,0.176-1.555,0.523-1.878c0.349-0.321,1-0.485,1.958-0.485h5.675
		c0.918,0,1.559,0.154,1.927,0.466c0.367,0.311,0.552,0.884,0.552,1.725v0.211l-2.054,0.485V71.615z"/>
	<path fill="#FFFFFF" d="M31.045,69.871v8.116h6.623v-8.116h2.325v7.635c0,0.927-0.172,1.556-0.522,1.879
		c-0.348,0.321-0.999,0.482-1.957,0.482H31.2c-0.956,0-1.607-0.161-1.955-0.482c-0.351-0.324-0.524-0.952-0.524-1.879v-7.635H31.045
		z"/>
	<path fill="#FFFFFF" d="M49.332,71.575h-5.231v2.81h5.231c0.36,0,0.612-0.04,0.755-0.119c0.194-0.114,0.291-0.344,0.291-0.68v-1.21
		c0-0.338-0.097-0.566-0.291-0.683C49.944,71.616,49.692,71.575,49.332,71.575 M41.814,79.867v-9.996h8.563
		c1.497,0,2.245,0.646,2.245,1.938v2.344c0,1.29-0.748,1.936-2.245,1.936h-1.316l4.611,3.778h-3.332l-4.032-3.778h-2.208v3.778
		H41.814z"/>
	<polygon fill="#FFFFFF" points="54.641,79.867 54.641,69.872 64.867,69.872 64.867,71.575 56.962,71.575 56.962,73.806 
		61.575,73.806 61.575,75.508 56.962,75.508 56.962,77.987 64.964,77.987 64.964,79.867 	"/>
	<polygon fill="#FFFFFF" points="73.331,71.654 73.331,79.867 71.009,79.867 71.009,71.654 66.419,71.654 66.419,69.872 
		77.941,69.872 77.941,71.654 	"/>
	<polygon fill="#FFFFFF" points="79.048,79.867 79.048,69.872 89.274,69.872 89.274,71.575 81.372,71.575 81.372,73.806 
		85.981,73.806 85.981,75.508 81.372,75.508 81.372,77.987 89.371,77.987 89.371,79.867 	"/>
	<polygon fill="#FFFFFF" points="90.786,79.867 90.786,69.872 93.13,69.872 93.13,74.036 98.67,69.872 102.042,69.872 
		95.414,74.578 102.854,79.867 99.116,79.867 93.13,75.469 93.13,79.867 	"/>
	<path fill="#FFFFFF" d="M103.988,70.875v0.714h0.29c0.176,0,0.305-0.029,0.385-0.084c0.084-0.057,0.125-0.146,0.125-0.264
		c0-0.123-0.045-0.217-0.133-0.275c-0.088-0.061-0.224-0.09-0.406-0.09H103.988z M103.389,70.498h0.966
		c0.35,0,0.611,0.059,0.785,0.177c0.175,0.119,0.264,0.295,0.264,0.531c0,0.163-0.048,0.299-0.144,0.419
		c-0.096,0.114-0.229,0.194-0.394,0.236l0.549,1.094h-0.664l-0.473-1.005h-0.29v1.005h-0.6V70.498z M104.312,69.917
		c-0.253,0-0.488,0.045-0.703,0.132c-0.216,0.087-0.411,0.219-0.586,0.394c-0.178,0.179-0.316,0.384-0.415,0.613
		c-0.099,0.229-0.147,0.466-0.147,0.711c0,0.247,0.049,0.481,0.142,0.703c0.09,0.223,0.22,0.421,0.391,0.59
		c0.179,0.178,0.382,0.316,0.606,0.415c0.226,0.098,0.462,0.146,0.705,0.146c0.239,0,0.473-0.047,0.694-0.14
		c0.227-0.093,0.432-0.229,0.619-0.403c0.172-0.167,0.303-0.363,0.398-0.582c0.096-0.223,0.146-0.453,0.146-0.692
		c0-0.265-0.046-0.509-0.133-0.73c-0.089-0.222-0.22-0.421-0.396-0.6c-0.178-0.185-0.377-0.324-0.604-0.415
		C104.808,69.965,104.567,69.917,104.312,69.917 M104.304,69.554c0.305,0,0.594,0.056,0.865,0.169
		c0.274,0.114,0.516,0.28,0.729,0.496c0.201,0.205,0.354,0.443,0.464,0.71s0.164,0.548,0.164,0.843c0,0.301-0.057,0.59-0.167,0.857
		c-0.114,0.273-0.275,0.509-0.486,0.712c-0.211,0.208-0.454,0.368-0.726,0.479c-0.272,0.112-0.555,0.169-0.844,0.169
		c-0.297,0-0.579-0.06-0.85-0.176c-0.273-0.115-0.515-0.283-0.725-0.496c-0.205-0.208-0.362-0.447-0.472-0.711
		c-0.107-0.266-0.162-0.544-0.162-0.834c0-0.202,0.029-0.4,0.083-0.591c0.056-0.191,0.134-0.378,0.241-0.561
		c0.199-0.337,0.464-0.603,0.791-0.788C103.541,69.645,103.904,69.554,104.304,69.554"/>
	<path fill="#FFFFFF" d="M133.339,83.173c-4.751-0.678-8.068-5.042-7.4-9.731c0.32-2.254,1.503-4.251,3.336-5.624
		c1.86-1.401,4.163-1.988,6.484-1.658c4.342,0.618,7.488,4.319,7.488,8.53c0,0.397-0.029,0.798-0.084,1.199
		c-0.321,2.254-1.506,4.25-3.336,5.625C137.964,82.913,135.661,83.5,133.339,83.173 M127.645,65.652
		c-2.409,1.808-3.967,4.438-4.392,7.406c-0.872,6.17,3.478,11.911,9.706,12.797c3.036,0.432,6.052-0.34,8.496-2.173
		c2.409-1.806,3.966-4.44,4.392-7.409c0.878-6.17-3.478-11.911-9.705-12.798C133.103,63.045,130.089,63.817,127.645,65.652"/>
	<path fill="#FFFFFF" d="M134.525,65.598c-3.428,0-5.95,2.309-5.95,5.474c0,3.863,3.322,5.381,5.974,6.82v-3.413
		c-1.721-1.025-3.14-2.093-3.14-3.732c0-1.125,1.092-2.545,3.457-2.545c2.088,0,4.049,1.038,5.605,2.929v-3.669
		C138.7,66.19,136.83,65.598,134.525,65.598 M140.497,78.489c0,3.165-2.524,5.472-5.948,5.472c-2.306,0-4.175-0.591-5.949-1.861
		v-3.67c1.556,1.895,3.517,2.93,5.605,2.93c2.367,0,3.458-1.421,3.458-2.544c0-1.632-1.403-2.696-3.114-3.722v-3.412
		C137.194,73.119,140.497,74.637,140.497,78.489"/>
	<path fill="#FFFFFF" d="M143.851,57.467l-4.743,0.014h-20.324h-1.285v0.001h-0.048H3.394H2.108l0.001,1.285l0.019,31.795v1.287
		h1.285H117.45h0.048l0,0h1.285h31.438h1.285v-1.287V65.261C151.498,61.03,148.055,57.472,143.851,57.467"/>
	<polygon fill="#231F20" points="117.45,58.767 3.395,58.767 3.412,90.562 117.45,90.562 	"/>
	<path fill="#231F20" d="M143.851,58.777l-4.743-0.011h-20.324v31.798h31.438V65.263C150.215,61.738,147.374,58.781,143.851,58.777"
		/>
	<path fill="#FFFFFF" d="M24.613,71.615h-6.567v2.151h6.252c0.958,0,1.616,0.161,1.974,0.482c0.354,0.324,0.53,0.95,0.53,1.879
		v1.377c0,0.928-0.176,1.556-0.53,1.879c-0.356,0.321-1.012,0.483-1.97,0.483h-6.177c-0.956,0-1.611-0.162-1.966-0.483
		c-0.357-0.324-0.535-0.951-0.535-1.879v-0.271l2.054-0.429v1.182h7.071v-2.284h-6.235c-0.958,0-1.609-0.165-1.958-0.485
		c-0.348-0.324-0.523-0.949-0.523-1.88v-1.104c0-0.929,0.176-1.555,0.523-1.878c0.349-0.321,1-0.485,1.958-0.485h5.675
		c0.918,0,1.559,0.154,1.927,0.466c0.367,0.311,0.552,0.884,0.552,1.725v0.211l-2.054,0.485V71.615z"/>
	<path fill="#FFFFFF" d="M31.045,69.871v8.116h6.623v-8.116h2.325v7.635c0,0.927-0.172,1.556-0.522,1.879
		c-0.348,0.321-0.999,0.482-1.957,0.482H31.2c-0.956,0-1.607-0.161-1.955-0.482c-0.351-0.324-0.524-0.952-0.524-1.879v-7.635H31.045
		z"/>
	<path fill="#FFFFFF" d="M49.332,71.575h-5.231v2.81h5.231c0.36,0,0.612-0.04,0.755-0.119c0.194-0.114,0.291-0.344,0.291-0.68v-1.21
		c0-0.338-0.097-0.566-0.291-0.683C49.944,71.616,49.692,71.575,49.332,71.575 M41.814,79.867v-9.996h8.563
		c1.497,0,2.245,0.646,2.245,1.938v2.344c0,1.29-0.748,1.936-2.245,1.936h-1.316l4.611,3.778h-3.332l-4.032-3.778h-2.208v3.778
		H41.814z"/>
	<polygon fill="#FFFFFF" points="54.641,79.867 54.641,69.872 64.867,69.872 64.867,71.575 56.962,71.575 56.962,73.806 
		61.575,73.806 61.575,75.508 56.962,75.508 56.962,77.987 64.964,77.987 64.964,79.867 	"/>
	<polygon fill="#FFFFFF" points="73.331,71.654 73.331,79.867 71.009,79.867 71.009,71.654 66.419,71.654 66.419,69.872 
		77.941,69.872 77.941,71.654 	"/>
	<polygon fill="#FFFFFF" points="79.048,79.867 79.048,69.872 89.274,69.872 89.274,71.575 81.372,71.575 81.372,73.806 
		85.981,73.806 85.981,75.508 81.372,75.508 81.372,77.987 89.371,77.987 89.371,79.867 	"/>
	<polygon fill="#FFFFFF" points="90.786,79.867 90.786,69.872 93.13,69.872 93.13,74.036 98.67,69.872 102.042,69.872 
		95.414,74.578 102.854,79.867 99.116,79.867 93.13,75.469 93.13,79.867 	"/>
	<path fill="#FFFFFF" d="M103.988,70.875v0.714h0.29c0.176,0,0.305-0.029,0.385-0.084c0.084-0.057,0.125-0.146,0.125-0.264
		c0-0.123-0.045-0.217-0.133-0.275c-0.088-0.061-0.224-0.09-0.406-0.09H103.988z M103.389,70.498h0.966
		c0.35,0,0.611,0.059,0.785,0.177c0.175,0.119,0.264,0.295,0.264,0.531c0,0.163-0.048,0.299-0.144,0.419
		c-0.096,0.114-0.229,0.194-0.394,0.236l0.549,1.094h-0.664l-0.473-1.005h-0.29v1.005h-0.6V70.498z M104.312,69.917
		c-0.253,0-0.488,0.045-0.703,0.132c-0.216,0.087-0.411,0.219-0.586,0.394c-0.178,0.179-0.316,0.384-0.415,0.613
		c-0.099,0.229-0.147,0.466-0.147,0.711c0,0.247,0.049,0.481,0.142,0.703c0.09,0.223,0.22,0.421,0.391,0.59
		c0.179,0.178,0.382,0.316,0.606,0.415c0.226,0.098,0.462,0.146,0.705,0.146c0.239,0,0.473-0.047,0.694-0.14
		c0.227-0.093,0.432-0.229,0.619-0.403c0.172-0.167,0.303-0.363,0.398-0.582c0.096-0.223,0.146-0.453,0.146-0.692
		c0-0.265-0.046-0.509-0.133-0.73c-0.089-0.222-0.22-0.421-0.396-0.6c-0.178-0.185-0.377-0.324-0.604-0.415
		C104.808,69.965,104.567,69.917,104.312,69.917 M104.304,69.554c0.305,0,0.594,0.056,0.865,0.169
		c0.274,0.114,0.516,0.28,0.729,0.496c0.201,0.205,0.354,0.443,0.464,0.71s0.164,0.548,0.164,0.843c0,0.301-0.057,0.59-0.167,0.857
		c-0.114,0.273-0.275,0.509-0.486,0.712c-0.211,0.208-0.454,0.368-0.726,0.479c-0.272,0.112-0.555,0.169-0.844,0.169
		c-0.297,0-0.579-0.06-0.85-0.176c-0.273-0.115-0.515-0.283-0.725-0.496c-0.205-0.208-0.362-0.447-0.472-0.711
		c-0.107-0.266-0.162-0.544-0.162-0.834c0-0.202,0.029-0.4,0.083-0.591c0.056-0.191,0.134-0.378,0.241-0.561
		c0.199-0.337,0.464-0.603,0.791-0.788C103.541,69.645,103.904,69.554,104.304,69.554"/>
	<path fill="#FFFFFF" d="M133.339,83.173c-4.751-0.678-8.068-5.042-7.4-9.731c0.32-2.254,1.503-4.251,3.336-5.624
		c1.86-1.401,4.163-1.988,6.484-1.658c4.342,0.618,7.488,4.319,7.488,8.53c0,0.397-0.029,0.798-0.084,1.199
		c-0.321,2.254-1.506,4.25-3.336,5.625C137.964,82.913,135.661,83.5,133.339,83.173 M127.645,65.652
		c-2.409,1.808-3.967,4.438-4.392,7.406c-0.872,6.17,3.478,11.911,9.706,12.797c3.036,0.432,6.052-0.34,8.496-2.173
		c2.409-1.806,3.966-4.44,4.392-7.409c0.878-6.17-3.478-11.911-9.705-12.798C133.103,63.045,130.089,63.817,127.645,65.652"/>
	<path fill="#FFFFFF" d="M134.525,65.598c-3.428,0-5.95,2.309-5.95,5.474c0,3.863,3.322,5.381,5.974,6.82v-3.413
		c-1.721-1.025-3.14-2.093-3.14-3.732c0-1.125,1.092-2.545,3.457-2.545c2.088,0,4.049,1.038,5.605,2.929v-3.669
		C138.7,66.19,136.83,65.598,134.525,65.598 M140.497,78.489c0,3.165-2.524,5.472-5.948,5.472c-2.306,0-4.175-0.591-5.949-1.861
		v-3.67c1.556,1.895,3.517,2.93,5.605,2.93c2.367,0,3.458-1.421,3.458-2.544c0-1.632-1.403-2.696-3.114-3.722v-3.412
		C137.194,73.119,140.497,74.637,140.497,78.489"/>
</g>
</svg>
