<?xml version="1.0" encoding="UTF-8" standalone="no"?>
<!-- Generator: Adobe Illustrator 16.0.0, SVG Export Plug-In . SVG Version: 6.00 Build 0)  -->
<!DOCTYPE svg  PUBLIC '-//W3C//DTD SVG 1.1//EN'  'http://www.w3.org/Graphics/SVG/1.1/DTD/svg11.dtd' [
	<!ENTITY st0 "fill:#231F20;">
	<!ENTITY st1 "fill:none;stroke:#231F20;">
	<!ENTITY st2 "fill:#A6A8AB;">
]>
<svg id="Layer_1" style="enable-background:new 0 0 168 168" xmlns="http://www.w3.org/2000/svg" xml:space="preserve" height="168px" viewBox="0 0 168 168" width="168px" version="1.1" y="0px" x="0px" xmlns:xlink="http://www.w3.org/1999/xlink">
	<path d="m0.4 85.6l5.8-0.5c0.4 2 1.1 3.4 2.1 4.3 1.1 0.9 2.5 1.4 4.4 1.4s3.4-0.4 4.4-1.2 1.5-1.8 1.5-2.9c0-0.7-0.2-1.3-0.6-1.8s-1.1-0.9-2.2-1.3c-0.7-0.3-2.3-0.7-4.8-1.3-3.2-0.8-5.5-1.8-6.8-2.9-1.8-1.7-2.7-3.7-2.7-6 0-1.5 0.4-3 1.3-4.3s2.1-2.3 3.7-3 3.6-1 5.9-1c3.7 0 6.5 0.8 8.4 2.5s2.9 3.9 3 6.6l-6 0.2c-0.3-1.5-0.8-2.6-1.7-3.3-0.8-0.7-2.1-1-3.8-1s-3.1 0.4-4.1 1.1c-0.6 0.5-1 1.1-1 1.8s0.3 1.3 0.9 1.8c0.8 0.7 2.6 1.3 5.5 2s5.1 1.4 6.5 2.2c1.4 0.7 2.5 1.8 3.3 3.1s1.2 2.9 1.2 4.8c0 1.7-0.5 3.3-1.4 4.8s-2.3 2.6-4 3.3-3.9 1.1-6.5 1.1c-3.8-0.2-6.7-1.1-8.7-2.9-2-1.7-3.2-4.3-3.6-7.6z" fill="#A6A8AB"/>
	<path d="m23.8 73.7h6l5.3 15.3 5-15.4h5.9l-7.6 20.8-1.4 3.9c-0.5 1.3-1 2.2-1.4 2.9-0.5 0.7-1 1.2-1.6 1.6s-1.3 0.7-2.2 1c-0.9 0.2-1.8 0.4-2.9 0.4s-2.2-0.1-3.2-0.4l-0.5-4.5c0.9 0.2 1.7 0.3 2.4 0.3 1.3 0 2.3-0.4 2.9-1.2s1.1-1.8 1.5-3l-8.2-21.7z" fill="#A6A8AB"/>
	<path d="m65.8 95.3h-5.7v-11c0-2.3-0.1-3.8-0.4-4.5s-0.6-1.2-1.2-1.6c-0.5-0.4-1.2-0.6-2-0.6-1 0-1.9 0.3-2.7 0.8s-1.3 1.3-1.6 2.1c-0.3 0.9-0.4 2.5-0.4 5v9.8h-5.7v-21.6h5.3v3.2c1.9-2.4 4.3-3.6 7.1-3.6 1.3 0 2.4 0.2 3.5 0.7 1 0.5 1.9 1 2.4 1.7s0.9 1.5 1.1 2.4 0.3 2.2 0.3 3.8v13.4z" fill="#A6A8AB"/>
	<path d="m65.9 84.3c0-1.9 0.5-3.7 1.4-5.5s2.3-3.1 4-4.1c1.7-0.9 3.6-1.4 5.8-1.4 3.3 0 6 1.1 8.1 3.2s3.1 4.8 3.1 8.1-1.1 6-3.2 8.1-4.8 3.2-8 3.2c-2 0-3.9-0.5-5.7-1.4s-3.2-2.2-4.1-4c-1-1.6-1.4-3.7-1.4-6.2zm5.8 0.3c0 2.2 0.5 3.8 1.5 4.9 1 1.2 2.3 1.7 3.8 1.7s2.8-0.6 3.8-1.7c1-1.1 1.5-2.8 1.5-5 0-2.1-0.5-3.8-1.5-4.9s-2.3-1.7-3.8-1.7-2.8 0.6-3.8 1.7c-1 1.2-1.5 2.8-1.5 5z" fill="#A6A8AB"/>
	<path d="m95.2 62.6v28c0 1.3 0.1 2.2 0.3 2.6s0.5 0.8 0.9 1 1.2 0.3 2.2 0.3v0.8h-10.3v-0.8c1 0 1.6-0.1 2-0.3 0.3-0.2 0.6-0.5 0.8-1s0.3-1.3 0.3-2.7v-19.1c0-2.4 0-3.9-0.2-4.4-0.1-0.5-0.3-0.9-0.5-1.1s-0.5-0.3-0.9-0.3-0.9 0.1-1.5 0.4l-0.3-0.9 6.2-2.6h1z" fill="#231F20"/>
	<path d="m108.9 73.6c3.2 0 5.8 1.2 7.7 3.6 1.6 2.1 2.5 4.4 2.5 7.1 0 1.9-0.4 3.8-1.4 5.7-0.9 1.9-2.2 3.4-3.8 4.4s-3.4 1.5-5.3 1.5c-3.2 0-5.7-1.3-7.6-3.8-1.6-2.1-2.4-4.5-2.4-7.2 0-1.9 0.5-3.8 1.4-5.8 1-1.9 2.2-3.3 3.8-4.3 1.7-0.7 3.3-1.2 5.1-1.2zm-0.7 1.5c-0.8 0-1.6 0.2-2.5 0.7-0.8 0.5-1.5 1.3-2 2.5s-0.8 2.8-0.8 4.7c0 3.1 0.6 5.7 1.8 7.9s2.8 3.3 4.8 3.3c1.5 0 2.7-0.6 3.7-1.8s1.5-3.3 1.5-6.3c0-3.7-0.8-6.7-2.4-8.8-1.1-1.4-2.5-2.2-4.1-2.2z" fill="#231F20"/>
	<path d="m123.7 87.6c-1.3-0.7-2.3-1.5-3-2.6s-1-2.4-1-3.7c0-2.1 0.8-3.9 2.3-5.4 1.6-1.5 3.6-2.3 6-2.3 2 0 3.7 0.5 5.2 1.5h4.5c0.7 0 1 0 1.2 0.1 0.1 0 0.2 0.1 0.2 0.2 0.1 0.1 0.1 0.4 0.1 0.7 0 0.4 0 0.7-0.1 0.8 0 0.1-0.1 0.1-0.2 0.2-0.1 0-0.5 0.1-1.2 0.1h-2.7c0.9 1.1 1.3 2.5 1.3 4.3 0 2-0.8 3.7-2.3 5-1.5 1.4-3.5 2.1-6 2.1-1 0-2.1-0.2-3.2-0.5-0.6 0.6-1.1 1.1-1.3 1.5-0.2 0.5-0.3 0.8-0.3 1.1s0.1 0.5 0.4 0.8c0.2 0.2 0.7 0.4 1.5 0.5 0.4 0.1 1.5 0.1 3.2 0.2 3.2 0.1 5.2 0.2 6.1 0.4 1.4 0.2 2.6 0.7 3.4 1.6s1.3 1.9 1.3 3.1c0 1.7-0.8 3.3-2.4 4.8-2.4 2.2-5.5 3.3-9.3 3.3-3 0-5.4-0.6-7.5-2-1.1-0.8-1.7-1.6-1.7-2.4 0-0.4 0.1-0.7 0.2-1.1 0.3-0.6 0.8-1.3 1.6-2.3 0.1-0.1 0.9-1 2.3-2.5-0.8-0.5-1.4-0.9-1.7-1.3s-0.5-0.8-0.5-1.3 0.2-1.2 0.6-1.9 1.4-1.7 3-3zm-0.2 7.7c-0.7 0.8-1.2 1.5-1.6 2.2-0.4 0.6-0.5 1.3-0.5 1.8 0 0.8 0.4 1.4 1.3 1.9 1.5 0.9 3.8 1.4 6.6 1.4s4.8-0.5 6.1-1.5 2-2 2-3.1c0-0.8-0.4-1.3-1.2-1.7-0.8-0.3-2.4-0.5-4.8-0.6-3.4 0.1-6.1-0.1-7.9-0.4zm4.2-20.5c-1.1 0-2.1 0.5-2.8 1.4-0.8 0.9-1.1 2.2-1.1 4.1 0 2.4 0.5 4.3 1.6 5.6 0.8 1 1.8 1.5 3 1.5s2.1-0.4 2.9-1.3c0.7-0.9 1.1-2.2 1.1-4.1 0-2.4-0.5-4.3-1.6-5.7-0.9-1-1.9-1.5-3.1-1.5z" fill="#231F20"/>
	<path d="m139.9 74.2h9.9v0.8h-0.5c-0.7 0-1.2 0.2-1.6 0.4-0.3 0.3-0.5 0.7-0.5 1.1 0 0.6 0.2 1.4 0.8 2.5l5.1 10.7 4.7-11.7c0.3-0.6 0.4-1.3 0.4-1.9 0-0.3-0.1-0.5-0.2-0.6-0.1-0.2-0.3-0.3-0.6-0.4s-0.7-0.2-1.4-0.2v-0.8h6.8v0.8c-0.6 0.1-1 0.2-1.3 0.4s-0.6 0.5-1 1c-0.1 0.2-0.4 0.8-0.8 1.8l-8.6 21c-0.8 2.1-1.9 3.6-3.3 4.6-1.3 1.1-2.7 1.6-3.9 1.6-0.9 0-1.7-0.2-2.2-0.8-0.6-0.5-0.9-1.1-0.9-1.8 0-0.6 0.2-1.1 0.6-1.5s1-0.6 1.8-0.6c0.5 0 1.2 0.2 2.1 0.5 0.6 0.2 1 0.3 1.2 0.3 0.5 0 1-0.2 1.5-0.7s1.1-1.4 1.6-2.7l1.5-3.7-7.6-15.9c-0.2-0.5-0.6-1.1-1.1-1.8-0.4-0.5-0.7-0.9-0.9-1.1-0.4-0.2-0.9-0.5-1.7-0.6v-0.7z" fill="#231F20"/>
	<path d="m162.9 72.8v-4.2h1.9c0.4 0 0.7 0 0.9 0.1s0.3 0.2 0.5 0.4c0.1 0.2 0.2 0.4 0.2 0.6 0 0.3-0.1 0.6-0.3 0.8s-0.5 0.3-0.9 0.4c0.2 0.1 0.3 0.1 0.3 0.2 0.2 0.1 0.3 0.3 0.5 0.5l0.7 1.2h-0.7l-0.6-0.9c-0.2-0.2-0.3-0.4-0.4-0.6l-0.3-0.3c-0.1 0-0.2-0.1-0.2-0.1h-0.3-0.6v1.9h-0.7zm0.6-2.3h1.2c0.3 0 0.5 0 0.6-0.1 0.1 0 0.3-0.1 0.3-0.2 0.1-0.1 0.1-0.3 0.1-0.4 0-0.2-0.1-0.4-0.2-0.5s-0.4-0.2-0.7-0.2h-1.3v1.4z" fill="#231F20"/>
	<path d="m167.6 70.5c0 1.7-1.4 3.1-3.1 3.1s-3.1-1.4-3.1-3.1 1.4-3.1 3.1-3.1c1.8 0.1 3.1 1.4 3.1 3.1z" stroke="#231F20" fill="none"/>
</svg>
