<?xml version="1.0" encoding="utf-8"?>
<!-- Generator: Adobe Illustrator 20.0.0, SVG Export Plug-In . SVG Version: 6.00 Build 0)  -->
<svg version="1.2" baseProfile="tiny" id="Слой_1"
	 xmlns="http://www.w3.org/2000/svg" xmlns:xlink="http://www.w3.org/1999/xlink" x="0px" y="0px" viewBox="0 0 888 888"
	 xml:space="preserve">
<g>
	<path fill="#00437E" d="M840.5,462.1L840.5,462.1c-7.4,0-13.3,5.9-13.3,13.3c0,7.5,5.9,13.4,13.2,13.4c7.4,0,13.2-5.9,13.2-13.4
		C853.6,468.1,847.8,462.1,840.5,462.1 M840.5,486.8L840.5,486.8c-5.9,0-10.8-5-10.8-11.3c0-6.2,4.8-11.3,10.7-11.3h0.1
		c5.9,0,10.7,5,10.7,11.3C851.1,481.8,846.4,486.9,840.5,486.8"/>
	<path fill="#00437E" d="M845.1,478.6c-0.3-2.2-1.2-3.4-2.5-3.6v-0.1c1.6-0.5,2.9-1.7,2.9-3.6c0-1.4-0.5-2.4-1.4-3.1
		c-0.9-0.6-2.4-1.1-4.6-1.1c-1.8,0-3,0.2-4.2,0.3v14.9h2.4v-6.4h1.7c1.9,0,2.9,0.7,3.2,2.6c0.3,1.9,0.6,3.3,1,3.8h2.5
		C845.8,481.8,845.4,480.9,845.1,478.6 M839.4,474L839.4,474h-1.7v-5c0.4-0.1,0.9-0.1,1.7-0.1c2.7,0,3.6,1.3,3.6,2.6
		C843,473.3,841.3,474,839.4,474"/>
	<path fill="#00437E" d="M557.2,383.9c-25.2,0-45.4,15.2-49.2,36.9c-3.5,20.3,11.3,36.4,33.7,36.4h37.1c14.2,0,21.5,5.9,19.8,15.9
		c-1.5,8.2-10.2,14.2-20.7,14.2h-77.3c2.7-4.6,4.7-9.6,5.6-15.1c4-22.5-9.4-36.9-34.2-36.9h-40.8c-9.1,0-15.8-6.8-14.4-14.7
		c0.8-4.7,6.7-14,17.7-14h56.2c19.4,0,22.6-22.8,22.6-22.8h-84.9c-25.2,0-45.4,15.2-49.2,36.9c-3.6,20.3,11.2,36.4,33.6,36.4H450
		c14.2,0,21.5,5.9,19.8,15.9c-1.5,8.2-10.2,14.2-20.7,14.2h-70.1l-26.2-103.4H322c0,0-11.4,19.2-18.4,30.5
		c-16.6,26.7,2.5,44.6,2.7,44.9l-28.4,0.1l-19.2,32.8l-16.9-32.9c20.3-4.2,34.7-18.2,38-36.9c3.7-21.2-9.5-38.5-29.6-38.5H55.7
		c-19.4,0-22.6,22.8-22.6,22.8h57.1L71.9,510c0,0,28.6,2.7,34.4-30.1c4.1-23.1,12.9-73.2,12.9-73.2H222c14.8,0,23,6.3,21.2,16.6
		c-1.7,10-13.5,18.1-26.6,18.1h-45.1c-20.9,0-26.9,21.1-26.9,21.1l-8.4,47.6h29.1l8.5-48.5h34.8l24,48.5h46.9l16.4-28.7h51.8
		l5.4,28.7h236.2c22.2,0,41.7-16.3,45.5-37.8c4-22.5-9.4-36.9-34.2-36.9h-40.7c-9.1,0-15.8-6.8-14.4-14.7c0.8-4.7,4.6-9.1,10.7-11.9
		c2.7-1.4,5.1-2.1,7-2.1h99.2L644.2,510c0,0,25.2,2.4,33-24.5c0.3-1.5,0.6-2.9,0.9-4.5l17.1-97.1H557.2z M306.5,459.4L306.5,459.4
		l26.2-44.1l9.3,44.1L306.5,459.4z"/>
	<path fill="#DE1318" d="M830.6,396.9H705.8l-1.6,9.3h124.8L830.6,396.9z M820.7,383.9L820.7,383.9H708.1l-1.7,9.3h112.7
		L820.7,383.9z M795.3,409.9L795.3,409.9l-1.6,9.3h45l1.6-9.3H795.3z M809.3,448.8L809.3,448.8H696.7l-1.7,9.3h112.7L809.3,448.8z
		 M791.4,432.2L791.4,432.2h45.1l1.7-9.3H793L791.4,432.2z M823.7,435.8L823.7,435.8H707.9l-1.6,9.3H822L823.7,435.8z M794.5,461.8
		L794.5,461.8h-33.2l-1.6,9.3h33.1L794.5,461.8z M692.7,471.1L692.7,471.1h28.6l1.7-9.3h-28.6L692.7,471.1z M804.4,474.7
		L804.4,474.7h-33.2l-1.6,9.4h33.2L804.4,474.7z M814.2,487.7L814.2,487.7H781l-1.6,9.3h33.2L814.2,487.7z M789.2,510L789.2,510
		h33.2l1.6-9.3h-33.1L789.2,510z M685.9,510L685.9,510h28.6l1.7-9.3h-28.6L685.9,510z M688.2,497.1L688.2,497.1h28.6l1.6-9.3h-28.6
		L688.2,497.1z M692,475L692,475l-1.6,9.1H719l1.6-9.4h-25.2L692,475z"/>
	<path fill="#00437E" d="M671.5,340.7l-5.4,30.7h28.1l0.3-1.6C700,338.1,671.5,340.7,671.5,340.7z"/>
</g>
</svg>
