<?xml version="1.0" encoding="utf-8"?>
<!-- Generator: Adobe Illustrator 16.0.0, SVG Export Plug-In . SVG Version: 6.00 Build 0)  -->
<!DOCTYPE svg PUBLIC "-//W3C//DTD SVG 1.1//EN" "http://www.w3.org/Graphics/SVG/1.1/DTD/svg11.dtd">
<svg version="1.1" id="Ebene_1" xmlns="http://www.w3.org/2000/svg" xmlns:xlink="http://www.w3.org/1999/xlink" x="0px" y="0px"
	 width="168px" height="168px" viewBox="0 0 168 168" enable-background="new 0 0 168 168" xml:space="preserve">
<g>
	<g>
		<polygon fill="#76A315" points="23.794,80.902 23.224,81.471 23.183,94.816 18.069,94.816 18.069,81.506 17.544,80.936 
			1.081,80.936 1.081,76.848 40.042,76.848 40.042,80.902 		"/>
		<g>
			<defs>
				<polygon id="SVGID_1_" points="77.898,94.816 41.685,94.816 41.685,90.663 63.451,90.663 63.712,89.66 27.508,66.956 
					36.139,66.956 74.527,90.58 74.792,90.663 75.011,90.663 75.581,90.138 75.581,76.881 80.658,76.881 80.658,91.976 				"/>
			</defs>
			<clipPath id="SVGID_2_">
				<use xlink:href="#SVGID_1_"  overflow="visible"/>
			</clipPath>
			
				<linearGradient id="SVGID_3_" gradientUnits="userSpaceOnUse" x1="-208.814" y1="496.9512" x2="-207.7427" y2="496.9512" gradientTransform="matrix(49.6133 0 0 -49.6133 10387.4434 24736.3379)">
				<stop  offset="0" style="stop-color:#267F9D"/>
				<stop  offset="0.3706" style="stop-color:#15637A"/>
				<stop  offset="0.7771" style="stop-color:#064959"/>
				<stop  offset="1" style="stop-color:#003F4C"/>
			</linearGradient>
			<rect x="27.508" y="66.956" clip-path="url(#SVGID_2_)" fill="url(#SVGID_3_)" width="53.149" height="27.86"/>
		</g>
		<path fill="#76A315" d="M83.365,76.88h32.149l2.802,2.84v12.255l-2.756,2.841H83.365V76.88z M113.239,81.56l-0.524-0.523H88.977
			L88.41,81.56v1.788l0.566,0.521h23.738l0.524-0.521V81.56z M88.41,90.138l0.566,0.525h23.738l0.524-0.525v-1.753l-0.524-0.525
			H88.977l-0.566,0.525V90.138z"/>
		<rect x="121.259" y="76.881" fill="#76A315" width="5.97" height="17.936"/>
		<polygon fill="#76A315" points="135.654,83.47 136.224,84.034 163.377,84.034 166.395,86.624 166.395,91.795 163.416,94.816 
			130.447,94.816 130.447,90.663 160.526,90.663 161.052,90.136 161.052,88.103 160.526,87.528 134.032,87.528 130.447,85.002 
			130.447,79.716 133.332,76.881 166.395,76.881 166.395,81.036 136.224,81.036 135.654,81.558 		"/>
		<polygon fill="#76A315" points="130.688,70.648 119.624,74.671 115.599,63.614 126.657,59.584 		"/>
	</g>
</g>
</svg>
