<?xml version="1.0" encoding="utf-8"?>
<!-- Generator: Adobe Illustrator 16.0.0, SVG Export Plug-In . SVG Version: 6.00 Build 0)  -->
<!DOCTYPE svg PUBLIC "-//W3C//DTD SVG 1.1//EN" "http://www.w3.org/Graphics/SVG/1.1/DTD/svg11.dtd" [
	<!ENTITY st0 "fill-rule:evenodd;clip-rule:evenodd;fill:#B0CF46;">
	<!ENTITY st1 "fill:#030303;">
]>
<svg version="1.1" id="Layer_1" xmlns="http://www.w3.org/2000/svg" xmlns:xlink="http://www.w3.org/1999/xlink" x="0px" y="0px"
	 width="168px" height="168px" viewBox="0 0 168 168" style="enable-background:new 0 0 168 168;" xml:space="preserve">
<g>
	<path style="&st1;" d="M164.5,79h-7.8v13.4h-4.1V79h-7.8v-4.1h19.8V79z M141.5,92.3h-4.1v-6.7h-13.3v6.7H120V74.9h4.1v6.7h13.3
		v-6.7h4.1V92.3z M116.3,92.3h-13.5c-1.6,0-2.9-0.5-4-1.6c-1.1-1-1.7-2.4-1.7-3.9v-6.4c0-1.6,0.6-2.9,1.7-3.9c1.1-1,2.4-1.6,4-1.6
		h9.3l4.1,4.1h-13.5c-1.1,0-1.6,0.5-1.6,1.5v6.4c0,1,0.5,1.5,1.6,1.5h9.4v-2.6h-5.5v-4.1h9.6V92.3z M93.4,92.3h-4.1V74.9h4.1V92.3z
		 M85.6,87c0,1.5-0.4,2.7-1.3,3.8c-0.9,1.1-2.1,1.6-3.6,1.6h-15v-4.1h15c0.6,0,0.8-0.4,0.8-1.3c0-0.9-0.3-1.3-0.8-1.3H69.8
		c-1.4,0-2.6-0.5-3.6-1.6c-0.9-1-1.4-2.3-1.4-3.7s0.5-2.7,1.4-3.8c0.9-1.1,2.1-1.6,3.6-1.6h11.1l3.9,4.1h-15c-0.6,0-0.8,0.4-0.8,1.3
		c0,0.9,0.3,1.3,0.8,1.3h10.9c1.4,0,2.6,0.5,3.6,1.6C85.2,84.2,85.6,85.5,85.6,87z M61.2,92.3h-4.1V74.9h4.1V92.3z M53.4,92.3h-4.1
		L38.9,80.6v11.7h-4.1V74.9h4.1l10.5,11.6V74.9h4.1V92.3z M30.1,91.8c0,1.8-0.6,3.4-1.7,4.7c-1.2,1.3-2.6,2-4.4,2H9.7
		c-1.8,0-3.3-0.7-4.4-2c-1.1-1.3-1.7-2.9-1.7-4.7V74.2h5.1v17.6c0,1.1,0.4,1.6,1.1,1.6H24c0.7,0,1.1-0.5,1.1-1.6V74.2h5.1V91.8z"/>
	<path style="&st0;" d="M10.1,70.7c28.7-16.2,64.8-9,76.8,2.3l8.7,0C84.6,55.7,40.2,50,10.1,70.7"/>
	<path style="&st0;" d="M76.3,97.3c28.7,16.2,64.8,9,76.8-2.3l8.7,0C150.9,112.3,106.4,118,76.3,97.3"/>
</g>
</svg>
