<?xml version="1.0" encoding="utf-8"?>
<!-- Generator: Adobe Illustrator 16.0.0, SVG Export Plug-In . SVG Version: 6.00 Build 0)  -->
<!DOCTYPE svg PUBLIC "-//W3C//DTD SVG 1.1//EN" "http://www.w3.org/Graphics/SVG/1.1/DTD/svg11.dtd">
<svg version="1.1" id="Layer_1" xmlns="http://www.w3.org/2000/svg" xmlns:xlink="http://www.w3.org/1999/xlink" x="0px" y="0px"
	 width="168px" height="168px" viewBox="0 0 168 168" enable-background="new 0 0 168 168" xml:space="preserve">
<g>
	<polygon fill="#00A3D6" points="7.7,103.1 2.2,77.7 11.6,77.7 13.8,90.2 37.9,64.9 42.4,64.9 16.1,103.1 	"/>
	<polygon fill="#00A3D6" points="26,103.1 31.9,77.7 58,77.7 56.7,83.3 39.6,83.3 38.6,87.5 55,87.5 53.7,93.2 37.3,93.2 36.3,97.4 
		54.7,97.4 53.4,103.1 	"/>
	<g>
		<path fill="#00A3D6" d="M61.9,77.7h16c2.9,0.1,9.6,0.4,9.6,7.3c0,1.1-0.3,2.4-1,3.7c-1.5,2.7-3.6,3.5-5.7,4.3l4.1,10h-9.1
			l-3.3-8.9H67l-2,8.9H56L61.9,77.7 M68.4,88.4c6,0.1,7.8,0.1,8.7-0.5c0.8-0.5,1.4-1.5,1.4-2.3c0-1.7-1.3-2.2-2.6-2.2h-6.3
			L68.4,88.4z"/>
		<polygon fill="#00A3D6" points="93.1,77.7 102.2,77.7 96.3,103.1 87.2,103.1 		"/>
		<polygon fill="#00A3D6" points="107,77.7 115.2,77.7 123.8,93.8 127.5,77.7 135.7,77.7 129.8,103.1 121.6,103.1 113.1,87.2 
			109.6,103.1 101.1,103.1 		"/>
		<polygon fill="#00A3D6" points="138.1,77.7 165.8,77.7 164.5,83.5 155.3,83.5 150.7,103.1 141.7,103.1 146.3,83.5 136.8,83.5 		
			"/>
		<path fill="#00A3D6" d="M164.4,101c0,1.2-0.9,2.2-2.2,2.2c-1.2,0-2.2-1-2.2-2.2c0-1.2,0.9-2.2,2.2-2.2
			C163.4,98.8,164.4,99.7,164.4,101 M160.4,101c0,1,0.8,1.9,1.8,1.9c1.1,0,1.8-0.8,1.8-1.9c0-1-0.8-1.9-1.8-1.9
			C161.1,99.1,160.4,99.9,160.4,101 M161.7,102.2h-0.3v-2.5h1c0.6,0,0.8,0.2,0.8,0.7c0,0.4-0.3,0.6-0.6,0.7l0.7,1.1h-0.4l-0.7-1.1
			h-0.5V102.2z M162.1,100.8c0.4,0,0.8,0,0.8-0.4c0-0.4-0.3-0.4-0.6-0.4h-0.6v0.9H162.1z"/>
	</g>
</g>
</svg>
