<?xml version="1.0" encoding="utf-8"?>
<!-- Generator: Adobe Illustrator 19.2.1, SVG Export Plug-In . SVG Version: 6.00 Build 0)  -->
<svg version="1.1" id="Layer_1" xmlns="http://www.w3.org/2000/svg" xmlns:xlink="http://www.w3.org/1999/xlink" x="0px" y="0px"
	 viewBox="0 0 550 550" style="enable-background:new 0 0 550 550;" xml:space="preserve">
<style type="text/css">
	.st0{fill:#630549;}
	.st1{fill:url(#SVGID_1_);}
	.st2{fill:#FFFFFF;}
</style>
<g id="PathID_1" transform="matrix(1.40625, 0, 0, 1.40625, 234, 129.65)">
	<path class="st0" d="M4,122.3V85.7h13.8c2.4,0,4.3,0.1,5.5,0.3c1.8,0.3,3.3,0.9,4.5,1.8c1.2,0.8,2.2,2,3,3.6
		c0.8,1.5,1.1,3.2,1.1,4.9c0,3.1-1,5.8-3,8c-2,2.1-5.5,3.2-10.8,3.2H8.8v14.9H4 M8.8,103.1h9.4c3.1,0,5.4-0.6,6.6-1.7
		c1.3-1.2,2-2.8,2-4.9c0-1.5-0.4-2.8-1.2-4c-0.8-1.1-1.8-1.8-3.1-2.2c-0.8-0.2-2.3-0.3-4.5-0.3H8.8V103.1"/>
</g>
<g id="PathID_2" transform="matrix(1.40625, 0, 0, 1.40625, 234, 129.65)">
</g>
<g id="PathID_3" transform="matrix(1.40625, 0, 0, 1.40625, 282, 129.65)">
	<path class="st0" d="M3.3,122.3V95.8h4.1v4.1c1-1.9,1.9-3.2,2.8-3.8c0.9-0.6,1.9-0.9,2.9-0.9c1.5,0,3.1,0.5,4.6,1.4l-1.6,4.2
		c-1.1-0.7-2.1-1-3.3-1c-1,0-1.9,0.3-2.7,0.9c-0.8,0.6-1.3,1.4-1.6,2.4c-0.5,1.6-0.7,3.3-0.7,5.3v13.9H3.3"/>
</g>
<g id="PathID_4" transform="matrix(1.40625, 0, 0, 1.40625, 282, 129.65)">
</g>
<g id="PathID_5" transform="matrix(1.40625, 0, 0, 1.40625, 305.95, 129.65)">
	<path class="st0" d="M1.7,109.1c0-4.9,1.4-8.6,4.1-11c2.3-2,5-2.9,8.3-2.9c3.6,0,6.6,1.2,9,3.6c2.3,2.4,3.5,5.7,3.5,9.9
		c0,3.4-0.5,6.1-1.6,8.1c-1,1.9-2.5,3.5-4.5,4.6c-2,1.1-4.1,1.6-6.4,1.6c-3.7,0-6.7-1.2-9-3.5C2.8,117,1.7,113.5,1.7,109.1
		 M6.3,109.1c0,3.4,0.7,5.9,2.2,7.7c1.5,1.7,3.3,2.5,5.6,2.5c2.2,0,4.1-0.8,5.6-2.5c1.5-1.7,2.3-4.3,2.3-7.8c0-3.3-0.8-5.8-2.3-7.4
		c-1.5-1.7-3.4-2.6-5.6-2.6c-2.3,0-4.1,0.8-5.6,2.6C7.1,103.1,6.3,105.7,6.3,109.1"/>
</g>
<g id="PathID_6" transform="matrix(1.40625, 0, 0, 1.40625, 305.95, 129.65)">
</g>
<g id="PathID_7" transform="matrix(1.40625, 0, 0, 1.40625, 346, 129.65)">
	<path class="st0" d="M3.3,90.9v-5.3h4.5v5.3H3.3 M-2.3,132.7l0.8-3.9c0.9,0.2,1.6,0.4,2.2,0.4c0.9,0,1.6-0.3,2.1-0.9
		c0.5-0.6,0.7-2.1,0.7-4.5v-28h4.5v28.1c0,3.3-0.4,5.5-1.3,6.8c-1.1,1.7-2.9,2.5-5.4,2.5C0,133.1-1.2,133-2.3,132.7"/>
</g>
<g id="PathID_8" transform="matrix(1.40625, 0, 0, 1.40625, 346, 129.65)">
</g>
<g id="PathID_9" transform="matrix(1.40625, 0, 0, 1.40625, 362, 129.65)">
	<path class="st0" d="M21.5,113.7l4.7,0.6c-0.7,2.7-2.1,4.8-4.1,6.3c-2,1.5-4.5,2.3-7.6,2.3c-3.9,0-6.9-1.2-9.2-3.5
		c-2.3-2.4-3.4-5.8-3.4-10.1c0-4.5,1.1-7.9,3.4-10.4c2.3-2.5,5.3-3.7,8.9-3.7c3.6,0,6.5,1.2,8.7,3.7c2.3,2.4,3.4,5.8,3.4,10.2
		l-0.1,1.2H6.6c0.1,2.9,0.9,5.2,2.4,6.8c1.5,1.5,3.4,2.3,5.6,2.3c1.6,0,3-0.4,4.2-1.3S20.9,115.6,21.5,113.7 M6.8,106.5h14.8
		c-0.2-2.2-0.8-3.9-1.7-5c-1.4-1.7-3.3-2.6-5.6-2.6c-2.1,0-3.8,0.7-5.2,2.1C7.7,102.3,6.9,104.2,6.8,106.5"/>
</g>
<g id="PathID_10" transform="matrix(1.40625, 0, 0, 1.40625, 362, 129.65)">
</g>
<g id="PathID_11" transform="matrix(1.40625, 0, 0, 1.40625, 402.05, 129.65)">
	<path class="st0" d="M3.4,122.3V85.7h4.5v20.9l10.6-10.8h5.9l-10.2,9.9l11.2,16.7h-5.5l-8.8-13.6l-3.2,3.1v10.5H3.4"/>
</g>
<g id="PathID_12" transform="matrix(1.40625, 0, 0, 1.40625, 402.05, 129.65)">
</g>
<g id="PathID_13" transform="matrix(1.40625, 0, 0, 1.40625, 438.05, 129.65)">
	<path class="st0" d="M13.2,118.3l0.6,3.9c-1.3,0.3-2.4,0.4-3.4,0.4c-1.6,0-2.9-0.3-3.8-0.8c-0.9-0.5-1.5-1.2-1.9-2
		c-0.4-0.8-0.5-2.6-0.5-5.3V99.3H0.8v-3.5h3.4v-6.5l4.5-2.7v9.3h4.6v3.5H8.6v15.6c0,1.3,0.1,2.1,0.2,2.4c0.2,0.4,0.4,0.7,0.8,0.9
		c0.4,0.2,0.9,0.3,1.6,0.3C11.7,118.5,12.4,118.4,13.2,118.3"/>
</g>
<g id="PathID_14" transform="matrix(1.40625, 0, 0, 1.40625, 438.05, 129.65)">
</g>
<g id="PathID_15" transform="matrix(1.40625, 0, 0, 1.40625, 458.05, 129.65)">
	<path class="st0" d="M20.7,119c-1.7,1.5-3.3,2.5-4.9,3.1c-1.5,0.6-3.2,0.8-5,0.8c-2.9,0-5.1-0.7-6.7-2.1c-1.6-1.4-2.3-3.3-2.3-5.5
		c0-1.3,0.3-2.5,0.8-3.6c0.6-1.1,1.4-1.9,2.4-2.5c1-0.7,2-1.2,3.3-1.5c0.9-0.2,2.2-0.5,4-0.7c3.6-0.4,6.3-0.9,8-1.5l0.1-1.2
		c0-1.8-0.4-3.1-1.3-3.8c-1.1-1-2.8-1.6-5.1-1.6c-2.1,0-3.7,0.4-4.7,1.2c-1,0.7-1.7,2-2.2,3.9l-4.4-0.6c0.4-1.9,1-3.4,2-4.5
		c0.9-1.2,2.3-2.1,4-2.7c1.7-0.6,3.7-0.9,6-0.9s4.1,0.3,5.5,0.8c1.4,0.5,2.5,1.2,3.1,2c0.7,0.8,1.1,1.8,1.4,3.1
		c0.2,0.8,0.3,2.2,0.3,4.2v6c0,4.2,0.1,6.8,0.3,7.9c0.2,1.1,0.6,2.2,1.1,3.2h-4.7C21.1,121.4,20.8,120.3,20.7,119 M20.3,109
		c-1.6,0.7-4.1,1.2-7.3,1.7c-1.9,0.3-3.2,0.6-3.9,0.9c-0.8,0.3-1.3,0.8-1.8,1.5c-0.4,0.6-0.6,1.3-0.6,2.1c0,1.2,0.4,2.2,1.3,3
		c0.9,0.8,2.2,1.2,4,1.2c1.7,0,3.3-0.4,4.6-1.1c1.4-0.8,2.4-1.8,3-3.1c0.5-1,0.7-2.5,0.7-4.5V109"/>
</g>
<g id="PathID_16" transform="matrix(1.40625, 0, 0, 1.40625, 458.05, 129.65)">
</g>
<g id="PathID_17" transform="matrix(1.40625, 0, 0, 1.40625, 498.1, 129.65)">
	<path class="st0" d="M3.4,90.8v-5.2h4.5v5.2H3.4 M3.4,122.3V95.8h4.5v26.6H3.4"/>
</g>
<g id="PathID_18" transform="matrix(1.40625, 0, 0, 1.40625, 498.1, 129.65)">
</g>
<g id="PathID_19" transform="matrix(2.15872, 0, 0, 2.09931, 129.3, 104.85)">
	
		<radialGradient id="SVGID_1_" cx="-286.3385" cy="-309.1748" r="819.2" fx="-184.3385" fy="-309.1748" gradientTransform="matrix(6.350717e-002 -0.1097 -0.1449 -8.392622e-002 -17.98 24.8664)" gradientUnits="userSpaceOnUse">
		<stop  offset="0" style="stop-color:#690352"/>
		<stop  offset="1" style="stop-color:#2D0022"/>
	</radialGradient>
	<path class="st1" d="M48,43.9v76c0,2-1,3-3,3h-90c-2,0-3-1-3-3v-76c0-2,1-3,3-3h90C47,40.9,48,41.9,48,43.9"/>
</g>
<g id="PathID_20" transform="matrix(2.15872, 0, 0, 2.09931, 129.3, 104.85)">
</g>
<g id="PathID_21" transform="matrix(0.48061, 0, 0, 0.48061, 39.6, 169.35)">
	<path class="st2" d="M36.4,324v1c-1.2,0.2-2.1,0.6-2.8,1.1c-0.9,0.8-1.6,2.1-2.3,3.8l-11.8,28.8h-1L5.8,329.4
		c-0.6-1.5-1.1-2.4-1.4-2.7c-0.4-0.5-0.9-0.9-1.5-1.2c-0.6-0.3-1.4-0.5-2.5-0.6v-1h13.9v1c-1.6,0.2-2.6,0.5-3.1,0.9
		c-0.5,0.4-0.7,0.9-0.7,1.4c0,0.8,0.4,2.1,1.1,3.9l8.6,19.8l8.1-19.6c0.8-1.9,1.1-3.3,1.1-4.1c0-0.5-0.3-0.9-0.8-1.4
		c-0.5-0.5-1.3-0.8-2.4-0.9l-0.5-0.1v-1H36.4"/>
</g>
<g id="PathID_22" transform="matrix(0.48061, 0, 0, 0.48061, 39.6, 169.35)">
</g>
<g id="PathID_23" transform="matrix(0.48061, 0, 0, 0.48061, 57.9, 169.35)">
	<path class="st2" d="M7.4,322.3c0.7,0,1.3,0.3,1.8,0.8s0.8,1.1,0.8,1.8c0,0.7-0.3,1.3-0.8,1.8s-1.1,0.8-1.8,0.8s-1.3-0.3-1.8-0.8
		s-0.8-1.1-0.8-1.8c0-0.7,0.2-1.3,0.7-1.8C6,322.6,6.7,322.3,7.4,322.3 M9.5,334.3v18.4c0,1.5,0.1,2.4,0.3,2.9
		c0.2,0.5,0.5,0.8,0.9,1.1c0.4,0.2,1.2,0.3,2.3,0.3v0.9H1.8V357c1.1,0,1.8-0.1,2.2-0.3c0.4-0.2,0.7-0.6,0.9-1.1s0.3-1.5,0.3-2.9
		v-8.8c0-2.5-0.1-4.1-0.3-4.8c-0.1-0.5-0.3-0.9-0.5-1.1c-0.2-0.2-0.6-0.4-1-0.4c-0.5,0-1,0.1-1.7,0.4l-0.4-0.9l6.9-2.8H9.5"/>
</g>
<g id="PathID_24" transform="matrix(0.48061, 0, 0, 0.48061, 57.9, 169.35)">
</g>
<g id="PathID_25" transform="matrix(0.48061, 0, 0, 0.48061, 66.75, 169.35)">
	<path class="st2" d="M17.8,355.3c-1.1,1.2-2.2,2-3.3,2.5s-2.2,0.8-3.4,0.8c-2.5,0-4.7-1-6.6-3.1c-1.8-2.1-2.7-4.8-2.7-8
		c0-3.3,1-6.3,3-9c2.1-2.7,4.7-4.1,8-4.1c2,0,3.7,0.6,5,2V332c0-2.6-0.1-4.2-0.2-4.8s-0.3-1-0.6-1.2c-0.3-0.2-0.6-0.3-1-0.3
		c-0.4,0-1,0.1-1.8,0.4l-0.3-0.9l6.9-2.8h1.1v26.5c0,2.7,0,4.4,0.1,5c0.1,0.6,0.3,1,0.6,1.2c0.3,0.2,0.6,0.4,1,0.4
		c0.4,0,1-0.1,1.8-0.4l0.3,0.9l-6.9,2.8h-1.1V355.3 M17.8,353.6v-11.8c-0.1-1.1-0.4-2.2-0.9-3.1c-0.5-0.9-1.2-1.6-2-2.1
		c-0.8-0.5-1.6-0.8-2.4-0.8c-1.5,0-2.8,0.7-3.9,2c-1.5,1.7-2.2,4.3-2.3,7.6c0,3.3,0.7,5.9,2.1,7.7c1.5,1.8,3.1,2.6,4.9,2.6
		C14.9,355.8,16.3,355.1,17.8,353.6"/>
</g>
<g id="PathID_26" transform="matrix(0.48061, 0, 0, 0.48061, 66.75, 169.35)">
</g>
<g id="PathID_27" transform="matrix(0.48061, 0, 0, 0.48061, 81.1, 169.35)">
	<path class="st2" d="M5.5,343.6c0,3.4,0.8,6.1,2.5,8c1.7,1.9,3.6,2.8,5.9,2.8c1.5,0,2.8-0.4,3.9-1.2c1.1-0.8,2-2.3,2.8-4.3l0.8,0.6
		c-0.4,2.3-1.4,4.4-3.1,6.3c-1.7,1.9-3.8,2.8-6.3,2.8c-2.8,0-5.1-1.1-7.1-3.2c-1.9-2.1-2.9-5-2.9-8.6c0-3.9,1-7,3-9.1
		c2-2.2,4.5-3.3,7.5-3.3c2.6,0,4.7,0.9,6.4,2.6c1.7,1.7,2.5,3.9,2.5,6.8H5.5 M5.5,342.2h10.7c-0.1-1.4-0.3-2.5-0.6-3
		c-0.4-0.9-1.1-1.7-1.9-2.2c-0.8-0.5-1.6-0.8-2.5-0.8c-1.4,0-2.7,0.5-3.8,1.6C6.3,338.8,5.6,340.3,5.5,342.2"/>
</g>
<g id="PathID_28" transform="matrix(0.48061, 0, 0, 0.48061, 81.1, 169.35)">
</g>
<g id="PathID_29" transform="matrix(0.48061, 0, 0, 0.48061, 94.1, 169.35)">
	<path class="st2" d="M12.8,334.3c3.5,0,6.3,1.3,8.4,4c1.8,2.3,2.7,4.9,2.7,7.8c0,2.1-0.5,4.1-1.5,6.3c-1,2.1-2.3,3.7-4.1,4.8
		c-1.7,1-3.6,1.5-5.8,1.5c-3.5,0-6.2-1.4-8.3-4.1c-1.7-2.3-2.6-4.9-2.6-7.8c0-2.1,0.5-4.2,1.6-6.3c1-2.1,2.4-3.6,4.1-4.6
		S10.9,334.3,12.8,334.3 M12.1,336c-0.9,0-1.8,0.3-2.7,0.8c-0.9,0.5-1.6,1.5-2.2,2.8c-0.5,1.3-0.8,3-0.8,5c0,3.3,0.7,6.2,2,8.6
		c1.3,2.4,3.1,3.6,5.3,3.6c1.6,0,3-0.6,4-2c1.1-1.3,1.6-3.6,1.6-6.9c0-4.1-0.9-7.3-2.7-9.6C15.4,336.8,13.9,336,12.1,336"/>
</g>
<g id="PathID_30" transform="matrix(0.48061, 0, 0, 0.48061, 94.1, 169.35)">
</g>
<g id="PathID_31" transform="matrix(0.48061, 0, 0, 0.48061, 116.65, 169.35)">
	<path class="st2" d="M14.5,354.6c-2.4,1.8-3.9,2.9-4.4,3.1c-0.9,0.4-1.9,0.6-2.9,0.6c-1.6,0-2.9-0.5-4-1.6c-1-1.1-1.5-2.5-1.5-4.3
		c0-1.1,0.3-2.1,0.8-2.9c0.7-1.1,1.9-2.2,3.5-3.2s4.5-2.2,8.5-3.7v-0.8c0-2.3-0.4-3.9-1.1-4.7c-0.7-0.9-1.8-1.3-3.1-1.3
		c-1,0-1.9,0.3-2.5,0.8c-0.6,0.6-0.9,1.2-0.9,2l0,1.5c0,0.8-0.2,1.4-0.6,1.8c-0.4,0.4-0.9,0.6-1.5,0.6c-0.6,0-1.2-0.2-1.6-0.6
		c-0.4-0.4-0.5-1-0.5-1.8c0-1.4,0.7-2.8,2.2-4c1.5-1.2,3.5-1.9,6.2-1.9c2,0,3.7,0.4,5,1.1c1,0.5,1.7,1.3,2.2,2.4
		c0.3,0.7,0.5,2.2,0.5,4.4v7.8c0,2.2,0,3.5,0.1,4c0.1,0.5,0.2,0.8,0.4,1c0.2,0.1,0.4,0.2,0.7,0.2s0.5,0,0.7-0.1c0.3-0.2,1-0.9,2-1.9
		v1.4c-1.9,2.5-3.7,3.8-5.4,3.8c-0.8,0-1.5-0.3-2-0.8C14.8,357,14.5,356,14.5,354.6 M14.5,353v-8.8c-2.5,1-4.2,1.7-4.9,2.1
		c-1.3,0.7-2.2,1.5-2.8,2.3c-0.6,0.8-0.9,1.7-0.9,2.6c0,1.2,0.3,2.2,1.1,3c0.7,0.8,1.6,1.1,2.5,1.1C10.8,355.5,12.4,354.7,14.5,353"
		/>
</g>
<g id="PathID_32" transform="matrix(0.48061, 0, 0, 0.48061, 116.65, 169.35)">
</g>
<g id="PathID_33" transform="matrix(0.48061, 0, 0, 0.48061, 129.6, 169.35)">
	<path class="st2" d="M8.3,339.2c2.7-3.2,5.2-4.9,7.7-4.9c1.3,0,2.4,0.3,3.3,1s1.6,1.7,2.1,3.1c0.4,1,0.5,2.5,0.5,4.6v9.7
		c0,1.5,0.1,2.5,0.4,3c0.2,0.4,0.4,0.7,0.9,1c0.4,0.2,1.2,0.3,2.3,0.3v0.9H14.1V357h0.4c1.1,0,1.8-0.1,2.2-0.4
		c0.4-0.3,0.7-0.8,0.9-1.5c0.1-0.3,0.1-1.1,0.1-2.4v-9.4c0-2.1-0.3-3.6-0.9-4.5c-0.5-1-1.4-1.4-2.7-1.4c-2,0-4,1.1-5.9,3.3v12
		c0,1.6,0.1,2.5,0.3,2.9c0.2,0.5,0.5,0.9,0.9,1.1c0.4,0.2,1.3,0.3,2.6,0.3v0.9H0.7V357h0.5c1.2,0,2-0.3,2.3-0.8
		c0.4-0.6,0.7-1.8,0.7-3.5v-8.5c0-2.7-0.1-4.4-0.2-5c-0.1-0.6-0.3-1-0.6-1.2c-0.2-0.2-0.6-0.4-1-0.4c-0.5,0-1,0.1-1.7,0.4l-0.3-0.9
		l6.9-2.8h1.1V339.2"/>
</g>
<g id="PathID_34" transform="matrix(0.48061, 0, 0, 0.48061, 129.6, 169.35)">
</g>
<g id="PathID_35" transform="matrix(0.48061, 0, 0, 0.48061, 143.95, 169.35)">
	<path class="st2" d="M14.6,354.6c-2.4,1.8-3.9,2.9-4.4,3.1c-0.9,0.4-1.9,0.6-2.9,0.6c-1.6,0-2.9-0.5-4-1.6c-1-1.1-1.5-2.5-1.5-4.3
		c0-1.1,0.3-2.1,0.8-2.9c0.7-1.1,1.9-2.2,3.5-3.2s4.5-2.2,8.5-3.7v-0.8c0-2.3-0.4-3.9-1.1-4.7c-0.7-0.9-1.8-1.3-3.1-1.3
		c-1,0-1.9,0.3-2.5,0.8c-0.6,0.6-0.9,1.2-0.9,2l0,1.5c0,0.8-0.2,1.4-0.6,1.8c-0.4,0.4-0.9,0.6-1.5,0.6c-0.6,0-1.2-0.2-1.6-0.6
		c-0.4-0.4-0.5-1-0.5-1.8c0-1.4,0.7-2.8,2.2-4c1.5-1.2,3.5-1.9,6.2-1.9c2,0,3.7,0.4,5,1.1c1,0.5,1.7,1.3,2.2,2.4
		c0.3,0.7,0.5,2.2,0.5,4.4v7.8c0,2.2,0,3.5,0.1,4c0.1,0.5,0.2,0.8,0.4,1c0.2,0.1,0.4,0.2,0.7,0.2s0.5,0,0.7-0.1c0.3-0.2,1-0.9,2-1.9
		v1.4c-1.9,2.5-3.7,3.8-5.4,3.8c-0.8,0-1.5-0.3-2-0.8C14.8,357,14.6,356,14.6,354.6 M14.6,353v-8.8c-2.5,1-4.2,1.7-4.9,2.1
		c-1.3,0.7-2.2,1.5-2.8,2.3c-0.6,0.8-0.9,1.7-0.9,2.6c0,1.2,0.3,2.2,1.1,3c0.7,0.8,1.6,1.1,2.5,1.1C10.8,355.5,12.4,354.7,14.6,353"
		/>
</g>
<g id="PathID_36" transform="matrix(0.48061, 0, 0, 0.48061, 143.95, 169.35)">
</g>
<g id="PathID_37" transform="matrix(0.48061, 0, 0, 0.48061, 156.95, 169.35)">
	<path class="st2" d="M9.5,322.3v30.4c0,1.5,0.1,2.4,0.3,2.9c0.2,0.5,0.5,0.8,0.9,1.1s1.3,0.3,2.4,0.3v0.9H2V357
		c1,0,1.7-0.1,2.1-0.3c0.4-0.2,0.7-0.6,0.9-1.1s0.3-1.5,0.3-2.9v-20.8c0-2.6-0.1-4.1-0.2-4.8c-0.1-0.6-0.3-1-0.6-1.2
		c-0.3-0.2-0.6-0.3-1-0.3c-0.4,0-1,0.1-1.6,0.4l-0.4-0.9l6.8-2.8H9.5"/>
</g>
<g id="PathID_38" transform="matrix(0.48061, 0, 0, 0.48061, 156.95, 169.35)">
</g>
<g id="PathID_39" transform="matrix(0.48061, 0, 0, 0.48061, 165.8, 169.35)">
	<path class="st2" d="M7.4,322.3c0.7,0,1.3,0.3,1.8,0.8s0.8,1.1,0.8,1.8c0,0.7-0.3,1.3-0.8,1.8s-1.1,0.8-1.8,0.8
		c-0.7,0-1.3-0.3-1.8-0.8s-0.8-1.1-0.8-1.8c0-0.7,0.2-1.3,0.7-1.8C6.1,322.6,6.7,322.3,7.4,322.3 M9.5,334.3v18.4
		c0,1.5,0.1,2.4,0.3,2.9c0.2,0.5,0.5,0.8,0.9,1.1c0.4,0.2,1.2,0.3,2.3,0.3v0.9H1.9V357c1.1,0,1.8-0.1,2.2-0.3c0.4-0.2,0.7-0.6,1-1.1
		c0.2-0.5,0.3-1.5,0.3-2.9v-8.8c0-2.5-0.1-4.1-0.3-4.8c-0.1-0.5-0.3-0.9-0.6-1.1c-0.2-0.2-0.6-0.4-1-0.4c-0.5,0-1,0.1-1.7,0.4
		l-0.4-0.9l6.9-2.8H9.5"/>
</g>
<g id="PathID_40" transform="matrix(0.48061, 0, 0, 0.48061, 165.8, 169.35)">
</g>
<g id="PathID_41" transform="matrix(0.48061, 0, 0, 0.48061, 174.7, 169.35)">
	<path class="st2" d="M8.3,327.4v7.5h5.3v1.7l-5.3,0v14.9c0,1.5,0.2,2.5,0.6,3c0.4,0.5,1,0.8,1.7,0.8c0.5,0,1.1-0.2,1.6-0.5
		c0.5-0.3,0.9-0.9,1.3-1.6h1c-0.6,1.7-1.4,2.9-2.5,3.8c-1.1,0.8-2.2,1.2-3.3,1.2c-0.8,0-1.5-0.2-2.3-0.6c-0.7-0.4-1.3-1-1.7-1.9
		c-0.3-0.8-0.5-2-0.5-3.6v-15.5H0.5v-0.8c0.9-0.3,1.8-0.9,2.8-1.8c1-0.9,1.8-1.9,2.6-3.1c0.4-0.6,0.9-1.8,1.6-3.5H8.3"/>
</g>
<g id="PathID_42" transform="matrix(0.48061, 0, 0, 0.48061, 174.7, 169.35)">
</g>
<g id="PathID_43" transform="matrix(0.48061, 0, 0, 0.48061, 183.55, 169.35)">
	<path class="st2" d="M7.4,322.3c0.7,0,1.3,0.3,1.8,0.8s0.8,1.1,0.8,1.8c0,0.7-0.3,1.3-0.8,1.8s-1.1,0.8-1.8,0.8
		c-0.7,0-1.3-0.3-1.8-0.8s-0.8-1.1-0.8-1.8c0-0.7,0.2-1.3,0.7-1.8C6.1,322.6,6.7,322.3,7.4,322.3 M9.5,334.3v18.4
		c0,1.5,0.1,2.4,0.3,2.9c0.2,0.5,0.5,0.8,0.9,1.1c0.4,0.2,1.2,0.3,2.3,0.3v0.9H1.9V357c1.1,0,1.8-0.1,2.2-0.3c0.4-0.2,0.7-0.6,1-1.1
		c0.2-0.5,0.3-1.5,0.3-2.9v-8.8c0-2.5-0.1-4.1-0.3-4.8c-0.1-0.5-0.3-0.9-0.6-1.1c-0.2-0.2-0.6-0.4-1-0.4c-0.5,0-1,0.1-1.7,0.4
		l-0.4-0.9l6.9-2.8H9.5"/>
</g>
<g id="PathID_44" transform="matrix(0.48061, 0, 0, 0.48061, 183.55, 169.35)">
</g>
<g id="PathID_45" transform="matrix(0.48061, 0, 0, 0.48061, 192.4, 169.35)">
	<path class="st2" d="M8.4,322.3v22.8l5.8-5.3c1.2-1.1,1.9-1.9,2.2-2.1c0.1-0.2,0.2-0.4,0.2-0.6c0-0.3-0.1-0.6-0.4-0.9
		c-0.3-0.3-0.7-0.4-1.4-0.4V335h10v0.8c-1.4,0-2.5,0.3-3.5,0.6c-0.9,0.4-1.9,1-3,2l-5.8,5.4l5.8,7.4c1.7,2,2.8,3.3,3.3,3.9
		c0.8,0.8,1.5,1.3,2.1,1.5c0.4,0.2,1.1,0.3,2.2,0.3v0.9H14.8V357c0.6,0,1.1-0.1,1.3-0.3c0.2-0.2,0.4-0.4,0.4-0.8c0-0.4-0.3-1-1-1.8
		l-7-9v7.5c0,1.5,0.1,2.5,0.3,3c0.2,0.5,0.5,0.8,0.9,1c0.4,0.2,1.3,0.3,2.6,0.3v0.9H0.4V357c1.2,0,2-0.1,2.6-0.4
		c0.4-0.2,0.6-0.5,0.8-0.9c0.3-0.6,0.4-1.5,0.4-2.9V332c0-2.6-0.1-4.2-0.2-4.8c-0.1-0.6-0.3-1-0.6-1.2c-0.3-0.2-0.6-0.3-1-0.3
		c-0.4,0-0.9,0.1-1.6,0.4l-0.4-0.9l6.8-2.8H8.4"/>
</g>
<g id="PathID_46" transform="matrix(0.48061, 0, 0, 0.48061, 192.4, 169.35)">
</g>
<g id="PathID_47" transform="matrix(0.48061, 0, 0, 0.48061, 206.75, 169.35)">
	<path class="st2" d="M14.6,354.6c-2.4,1.8-3.9,2.9-4.4,3.1c-0.9,0.4-1.9,0.6-2.9,0.6c-1.6,0-2.9-0.5-4-1.6c-1-1.1-1.5-2.5-1.5-4.3
		c0-1.1,0.3-2.1,0.8-2.9c0.7-1.1,1.9-2.2,3.5-3.2s4.5-2.2,8.5-3.7v-0.8c0-2.3-0.4-3.9-1.1-4.7c-0.7-0.9-1.8-1.3-3.1-1.3
		c-1,0-1.9,0.3-2.5,0.8c-0.6,0.6-0.9,1.2-0.9,2l0,1.5c0,0.8-0.2,1.4-0.6,1.8c-0.4,0.4-0.9,0.6-1.5,0.6c-0.6,0-1.2-0.2-1.6-0.6
		c-0.4-0.4-0.5-1-0.5-1.8c0-1.4,0.7-2.8,2.2-4c1.5-1.2,3.5-1.9,6.2-1.9c2,0,3.7,0.4,5,1.1c1,0.5,1.7,1.3,2.2,2.4
		c0.3,0.7,0.5,2.2,0.5,4.4v7.8c0,2.2,0,3.5,0.1,4c0.1,0.5,0.2,0.8,0.4,1c0.2,0.1,0.4,0.2,0.7,0.2s0.5,0,0.7-0.1c0.3-0.2,1-0.9,2-1.9
		v1.4c-1.9,2.5-3.7,3.8-5.4,3.8c-0.8,0-1.5-0.3-2-0.8C14.8,357,14.6,356,14.6,354.6 M14.6,353v-8.8c-2.5,1-4.2,1.7-4.9,2.1
		c-1.3,0.7-2.2,1.5-2.8,2.3c-0.6,0.8-0.9,1.7-0.9,2.6c0,1.2,0.3,2.2,1.1,3c0.7,0.8,1.6,1.1,2.5,1.1C10.8,355.5,12.4,354.7,14.6,353"
		/>
</g>
<g id="PathID_48" transform="matrix(0.48061, 0, 0, 0.48061, 206.75, 169.35)">
</g>
<g id="PathID_49" transform="matrix(3.14278, 0, 0, 2.37097, 34.3, 134.2)">
	<path class="st2" d="M2.2,72.5v-37h13.2c5.3,0,9,1.5,11.1,4.5s3.3,7.4,3.3,13.1c0,3.9-0.5,7.3-1.6,10.3c-1.1,2.9-2.7,5.2-4.9,6.8
		c-2.1,1.6-5.4,2.4-9.6,2.4H2.2 M9.6,67.6h2.3c3.4,0,5.9-1,7.4-3c1.5-2,2.3-5.5,2.3-10.5c0-2.7-0.3-4.9-0.9-6.8
		c-0.5-1.9-1.5-3.5-2.9-4.8c-1.4-1.3-3.6-2-6.6-2H9.6V67.6"/>
</g>
<g id="PathID_50" transform="matrix(3.14278, 0, 0, 2.37097, 34.3, 134.2)">
</g>
<g id="PathID_51" transform="matrix(3.14278, 0, 0, 2.37097, 119.95, 134)">
	<path class="st2" d="M3.5,72.5v-37H11v15.2h1.6l11.7-15.2h6.1L17.8,51.9l13,20.6H22l-9.5-15.1H11v15.1H3.5"/>
</g>
<g id="PathID_52" transform="matrix(3.14278, 0, 0, 2.37097, 119.95, 134)">
</g>
</svg>
