<?xml version="1.0" encoding="utf-8"?>
<!-- Generator: Adobe Illustrator 16.0.0, SVG Export Plug-In . SVG Version: 6.00 Build 0)  -->
<!DOCTYPE svg PUBLIC "-//W3C//DTD SVG 1.1//EN" "http://www.w3.org/Graphics/SVG/1.1/DTD/svg11.dtd">
<svg version="1.1" id="Ebene_1" xmlns="http://www.w3.org/2000/svg" xmlns:xlink="http://www.w3.org/1999/xlink" x="0px" y="0px"
	 width="168px" height="168px" viewBox="0 0 168 168" enable-background="new 0 0 168 168" xml:space="preserve">
<g>
	<path fill="#2A4390" d="M10.392,131.682c-2.875-0.454-5.903-2.725-7.114-5.449c-1.211-2.271-1.06,1.514-1.211-42.232
		c0-39.205,0.151-39.205,0.454-40.416c0.908-3.179,3.481-5.903,6.661-6.962l1.21-0.455h73.567h73.566l1.211,0.455
		c3.178,1.06,5.6,3.481,6.66,6.66c0.605,1.666,0.605,1.968,0.454,41.627c0,36.48,0,38.448-0.303,39.356
		c-1.212,4.087-4.389,6.812-8.325,7.417c-0.757,0.151-24.674,0.151-73.415,0.151C23.712,131.833,11.3,131.833,10.392,131.682z
		 M44.601,106.857c0.606-0.908,3.937-7.721,7.417-14.835l6.509-13.018l0.151,0.757c0,0.455,0.151,2.119,0.303,3.936
		c0.303,1.817,0.605,4.845,0.757,6.963c0.303,2.119,0.756,6.963,1.059,10.898l0.757,7.114h8.779l8.629,0.152l0.454-1.211
		c0.302-0.909,2.724-8.023,9.233-26.944c0.908-2.725,1.816-5.298,1.968-5.752c0.303-0.605,0.303-0.908,0.152-0.908
		c0,0-2.423-0.152-4.996-0.152c-2.725-0.151-5.904-0.302-6.963-0.302l-1.968-0.151l-2.271,7.417
		c-1.362,3.936-2.573,7.872-2.725,8.476c-0.454,1.363-0.605,1.212-0.757-0.303c-0.151-0.906-0.757-7.113-1.362-13.319
		c-0.151-1.362-0.303-2.422-0.303-2.422c0-0.151-15.289-0.605-17.71-0.605h-2.725l-4.39,8.325c-2.422,4.391-4.39,8.174-4.39,8.324
		c-0.151,0,0-0.755,0.151-1.664c0.151-1.059,0.303-3.027,0.606-4.39c0.151-1.513,0.605-4.541,1.059-6.811
		c0.303-2.271,0.454-4.087,0.454-4.087c-0.151-0.152-13.926-0.606-13.926-0.455c-0.151,0.151-0.303,1.514-0.454,3.331
		c-0.303,1.816-0.606,4.541-0.757,6.358c-0.151,1.816-0.454,4.542-0.605,6.054c-0.303,1.514-0.454,3.784-0.605,4.844
		c-0.454,4.39-1.665,15.591-1.665,16.046c0,0.15,0.454,0.303,9.688,0.303h9.687L44.601,106.857z M114.231,108.522
		c5.753-0.605,10.899-2.726,16.198-6.206c2.27-1.665,3.48-2.573,5.448-4.541c5.449-5.147,8.78-11.201,10.293-17.71
		c0.303-1.363,0.303-2.12,0.303-4.542c0-2.573,0-3.027-0.453-4.39c-1.212-4.844-3.785-8.174-7.872-10.445
		c-1.514-0.757-4.087-1.665-6.055-2.119c-1.664-0.151-2.572-0.151-16.802-0.151h-15.137l-1.816,5.298
		c-0.909,2.876-1.816,5.297-1.816,5.449c0,0,6.055,0.151,13.32,0.151c14.531,0,13.926-0.151,16.045,0.908
		c3.179,1.514,4.844,4.996,4.391,8.931c-0.909,6.964-6.812,13.32-14.229,15.137c-2.573,0.605-9.234,1.06-9.083,0.454
		c0,0,0.151-0.757,0.454-1.665c3.937-11.807,6.056-17.71,6.056-18.013c0.151-0.303,0-0.303-0.909-0.303
		c-1.513-0.151-9.233-0.303-13.773-0.605c-2.119,0-3.784,0-3.936,0c0,0.151-11.354,34.209-11.354,34.361
		C83.504,108.825,111.658,108.825,114.231,108.522z M93.494,66.744c0.455-1.362,1.363-3.936,1.968-5.449l0.909-2.876h-7.418h-7.266
		l-0.151,0.303c0,0.151-0.756,2.574-1.665,5.298c-0.908,2.573-1.513,4.995-1.513,4.995c0,0.151,1.665,0.303,7.114,0.303h7.114
		L93.494,66.744z M43.088,68.863c0-0.151,0.151-0.908,0.151-1.514c0.303-1.513,1.21-8.022,1.362-8.628l0.152-0.454h-7.417h-7.417
		v0.454c0,0.303-0.303,2.574-0.605,4.996c-0.303,2.573-0.454,4.844-0.454,4.995v0.454h6.963
		C42.482,69.166,42.937,69.014,43.088,68.863z M68.972,68.561c0-0.303-0.303-2.573-0.455-4.995
		c-0.303-2.573-0.605-4.693-0.605-4.844l-0.151-0.303h-5.6H56.56l-0.303,0.454c-0.303,0.605-3.632,7.115-4.844,9.082l-0.605,1.211
		h9.233h9.082L68.972,68.561z"/>
</g>
</svg>
