<?xml version="1.0" encoding="utf-8"?>
<!-- Generator: Adobe Illustrator 21.0.0, SVG Export Plug-In . SVG Version: 6.00 Build 0)  -->
<svg version="1.1" id="Layer_1" xmlns="http://www.w3.org/2000/svg" xmlns:xlink="http://www.w3.org/1999/xlink" x="0px" y="0px"
	 viewBox="0 0 250 125" style="enable-background:new 0 0 250 125;" xml:space="preserve">
<style type="text/css">
	.st0{fill:#231F20;}
	.st1{fill:#007AC2;}
</style>
<g>
	<path class="st0" d="M49.9,47.3c0-4.2-1.7-11.7-10.1-11.7c-8.9,0-10.9,7.7-10.9,11.7H49.9 M56.5,66.5c0.1,0.2,0.3,0.4,0.3,0.6
		c0,0.9-8.2,4.2-15.3,4.2C28.6,71.3,21,63.2,21,51c0-11.8,7.2-20.4,19.2-20.4c16.2,0,17.7,13,17.7,19.9c0,1.1,0,1.8-1.1,1.8H29
		C29,57.1,31.3,66,42.4,66c6.3,0,11.4-3.3,11.9-3.3c0.3,0,0.4,0.2,0.6,0.5C54.9,63.2,56.5,66.5,56.5,66.5z"/>
	<path class="st0" d="M129.7,51c-4.3,0.1-18.1,0.1-18.1,8.5c0,3.2,2.1,6.8,7.1,6.8c5,0,9.5-3.9,11.1-5V51 M137.1,57.5
		c0,5.1,0.3,5.8,1.2,8c0.4,1,1.7,2.5,1.7,3c0,0.3-0.5,0.5-0.9,0.6l-3.8,1.9c-0.4,0.2-0.6,0.2-0.8,0.2c-1.5,0-3.2-4.3-3.7-5.4
		c-1.2,0.9-5.9,5.4-14,5.4c-7.7,0-12.6-4.2-12.6-11.3c0-13.6,19.4-13.8,25.4-14v-2.9c0-4.7-1.7-7.2-8.6-7.2c-6.5,0-11,2.6-11.8,2.6
		c-0.3,0-0.6-0.2-0.7-0.4l-1.3-2.8c-0.2-0.4-0.3-0.6-0.3-1c0-1.4,8.9-3.7,15.1-3.7c11.2,0,14.9,4.5,14.9,11.2L137.1,57.5L137.1,57.5
		z"/>
	<path class="st0" d="M177.4,66.5c0.1,0.2,0.3,0.4,0.3,0.6c0,0.9-8.2,4.2-15.3,4.2c-11.5,0-18.2-7.5-18.2-19.2
		c0-13.4,7.8-21.6,19.7-21.6c6.5,0,14,3.8,14,5c0,0.2-0.2,0.4-0.3,0.6l-2.2,3.4c-0.2,0.2-0.3,0.5-0.6,0.5c-0.4,0-4.6-4.1-10.3-4.1
		c-9.5,0-12.3,5.9-12.3,15c0,7.3,1.7,15,11.2,15c6.3,0,11.4-3.3,11.9-3.3c0.3,0,0.4,0.2,0.6,0.5L177.4,66.5"/>
	<path class="st0" d="M208.6,39.1c-1.9-1-5.2-3.1-9.5-3.1c-8.4,0-10.3,7.6-10.3,14.4c0,7.8,1.5,15.7,9.3,15.7
		c4.5,0,7.7-2.6,10.5-4.7V39.1 M216,85c0,0.6-0.3,0.9-0.7,1l-4.9,1c-0.8,0.2-0.5,0.1-1.2,0.2c-0.7,0-0.7-0.6-0.7-1V66.6
		c-2.4,1.7-6.3,4.7-11.8,4.7c-11.5,0-15.9-9.6-15.9-21.2c0-10,5.6-19.6,17.9-19.6c5.9,0,10.1,2.7,11.8,3.9c0.9-1.2,1.9-3.9,2.9-3.9
		c0.3,0,0.6,0.2,1,0.3l3.4,1.6c0.5,0.2,0.8,0.4,0.8,0.7c0,0.6-1.2,2.1-1.7,3.6c-0.6,1.6-0.9,2.8-0.9,4.9V85L216,85z"/>
	<polyline class="st1" points="100.6,31.1 93.1,31.1 81,50.4 93.4,70.8 101.8,70.8 87.3,50.1 100.6,31.1 	"/>
	<polyline class="st1" points="60.8,31 68.3,31 80.5,50.3 68,70.8 59.6,70.8 74.1,50 60.8,31 	"/>
	<path class="st0" d="M224.2,39.6v1.6h0.8c0.8,0,1.2-0.2,1.2-0.8c0-0.6-0.4-0.8-1.3-0.8H224.2 M227,40.4c0,0.6-0.4,1.1-1.1,1.2
		l1,2.1h-0.9l-1-2h-1v2h-0.8v-4.6h1.7C226.4,39.1,227,39.5,227,40.4L227,40.4z M227.5,39c-0.7-0.7-1.6-1-2.5-1c-0.9,0-1.8,0.3-2.5,1
		c-0.7,0.7-1.1,1.6-1.1,2.5c0,0.9,0.4,1.8,1,2.5c0.7,0.7,1.5,1,2.5,1c0.9,0,1.8-0.4,2.5-1c0.7-0.6,1-1.5,1-2.5
		C228.5,40.6,228.2,39.7,227.5,39L227.5,39z M227.9,38.7c0.7,0.7,1.1,1.8,1.1,2.8c0,1.1-0.4,2.1-1.2,2.8c-0.8,0.8-1.8,1.2-2.8,1.2
		c-1.1,0-2.1-0.4-2.8-1.2c-0.8-0.8-1.2-1.8-1.2-2.8s0.4-2.1,1.2-2.9c0.7-0.7,1.7-1.1,2.8-1.1C226.1,37.5,227.1,37.9,227.9,38.7
		L227.9,38.7z"/>
	<path class="st0" d="M31.2,81.5V91c0,0.1-0.1,0.2-0.3,0.2h-1.2c-0.2,0-0.3-0.1-0.3-0.2v-9.4h-3.1c-0.2,0-0.3-0.1-0.3-0.2v-0.7
		c0-0.1,0.1-0.2,0.3-0.2h8.2c0.1,0,0.3,0,0.3,0.1c0,0.1-0.1,0.1-0.1,0.2l-0.3,0.6c-0.1,0.1-0.2,0.2-0.3,0.2L31.2,81.5"/>
	<path class="st0" d="M47.3,86.7c0-0.8-0.4-2.3-2.2-2.3c-1.9,0-2.3,1.5-2.3,2.3H47.3 M48.7,90.4c0,0,0.1,0.1,0.1,0.1
		c0,0.2-1.8,0.8-3.3,0.8c-2.8,0-4.4-1.6-4.4-4c0-2.3,1.5-4,4.1-4c3.5,0,3.8,2.5,3.8,3.9c0,0.2,0,0.3-0.2,0.3h-6c0,1,0.5,2.7,2.9,2.7
		c1.4,0,2.4-0.6,2.6-0.6c0.1,0,0.1,0,0.1,0.1L48.7,90.4L48.7,90.4z"/>
	<path class="st0" d="M63.4,90.4c0,0,0.1,0.1,0.1,0.1c0,0.2-1.8,0.8-3.3,0.8c-2.5,0-3.9-1.5-3.9-3.7c0-2.6,1.7-4.2,4.2-4.2
		c1.4,0,3,0.7,3,1c0,0,0,0.1-0.1,0.1L63,85.2c0,0-0.1,0.1-0.1,0.1c-0.1,0-1-0.8-2.2-0.8c-2.1,0-2.7,1.1-2.7,2.9
		c0,1.4,0.4,2.9,2.4,2.9c1.4,0,2.4-0.6,2.6-0.6c0.1,0,0.1,0,0.1,0.1L63.4,90.4"/>
	<path class="st0" d="M71,80.2c0-0.1,0.1-0.2,0.1-0.2l1-0.2c0.2,0,0.1,0,0.3,0c0.1,0,0.1,0.1,0.1,0.2v4.5c0.7-0.4,1.8-1.1,3.3-1.1
		c2.3,0,2.5,1.2,2.5,2.3V91c0,0.1-0.1,0.2-0.3,0.2H77c-0.2,0-0.3-0.1-0.3-0.2v-5.2c0-0.7-0.2-1.3-1.4-1.3c-1.4,0-2.3,0.6-2.8,1V91
		c0,0.1-0.1,0.2-0.3,0.2h-1.1c-0.2,0-0.3-0.1-0.3-0.2L71,80.2"/>
	<path class="st0" d="M94.5,91c0,0.1-0.1,0.2-0.3,0.2h-1.1c-0.2,0-0.3-0.1-0.3-0.2v-5.2c0-0.7-0.2-1.3-1.4-1.3c-1.4,0-2.2,0.6-2.8,1
		V91c0,0.1-0.1,0.2-0.3,0.2h-1.1c-0.2,0-0.3-0.1-0.3-0.2v-5.4c0-0.5,0-0.7-0.1-0.9c-0.2-0.5-0.3-0.6-0.3-0.7c0,0,0-0.1,0.1-0.1
		l0.9-0.4c0,0,0.1-0.1,0.2-0.1c0.4,0,0.6,0.9,0.6,1.1c0.7-0.4,1.8-1.1,3.4-1.1c2.3,0,2.5,1.2,2.5,2.3L94.5,91"/>
	<path class="st0" d="M109.1,87.3c0-1.5-0.6-2.9-2.4-2.9c-1.9,0-2.5,1.3-2.5,2.9c0,1.8,0.5,3.1,2.5,3.1
		C108.6,90.4,109.1,89.1,109.1,87.3 M106.5,91.4c-2.8,0-4-1.7-4-3.9c0-2.2,1.2-4,4.3-4c2.9,0,4.1,1.7,4.1,3.9
		C110.8,89.5,109.6,91.4,106.5,91.4L106.5,91.4z"/>
	<path class="st0" d="M122.7,90.9c0,0,0,0.1,0,0.1c0,0.2-1,0.4-1.8,0.4c-1,0-1.7-0.3-2-0.8c-0.3-0.5-0.3-1.7-0.3-2.3v-8.1
		c0-0.1,0.1-0.2,0.1-0.2l1-0.2c0.2,0,0.1,0,0.3,0c0.1,0,0.1,0.1,0.1,0.2v8.4c0,0.5,0,1.3,0.1,1.5c0,0.2,0.2,0.5,0.8,0.5
		c0.5,0,0.9-0.2,1.1-0.2c0.1,0,0.1,0,0.1,0.1L122.7,90.9"/>
	<path class="st0" d="M135.5,87.3c0-1.5-0.6-2.9-2.5-2.9c-1.9,0-2.5,1.3-2.5,2.9c0,1.8,0.5,3.1,2.5,3.1
		C134.9,90.4,135.5,89.1,135.5,87.3 M132.9,91.4c-2.8,0-4-1.7-4-3.9c0-2.2,1.2-4,4.3-4c2.9,0,4.1,1.7,4.1,3.9
		C137.2,89.5,136,91.4,132.9,91.4L132.9,91.4z"/>
	<path class="st0" d="M150.6,84.9c-0.4-0.1-1.1-0.4-1.9-0.4c-1.6,0-2.3,1-2.3,2.7c0,1.7,0.4,2.7,1.8,2.7c1.1,0,2-0.5,2.4-0.8V84.9
		 M152.1,88.1c0,0.9,0.1,2.7,0.1,3.6c0,1.4-0.9,2.8-3.7,2.8c-1.6,0-3.5-0.5-3.5-0.8c0-0.1,0-0.1,0.1-0.2l0.3-0.5
		c0,0,0.1-0.1,0.1-0.1c0.2,0,1.4,0.6,2.9,0.6c1.9,0,2.2-0.8,2.2-1.7c0-0.8-0.1-1.4-0.1-1.6c-0.5,0.3-1.4,0.9-2.8,0.9
		c-1.9,0-3.2-1.3-3.2-3.5c0-2.5,1.3-4.1,3.9-4.1c1.4,0,2.2,0.5,2.5,0.7c0.2-0.4,0.4-0.7,0.6-0.7c0.1,0,0.1,0,0.2,0l0.9,0.4
		c0.1,0,0.1,0.1,0.1,0.1c0,0.1-0.2,0.2-0.4,0.6c-0.2,0.4-0.3,0.6-0.3,1.2C152.1,85.7,152.1,88.1,152.1,88.1z"/>
	<path class="st0" d="M162.3,81.8c-0.7,0-1.3-0.4-1.3-1c0-0.5,0.6-1,1.3-1c0.7,0,1.3,0.4,1.3,1C163.5,81.4,163,81.8,162.3,81.8
		 M163.2,91c0,0.1-0.1,0.2-0.3,0.2h-1.1c-0.2,0-0.3-0.1-0.3-0.2v-6.4h-1.6c-0.2,0-0.3-0.1-0.3-0.2v-0.6c0-0.1,0.1-0.2,0.3-0.2h3
		c0.2,0,0.3,0.1,0.3,0.2L163.2,91L163.2,91z"/>
	<path class="st0" d="M177.4,86.7c0-0.8-0.4-2.3-2.2-2.3c-1.9,0-2.3,1.5-2.3,2.3H177.4 M178.8,90.4c0,0,0.1,0.1,0.1,0.1
		c0,0.2-1.8,0.8-3.3,0.8c-2.8,0-4.4-1.6-4.4-4c0-2.3,1.5-4,4.1-4c3.5,0,3.8,2.5,3.8,3.9c0,0.2,0,0.3-0.2,0.3h-6c0,1,0.5,2.7,2.9,2.7
		c1.4,0,2.4-0.6,2.6-0.6c0.1,0,0.1,0,0.1,0.1L178.8,90.4L178.8,90.4z"/>
	<path class="st0" d="M191.7,84.7c-0.1,0.1-0.1,0.2-0.3,0.2c-0.1,0-1-0.4-2.1-0.4c-0.8,0-1.6,0.3-1.6,1c0,1.7,4.6,1.2,4.6,3.7
		c0,1.5-1.5,2.2-3.3,2.2c-1,0-3.2-0.4-3.2-0.8c0-0.1,0-0.1,0.1-0.2l0.3-0.5c0.1-0.1,0.1-0.1,0.2-0.1c0.2,0,1.3,0.5,2.7,0.5
		c0.9,0,1.7-0.4,1.7-1.1c0-1.6-4.6-1.3-4.6-3.6c0-1.3,1.3-2.2,3.2-2.2c0.7,0,1.9,0.3,2.5,0.5c0.2,0.1,0.2,0.1,0.2,0.2
		c0,0-0.1,0.1-0.1,0.2L191.7,84.7"/>
</g>
</svg>
