<svg id="圖層_1" data-name="圖層 1" xmlns="http://www.w3.org/2000/svg" viewBox="0 0 150 150"><defs><style>.cls-1{fill:#5daee2;}</style></defs><title>retail-heat-map</title><path class="cls-1" d="M75.62,46.18A20.33,20.33,0,1,0,96.07,66.5,20.39,20.39,0,0,0,75.62,46.18Zm0,30.5A10.17,10.17,0,1,1,85.84,66.5,10.19,10.19,0,0,1,75.62,76.67Z"/><path class="cls-1" d="M102.2,90.9a10.17,10.17,0,1,0,10.22,10.17A10.2,10.2,0,0,0,102.2,90.9Z"/><path class="cls-1" d="M44.94,80.74A10.16,10.16,0,1,0,55.17,90.9,10.19,10.19,0,0,0,44.94,80.74Zm0,14.23A4.07,4.07,0,1,1,49,90.9,4.08,4.08,0,0,1,44.94,95Z"/><ellipse class="cls-1" cx="106.29" cy="76.67" rx="4.09" ry="4.07"/><path class="cls-1" d="M59.26,103.11a4.07,4.07,0,1,0,4.09,4.07A4.08,4.08,0,0,0,59.26,103.11Z"/><path class="cls-1" d="M44.94,56.34a6.1,6.1,0,1,0-6.13-6.1A6.12,6.12,0,0,0,44.94,56.34Z"/><path class="cls-1" d="M75.62,95a6.1,6.1,0,1,0,6.13,6.09A6.11,6.11,0,0,0,75.62,95Zm0,8.13a2,2,0,1,1,2-2A2,2,0,0,1,75.62,103.11Z"/><path class="cls-1" d="M106.29,56.34a6.1,6.1,0,1,0-6.13-6.1A6.12,6.12,0,0,0,106.29,56.34Z"/><path class="cls-1" d="M75,150a75,75,0,1,1,75-75A75.09,75.09,0,0,1,75,150ZM75,5.21A69.79,69.79,0,1,0,144.79,75,69.86,69.86,0,0,0,75,5.21Z"/><path class="cls-1" d="M75,136.57A61.57,61.57,0,1,1,136.58,75,61.65,61.65,0,0,1,75,136.57ZM75,16.9A58.1,58.1,0,1,0,133.1,75,58.15,58.15,0,0,0,75,16.9Z"/></svg>