<svg id="圖層_1" data-name="圖層 1" xmlns="http://www.w3.org/2000/svg" xmlns:xlink="http://www.w3.org/1999/xlink" viewBox="0 0 150 150"><defs><style>.cls-1{fill:none;}.cls-2,.cls-4{fill:#4cabe1;}.cls-3{clip-path:url(#clip-path);}.cls-4{fill-rule:evenodd;}.cls-5{fill:#fff;}</style><clipPath id="clip-path"><path class="cls-1" d="M75.09,17.84a58.1,58.1,0,1,0,58.1,58.09A58.16,58.16,0,0,0,75.09,17.84Z"/></clipPath></defs><title>retail-technology</title><path class="cls-2" d="M75,150a75,75,0,1,1,75-75A75.09,75.09,0,0,1,75,150ZM75,5.21A69.79,69.79,0,1,0,144.79,75,69.86,69.86,0,0,0,75,5.21Z"/><path class="cls-2" d="M75.09,137.52a61.58,61.58,0,1,1,61.58-61.59A61.66,61.66,0,0,1,75.09,137.52Zm0-119.68a58.1,58.1,0,1,0,58.1,58.09A58.16,58.16,0,0,0,75.09,17.84Z"/><g class="cls-3"><path class="cls-4" d="M75.29,32.88c8,0,15.27,1.47,21.38,5.68,7.3,5,11.22,11,13.12,16a34.1,34.1,0,0,1,1,20.19A31.88,31.88,0,0,1,107.58,82c-2.29,3.9-5,7.56-7.32,11.44C97,98.85,98.77,107.3,101.44,111s0,.1,0,.23c7.15,6.72,19.58,5.86,18.88,6.11-3.83,1.34-15,21.71-18.08,24.28-4.36,3.61-18.68-4-22,.54-1.43,1.92-5-7.73-6.37-5.72l-.66,1c-.37-1-12.33-3.31-12.71-4.15,4.91-1.42,8.35-5.71,6.66-9.28-.46-1-1-1.89-1.46-2.88a6.23,6.23,0,0,0-4.7-3.66,17.37,17.37,0,0,0-6.18.11c-2.92.35-5.84.67-8.73-.09-2.56-.67-3.59-1.72-3.52-4.25a26.82,26.82,0,0,1,.27-3.13,4.47,4.47,0,0,0-.87-3.36,15,15,0,0,1-1.09-1.84,2.42,2.42,0,0,1,0-2.39c.33-.6.25-1-.46-1.29a2,2,0,0,1-1.5-2.35c0-1.16.08-2.32.09-3.49,0-1.41-.37-1.79-1.76-2A6.49,6.49,0,0,1,35.48,93,2.57,2.57,0,0,1,34,89.3c1.14-2.51,3-4.77,4.21-7.26a43.56,43.56,0,0,0,2-4.55,5.5,5.5,0,0,0-.45-4.43c-2.31-4.23-2.57-8.71-1.9-13.2a27.66,27.66,0,0,1,7.29-14.52A34,34,0,0,1,60.1,35.66,40.3,40.3,0,0,1,75.29,32.88Z"/></g><path class="cls-5" d="M70.05,71.46l-2-.35a.89.89,0,0,1-.63-.55s0,0-.11-.29L67.14,70a.86.86,0,0,1,.06-.83l1.2-1.69a.66.66,0,0,0,0-.77l-1.25-1.25a.66.66,0,0,0-.77,0l-1.69,1.2a.91.91,0,0,1-.84.07l-.58-.24a.92.92,0,0,1-.55-.65l-.35-2a.67.67,0,0,0-.57-.52H60a.65.65,0,0,0-.57.52l-.35,2a.86.86,0,0,1-.55.63l-.29.12-.29.12a.87.87,0,0,1-.83-.06l-1.69-1.2a.66.66,0,0,0-.77,0L53.4,66.69a.68.68,0,0,0,0,.77l1.2,1.69a.92.92,0,0,1,.07.84l-.24.58a.91.91,0,0,1-.64.54l-2,.35a.65.65,0,0,0-.52.57V73.8a.65.65,0,0,0,.52.57l2,.34a.88.88,0,0,1,.63.55l.12.29a2.63,2.63,0,0,0,.13.29.9.9,0,0,1-.06.83l-1.21,1.69a.67.67,0,0,0,0,.77l1.25,1.25a.66.66,0,0,0,.77,0l1.69-1.2a.92.92,0,0,1,.84-.07l.58.24a.9.9,0,0,1,.54.65l.35,2a.66.66,0,0,0,.57.52h1.77a.66.66,0,0,0,.57-.52l.35-2a.89.89,0,0,1,.55-.63l.29-.12.29-.12a.87.87,0,0,1,.83.05l1.69,1.2a.65.65,0,0,0,.77,0l1.26-1.25a.67.67,0,0,0,0-.77l-1.2-1.69a.93.93,0,0,1-.07-.84l.24-.58a.9.9,0,0,1,.64-.54l2-.35a.65.65,0,0,0,.52-.57V72A.65.65,0,0,0,70.05,71.46ZM60.88,77.4a4.48,4.48,0,1,1,4.48-4.49A4.48,4.48,0,0,1,60.88,77.4Z"/><path class="cls-5" d="M91.4,53.25l-2.89-.49a1.24,1.24,0,0,1-.89-.77l-.17-.42-.18-.41A1.22,1.22,0,0,1,87.37,50l1.7-2.39A.93.93,0,0,0,89,46.52l-1.76-1.77a.94.94,0,0,0-1.09-.05l-2.39,1.7a1.28,1.28,0,0,1-1.18.1l-.82-.34a1.29,1.29,0,0,1-.77-.91l-.49-2.88a.94.94,0,0,0-.81-.74H77.2a.92.92,0,0,0-.81.73l-.49,2.89a1.23,1.23,0,0,1-.77.89l-.42.17-.41.17a1.24,1.24,0,0,1-1.18-.08l-2.38-1.7a.93.93,0,0,0-1.09.05l-1.77,1.77a.94.94,0,0,0,0,1.09L69.54,50a1.3,1.3,0,0,1,.1,1.19L69.3,52a1.3,1.3,0,0,1-.91.77l-2.89.49a.94.94,0,0,0-.73.8v2.5a.93.93,0,0,0,.73.81l2.89.49a1.25,1.25,0,0,1,.89.77s0,.06.16.42.18.41.18.41a1.26,1.26,0,0,1-.08,1.17L67.84,63a.91.91,0,0,0,.06,1.08l1.77,1.77a.93.93,0,0,0,1.09,0l2.38-1.69a1.3,1.3,0,0,1,1.19-.1l.81.33a1.3,1.3,0,0,1,.77.91l.49,2.88a.93.93,0,0,0,.8.74h2.5a.93.93,0,0,0,.81-.73L81,65.37a1.24,1.24,0,0,1,.78-.89l.41-.16.41-.18a1.23,1.23,0,0,1,1.17.08l2.39,1.7a.92.92,0,0,0,1.08-.05L89,64.1A.94.94,0,0,0,89.06,63l-1.7-2.39a1.3,1.3,0,0,1-.1-1.19l.34-.82a1.26,1.26,0,0,1,.91-.77l2.89-.49a.92.92,0,0,0,.73-.8v-2.5A.92.92,0,0,0,91.4,53.25ZM78.45,61.64a6.33,6.33,0,1,1,6.33-6.33A6.33,6.33,0,0,1,78.45,61.64Z"/><path class="cls-5" d="M96.57,80l-2.86-.66a1.25,1.25,0,0,1-.84-.82l-.14-.43-.15-.42a1.21,1.21,0,0,1,.15-1.16l1.83-2.28a.93.93,0,0,0,0-1.09l-1.66-1.87a.93.93,0,0,0-1.08-.12l-2.48,1.56a1.28,1.28,0,0,1-1.18,0l-.8-.38a1.31,1.31,0,0,1-.72-1l-.32-2.91a.94.94,0,0,0-.76-.78l-2.5-.14a.93.93,0,0,0-.85.68l-.66,2.85a1.23,1.23,0,0,1-.83.84l-.43.14-.41.15a1.25,1.25,0,0,1-1.17-.14l-2.28-1.83a.93.93,0,0,0-1.08,0L73.5,71.92A1,1,0,0,0,73.38,73l1.55,2.48a1.29,1.29,0,0,1,0,1.19l-.38.79a1.31,1.31,0,0,1-1,.71l-2.91.32a.93.93,0,0,0-.77.76l-.15,2.49a.93.93,0,0,0,.68.85l2.86.65a1.26,1.26,0,0,1,.85.83s0,.06.14.42.16.42.16.42a1.27,1.27,0,0,1-.15,1.17l-1.83,2.29a.91.91,0,0,0,0,1.08l1.66,1.87a.92.92,0,0,0,1.08.11l2.48-1.55a1.3,1.3,0,0,1,1.2,0l.79.38a1.32,1.32,0,0,1,.71,1l.31,2.91a.94.94,0,0,0,.76.78L84,95a.93.93,0,0,0,.84-.68l.66-2.85a1.24,1.24,0,0,1,.83-.84l.42-.14.42-.15a1.24,1.24,0,0,1,1.17.15l2.28,1.83a.92.92,0,0,0,1.09,0l1.86-1.66a.93.93,0,0,0,.12-1.08L92.1,87.14a1.33,1.33,0,0,1,0-1.19l.39-.8a1.28,1.28,0,0,1,.95-.71l2.91-.32a.92.92,0,0,0,.77-.76l.15-2.49A.93.93,0,0,0,96.57,80ZM83.15,87.64a6.33,6.33,0,1,1,6.7-6A6.33,6.33,0,0,1,83.15,87.64Z"/></svg>