<svg id="圖層_1" data-name="圖層 1" xmlns="http://www.w3.org/2000/svg" viewBox="0 0 150 150"><defs><style>.cls-1{fill:#8bc56c;}</style></defs><title>retail-service-and-warranty</title><path class="cls-1" d="M75,125.48,74,125C45.39,112.27,35.77,81.32,35.77,69.16V45.58L75,33.17l39.22,12.4V69.16c0,12.16-9.61,43.11-38.18,55.85ZM40.93,49.36v19.8c0,12.2,10,39.28,34.07,50.66,24.06-11.37,34.07-38.46,34.07-50.66V49.36L75,38.58Z"/><path class="cls-1" d="M75,150a75,75,0,1,1,75-75A75.09,75.09,0,0,1,75,150ZM75,5.21A69.79,69.79,0,1,0,144.79,75,69.86,69.86,0,0,0,75,5.21Z"/><path class="cls-1" d="M75,136.58A61.58,61.58,0,1,1,136.58,75,61.66,61.66,0,0,1,75,136.58ZM75,16.9A58.1,58.1,0,1,0,133.1,75,58.16,58.16,0,0,0,75,16.9Z"/><path class="cls-1" d="M75,45.7l-28.4,9V71.5c0,9.44,7.74,32.24,28.4,41.45,20.65-9.21,28.4-32,28.4-41.45V54.68ZM73.66,93,59.31,78.62,63.9,74l9.77,9.76L89.49,68l4.59,4.59Z"/></svg>