<svg id="圖層_1" data-name="圖層 1" xmlns="http://www.w3.org/2000/svg" viewBox="0 0 150 150"><defs><style>.cls-1{fill:#5daee2;}</style></defs><title>retail-zone-counting</title><polygon class="cls-1" points="92.16 92.48 84.58 92.48 84.54 94.01 90.87 94.01 102.48 110.87 84.07 110.87 81.57 110.87 77.73 110.87 75.41 110.87 75.37 110.87 73.05 110.87 69.22 110.87 66.72 110.87 48.31 110.87 59.91 94.01 66.24 94.01 66.2 92.48 58.63 92.48 43.15 113.93 107.64 113.93 92.16 92.48"/><path class="cls-1" d="M82,37.56A6.56,6.56,0,1,1,75.4,31,6.55,6.55,0,0,1,82,37.56Z"/><path class="cls-1" d="M86.26,45.58H64.51a3,3,0,0,0-3,3V71.18a3,3,0,0,0,3,3h1.35V54.69l1.5-.5v20h16.1v-20l1.51.5V74.18h1.28a3,3,0,0,0,3-3V48.55A3,3,0,0,0,86.26,45.58Z"/><rect class="cls-1" x="67.45" y="75.13" width="7.52" height="30.49"/><rect class="cls-1" x="75.98" y="75.13" width="7.52" height="30.49"/><path class="cls-1" d="M75,150a75,75,0,1,1,75-75A75.09,75.09,0,0,1,75,150ZM75,5.21A69.79,69.79,0,1,0,144.79,75,69.86,69.86,0,0,0,75,5.21Z"/><path class="cls-1" d="M75,136.57A61.57,61.57,0,1,1,136.58,75,61.65,61.65,0,0,1,75,136.57ZM75,16.9A58.1,58.1,0,1,0,133.1,75,58.15,58.15,0,0,0,75,16.9Z"/></svg>