<svg id="圖層_1" data-name="圖層 1" xmlns="http://www.w3.org/2000/svg" viewBox="0 0 150 150"><defs><style>.cls-1{fill:#f2971b;}</style></defs><title>retail-trust</title><path class="cls-1" d="M75,150a75,75,0,1,1,75-75A75.09,75.09,0,0,1,75,150ZM75,5.21A69.79,69.79,0,1,0,144.79,75,69.86,69.86,0,0,0,75,5.21Z"/><path class="cls-1" d="M75.09,137.52a61.58,61.58,0,1,1,61.58-61.59A61.65,61.65,0,0,1,75.09,137.52Zm0-119.68a58.1,58.1,0,1,0,58.1,58.09A58.16,58.16,0,0,0,75.09,17.85Z"/><path class="cls-1" d="M131.57,58.73,122.1,37.56c-1-1-5.61-5.53-6.63-4.53L101,47.48a2.53,2.53,0,0,0,0,3.63L120.18,70a2.63,2.63,0,0,0,3.68,0l7.71-7.63a2.53,2.53,0,0,0,0-3.62"/><path class="cls-1" d="M96.85,54.58l-19-5.52a10.06,10.06,0,0,0-13.15,5.13L57.35,70.79a5.67,5.67,0,0,0,4.9,8,5.79,5.79,0,0,0,5.54-3.16l3-6.88A6.1,6.1,0,0,1,76.49,65a5.87,5.87,0,0,1,3.12,1.13l22,21.68h0l2.69,2.66a3.37,3.37,0,0,1,0,4.84,3.45,3.45,0,0,1-2.45,1,3.5,3.5,0,0,1-2.47-1l-9.64-9.5a1.29,1.29,0,0,0-1.8,0,1.25,1.25,0,0,0,0,1.78l9.65,9.49a3.41,3.41,0,0,1,0,4.85,3.52,3.52,0,0,1-4.92,0l-9.54-9.39L83,92.42a1.29,1.29,0,0,0-1.8,0,1.24,1.24,0,0,0,0,1.78l9.64,9.5a3.4,3.4,0,0,1,0,4.85,3.52,3.52,0,0,1-4.92,0l-9.53-9.39L76.32,99a1.29,1.29,0,0,0-1.8,0,1.25,1.25,0,0,0,0,1.78l9.64,9.5a3.39,3.39,0,0,1,0,4.84,3.51,3.51,0,0,1-4.92,0l-4.07-4a4.61,4.61,0,0,0-.51-6,4.9,4.9,0,0,0-6.42-.38,4.61,4.61,0,0,0-.31-6.25A4.8,4.8,0,0,0,61.88,98l-.12-.12a4.62,4.62,0,0,0-.55-6,4.79,4.79,0,0,0-6.05-.54L55,91.26a4.62,4.62,0,0,0-.54-6,4.81,4.81,0,0,0-6.06-.53l-1.86,1.71L45,88.06l-2.81,2.77a4.63,4.63,0,0,0,0,6.62,4.79,4.79,0,0,0,6.72,0h0a4.63,4.63,0,0,0,0,6.62,4.81,4.81,0,0,0,6.73,0,4.63,4.63,0,0,0,0,6.62,4.79,4.79,0,0,0,6.34.31,4.71,4.71,0,0,0,.38,6.31,4.8,4.8,0,0,0,6.72,0l2.81-2.77L73.43,113l4,4a6.09,6.09,0,0,0,8.52,0,5.84,5.84,0,0,0,1.77-4.2,6.32,6.32,0,0,0-.08-.76,6,6,0,0,0,5-1.66,5.84,5.84,0,0,0,1.77-4.2,5.25,5.25,0,0,0-.07-.77,6,6,0,0,0,5-1.66,5.83,5.83,0,0,0,1.77-4.19,5.51,5.51,0,0,0-.08-.76,5.68,5.68,0,0,0,5-1.67,5.86,5.86,0,0,0,0-8.39L103.44,86l12.87-12.56Z"/><path class="cls-1" d="M47.12,87.36a1.42,1.42,0,0,1-1-.44L32.45,72.51a1.37,1.37,0,0,1,0-1.93l22-21.5a1.43,1.43,0,0,1,2,0l9.66,9.52a1.37,1.37,0,0,1,0,2,1.43,1.43,0,0,1-2,0L55.49,52,35.44,71.61,48.15,85a1.38,1.38,0,0,1-.07,2A1.43,1.43,0,0,1,47.12,87.36Z"/><path class="cls-1" d="M29.37,68.62a4,4,0,0,1-2.84-1.16l-8.79-9.38a1.37,1.37,0,0,1,.08-2,1.42,1.42,0,0,1,2,.08l8.76,9.35a1.17,1.17,0,0,0,.81.31h0a1.17,1.17,0,0,0,.84-.35L49.4,46.61a1.16,1.16,0,0,0,0-1.66L36.7,32.26c-.55-.54,0-.87.56-1.41a1.43,1.43,0,0,1,2,0L51.39,43a3.9,3.9,0,0,1,0,5.57L32.2,67.46a4,4,0,0,1-2.83,1.16Z"/></svg>