<svg id="圖層_1" data-name="圖層 1" xmlns="http://www.w3.org/2000/svg" viewBox="0 0 150 150"><defs><style>.cls-1{fill:#5daee2;}</style></defs><title>retail-pos-integration</title><path class="cls-1" d="M75,150a75,75,0,1,1,75-75A75.08,75.08,0,0,1,75,150ZM75,5.21A69.79,69.79,0,1,0,144.79,75,69.86,69.86,0,0,0,75,5.21Z"/><path class="cls-1" d="M75,136.57A61.57,61.57,0,1,1,136.58,75,61.65,61.65,0,0,1,75,136.57ZM75,16.9A58.1,58.1,0,1,0,133.1,75,58.15,58.15,0,0,0,75,16.9Z"/><path class="cls-1" d="M75,36.69V52h30.66V36.69ZM102.59,49H78.07v-9.2h24.53Z"/><rect class="cls-1" x="88.8" y="53.55" width="4.6" height="4.6"/><path class="cls-1" d="M105.66,59.69H44.34v27.6h61.32ZM75,82.69H48.93V65.82H75Zm10.73,0H79.6v-4.6h6.14Zm0-6.14H79.6V72h6.14Zm0-6.13H79.6v-4.6h6.14ZM93.4,82.69H87.26v-4.6H93.4Zm0-6.14H87.26V72H93.4Zm0-6.13H87.26v-4.6H93.4Zm7.66,12.26H94.93v-4.6h6.13Zm0-6.14H94.93V72h6.13Zm0-6.13H94.93v-4.6h6.13Z"/><path class="cls-1" d="M36.67,90.35v15.33h76.66V90.35ZM75,101.09A3.07,3.07,0,1,1,78.07,98,3.08,3.08,0,0,1,75,101.09Z"/></svg>