<svg id="圖層_1" data-name="圖層 1" xmlns="http://www.w3.org/2000/svg" viewBox="0 0 150 150"><defs><style>.cls-1{fill:#5daee2;}</style></defs><title>retail-remote-playback</title><path class="cls-1" d="M75,150a75,75,0,1,1,75-75A75.08,75.08,0,0,1,75,150ZM75,5.21A69.79,69.79,0,1,0,144.79,75,69.86,69.86,0,0,0,75,5.21Z"/><path class="cls-1" d="M75,136.57A61.57,61.57,0,1,1,136.58,75,61.65,61.65,0,0,1,75,136.57ZM75,16.9A58.1,58.1,0,1,0,133.1,75,58.15,58.15,0,0,0,75,16.9Z"/><polygon class="cls-1" points="64.25 58.76 64.25 91.85 92.48 75.31 64.25 58.76"/><path class="cls-1" d="M109.08,47.07H42.67v56.45h5V52H104.1V98.54H99.6a9.12,9.12,0,0,0-17.56,0H54.29v5H82a9.12,9.12,0,0,0,17.56,0h9.48Z"/></svg>