<svg id="圖層_1" data-name="圖層 1" xmlns="http://www.w3.org/2000/svg" viewBox="0 0 150 150"><defs><style>.cls-1{fill:#5daee2;}</style></defs><title>retail-loss-prevention</title><path class="cls-1" d="M75,150a75,75,0,1,1,75-75A75.08,75.08,0,0,1,75,150ZM75,5.21A69.79,69.79,0,1,0,144.79,75,69.86,69.86,0,0,0,75,5.21Z"/><path class="cls-1" d="M75,136.57A61.57,61.57,0,1,1,136.58,75,61.65,61.65,0,0,1,75,136.57ZM75,16.9A58.1,58.1,0,1,0,133.1,75,58.15,58.15,0,0,0,75,16.9Z"/><path class="cls-1" d="M49.95,68.75l.91,1.58a5.48,5.48,0,0,1,.75,0h3.83l.88-1.53a1.12,1.12,0,0,0-1-1.67H50.9A1.12,1.12,0,0,0,49.95,68.75Z"/><path class="cls-1" d="M95.25,101.29c5.81-2.39,11.54-4.82,17.36-7.23a3.78,3.78,0,0,0,3-3.65A5.38,5.38,0,0,0,113,85.47a4.05,4.05,0,0,0-4-.11c-3.57,1.45-7,2.91-10.62,4.36a6.11,6.11,0,0,1-1.09.39c-.15-.34-.29-.67-.42-1-1.45-3.57-1.34-3.14-2.82-6.63,0-.11-.57-1.35-1.07-2.39a14.13,14.13,0,0,1-4.51,6.54l-2.22,1.81c1.58,3.71,3.11,7.49,4.64,11.09C91.83,101.68,93,102.25,95.25,101.29Z"/><path class="cls-1" d="M55.4,80.77H50.87a2.73,2.73,0,0,0-2.75,2l-1.2,5.67a5.09,5.09,0,0,0,5,6.12h2.44a5.09,5.09,0,0,0,5-6.12l-1.17-5.67A2.72,2.72,0,0,0,55.4,80.77Z"/><path class="cls-1" d="M74.17,92.21c2.9-1.63,5.81-3.32,8.74-5l3.6-2.92C87.06,83.84,92.75,79,89,73L80.23,58.84a9.07,9.07,0,0,0-.62-1,5.12,5.12,0,0,1,.76-.07c3.45,0,7,0,10.45,0a1.31,1.31,0,0,1,1.3.72l3.73,6A3.66,3.66,0,0,0,101,65.87c2.08-1,2.52-3.26,1.28-5.24L97.12,52.1a3,3,0,0,0-2.8-1.6c-5.68,0-11.46,0-17.17.13a6.51,6.51,0,0,0-3.1,1c-3.2,2-6.25,4.17-9.41,6.25a5.24,5.24,0,0,0-2.57,4.74c0,2.78,0,5.57,0,8.37a8.42,8.42,0,0,0,0,1.12,6.87,6.87,0,0,1-1,0c-3.17,0-6.24,0-9.41,0a3.51,3.51,0,0,0-3.86,3.57,3.58,3.58,0,0,0,3.81,3.68c5,0,10.14,0,15.17,0a2.17,2.17,0,0,0,2.39-2.48c0-2.33,0-4.75,0-7.08a1.43,1.43,0,0,0,.08-.44C71.65,73,74,76.57,76.35,80.21a3.29,3.29,0,0,1-.88.57c-3,1.86-6,3.81-9,5.55a4.14,4.14,0,0,0-2.1,3.81c0,7.28.07,14.55,0,21.78a4.3,4.3,0,0,0,4.49,4.52c2.67.07,4.36-1.12,4.85-3.26a5,5,0,0,0,.05-1.28q0-9.23-.08-18.46C73.68,92.94,73.65,92.57,74.17,92.21Z"/><path class="cls-1" d="M54.55,45.67a8.54,8.54,0,0,0,8.6,8.42,8.51,8.51,0,1,0-8.6-8.42Z"/></svg>