<svg id="圖層_1" data-name="圖層 1" xmlns="http://www.w3.org/2000/svg" viewBox="0 0 150 150"><defs><style>.cls-1{fill:#ae569c;}</style></defs><title>retail-complete-solution</title><path class="cls-1" d="M75,150a75,75,0,1,1,75-75A75.09,75.09,0,0,1,75,150ZM75,5.21A69.79,69.79,0,1,0,144.79,75,69.86,69.86,0,0,0,75,5.21Z"/><path class="cls-1" d="M75,136.57A61.58,61.58,0,1,1,136.58,75,61.66,61.66,0,0,1,75,136.57ZM75,16.9A58.1,58.1,0,1,0,133.11,75,58.16,58.16,0,0,0,75,16.9Z"/><path class="cls-1" d="M77.66,39,70.52,26.88l-.3,6.84C48.88,36.1,35.51,53.66,33.8,70.08L39.87,67l5.71,4.78c3.26-22.86,24.1-26,24.1-26l-.26,6.18Z"/><path class="cls-1" d="M39,72.31,26.84,79.46l6.85.3c2.38,21.33,19.94,34.7,36.35,36.41l-3.11-6.07,4.78-5.72c-22.86-3.25-26-24.1-26-24.1l6.19.26Z"/><path class="cls-1" d="M72.7,111l7.14,12.12.3-6.85c21.34-2.38,34.7-19.94,36.42-36.35L110.48,83l-5.71-4.78c-3.26,22.86-24.1,26-24.1,26l.26-6.18Z"/><path class="cls-1" d="M111,77.65l12.12-7.14-6.85-.3C113.94,48.88,96.38,35.51,80,33.8l3.11,6.07L78.3,45.58c22.86,3.26,26,24.1,26,24.1l-6.19-.25Z"/></svg>