<svg id="圖層_1" data-name="圖層 1" xmlns="http://www.w3.org/2000/svg" viewBox="0 0 150 150"><defs><style>.cls-1{fill:#5daee2;}</style></defs><title>retail-clear-evidence</title><path class="cls-1" d="M75,150a75,75,0,1,1,75-75A75.08,75.08,0,0,1,75,150ZM75,5.21A69.79,69.79,0,1,0,144.79,75,69.86,69.86,0,0,0,75,5.21Z"/><path class="cls-1" d="M75,136.57A61.57,61.57,0,1,1,136.58,75,61.65,61.65,0,0,1,75,136.57ZM75,16.9A58.1,58.1,0,1,0,133.1,75,58.15,58.15,0,0,0,75,16.9Z"/><path class="cls-1" d="M108.43,99.25,90.1,80.92a30.58,30.58,0,0,1-9.18,9.18l18.33,18.34a6.49,6.49,0,1,0,9.18-9.18Z"/><path class="cls-1" d="M90.58,64.6a26,26,0,1,0-26,26A26,26,0,0,0,90.58,64.6Zm-26,19.48A19.48,19.48,0,1,1,84.09,64.6,19.5,19.5,0,0,1,64.61,84.08Z"/><path class="cls-1" d="M49.45,64.6h4.33A10.84,10.84,0,0,1,64.61,53.78V49.46A15.17,15.17,0,0,0,49.45,64.6Z"/></svg>