<svg id="圖層_1" data-name="圖層 1" xmlns="http://www.w3.org/2000/svg" viewBox="0 0 150 150"><defs><style>.cls-1{fill:#5daee2;}.cls-2{fill:#fff;}</style></defs><title>retail-people-counting</title><ellipse class="cls-1" cx="42.73" cy="49.06" rx="4.22" ry="4.23"/><path class="cls-1" d="M49.73,54.25h-14a1.92,1.92,0,0,0-1.93,1.92V70.85a1.93,1.93,0,0,0,1.93,1.93h.87V60.16l1-.32V72.78H47.94V59.83l1,.32V72.78h.83a1.94,1.94,0,0,0,1.93-1.93V56.17A1.93,1.93,0,0,0,49.73,54.25Z"/><rect class="cls-1" x="37.61" y="73.4" width="4.84" height="19.77"/><rect class="cls-1" x="43.11" y="73.4" width="4.84" height="19.77"/><circle class="cls-1" cx="64.24" cy="49.06" r="4.23"/><path class="cls-1" d="M71.25,54.25h-14a1.92,1.92,0,0,0-1.93,1.92V70.85a1.93,1.93,0,0,0,1.93,1.93h.87V60.16l1-.32V72.78H69.45V59.83l1,.32V72.78h.83a1.94,1.94,0,0,0,1.93-1.93V56.17A1.92,1.92,0,0,0,71.25,54.25Z"/><rect class="cls-1" x="59.13" y="73.4" width="4.84" height="19.77"/><rect class="cls-1" x="64.62" y="73.4" width="4.85" height="19.77"/><circle class="cls-1" cx="85.76" cy="49.06" r="4.23"/><path class="cls-1" d="M92.76,54.25h-14a1.92,1.92,0,0,0-1.93,1.92V70.85a1.94,1.94,0,0,0,1.93,1.93h.87V60.16l1-.32V72.78H91V59.83l1,.32V72.78h.83a1.94,1.94,0,0,0,1.93-1.93V56.17A1.92,1.92,0,0,0,92.76,54.25Z"/><rect class="cls-1" x="80.64" y="73.4" width="4.83" height="19.77"/><rect class="cls-1" x="86.14" y="73.4" width="4.84" height="19.77"/><circle class="cls-1" cx="107.27" cy="49.06" r="4.23"/><path class="cls-1" d="M114.28,54.25h-14a1.92,1.92,0,0,0-1.93,1.92V70.85a1.94,1.94,0,0,0,1.93,1.93h.87V60.16l1-.32V72.78h10.38V59.83l1,.32V72.78h.83a1.94,1.94,0,0,0,1.93-1.93V56.17A1.92,1.92,0,0,0,114.28,54.25Z"/><rect class="cls-1" x="102.16" y="73.4" width="4.83" height="19.77"/><rect class="cls-1" x="107.65" y="73.4" width="4.84" height="19.77"/><circle class="cls-1" cx="53.83" cy="65.28" r="4.22"/><path class="cls-2" d="M53.83,61.05a4.23,4.23,0,1,1-4.22,4.23,4.22,4.22,0,0,1,4.22-4.23m0-.95A5.18,5.18,0,1,0,59,65.28a5.17,5.17,0,0,0-5.17-5.17Z"/><path class="cls-1" d="M60.83,70.47h-14a1.92,1.92,0,0,0-1.93,1.92V87.07A1.93,1.93,0,0,0,46.82,89h.87V76.38l1-.33V89H59v-13l1,.33V89h.83a1.94,1.94,0,0,0,1.93-1.93V72.39A1.93,1.93,0,0,0,60.83,70.47Z"/><path class="cls-2" d="M60.83,70.47a1.93,1.93,0,0,1,1.93,1.92V87.07A1.94,1.94,0,0,1,60.83,89H60V76.38l-1-.33V89H48.66v-13l-1,.33V89h-.87a1.93,1.93,0,0,1-1.93-1.93V72.39a1.92,1.92,0,0,1,1.93-1.92h14m0-.94h-14a2.87,2.87,0,0,0-2.87,2.87V87.07A2.88,2.88,0,0,0,46.82,90h14a2.88,2.88,0,0,0,2.87-2.88V72.39a2.88,2.88,0,0,0-2.87-2.87Z"/><rect class="cls-1" x="48.71" y="89.62" width="4.84" height="19.76"/><path class="cls-2" d="M53.55,89.62v19.76H48.71V89.62h4.84m.94-.95H47.76v21.66h6.73V88.67Z"/><rect class="cls-1" x="54.21" y="89.62" width="4.84" height="19.76"/><path class="cls-2" d="M59,89.62v19.76H54.21V89.62H59m.95-.95H53.26v21.66H60V88.67Z"/><circle class="cls-1" cx="75.34" cy="65.28" r="4.23"/><path class="cls-2" d="M75.34,61.05a4.23,4.23,0,1,1-4.22,4.23,4.22,4.22,0,0,1,4.22-4.23m0-.95a5.18,5.18,0,1,0,5.17,5.17,5.18,5.18,0,0,0-5.17-5.17Z"/><path class="cls-1" d="M82.35,70.47h-14a1.92,1.92,0,0,0-1.93,1.92V87.07A1.93,1.93,0,0,0,68.34,89h.87V76.38l1-.33V89H80.55v-13l1,.33V89h.83a1.94,1.94,0,0,0,1.93-1.93V72.39A1.93,1.93,0,0,0,82.35,70.47Z"/><path class="cls-2" d="M82.35,70.47a1.93,1.93,0,0,1,1.93,1.92V87.07A1.94,1.94,0,0,1,82.35,89h-.83V76.38l-1-.33V89H70.17v-13l-1,.33V89h-.87a1.93,1.93,0,0,1-1.93-1.93V72.39a1.92,1.92,0,0,1,1.93-1.92h14m0-.94h-14a2.87,2.87,0,0,0-2.87,2.87V87.07A2.88,2.88,0,0,0,68.34,90h14a2.88,2.88,0,0,0,2.87-2.88V72.39a2.87,2.87,0,0,0-2.87-2.87Z"/><rect class="cls-1" x="70.23" y="89.62" width="4.84" height="19.76"/><path class="cls-2" d="M75.06,89.62v19.76H70.23V89.62h4.84m.94-.95H69.28v21.66H76V88.67Z"/><rect class="cls-1" x="75.72" y="89.62" width="4.84" height="19.76"/><path class="cls-2" d="M80.56,89.62v19.76H75.72V89.62h4.84m.95-.95H74.77v21.66h6.74V88.67Z"/><circle class="cls-1" cx="96.86" cy="65.28" r="4.23"/><path class="cls-2" d="M96.86,61.05a4.23,4.23,0,1,1-4.23,4.23,4.22,4.22,0,0,1,4.23-4.23m0-.95A5.18,5.18,0,1,0,102,65.28a5.18,5.18,0,0,0-5.17-5.17Z"/><path class="cls-1" d="M103.86,70.47h-14a1.92,1.92,0,0,0-1.93,1.92V87.07A1.93,1.93,0,0,0,89.85,89h.87V76.38l1-.33V89h10.38v-13l1,.33V89h.83a1.94,1.94,0,0,0,1.93-1.93V72.39A1.93,1.93,0,0,0,103.86,70.47Z"/><path class="cls-2" d="M103.86,70.47a1.93,1.93,0,0,1,1.93,1.92V87.07A1.94,1.94,0,0,1,103.86,89H103V76.38l-1-.33V89H91.69v-13l-1,.33V89h-.87a1.93,1.93,0,0,1-1.93-1.93V72.39a1.92,1.92,0,0,1,1.93-1.92h14m0-.94h-14A2.87,2.87,0,0,0,87,72.39V87.07A2.88,2.88,0,0,0,89.85,90h14a2.88,2.88,0,0,0,2.87-2.88V72.39a2.87,2.87,0,0,0-2.87-2.87Z"/><rect class="cls-1" x="91.74" y="89.62" width="4.83" height="19.76"/><path class="cls-2" d="M96.58,89.62v19.76H91.74V89.62h4.83m.95-.95H90.8v21.66h6.73V88.67Z"/><rect class="cls-1" x="97.24" y="89.62" width="4.84" height="19.76"/><path class="cls-2" d="M102.08,89.62v19.76H97.24V89.62h4.84m.94-.95H96.29v21.66H103V88.67Z"/><path class="cls-1" d="M75,150a75,75,0,1,1,75-75A75.09,75.09,0,0,1,75,150ZM75,5.21A69.79,69.79,0,1,0,144.79,75,69.86,69.86,0,0,0,75,5.21Z"/><path class="cls-1" d="M75,136.57A61.57,61.57,0,1,1,136.58,75,61.65,61.65,0,0,1,75,136.57ZM75,16.9A58.1,58.1,0,1,0,133.1,75,58.15,58.15,0,0,0,75,16.9Z"/></svg>