<svg id="圖層_1" data-name="圖層 1" xmlns="http://www.w3.org/2000/svg" viewBox="0 0 150 150"><defs><style>.cls-1{fill:#e85377;}</style></defs><title>retail-easy-installation</title><path class="cls-1" d="M51.5,87.38V79.94c0-1.19-2.16-3.64-3.11-3.64v-35l.69-3.08-.69-6.14H44.94l-.69,6.14.69,3.08v35c-.94,0-3.1,2.45-3.1,3.64v7.44A4.23,4.23,0,0,0,39.41,91v21.22a4.61,4.61,0,0,0,4.84,4.3h4.84a4.6,4.6,0,0,0,4.83-4.3V91A4.22,4.22,0,0,0,51.5,87.38Z"/><path class="cls-1" d="M83.1,44.85c0-4.21-1.75-9-4.45-11.72H75.84V43.82l-7,3.6h-.18l-7-3.61V33.13h-2.8c-2.71,2.71-4.46,7.5-4.46,11.72,0,5.93,5.1,8.93,9.17,9.9v56.77a4.94,4.94,0,0,0,4.83,5h.69a4.94,4.94,0,0,0,4.83-5V54.75C78,53.78,83.1,50.78,83.1,44.85Z"/><path class="cls-1" d="M75,150a75,75,0,1,1,75-75A75.09,75.09,0,0,1,75,150ZM75,5.21A69.79,69.79,0,1,0,144.79,75,69.86,69.86,0,0,0,75,5.21Z"/><path class="cls-1" d="M75.09,137.52a61.58,61.58,0,1,1,61.58-61.59A61.65,61.65,0,0,1,75.09,137.52Zm0-119.68a58.1,58.1,0,1,0,58.1,58.09A58.16,58.16,0,0,0,75.09,17.85Z"/><path class="cls-1" d="M99.67,116.54A20.72,20.72,0,1,1,120.4,95.82,20.74,20.74,0,0,1,99.67,116.54Zm0-37.09A16.37,16.37,0,1,0,116,95.82,16.39,16.39,0,0,0,99.67,79.44Z"/><rect class="cls-1" x="92.86" y="68" width="13.25" height="3.86"/><rect class="cls-1" x="97.7" y="72.83" width="3.56" height="3.14"/><path class="cls-1" d="M99.49,83.18V96h12.79A12.79,12.79,0,0,0,99.49,83.18Z"/><rect class="cls-1" x="83.53" y="93.58" width="4.87" height="2.38"/><rect class="cls-1" x="98.29" y="106.86" width="2.39" height="4.88"/><path class="cls-1" d="M101.85,95.82a2.18,2.18,0,1,1-2.18-2.18A2.18,2.18,0,0,1,101.85,95.82Z"/></svg>