<svg xmlns="http://www.w3.org/2000/svg" viewBox="0 0 149 149"><defs><style>.cls-1{fill:#409bd6;}</style></defs><title>see-more-180-degree-solutions</title><g id="圖層_2" data-name="圖層 2"><g id="圖層_1-2" data-name="圖層 1"><path class="cls-1" d="M74.5,149A74.5,74.5,0,1,1,149,74.49,74.59,74.59,0,0,1,74.5,149Zm0-143.82a69.32,69.32,0,1,0,69.32,69.31A69.39,69.39,0,0,0,74.5,5.18Z"/><path class="cls-1" d="M74.5,135.66a61.16,61.16,0,1,1,61.17-61.17A61.24,61.24,0,0,1,74.5,135.66Zm0-118.87a57.72,57.72,0,1,0,57.72,57.7A57.77,57.77,0,0,0,74.5,16.79Z"/><path class="cls-1" d="M112.58,67.7a9.67,9.67,0,0,1,2.38,6c0,10-18.11,18-40.46,18S34,83.7,34,73.75a9.73,9.73,0,0,1,2.38-6c-4.18,3.16-6.63,6.86-6.63,10.84,0,11.46,20,20.75,44.71,20.75S119.21,90,119.21,78.54C119.21,74.56,116.76,70.86,112.58,67.7Z"/><path class="cls-1" d="M49.23,50.35h7.26V75.83H51.68V54.91H46.43Z"/><path class="cls-1" d="M76.34,62A7.7,7.7,0,0,1,79,64.87,7.78,7.78,0,0,1,80,68.64a7.92,7.92,0,0,1-1.1,4.07,7.14,7.14,0,0,1-3,2.82,10.39,10.39,0,0,1-4.73,1,11.12,11.12,0,0,1-4.9-.91,7,7,0,0,1-2.92-2.76,8.11,8.11,0,0,1-1.09-4.17A7.68,7.68,0,0,1,63.15,65,8.85,8.85,0,0,1,65.77,62a8.56,8.56,0,0,1-1.72-2.47,6.67,6.67,0,0,1-.58-2.76,7,7,0,0,1,1-3.63,6.56,6.56,0,0,1,2.7-2.54,8.39,8.39,0,0,1,4-.91,8.16,8.16,0,0,1,3.94.91,6.83,6.83,0,0,1,2.67,2.61,7,7,0,0,1,1,3.63,6.42,6.42,0,0,1-.5,2.53A10.21,10.21,0,0,1,76.34,62Zm-5.18,2.59a4.23,4.23,0,0,0-2.94,1.06A3.29,3.29,0,0,0,67,68.21a3.49,3.49,0,0,0,1.12,2.61,4.17,4.17,0,0,0,3,1.06,4.24,4.24,0,0,0,3-1,3.33,3.33,0,0,0,1.1-2.57A3.49,3.49,0,0,0,74,65.67,4,4,0,0,0,71.16,64.61ZM71,54.39a2.66,2.66,0,0,0-2,.78,2.79,2.79,0,0,0-.77,2,2.84,2.84,0,0,0,.82,2.06,2.89,2.89,0,0,0,4,0,2.93,2.93,0,0,0,.78-2.11,2.67,2.67,0,0,0-.79-2A2.91,2.91,0,0,0,71,54.39Z"/><path class="cls-1" d="M91.19,49.71A8.34,8.34,0,0,1,96,51.08a8.67,8.67,0,0,1,3.13,4.18,22.34,22.34,0,0,1,1.1,7.84A22.3,22.3,0,0,1,99.1,71a8.9,8.9,0,0,1-3,4.15,8.09,8.09,0,0,1-4.76,1.33,8.41,8.41,0,0,1-4.84-1.34,8.74,8.74,0,0,1-3.06-4,21.31,21.31,0,0,1-1.11-7.75q0-7,2.17-10.17A7.7,7.7,0,0,1,91.19,49.71Zm.11,4.61a3.32,3.32,0,0,0-2.17.78,5.13,5.13,0,0,0-1.46,2.72,24,24,0,0,0-.5,5.63c0,3.22.38,5.44,1.15,6.68a3.42,3.42,0,0,0,3,1.84,3.13,3.13,0,0,0,2.8-1.75c.84-1.41,1.26-3.76,1.26-7.07s-.37-5.66-1.13-6.93A3.34,3.34,0,0,0,91.3,54.32Z"/><path class="cls-1" d="M114.73,55.67A5.7,5.7,0,0,1,113,59.9a5.83,5.83,0,0,1-4.25,1.73,5.91,5.91,0,0,1-6-6,5.65,5.65,0,0,1,1.77-4.18,5.89,5.89,0,0,1,4.24-1.73,5.92,5.92,0,0,1,6,6Zm-2.06,0a4,4,0,0,0-1.12-2.88,3.72,3.72,0,0,0-2.75-1.16A3.82,3.82,0,0,0,106,52.82a3.86,3.86,0,0,0-1.16,2.84A3.91,3.91,0,0,0,106,58.49a3.82,3.82,0,0,0,5.53,0A3.93,3.93,0,0,0,112.67,55.69Z"/></g></g></svg>