<svg xmlns="http://www.w3.org/2000/svg" viewBox="0 0 149 149"><defs><style>.cls-1{fill:#409bd6;}</style></defs><title>see-more-heat-map</title><g id="圖層_2" data-name="圖層 2"><g id="圖層_1-2" data-name="圖層 1"><path class="cls-1" d="M74.5,149A74.5,74.5,0,1,1,149,74.49,74.59,74.59,0,0,1,74.5,149Zm0-143.82a69.32,69.32,0,1,0,69.32,69.31A69.39,69.39,0,0,0,74.5,5.18Z"/><path class="cls-1" d="M74.49,135.66a61.16,61.16,0,1,1,61.17-61.17A61.24,61.24,0,0,1,74.49,135.66Zm0-118.87a57.71,57.71,0,1,0,57.73,57.7A57.77,57.77,0,0,0,74.49,16.79Z"/><path class="cls-1" d="M76.37,48.39A18.68,18.68,0,1,0,95.05,67.06,18.67,18.67,0,0,0,76.37,48.39Zm0,28a9.34,9.34,0,1,1,9.33-9.34A9.33,9.33,0,0,1,76.37,76.4Z"/><path class="cls-1" d="M100.65,89.48A9.35,9.35,0,1,0,110,98.82,9.34,9.34,0,0,0,100.65,89.48Z"/><path class="cls-1" d="M48.34,80.14a9.35,9.35,0,1,0,9.35,9.34A9.34,9.34,0,0,0,48.34,80.14Zm0,13.08a3.74,3.74,0,1,1,3.74-3.74A3.73,3.73,0,0,1,48.34,93.22Z"/><path class="cls-1" d="M100.65,76.4a3.74,3.74,0,1,0,3.74-3.73A3.73,3.73,0,0,0,100.65,76.4Z"/><path class="cls-1" d="M61.42,100.7a3.74,3.74,0,1,0,3.74,3.73A3.73,3.73,0,0,0,61.42,100.7Z"/><path class="cls-1" d="M48.34,57.72a5.6,5.6,0,1,0-5.59-5.6A5.6,5.6,0,0,0,48.34,57.72Z"/><path class="cls-1" d="M76.37,93.22A5.61,5.61,0,1,0,82,98.83,5.61,5.61,0,0,0,76.37,93.22Zm0,7.48a1.87,1.87,0,1,1,1.87-1.87A1.87,1.87,0,0,1,76.37,100.7Z"/><path class="cls-1" d="M104.39,57.72a5.6,5.6,0,1,0-5.61-5.6A5.6,5.6,0,0,0,104.39,57.72Z"/></g></g></svg>