<svg xmlns="http://www.w3.org/2000/svg" viewBox="0 0 149 149"><defs><style>.cls-1{fill:#409bd6;}</style></defs><title>see-more-snv-ii</title><g id="圖層_2" data-name="圖層 2"><g id="圖層_1-2" data-name="圖層 1"><path class="cls-1" d="M74.5,149A74.5,74.5,0,1,1,149,74.49,74.59,74.59,0,0,1,74.5,149Zm0-143.82a69.32,69.32,0,1,0,69.32,69.31A69.39,69.39,0,0,0,74.5,5.18Z"/><path class="cls-1" d="M74.49,135.66a61.16,61.16,0,1,1,61.17-61.17A61.24,61.24,0,0,1,74.49,135.66Zm0-118.87a57.71,57.71,0,1,0,57.73,57.7A57.77,57.77,0,0,0,74.49,16.79Z"/><path class="cls-1" d="M115.26,65.64a43.05,43.05,0,0,0-26.11-31.5,43.09,43.09,0,0,1-46.84,70.24,43.1,43.1,0,0,0,73-38.74Z"/><polygon class="cls-1" points="53.69 71.92 58.37 79.26 58.91 70.57 67.33 68.38 59.23 65.19 59.76 56.51 54.22 63.22 46.12 60.03 50.79 67.38 45.26 74.11 53.69 71.92"/><polygon class="cls-1" points="82.23 63.83 84.81 67.88 85.1 63.09 89.75 61.88 85.28 60.13 85.57 55.33 82.52 59.04 78.06 57.28 80.64 61.33 77.58 65.04 82.23 63.83"/><polygon class="cls-1" points="68.68 90.32 66.44 93.03 69.84 92.14 71.72 95.09 71.93 91.6 75.33 90.72 72.06 89.43 72.28 85.94 70.05 88.64 66.79 87.36 68.68 90.32"/></g></g></svg>