<svg xmlns="http://www.w3.org/2000/svg" viewBox="0 0 149 149"><defs><style>.cls-1{fill:#409bd6;}</style></defs><title>see-more-easy-installation</title><g id="圖層_2" data-name="圖層 2"><g id="圖層_1-2" data-name="圖層 1"><path class="cls-1" d="M74.5,149A74.5,74.5,0,1,1,149,74.49,74.59,74.59,0,0,1,74.5,149Zm0-143.82a69.32,69.32,0,1,0,69.32,69.31A69.39,69.39,0,0,0,74.5,5.18Z"/><path class="cls-1" d="M74.49,135.66a61.16,61.16,0,1,1,61.17-61.17A61.24,61.24,0,0,1,74.49,135.66Zm0-118.87a57.72,57.72,0,1,0,57.73,57.7A57.77,57.77,0,0,0,74.49,16.79Z"/><path class="cls-1" d="M56.86,84.66V78.21c0-1-1.87-3.15-2.69-3.15V44.72l.59-2.66-.59-5.33h-3l-.6,5.33.6,2.66V75.06c-.82,0-2.68,2.12-2.68,3.15v6.45a3.66,3.66,0,0,0-2.11,3.15V106.2a4,4,0,0,0,4.19,3.73h4.2A4,4,0,0,0,59,106.2V87.81A3.64,3.64,0,0,0,56.86,84.66Z"/><path class="cls-1" d="M84.24,47.8a15.32,15.32,0,0,0-3.86-10.15H78v9.26L71.9,50h-.15l-6.07-3.12V37.65H63.25A15.27,15.27,0,0,0,59.39,47.8c0,5.14,4.42,7.74,7.94,8.59v49.19a4.28,4.28,0,0,0,4.19,4.35h.6a4.29,4.29,0,0,0,4.18-4.35V56.39C79.83,55.54,84.24,52.94,84.24,47.8Z"/><path class="cls-1" d="M98.6,109.93a18,18,0,1,1,18-18A18,18,0,0,1,98.6,109.93Zm0-32.14A14.19,14.19,0,1,0,112.79,92,14.2,14.2,0,0,0,98.6,77.79Z"/><rect class="cls-1" x="92.7" y="67.86" width="11.47" height="3.34"/><rect class="cls-1" x="96.9" y="72.05" width="3.09" height="2.72"/><path class="cls-1" d="M98.45,81V92.1h11.07A11.08,11.08,0,0,0,98.45,81Z"/><rect class="cls-1" x="84.61" y="90.04" width="4.23" height="2.06"/><rect class="cls-1" x="97.41" y="101.54" width="2.07" height="4.23"/><path class="cls-1" d="M100.49,92a1.89,1.89,0,1,1-1.89-1.89A1.89,1.89,0,0,1,100.49,92Z"/></g></g></svg>