<svg xmlns="http://www.w3.org/2000/svg" viewBox="0 0 149 149"><defs><style>.cls-1{fill:#409bd6;}</style></defs><title>see-more-smart-ir-ii</title><g id="圖層_2" data-name="圖層 2"><g id="圖層_1-2" data-name="圖層 1"><path class="cls-1" d="M74.5,149A74.5,74.5,0,1,1,149,74.49,74.59,74.59,0,0,1,74.5,149Zm0-143.82a69.32,69.32,0,1,0,69.32,69.31A69.39,69.39,0,0,0,74.5,5.18Z"/><path class="cls-1" d="M74.49,135.66a61.16,61.16,0,1,1,61.17-61.17A61.24,61.24,0,0,1,74.49,135.66Zm0-118.87a57.71,57.71,0,1,0,57.73,57.7A57.77,57.77,0,0,0,74.49,16.79Z"/><path class="cls-1" d="M64.37,48a6.68,6.68,0,1,1-6.68-6.69A6.69,6.69,0,0,1,64.37,48Z"/><path class="cls-1" d="M68.75,56.18H46.61a3,3,0,0,0-3,3V82.4a3,3,0,0,0,3,3.06H48V65.51L49.52,65V85.46H65.91V65l1.52.52V85.46h1.32a3.06,3.06,0,0,0,3-3.06V59.21A3,3,0,0,0,68.75,56.18Z"/><rect class="cls-1" x="49.6" y="86.43" width="7.65" height="31.23"/><rect class="cls-1" x="58.28" y="86.43" width="7.65" height="31.23"/><path class="cls-1" d="M88.36,42.61a3.91,3.91,0,1,1-3.91-3.91A3.9,3.9,0,0,1,88.36,42.61Z"/><path class="cls-1" d="M90.93,47.41H78a1.78,1.78,0,0,0-1.78,1.78V62.75A1.79,1.79,0,0,0,78,64.55h.81V52.87l.89-.3v12h9.6v-12l.89.3V64.55h.77a1.79,1.79,0,0,0,1.78-1.8V49.19A1.78,1.78,0,0,0,90.93,47.41Z"/><rect class="cls-1" x="79.72" y="65.11" width="4.48" height="18.27"/><rect class="cls-1" x="84.8" y="65.11" width="4.48" height="18.27"/><path class="cls-1" d="M106.05,39.65a2.18,2.18,0,1,1-2.17-2.17A2.18,2.18,0,0,1,106.05,39.65Z"/><path class="cls-1" d="M107.47,42.33h-7.2a1,1,0,0,0-1,1v7.55a1,1,0,0,0,1,1h.45V45.36l.5-.17v6.66h5.33V45.19l.5.17v6.49h.42a1,1,0,0,0,1-1V43.31A1,1,0,0,0,107.47,42.33Z"/><rect class="cls-1" x="101.24" y="52.17" width="2.49" height="10.16"/><rect class="cls-1" x="104.06" y="52.17" width="2.49" height="10.16"/></g></g></svg>