<svg xmlns="http://www.w3.org/2000/svg" viewBox="0 0 149 149"><defs><style>.cls-1{fill:#409bd6;}</style></defs><title>see-more-advanced-technology</title><g id="圖層_2" data-name="圖層 2"><g id="圖層_1-2" data-name="圖層 1"><path class="cls-1" d="M74.5,149A74.5,74.5,0,1,1,149,74.49,74.59,74.59,0,0,1,74.5,149Zm0-143.82a69.32,69.32,0,1,0,69.32,69.31A69.39,69.39,0,0,0,74.5,5.18Z"/><path class="cls-1" d="M74.49,135.66a61.16,61.16,0,1,1,61.17-61.17A61.24,61.24,0,0,1,74.49,135.66Zm0-118.87a57.72,57.72,0,1,0,57.73,57.7A57.77,57.77,0,0,0,74.49,16.79Z"/><path class="cls-1" d="M114.21,76.92a.69.69,0,0,0-.16-.18,1,1,0,0,0-.26-.28s-.1,0-.14-.06-.06-.06-.1-.07L108.1,74V63.5a1.43,1.43,0,0,0-.88-1.32L93.15,56.27V42.78a1.42,1.42,0,0,0-.22-.73.93.93,0,0,0-.16-.18,1.39,1.39,0,0,0-.26-.28s-.1,0-.15-.06,0-.05-.09-.07L75.05,34.24a1.4,1.4,0,0,0-1.1,0L56.72,41.46s0,.06-.08.07-.11,0-.16.06a1.72,1.72,0,0,0-.25.28.93.93,0,0,0-.16.18,1.33,1.33,0,0,0-.22.73V56.27L41.78,62.18a1.43,1.43,0,0,0-.88,1.32V74l-5.46,2.29s0,0-.09.07-.1,0-.15.06a1.12,1.12,0,0,0-.25.28,1,1,0,0,0-.17.18,1.45,1.45,0,0,0-.22.73V97.17a1.44,1.44,0,0,0,.88,1.32l6,2.53c.11.08.18.2.3.25L74,114.76a1.43,1.43,0,0,0,1.1,0l32.17-13.49c.12,0,.19-.17.3-.25l6-2.53a1.43,1.43,0,0,0,.89-1.32V77.65A1.37,1.37,0,0,0,114.21,76.92ZM80,79.81l14.35,6v16.41L80,96.22ZM58.72,44.94l14.35,6V67.36l-14.35-6Zm17.21,6,14.36-6v16.4l-14.36,6ZM54.65,85.82l14.35-6V96.22l-14.35,6Zm-17.22-6,14.35,6v16.41l-14.35-6ZM74.5,111.89l-17.73-7.44,14.22-6a1.43,1.43,0,0,0,.87-1.32V77.65a1.36,1.36,0,0,0-.22-.73.69.69,0,0,0-.16-.18,1.35,1.35,0,0,0-.25-.28s-.11,0-.15-.06,0-.06-.09-.07L53.77,69.11a1.43,1.43,0,0,0-1.11,0l-8.89,3.73V64.45l12.08-5.07V62.3a1.44,1.44,0,0,0,.87,1.32L74,70.84a1.43,1.43,0,0,0,1.1,0l17.22-7.22a1.45,1.45,0,0,0,.88-1.32V59.38l12.08,5.07v8.39l-8.89-3.73a1.4,1.4,0,0,0-1.1,0L78,76.33s-.05,0-.09.07-.1,0-.15.06a1.35,1.35,0,0,0-.25.28.93.93,0,0,0-.16.18,1.36,1.36,0,0,0-.22.73V97.17A1.43,1.43,0,0,0,78,98.49l14.22,6Zm37.07-15.67-14.35,6V85.82l14.35-6Z"/></g></g></svg>