<svg xmlns="http://www.w3.org/2000/svg" viewBox="0 0 149 149"><defs><style>.cls-1{fill:#409bd6;}</style></defs><title>see-more-complete-solution</title><g id="圖層_2" data-name="圖層 2"><g id="圖層_1-2" data-name="圖層 1"><path class="cls-1" d="M74.5,149A74.5,74.5,0,1,1,149,74.49,74.59,74.59,0,0,1,74.5,149Zm0-143.82a69.32,69.32,0,1,0,69.32,69.31A69.39,69.39,0,0,0,74.5,5.18Z"/><path class="cls-1" d="M74.5,135.66a61.16,61.16,0,1,1,61.17-61.17A61.24,61.24,0,0,1,74.5,135.66Zm0-118.87a57.72,57.72,0,1,0,57.72,57.7A57.77,57.77,0,0,0,74.5,16.79Z"/><path class="cls-1" d="M77.1,39.33l-7-11.84-.29,6.68C49,36.5,35.92,53.65,34.25,69.69l5.93-3,5.58,4.67C49,49,69.31,45.92,69.31,45.92l-.26,6Z"/><path class="cls-1" d="M39.29,71.87l-11.85,7,6.69.29c2.33,20.84,19.48,33.91,35.52,35.58l-3-5.94,4.67-5.58C49,100,45.88,79.66,45.88,79.66l6,.26Z"/><path class="cls-1" d="M72.25,109.67l7,11.84.29-6.69c20.85-2.32,33.91-19.48,35.58-35.52l-5.93,3-5.58-4.66C100.4,100,80,103.08,80,103.08l.25-6Z"/><path class="cls-1" d="M109.72,77.09l11.84-7-6.69-.29C112.55,49,95.39,35.92,79.35,34.24l3,5.93-4.67,5.59c22.34,3.18,25.4,23.54,25.4,23.54l-6-.25Z"/></g></g></svg>