<svg xmlns="http://www.w3.org/2000/svg" viewBox="0 0 149 149"><defs><style>.cls-1{fill:#409bd6;}</style></defs><title>see-more-people-counting</title><g id="圖層_2" data-name="圖層 2"><g id="圖層_1-2" data-name="圖層 1"><path class="cls-1" d="M74.5,149A74.5,74.5,0,1,1,149,74.49,74.59,74.59,0,0,1,74.5,149Zm0-143.82a69.32,69.32,0,1,0,69.32,69.31A69.39,69.39,0,0,0,74.5,5.18Z"/><path class="cls-1" d="M74.5,135.66a61.16,61.16,0,1,1,61.17-61.17A61.24,61.24,0,0,1,74.5,135.66Zm0-118.87a57.71,57.71,0,1,0,57.72,57.7A57.77,57.77,0,0,0,74.5,16.79Z"/><path class="cls-1" d="M85.35,59.49a6.11,6.11,0,0,1-5.8,6.38c-3.19,0-5.79-2.85-5.79-6.38a5.82,5.82,0,1,1,11.59,0Z"/><path class="cls-1" d="M89.76,68.42,83.24,66a6.37,6.37,0,0,1-7.36,0l-6.52,2.44L66.81,90.09l2.55,1.27,2.55-15.29,1.28,38.23h4l2.41-22.94L82,114.3h4L87.2,76.07l2.56,15.29,2.54-1.27Z"/><polygon class="cls-1" points="45.68 34.7 62.97 46.22 62.97 111.56 45.68 111.55 45.68 34.7"/><polygon class="cls-1" points="45.68 34.7 45.68 111.55 69.25 111.55 69.12 107.71 49.52 107.71 49.52 38.53 99.48 38.53 99.48 107.71 90 107.71 89.87 111.55 103.32 111.55 103.32 34.7 45.68 34.7"/></g></g></svg>