<svg xmlns="http://www.w3.org/2000/svg" viewBox="0 0 149 149"><defs><style>.cls-1{fill:#409bd6;}</style></defs><title>see-more-trust-and-reliability</title><g id="圖層_2" data-name="圖層 2"><g id="圖層_1-2" data-name="圖層 1"><path class="cls-1" d="M74.5,149A74.5,74.5,0,1,1,149,74.49,74.59,74.59,0,0,1,74.5,149Zm0-143.82a69.32,69.32,0,1,0,69.32,69.31A69.39,69.39,0,0,0,74.5,5.18Z"/><path class="cls-1" d="M74.49,135.66a61.16,61.16,0,1,1,61.18-61.17A61.24,61.24,0,0,1,74.49,135.66Zm0-118.87a57.72,57.72,0,1,0,57.73,57.7A57.77,57.77,0,0,0,74.49,16.79Z"/><path class="cls-1" d="M74.5,115.61l-.86-.38C50.25,104.79,42.38,79.46,42.38,69.5V50.18L74.5,40l32.12,10.15V69.5c0,10-7.87,35.29-31.26,45.73ZM46.6,53.28V69.5c0,10,8.2,32.16,27.9,41.48,19.7-9.32,27.9-31.5,27.9-41.48V53.28L74.5,44.46Z"/><path class="cls-1" d="M74.5,50.29,51.25,57.64V71.41c0,7.73,6.34,26.4,23.25,34,16.91-7.55,23.26-26.22,23.26-33.95V57.64ZM73.4,89,61.65,77.25l3.76-3.76,8,8,13-13,3.76,3.76Z"/></g></g></svg>