<svg xmlns="http://www.w3.org/2000/svg" viewBox="0 0 149 149"><defs><style>.cls-1{fill:#409bd6;}</style></defs><title>see-more-smart-stream-iii</title><g id="圖層_2" data-name="圖層 2"><g id="圖層_1-2" data-name="圖層 1"><path class="cls-1" d="M74.5,149A74.5,74.5,0,1,1,149,74.49,74.59,74.59,0,0,1,74.5,149Zm0-143.82a69.32,69.32,0,1,0,69.32,69.31A69.39,69.39,0,0,0,74.5,5.18Z"/><path class="cls-1" d="M74.5,135.66a61.16,61.16,0,1,1,61.17-61.17A61.24,61.24,0,0,1,74.5,135.66Zm0-118.87a57.71,57.71,0,1,0,57.72,57.7A57.77,57.77,0,0,0,74.5,16.79Z"/><rect class="cls-1" x="40.83" y="85.01" width="3.5" height="3.49"/><rect class="cls-1" x="40.83" y="92" width="3.5" height="3.5"/><rect class="cls-1" x="40.83" y="78.01" width="3.5" height="3.49"/><rect class="cls-1" x="40.83" y="71.01" width="3.5" height="3.5"/><rect class="cls-1" x="40.83" y="64.01" width="3.5" height="3.49"/><rect class="cls-1" x="44.33" y="81.5" width="3.5" height="3.51"/><rect class="cls-1" x="44.33" y="88.5" width="3.5" height="3.5"/><rect class="cls-1" x="44.33" y="74.51" width="3.5" height="3.5"/><rect class="cls-1" x="44.33" y="67.5" width="3.5" height="3.51"/><rect class="cls-1" x="44.33" y="60.51" width="3.5" height="3.5"/><rect class="cls-1" x="37.34" y="81.5" width="3.49" height="3.51"/><rect class="cls-1" x="37.34" y="88.5" width="3.49" height="3.5"/><rect class="cls-1" x="37.34" y="74.51" width="3.49" height="3.5"/><rect class="cls-1" x="37.34" y="67.5" width="3.49" height="3.51"/><rect class="cls-1" x="37.34" y="60.51" width="3.49" height="3.5"/><rect class="cls-1" x="40.83" y="57.01" width="3.5" height="3.5"/><rect class="cls-1" x="44.33" y="53.5" width="3.5" height="3.51"/><rect class="cls-1" x="47.83" y="85.01" width="3.5" height="3.49"/><rect class="cls-1" x="47.83" y="92" width="3.5" height="3.5"/><rect class="cls-1" x="47.83" y="78.01" width="3.5" height="3.49"/><rect class="cls-1" x="47.83" y="71.01" width="3.5" height="3.5"/><rect class="cls-1" x="47.83" y="64.01" width="3.5" height="3.49"/><rect class="cls-1" x="51.34" y="81.5" width="3.5" height="3.51"/><rect class="cls-1" x="51.34" y="88.5" width="3.5" height="3.5"/><rect class="cls-1" x="51.34" y="74.51" width="3.5" height="3.5"/><rect class="cls-1" x="51.34" y="67.5" width="3.5" height="3.51"/><rect class="cls-1" x="51.34" y="60.51" width="3.5" height="3.5"/><rect class="cls-1" x="47.83" y="57.01" width="3.5" height="3.5"/><rect class="cls-1" x="51.34" y="53.5" width="3.5" height="3.51"/><rect class="cls-1" x="54.83" y="85.01" width="3.5" height="3.49"/><rect class="cls-1" x="54.83" y="92" width="3.5" height="3.5"/><rect class="cls-1" x="54.83" y="78.01" width="3.5" height="3.49"/><rect class="cls-1" x="54.83" y="71.01" width="3.5" height="3.5"/><rect class="cls-1" x="54.83" y="64.01" width="3.5" height="3.49"/><rect class="cls-1" x="58.33" y="81.5" width="3.5" height="3.51"/><rect class="cls-1" x="58.33" y="88.5" width="3.5" height="3.5"/><rect class="cls-1" x="58.33" y="74.51" width="3.5" height="3.5"/><rect class="cls-1" x="58.33" y="67.5" width="3.5" height="3.51"/><rect class="cls-1" x="58.33" y="60.51" width="3.5" height="3.5"/><rect class="cls-1" x="54.83" y="57.01" width="3.5" height="3.5"/><rect class="cls-1" x="58.33" y="53.5" width="3.5" height="3.51"/><rect class="cls-1" x="61.83" y="85.01" width="3.49" height="3.49"/><rect class="cls-1" x="61.83" y="92" width="3.49" height="3.5"/><rect class="cls-1" x="61.83" y="78.01" width="3.49" height="3.49"/><rect class="cls-1" x="61.83" y="71.01" width="3.49" height="3.5"/><rect class="cls-1" x="61.83" y="64.01" width="3.49" height="3.49"/><rect class="cls-1" x="65.33" y="81.5" width="3.5" height="3.51"/><rect class="cls-1" x="65.33" y="88.5" width="3.5" height="3.5"/><rect class="cls-1" x="65.33" y="74.51" width="3.5" height="3.5"/><rect class="cls-1" x="65.33" y="67.5" width="3.5" height="3.51"/><rect class="cls-1" x="65.33" y="60.51" width="3.5" height="3.5"/><rect class="cls-1" x="61.83" y="57.01" width="3.49" height="3.5"/><rect class="cls-1" x="65.33" y="53.5" width="3.5" height="3.51"/><rect class="cls-1" x="68.83" y="85.01" width="3.5" height="3.49"/><rect class="cls-1" x="68.83" y="92" width="3.5" height="3.5"/><rect class="cls-1" x="68.83" y="78.01" width="3.5" height="3.49"/><rect class="cls-1" x="68.83" y="71.01" width="3.5" height="3.5"/><rect class="cls-1" x="68.83" y="64.01" width="3.5" height="3.49"/><rect class="cls-1" x="72.33" y="81.5" width="3.5" height="3.51"/><rect class="cls-1" x="72.33" y="88.5" width="3.5" height="3.5"/><rect class="cls-1" x="72.33" y="74.51" width="3.5" height="3.5"/><rect class="cls-1" x="72.33" y="67.5" width="3.5" height="3.51"/><rect class="cls-1" x="72.33" y="60.51" width="3.5" height="3.5"/><rect class="cls-1" x="68.83" y="57.01" width="3.5" height="3.5"/><rect class="cls-1" x="72.33" y="53.5" width="3.5" height="3.51"/><rect class="cls-1" x="75.83" y="53.5" width="35.83" height="42"/><rect class="cls-1" x="74.95" y="47.27" width="2.4" height="54.46"/></g></g></svg>