<svg xmlns="http://www.w3.org/2000/svg" viewBox="0 0 149 149"><defs><style>.cls-1{fill:#409bd6;}</style></defs><title>see-more-multiple-views-solution</title><g id="圖層_2" data-name="圖層 2"><g id="圖層_1-2" data-name="圖層 1"><path class="cls-1" d="M74.5,149A74.5,74.5,0,1,1,149,74.49,74.59,74.59,0,0,1,74.5,149Zm0-143.82a69.32,69.32,0,1,0,69.32,69.31A69.39,69.39,0,0,0,74.5,5.18Z"/><path class="cls-1" d="M74.49,135.66a61.16,61.16,0,1,1,61.17-61.17A61.24,61.24,0,0,1,74.49,135.66Zm0-118.87a57.72,57.72,0,1,0,57.73,57.7A57.77,57.77,0,0,0,74.49,16.79Z"/><path class="cls-1" d="M85.73,47.53v-9H63.27v9A29.32,29.32,0,0,0,47.53,63.26h-9V85.74h9a29.32,29.32,0,0,0,15.74,15.73v9H85.73v-9a29.32,29.32,0,0,0,15.74-15.73h9V63.27h-9A29.31,29.31,0,0,0,85.73,47.53Zm0,49v-4a11.23,11.23,0,1,0-22.46,0v4A24.87,24.87,0,0,1,52.49,85.74h4a11.24,11.24,0,1,0,0-22.48h-4A24.87,24.87,0,0,1,63.27,52.49v4a11.23,11.23,0,0,0,22.46,0v-4A24.79,24.79,0,0,1,96.51,63.27h-4a11.24,11.24,0,0,0,0,22.47h4A24.87,24.87,0,0,1,85.73,96.51Z"/><polygon class="cls-1" points="81.64 36.3 83.49 29.56 65.51 29.56 67.76 36.3 81.64 36.3"/><polygon class="cls-1" points="67.37 112.7 65.51 119.44 83.49 119.44 81.24 112.7 67.37 112.7"/><polygon class="cls-1" points="29.56 83.49 36.3 81.24 36.3 67.37 29.56 65.51 29.56 83.49"/><polygon class="cls-1" points="112.7 67.76 112.7 81.64 119.44 83.49 119.44 65.51 112.7 67.76"/></g></g></svg>