<svg xmlns="http://www.w3.org/2000/svg" viewBox="0 0 149 149"><defs><style>.cls-1{fill:#409bd6;}</style></defs><title>see-more-smart-motion-detection</title><g id="圖層_2" data-name="圖層 2"><g id="圖層_1-2" data-name="圖層 1"><path class="cls-1" d="M74.5,149A74.5,74.5,0,1,1,149,74.49,74.59,74.59,0,0,1,74.5,149Zm0-143.82a69.32,69.32,0,1,0,69.32,69.31A69.39,69.39,0,0,0,74.5,5.18Z"/><path class="cls-1" d="M74.49,135.66a61.16,61.16,0,1,1,61.18-61.17A61.24,61.24,0,0,1,74.49,135.66Zm0-118.87a57.71,57.71,0,1,0,57.73,57.7A57.77,57.77,0,0,0,74.49,16.79Z"/><path class="cls-1" d="M73.48,71.53V69l-.66.39A4.39,4.39,0,0,0,73.48,71.53Z"/><path class="cls-1" d="M57.08,63.61a5.54,5.54,0,0,1,5.39,4.29A11.81,11.81,0,0,1,68,62.16l5.46-3.26v-.47H59.09c.63-1.12,1.32-2.33,1.78-3.2.87-1.67,1.58-1.8,2.42-1.8h10a7.88,7.88,0,0,1-.42-2.49c0-.23,0-.44.07-.66H63.29c-2.32,0-4,1.11-5.22,3.49-.66,1.27-1.86,3.35-2.63,4.66H51a5.43,5.43,0,0,0-5.32,4.9v5h6A5.56,5.56,0,0,1,57.08,63.61Z"/><path class="cls-1" d="M61.59,69.19a4.51,4.51,0,1,0-4.51,4.51A4.5,4.5,0,0,0,61.59,69.19Zm-6.55,0a2,2,0,1,1,2,2A2,2,0,0,1,55,69.19Z"/><path class="cls-1" d="M81.21,57.72a6.79,6.79,0,1,0-6.79-6.78A6.79,6.79,0,0,0,81.21,57.72Z"/><path class="cls-1" d="M95.43,88.08c-.14-.24-1.53-2.36-2.42-3.43-.65-.78-3.22-3.14-5.6-5.26V72a9.17,9.17,0,0,0,3.43,2.5L99.14,78l2.15-5.17L93,69.38c-1.52-.63-1.94-2-2.54-3.27l-2.95-6.33-.1,0v0H75v0l0,0-6,3.58a10.14,10.14,0,0,0-5.51,6.07L60.94,78l5.36,1.6L68.87,71c.47-1.57,1.76-2.13,3-2.87L75,66.27v16.1h0c-1.2,1.55-2.63,3.39-3.44,4.42-1,1.23-2,2.71-3,3-1.58.52-11.87,3.81-11.87,3.81l2.28,7.1L70.32,97.1c2.14-.68,3-.92,5.56-3.93,1.44-1.71,5.15-6.4,6.57-8.21,2.3,2.09,4.39,4,4.84,4.46A8.55,8.55,0,0,1,89.1,92l5.6,10.6,6.59-3.47L95.61,88.37Z"/><polygon class="cls-1" points="47.12 52.93 44.07 52.93 44.07 37.07 59.92 37.07 59.92 40.12 47.12 40.12 47.12 52.93"/><polygon class="cls-1" points="59.92 111.93 44.07 111.93 44.07 96.06 47.12 96.06 47.12 108.88 59.92 108.88 59.92 111.93"/><polygon class="cls-1" points="104.93 111.93 89.08 111.93 89.08 108.88 101.88 108.88 101.88 96.06 104.93 96.06 104.93 111.93"/><polygon class="cls-1" points="104.93 52.93 101.88 52.93 101.88 40.12 89.08 40.12 89.08 37.07 104.93 37.07 104.93 52.93"/></g></g></svg>