<svg xmlns="http://www.w3.org/2000/svg" viewBox="0 0 149 149"><defs><style>.cls-1{fill:#409bd6;}</style></defs><title>see-more-360-degree-solutions</title><g id="圖層_2" data-name="圖層 2"><g id="圖層_1-2" data-name="圖層 1"><path class="cls-1" d="M74.5,149A74.5,74.5,0,1,1,149,74.49,74.59,74.59,0,0,1,74.5,149Zm0-143.82a69.32,69.32,0,1,0,69.32,69.31A69.39,69.39,0,0,0,74.5,5.18Z"/><path class="cls-1" d="M74.49,135.66a61.16,61.16,0,1,1,61.17-61.17A61.24,61.24,0,0,1,74.49,135.66Zm0-118.87a57.72,57.72,0,1,0,57.73,57.7A57.77,57.77,0,0,0,74.49,16.79Z"/><path class="cls-1" d="M112.58,67.7a9.72,9.72,0,0,1,2.38,6c0,10-18.12,18-40.46,18S34,83.7,34,73.74a9.71,9.71,0,0,1,2.37-6c-4.17,3.16-6.62,6.86-6.62,10.84,0,11.46,20,20.76,44.71,20.76s44.71-9.3,44.71-20.76C119.21,74.56,116.76,70.86,112.58,67.7Z"/><path class="cls-1" d="M49.83,56.64H45.17a7.68,7.68,0,0,1,2-4.54A7.77,7.77,0,0,1,53,49.71a7.39,7.39,0,0,1,5.26,2,6.3,6.3,0,0,1,2.12,4.73,5.51,5.51,0,0,1-.93,3.1A6.66,6.66,0,0,1,56.8,61.8a6.88,6.88,0,0,1,3.63,2.42,6.54,6.54,0,0,1,1.31,4.06,7.7,7.7,0,0,1-2.53,5.81,9,9,0,0,1-6.45,2.38,8.37,8.37,0,0,1-6-2.24,8.82,8.82,0,0,1-2.56-6.11H49a4.79,4.79,0,0,0,1.38,2.94,4.21,4.21,0,0,0,5.5-.13A3.58,3.58,0,0,0,57,68.26a3.62,3.62,0,0,0-1.51-2.93A7.07,7.07,0,0,0,51.1,64.1V60a8,8,0,0,0,2.6-.55A3.22,3.22,0,0,0,55,58.28a2.61,2.61,0,0,0,.47-1.5,2.29,2.29,0,0,0-.72-1.73,2.69,2.69,0,0,0-1.91-.68A3.11,3.11,0,0,0,51,55,3.21,3.21,0,0,0,49.83,56.64Z"/><path class="cls-1" d="M72.69,49.71l4.13,2.06-4.46,8.66a7.4,7.4,0,0,1,5.51,2.32,7.9,7.9,0,0,1,2.27,5.77,8,8,0,0,1-13.7,5.55,7.75,7.75,0,0,1-2.29-5.5,8.56,8.56,0,0,1,.35-2.37,24.74,24.74,0,0,1,1.64-3.67ZM72.09,65a3,3,0,0,0-2.27,1,3.41,3.41,0,0,0-.92,2.45,3.46,3.46,0,0,0,1,2.48,3,3,0,0,0,2.24,1,3.2,3.2,0,0,0,2.33-1,3.44,3.44,0,0,0,1-2.5A3.38,3.38,0,0,0,74.45,66,3.16,3.16,0,0,0,72.09,65Z"/><path class="cls-1" d="M91.49,49.71a8.39,8.39,0,0,1,4.81,1.36,8.66,8.66,0,0,1,3.11,4.19,22.08,22.08,0,0,1,1.11,7.84A22.3,22.3,0,0,1,99.4,71a8.94,8.94,0,0,1-3,4.15,8.16,8.16,0,0,1-4.77,1.32,8.35,8.35,0,0,1-4.83-1.33,8.69,8.69,0,0,1-3.07-4,21.31,21.31,0,0,1-1.11-7.75q0-7,2.17-10.17A7.7,7.7,0,0,1,91.49,49.71Zm.12,4.61a3.36,3.36,0,0,0-2.19.78A5.13,5.13,0,0,0,88,57.81a23.51,23.51,0,0,0-.51,5.64c0,3.22.39,5.44,1.15,6.67a3.43,3.43,0,0,0,3,1.85,3.13,3.13,0,0,0,2.79-1.75c.85-1.41,1.27-3.76,1.27-7.07s-.38-5.66-1.13-6.93A3.36,3.36,0,0,0,91.61,54.32Z"/><path class="cls-1" d="M115,55.67a5.7,5.7,0,0,1-1.75,4.23A5.85,5.85,0,0,1,109,61.63a5.92,5.92,0,0,1-6-6,5.6,5.6,0,0,1,1.78-4.18,5.88,5.88,0,0,1,4.24-1.73,5.79,5.79,0,0,1,4.21,1.73A5.73,5.73,0,0,1,115,55.67Zm-2.06,0a4,4,0,0,0-1.13-2.88,3.7,3.7,0,0,0-2.75-1.16,3.8,3.8,0,0,0-2.8,1.17,3.87,3.87,0,0,0-1.17,2.84,3.91,3.91,0,0,0,1.17,2.83,3.76,3.76,0,0,0,2.79,1.2,3.69,3.69,0,0,0,2.74-1.18A3.86,3.86,0,0,0,113,55.69Z"/></g></g></svg>