<svg id="圖層_1" data-name="圖層 1" xmlns="http://www.w3.org/2000/svg" viewBox="0 0 52 52"><title>transportation-vari-angle-ir</title><path d="M26,52A26,26,0,1,1,52,26,26,26,0,0,1,26,52Zm0-50.2A24.19,24.19,0,1,0,50.19,26,24.22,24.22,0,0,0,26,1.81Z" style="fill:#83b9e4"/><path d="M26,47.35A21.35,21.35,0,1,1,47.35,26,21.37,21.37,0,0,1,26,47.35ZM26,5.86A20.14,20.14,0,1,0,46.14,26,20.16,20.16,0,0,0,26,5.86Z" style="fill:#83b9e4"/><path d="M33,22.82a18.17,18.17,0,0,0,3.11-2.64l.14-.15V7.93H35.2V19.6c-.62.64-3.14,3.12-5.23,3.36l-2.51.24-.52-.28H25.07l-.52.28L22,23c-2.1-.23-4.62-2.71-5.24-3.36v-12H15.71V20l.14.15A18.06,18.06,0,0,0,19,22.82l-8.09,18,.6.24,2.1-4.65c.28.19.56.37.84.54l.28-.46-.89-.58,5.72-12.7a6.46,6.46,0,0,0,2.41.88l2.84.26.57-.31h1.31l.57.31L30.07,24a6.42,6.42,0,0,0,2.4-.88L35,28.74l-.34-.43c-.28.22-.57.44-.86.64l.31.45c.3-.21.6-.43.89-.66L40.52,41l.6-.24Z" style="fill:#83b9e4"/><path d="M26,10.83A1.88,1.88,0,1,0,24.12,9,1.88,1.88,0,0,0,26,10.83Zm0-3.06A1.18,1.18,0,1,1,24.82,9,1.18,1.18,0,0,1,26,7.77Z" style="fill:#83b9e4"/><path d="M26,12.05A3.1,3.1,0,1,0,22.9,9,3.1,3.1,0,0,0,26,12.05ZM26,6.4A2.55,2.55,0,1,1,23.45,9,2.56,2.56,0,0,1,26,6.4Z" style="fill:#83b9e4"/><path d="M23,31.91q.55.09,1.1.14l0-.54c-.35,0-.71-.08-1.06-.14Z" style="fill:#83b9e4"/><path d="M21.41,31.55c.36.1.72.19,1.08.26l.11-.53c-.35-.07-.69-.15-1-.25Z" style="fill:#83b9e4"/><path d="M26.35,32.09q.55,0,1.1-.11l-.07-.54q-.53.07-1.06.1Z" style="fill:#83b9e4"/><path d="M20,30.5l-.2.5q.52.21,1,.38l.17-.52Q20.54,30.71,20,30.5Z" style="fill:#83b9e4"/><path d="M18.59,29.82l-.26.48q.49.26,1,.49l.22-.5Q19.06,30.08,18.59,29.82Z" style="fill:#83b9e4"/><path d="M17.22,29l-.31.45c.31.21.62.41.94.59l.27-.47Q17.67,29.29,17.22,29Z" style="fill:#83b9e4"/><path d="M29.47,31l.15.52c.35-.1.7-.22,1.05-.35l-.19-.51Q30,30.85,29.47,31Z" style="fill:#83b9e4"/><path d="M32.43,29.79l.26.48c.32-.18.64-.36,1-.56l-.29-.46Q32.89,29.54,32.43,29.79Z" style="fill:#83b9e4"/><path d="M31,30.48l.21.5q.51-.21,1-.46L32,30C31.63,30.19,31.31,30.34,31,30.48Z" style="fill:#83b9e4"/><path d="M24.71,31.55l0,.54.76,0h.34v-.54h-.31Z" style="fill:#83b9e4"/><path d="M27.91,31.36l.09.54q.54-.1,1.08-.23L29,31.14C28.6,31.23,28.26,31.3,27.91,31.36Z" style="fill:#83b9e4"/><path d="M30.72,38.68l.15.53c.35-.1.7-.21,1.05-.33l-.18-.52Z" style="fill:#83b9e4"/><path d="M14.89,37.18q.48.28,1,.53l.25-.49q-.48-.24-.95-.51Z" style="fill:#83b9e4"/><path d="M29.16,39.06l.11.53c.36-.07.72-.15,1.08-.24l-.13-.53Z" style="fill:#83b9e4"/><path d="M35.18,36.83l.27.47q.48-.27.95-.56l-.29-.46Q35.64,36.57,35.18,36.83Z" style="fill:#83b9e4"/><path d="M32.25,38.18l.19.51q.51-.19,1-.41l-.22-.5Q32.76,38,32.25,38.18Z" style="fill:#83b9e4"/><path d="M36.55,36l.3.46c.3-.2.61-.41.9-.63l-.32-.44Q37,35.7,36.55,36Z" style="fill:#83b9e4"/><path d="M16.35,38q.5.24,1,.45l.21-.5c-.33-.14-.66-.28-1-.44Z" style="fill:#83b9e4"/><path d="M33.74,37.57l.23.49q.5-.23,1-.49l-.25-.48Z" style="fill:#83b9e4"/><path d="M21,39.54c.36.08.72.14,1.09.2l.08-.54q-.53-.08-1.06-.19Z" style="fill:#83b9e4"/><path d="M26,40c.37,0,.73,0,1.1-.07l0-.54c-.36,0-.71.05-1.07.07Z" style="fill:#83b9e4"/><path d="M22.68,39.82c.37,0,.73.08,1.1.11l0-.54-1.07-.11Z" style="fill:#83b9e4"/><path d="M24.35,39.42l0,.54,1,0h.15v-.54h-.15Z" style="fill:#83b9e4"/><path d="M19.44,39.14l1.07.28.13-.53-1-.28Z" style="fill:#83b9e4"/><path d="M17.87,38.6c.35.13.69.25,1,.37l.17-.52c-.34-.11-.68-.23-1-.36Z" style="fill:#83b9e4"/><path d="M27.57,39.31l.06.54,1.09-.16-.09-.54Z" style="fill:#83b9e4"/><polygon points="25.17 26.66 25.17 28.2 24.3 28.2 26 30.15 27.69 28.2 26.82 28.2 26.82 26.66 25.17 26.66" style="fill:#83b9e4"/><polygon points="26 38.1 27.69 36.16 26.82 36.16 26.82 34.62 25.17 34.62 25.17 36.16 24.3 36.16 26 38.1" style="fill:#83b9e4"/><polygon points="26.82 42.1 25.17 42.1 25.17 43.63 24.3 43.63 26 45.58 27.69 43.63 26.82 43.63 26.82 42.1" style="fill:#83b9e4"/><path d="M29.53,18.17a1.61,1.61,0,1,0-1.61-1.61A1.61,1.61,0,0,0,29.53,18.17Zm0-2.48a.87.87,0,1,1-.87.87A.87.87,0,0,1,29.53,15.69Z" style="fill:#83b9e4"/><path d="M22.47,18.17a1.61,1.61,0,1,0-1.61-1.61A1.61,1.61,0,0,0,22.47,18.17Zm0-2.48a.87.87,0,1,1-.86.87A.87.87,0,0,1,22.47,15.69Z" style="fill:#83b9e4"/><path d="M20.77,19.84H31.22a3.23,3.23,0,0,0,0-6.45H20.77a3.23,3.23,0,0,0,0,6.45Zm8.75-5.71a2.43,2.43,0,1,1-2.43,2.43A2.43,2.43,0,0,1,29.53,14.13Zm-7.06,0A2.43,2.43,0,1,1,20,16.56,2.43,2.43,0,0,1,22.47,14.13Z" style="fill:#83b9e4"/></svg>