<svg id="圖層_1" data-name="圖層 1" xmlns="http://www.w3.org/2000/svg" viewBox="0 0 52 52"><title>transportation-electronic-image-stabilization</title><path d="M26,52A26,26,0,1,1,52,26,26,26,0,0,1,26,52Zm0-50.2A24.19,24.19,0,1,0,50.19,26,24.22,24.22,0,0,0,26,1.81Z" style="fill:#83b9e4"/><path d="M26,47.35A21.35,21.35,0,1,1,47.35,26,21.37,21.37,0,0,1,26,47.35ZM26,5.86A20.14,20.14,0,1,0,46.14,26,20.16,20.16,0,0,0,26,5.86Z" style="fill:#83b9e4"/><path d="M21.65,36.37a2,2,0,1,0,2,2A2,2,0,0,0,21.65,36.37Zm0,3a.92.92,0,1,1,.92-.92A.92.92,0,0,1,21.65,39.32Z" style="fill:#83b9e4"/><path d="M30.78,36.37a2,2,0,1,0,2,2A2,2,0,0,0,30.78,36.37Zm0,3a.92.92,0,1,1,.92-.92A.92.92,0,0,1,30.78,39.32Z" style="fill:#83b9e4"/><path d="M16.48,35.75V38h2.69a2.51,2.51,0,0,1,5,0H28.3a2.51,2.51,0,0,1,5,0h2.05V34.87c0-.87-.12-1.33-.81-1.33H18.88A2.45,2.45,0,0,0,16.48,35.75Z" style="fill:#83b9e4"/><path d="M21.82,34.81l-1.22-.73s1-1.76,1.5-2.64a2.51,2.51,0,0,1,2.35-1.58h5.31a2.31,2.31,0,0,1,2.16,1.71c.39,1,1.12,2.55,1.13,2.57l-1.29.6c0-.06-.76-1.63-1.16-2.63-.28-.69-.53-.82-.84-.82H24.45c-.38,0-.7.06-1.09.81C22.88,33,21.86,34.74,21.82,34.81Z" style="fill:#83b9e4"/><g style="opacity:0.8"><path d="M21.65,18.07a2,2,0,1,0,2,2A2,2,0,0,0,21.65,18.07Zm0,3a.92.92,0,1,1,.92-.92A.92.92,0,0,1,21.65,21Z" style="fill:#83b9e4"/><path d="M30.78,18.07a2,2,0,1,0,2,2A2,2,0,0,0,30.78,18.07Zm0,3a.92.92,0,1,1,.92-.92A.92.92,0,0,1,30.78,21Z" style="fill:#83b9e4"/><path d="M16.48,17.45v2.26h2.69a2.51,2.51,0,0,1,5,0H28.3a2.51,2.51,0,0,1,5,0h2.05V16.57c0-.87-.12-1.33-.81-1.33H18.88A2.45,2.45,0,0,0,16.48,17.45Z" style="fill:#83b9e4"/><path d="M21.82,16.51l-1.22-.73s1-1.77,1.51-2.64a2.48,2.48,0,0,1,2.35-1.57h5.31a2.31,2.31,0,0,1,2.16,1.71c.39,1,1.13,2.55,1.13,2.57l-1.29.6c0-.07-.76-1.63-1.16-2.63-.28-.69-.53-.82-.84-.82H24.45c-.38,0-.7.06-1.09.81C22.88,14.71,21.86,16.43,21.82,16.51Z" style="fill:#83b9e4"/></g><g style="opacity:0.4"><path d="M19.77,18.07a2,2,0,1,0,2,2A2,2,0,0,0,19.77,18.07Zm0,3a.92.92,0,1,1,.92-.92A.92.92,0,0,1,19.77,21Z" style="fill:#83b9e4"/><path d="M28.9,18.07a2,2,0,1,0,2,2A2,2,0,0,0,28.9,18.07Zm0,3a.92.92,0,1,1,.92-.92A.92.92,0,0,1,28.9,21Z" style="fill:#83b9e4"/><path d="M14.6,17.45v2.26h2.69a2.51,2.51,0,0,1,5,0h4.17a2.51,2.51,0,0,1,5,0h2.05V16.57c0-.87-.12-1.33-.81-1.33H17A2.45,2.45,0,0,0,14.6,17.45Z" style="fill:#83b9e4"/><path d="M19.94,16.51l-1.22-.73s1-1.77,1.5-2.64a2.51,2.51,0,0,1,2.35-1.57h5.31A2.31,2.31,0,0,1,30,13.28c.39,1,1.13,2.55,1.13,2.57l-1.29.6c0-.07-.75-1.63-1.16-2.63-.28-.69-.53-.82-.84-.82H22.57c-.38,0-.7.06-1.09.81C21,14.71,20,16.43,19.94,16.51Z" style="fill:#83b9e4"/></g><g style="opacity:0.4"><path d="M23.53,18.07a2,2,0,1,0,2,2A2,2,0,0,0,23.53,18.07Zm0,3a.92.92,0,1,1,.92-.92A.92.92,0,0,1,23.53,21Z" style="fill:#83b9e4"/><path d="M32.66,18.07a2,2,0,1,0,2,2A2,2,0,0,0,32.66,18.07Zm0,3a.92.92,0,1,1,.92-.92A.92.92,0,0,1,32.66,21Z" style="fill:#83b9e4"/><path d="M18.36,17.45v2.26H21a2.51,2.51,0,0,1,5,0h4.17a2.51,2.51,0,0,1,5,0h2.05V16.57c0-.87-.12-1.33-.81-1.33H20.76A2.45,2.45,0,0,0,18.36,17.45Z" style="fill:#83b9e4"/><path d="M23.69,16.51l-1.22-.73s1-1.77,1.51-2.64a2.48,2.48,0,0,1,2.35-1.57h5.31a2.37,2.37,0,0,1,2.16,1.71c.39,1,1.13,2.55,1.13,2.57l-1.29.6c0-.07-.75-1.63-1.16-2.63-.28-.69-.53-.82-.84-.82H26.33c-.38,0-.7.06-1.09.81C24.76,14.71,23.74,16.43,23.69,16.51Z" style="fill:#83b9e4"/></g><rect x="7.51" y="24.87" width="1.23" height="0.36" style="fill:#83b9e4"/><rect x="9.21" y="24.87" width="1.23" height="0.36" style="fill:#83b9e4"/><rect x="10.91" y="24.87" width="1.23" height="0.36" style="fill:#83b9e4"/><rect x="12.61" y="24.87" width="1.23" height="0.36" style="fill:#83b9e4"/><rect x="14.32" y="24.87" width="1.23" height="0.36" style="fill:#83b9e4"/><rect x="16.02" y="24.87" width="1.23" height="0.36" style="fill:#83b9e4"/><rect x="17.72" y="24.87" width="1.23" height="0.36" style="fill:#83b9e4"/><rect x="19.42" y="24.87" width="1.23" height="0.36" style="fill:#83b9e4"/><rect x="21.13" y="24.87" width="1.23" height="0.36" style="fill:#83b9e4"/><rect x="22.83" y="24.87" width="1.23" height="0.36" style="fill:#83b9e4"/><rect x="24.53" y="24.87" width="1.23" height="0.36" style="fill:#83b9e4"/><rect x="26.23" y="24.87" width="1.23" height="0.36" style="fill:#83b9e4"/><rect x="27.94" y="24.87" width="1.23" height="0.36" style="fill:#83b9e4"/><rect x="29.64" y="24.87" width="1.23" height="0.36" style="fill:#83b9e4"/><rect x="31.34" y="24.87" width="1.23" height="0.36" style="fill:#83b9e4"/><rect x="33.04" y="24.87" width="1.23" height="0.36" style="fill:#83b9e4"/><rect x="34.75" y="24.87" width="1.23" height="0.36" style="fill:#83b9e4"/><rect x="36.45" y="24.87" width="1.23" height="0.36" style="fill:#83b9e4"/><rect x="38.15" y="24.87" width="1.23" height="0.36" style="fill:#83b9e4"/><rect x="39.86" y="24.87" width="1.23" height="0.36" style="fill:#83b9e4"/><rect x="41.56" y="24.87" width="1.23" height="0.36" style="fill:#83b9e4"/><rect x="43.26" y="24.87" width="1.23" height="0.36" style="fill:#83b9e4"/><polygon points="28.79 25.97 25.9 29.12 23.01 25.97 28.79 25.97" style="fill:#83b9e4"/><rect x="24.4" y="22.92" width="2.99" height="3.56" style="fill:#83b9e4"/></svg>