<svg id="圖層_1" data-name="圖層 1" xmlns="http://www.w3.org/2000/svg" viewBox="0 0 52 52"><title>transportation-invisible-ir</title><path d="M26,51.74a26,26,0,1,1,26-26A26,26,0,0,1,26,51.74Zm0-50.2A24.19,24.19,0,1,0,50.19,25.74,24.22,24.22,0,0,0,26,1.55Z" style="fill:#83b9e4"/><path d="M26,47.42A21.35,21.35,0,1,1,47.35,26.07,21.37,21.37,0,0,1,26,47.42ZM26,5.92A20.14,20.14,0,1,0,46.14,26.07,20.16,20.16,0,0,0,26,5.92Z" style="fill:#83b9e4"/><path d="M26,33h0a7.3,7.3,0,0,1-2.1-.31l.29-1A6.29,6.29,0,0,0,26,32Zm1.09-.09-.15-1a6.24,6.24,0,0,0,1.78-.56l.44.9A7.26,7.26,0,0,1,27.13,32.94Zm-4.24-.61a7.29,7.29,0,0,1-1.8-1.21l.67-.74a6.29,6.29,0,0,0,1.55,1Zm7.25-.59-.57-.82a6.31,6.31,0,0,0,1.37-1.28l.78.62A7.33,7.33,0,0,1,30.13,31.74Zm-9.79-1.41a7.26,7.26,0,0,1-1.1-1.87l.93-.37a6.27,6.27,0,0,0,.95,1.61Zm12-1-.87-.5a6.25,6.25,0,0,0,.68-1.74l1,.22A7.25,7.25,0,0,1,32.32,29.36ZM18.91,27.42a7.37,7.37,0,0,1-.19-1.68c0-.16,0-.32,0-.48l1,.07q0,.21,0,.42a6.37,6.37,0,0,0,.17,1.45Zm14.35-1.16-1-.07q0-.22,0-.45a6.33,6.33,0,0,0-.16-1.41l1-.22a7.34,7.34,0,0,1,.19,1.64C33.28,25.92,33.28,26.09,33.26,26.26ZM19.86,24.4l-1-.21a7.23,7.23,0,0,1,.77-2l.87.49A6.22,6.22,0,0,0,19.86,24.4Zm12-1a6.28,6.28,0,0,0-.94-1.62l.78-.62a7.28,7.28,0,0,1,1.09,1.87ZM21,21.87l-.79-.62a7.3,7.3,0,0,1,1.57-1.49l.57.82A6.32,6.32,0,0,0,21,21.87Zm9.22-.74a6.28,6.28,0,0,0-1.55-1.05l.43-.9a7.3,7.3,0,0,1,1.79,1.22Zm-7.06-1-.44-.9a7.27,7.27,0,0,1,2.06-.66l.16,1A6.22,6.22,0,0,0,23.21,20.11Zm4.64-.37A6.28,6.28,0,0,0,26,19.46l-.09-1H26a7.3,7.3,0,0,1,2.14.32Z" style="fill:#83b9e4"/><path d="M26,30a4.26,4.26,0,0,1-1.08-.14l.18-.68a3.53,3.53,0,0,0,.9.11l0,.58V30Zm1.11-.15-.18-.67a3.55,3.55,0,0,0,.85-.36l.35.6A4.25,4.25,0,0,1,27.12,29.84Zm-3.22-.4a4.26,4.26,0,0,1-.88-.67l.49-.5a3.57,3.57,0,0,0,.74.56Zm5.12-.7-.5-.49a3.57,3.57,0,0,0,.56-.74l.61.35A4.31,4.31,0,0,1,29,28.73Zm-6.68-.84a4.2,4.2,0,0,1-.43-1l.67-.19a3.5,3.5,0,0,0,.36.85Zm7.77-1.07-.68-.18a3.55,3.55,0,0,0,.12-.91h.7A4.25,4.25,0,0,1,30.11,26.83Zm-8.36-1.05v0a4.25,4.25,0,0,1,.13-1.06l.68.17a3.59,3.59,0,0,0-.11.89Zm7.68-1a3.56,3.56,0,0,0-.36-.85l.61-.35a4.22,4.22,0,0,1,.43,1ZM22.91,24l-.61-.34a4.26,4.26,0,0,1,.67-.89l.5.49A3.56,3.56,0,0,0,22.91,24Zm5.6-.77a3.59,3.59,0,0,0-.74-.56l.35-.61a4.28,4.28,0,0,1,.88.67Zm-4.31-.54-.36-.6a4.22,4.22,0,0,1,1-.44l.19.67A3.5,3.5,0,0,0,24.19,22.68Zm2.73-.37a3.56,3.56,0,0,0-.92-.12l0-.49,0-.21h0a4.29,4.29,0,0,1,1.11.14Z" style="fill:#83b9e4"/><rect x="25.99" y="10.91" width="1" height="5.93" style="fill:#83b9e4"/><rect x="31.76" y="17.2" width="5.93" height="1" transform="translate(-2.34 29.74) rotate(-45)" style="fill:#83b9e4"/><rect x="34.89" y="25.73" width="5.93" height="1" style="fill:#83b9e4"/><rect x="33.54" y="31.5" width="1" height="5.93" transform="translate(-14.4 34.17) rotate(-45)" style="fill:#83b9e4"/><rect x="25.01" y="34.63" width="1" height="5.93" style="fill:#83b9e4"/><rect x="14.3" y="33.28" width="5.93" height="1" transform="translate(-18.83 22.1) rotate(-45)" style="fill:#83b9e4"/><rect x="11.17" y="24.75" width="5.93" height="1" style="fill:#83b9e4"/><rect x="17.46" y="14.04" width="1" height="5.93" transform="translate(-6.77 17.68) rotate(-45)" style="fill:#83b9e4"/></svg>