<svg id="圖層_1" data-name="圖層 1" xmlns="http://www.w3.org/2000/svg" viewBox="0 0 52 52"><title>transportation-vadp-platform</title><path d="M26,52A26,26,0,1,1,52,26,26,26,0,0,1,26,52Zm0-50.2A24.19,24.19,0,1,0,50.19,26,24.22,24.22,0,0,0,26,1.81Z" style="fill:#83b9e4"/><path d="M26,47.35A21.35,21.35,0,1,1,47.35,26,21.37,21.37,0,0,1,26,47.35ZM26,5.86A20.14,20.14,0,1,0,46.14,26,20.16,20.16,0,0,0,26,5.86Z" style="fill:#83b9e4"/><path d="M38.77,25.82l.75-2.23L37.76,23a7,7,0,0,0,0-2.06l1.78-.55-.7-2.25-1.78.56A7,7,0,0,0,35.9,17L37,15.52l-1.89-1.4L34,15.61a6.66,6.66,0,0,0-1-.41,6.86,6.86,0,0,0-1-.26l0-1.86-2.35,0,0,1.86a7.17,7.17,0,0,0-2,.62L26.66,14l-1.92,1.36,1.08,1.52a6.93,6.93,0,0,0-1.23,1.65L22.82,18l-.75,2.22,1.76.6a7,7,0,0,0,0,2.06L22,23.39l.7,2.24,1.78-.55a7.1,7.1,0,0,0,1.19,1.68l-1.11,1.49,1.88,1.4,1.11-1.49a7.05,7.05,0,0,0,1,.4,6.88,6.88,0,0,0,1,.26l0,1.86,2.35,0,0-1.86a7.17,7.17,0,0,0,2-.61l1.08,1.52,1.92-1.36-1.08-1.52A6.89,6.89,0,0,0,37,25.23Zm-8.92-1.15a2.94,2.94,0,1,1,3.73-1.84A2.94,2.94,0,0,1,29.86,24.67Z" style="fill:#83b9e4"/><path d="M21.4,29.33a4.09,4.09,0,0,0,.34-.89l1.35-.05L23,26l-1.35,0a4.12,4.12,0,0,0-1-1.62l.63-1.19-2.08-1.1-.63,1.19a4.09,4.09,0,0,0-1.9.07l-.72-1.15-2,1.25.72,1.14a3.94,3.94,0,0,0-.89,1.68l-1.35,0,.09,2.35,1.35,0a4.12,4.12,0,0,0,1,1.61l-.63,1.19,2.08,1.1L17,31.44a4.07,4.07,0,0,0,1.9-.07l.72,1.14,2-1.25-.72-1.14A4.14,4.14,0,0,0,21.4,29.33Zm-2-1.07a1.84,1.84,0,1,1-.76-2.48A1.84,1.84,0,0,1,19.38,28.27Z" style="fill:#83b9e4"/><path d="M31.64,36.12a4.2,4.2,0,0,0,.08-1,4.14,4.14,0,0,0-.15-.95l1.14-.72-1.25-2-1.14.72a4.16,4.16,0,0,0-1.68-.89L28.58,30l-2.35.09,0,1.35a4,4,0,0,0-1.61,1l-1.19-.63-1.1,2.08,1.19.63a4,4,0,0,0,.07,1.9l-1.14.72,1.25,2,1.14-.72a4.09,4.09,0,0,0,1.68.89l.05,1.35L29,40.55l0-1.35a4.1,4.1,0,0,0,1.61-1l1.19.63,1.1-2.08Zm-4,1a1.84,1.84,0,1,1,1.77-1.9A1.83,1.83,0,0,1,27.67,37.14Z" style="fill:#83b9e4"/></svg>