<svg id="圖層_1" data-name="圖層 1" xmlns="http://www.w3.org/2000/svg" viewBox="0 0 52 52"><title>transportation-long-range-zoom</title><path d="M26,52A26,26,0,1,1,52,26,26,26,0,0,1,26,52Zm0-50.2A24.19,24.19,0,1,0,50.19,26,24.22,24.22,0,0,0,26,1.81Z" style="fill:#83b9e4"/><path d="M26,47.67A21.35,21.35,0,1,1,47.35,26.33,21.37,21.37,0,0,1,26,47.67ZM26,6.18A20.14,20.14,0,1,0,46.14,26.33,20.16,20.16,0,0,0,26,6.18Z" style="fill:#83b9e4"/><path d="M30.68,13.81a3.39,3.39,0,0,0-3.39,3.4c0,1.87,1.81,4.18,3.39,6.35,1.59-2.18,3.39-4.48,3.39-6.35A3.39,3.39,0,0,0,30.68,13.81Zm0,4.67A1.28,1.28,0,1,1,32,17.2,1.28,1.28,0,0,1,30.68,18.48Z" style="fill:#83b9e4"/><polygon points="24.85 14.81 23.77 14.81 23.77 11.11 27.47 11.11 27.47 12.19 24.85 12.19 24.85 14.81" style="fill:#83b9e4"/><polygon points="27.47 24.93 23.77 24.93 23.77 21.23 24.85 21.23 24.85 23.85 27.47 23.85 27.47 24.93" style="fill:#83b9e4"/><polygon points="37.59 24.93 33.89 24.93 33.89 23.85 36.52 23.85 36.52 21.23 37.59 21.23 37.59 24.93" style="fill:#83b9e4"/><polygon points="37.59 14.81 36.52 14.81 36.52 12.19 33.89 12.19 33.89 11.11 37.59 11.11 37.59 14.81" style="fill:#83b9e4"/><rect x="26.9" y="27.65" width="2.15" height="1.07" transform="translate(-10.47 38.16) rotate(-59.75)" style="fill:#83b9e4"/><rect x="29.07" y="23.95" width="2.15" height="1.07" transform="translate(-6.2 38.17) rotate(-59.72)" style="fill:#83b9e4"/><path d="M25.65,31.11a5.67,5.67,0,0,0-11.24,1c0,2.79,2.38,6,4.68,9.17l1,1.36,1-1.35c2.06-2.8,4.17-5.69,4.59-8.27l.07,0,1.08-1.86-.93-.54Zm-5.44,9.58-.12.17L20,40.68c-2.2-3-4.47-6.09-4.47-8.54a4.6,4.6,0,1,1,9.2,0C24.69,34.59,22.41,37.69,20.21,40.69Z" style="fill:#83b9e4"/><path d="M20.09,29.68a2.47,2.47,0,1,0,2.47,2.47A2.47,2.47,0,0,0,20.09,29.68Zm0,3.87a1.4,1.4,0,1,1,1.4-1.4A1.4,1.4,0,0,1,20.09,33.55Z" style="fill:#83b9e4"/></svg>