<svg id="圖層_1" data-name="圖層 1" xmlns="http://www.w3.org/2000/svg" xmlns:xlink="http://www.w3.org/1999/xlink" viewBox="0 0 52 52"><defs><clipPath id="clip-path"><circle cx="26" cy="26" r="18.94" style="fill:none"/></clipPath></defs><title>transportation-m12-connectors</title><path d="M26,52A26,26,0,1,1,52,26,26,26,0,0,1,26,52ZM26,1.8A24.19,24.19,0,1,0,50.19,26,24.22,24.22,0,0,0,26,1.8Z" style="fill:#83b9e4"/><path d="M26,47.68A21.35,21.35,0,1,1,47.35,26.32,21.37,21.37,0,0,1,26,47.68ZM26,6.18A20.14,20.14,0,1,0,46.14,26.32,20.16,20.16,0,0,0,26,6.18Z" style="fill:#83b9e4"/><g style="clip-path:url(#clip-path)"><path d="M26,11.43c-3.95,0-7.15,1.8-7.15,4V34a2.4,2.4,0,0,0,.23,1h0l1.12,4.8,1.22,8.22v1.41c0,1.72,2,3.1,4.58,3.1s4.58-1.39,4.58-3.1V48.06l1.22-8.22L32.92,35h0a2.4,2.4,0,0,0,.23-1V15.45C33.15,13.23,29.95,11.43,26,11.43Zm0,16.11c-3.73,0-6.33-1.68-6.33-3.19V18.42A10.4,10.4,0,0,0,26,20.28a10.4,10.4,0,0,0,6.33-1.86v5.93C32.33,25.86,29.73,27.54,26,27.54Zm0-15.69c3.53,0,6.4,1.61,6.4,3.59S29.53,19,26,19s-6.4-1.61-6.4-3.59S22.47,11.85,26,11.85ZM24.89,38l-.19,0Zm-1.19-.16-.17,0Zm-1.14-.28h0Zm-.93-.34-.06,0Zm-.87-.44,0,0ZM27.11,38l.19,0Zm1.19-.16.17,0Zm1.14-.28h0Zm.92-.34.06,0Zm.87-.44.05,0Z" style="fill:#83b9e4"/><path d="M26,17.56c2.53,0,4.58-1.14,4.58-2.56S28.53,12.45,26,12.45,21.42,13.59,21.42,15,23.47,17.56,26,17.56Zm2.56-3c.47,0,.85.21.85.47s-.38.47-.85.47-.85-.21-.85-.47S28.09,14.53,28.56,14.53ZM26,13.1c.47,0,.85.21.85.47s-.38.47-.85.47-.85-.21-.85-.47S25.53,13.1,26,13.1Zm0,1.43c.47,0,.85.21.85.47s-.38.47-.85.47-.85-.21-.85-.47S25.53,14.53,26,14.53ZM26,16c.47,0,.85.21.85.47s-.38.47-.85.47-.85-.21-.85-.47S25.53,16,26,16Zm-2.56-1.43c.47,0,.85.21.85.47s-.38.47-.85.47-.85-.21-.85-.47S23,14.53,23.44,14.53Z" style="fill:#83b9e4"/></g></svg>