<svg id="圖層_1" data-name="圖層 1" xmlns="http://www.w3.org/2000/svg" viewBox="0 0 52 52"><title>transportation-video-wall</title><path d="M26,52A26,26,0,1,1,52,26,26,26,0,0,1,26,52Zm0-50.2A24.19,24.19,0,1,0,50.19,26,24.22,24.22,0,0,0,26,1.81Z" style="fill:#83b9e4"/><path d="M26,47.35A21.35,21.35,0,1,1,47.35,26,21.37,21.37,0,0,1,26,47.35ZM26,5.86A20.14,20.14,0,1,0,46.14,26,20.16,20.16,0,0,0,26,5.86Z" style="fill:#83b9e4"/><path d="M18.06,18.17v3.21l-5,.19V18.66l5-.49m1.19-1.31-7.41.72v5.22l7.41-.28V16.86Z" style="fill:#83b9e4"/><path d="M18.06,24.39v3.22l-5-.15V24.54l5-.15m1.19-1.23-7.41.23v5.22l7.41.22V23.16Z" style="fill:#83b9e4"/><path d="M13,30.43l5,.19v3.21l-5-.49V30.43M11.84,29.2v5.22l7.41.72V29.47l-7.41-.28Z" style="fill:#83b9e4"/><path d="M27.46,17.25V21l-6.52.24V17.89l6.52-.64m1.19-1.31-8.9.87v5.7l8.9-.33V15.94Z" style="fill:#83b9e4"/><path d="M27.46,24.11v3.79l-6.52-.2V24.31l6.52-.2m1.19-1.23-8.9.27v5.7l8.9.27V22.88Z" style="fill:#83b9e4"/><path d="M20.94,30.72l6.52.24v3.78l-6.52-.64V30.72m-1.19-1.23v5.7l8.9.87V29.82l-8.9-.33Z" style="fill:#83b9e4"/><path d="M39,16.13v4.48l-8.51.32V17L39,16.13m1.19-1.31L29.27,15.88v6.28l10.89-.4V14.82Z" style="fill:#83b9e4"/><path d="M39,23.76v4.48L30.46,28V24L39,23.76m1.19-1.23-10.89.33v6.28l10.89.33V22.53Z" style="fill:#83b9e4"/><path d="M30.46,31.08,39,31.4v4.48L30.46,35v-4m-1.19-1.23v6.28l10.89,1.07V30.25l-10.89-.4Z" style="fill:#83b9e4"/></svg>