<svg id="圖層_1" data-name="圖層 1" xmlns="http://www.w3.org/2000/svg" viewBox="0 0 52 52"><title>transportation-video-rotation</title><path d="M26,52A26,26,0,1,1,52,26,26,26,0,0,1,26,52ZM26,1.81A24.19,24.19,0,1,0,50.19,26,24.22,24.22,0,0,0,26,1.81Z" style="fill:#83b9e4"/><path d="M26,47.35A21.35,21.35,0,1,1,47.35,26,21.37,21.37,0,0,1,26,47.35ZM26,5.86A20.14,20.14,0,1,0,46.14,26,20.16,20.16,0,0,0,26,5.86Z" style="fill:#83b9e4"/><path d="M28.9,10.27,10,25.35l7.8,9.77.39-10.35,5,.55.86-2.51L36.71,20,17.82,35.13l5.27,6.6L42,26.64Zm1.36,4.86.31.39-1.1.88L29.17,16ZM28,14.1l.49.05-.15,1.4-.49-.05Zm-1.94.56.88,1.1-.39.31L25.67,15ZM24.7,16.73l1.4.16-.06.5-1.4-.15Zm.82,2.83-.31-.39,1.1-.88.31.39Zm2.26,1-.49-.05.16-1.4.5.06Zm-.9-2.44a1.3,1.3,0,1,1,1.83.21A1.3,1.3,0,0,1,26.87,18.15ZM29.72,20l-.88-1.1.39-.31.88,1.1ZM31.08,18l-1.4-.15.05-.5,1.4.16Zm.08,16.27s-7.63,4.44-11.35.36c0,0,7.66-1.82,12.51-5.69l1.22,2.33Z" style="fill:#83b9e4"/><path d="M21,34.71a15.59,15.59,0,0,0,4.71-.48L26.59,33A22.92,22.92,0,0,1,21,34.71Z" style="fill:#83b9e4"/><path d="M26.61,34a14.79,14.79,0,0,0,3-1.31l2.29-3.11a18.75,18.75,0,0,1-4.29,2.95Z" style="fill:#83b9e4"/></svg>