<svg id="圖層_1" data-name="圖層 1" xmlns="http://www.w3.org/2000/svg" viewBox="0 0 52 52"><title>transportation-en50155-certification</title><path d="M26,52A26,26,0,1,1,52,26,26,26,0,0,1,26,52ZM26,1.81A24.19,24.19,0,1,0,50.19,26,24.22,24.22,0,0,0,26,1.81Z" style="fill:#83b9e4"/><path d="M26,47.35A21.35,21.35,0,1,1,47.35,26,21.37,21.37,0,0,1,26,47.35ZM26,5.86A20.14,20.14,0,1,0,46.14,26,20.16,20.16,0,0,0,26,5.86Z" style="fill:#83b9e4"/><path d="M39.61,29.36l.76.07,0,1.88L41,29.09c0-.53-.88-.6-.88-.6-10.36-2-13.54-11.88-13.54-11.88-1-2.39-2.87-2.39-2.87-2.39H13.86c-1.28,0-2,.81-2.08,2.25S11,30.39,11,30.39a3,3,0,0,0,2.62,3.31l25.77-.06c.44,0,.47-.32.47-.32l.51-1.84-.71,0Zm-25.75-.7a1.2,1.2,0,1,1,1.2-1.2A1.2,1.2,0,0,1,13.86,28.66Zm9.26,0a1.2,1.2,0,1,1,1.2-1.2A1.2,1.2,0,0,1,23.12,28.66Zm1.36-7H12.95l.17-4.9a1.31,1.31,0,0,1,1.22-1.18l8.78-.06a1.38,1.38,0,0,1,1.41,1.26C24.53,17.29,24.48,21.63,24.48,21.63Zm3.26,6-.23-5.79A24.41,24.41,0,0,0,29.62,24l.08,4.6Q28.74,28.17,27.73,27.61Zm3,1.47-.07-4.17c.52.44,1.08.89,1.69,1.32l.07,3.53C31.83,29.55,31.26,29.33,30.69,29.08Zm2.67,1L33.3,26.9a19.24,19.24,0,0,0,1.72,1l0,2.74C34.52,30.48,34,30.31,33.35,30.11Zm2.37.69,0-2.59a16.06,16.06,0,0,0,1.59.62l0,2.31C36.83,31,36.3,30.94,35.73,30.79Zm2.25.45,0-2.22c.34.09.67.17,1,.23l0,2.13Zm2.38.23h0v-.17Z" style="fill:#83b9e4"/><path d="M12.21,36h1.14V34.67h3.43v1.27H22V34.7H38.8l-.87,1.21s-6.47,0-10.56,1.8l-13.51,0Z" style="fill:#83b9e4"/></svg>