<svg id="圖層_1" data-name="圖層 1" xmlns="http://www.w3.org/2000/svg" viewBox="0 0 52 52"><title>transportation-fireproof-design</title><path d="M26,52A26,26,0,1,1,52,26,26,26,0,0,1,26,52ZM26,1.81A24.19,24.19,0,1,0,50.19,26,24.22,24.22,0,0,0,26,1.81Z" style="fill:#83b9e4"/><path d="M26,47.35A21.35,21.35,0,1,1,47.35,26,21.37,21.37,0,0,1,26,47.35ZM26,5.86A20.14,20.14,0,1,0,46.14,26,20.16,20.16,0,0,0,26,5.86Z" style="fill:#83b9e4"/><path d="M20.21,35.35l-3.3,3.3a10.68,10.68,0,0,0,4,3.73.38.38,0,0,0,.49-.54A8.39,8.39,0,0,1,20.21,35.35Z" style="fill:#83b9e4"/><path d="M29.15,19.08c0-.13,0-.25,0-.39a14.89,14.89,0,0,0-2.93-9.05,10.36,10.36,0,0,0-1.85-1.88.37.37,0,0,0-.6.32c.15,2.14,0,8.28-5.37,15.61a15.15,15.15,0,0,0-3.23,9.37Z" style="fill:#83b9e4"/><path d="M33.81,21.75l-6.57,6.57a20,20,0,0,0,1.61,2.63c2.4,3.28,3.71,7.41,1.59,10.84a.38.38,0,0,0,.49.53A10.6,10.6,0,0,0,36.82,33a18.2,18.2,0,0,0-1-6.8A17.54,17.54,0,0,0,33.81,21.75Z" style="fill:#83b9e4"/><rect x="7.42" y="24.91" width="37.16" height="2.18" transform="translate(-10.77 26) rotate(-45)" style="fill:#83b9e4"/></svg>