<svg id="圖層_1" data-name="圖層 1" xmlns="http://www.w3.org/2000/svg" viewBox="0 0 52 52"><title>transportation-extreme-weatherproof-design</title><path d="M26,52A26,26,0,1,1,52,26,26,26,0,0,1,26,52ZM26,1.81A24.19,24.19,0,1,0,50.19,26,24.22,24.22,0,0,0,26,1.81Z" style="fill:#83b9e4"/><path d="M26,47.35A21.35,21.35,0,1,1,47.35,26,21.37,21.37,0,0,1,26,47.35ZM26,5.86A20.14,20.14,0,1,0,46.14,26,20.16,20.16,0,0,0,26,5.86Z" style="fill:#83b9e4"/><path d="M40.3,20.48c0-2.37-2.29-4.37-5.46-5.09-.18-1.95-2.59-3.49-5.54-3.49a7.39,7.39,0,0,0-3.53.84,7.22,7.22,0,0,0-3.49-.84c-3,0-5.45,1.63-5.45,3.64a2.49,2.49,0,0,0,0,.43c-3,.77-5.18,2.73-5.18,5,0,2.07,1.75,3.86,4.31,4.76l-.23.41a.32.32,0,0,0,.12.45.35.35,0,0,0,.46-.15l.28-.5a11.55,11.55,0,0,0,3.1.41,11.76,11.76,0,0,0,2.13-.2l-.71,1.28a.31.31,0,0,0,.12.44.35.35,0,0,0,.46-.16l.9-1.58a.32.32,0,0,0,0-.15c.3-.08.6-.16.88-.27a8.09,8.09,0,0,0,2.55.61l-5,3.61,3.33-.11-4.72,4.32L23.23,34l-6.84,6.52,11.93-7.91-4,.14L29,28.55l-3.67.13,2-2.34a8,8,0,0,0,2.78-.68,11.79,11.79,0,0,0,2.05.19l0,.05-.89,1.58a.32.32,0,0,0,.12.45.36.36,0,0,0,.46-.15l.89-1.59a.3.3,0,0,0,0-.36,11.62,11.62,0,0,0,2.25-.3l-.09.16a.31.31,0,0,0,.12.44.35.35,0,0,0,.46-.15l.4-.71C38.48,24.4,40.3,22.58,40.3,20.48Z" style="fill:#83b9e4"/><path d="M32.18,30.48l-.89,1.59a.32.32,0,0,0,.12.45.35.35,0,0,0,.46-.16l.89-1.6a.31.31,0,0,0-.12-.44A.35.35,0,0,0,32.18,30.48Z" style="fill:#83b9e4"/><path d="M28.61,36.85l-.89,1.59a.31.31,0,0,0,.12.44.34.34,0,0,0,.46-.15l.9-1.59a.32.32,0,0,0-.12-.45A.35.35,0,0,0,28.61,36.85Z" style="fill:#83b9e4"/><path d="M26.82,40l-.9,1.6a.31.31,0,0,0,.12.44.34.34,0,0,0,.45-.15l.9-1.6a.32.32,0,0,0-.12-.45A.36.36,0,0,0,26.82,40Z" style="fill:#83b9e4"/><path d="M30.4,33.66l-.89,1.59a.32.32,0,0,0,.12.45.35.35,0,0,0,.45-.15L31,34a.31.31,0,0,0-.12-.45A.35.35,0,0,0,30.4,33.66Z" style="fill:#83b9e4"/><path d="M34.43,27.14a.34.34,0,0,0-.46.15l-.9,1.59a.32.32,0,0,0,.12.44.36.36,0,0,0,.46-.15l.89-1.59A.31.31,0,0,0,34.43,27.14Z" style="fill:#83b9e4"/><path d="M13.1,30.94l-.9,1.6a.32.32,0,0,0,.12.44.35.35,0,0,0,.46-.15l.9-1.59a.31.31,0,0,0-.12-.44A.35.35,0,0,0,13.1,30.94Z" style="fill:#83b9e4"/><path d="M14.57,29.64l.9-1.59a.32.32,0,0,0-.12-.45.35.35,0,0,0-.45.16L14,29.35a.31.31,0,0,0,.12.44A.35.35,0,0,0,14.57,29.64Z" style="fill:#83b9e4"/><path d="M18.17,28.45l.9-1.59a.33.33,0,0,0-.12-.45.35.35,0,0,0-.46.16l-.89,1.59a.31.31,0,0,0,.12.44A.34.34,0,0,0,18.17,28.45Z" style="fill:#83b9e4"/><path d="M14.91,32.93,14,34.53a.32.32,0,0,0,.13.44.35.35,0,0,0,.46-.15l.89-1.59a.31.31,0,0,0-.12-.44A.35.35,0,0,0,14.91,32.93Z" style="fill:#83b9e4"/><path d="M16.38,31.63l.9-1.59a.31.31,0,0,0-.12-.44.35.35,0,0,0-.46.15l-.9,1.59a.32.32,0,0,0,.12.44A.35.35,0,0,0,16.38,31.63Z" style="fill:#83b9e4"/><path d="M17.14,35.25a.36.36,0,0,0-.46.16L15.79,37a.32.32,0,0,0,.12.44.35.35,0,0,0,.46-.15l.89-1.6A.31.31,0,0,0,17.14,35.25Z" style="fill:#83b9e4"/><path d="M19.94,30.92l.89-1.59a.32.32,0,0,0-.12-.45.36.36,0,0,0-.46.16l-.89,1.59a.32.32,0,0,0,.12.45A.35.35,0,0,0,19.94,30.92Z" style="fill:#83b9e4"/><path d="M17.7,34.26a.35.35,0,0,0,.46-.15l.89-1.6a.31.31,0,0,0-.12-.44.35.35,0,0,0-.45.15l-.89,1.59A.31.31,0,0,0,17.7,34.26Z" style="fill:#83b9e4"/><path d="M28.29,34.15l.89-1.59a.32.32,0,0,0-.12-.45.35.35,0,0,0-.45.15l-.9,1.59a.31.31,0,0,0,.12.44A.35.35,0,0,0,28.29,34.15Z" style="fill:#83b9e4"/><path d="M30.08,31l.9-1.59a.32.32,0,0,0-.12-.45.35.35,0,0,0-.46.15l-.89,1.59a.32.32,0,0,0,.12.45A.35.35,0,0,0,30.08,31Z" style="fill:#83b9e4"/><path d="M26.5,37.34l.89-1.59a.32.32,0,0,0-.12-.45.36.36,0,0,0-.45.16L25.93,37a.31.31,0,0,0,.12.45A.35.35,0,0,0,26.5,37.34Z" style="fill:#83b9e4"/></svg>