<svg id="圖層_1" data-name="圖層 1" xmlns="http://www.w3.org/2000/svg" viewBox="0 0 52 52"><title>transportation-supreme-night-visibility</title><path d="M26,52A26,26,0,1,1,52,26,26,26,0,0,1,26,52Zm0-50.2A24.19,24.19,0,1,0,50.19,26,24.22,24.22,0,0,0,26,1.81Z" style="fill:#83b9e4"/><path d="M26,47.35A21.35,21.35,0,1,1,47.35,26,21.37,21.37,0,0,1,26,47.35ZM26,5.86A20.14,20.14,0,1,0,46.14,26,20.16,20.16,0,0,0,26,5.86Z" style="fill:#83b9e4"/><path d="M29.53,11.26A15.3,15.3,0,0,1,12.9,36.19,15.3,15.3,0,1,0,29.53,11.26Z" style="fill:#83b9e4"/><polygon points="19.1 19.2 18.91 22.28 21.79 23.41 18.8 24.18 18.6 27.27 16.95 24.67 13.95 25.44 15.92 23.05 14.26 20.45 17.13 21.58 19.1 19.2" style="fill:#83b9e4"/><polygon points="28.26 18.78 28.16 20.48 29.74 21.1 28.09 21.53 27.99 23.23 27.07 21.8 25.42 22.23 26.51 20.91 25.59 19.47 27.18 20.09 28.26 18.78" style="fill:#83b9e4"/><polygon points="23.54 29.64 23.46 30.88 24.62 31.34 23.42 31.65 23.34 32.89 22.68 31.84 21.47 32.16 22.26 31.2 21.59 30.15 22.75 30.6 23.54 29.64" style="fill:#83b9e4"/></svg>