<svg id="圖層_1" data-name="圖層 1" xmlns="http://www.w3.org/2000/svg" viewBox="0 0 52 52"><title>transportation-vandal-proof-design</title><path d="M26,52A26,26,0,1,1,52,26,26,26,0,0,1,26,52ZM26,1.8A24.19,24.19,0,1,0,50.19,26,24.22,24.22,0,0,0,26,1.8Z" style="fill:#83b9e4"/><path d="M26,47.68A21.35,21.35,0,1,1,47.35,26.32,21.37,21.37,0,0,1,26,47.68ZM26,6.18A20.14,20.14,0,1,0,46.14,26.32,20.16,20.16,0,0,0,26,6.18Z" style="fill:#83b9e4"/><path d="M24.23,22a.32.32,0,0,0-.46,0L11.55,33.15a.32.32,0,0,0,0,.45l2.37,2.59a.32.32,0,0,0,.46,0L26.58,25a.33.33,0,0,0,0-.47Z" style="fill:#83b9e4"/><path d="M32.69,18.88a.33.33,0,0,0,.46,0l.33-.29a.33.33,0,0,0,0-.46l-2.37-2.58a.32.32,0,0,0-.46,0l-.33.3a.33.33,0,0,0,0,.46Z" style="fill:#83b9e4"/><path d="M35.66,32.6l4.89-1.82-5.2.41,2.17-4.74-3.38,4-.93-2.5,3.09-2.84a1,1,0,0,0,.06-1.41L26.43,12.84A1,1,0,0,0,25,12.78l-3.84,3.53a1,1,0,0,0-.06,1.41L31,28.55a1,1,0,0,0,1.42.06l.11-.1.18,2.21L28,28.56l4,3.38-4.89,1.82,5.19-.42-2.17,4.74,3.38-4L35.3,39l-.41-5.2L39.63,36Z" style="fill:#83b9e4"/></svg>