<svg id="圖層_1" data-name="圖層 1" xmlns="http://www.w3.org/2000/svg" viewBox="0 0 52 52"><title>transportation-wide-temperature-range</title><path d="M26,52A26,26,0,1,1,52,26,26,26,0,0,1,26,52ZM26,1.81A24.19,24.19,0,1,0,50.19,26,24.22,24.22,0,0,0,26,1.81Z" style="fill:#83b9e4"/><path d="M26,47.35A21.35,21.35,0,1,1,47.35,26,21.37,21.37,0,0,1,26,47.35ZM26,5.86A20.14,20.14,0,1,0,46.14,26,20.16,20.16,0,0,0,26,5.86Z" style="fill:#83b9e4"/><path d="M35.1,14.5v1.36H29.84V14.5Zm-2.21,3H29.84v1.36h3.06Zm-3.06,4.32H35.1V20.42H29.84Zm3.06,1.61H29.84v1.36h3.06ZM29.84,27.7H35.1V26.35H29.84Zm.82,7.74A6.88,6.88,0,1,1,20.3,29.52V13.93a3.48,3.48,0,1,1,7,0V29.52a6.84,6.84,0,0,1,3.4,5.93Zm-1.36,0a5.49,5.49,0,0,0-3-4.92l-.37-.19V13.93a2.12,2.12,0,1,0-4.25,0V30.34l-.37.19a5.52,5.52,0,1,0,8,4.92Zm-1.13,0a4.39,4.39,0,1,1-5.52-4.23l.25-.07V22.76h1.76v8.38l.25.07a4.39,4.39,0,0,1,3.26,4.23ZM24,32.52" style="fill:#83b9e4"/></svg>