<svg id="圖層_1" data-name="圖層 1" xmlns="http://www.w3.org/2000/svg" viewBox="0 0 52 52"><title>transportation-panoramic-view</title><path d="M26,52A26,26,0,1,1,52,26,26,26,0,0,1,26,52Zm0-50.2A24.19,24.19,0,1,0,50.19,26,24.22,24.22,0,0,0,26,1.81Z" style="fill:#83b9e4"/><path d="M26,47.35A21.35,21.35,0,1,1,47.35,26,21.37,21.37,0,0,1,26,47.35ZM26,5.86A20.14,20.14,0,1,0,46.14,26,20.16,20.16,0,0,0,26,5.86Z" style="fill:#83b9e4"/><path d="M40,24.6a3.57,3.57,0,0,1,.87,2.22c0,3.15-4.94,5.79-11.55,6.46v2.79c7.49-.72,13.11-3.8,13.11-7.49A5.21,5.21,0,0,0,40,24.6Z" style="fill:#83b9e4"/><path d="M23,33.33C16.21,32.71,11.1,30,11.1,26.83A3.57,3.57,0,0,1,12,24.6a5.21,5.21,0,0,0-2.44,4c0,3.75,5.81,6.85,13.47,7.51V38l5.06-3.12L23,31.75Z" style="fill:#83b9e4"/><path d="M16.89,20.53H15.18A2.8,2.8,0,0,1,18.07,18a2.72,2.72,0,0,1,1.94.73,2.3,2.3,0,0,1,.78,1.74,2,2,0,0,1-.34,1.14,2.43,2.43,0,0,1-1,.84,2.53,2.53,0,0,1,1.34.89,2.4,2.4,0,0,1,.48,1.5A2.83,2.83,0,0,1,20.35,27a3.33,3.33,0,0,1-2.37.88A3.08,3.08,0,0,1,15.74,27a3.25,3.25,0,0,1-.94-2.25h1.77a1.78,1.78,0,0,0,.51,1.08,1.56,1.56,0,0,0,2,0A1.35,1.35,0,0,0,19,23.73a2.57,2.57,0,0,0-1.6-.45V21.75a2.83,2.83,0,0,0,1-.2,1.19,1.19,0,0,0,.49-.41,1,1,0,0,0,.18-.55.83.83,0,0,0-.27-.63,1,1,0,0,0-.7-.25,1.14,1.14,0,0,0-.7.23A1.16,1.16,0,0,0,16.89,20.53Z" style="fill:#83b9e4"/><path d="M25.32,18l1.52.76L25.2,21.93a2.73,2.73,0,0,1,2,.86,2.92,2.92,0,0,1,.84,2.12,2.94,2.94,0,0,1-5,2,2.85,2.85,0,0,1-.85-2,3.05,3.05,0,0,1,.13-.87,8.84,8.84,0,0,1,.6-1.35Zm-.22,5.64a1.1,1.1,0,0,0-.84.36,1.37,1.37,0,0,0,0,1.82,1.11,1.11,0,0,0,.83.37A1.16,1.16,0,0,0,26,25.8,1.35,1.35,0,0,0,26,24,1.16,1.16,0,0,0,25.1,23.62Z" style="fill:#83b9e4"/><path d="M32.26,18a3.08,3.08,0,0,1,1.77.5A3.2,3.2,0,0,1,35.18,20a8.19,8.19,0,0,1,.41,2.89,8.19,8.19,0,0,1-.41,2.91,3.26,3.26,0,0,1-1.11,1.53,3,3,0,0,1-1.75.49,3.08,3.08,0,0,1-1.78-.49,3.19,3.19,0,0,1-1.13-1.49A7.83,7.83,0,0,1,29,23a6.78,6.78,0,0,1,.8-3.75A2.84,2.84,0,0,1,32.26,18Zm0,1.7a1.23,1.23,0,0,0-.8.29A1.89,1.89,0,0,0,31,21,8.78,8.78,0,0,0,30.78,23a5,5,0,0,0,.42,2.46,1.26,1.26,0,0,0,1.1.68,1.16,1.16,0,0,0,1-.64,5.36,5.36,0,0,0,.46-2.6,5.45,5.45,0,0,0-.42-2.55A1.23,1.23,0,0,0,32.3,19.67Z" style="fill:#83b9e4"/><path d="M40.94,20.17a2.1,2.1,0,0,1-.65,1.56,2.15,2.15,0,0,1-1.57.63,2.18,2.18,0,0,1-2.2-2.21,2.07,2.07,0,0,1,.65-1.54A2.16,2.16,0,0,1,38.75,18a2.19,2.19,0,0,1,2.19,2.19Zm-.76,0a1.47,1.47,0,0,0-.42-1.06,1.36,1.36,0,0,0-1-.43,1.4,1.4,0,0,0-1,.43,1.43,1.43,0,0,0-.43,1,1.44,1.44,0,0,0,.43,1,1.39,1.39,0,0,0,1,.44,1.37,1.37,0,0,0,1-.43A1.44,1.44,0,0,0,40.18,20.18Z" style="fill:#83b9e4"/></svg>