<svg id="圖層_1" data-name="圖層 1" xmlns="http://www.w3.org/2000/svg" viewBox="0 0 52 52"><title>transportation-smart-stream-ii</title><path d="M26,52A26,26,0,1,1,52,26,26,26,0,0,1,26,52Zm0-50.2A24.19,24.19,0,1,0,50.19,26,24.22,24.22,0,0,0,26,1.81Z" style="fill:#83b9e4"/><path d="M26,47.67A21.35,21.35,0,1,1,47.35,26.33,21.37,21.37,0,0,1,26,47.67ZM26,6.18A20.14,20.14,0,1,0,46.14,26.33,20.16,20.16,0,0,0,26,6.18Z" style="fill:#83b9e4"/><rect x="12.72" y="30.38" width="1.35" height="1.35" style="fill:#83b9e4"/><rect x="12.72" y="33.08" width="1.35" height="1.35" style="fill:#83b9e4"/><rect x="12.72" y="27.68" width="1.35" height="1.35" style="fill:#83b9e4"/><rect x="12.72" y="24.98" width="1.35" height="1.35" style="fill:#83b9e4"/><rect x="12.72" y="22.28" width="1.35" height="1.35" style="fill:#83b9e4"/><rect x="14.07" y="29.03" width="1.35" height="1.35" style="fill:#83b9e4"/><rect x="14.07" y="31.73" width="1.35" height="1.35" style="fill:#83b9e4"/><rect x="14.07" y="26.33" width="1.35" height="1.35" style="fill:#83b9e4"/><rect x="14.07" y="23.63" width="1.35" height="1.35" style="fill:#83b9e4"/><rect x="14.07" y="20.93" width="1.35" height="1.35" style="fill:#83b9e4"/><rect x="11.37" y="29.03" width="1.35" height="1.35" style="fill:#83b9e4"/><rect x="11.37" y="31.73" width="1.35" height="1.35" style="fill:#83b9e4"/><rect x="11.37" y="26.33" width="1.35" height="1.35" style="fill:#83b9e4"/><rect x="11.37" y="23.63" width="1.35" height="1.35" style="fill:#83b9e4"/><rect x="11.37" y="20.93" width="1.35" height="1.35" style="fill:#83b9e4"/><rect x="12.72" y="19.58" width="1.35" height="1.35" style="fill:#83b9e4"/><rect x="14.07" y="18.23" width="1.35" height="1.35" style="fill:#83b9e4"/><rect x="15.42" y="30.38" width="1.35" height="1.35" style="fill:#83b9e4"/><rect x="15.42" y="33.08" width="1.35" height="1.35" style="fill:#83b9e4"/><rect x="15.42" y="27.68" width="1.35" height="1.35" style="fill:#83b9e4"/><rect x="15.42" y="24.98" width="1.35" height="1.35" style="fill:#83b9e4"/><rect x="15.42" y="22.28" width="1.35" height="1.35" style="fill:#83b9e4"/><rect x="16.77" y="29.03" width="1.35" height="1.35" style="fill:#83b9e4"/><rect x="16.77" y="31.73" width="1.35" height="1.35" style="fill:#83b9e4"/><rect x="16.77" y="26.33" width="1.35" height="1.35" style="fill:#83b9e4"/><rect x="16.77" y="23.63" width="1.35" height="1.35" style="fill:#83b9e4"/><rect x="16.77" y="20.93" width="1.35" height="1.35" style="fill:#83b9e4"/><rect x="15.42" y="19.58" width="1.35" height="1.35" style="fill:#83b9e4"/><rect x="16.77" y="18.23" width="1.35" height="1.35" style="fill:#83b9e4"/><rect x="18.12" y="30.38" width="1.35" height="1.35" style="fill:#83b9e4"/><rect x="18.12" y="33.08" width="1.35" height="1.35" style="fill:#83b9e4"/><rect x="18.12" y="27.68" width="1.35" height="1.35" style="fill:#83b9e4"/><rect x="18.12" y="24.98" width="1.35" height="1.35" style="fill:#83b9e4"/><rect x="18.12" y="22.28" width="1.35" height="1.35" style="fill:#83b9e4"/><rect x="19.47" y="29.03" width="1.35" height="1.35" style="fill:#83b9e4"/><rect x="19.47" y="31.73" width="1.35" height="1.35" style="fill:#83b9e4"/><rect x="19.47" y="26.33" width="1.35" height="1.35" style="fill:#83b9e4"/><rect x="19.47" y="23.63" width="1.35" height="1.35" style="fill:#83b9e4"/><rect x="19.47" y="20.93" width="1.35" height="1.35" style="fill:#83b9e4"/><rect x="18.12" y="19.58" width="1.35" height="1.35" style="fill:#83b9e4"/><rect x="19.47" y="18.23" width="1.35" height="1.35" style="fill:#83b9e4"/><rect x="20.82" y="30.38" width="1.35" height="1.35" style="fill:#83b9e4"/><rect x="20.82" y="33.08" width="1.35" height="1.35" style="fill:#83b9e4"/><rect x="20.82" y="27.68" width="1.35" height="1.35" style="fill:#83b9e4"/><rect x="20.82" y="24.98" width="1.35" height="1.35" style="fill:#83b9e4"/><rect x="20.82" y="22.28" width="1.35" height="1.35" style="fill:#83b9e4"/><rect x="22.17" y="29.03" width="1.35" height="1.35" style="fill:#83b9e4"/><rect x="22.17" y="31.73" width="1.35" height="1.35" style="fill:#83b9e4"/><rect x="22.17" y="26.33" width="1.35" height="1.35" style="fill:#83b9e4"/><rect x="22.17" y="23.63" width="1.35" height="1.35" style="fill:#83b9e4"/><rect x="22.17" y="20.93" width="1.35" height="1.35" style="fill:#83b9e4"/><rect x="20.82" y="19.58" width="1.35" height="1.35" style="fill:#83b9e4"/><rect x="22.17" y="18.23" width="1.35" height="1.35" style="fill:#83b9e4"/><rect x="23.52" y="30.38" width="1.35" height="1.35" style="fill:#83b9e4"/><rect x="23.52" y="33.08" width="1.35" height="1.35" style="fill:#83b9e4"/><rect x="23.52" y="27.68" width="1.35" height="1.35" style="fill:#83b9e4"/><rect x="23.52" y="24.98" width="1.35" height="1.35" style="fill:#83b9e4"/><rect x="23.52" y="22.28" width="1.35" height="1.35" style="fill:#83b9e4"/><rect x="24.87" y="29.03" width="1.35" height="1.35" style="fill:#83b9e4"/><rect x="24.87" y="31.73" width="1.35" height="1.35" style="fill:#83b9e4"/><rect x="24.87" y="26.33" width="1.35" height="1.35" style="fill:#83b9e4"/><rect x="24.87" y="23.63" width="1.35" height="1.35" style="fill:#83b9e4"/><rect x="24.87" y="20.93" width="1.35" height="1.35" style="fill:#83b9e4"/><rect x="23.52" y="19.58" width="1.35" height="1.35" style="fill:#83b9e4"/><rect x="24.87" y="18.23" width="1.35" height="1.35" style="fill:#83b9e4"/><rect x="26.22" y="18.23" width="13.82" height="16.2" style="fill:#83b9e4"/><rect x="25.24" y="10.14" width="0.93" height="32.38" style="fill:#83b9e4"/></svg>