<svg id="圖層_1" data-name="圖層 1" xmlns="http://www.w3.org/2000/svg" viewBox="0 0 52 52"><title>transportation-tampering-detection</title><path d="M26,52A26,26,0,1,1,52,26,26,26,0,0,1,26,52ZM26,1.81A24.19,24.19,0,1,0,50.19,26,24.22,24.22,0,0,0,26,1.81Z" style="fill:#83b9e4"/><path d="M26,47.35A21.35,21.35,0,1,1,47.35,26,21.37,21.37,0,0,1,26,47.35ZM26,5.86A20.14,20.14,0,1,0,46.14,26,20.16,20.16,0,0,0,26,5.86Z" style="fill:#83b9e4"/><path d="M12.59,16.19v5.73a6,6,0,0,0,2.28,4.91,4.12,4.12,0,0,0,2.44.82H34.69a4.11,4.11,0,0,0,2.44-.82,6,6,0,0,0,2.29-4.91V16.19Zm14.17,9.07c0,.27-.34.5-.75.5s-.75-.23-.75-.5.34-.5.75-.5S26.75,25,26.75,25.26Zm-1-1a1.13,1.13,0,0,0-1.09,1,1.32,1.32,0,0,0,2.59,0,1.13,1.13,0,0,0-1.09-1,22.79,22.79,0,0,1,9.64,1.86,2.76,2.76,0,0,1-1.16.27H17.31a2.76,2.76,0,0,1-1.16-.27A22.79,22.79,0,0,1,25.79,24.26Zm10.6,1.55c-2.3-1.3-6.18-2.09-10.39-2.09s-8.09.8-10.39,2.09a4.82,4.82,0,0,1-1.76-3.88V19.65h24.3v2.27A4.82,4.82,0,0,1,36.39,25.8Zm1.76-6.69H13.85V17.45h24.3Z" style="fill:#83b9e4"/><path d="M34.69,28.62h0Z" style="fill:#83b9e4"/><path d="M25.3,37.27a7.28,7.28,0,0,1,4.84-8.66H17.31A8.68,8.68,0,0,0,25.3,37.27Z" style="fill:#83b9e4"/><path d="M32.4,30.24c-.65,0-1.18.39-1.18.88l.8,6.56a1.95,1.95,0,0,1,.78,0l.8-6.56C33.59,30.64,33.06,30.24,32.4,30.24Z" style="fill:#83b9e4"/><circle cx="32.4" cy="39.7" r="1.18" style="fill:#83b9e4"/></svg>