<svg id="圖層_1" data-name="圖層 1" xmlns="http://www.w3.org/2000/svg" viewBox="0 0 52 52"><title>transportation-fast-auto-exposure</title><path d="M26,52A26,26,0,1,1,52,26,26,26,0,0,1,26,52ZM26,1.81A24.19,24.19,0,1,0,50.19,26,24.22,24.22,0,0,0,26,1.81Z" style="fill:#83b9e4"/><path d="M25.74,46.87A21.13,21.13,0,1,1,46.87,25.74,21.16,21.16,0,0,1,25.74,46.87Zm0-41.07A19.94,19.94,0,1,0,45.68,25.74,20,20,0,0,0,25.74,5.8Z" style="fill:#83b9e4"/><path d="M36.54,13.86H14.94a1.08,1.08,0,0,0-1.08,1.08v21.6a1.08,1.08,0,0,0,1.08,1.08h21.6a1.08,1.08,0,0,0,1.08-1.08V14.94A1.08,1.08,0,0,0,36.54,13.86ZM33.3,31.14H26.82a1.08,1.08,0,0,1,0-2.16H33.3a1.08,1.08,0,0,1,0,2.16ZM16,35.46V16H35.46Zm2.16-13h2.16v2.16a1.08,1.08,0,1,0,2.16,0V22.5h2.16a1.08,1.08,0,0,0,0-2.16H22.5V18.18a1.08,1.08,0,1,0-2.16,0v2.16H18.18a1.08,1.08,0,0,0,0,2.16Z" style="fill:#83b9e4"/></svg>