<svg id="圖層_1" data-name="圖層 1" xmlns="http://www.w3.org/2000/svg" viewBox="0 0 52 52"><title>transportation-remote-focus</title><path d="M26,52A26,26,0,1,1,52,26,26,26,0,0,1,26,52Zm0-50.2A24.19,24.19,0,1,0,50.19,26,24.22,24.22,0,0,0,26,1.81Z" style="fill:#83b9e4"/><path d="M26,47.67A21.35,21.35,0,1,1,47.35,26.33,21.37,21.37,0,0,1,26,47.67ZM26,6.18A20.14,20.14,0,1,0,46.14,26.33,20.16,20.16,0,0,0,26,6.18Z" style="fill:#83b9e4"/><path d="M25.18,31.14v-4h-4V25.51h4v-4h1.64v4h4v1.64h-4v4Z" style="fill:#83b9e4"/><polygon points="16.44 20.68 15.01 20.68 15.01 16.27 20.41 16.27 20.41 17.7 16.44 17.7 16.44 20.68" style="fill:#83b9e4"/><polygon points="36.99 20.82 35.56 20.82 35.56 17.56 32.07 17.56 32.07 16.14 36.99 16.14 36.99 20.82" style="fill:#83b9e4"/><polygon points="36.99 36.38 32.07 36.38 32.07 34.95 35.56 34.95 35.56 31.57 36.99 31.57 36.99 36.38" style="fill:#83b9e4"/><polygon points="20.41 36.52 15.01 36.52 15.01 31.43 16.44 31.43 16.44 35.09 20.41 35.09 20.41 36.52" style="fill:#83b9e4"/></svg>