<svg id="圖層_1" data-name="圖層 1" xmlns="http://www.w3.org/2000/svg" xmlns:xlink="http://www.w3.org/1999/xlink" viewBox="0 0 52 52"><defs><clipPath id="clip-path"><circle cx="26" cy="26" r="18.64" style="fill:none"/></clipPath></defs><title>transportation-3d-noise-reduction</title><path d="M26,52A26,26,0,1,1,52,26,26,26,0,0,1,26,52Zm0-50.2A24.19,24.19,0,1,0,50.19,26,24.22,24.22,0,0,0,26,1.81Z" style="fill:#83b9e4"/><path d="M26,47.35A21.35,21.35,0,1,1,47.35,26,21.37,21.37,0,0,1,26,47.35ZM26,5.86A20.14,20.14,0,1,0,46.14,26,20.16,20.16,0,0,0,26,5.86Z" style="fill:#83b9e4"/><polygon points="7.71 31.39 14.6 22.73 17.79 26.67 19.78 25.09 25.97 31.39 7.71 31.39" style="fill:#83b9e4"/><polygon points="25.97 31.39 32.86 22.73 36.05 26.67 38.04 25.09 44.23 31.39 25.97 31.39" style="fill:#83b9e4"/><circle cx="21.23" cy="20.1" r="1.26" style="fill:#83b9e4"/><rect x="20.96" y="16.96" width="0.54" height="1.36" style="fill:#83b9e4"/><polygon points="22.68 19.03 22.3 18.65 23.26 17.68 23.65 18.07 22.68 19.03" style="fill:#83b9e4"/><rect x="23.01" y="19.83" width="1.36" height="0.54" style="fill:#83b9e4"/><polygon points="23.26 22.51 22.3 21.55 22.68 21.16 23.65 22.13 23.26 22.51" style="fill:#83b9e4"/><rect x="20.96" y="21.87" width="0.54" height="1.37" style="fill:#83b9e4"/><rect x="18.81" y="21.56" width="1.36" height="0.54" transform="translate(-9.72 20.07) rotate(-44.78)" style="fill:#83b9e4"/><rect x="18.09" y="19.83" width="1.36" height="0.54" style="fill:#83b9e4"/><polygon points="19.79 19.03 18.82 18.07 19.2 17.69 20.17 18.65 19.79 19.03" style="fill:#83b9e4"/><circle cx="38.92" cy="20.1" r="1.26" style="fill:#83b9e4"/><rect x="38.65" y="16.96" width="0.54" height="1.36" style="fill:#83b9e4"/><polygon points="40.37 19.03 39.98 18.65 40.95 17.68 41.33 18.07 40.37 19.03" style="fill:#83b9e4"/><rect x="40.7" y="19.83" width="1.36" height="0.54" style="fill:#83b9e4"/><polygon points="40.95 22.51 39.98 21.55 40.37 21.16 41.33 22.13 40.95 22.51" style="fill:#83b9e4"/><rect x="38.65" y="21.87" width="0.54" height="1.37" style="fill:#83b9e4"/><polygon points="36.89 22.51 36.5 22.13 37.47 21.16 37.85 21.55 36.89 22.51" style="fill:#83b9e4"/><rect x="35.77" y="19.83" width="1.36" height="0.54" style="fill:#83b9e4"/><polygon points="37.47 19.03 36.5 18.07 36.89 17.69 37.85 18.65 37.47 19.03" style="fill:#83b9e4"/><path d="M12.55,33.17c.34,5.21,8.59,6.43,8.59,6.43l3.52-.81.47-2.44C19.28,36.35,12.55,33.17,12.55,33.17Zm8.39,4.4A15,15,0,0,1,13.36,34a21.13,21.13,0,0,0,11.1,2.64Z" style="fill:#83b9e4"/><polygon points="17.19 36.95 17.04 36.43 19.61 35.69 19.76 36.2 17.19 36.95" style="fill:#83b9e4"/><path d="M27.27,33.17c.34,5.21,8.59,6.43,8.59,6.43l3.52-.81.47-2.44C34,36.35,27.27,33.17,27.27,33.17Zm.81.81a21.69,21.69,0,0,0,5.11,2l-1.36.4A14.76,14.76,0,0,1,28.08,34Zm7.58,3.59a13.24,13.24,0,0,1-3-.82l1.66-.48a17.81,17.81,0,0,0,4.9.36Z" style="fill:#83b9e4"/><g style="clip-path:url(#clip-path)"><rect x="22.51" y="6.55" width="1.08" height="1.08" style="fill:#83b9e4"/><rect x="24.66" y="6.55" width="1.08" height="1.08" style="fill:#83b9e4"/><rect x="13.9" y="8.71" width="1.08" height="1.07" style="fill:#83b9e4"/><rect x="16.06" y="8.71" width="1.08" height="1.07" style="fill:#83b9e4"/><rect x="17.13" y="7.63" width="1.07" height="1.08" style="fill:#83b9e4"/><rect x="18.21" y="8.71" width="1.07" height="1.07" style="fill:#83b9e4"/><rect x="19.28" y="7.63" width="1.07" height="1.08" style="fill:#83b9e4"/><rect x="20.36" y="8.71" width="1.07" height="1.07" style="fill:#83b9e4"/><rect x="21.43" y="7.63" width="1.07" height="1.08" style="fill:#83b9e4"/><rect x="22.51" y="8.71" width="1.08" height="1.07" style="fill:#83b9e4"/><rect x="23.58" y="7.63" width="1.07" height="1.08" style="fill:#83b9e4"/><rect x="24.66" y="8.71" width="1.08" height="1.07" style="fill:#83b9e4"/><rect x="13.9" y="10.87" width="1.08" height="1.08" style="fill:#83b9e4"/><rect x="14.98" y="9.78" width="1.07" height="1.08" style="fill:#83b9e4"/><rect x="16.06" y="10.87" width="1.08" height="1.08" style="fill:#83b9e4"/><rect x="17.13" y="9.78" width="1.07" height="1.08" style="fill:#83b9e4"/><rect x="18.21" y="10.87" width="1.07" height="1.08" style="fill:#83b9e4"/><rect x="19.28" y="9.78" width="1.07" height="1.08" style="fill:#83b9e4"/><rect x="20.36" y="10.87" width="1.07" height="1.08" style="fill:#83b9e4"/><rect x="21.43" y="9.78" width="1.07" height="1.08" style="fill:#83b9e4"/><rect x="22.51" y="10.87" width="1.08" height="1.08" style="fill:#83b9e4"/><rect x="23.58" y="9.78" width="1.07" height="1.08" style="fill:#83b9e4"/><rect x="24.66" y="10.87" width="1.08" height="1.08" style="fill:#83b9e4"/><rect x="9.61" y="13.02" width="1.07" height="1.08" style="fill:#83b9e4"/><rect x="10.68" y="11.94" width="1.07" height="1.08" style="fill:#83b9e4"/><rect x="11.75" y="13.02" width="1.08" height="1.08" style="fill:#83b9e4"/><rect x="12.83" y="11.94" width="1.07" height="1.08" style="fill:#83b9e4"/><rect x="13.9" y="13.02" width="1.08" height="1.08" style="fill:#83b9e4"/><rect x="14.98" y="11.94" width="1.07" height="1.08" style="fill:#83b9e4"/><rect x="16.06" y="13.02" width="1.08" height="1.08" style="fill:#83b9e4"/><rect x="17.13" y="11.94" width="1.07" height="1.08" style="fill:#83b9e4"/><rect x="18.21" y="13.02" width="1.07" height="1.08" style="fill:#83b9e4"/><rect x="19.28" y="11.94" width="1.07" height="1.08" style="fill:#83b9e4"/><rect x="20.36" y="13.02" width="1.07" height="1.08" style="fill:#83b9e4"/><rect x="21.43" y="11.94" width="1.07" height="1.08" style="fill:#83b9e4"/><rect x="22.51" y="13.02" width="1.08" height="1.08" style="fill:#83b9e4"/><rect x="23.58" y="11.94" width="1.07" height="1.08" style="fill:#83b9e4"/><rect x="24.66" y="13.02" width="1.08" height="1.08" style="fill:#83b9e4"/><rect x="9.61" y="15.18" width="1.07" height="1.08" style="fill:#83b9e4"/><rect x="10.68" y="14.1" width="1.07" height="1.08" style="fill:#83b9e4"/><rect x="11.75" y="15.18" width="1.08" height="1.08" style="fill:#83b9e4"/><rect x="12.83" y="14.1" width="1.07" height="1.08" style="fill:#83b9e4"/><rect x="13.9" y="15.18" width="1.08" height="1.08" style="fill:#83b9e4"/><rect x="14.98" y="14.1" width="1.07" height="1.08" style="fill:#83b9e4"/><rect x="16.06" y="15.18" width="1.08" height="1.08" style="fill:#83b9e4"/><rect x="17.13" y="14.1" width="1.07" height="1.08" style="fill:#83b9e4"/><rect x="18.21" y="15.18" width="1.07" height="1.08" style="fill:#83b9e4"/><rect x="19.28" y="14.1" width="1.07" height="1.08" style="fill:#83b9e4"/><rect x="20.36" y="15.18" width="1.07" height="1.08" style="fill:#83b9e4"/><rect x="21.43" y="14.1" width="1.07" height="1.08" style="fill:#83b9e4"/><rect x="22.51" y="15.18" width="1.08" height="1.08" style="fill:#83b9e4"/><rect x="23.58" y="14.1" width="1.07" height="1.08" style="fill:#83b9e4"/><rect x="24.66" y="15.18" width="1.08" height="1.08" style="fill:#83b9e4"/><rect x="6.38" y="16.26" width="1.07" height="1.08" style="fill:#83b9e4"/><rect x="7.45" y="17.33" width="1.08" height="1.08" style="fill:#83b9e4"/><rect x="8.53" y="16.26" width="1.07" height="1.08" style="fill:#83b9e4"/><rect x="9.61" y="17.33" width="1.07" height="1.08" style="fill:#83b9e4"/><rect x="10.68" y="16.26" width="1.07" height="1.08" style="fill:#83b9e4"/><rect x="11.75" y="17.33" width="1.08" height="1.08" style="fill:#83b9e4"/><rect x="12.83" y="16.26" width="1.07" height="1.08" style="fill:#83b9e4"/><rect x="13.9" y="17.33" width="1.08" height="1.08" style="fill:#83b9e4"/><rect x="14.98" y="16.26" width="1.07" height="1.08" style="fill:#83b9e4"/><rect x="16.06" y="17.33" width="1.08" height="1.08" style="fill:#83b9e4"/><rect x="17.13" y="16.26" width="1.07" height="1.08" style="fill:#83b9e4"/><rect x="18.21" y="17.33" width="1.07" height="1.08" style="fill:#83b9e4"/><rect x="19.28" y="16.26" width="1.07" height="1.08" style="fill:#83b9e4"/><rect x="20.36" y="17.33" width="1.07" height="1.08" style="fill:#83b9e4"/><rect x="21.43" y="16.26" width="1.07" height="1.08" style="fill:#83b9e4"/><rect x="22.51" y="17.33" width="1.08" height="1.08" style="fill:#83b9e4"/><rect x="23.58" y="16.26" width="1.07" height="1.08" style="fill:#83b9e4"/><rect x="24.66" y="17.33" width="1.08" height="1.08" style="fill:#83b9e4"/><rect x="6.38" y="18.41" width="1.07" height="1.08" style="fill:#83b9e4"/><rect x="7.45" y="19.49" width="1.08" height="1.08" style="fill:#83b9e4"/><rect x="8.53" y="18.41" width="1.07" height="1.08" style="fill:#83b9e4"/><rect x="9.61" y="19.49" width="1.07" height="1.08" style="fill:#83b9e4"/><rect x="10.68" y="18.41" width="1.07" height="1.08" style="fill:#83b9e4"/><rect x="11.75" y="19.49" width="1.08" height="1.08" style="fill:#83b9e4"/><rect x="12.83" y="18.41" width="1.07" height="1.08" style="fill:#83b9e4"/><rect x="13.9" y="19.49" width="1.08" height="1.08" style="fill:#83b9e4"/><rect x="14.98" y="18.41" width="1.07" height="1.08" style="fill:#83b9e4"/><rect x="16.06" y="19.49" width="1.08" height="1.08" style="fill:#83b9e4"/><rect x="17.13" y="18.41" width="1.07" height="1.08" style="fill:#83b9e4"/><rect x="18.21" y="19.49" width="1.07" height="1.08" style="fill:#83b9e4"/><rect x="19.28" y="18.41" width="1.07" height="1.08" style="fill:#83b9e4"/><rect x="20.36" y="19.49" width="1.07" height="1.08" style="fill:#83b9e4"/><rect x="21.43" y="18.41" width="1.07" height="1.08" style="fill:#83b9e4"/><rect x="22.51" y="19.49" width="1.08" height="1.08" style="fill:#83b9e4"/><rect x="23.58" y="18.41" width="1.07" height="1.08" style="fill:#83b9e4"/><rect x="24.66" y="19.49" width="1.08" height="1.08" style="fill:#83b9e4"/><rect x="6.38" y="20.57" width="1.07" height="1.08" style="fill:#83b9e4"/><rect x="7.45" y="21.65" width="1.08" height="1.08" style="fill:#83b9e4"/><rect x="8.53" y="20.57" width="1.07" height="1.08" style="fill:#83b9e4"/><rect x="9.61" y="21.65" width="1.07" height="1.08" style="fill:#83b9e4"/><rect x="10.68" y="20.57" width="1.07" height="1.08" style="fill:#83b9e4"/><rect x="11.75" y="21.65" width="1.08" height="1.08" style="fill:#83b9e4"/><rect x="12.83" y="20.57" width="1.07" height="1.08" style="fill:#83b9e4"/><rect x="13.9" y="21.65" width="1.08" height="1.08" style="fill:#83b9e4"/><rect x="14.98" y="20.57" width="1.07" height="1.08" style="fill:#83b9e4"/><rect x="16.06" y="21.65" width="1.08" height="1.08" style="fill:#83b9e4"/><rect x="17.13" y="20.57" width="1.07" height="1.08" style="fill:#83b9e4"/><rect x="18.21" y="21.65" width="1.07" height="1.08" style="fill:#83b9e4"/><rect x="19.28" y="20.57" width="1.07" height="1.08" style="fill:#83b9e4"/><rect x="20.36" y="21.65" width="1.07" height="1.08" style="fill:#83b9e4"/><rect x="21.43" y="20.57" width="1.07" height="1.08" style="fill:#83b9e4"/><rect x="22.51" y="21.65" width="1.08" height="1.08" style="fill:#83b9e4"/><rect x="23.58" y="20.57" width="1.07" height="1.08" style="fill:#83b9e4"/><rect x="24.66" y="21.65" width="1.08" height="1.08" style="fill:#83b9e4"/><rect x="6.38" y="22.72" width="1.07" height="1.08" style="fill:#83b9e4"/><rect x="7.45" y="23.8" width="1.08" height="1.08" style="fill:#83b9e4"/><rect x="8.53" y="22.72" width="1.07" height="1.08" style="fill:#83b9e4"/><rect x="9.61" y="23.8" width="1.07" height="1.08" style="fill:#83b9e4"/><rect x="10.68" y="22.72" width="1.07" height="1.08" style="fill:#83b9e4"/><rect x="11.75" y="23.8" width="1.08" height="1.08" style="fill:#83b9e4"/><rect x="12.83" y="22.72" width="1.07" height="1.08" style="fill:#83b9e4"/><rect x="13.9" y="23.8" width="1.08" height="1.08" style="fill:#83b9e4"/><rect x="14.98" y="22.72" width="1.07" height="1.08" style="fill:#83b9e4"/><rect x="16.06" y="23.8" width="1.08" height="1.08" style="fill:#83b9e4"/><rect x="17.13" y="22.72" width="1.07" height="1.08" style="fill:#83b9e4"/><rect x="18.21" y="23.8" width="1.07" height="1.08" style="fill:#83b9e4"/><rect x="19.28" y="22.72" width="1.07" height="1.08" style="fill:#83b9e4"/><rect x="20.36" y="23.8" width="1.07" height="1.08" style="fill:#83b9e4"/><rect x="21.43" y="22.72" width="1.07" height="1.08" style="fill:#83b9e4"/><rect x="22.51" y="23.8" width="1.08" height="1.08" style="fill:#83b9e4"/><rect x="23.58" y="22.72" width="1.07" height="1.08" style="fill:#83b9e4"/><rect x="24.66" y="23.8" width="1.08" height="1.08" style="fill:#83b9e4"/><rect x="6.38" y="24.88" width="1.07" height="1.07" style="fill:#83b9e4"/><rect x="7.45" y="25.96" width="1.08" height="1.08" style="fill:#83b9e4"/><rect x="8.53" y="24.88" width="1.07" height="1.07" style="fill:#83b9e4"/><rect x="9.61" y="25.96" width="1.07" height="1.08" style="fill:#83b9e4"/><rect x="10.68" y="24.88" width="1.07" height="1.07" style="fill:#83b9e4"/><rect x="11.75" y="25.96" width="1.08" height="1.08" style="fill:#83b9e4"/><rect x="12.83" y="24.88" width="1.07" height="1.07" style="fill:#83b9e4"/><rect x="13.9" y="25.96" width="1.08" height="1.08" style="fill:#83b9e4"/><rect x="14.98" y="24.88" width="1.07" height="1.07" style="fill:#83b9e4"/><rect x="16.06" y="25.96" width="1.08" height="1.08" style="fill:#83b9e4"/><rect x="17.13" y="24.88" width="1.07" height="1.07" style="fill:#83b9e4"/><rect x="18.21" y="25.96" width="1.07" height="1.08" style="fill:#83b9e4"/><rect x="19.28" y="24.88" width="1.07" height="1.07" style="fill:#83b9e4"/><rect x="20.36" y="25.96" width="1.07" height="1.08" style="fill:#83b9e4"/><rect x="21.43" y="24.88" width="1.07" height="1.07" style="fill:#83b9e4"/><rect x="22.51" y="25.96" width="1.08" height="1.08" style="fill:#83b9e4"/><rect x="23.58" y="24.88" width="1.07" height="1.07" style="fill:#83b9e4"/><rect x="24.66" y="25.96" width="1.08" height="1.08" style="fill:#83b9e4"/><rect x="6.38" y="27.04" width="1.07" height="1.08" style="fill:#83b9e4"/><rect x="7.45" y="28.11" width="1.08" height="1.08" style="fill:#83b9e4"/><rect x="8.53" y="27.04" width="1.07" height="1.08" style="fill:#83b9e4"/><rect x="9.61" y="28.11" width="1.07" height="1.08" style="fill:#83b9e4"/><rect x="10.68" y="27.04" width="1.07" height="1.08" style="fill:#83b9e4"/><rect x="11.75" y="28.11" width="1.08" height="1.08" style="fill:#83b9e4"/><rect x="12.83" y="27.04" width="1.07" height="1.08" style="fill:#83b9e4"/><rect x="13.9" y="28.11" width="1.08" height="1.08" style="fill:#83b9e4"/><rect x="14.98" y="27.04" width="1.07" height="1.08" style="fill:#83b9e4"/><rect x="16.06" y="28.11" width="1.08" height="1.08" style="fill:#83b9e4"/><rect x="18.21" y="28.11" width="1.07" height="1.08" style="fill:#83b9e4"/><rect x="19.28" y="27.04" width="1.07" height="1.08" style="fill:#83b9e4"/><rect x="20.36" y="28.11" width="1.07" height="1.08" style="fill:#83b9e4"/><rect x="21.43" y="27.04" width="1.07" height="1.08" style="fill:#83b9e4"/><rect x="22.51" y="28.11" width="1.08" height="1.08" style="fill:#83b9e4"/><rect x="23.58" y="27.04" width="1.07" height="1.08" style="fill:#83b9e4"/><rect x="24.66" y="28.11" width="1.08" height="1.08" style="fill:#83b9e4"/><rect x="6.38" y="29.19" width="1.07" height="1.07" style="fill:#83b9e4"/><rect x="7.45" y="30.27" width="1.08" height="1.09" style="fill:#83b9e4"/><rect x="8.53" y="29.19" width="1.07" height="1.07" style="fill:#83b9e4"/><rect x="9.61" y="30.27" width="1.07" height="1.09" style="fill:#83b9e4"/><rect x="10.68" y="29.19" width="1.07" height="1.07" style="fill:#83b9e4"/><rect x="11.75" y="30.27" width="1.08" height="1.09" style="fill:#83b9e4"/><rect x="12.83" y="29.19" width="1.07" height="1.07" style="fill:#83b9e4"/><rect x="13.9" y="30.27" width="1.08" height="1.09" style="fill:#83b9e4"/><rect x="14.98" y="29.19" width="1.07" height="1.07" style="fill:#83b9e4"/><rect x="16.06" y="30.27" width="1.08" height="1.09" style="fill:#83b9e4"/><rect x="17.13" y="29.19" width="1.07" height="1.07" style="fill:#83b9e4"/><rect x="18.21" y="30.27" width="1.07" height="1.09" style="fill:#83b9e4"/><rect x="19.28" y="29.19" width="1.07" height="1.07" style="fill:#83b9e4"/><rect x="20.36" y="30.27" width="1.07" height="1.09" style="fill:#83b9e4"/><rect x="21.43" y="29.19" width="1.07" height="1.07" style="fill:#83b9e4"/><rect x="22.51" y="30.27" width="1.08" height="1.09" style="fill:#83b9e4"/><rect x="23.58" y="29.19" width="1.07" height="1.07" style="fill:#83b9e4"/><rect x="24.66" y="30.27" width="1.08" height="1.09" style="fill:#83b9e4"/><rect x="6.38" y="31.35" width="1.07" height="1.07" style="fill:#83b9e4"/><rect x="7.45" y="32.42" width="1.08" height="1.09" style="fill:#83b9e4"/><rect x="8.53" y="31.35" width="1.07" height="1.07" style="fill:#83b9e4"/><rect x="9.61" y="32.42" width="1.07" height="1.09" style="fill:#83b9e4"/><rect x="10.68" y="31.35" width="1.07" height="1.07" style="fill:#83b9e4"/><rect x="11.75" y="32.42" width="1.08" height="1.09" style="fill:#83b9e4"/><rect x="12.83" y="31.35" width="1.07" height="1.07" style="fill:#83b9e4"/><rect x="13.9" y="32.42" width="1.08" height="1.09" style="fill:#83b9e4"/><rect x="14.98" y="31.35" width="1.07" height="1.07" style="fill:#83b9e4"/><rect x="16.06" y="32.42" width="1.08" height="1.09" style="fill:#83b9e4"/><rect x="17.13" y="31.35" width="1.07" height="1.07" style="fill:#83b9e4"/><rect x="18.21" y="32.42" width="1.07" height="1.09" style="fill:#83b9e4"/><rect x="19.28" y="31.35" width="1.07" height="1.07" style="fill:#83b9e4"/><rect x="20.36" y="32.42" width="1.07" height="1.09" style="fill:#83b9e4"/><rect x="21.43" y="31.35" width="1.07" height="1.07" style="fill:#83b9e4"/><rect x="22.51" y="32.42" width="1.08" height="1.09" style="fill:#83b9e4"/><rect x="23.58" y="33.51" width="1.08" height="1.08" style="fill:#83b9e4"/><rect x="23.58" y="31.35" width="1.07" height="1.07" style="fill:#83b9e4"/><rect x="24.66" y="32.42" width="1.08" height="1.09" style="fill:#83b9e4"/><rect x="6.38" y="33.51" width="1.07" height="1.07" style="fill:#83b9e4"/><rect x="7.45" y="34.58" width="1.08" height="1.08" style="fill:#83b9e4"/><rect x="8.53" y="33.51" width="1.07" height="1.07" style="fill:#83b9e4"/><rect x="9.61" y="34.58" width="1.07" height="1.08" style="fill:#83b9e4"/><rect x="10.68" y="33.51" width="1.07" height="1.07" style="fill:#83b9e4"/><rect x="11.75" y="34.58" width="1.08" height="1.08" style="fill:#83b9e4"/><rect x="12.83" y="33.51" width="1.07" height="1.07" style="fill:#83b9e4"/><rect x="13.9" y="34.58" width="1.08" height="1.08" style="fill:#83b9e4"/><rect x="14.98" y="33.51" width="1.07" height="1.07" style="fill:#83b9e4"/><rect x="16.06" y="34.58" width="1.08" height="1.08" style="fill:#83b9e4"/><rect x="17.13" y="33.51" width="1.07" height="1.07" style="fill:#83b9e4"/><rect x="18.21" y="34.58" width="1.07" height="1.08" style="fill:#83b9e4"/><rect x="19.28" y="33.51" width="1.07" height="1.07" style="fill:#83b9e4"/><rect x="20.36" y="34.58" width="1.07" height="1.08" style="fill:#83b9e4"/><rect x="21.43" y="33.51" width="1.07" height="1.07" style="fill:#83b9e4"/><rect x="22.51" y="34.58" width="1.08" height="1.08" style="fill:#83b9e4"/><rect x="24.66" y="34.58" width="1.08" height="1.08" style="fill:#83b9e4"/><rect x="6.38" y="35.66" width="1.07" height="1.08" style="fill:#83b9e4"/><rect x="7.45" y="36.74" width="1.08" height="1.08" style="fill:#83b9e4"/><rect x="8.53" y="35.66" width="1.07" height="1.08" style="fill:#83b9e4"/><rect x="9.61" y="36.74" width="1.07" height="1.08" style="fill:#83b9e4"/><rect x="10.68" y="35.66" width="1.07" height="1.08" style="fill:#83b9e4"/><rect x="11.75" y="36.74" width="1.08" height="1.08" style="fill:#83b9e4"/><rect x="12.83" y="35.66" width="1.07" height="1.08" style="fill:#83b9e4"/><rect x="13.9" y="36.74" width="1.08" height="1.08" style="fill:#83b9e4"/><rect x="14.98" y="35.66" width="1.07" height="1.08" style="fill:#83b9e4"/><rect x="16.06" y="36.74" width="1.08" height="1.08" style="fill:#83b9e4"/><rect x="17.13" y="35.66" width="1.07" height="1.08" style="fill:#83b9e4"/><rect x="18.21" y="36.74" width="1.07" height="1.08" style="fill:#83b9e4"/><rect x="19.28" y="35.66" width="1.07" height="1.08" style="fill:#83b9e4"/><rect x="20.36" y="36.74" width="1.07" height="1.08" style="fill:#83b9e4"/><rect x="21.43" y="35.66" width="1.07" height="1.08" style="fill:#83b9e4"/><rect x="22.51" y="36.74" width="1.08" height="1.08" style="fill:#83b9e4"/><rect x="23.58" y="35.66" width="1.07" height="1.08" style="fill:#83b9e4"/><rect x="24.66" y="36.74" width="1.08" height="1.08" style="fill:#83b9e4"/><rect x="6.38" y="37.82" width="1.07" height="1.07" style="fill:#83b9e4"/><rect x="7.45" y="38.89" width="1.08" height="1.08" style="fill:#83b9e4"/><rect x="8.53" y="37.82" width="1.07" height="1.07" style="fill:#83b9e4"/><rect x="9.61" y="38.89" width="1.07" height="1.08" style="fill:#83b9e4"/><rect x="10.68" y="37.82" width="1.07" height="1.07" style="fill:#83b9e4"/><rect x="11.75" y="38.89" width="1.08" height="1.08" style="fill:#83b9e4"/><rect x="12.83" y="37.82" width="1.07" height="1.07" style="fill:#83b9e4"/><rect x="13.9" y="38.89" width="1.08" height="1.08" style="fill:#83b9e4"/><rect x="14.98" y="37.82" width="1.07" height="1.07" style="fill:#83b9e4"/><rect x="16.06" y="38.89" width="1.08" height="1.08" style="fill:#83b9e4"/><rect x="17.13" y="37.82" width="1.07" height="1.07" style="fill:#83b9e4"/><rect x="18.21" y="38.89" width="1.07" height="1.08" style="fill:#83b9e4"/><rect x="19.28" y="37.82" width="1.07" height="1.07" style="fill:#83b9e4"/><rect x="20.36" y="38.89" width="1.07" height="1.08" style="fill:#83b9e4"/><rect x="21.43" y="37.82" width="1.07" height="1.07" style="fill:#83b9e4"/><rect x="22.51" y="38.89" width="1.08" height="1.08" style="fill:#83b9e4"/><rect x="23.58" y="37.82" width="1.07" height="1.07" style="fill:#83b9e4"/><rect x="24.66" y="38.89" width="1.08" height="1.08" style="fill:#83b9e4"/><rect x="6.38" y="39.98" width="1.07" height="1.07" style="fill:#83b9e4"/><rect x="7.45" y="41.05" width="1.08" height="1.08" style="fill:#83b9e4"/><rect x="8.53" y="39.98" width="1.07" height="1.07" style="fill:#83b9e4"/><rect x="9.61" y="41.05" width="1.07" height="1.08" style="fill:#83b9e4"/><rect x="10.68" y="39.98" width="1.07" height="1.07" style="fill:#83b9e4"/><rect x="11.75" y="41.05" width="1.08" height="1.08" style="fill:#83b9e4"/><rect x="12.83" y="39.98" width="1.07" height="1.07" style="fill:#83b9e4"/><rect x="13.9" y="41.05" width="1.08" height="1.08" style="fill:#83b9e4"/><rect x="14.98" y="39.98" width="1.07" height="1.07" style="fill:#83b9e4"/><rect x="16.06" y="41.05" width="1.08" height="1.08" style="fill:#83b9e4"/><rect x="17.13" y="39.98" width="1.07" height="1.07" style="fill:#83b9e4"/><rect x="18.21" y="41.05" width="1.07" height="1.08" style="fill:#83b9e4"/><rect x="19.28" y="39.98" width="1.07" height="1.07" style="fill:#83b9e4"/><rect x="20.36" y="41.05" width="1.07" height="1.08" style="fill:#83b9e4"/><rect x="21.43" y="39.98" width="1.07" height="1.07" style="fill:#83b9e4"/><rect x="22.51" y="41.05" width="1.08" height="1.08" style="fill:#83b9e4"/><rect x="23.58" y="39.98" width="1.07" height="1.07" style="fill:#83b9e4"/><rect x="24.66" y="41.05" width="1.08" height="1.08" style="fill:#83b9e4"/><rect x="6.38" y="42.13" width="1.07" height="1.07" style="fill:#83b9e4"/><rect x="7.45" y="43.21" width="1.08" height="1.08" style="fill:#83b9e4"/><rect x="8.53" y="42.13" width="1.07" height="1.07" style="fill:#83b9e4"/><rect x="9.61" y="43.21" width="1.07" height="1.08" style="fill:#83b9e4"/><rect x="10.68" y="42.13" width="1.07" height="1.07" style="fill:#83b9e4"/><rect x="11.75" y="43.21" width="1.08" height="1.08" style="fill:#83b9e4"/><rect x="12.83" y="42.13" width="1.07" height="1.07" style="fill:#83b9e4"/><rect x="13.9" y="43.21" width="1.08" height="1.08" style="fill:#83b9e4"/><rect x="14.98" y="42.13" width="1.07" height="1.07" style="fill:#83b9e4"/><rect x="16.06" y="43.21" width="1.08" height="1.08" style="fill:#83b9e4"/><rect x="17.13" y="42.13" width="1.07" height="1.07" style="fill:#83b9e4"/><rect x="18.21" y="43.21" width="1.07" height="1.08" style="fill:#83b9e4"/><rect x="19.28" y="42.13" width="1.07" height="1.07" style="fill:#83b9e4"/><rect x="20.36" y="43.21" width="1.07" height="1.08" style="fill:#83b9e4"/><rect x="21.43" y="42.13" width="1.07" height="1.07" style="fill:#83b9e4"/><rect x="22.51" y="43.21" width="1.08" height="1.08" style="fill:#83b9e4"/><rect x="23.58" y="42.13" width="1.07" height="1.07" style="fill:#83b9e4"/><rect x="24.66" y="43.21" width="1.08" height="1.08" style="fill:#83b9e4"/><rect x="6.38" y="44.29" width="1.07" height="1.08" style="fill:#83b9e4"/><rect x="8.53" y="44.29" width="1.07" height="1.08" style="fill:#83b9e4"/><rect x="10.68" y="44.29" width="1.07" height="1.08" style="fill:#83b9e4"/><rect x="12.83" y="44.29" width="1.07" height="1.08" style="fill:#83b9e4"/><rect x="14.98" y="44.29" width="1.07" height="1.08" style="fill:#83b9e4"/><rect x="17.13" y="44.29" width="1.07" height="1.08" style="fill:#83b9e4"/><rect x="19.28" y="44.29" width="1.07" height="1.08" style="fill:#83b9e4"/><rect x="21.43" y="44.29" width="1.07" height="1.08" style="fill:#83b9e4"/><rect x="23.58" y="44.29" width="1.07" height="1.08" style="fill:#83b9e4"/></g></svg>