<svg id="圖層_1" data-name="圖層 1" xmlns="http://www.w3.org/2000/svg" viewBox="0 0 52 52"><title>transportation-e-mark-certification</title><path d="M26,52A26,26,0,1,1,52,26,26,26,0,0,1,26,52ZM26,1.81A24.19,24.19,0,1,0,50.19,26,24.22,24.22,0,0,0,26,1.81Z" style="fill:#83b9e4"/><path d="M26,47.35A21.35,21.35,0,1,1,47.35,26,21.37,21.37,0,0,1,26,47.35ZM26,5.86A20.14,20.14,0,1,0,46.14,26,20.16,20.16,0,0,0,26,5.86Z" style="fill:#83b9e4"/><path d="M37,19.14c-.22-2.14-.57-3.81-1.12-4.47-2.28-2.7-18.24-2.89-20,0a12.78,12.78,0,0,0-1,4.47,1.35,1.35,0,0,0-1.2,1.34v2.63a1.35,1.35,0,0,0,.89,1.27c-.12,4.14,0,8.45.16,10.59,0,1.66,1.11,1.38,1.11,1.38h1v1.79a1.49,1.49,0,0,0,1.63,1.28,1.49,1.49,0,0,0,1.63-1.28V36.35H32.31v1.79a1.68,1.68,0,0,0,3.27,0V36.35h.34s1.31.18,1.39-.6c0-2.14.13-6.88,0-11.36a1.34,1.34,0,0,0,1-1.29V20.48A1.35,1.35,0,0,0,37,19.14ZM19.77,15.06H32v1.86H19.77Zm.18,19.19a1.74,1.74,0,1,1,1.74-1.74,1.74,1.74,0,0,1-1.74,1.74Zm12,0A1.74,1.74,0,1,1,33.7,32.5,1.74,1.74,0,0,1,32,34.24Zm2.21-7.62H17.62V17.94H34.17Zm0,0" style="fill:#83b9e4"/></svg>