<svg id="圖層_1" data-name="圖層 1" xmlns="http://www.w3.org/2000/svg" viewBox="0 0 52 52"><title>transportation-edge-vca</title><path d="M26,52A26,26,0,1,1,52,26,26,26,0,0,1,26,52Zm0-50.2A24.19,24.19,0,1,0,50.19,26,24.22,24.22,0,0,0,26,1.81Z" style="fill:#83b9e4"/><path d="M26,47.35A21.35,21.35,0,1,1,47.35,26,21.37,21.37,0,0,1,26,47.35ZM26,5.86A20.14,20.14,0,1,0,46.14,26,20.16,20.16,0,0,0,26,5.86Z" style="fill:#83b9e4"/><path d="M32.68,20.62a1,1,0,0,0-.09-.19l-.08-.25a.62.62,0,0,1,0-.2.15.15,0,0,0,.05-.13c0-.17.07-.71-.05-.65s0,0-.05-.12a5.15,5.15,0,0,1-.06-.7,2.13,2.13,0,0,0-.05-.59,1.71,1.71,0,0,1,0-.71,1.33,1.33,0,0,0-.66-1.23l-.05-.12c.06,0,.14-.07.14-.14l0-.06a.18.18,0,0,0,0-.14,1.93,1.93,0,0,0,.1-.18s.1-.29.06-.34a.32.32,0,0,0,.07-.17,2.53,2.53,0,0,0,0-.46h0s.11-.06,0-.11L32,14c0-.05-.52-.46-.75-.34,0,0-.48,0-.57.32a1.8,1.8,0,0,0-.11.51h0c0,.07-.1.2,0,.29s.09.18.09.18a1.15,1.15,0,0,1-.06.24v0a.45.45,0,0,1-.23.16c-.23.09-1.13.32-1.29.54a4,4,0,0,0-.47,1c-.12.37-.15.53-.24.74a4.05,4.05,0,0,0-.18,1.64v0a3.94,3.94,0,0,1,0,.46.79.79,0,0,0,0,.16,1,1,0,0,1-.07.3,1.25,1.25,0,0,0,0,.46c0,.07-.06.32.09.32h.09s.09.16.17.17.13,0,.06-.1l0-.11,0-.2s.05-.15.07-.08,0,.18,0,.22.09.1.13,0v-.08a.33.33,0,0,0,0-.12c0-.06,0-.11,0-.13a.42.42,0,0,0,0-.18,1,1,0,0,0,0-.3s0-.07,0-.13,0-.35,0-.35a.19.19,0,0,0,.26-.12,2.27,2.27,0,0,0,.06-.44.33.33,0,0,0,.14.1h0v.19a1.89,1.89,0,0,0-.16.95,4.65,4.65,0,0,1,.14.65c0,.05.11,1.05.14,1.16a3.37,3.37,0,0,1,.15.85c0,.12-.16.27-.16.31s-.24.16-.26.29a3.31,3.31,0,0,1-.31.58c-.1.18-.36.63-.3.84a1,1,0,0,0,.1.22,1.08,1.08,0,0,1-.09-.18c-.06.07-.25.26-.25.3v0s0,.44.05.45h.06s0,.37,0,.44a.74.74,0,0,0,.55.66s.26.08.29-.09a3.26,3.26,0,0,0,0-.39,2.74,2.74,0,0,1-.1-.36c0-.06,0-.17,0-.28a.09.09,0,0,0,.08-.07,2.06,2.06,0,0,1,.12-.33c0-.06,0-.32.12-.35a1.66,1.66,0,0,0,.43-.57c0-.09.09-.14.15-.18s.65-.48.6-.83a3.35,3.35,0,0,0,.07-.72v0a.83.83,0,0,1,.11.48,1.45,1.45,0,0,1-.08.45,3.14,3.14,0,0,0-.07.64c0,.1-.15,1-.1,1.16a1.87,1.87,0,0,1-.14.79l0,0h0a1.19,1.19,0,0,0-.08.44h0s-.08.27,0,.29a4.24,4.24,0,0,0,.59.06s0,0,.06,0A2.54,2.54,0,0,0,31.86,27v0s-.16-.19-.26-.19a.51.51,0,0,1-.27-.1.89.89,0,0,1-.14-.18l.17-.26a2,2,0,0,0,.14-.19,1.36,1.36,0,0,0,.19-.56c0-.24,0-.8,0-.9s0-1.55,0-1.63,0-.5,0-.56a3.74,3.74,0,0,1,0-.52c0-.17,0-.79,0-.89a2.31,2.31,0,0,1,0-.34,2.49,2.49,0,0,0-.33-1.1v-.12h0c.05,0,.14.06.19,0s.16.34.16.34a.3.3,0,0,0-.07.2c0,.11.31.33.54.33l-.14-.11.12.09,0,0a.46.46,0,0,1,0,.24.45.45,0,0,0,.09.3c0,.05,0,.13,0,.16a1.37,1.37,0,0,1,0,.22v.09s0,0,0,0,.1,0,.1,0,0,.08,0,.08a2,2,0,0,0,.25,0c.07,0,.1-.16.1-.25a1.1,1.1,0,0,0-.05-.29,1.37,1.37,0,0,1-.11-.24m-2.06-5.3,0,0Zm.69,4.1a.16.16,0,0,1,.09,0,.16.16,0,0,0-.09,0" style="fill:#83b9e4"/><polygon points="20.56 29.05 22.04 29.05 18.19 38.63 17.18 38.63 13.34 29.05 14.85 29.05 17.69 36.2 20.56 29.05" style="fill:#83b9e4"/><path d="M23,30.41A4.62,4.62,0,0,1,26.35,29a4.48,4.48,0,0,1,4.46,3.53H29.44a3.11,3.11,0,0,0-3.09-2.16,3.26,3.26,0,0,0-2.35,1,3.53,3.53,0,0,0,0,4.89A3.29,3.29,0,0,0,29.53,35h1.35a4.62,4.62,0,0,1-4.52,3.66A4.56,4.56,0,0,1,23,37.25a5,5,0,0,1,0-6.84" style="fill:#83b9e4"/><path d="M36.62,35.79H33.19c-.37.87-.85,2-1.15,2.81H30.55l3.84-9.69h1l3.84,9.69H37.77Zm-2.91-1.3h2.38l-1.18-3.38Z" style="fill:#83b9e4"/><path d="M15.92,16.59a1.33,1.33,0,0,0,0-.28s0-.49.11-.65a.61.61,0,0,1,.67-.33s1,.26.89.63c0,0,0,.21-.06.24s0,.34-.12.34a1.2,1.2,0,0,0,0,.27s.1.18-.16.11c0,0,0,.14,0,.14s0,.11-.08.11a.5.5,0,0,0-.08.12s-.06.17-.21.11l-.16,0h-.11a.91.91,0,0,1,0,.24,6.48,6.48,0,0,1,.32.82,4.1,4.1,0,0,1,.1.87,1.66,1.66,0,0,0,0,.25s.08.15.07.2l.15.5a.14.14,0,0,0,0,.07s.16.34.2.35.26.21.26.3.14.22.09.34l-.05.17s-.14.11-.1,0,.11-.18,0-.25-.27-.28-.23,0v.18s-.09.17-.15-.07a.85.85,0,0,1-.14-.35l0,0s-.09.1-.14.07-.17-.24-.29-.26a.83.83,0,0,1,.05.36s.14.26.09.32.15.24.11.3.13.18.12.25,0,.13.09.16.23.37.14.46.07.16,0,.2a.31.31,0,0,1,.08.18s.18.38.14.46.13.17,0,.23,0,.12.08.15.12.27.06.38a.58.58,0,0,1,.06.2s.1.15.17.15.31.33.27.49c0,0,.16.31.25.31s.62.48.57.56l0,.13s.23,0,.23.07.56-.2.65-.11.15,0,0,.13-.59.6-1.06.59c0,0,0,.14-.06.14l-.44.18s-.17,0-.19-.08-.07-.1,0-.15a.93.93,0,0,1-.09-.2s-.1,0-.05-.14a.34.34,0,0,1-.11-.23s-.18-.23-.16-.33a2.31,2.31,0,0,0-.31-.46s-1-1.43-1-1.43a5.11,5.11,0,0,1-.52-.78,5.73,5.73,0,0,1-.83,1,4.73,4.73,0,0,0-.8,1.5s0,.7-.06.7.15.16.13.22a.6.6,0,0,0,.36.1s.31,0,.26.14-.31.24-1.07.05c0,0-.33-.13-.25,0a.31.31,0,0,1-.21,0s-.44,0-.44-.11a.88.88,0,0,1,0-.3.27.27,0,0,1,.06-.31s.22-.7.35-.75.3-1.66.72-1.85c0,0,.14-.7.32-.75l0-.5s-.15.1-.15,0-.14,0-.14-.09l0-.05s-.11,0-.1-.14c0,0-.14,0-.08-.16l.13-.31s0-.26.17-.31a.89.89,0,0,0,.11-.31,5.55,5.55,0,0,1,.17-.72.48.48,0,0,1,.07-.24,3.11,3.11,0,0,1,.09-.86,5.1,5.1,0,0,1,.36-1.65,2.07,2.07,0,0,1,.24-.33.29.29,0,0,1,.18-.18,3.52,3.52,0,0,1,.36-.17s.12-.31.2-.2" style="fill:#83b9e4"/><path d="M37.24,24.71h0a3.71,3.71,0,0,1-.06.48,3,3,0,0,0,0,.55.63.63,0,0,1,0,.23,1.33,1.33,0,0,0-.1.51.35.35,0,0,1,0,.1s0,0,0,.07,0,.24.16.25a2.27,2.27,0,0,0,.46,0,.57.57,0,0,1,.26,0,1.81,1.81,0,0,0,.76,0,.08.08,0,0,0,0-.12s0-.1-.15-.12a1.42,1.42,0,0,0-.23,0s0,0-.09-.05l-.11-.06v0L38,26.46v0s.07,0,.08-.22c0,0,0-.61.08-.73a3.27,3.27,0,0,0,.09-.89,1.26,1.26,0,0,1,0-.25,2.37,2.37,0,0,0-.16-1,2.69,2.69,0,0,1-.07-.42.57.57,0,0,0,.05-.28,3.82,3.82,0,0,1,0-.48.76.76,0,0,0,0-.37h.13a.72.72,0,0,0,0-.18,2.31,2.31,0,0,0,0-.32,2.17,2.17,0,0,1,0-.76h0a.21.21,0,0,0,.21-.14.14.14,0,0,0,.1-.05h0a.1.1,0,0,0,.1-.07c.09,0,.09-.1.09-.1l.07.07c.06,0,.08,0,.08,0s0-.15,0-.15a.17.17,0,0,1-.09-.09h0s-.1-.06-.12-.07l-.09-.06a.61.61,0,0,0-.3,0,.2.2,0,0,0-.09,0h0s-.09-.73-.12-.84a1.6,1.6,0,0,1-.07-.25,1.94,1.94,0,0,0-.07-.28.09.09,0,0,1,0-.08c0-.05,0-.11,0-.16h0a.56.56,0,0,0-.11-.12.2.2,0,0,1-.08-.1l0,0a.64.64,0,0,1,0-.13c.07,0,.11-.14.11-.14s.07,0,.07,0h.08l.08,0a.16.16,0,0,0,.1-.19.1.1,0,0,0,0-.07v-.09h0l.05,0h.06s0-.11,0-.16a.36.36,0,0,0,0-.13h0s0-.06,0-.11.05,0,.07,0a.1.1,0,0,0,.06-.09.07.07,0,0,0,.06-.09s0-.25-.08-.25-.12-.06-.12-.1a.22.22,0,0,0-.18-.13c-.07,0-.09,0-.1,0h0a.35.35,0,0,0-.19-.09s0,0,0,0-.09-.08-.16,0-.06.05-.09.05-.16,0-.19.08a.11.11,0,0,1-.06,0s-.18,0-.24,0l0,0s-.19.09-.19.17,0,.11,0,.14-.1.22,0,.22l0,0,0,.05s-.1.25.08.25c0,0,0,.14,0,.14s0,0,.06.05h0s-.08.1,0,.13l0,0,0,0a2.32,2.32,0,0,0-.75,1.08,4.58,4.58,0,0,0,0,.64,3.35,3.35,0,0,1-.08.69c0,.06,0,.4,0,.45S36,21,36,21s-.17.38-.09.45a.45.45,0,0,0,.14.07l.18.05a1.83,1.83,0,0,0,.18.72.59.59,0,0,1,0,.19.9.9,0,0,0,.1.28.64.64,0,0,1,0,.23,2.61,2.61,0,0,0,.11.52c.05.16.05.34,0,.37a.51.51,0,0,0-.29.27s0,0,0,0a2.67,2.67,0,0,0-.36.31l-.06,0a3.81,3.81,0,0,0-.65.42s-.12.11-.2.11a.22.22,0,0,0-.24.13.25.25,0,0,0-.12.07s-.05,0-.05.06a.83.83,0,0,0,0,.34.62.62,0,0,1,0,.3,1,1,0,0,0,.32.72.45.45,0,0,0,.19.09h.07v0a.35.35,0,0,0,0-.17s0,0,0-.08a.72.72,0,0,0,0-.21.31.31,0,0,1,0-.2l.06,0s.05,0,.07,0,.08-.11.11-.11.12-.07.12-.11.12-.1.16-.14a15.09,15.09,0,0,0,1.34-1m1.08-7.78h0s0,0,0,.07l0,0Z" style="fill:#83b9e4"/><path d="M26.35,20.72a.92.92,0,0,0-.4-.22s-.21-.08-.21-.13a2.62,2.62,0,0,0-.53-.28.77.77,0,0,1-.3-.2,2.63,2.63,0,0,0-.33-.32c-.08,0-.16-.2-.16-.2.19-.21,0-.66,0-.66a2.1,2.1,0,0,0-.07-.27c-.1-.25-.11-.18-.39-.78l0-.05v0a.55.55,0,0,0,.25-.06,1.58,1.58,0,0,0,.15-.2s.08,0,.08,0a.09.09,0,0,0,.09-.07l0-.28h0l.12-.06a.67.67,0,0,0,0-.61s-.13-.5-1-.39c0,0-.39.12-.44.26a.38.38,0,0,1-.1.08s-.13.13-.13.18a.71.71,0,0,1-.11.18s-.14.3-.08.44a.31.31,0,0,1-.23.29s0,.1.11.08a1.69,1.69,0,0,0-.22.41l.08-.09-.08.1c-.15.13-.7.82-.85,1h0l-.2.3-.34.55c-.1.09-.51.68-.51.68a.17.17,0,0,0,0,.29,6.62,6.62,0,0,0,1.19.68v0c0,.07.15.07.15.07h0a.78.78,0,0,0,.29.55.42.42,0,0,1,.06.24,7,7,0,0,0-.07.88s0,.11,0,.16a.8.8,0,0,0-.12.35s-.1.11-.15.12a17.74,17.74,0,0,0-1.63,1.69,2.8,2.8,0,0,1-.34.45.07.07,0,0,0,0,.11l0,0a.24.24,0,0,1,0,.15l-.08.06,0,0,.1-.1a.14.14,0,0,1,.12,0,.17.17,0,0,1,.11.17.73.73,0,0,0,.85.66s.16,0,.09-.08L21,26.82l-.14,0s-.1-.06-.11-.09a.81.81,0,0,0,0-.25l0,0A1,1,0,0,1,21,26c.13-.11.26-.24.26-.28a6.51,6.51,0,0,1,.55-.59,6.49,6.49,0,0,0,.61-.72s.48-.23.55-.59a6.39,6.39,0,0,1,.33-.73s.24.22.25.32.13.21.17.23a1.54,1.54,0,0,0,0,.42,1.17,1.17,0,0,1,.06.4,5.44,5.44,0,0,0,.17,1c.05.07,0,.3,0,.32a6.2,6.2,0,0,0,.18.82.5.5,0,0,1,.07.22s0,.12.08.07l.11,0v.05h0v-.07a1.25,1.25,0,0,1,.26-.08.82.82,0,0,1,.18.08,1.15,1.15,0,0,0,1-.11s.18-.1,0-.1a1.07,1.07,0,0,1-.22,0h-.16l-.1,0a.76.76,0,0,0-.14-.06h0s0,0,0-.08-.08-.16-.16-.18A.39.39,0,0,1,25,26s-.39-1.68-.49-1.88a2,2,0,0,1,0-.38.76.76,0,0,0-.05-.37A5.62,5.62,0,0,0,24,21.94s0-.13-.06-.16,0-.1,0-.2H24c.13,0,0-.35,0-.35s0-.5,0-.5c0-.38.06-.63.06-.63s0,0,.05,0l0,0,.3.22.07.05a6.5,6.5,0,0,0,.8.45l.25.09c.16.07.16,0,.16,0a.58.58,0,0,0,.18.1s0,.06,0,.06.12,0,.12,0a.19.19,0,0,0,.12-.08c0,.07.13.1.13.1s0-.16,0-.16a.14.14,0,0,1,.06.09c0,.14,0,.1,0,.1s.09-.19.09-.19-.19-.26-.19-.26m-2.29-3.38-.07.22a1.85,1.85,0,0,1,.07-.22m-1.93,1.8c-.23,0-.25-.15-.25-.15a.26.26,0,0,0-.14-.21c.13-.16.41-.45.54-.59h0a7,7,0,0,0-.16,1m2,1,.27.2-.27-.2m1.58.82v0Z" style="fill:#83b9e4"/><polygon points="34.51 27.94 33.91 27.94 33.91 27.54 34.12 27.54 34.12 27.34 34.51 27.34 34.51 27.94" style="fill:#83b9e4"/><path d="M33.51,27.94h-.82v-.4h.82Zm-1.23,0h-.82v-.4h.82Zm-1.23,0h-.82v-.4h.82Zm-1.23,0H29v-.4h.82Zm-1.23,0h-.82v-.4h.82Z" style="fill:#83b9e4"/><polygon points="27.38 27.94 26.78 27.94 26.78 27.34 27.18 27.34 27.18 27.54 27.38 27.54 27.38 27.94" style="fill:#83b9e4"/><path d="M27.18,26.95h-.4v-.79h.4Zm0-1.18h-.4V25h.4Zm0-1.18h-.4V23.8h.4Zm0-1.18h-.4v-.78h.4Zm0-1.18h-.4v-.79h.4Zm0-1.18h-.4v-.78h.4Zm0-1.17h-.4v-.79h.4Zm0-1.18h-.4v-.78h.4Zm0-1.17h-.4v-.79h.4Zm0-1.18h-.4v-.79h.4Zm0-1.19h-.4v-.78h.4Zm0-1.18h-.4v-.79h.4Z" style="fill:#83b9e4"/><polygon points="27.18 12.8 26.78 12.8 26.78 12.19 27.38 12.19 27.38 12.6 27.18 12.6 27.18 12.8" style="fill:#83b9e4"/><path d="M33.51,12.6h-.82v-.4h.82Zm-1.23,0h-.82v-.4h.82Zm-1.23,0h-.82v-.4h.82Zm-1.23,0H29v-.4h.82Zm-1.23,0h-.82v-.4h.82Z" style="fill:#83b9e4"/><polygon points="34.51 12.8 34.12 12.8 34.12 12.6 33.91 12.6 33.91 12.19 34.51 12.19 34.51 12.8" style="fill:#83b9e4"/><path d="M34.51,26.95h-.4v-.78h.4Zm0-1.18h-.4V25h.4Zm0-1.18h-.4V23.8h.4Zm0-1.18h-.4v-.78h.4Zm0-1.18h-.4v-.79h.4Zm0-1.18h-.4v-.78h.4Zm0-1.17h-.4v-.79h.4Zm0-1.18h-.4v-.78h.4Zm0-1.17h-.4v-.79h.4Zm0-1.18h-.4v-.78h.4Zm0-1.18h-.4v-.78h.4Zm0-1.18h-.4v-.79h.4Z" style="fill:#83b9e4"/></svg>