<?xml version="1.0" encoding="UTF-8" standalone="no"?>
<!-- Generator: Adobe Illustrator 16.0.0, SVG Export Plug-In . SVG Version: 6.00 Build 0)  -->
<!DOCTYPE svg  PUBLIC '-//W3C//DTD SVG 1.1//EN'  'http://www.w3.org/Graphics/SVG/1.1/DTD/svg11.dtd'>
<svg id="Layer_1" xmlns="http://www.w3.org/2000/svg" xml:space="preserve" height="184.67px" viewBox="0 0 151 184.667" width="151px" version="1.1" y="0px" x="0px" xmlns:xlink="http://www.w3.org/1999/xlink" enable-background="new 0 0 151 184.667">
				<path d="m44.705 74.213l0.988 9.08c0.233 2.835 0.471 5.692 0.713 8.569h0.059c0.204-2.636 0.413-5.25 0.626-7.838l0.96-9.811h3.155l-2.503 21.757h-4.771l-2.386-21.757h3.159z" fill="#008FD5"/>
				<path d="m53.209 95.97v-21.757h3.156v21.757h-3.156z" fill="#008FD5"/>
				<path d="m61.348 74.213l0.987 9.08c0.233 2.835 0.471 5.692 0.712 8.569h0.061c0.203-2.636 0.41-5.25 0.624-7.838l0.958-9.811h3.157l-2.5 21.757h-4.769l-2.389-21.757h3.159z" fill="#008FD5"/>
				<path d="m69.608 77.45c0-0.735 0.142-1.337 0.429-1.806 0.247-0.486 0.575-0.864 0.983-1.132 0.395-0.259 0.842-0.453 1.337-0.581 0.484-0.1 0.972-0.151 1.457-0.151 1.05-0.019 2.01 0.225 2.883 0.732 0.406 0.268 0.734 0.646 0.98 1.134 0.248 0.469 0.373 1.069 0.373 1.806v15.279c0 0.698-0.125 1.278-0.373 1.746-0.246 0.488-0.574 0.861-0.98 1.12-0.397 0.269-0.843 0.462-1.338 0.582-0.505 0.148-1.021 0.222-1.545 0.222-0.485 0-0.973-0.073-1.457-0.222-0.495-0.12-0.942-0.313-1.337-0.582-0.921-0.527-1.394-1.482-1.412-2.864v-15.283zm3.159 15c0 0.537 0.102 0.896 0.301 1.074 0.172 0.208 0.428 0.303 0.778 0.283 0.348 0.02 0.617-0.075 0.81-0.283 0.159-0.178 0.234-0.538 0.234-1.074v-14.731c0-0.528-0.075-0.891-0.234-1.09-0.192-0.168-0.462-0.253-0.81-0.253-0.351 0-0.606 0.084-0.778 0.253-0.199 0.199-0.301 0.562-0.301 1.09v14.731z" fill="#008FD5"/>
				<path d="m88.852 74.213v2.833h-2.734v18.924h-3.16v-18.924h-2.766v-2.833h8.66z" fill="#008FD5"/>
				<path d="m91.083 95.97v-21.757h7.039v2.833h-3.881v5.616h3.738v2.831h-3.738v7.644h3.939v2.833h-7.097z" fill="#008FD5"/>
				<path d="m100.26 95.97v-21.757h3.16v9.803h0.084l2.422-9.803h3.078l-2.42 9.924 2.48 11.833h-3.27l-2.291-11.027h-0.084v11.027h-3.16z" fill="#008FD5"/>
				<path d="m40.158 121.1l-1.956-21.756h3.209l0.656 7.911c0.195 2.527 0.321 5.095 0.382 7.701h0.156c0.019-2.824 0.137-5.646 0.351-8.462l0.716-7.15h3.441l0.747 8.58c0.173 2.488 0.278 4.831 0.316 7.031h0.162c0.059-2.26 0.166-4.389 0.323-6.389l0.803-9.223h2.562l-2.106 21.756h-3.416l-0.539-7.827c-0.224-2.817-0.354-5.62-0.392-8.409h-0.17c-0.236 2.381-0.468 4.774-0.691 7.186l-0.902 9.051h-3.652z" fill="#008FD5"/>
				<path d="m56.053 99.339h4.738l2.416 21.756h-3.185l-0.597-5.896h-2.237l-0.687 5.896h-2.865l2.417-21.761zm3.068 13.031l-0.654-9.061h-0.203l-0.785 9.061h1.642z" fill="#008FD5"/>
				<path d="m64.996 121.1v-21.761h4.266c1.316 0 2.343 0.264 3.075 0.791 0.716 0.576 1.081 1.557 1.102 2.939v3.088c0.02 0.818-0.159 1.52-0.537 2.104-0.419 0.587-1.282 0.976-2.592 1.165v0.059c0.728 0.061 1.394 0.273 1.993 0.643 0.29 0.178 0.529 0.432 0.713 0.76 0.174 0.33 0.271 0.746 0.293 1.254 0.067 1.443 0.124 2.919 0.162 4.434 0.019 1.501 0.139 3.008 0.355 4.52h-3.165c-0.232-1.283-0.36-2.682-0.379-4.192-0.032-1.464-0.032-2.837 0-4.12 0-0.676-0.154-1.154-0.461-1.434-0.308-0.268-0.862-0.383-1.667-0.343v10.089h-3.158zm3.158-12.75h0.651c0.611 0 1.016-0.145 1.208-0.432 0.177-0.24 0.269-0.563 0.269-0.972v-3.94c-0.034-0.736-0.468-1.095-1.3-1.074h-0.828v6.41z" fill="#008FD5"/>
				<path d="m75.876 121.1v-21.761h4.265c1.316 0 2.342 0.264 3.076 0.791 0.713 0.576 1.08 1.557 1.1 2.939v3.088c0.018 0.818-0.16 1.52-0.539 2.104-0.416 0.587-1.277 0.976-2.588 1.165v0.059c0.725 0.061 1.391 0.273 1.992 0.643 0.291 0.178 0.529 0.432 0.713 0.76 0.174 0.33 0.271 0.746 0.291 1.254 0.07 1.443 0.123 2.919 0.162 4.434 0.021 1.501 0.141 3.008 0.357 4.52h-3.165c-0.234-1.283-0.361-2.682-0.377-4.192-0.033-1.464-0.033-2.837 0-4.12 0-0.676-0.154-1.154-0.463-1.434-0.307-0.268-0.859-0.383-1.666-0.343v10.089h-3.158zm3.158-12.75h0.652c0.611 0 1.014-0.145 1.203-0.432 0.18-0.24 0.273-0.563 0.273-0.972v-3.94c-0.035-0.736-0.469-1.095-1.303-1.074h-0.826v6.41z" fill="#008FD5"/>
				<path d="m86.997 121.1v-21.761h3.158v21.756h-3.158z" fill="#008FD5"/>
				<path d="m92.516 102.58c0-0.737 0.145-1.337 0.432-1.807 0.246-0.486 0.578-0.864 0.982-1.134 0.395-0.258 0.84-0.451 1.336-0.58 0.486-0.1 0.971-0.15 1.455-0.15 1.053-0.02 2.012 0.225 2.885 0.73 0.404 0.27 0.732 0.648 0.982 1.136 0.246 0.468 0.369 1.068 0.369 1.806v15.279c0 0.697-0.123 1.277-0.369 1.747-0.25 0.487-0.578 0.859-0.982 1.118-0.395 0.269-0.842 0.463-1.338 0.583-0.504 0.149-1.02 0.224-1.547 0.224-0.484 0-0.969-0.074-1.455-0.224-0.496-0.12-0.941-0.312-1.336-0.583-0.924-0.526-1.393-1.481-1.414-2.865v-15.28zm3.16 15c0 0.537 0.1 0.896 0.301 1.074 0.17 0.21 0.428 0.304 0.779 0.284 0.348 0.02 0.617-0.074 0.807-0.284 0.16-0.178 0.238-0.537 0.238-1.074v-14.732c0-0.527-0.078-0.889-0.238-1.088-0.189-0.17-0.459-0.255-0.807-0.255-0.352 0-0.609 0.085-0.779 0.255-0.201 0.199-0.301 0.561-0.301 1.088v14.73z" fill="#008FD5"/>
				<path d="m103.4 121.1v-21.761h4.268c1.316 0 2.342 0.264 3.074 0.791 0.715 0.576 1.08 1.557 1.102 2.939v3.088c0.016 0.818-0.162 1.52-0.543 2.104-0.414 0.587-1.277 0.976-2.586 1.165v0.059c0.727 0.061 1.389 0.273 1.994 0.643 0.291 0.178 0.527 0.432 0.711 0.76 0.174 0.33 0.271 0.746 0.291 1.254 0.07 1.443 0.121 2.919 0.164 4.434 0.02 1.501 0.137 3.008 0.355 4.52h-3.166c-0.234-1.283-0.359-2.682-0.377-4.192-0.031-1.464-0.031-2.837 0-4.12 0-0.676-0.154-1.154-0.461-1.434-0.307-0.268-0.863-0.383-1.666-0.343v10.089h-3.14zm3.16-12.75h0.65c0.613 0 1.016-0.145 1.205-0.432 0.18-0.24 0.271-0.563 0.271-0.972v-3.94c-0.033-0.736-0.471-1.095-1.301-1.074h-0.826v6.41z" fill="#008FD5"/>
				<path d="m38.938 124.46h4.74l2.412 21.76h-3.184l-0.597-5.898h-2.238l-0.683 5.898h-2.864l2.414-21.76zm3.066 13.03l-0.653-9.062h-0.205l-0.784 9.062h1.642z" fill="#008FD5"/>
				<path d="m53.165 132.4v-4.432c0-0.529-0.078-0.891-0.236-1.09-0.191-0.168-0.461-0.254-0.811-0.254-0.349 0-0.608 0.086-0.775 0.254-0.201 0.199-0.302 0.561-0.302 1.09v14.73c0 0.537 0.101 0.896 0.302 1.075 0.167 0.208 0.427 0.304 0.775 0.283 0.35 0.021 0.619-0.075 0.811-0.283 0.158-0.18 0.236-0.538 0.236-1.075v-4.7h3.157v4.982c0 0.696-0.124 1.279-0.37 1.745-0.248 0.489-0.575 0.86-0.983 1.121-0.394 0.269-0.84 0.461-1.337 0.581-0.503 0.149-1.019 0.224-1.546 0.224-0.484 0-0.972-0.074-1.456-0.224-0.493-0.12-0.939-0.312-1.337-0.581-0.922-0.527-1.392-1.483-1.411-2.866v-15.279c0-0.738 0.144-1.337 0.429-1.807 0.249-0.487 0.577-0.866 0.982-1.134 0.397-0.258 0.844-0.453 1.337-0.582 0.484-0.1 0.972-0.148 1.456-0.148 1.052-0.021 2.014 0.223 2.883 0.73 0.408 0.268 0.735 0.646 0.983 1.133 0.246 0.468 0.37 1.069 0.37 1.807v4.699h-3.157z" fill="#008FD5"/>
				<path d="m60.694 124.46h4.74l2.413 21.76h-3.185l-0.594-5.898h-2.24l-0.684 5.898h-2.864l2.414-21.76zm3.067 13.03l-0.653-9.062h-0.204l-0.785 9.062h1.642z" fill="#008FD5"/>
				<path d="m69.639 124.46h3.896c1.603-0.02 2.761 0.32 3.473 1.016 0.715 0.705 1.072 2.01 1.072 3.91v12.892c0 1.075-0.326 1.98-0.98 2.716-0.645 0.796-1.597 1.205-2.854 1.227h-4.607v-21.77zm3.159 19.17h0.826c0.455 0.019 0.786-0.086 0.997-0.314 0.201-0.199 0.302-0.636 0.302-1.312v-13.313c0-0.697-0.101-1.16-0.302-1.389-0.211-0.159-0.542-0.238-0.997-0.238h-0.826v16.56z" fill="#008FD5"/>
				<path d="m80.764 146.22v-21.76h7.037v2.834h-3.881v5.613h3.734v2.834h-3.734v7.641h3.939v2.838h-7.095z" fill="#008FD5"/>
				<path d="m94.831 146.22l-1.131-10.47c-0.289-2.612-0.578-5.038-0.861-7.274l-0.119-0.018c0.061 1.402 0.102 2.82 0.119 4.252v13.51h-2.764v-21.76h4.678l1.02 8.993c0.236 1.554 0.404 3.818 0.512 6.796h0.146c0.059-2.509 0.156-4.764 0.291-6.766l0.875-9.023h4.68v21.76h-2.768v-10.032c0-2.486 0.041-5.062 0.115-7.729h-0.115c-0.279 3.015-0.539 5.807-0.771 8.371l-1.082 9.391h-2.828z" fill="#008FD5"/>
				<path d="m107.78 124.46l1.045 4.729c0.322 1.472 0.551 3.044 0.688 4.714h0.057c0.059-1.67 0.236-3.188 0.535-4.551l1.139-4.893h2.949l-3.252 13.475v8.285h-3.16v-8.135l-3.254-13.625h3.25z" fill="#008FD5"/>
		<polygon points="46.527 149.25 72.337 149.72 47.889 151.15 72.4 150.02 48.955 153.61 72.588 150.3 51.05 155.94 72.896 150.56 54.087 158.03 73.309 150.8 57.953 159.81 73.812 150.98 62.502 161.21 74.386 151.13 67.556 162.17 75.009 151.21 72.923 162.66 75.657 151.24 78.389 162.66 76.304 151.21 83.758 162.17 76.926 151.13 88.811 161.21 77.5 150.98 93.358 159.81 78.004 150.8 97.225 158.03 78.417 150.56 100.26 155.94 78.723 150.3 102.36 153.61 78.913 150.02 103.43 151.15 78.975 149.72 104.79 149.25" fill="#008FD5"/>
	<path d="m75.748 9.666c18.209 4.139 33.975 12.366 46.879 24.466 5.252 4.926 8.967 9.966 11.307 13.25-3.898 5.503-6.838 15.811-6.838 35.623 0 13.142 0 30.353 12.162 35.568-1.699 5.499-4.881 13.847-10.406 22.548-12.434 19.588-30.297 31.253-53.104 34.679-22.642-3.402-40.416-14.93-52.846-34.272-5.647-8.788-8.914-17.35-10.653-22.959 12.153-5.22 12.153-22.428 12.153-35.564 0-19.812-2.939-30.119-6.84-35.623 2.343-3.286 6.056-8.326 11.309-13.25 12.904-12.101 28.669-20.328 46.879-24.467m0-7.041c-48.927 10.469-67.392 44.731-67.392 44.731s0.006 0 0.017 0c-0.017 0 9.15 10.195 9.15 35.649 0 21.546-4.294 28.659-13.752 31.521 0 0 10.851 59.694 71.976 68.226h0.002c61.126-8.531 71.976-68.226 71.976-68.226-10.99-2.861-13.752-9.975-13.752-31.521 0-25.665 9.166-35.623 9.146-35.623h0.02s-18.47-34.292-67.392-44.761z" fill="#008FD5"/>
	<path d="m75.747 18.123c30.507 6.704 44.994 24.483 48.488 29.26-1.984 4.053-6.57 15.321-6.57 37.096 0 14.286 1.109 35.187 9.945 38.812-1.076 3.81-3.658 8.938-8.953 16.822-10.018 14.911-24.453 23.822-42.91 26.488-18.38-2.654-32.773-11.506-42.788-26.314-5.354-7.914-7.979-13.15-9.07-16.998 8.832-3.631 9.939-24.527 9.939-38.81 0-21.775-4.582-33.043-6.568-37.096 3.488-4.786 17.972-22.56 48.474-29.261m0-2.784c-37.508 8.026-51.665 32.043-51.665 32.043s7.028 10.386 7.028 37.096c0 16.519-1.205 36.724-10.545 36.724 0 0 8.317 41.607 55.182 48.146h0.002c46.865-6.538 55.179-48.146 55.179-48.146-8.787 0-10.541-20.205-10.541-36.724 0-26.71 7.023-37.095 7.023-37.095s-14.15-24.015-51.663-32.042z" fill="#008FD5"/>
	<g fill="#008FD5">
		<g clip-rule="evenodd" fill-rule="evenodd">
				<path d="m42.266 47.076s0.423-1.336 0.641-1.928c0.223-0.59 1.101-2.045 2.103-2.963 1.001-0.918 1.382-2.014 1.433-2.183 0 0-0.53 2.357-1.135 3.764-1.272 2.95-2.451 3.091-3.041 4.031-0.273 0.437-0.08 0.96-0.08 0.96s-1.434-2.845-1.105-5.817c0.243-2.18 1.978-3.976 2.616-4.678 0 0-0.721 0.829-0.772 2.357-0.026 0.683 0.212 3.608-0.66 6.457z"/>
				<path d="m42.472 53.196s-0.321-2.696-0.008-3.705c0.712-2.306 2.602-3.741 2.716-4.771 0 0-0.029 3.215-0.575 4.777-0.476 1.346-2.136 4.188-1.782 5.47 0 0-0.846-1.482-1.507-2.213-0.663-0.728-3.374-4.106-1.262-9.538 0 0 0.078 0.988 0.367 2.167 0.286 1.187 1.042 2.977 1.243 4.138 0.198 1.161 0.808 3.675 0.808 3.675z"/>
				<path d="m44.512 59.348s-2.221-3.091-0.979-5.925c0.758-1.734 1.206-3.038 1.206-3.038s0.109 2.77 0.379 3.904c0.923 3.869-0.866 4.82 0.582 7.126 0 0-1.029-0.875-2.367-1.614-1.335-0.744-2.099-1.266-3.347-4.277-1.252-3.009-1.613-5.252-1.613-5.252s0.844 2.494 2.754 4.239c1.111 1.017 2.994 4.308 3.385 4.837z"/>
				<path d="m46.195 60.767c-0.26-1.944-0.325-3.801-0.302-4.896 0 0 0.159 0.893 1.394 2.372 0.578 0.688 1.774 3.075 2.234 5.16 0.456 2.088 1.24 2.763 2.681 3.995-2.325-0.795-4.206-1.161-6.724-2.375-2.103-1.017-3.927-3.963-4.789-5.782 0 0 4.858 2.507 6.673 4.773l1.25 1.221s-0.484-0.474-0.958-1.116c-0.528-0.72-1.263-1.884-1.459-3.352z"/>
				<path d="m51.381 65.851c-0.92-1.732-1.631-3.449-1.993-4.481 0 0 1.403 1.229 2.14 1.735 0.735 0.509 2.733 2.26 3.894 4.053 1.156 1.796 2.128 2.156 3.907 2.811-2.456 0.066-4.348 0.378-7.133 0.12-2.323-0.216-5.062-2.341-6.506-3.744 0 0 5.43 0.65 7.92 2.143l2.622 1.212s-1.319-1.134-2.159-1.457c-0.834-0.319-1.994-1.086-2.692-2.392z"/>
			<path d="m43.461 43.29s-0.606-4.52 2.979-6.792c2.135-1.355 3.276-0.721 4.368-2.285 0 0-0.298 2.875-3.652 4.599-2.845 1.461-3.695 4.478-3.695 4.478z"/>
		</g>
		<g clip-rule="evenodd" fill-rule="evenodd">
				<path d="m106.17 47.076s-0.422-1.336-0.641-1.928c-0.225-0.59-1.1-2.045-2.102-2.963-1.004-0.918-1.381-2.014-1.434-2.183 0 0 0.529 2.357 1.133 3.764 1.273 2.95 2.453 3.091 3.043 4.031 0.275 0.437 0.08 0.96 0.08 0.96s1.436-2.845 1.105-5.817c-0.242-2.18-1.977-3.976-2.617-4.678 0 0 0.721 0.829 0.773 2.357 0.03 0.683-0.21 3.608 0.66 6.457z"/>
				<path d="m105.97 53.196s0.32-2.696 0.008-3.705c-0.711-2.306-2.602-3.741-2.717-4.771 0 0 0.031 3.215 0.574 4.777 0.479 1.346 2.141 4.188 1.785 5.47 0 0 0.848-1.482 1.506-2.213 0.664-0.728 3.377-4.106 1.266-9.538 0 0-0.08 0.988-0.371 2.167-0.283 1.187-1.041 2.977-1.242 4.138-0.21 1.161-0.82 3.675-0.82 3.675z"/>
				<path d="m103.93 59.348s2.219-3.091 0.979-5.925c-0.76-1.734-1.207-3.038-1.207-3.038s-0.109 2.77-0.381 3.904c-0.922 3.869 0.867 4.82-0.582 7.126 0 0 1.031-0.875 2.369-1.614 1.338-0.744 2.1-1.266 3.348-4.277 1.252-3.009 1.613-5.252 1.613-5.252s-0.844 2.494-2.756 4.239c-1.11 1.017-2.99 4.308-3.38 4.837z"/>
				<path d="m102.24 60.767c0.26-1.944 0.324-3.801 0.303-4.896 0 0-0.16 0.893-1.396 2.372-0.576 0.688-1.771 3.075-2.232 5.16-0.455 2.088-1.24 2.763-2.68 3.995 2.324-0.795 4.205-1.161 6.723-2.375 2.102-1.017 3.926-3.963 4.789-5.782 0 0-4.859 2.507-6.674 4.773l-1.25 1.221s0.488-0.474 0.959-1.116c0.53-0.72 1.27-1.884 1.46-3.352z"/>
				<path d="m97.059 65.851c0.922-1.732 1.631-3.449 1.992-4.481 0 0-1.404 1.229-2.137 1.735-0.738 0.509-2.734 2.26-3.895 4.053-1.156 1.796-2.127 2.156-3.906 2.811 2.455 0.066 4.346 0.378 7.131 0.12 2.322-0.216 5.061-2.341 6.506-3.744 0 0-5.432 0.65-7.92 2.143l-2.621 1.212s1.32-1.134 2.158-1.457c0.835-0.319 1.997-1.086 2.692-2.392z"/>
			<path d="m104.98 43.29s0.609-4.52-2.977-6.792c-2.139-1.355-3.279-0.721-4.373-2.285 0 0 0.301 2.875 3.654 4.599 2.85 1.461 3.7 4.478 3.7 4.478z"/>
		</g>
			<path d="m90.143 61.791s-1.951-8.165-3.025-11.491c-1.373-4.241-4.766-6.958-10.232-6.958-5.467 0-11.743 4.088-11.04 11.953 0.664 7.394 3.174 10.273 0.572 12.995l9.617 1.855 11.483-1.855s-2.887-2.159-4.014-5.66c-0.863-2.695 0.184-5.604 0.184-5.604l-6.273-3.602s3.779-0.13 5.404-0.13c1.629 0 2.471 1.481 2.967 2.363 0.496 0.881 1.98 3.479 0.146 4.789l4.211 1.345z"/>
			<path d="m84.233 44.781l1.635-2.982s-7.33-6.383-16.548-1.531c-5.171 2.722-7.39 7.857-3.927 17.864 0 0-2.755-11.69 6.085-14.996 8.192-3.065 12.755 1.645 12.755 1.645z"/>
			<path d="m86.469 40.743l5.434-6.459s-6.512-6.874-16.156-7.014c-8.943-0.131-14.881 4.167-18.207 8.245-2.965 3.635-4.363 9.784-2.083 16.003 0.994 2.711 2.076 4.39 3.851 6.422 1.577 1.806 2.952 3.731 2.324 5.875-0.418 1.436-1.047 2.236-2.571 2.551l5.384 1.555s1.531-2.064 1.453-4.594c-0.146-4.69-3.63-8.115-3.456-14.733 0.122-4.581 3.285-8.815 7.746-10.591 3.771-1.499 10.268-2.459 16.281 2.74z"/>
	</g>
</svg>
