<svg xmlns="http://www.w3.org/2000/svg" class="iconic iconic-comment-square" width="128" height="128" viewBox="0 0 128 128">
  <g class="iconic-metadata">
    <title>Comment Square</title>
  </g>
  <g data-width="128" data-height="110" class="iconic-comment-square-lg iconic-container iconic-lg" display="inline" transform="translate(0 9)">
    <path d="M0 1.5v85c0 .828.672 1.5 1.5 1.5h103c.828 0 1.975.475 2.561 1.061l19.879 19.879c.586.586 1.061.389 1.061-.439v-107c0-.828-.672-1.5-1.5-1.5h-125c-.828 0-1.5.672-1.5 1.5z" class="iconic-property-fill" />
  </g>
  <g data-width="32" data-height="29" class="iconic-comment-square-md iconic-container iconic-md" display="none" transform="scale(4) translate(0 1)">
    <path d="M0 .5v22c0 .276.224.5.5.5h25c.276 0 .658.158.854.354l5.293 5.293c.195.195.354.13.354-.146v-28c0-.276-.224-.5-.5-.5h-31c-.276 0-.5.224-.5.5z" class="iconic-property-fill" />
  </g>
  <g data-width="16" data-height="16" class="iconic-comment-square-sm iconic-container iconic-sm" display="none" transform="scale(8)">
    <path class="iconic-property-fill" d="M16 0h-16v12h12l4 4z" />
  </g>
</svg>