<?xml version="1.0" encoding="utf-8"?>
<!-- Generator: Adobe Illustrator 16.0.0, SVG Export Plug-In . SVG Version: 6.00 Build 0)  -->
<!DOCTYPE svg PUBLIC "-//W3C//DTD SVG 1.1//EN" "http://www.w3.org/Graphics/SVG/1.1/DTD/svg11.dtd">
<svg version="1.1" id="Layer_1" xmlns="http://www.w3.org/2000/svg" xmlns:xlink="http://www.w3.org/1999/xlink" x="0px" y="0px"
	 width="168px" height="168px" viewBox="0 0 168 168" enable-background="new 0 0 168 168" xml:space="preserve">
<g>
	<g>
		<g>
			<path fill="#BC4730" d="M27.872,74.382c-0.262-3.446-4.199-7.94-9.907-7.901c-4.96,0.035-6.546,1.442-7.684,2.184
				c-1.133,0.741-1.177,2.18-1.177,2.18s0.034,0.789,0.451,1.545c0.604,1.094,2.865,1.075,5.353-0.934
				c2.488-2.007,5.937-0.96,7.29,1.094c1.353,2.051,0.435,5.235,0.435,5.235c-2.661-3.623-8.668-3.78-13.485-1.921
				C3.647,77.99,2.008,85.476,3.52,89.566c1.996,5.412,7.55,5.412,9.907,5.412c2.354,0,4.276-1.307,4.276-1.307
				s1.615,0.479,3.055,0.393c1.441-0.09,2.313-0.086,3.274-0.22c0.96-0.129,0.217-1.745,0.217-1.745s1.09-3.359,1.527-5.019
				C26.214,85.424,28.131,77.829,27.872,74.382z M17.855,90.979c-0.58,0.181-5.203,0.71-7.566-4.427
				c-1.69-3.681-1.539-7.72,1.208-8.437c0,0,5.117-1.373,8.397,4.953C21.794,86.735,19.771,90.379,17.855,90.979z"/>
			<path fill="#BC4730" d="M45.92,66.081c-3.414-0.463-6.482,1.561-6.482,1.561c-0.228-1.447-1.502-1.631-3.759-1.631
				c-2.719,0-3.066,2.153-3.066,2.153s-7.056,31.184-6.942,32.861c0.119,1.679,2.951,2.31,4.629,1.906
				c1.678-0.404,2.256-1.965,2.256-1.965l1.843-8.623v0.177c2.535,2.545,7.182,1.619,7.182,1.619
				C50.2,91.885,53.5,82.28,53.5,75.338C53.5,68.395,49.333,66.543,45.92,66.081z M46.32,82.597
				c-3.343,4.802-8.358,7.449-10.801,5.39c-2.037-1.718-1.271-6.688,2.07-11.491c3.343-4.803,8.156-6.999,10.032-5.901
				C50.376,72.214,49.661,77.793,46.32,82.597z"/>
			<path fill="#BC4730" d="M73.745,66.693c-5.966-1.997-14.55,2.733-17.181,10.556c-2.631,7.815-0.115,15.499,6.015,16.89
				c5.87,1.333,12.297-2.191,14.926-10.009C79.42,78.44,80.364,68.904,73.745,66.693z M66.917,89.975
				c-3.388,0-6.132-3.957-6.132-9.244c0-5.289,3.44-9.607,6.827-9.615c3.761-0.012,5.439,5.435,5.439,9.286
				C73.051,85.687,70.306,89.975,66.917,89.975z"/>
			<polygon fill="#BC4730" points="121.452,68.947 121.452,65.512 109.161,65.512 105.638,65.512 105.638,68.947 105.638,76.449 
				105.638,79.88 105.638,89.975 105.638,93.406 109.161,93.406 121.452,93.406 121.452,89.975 109.161,89.975 109.161,79.88 
				121.452,79.88 121.452,76.449 109.161,76.449 109.161,68.947 			"/>
			<path fill="#BC4730" d="M102.116,89.975V79.88v-0.667H92.79v3.71h5.8v5.773c-2.584,1.118-3.875,1.278-5.765,1.278
				c-5.368,0-8.577-4.339-8.577-10.562c0-6.223,2.452-10.427,8.077-10.929c3.07-0.27,7.39,1.298,9.791,3.859v-3.396v-1.18
				c-1.757-2.235-9.642-4.066-14.147-1.726c-4.086,2.125-6.352,4.627-6.853,10.258c-0.498,5.627,0.728,10.252,1.951,12.249
				c1.228,1.995,4.629,5.266,9.848,5.266c4.269,0,7.976-1.804,9.201-2.467V89.975z"/>
			<path fill="#BC4730" d="M143.593,93.406l-8.314-27.894h-4.788l-8.133,27.894h3.523l2.226-7.841h9.893l0,0l2.521,7.841H143.593z
				 M129.106,82.048l3.641-12.831l4.125,12.831H129.106z"/>
			<path fill="#BC4730" d="M156.241,81.589c3.729-2.09,4.89-7.388,3.499-11.728c-1.499-4.686-6.91-4.439-6.91-4.439h-8.514v27.893
				l3.523,0.091v-10.95h4.944l7.549,10.95h4.682L156.241,81.589z M153.558,78.907c-2.32,0-5.718,0-5.718,0V68.724h5.354
				c0,0,3.819-0.047,3.819,3.682C157.014,76.135,155.876,78.907,153.558,78.907z"/>
		</g>
	</g>
</g>
</svg>
