<?xml version="1.0" encoding="UTF-8" standalone="no"?>
<!-- Generator: Adobe Illustrator 16.0.0, SVG Export Plug-In . SVG Version: 6.00 Build 0)  -->
<!DOCTYPE svg  PUBLIC '-//W3C//DTD SVG 1.1//EN'  'http://www.w3.org/Graphics/SVG/1.1/DTD/svg11.dtd'>
<svg id="Layer_1" xmlns="http://www.w3.org/2000/svg" xml:space="preserve" height="888px" viewBox="0 0 888 888" width="888px" version="1.1" y="0px" x="0px" xmlns:xlink="http://www.w3.org/1999/xlink" enable-background="new 0 0 888 888">
<g clip-rule="evenodd" fill-rule="evenodd">
	<polygon points="8.854 485.82 8.854 434.46 37.517 434.46 37.517 441.55 17.204 441.55 17.204 454.35 37.517 454.35 37.517 461.69 17.204 461.69 17.204 485.82" fill="#231F20"/>
	<path fill="#231F20" d="m77.231 485.82h-7.611v-4.315c-1.356 1.918-2.942 3.346-4.755 4.281-1.812 0.934-3.888 1.404-6.228 1.404-4.702 0-8.401-1.609-11.104-4.824-2.701-3.217-4.051-7.621-4.051-13.211 0-5.31 1.38-9.596 4.138-12.856 2.763-3.266 6.361-4.894 10.805-4.894 2.716 0 5.038 0.562 6.966 1.697 1.931 1.14 3.338 2.771 4.228 4.896l0.001-5.436h7.612v33.26zm-7.401-16.73c0-3.438-0.804-6.113-2.403-8.032-1.605-1.921-3.842-2.878-6.721-2.878-2.874 0-5.137 0.986-6.786 2.965-1.65 1.976-2.475 4.718-2.475 8.225 0 3.534 0.796 6.258 2.384 8.176 1.593 1.919 3.837 2.876 6.738 2.876 2.735 0 4.963-1.038 6.681-3.119 1.723-2.08 2.582-4.82 2.582-8.21z"/>
	<path fill="#231F20" d="m112.6 462.04c-1.17-1.288-2.529-2.271-4.087-2.948-1.557-0.68-3.232-1.016-5.035-1.016-3.11 0-5.6 1.004-7.471 3.016-1.872 2.012-2.808 4.68-2.808 7.998 0 3.462 0.94 6.182 2.824 8.156 1.885 1.977 4.484 2.967 7.808 2.967 1.847 0 3.495-0.347 4.947-1.035 1.45-0.692 2.724-1.738 3.822-3.141v8.771c-1.402 0.795-2.908 1.392-4.506 1.787-1.603 0.4-3.306 0.6-5.104 0.6-5.217 0-9.468-1.66-12.756-4.982-3.286-3.322-4.928-7.624-4.928-12.909 0-5.358 1.699-9.678 5.105-12.966 3.402-3.287 7.851-4.928 13.346-4.928 1.734 0 3.321 0.171 4.772 0.506 1.45 0.343 2.807 0.861 4.07 1.562v8.56z"/>
	<path fill="#231F20" d="m119.72 438.18c0-1.288 0.473-2.397 1.422-3.334 0.946-0.936 2.073-1.401 3.383-1.401 1.357 0 2.487 0.448 3.388 1.349 0.898 0.9 1.35 2.029 1.35 3.387 0 1.354-0.458 2.496-1.368 3.42-0.913 0.923-2.035 1.387-3.371 1.387-1.31 0-2.437-0.477-3.383-1.421-0.95-0.96-1.42-2.09-1.42-3.4m1.02 47.64v-33.257h7.614v33.257h-7.61z"/>
	<rect height="54.378" width="7.612" y="431.44" x="139.58" fill="#231F20"/>
	<path fill="#231F20" d="m157.4 438.18c0-1.288 0.477-2.397 1.425-3.334 0.942-0.936 2.072-1.401 3.382-1.401 1.359 0 2.485 0.448 3.386 1.349 0.9 0.9 1.35 2.029 1.35 3.387 0 1.354-0.454 2.496-1.366 3.42-0.915 0.923-2.039 1.387-3.371 1.387-1.31 0-2.439-0.477-3.382-1.421-0.95-0.96-1.42-2.09-1.42-3.4m1.01 47.64v-33.257h7.615v33.257h-7.61z"/>
	<polygon points="178.69 485.82 178.69 459.23 172.87 459.23 172.87 452.57 178.69 452.57 178.69 439.97 186.3 439.97 186.3 452.57 192.13 452.57 192.13 459.23 186.3 459.23 186.3 485.82" fill="#231F20"/>
	<path fill="#231F20" d="m204.41 501.47h-7.824l9.122-18.523-12.21-30.38h8.42l6.103 17.225c0.352 1.053 0.663 2.121 0.93 3.21 0.27 1.087 0.486 2.194 0.649 3.316 0.304-1.171 1.03-3.032 2.176-5.58l0.174-0.421 8.211-17.75h8.245l-23.99 48.89z"/>
	<path fill="#231F20" d="m251.91 475.55l6.667-3.09c0.631 2.291 1.788 4.038 3.47 5.243 1.685 1.204 3.839 1.811 6.457 1.811 2.478 0 4.45-0.692 5.91-2.073 1.462-1.379 2.193-3.228 2.193-5.542 0-3.018-2.502-5.707-7.504-8.07-0.703-0.349-1.241-0.607-1.617-0.771-5.658-2.76-9.431-5.258-11.314-7.49-1.884-2.234-2.824-4.966-2.824-8.191 0-4.186 1.418-7.578 4.264-10.172 2.841-2.599 6.567-3.896 11.175-3.896 3.786-0.002 6.957 0.732 9.505 2.191 2.552 1.465 4.318 3.562 5.298 6.298l-6.526 3.366c-1.028-1.613-2.155-2.791-3.383-3.542-1.23-0.747-2.64-1.122-4.229-1.122-2.246 0-4.03 0.586-5.349 1.753-1.325 1.173-1.984 2.738-1.984 4.703 0.001 3.085 2.9 5.964 8.7 8.63 0.444 0.211 0.793 0.375 1.052 0.49 5.075 2.338 8.563 4.625 10.454 6.859 1.896 2.232 2.844 5.025 2.844 8.365 0 4.87-1.532 8.732-4.599 11.598-3.061 2.863-7.202 4.299-12.417 4.299-4.373 0-7.961-1.01-10.755-3.018-2.79-2.02-4.62-4.89-5.49-8.63"/>
	<path fill="#231F20" d="m325.69 470.32h-26.592c0.187 3.11 1.11 5.539 2.771 7.279 1.659 1.741 3.87 2.615 6.631 2.615 2.456 0 4.501-0.514 6.14-1.545 1.637-1.027 3.064-2.691 4.278-4.979l6.422 3.574c-1.871 3.348-4.187 5.838-6.949 7.475-2.758 1.635-5.996 2.457-9.717 2.457-5.333 0-9.577-1.629-12.736-4.877-3.155-3.25-4.734-7.59-4.734-13.015 0-5.218 1.63-9.504 4.894-12.862 3.264-3.354 7.455-5.031 12.577-5.031 5.354 0 9.53 1.528 12.523 4.595 2.997 3.064 4.492 7.356 4.492 12.878v1.44zm-7.89-5.12c-0.304-2.387-1.214-4.201-2.736-5.455-1.519-1.254-3.6-1.878-6.243-1.878-2.504 0-4.515 0.61-6.034 1.823-1.523 1.218-2.588 3.054-3.195 5.51h18.2z"/>
	<path fill="#231F20" d="m358.46 462.04c-1.171-1.288-2.533-2.271-4.087-2.948-1.557-0.68-3.237-1.016-5.036-1.016-3.111 0-5.6 1.004-7.472 3.016-1.87 2.012-2.806 4.68-2.806 7.998 0 3.462 0.94 6.182 2.821 8.156 1.885 1.977 4.486 2.967 7.808 2.967 1.848 0 3.498-0.347 4.949-1.035 1.45-0.692 2.724-1.738 3.823-3.141v8.771c-1.405 0.795-2.908 1.392-4.51 1.787-1.602 0.4-3.302 0.6-5.104 0.6-5.213 0-9.464-1.66-12.753-4.982-3.286-3.322-4.927-7.624-4.927-12.909 0-5.358 1.698-9.678 5.101-12.966 3.406-3.287 7.854-4.928 13.351-4.928 1.731 0 3.319 0.171 4.772 0.506 1.45 0.343 2.807 0.861 4.07 1.562v8.56z"/>
	<path fill="#231F20" d="m373.62 452.57v18.73c0 3.227 0.669 5.545 2.001 6.951 1.333 1.4 3.495 2.104 6.489 2.104 2.997-0.002 5.159-0.703 6.492-2.104 1.332-1.406 2-3.725 2-6.951l0.001-18.73h7.612v16.449c0 6.365-1.276 10.986-3.824 13.859-2.551 2.876-6.62 4.318-12.208 4.318-5.685 0-9.803-1.43-12.349-4.279-2.553-2.855-3.828-7.486-3.828-13.898v-16.449h7.62z"/>
	<path fill="#231F20" d="m416.1 457.86c0.82-2.198 1.901-3.822 3.245-4.875 1.346-1.052 3.011-1.579 5-1.579 1.076 0 2.135 0.127 3.177 0.383 1.04 0.26 2.062 0.633 3.066 1.125l-2.736 6.454c-0.652-0.468-1.361-0.812-2.12-1.034-0.761-0.224-1.611-0.334-2.545-0.334-2.524 0-4.339 1.012-5.436 3.035-1.102 2.023-1.651 5.418-1.651 10.191v14.595h-7.611v-33.329h7.611v5.39z"/>
	<path fill="#231F20" d="m434.28 438.18c0-1.288 0.472-2.397 1.421-3.334 0.946-0.936 2.073-1.401 3.382-1.401 1.359 0 2.488 0.448 3.388 1.349 0.902 0.9 1.347 2.029 1.347 3.387 0.002 1.354-0.449 2.496-1.364 3.42-0.913 0.923-2.035 1.387-3.371 1.387-1.309 0-2.436-0.477-3.382-1.421-0.96-0.96-1.43-2.09-1.43-3.4m1.01 47.64v-33.257h7.613v33.257h-7.61z"/>
	<polygon points="455.57 485.82 455.57 459.23 449.75 459.23 449.75 452.57 455.57 452.57 455.57 439.97 463.18 439.97 463.18 452.57 469.01 452.57 469.01 459.23 463.18 459.23 463.18 485.82" fill="#231F20"/>
	<path fill="#231F20" d="m481.29 501.47h-7.824l9.12-18.523-12.206-30.379h8.42l6.101 17.225c0.352 1.053 0.663 2.121 0.93 3.21 0.271 1.087 0.489 2.194 0.648 3.316 0.309-1.171 1.033-3.032 2.179-5.58l0.176-0.421 8.21-17.75h8.244l-24 48.89z"/>
	<path fill="#231F20" d="m531.74 485.82v-51.362h11.258c7.32 0 12.475 0.37 15.458 1.105 2.981 0.734 5.593 1.971 7.838 3.703 2.971 2.268 5.22 5.182 6.755 8.735 1.529 3.554 2.293 7.612 2.293 12.172 0.003 4.563-0.764 8.604-2.293 12.124-1.535 3.52-3.786 6.422-6.755 8.715-2.243 1.732-4.799 2.965-7.664 3.7-2.865 0.739-7.329 1.107-13.383 1.107h-13.519zm8.34-7.54h7.02c3.858 0 6.754-0.257 8.681-0.769 1.931-0.516 3.61-1.381 5.04-2.594 1.939-1.665 3.395-3.726 4.366-6.197 0.968-2.465 1.457-5.336 1.457-8.611 0-3.274-0.489-6.146-1.457-8.613-0.972-2.467-2.427-4.529-4.366-6.191-1.453-1.218-3.189-2.08-5.214-2.596s-5.184-0.771-9.489-0.771l-3.016-0.002h-3.021v36.34z"/>
	<path fill="#231F20" d="m583.62 438.18c0-1.288 0.479-2.397 1.423-3.334 0.947-0.936 2.077-1.401 3.387-1.401 1.354 0 2.485 0.448 3.388 1.349 0.896 0.9 1.349 2.029 1.349 3.387 0 1.354-0.459 2.496-1.367 3.42-0.911 0.923-2.04 1.387-3.369 1.387-1.31 0-2.439-0.477-3.387-1.421-0.94-0.96-1.42-2.09-1.42-3.4m1.02 47.64v-33.257h7.613v33.257h-7.61z"/>
	<path fill="#231F20" d="m614.81 487.82l-17.435-35.258h8.312l7.266 16.732c0.235 0.516 0.511 1.286 0.843 2.315 0.328 1.028 0.665 2.257 1.013 3.685 0.234-1.004 0.513-2.008 0.83-2.998 0.312-0.998 0.692-1.998 1.139-2.999l7.228-16.735h8.278l-17.48 35.28z"/>
	<path fill="#231F20" d="m636.39 438.18c0-1.288 0.473-2.397 1.421-3.334 0.946-0.936 2.071-1.401 3.384-1.401 1.359 0 2.486 0.448 3.387 1.349 0.899 0.9 1.349 2.029 1.349 3.387 0 1.354-0.453 2.496-1.364 3.42-0.914 0.923-2.037 1.387-3.371 1.387-1.311 0-2.438-0.477-3.384-1.421-0.96-0.96-1.43-2.09-1.43-3.4m1.02 47.64v-33.257h7.611v33.257h-7.61z"/>
	<path fill="#231F20" d="m652.07 479.79l6.315-3.438c0.468 1.66 1.334 2.924 2.596 3.788 1.263 0.864 2.889 1.298 4.877 1.298 1.707 0 3.047-0.39 4.018-1.176 0.974-0.783 1.457-1.852 1.457-3.209 0-1.803-1.732-3.342-5.19-4.63-1.169-0.423-2.069-0.774-2.702-1.052-3.554-1.477-6.04-2.974-7.458-4.492-1.413-1.521-2.118-3.369-2.118-5.544 0-2.969 1.16-5.378 3.488-7.228 2.329-1.846 5.408-2.77 9.243-2.77 2.572 0 4.779 0.473 6.613 1.419 1.836 0.948 3.176 2.3 4.019 4.053l-5.403 3.719c-0.4-1.052-1.093-1.892-2.086-2.507-0.993-0.621-2.147-0.932-3.46-0.932-1.447-0.002-2.611 0.345-3.488 1.035-0.877 0.689-1.314 1.611-1.314 2.757 0 1.728 1.965 3.308 5.895 4.735 1.239 0.442 2.198 0.805 2.874 1.086 3.066 1.218 5.26 2.592 6.579 4.123s1.984 3.443 1.984 5.734c0 3.322-1.205 5.926-3.614 7.806-2.408 1.885-5.732 2.827-9.968 2.827-3.249 0-5.948-0.609-8.104-1.825-2.16-1.23-3.84-3.09-5.06-5.59"/>
	<path fill="#231F20" d="m685.82 438.18c0-1.288 0.475-2.397 1.425-3.334 0.944-0.936 2.071-1.401 3.38-1.401 1.359 0 2.486 0.448 3.389 1.349 0.901 0.9 1.349 2.029 1.349 3.387 0 1.354-0.451 2.496-1.364 3.42-0.916 0.923-2.037 1.387-3.373 1.387-1.309 0-2.436-0.477-3.38-1.421-0.95-0.96-1.43-2.09-1.43-3.4m1.02 47.64v-33.257h7.613v33.257h-7.61z"/>
	<path fill="#231F20" d="m702.87 469.23c0-2.431 0.464-4.727 1.39-6.894 0.921-2.159 2.251-4.086 3.98-5.771 1.705-1.658 3.668-2.934 5.892-3.822s4.551-1.332 6.981-1.332c2.506 0 4.858 0.444 7.071 1.332 2.211 0.889 4.188 2.199 5.946 3.93 1.753 1.707 3.087 3.634 3.998 5.789 0.91 2.152 1.37 4.41 1.37 6.771 0 2.456-0.449 4.759-1.35 6.912-0.899 2.149-2.219 4.06-3.947 5.72-1.829 1.754-3.85 3.078-6.073 3.98-2.219 0.898-4.559 1.352-7.016 1.352-2.405 0-4.722-0.453-6.941-1.352-2.224-0.902-4.201-2.206-5.932-3.913-1.755-1.728-3.091-3.672-4-5.825-0.91-2.17-1.37-4.46-1.37-6.89m28.6 0.07c0-3.089-0.995-5.697-2.984-7.841-1.988-2.139-4.419-3.21-7.293-3.21-2.854 0-5.283 1.071-7.28 3.21-2.003 2.144-3 4.752-3 7.844 0 3.085 0.997 5.7 3 7.837 1.999 2.141 4.426 3.213 7.28 3.213 2.853-0.002 5.275-1.072 7.278-3.213 1.99-2.14 2.99-4.75 2.99-7.84z"/>
	<path fill="#231F20" d="m747.57 485.82v-33.257h7.157v5.436c1.522-2.293 3.312-3.962 5.372-5.015 2.055-1.052 4.56-1.579 7.503-1.579 2.481 0 4.589 0.389 6.336 1.175 1.743 0.784 3.103 1.946 4.087 3.489 0.587 0.911 1.004 1.977 1.26 3.191 0.263 1.219 0.386 3.346 0.386 6.387v20.173h-7.683v-17.085c0-4.375-0.534-7.28-1.593-8.719-1.067-1.439-2.954-2.157-5.669-2.157-1.778 0-3.36 0.33-4.756 0.98-1.39 0.659-2.484 1.579-3.276 2.774-0.563 0.793-0.952 1.816-1.175 3.068-0.225 1.251-0.333 3.246-0.333 5.982v15.155h-7.62z"/>
	<polygon points="8.668 238.25 824.08 238.25 879.08 325.76 824.08 414.53 8.668 414.53" fill="#EC1C24"/>
	<polygon points="17.825 246.99 702.46 246.99 751.62 325.76 702.46 405.34 17.825 405.34" fill="#fff"/>
	<path fill="#EC1C24" d="m362.83 388.24c35.443 0 63.751-28.734 63.751-63.75 0-35.393-28.308-64.148-63.751-64.148-35.01-0.001-63.751 28.755-63.751 64.148 0 35.02 28.74 63.75 63.75 63.75"/>
	<path fill="#231F20" d="m654.12 337.42v-17.909c2.095-0.832 3.755-1.666 4.987-2.927 1.666-2.079 2.516-5.833 2.516-11.664l0.002-7.08c0-5.403-0.852-9.17-2.518-11.252-1.232-1.257-2.893-2.101-4.989-2.923l0.002-17.912c11.67 0.409 19.999 2.921 25.414 7.513 5.406 4.575 8.341 12.917 8.341 24.574v7.484c0 10.854-2.518 19.172-8.341 24.188-5.42 4.99-13.75 7.91-25.41 7.91m0-71.67v17.911c-1.234-0.409-2.929-0.407-5.012-0.407l-2.506-0.001v36.677h2.506c2.083 0 3.775 0 5.01-0.419l0.002 17.908h-7.518v45.438h-24.572v-117.11h27.514 4.574 0.01zm-85.86 119.17v-18.332c2.922 0 5.44-1.257 6.686-3.317 1.251-2.511 1.668-7.509 1.668-14.592v-48.749c0-7.491-0.417-12.516-1.668-14.597-1.245-2.077-3.336-3.317-6.686-3.317v-17.947c12.114 0 20.844 2.947 25.428 8.781 4.587 5.824 7.082 16.659 7.082 32.477v37.936c0 15.837-2.495 26.66-7.082 32.493-5.01 6.26-13.32 9.17-25.43 9.17zm-281.68-119.61v21.278h-22.096v97.099h-27.074v-97.099h-22.094v-21.278h71.26zm281.68-1.25v17.947c-3.318 0-5.394 1.242-7.079 3.317-1.239 2.5-1.667 7.509-1.667 14.598v48.748c0 7.511 0.426 12.081 1.667 14.592 1.254 2.061 3.761 3.317 7.079 3.317v18.332c-12.487 0-20.833-2.903-25.808-9.165-4.591-5.833-7.09-16.655-7.09-32.493v-37.936c0-15.817 2.499-26.652 7.09-32.477 4.97-5.84 13.32-8.79 25.81-8.79zm-492.93 97.96v-11.26h7.09c-2.08-14.168-4.175-31.653-6.249-52.926-0.421 1.262-0.421 2.507-0.841 3.764v-36.293h15.428l23.748 118.38h-26.667l-2.525-21.661h-9.98zm119.16-97.96v78.776c0 9.161-0.404 15.411-0.823 19.184-0.818 3.302-2.08 7.055-5.01 11.243-2.482 3.725-6.232 6.668-10.824 8.328-4.175 2.089-9.593 3.321-15.419 3.321-6.67-0.001-12.498-1.232-17.51-3.747-5.411-2.497-9.156-5.419-11.664-9.143-2.479-3.776-4.161-7.536-4.588-11.68-0.392-4.162-0.392-12.917-0.392-26.255v-70.027h26.216v88.792c0 4.979 0.424 8.328 1.268 9.58 0.841 1.666 2.513 2.055 5.421 2.055 2.909 0 4.586-0.39 5.429-2.055 0.816-1.681 1.243-5.434 1.243-11.267v-87.105h26.64zm317.53 34.21v8.34h-23.775v-6.681c0-7.491-0.383-12.097-1.651-14.597-1.243-2.077-3.32-3.317-6.222-3.317-2.941 0-5.015 1.242-6.266 3.317-1.263 2.5-1.667 7.105-1.667 14.598l0.002 48.748c0 7.083 0.402 12.081 1.665 14.592 1.251 2.061 3.324 3.317 6.677 3.317 2.909 0 4.979-0.837 5.811-3.317 1.269-2.083 1.651-6.264 1.651-12.501v-11.684h23.775v11.249c0 12.937-2.499 21.697-7.064 26.663-4.6 5.446-12.507 7.924-23.769 7.924-12.52-0.001-20.833-2.904-25.844-9.166-4.567-5.833-7.07-16.655-7.07-32.493v-37.936c0-15.817 2.501-26.652 7.07-32.477 5.013-5.834 13.744-8.781 25.844-8.781 11.262 0 19.169 2.527 23.769 7.523 4.56 5.01 7.06 13.75 7.06 26.69zm-436.69-32.96v36.293c-3.333 22.075-5.833 38.325-6.683 49.164l6.683-0.001v11.26h-8.33l-2.921 21.661h-27.096l21.697-118.38h16.65z"/>
	<polygon points="720.57 578.25 9.547 578.25 9.547 513.38 760.49 513.38" fill="#EC1C24"/>
	<path fill="#fff" d="m47.119 557.6l-3.076-6.979h-10.74l-3.146 6.979h-4.63l13.13-28.181 13.11 28.181h-4.648zm-12.185-10.64h7.555l-2.777-6.184c-0.162-0.396-0.326-0.852-0.499-1.363-0.175-0.512-0.347-1.083-0.519-1.712-0.149 0.591-0.304 1.146-0.475 1.656-0.164 0.515-0.336 0.982-0.509 1.419l-2.776 6.17z"/>
	<path fill="#fff" d="m56.066 552.18l3.516-1.631c0.333 1.212 0.947 2.137 1.835 2.771 0.888 0.637 2.026 0.952 3.405 0.952 1.31 0 2.351-0.362 3.122-1.091s1.157-1.704 1.157-2.926c0-1.595-1.32-3.012-3.964-4.259-0.37-0.185-0.651-0.321-0.851-0.404-2.986-1.459-4.978-2.776-5.97-3.956-0.995-1.18-1.493-2.619-1.493-4.326 0-2.205 0.751-3.996 2.251-5.368 1.499-1.37 3.465-2.054 5.897-2.054 2.001 0 3.673 0.385 5.02 1.158 1.345 0.771 2.275 1.878 2.794 3.322l-3.442 1.779c-0.544-0.854-1.14-1.479-1.789-1.87-0.649-0.398-1.393-0.595-2.233-0.595-1.183 0-2.123 0.309-2.821 0.925-0.698 0.618-1.045 1.446-1.045 2.483 0 1.629 1.53 3.146 4.59 4.556 0.235 0.108 0.419 0.196 0.557 0.257 2.677 1.234 4.518 2.443 5.519 3.618 0.999 1.182 1.5 2.653 1.5 4.42 0 2.566-0.812 4.608-2.426 6.118-1.618 1.514-3.803 2.268-6.557 2.268-2.307-0.002-4.201-0.531-5.673-1.59-1.478-1.07-2.443-2.59-2.899-4.56"/>
	<path fill="#fff" d="m79.682 552.18l3.518-1.631c0.334 1.212 0.945 2.137 1.836 2.771 0.887 0.637 2.023 0.952 3.405 0.952 1.308 0 2.349-0.362 3.122-1.091 0.772-0.729 1.157-1.704 1.157-2.926 0-1.595-1.319-3.012-3.963-4.259-0.369-0.185-0.654-0.321-0.851-0.404-2.987-1.459-4.977-2.776-5.971-3.956-0.995-1.18-1.492-2.619-1.492-4.326 0-2.205 0.751-3.996 2.248-5.368 1.503-1.37 3.468-2.054 5.901-2.054 1.998 0 3.67 0.385 5.017 1.158 1.346 0.771 2.275 1.878 2.794 3.322l-3.44 1.779c-0.543-0.854-1.14-1.479-1.788-1.87-0.649-0.398-1.394-0.595-2.233-0.595-1.183 0-2.124 0.309-2.825 0.925-0.695 0.618-1.045 1.446-1.045 2.483 0 1.629 1.532 3.146 4.593 4.556 0.234 0.108 0.419 0.196 0.556 0.257 2.678 1.234 4.517 2.443 5.519 3.618 0.999 1.182 1.497 2.653 1.497 4.42 0.001 2.566-0.808 4.608-2.422 6.118-1.618 1.514-3.804 2.268-6.556 2.268-2.307-0.002-4.201-0.531-5.676-1.59-1.478-1.07-2.443-2.59-2.901-4.56"/>
	<path fill="#fff" d="m104.74 530.5h4.35v16.461c0 2.443 0.567 4.279 1.697 5.51 1.127 1.227 2.816 1.84 5.061 1.84 2.236 0 3.921-0.613 5.048-1.84 1.13-1.23 1.693-3.066 1.693-5.51l0.001-16.461h4.406v16.867c0 3.666-0.926 6.41-2.777 8.23-1.851 1.822-4.643 2.73-8.371 2.73-3.726-0.002-6.511-0.906-8.347-2.724-1.841-1.812-2.761-4.56-2.761-8.237v-16.87z"/>
	<path fill="#fff" d="m138.61 545.48v12.127h-4.129v-27.105h6.148c1.802 0 3.198 0.117 4.193 0.352 0.993 0.233 1.844 0.623 2.545 1.165 0.841 0.654 1.489 1.499 1.945 2.539 0.458 1.036 0.687 2.171 0.687 3.403 0 2.174-0.526 3.875-1.574 5.104-1.051 1.226-2.6 1.965-4.648 2.213l9.331 12.33h-4.98l-9.016-12.127h-0.49zm0.28-3.43h0.793c2.336 0 3.885-0.271 4.648-0.814 0.766-0.543 1.147-1.508 1.147-2.893 0-1.49-0.41-2.543-1.23-3.154-0.821-0.612-2.343-0.915-4.566-0.915h-0.793v7.77z"/>
	<polygon points="155.94 557.6 155.94 530.5 171.07 530.5 171.07 534.24 160.35 534.24 160.35 541.03 171.07 541.03 171.07 544.9 160.35 544.9 160.35 553.66 171.07 553.66 171.07 557.6" fill="#fff"/>
	<path fill="#fff" d="m178.71 557.6v-27.105h5.943c3.862 0 6.581 0.193 8.155 0.582 1.574 0.391 2.954 1.041 4.139 1.955 1.567 1.194 2.757 2.732 3.566 4.607 0.808 1.877 1.211 4.02 1.211 6.426 0.001 2.405-0.403 4.542-1.211 6.398-0.809 1.857-1.999 3.389-3.566 4.602-1.185 0.914-2.532 1.565-4.046 1.955-1.512 0.386-3.869 0.58-7.064 0.58h-7.124zm4.4-3.98h3.706c2.035 0 3.562-0.136 4.582-0.408 1.019-0.273 1.902-0.729 2.654-1.371 1.026-0.877 1.795-1.963 2.306-3.268 0.514-1.3 0.769-2.816 0.769-4.546 0-1.728-0.255-3.242-0.769-4.544-0.511-1.305-1.28-2.392-2.306-3.27-0.765-0.643-1.68-1.098-2.749-1.369-1.067-0.272-2.737-0.41-5.007-0.41h-3.186v19.19z"/>
	<path fill="#fff" d="m221.02 552.18l3.519-1.631c0.333 1.212 0.944 2.137 1.833 2.771 0.892 0.637 2.026 0.952 3.406 0.952 1.31 0 2.35-0.362 3.121-1.091s1.158-1.704 1.158-2.926c0-1.595-1.32-3.012-3.965-4.259-0.37-0.185-0.651-0.321-0.848-0.404-2.988-1.459-4.98-2.776-5.973-3.956s-1.491-2.619-1.491-4.326c0-2.205 0.75-3.996 2.25-5.368 1.499-1.37 3.464-2.054 5.897-2.054 2.001 0 3.672 0.385 5.019 1.158 1.345 0.771 2.275 1.878 2.794 3.322l-3.442 1.779c-0.544-0.854-1.14-1.479-1.789-1.87-0.648-0.398-1.392-0.595-2.23-0.595-1.186 0-2.126 0.309-2.824 0.925-0.699 0.618-1.046 1.446-1.046 2.483 0 1.629 1.53 3.146 4.594 4.556 0.231 0.108 0.419 0.196 0.554 0.257 2.677 1.234 4.518 2.443 5.518 3.618 1 1.182 1.5 2.653 1.5 4.42 0 2.566-0.809 4.608-2.426 6.118-1.616 1.514-3.802 2.268-6.556 2.268-2.308-0.002-4.199-0.531-5.673-1.59-1.47-1.07-2.44-2.59-2.9-4.56"/>
	<path fill="#fff" d="m264.18 557.6l-3.073-6.979h-10.739l-3.147 6.979h-4.63l13.13-28.181 13.11 28.181h-4.65zm-12.18-10.64h7.555l-2.776-6.184c-0.162-0.396-0.327-0.852-0.5-1.363-0.174-0.512-0.346-1.083-0.519-1.712-0.149 0.591-0.306 1.146-0.473 1.656-0.164 0.515-0.338 0.982-0.509 1.419l-2.78 6.17z"/>
	<polygon points="272.97 557.6 272.97 530.5 288.1 530.5 288.1 534.24 277.38 534.24 277.38 540.99 288.1 540.99 288.1 544.86 277.38 544.86 277.38 557.6" fill="#fff"/>
	<polygon points="295.46 557.6 295.46 530.5 310.59 530.5 310.59 534.24 299.87 534.24 299.87 541.03 310.59 541.03 310.59 544.9 299.87 544.9 299.87 553.66 310.59 553.66 310.59 557.6" fill="#fff"/>
	<polygon points="326.98 534.24 326.98 557.6 322.57 557.6 322.57 534.24 315.37 534.24 315.37 530.5 334.14 530.5 334.14 534.24" fill="#fff"/>
	<path fill="#fff" d="m346.04 557.6v-12.404l-9.129-14.701h4.628l5.686 9.201c0.135 0.235 0.306 0.545 0.508 0.928 0.206 0.381 0.412 0.797 0.622 1.24 0.171-0.434 0.352-0.838 0.544-1.226 0.192-0.384 0.394-0.732 0.604-1.052l5.832-9.092h4.407l-9.333 14.701v12.404h-4.37z"/>
	<path fill="#fff" d="m363.93 555.55c0-0.676 0.234-1.256 0.703-1.739 0.469-0.482 1.043-0.72 1.722-0.72s1.251 0.237 1.722 0.72c0.469 0.483 0.703 1.063 0.703 1.741 0.001 0.667-0.234 1.23-0.703 1.694-0.469 0.461-1.043 0.694-1.722 0.694s-1.252-0.231-1.722-0.694c-0.46-0.46-0.7-1.02-0.7-1.69"/>
	<path fill="#fff" d="m391.6 545.48v12.127h-4.131v-27.105h6.147c1.803 0 3.201 0.117 4.194 0.352 0.992 0.233 1.845 0.623 2.544 1.165 0.842 0.654 1.49 1.499 1.946 2.539 0.456 1.036 0.686 2.171 0.686 3.403 0 2.174-0.526 3.875-1.575 5.104-1.05 1.226-2.599 1.965-4.647 2.213l9.331 12.33h-4.98l-9.016-12.127h-0.5zm0.28-3.43h0.793c2.335 0 3.883-0.271 4.65-0.814 0.764-0.543 1.148-1.508 1.148-2.893 0-1.49-0.41-2.543-1.232-3.154-0.821-0.612-2.343-0.915-4.565-0.915h-0.793v7.77z"/>
	<polygon points="411.13 557.6 411.13 530.5 426.26 530.5 426.26 534.24 415.54 534.24 415.54 541.03 426.26 541.03 426.26 544.9 415.54 544.9 415.54 553.66 426.26 553.66 426.26 557.6" fill="#fff"/>
	<path fill="#fff" d="m451.8 557.6l-3.077-6.979h-10.741l-3.145 6.979h-4.631l13.129-28.181 13.112 28.181h-4.65zm-12.19-10.64h7.553l-2.776-6.184c-0.163-0.396-0.328-0.852-0.5-1.363-0.173-0.512-0.347-1.083-0.519-1.712-0.148 0.591-0.305 1.146-0.475 1.656-0.163 0.515-0.336 0.982-0.508 1.419l-2.76 6.17z"/>
	<path fill="#fff" d="m459.04 552.18l3.515-1.631c0.337 1.212 0.949 2.137 1.836 2.771 0.892 0.637 2.026 0.952 3.407 0.952 1.307 0 2.349-0.362 3.121-1.091 0.77-0.729 1.159-1.704 1.159-2.926 0-1.595-1.324-3.012-3.967-4.259-0.37-0.185-0.652-0.321-0.852-0.404-2.985-1.459-4.976-2.776-5.972-3.956-0.99-1.18-1.488-2.619-1.488-4.326 0.002-2.205 0.747-3.996 2.247-5.368 1.503-1.37 3.469-2.054 5.899-2.054 1.999 0 3.672 0.385 5.019 1.158 1.345 0.771 2.274 1.878 2.793 3.322l-3.44 1.779c-0.545-0.854-1.142-1.479-1.79-1.87-0.646-0.398-1.391-0.595-2.229-0.595-1.186 0-2.126 0.309-2.825 0.925-0.694 0.618-1.046 1.446-1.046 2.483 0 1.629 1.529 3.146 4.593 4.556 0.235 0.108 0.42 0.196 0.558 0.257 2.677 1.234 4.517 2.443 5.516 3.618 1.002 1.182 1.5 2.653 1.5 4.42 0 2.566-0.81 4.608-2.425 6.118-1.616 1.514-3.804 2.268-6.557 2.268-2.304-0.002-4.199-0.531-5.675-1.59-1.48-1.07-2.44-2.59-2.9-4.56"/>
	<path fill="#fff" d="m482.66 552.18l3.518-1.631c0.334 1.212 0.946 2.137 1.834 2.771 0.892 0.637 2.026 0.952 3.405 0.952 1.311 0 2.351-0.362 3.121-1.091s1.158-1.704 1.158-2.926c0-1.595-1.321-3.012-3.966-4.259-0.369-0.185-0.65-0.321-0.848-0.404-2.988-1.459-4.977-2.776-5.974-3.956-0.991-1.18-1.491-2.619-1.491-4.326 0-2.205 0.752-3.996 2.251-5.368 1.5-1.37 3.465-2.054 5.898-2.054 2.001 0 3.672 0.385 5.019 1.158 1.345 0.771 2.276 1.878 2.795 3.322l-3.443 1.779c-0.544-0.854-1.139-1.479-1.789-1.87-0.648-0.398-1.39-0.595-2.23-0.595-1.186 0-2.126 0.309-2.824 0.925-0.694 0.618-1.046 1.446-1.046 2.483 0.002 1.629 1.53 3.146 4.595 4.556 0.23 0.108 0.419 0.196 0.553 0.257 2.679 1.234 4.52 2.443 5.519 3.618 1 1.182 1.499 2.653 1.499 4.42 0 2.566-0.809 4.608-2.425 6.118-1.615 1.514-3.803 2.268-6.556 2.268-2.309-0.002-4.199-0.531-5.673-1.59-1.47-1.07-2.44-2.59-2.89-4.56"/>
	<path fill="#fff" d="m507.72 530.5h4.35v16.461c0 2.443 0.562 4.279 1.693 5.51 1.131 1.227 2.816 1.84 5.065 1.84 2.232 0 3.916-0.613 5.045-1.84 1.13-1.23 1.696-3.066 1.696-5.51v-16.461h4.406v16.867c0 3.666-0.93 6.41-2.78 8.23-1.851 1.822-4.64 2.73-8.367 2.73-3.727-0.002-6.514-0.906-8.352-2.724-1.838-1.812-2.759-4.56-2.759-8.237l0.01-16.87z"/>
	<path fill="#fff" d="m541.58 545.48v12.127h-4.129v-27.105h6.145c1.805 0 3.2 0.117 4.193 0.352 0.997 0.233 1.845 0.623 2.548 1.165 0.84 0.654 1.486 1.499 1.943 2.539 0.46 1.036 0.687 2.171 0.687 3.403 0 2.174-0.527 3.875-1.573 5.104-1.049 1.226-2.601 1.965-4.648 2.213l9.33 12.33h-4.979l-9.017-12.127h-0.5zm0.28-3.43h0.796c2.332 0 3.882-0.271 4.646-0.814s1.147-1.508 1.147-2.893c0.002-1.49-0.408-2.543-1.228-3.154-0.822-0.612-2.347-0.915-4.566-0.915h-0.796v7.77z"/>
	<polygon points="558.92 557.6 558.92 530.5 574.05 530.5 574.05 534.24 563.33 534.24 563.33 541.03 574.05 541.03 574.05 544.9 563.33 544.9 563.33 553.66 574.05 553.66 574.05 557.6" fill="#fff"/>
	<path fill="#fff" d="m581.68 557.6v-27.105h5.942c3.864 0 6.584 0.193 8.157 0.582 1.573 0.391 2.954 1.041 4.14 1.955 1.567 1.194 2.755 2.732 3.564 4.607 0.811 1.877 1.213 4.02 1.213 6.426 0 2.405-0.404 4.542-1.213 6.398-0.81 1.857-1.997 3.389-3.564 4.602-1.186 0.914-2.534 1.565-4.047 1.955-1.514 0.386-3.866 0.58-7.062 0.58h-7.128zm4.41-3.98h3.702c2.039 0 3.563-0.136 4.582-0.408 1.019-0.273 1.903-0.729 2.655-1.371 1.027-0.877 1.794-1.963 2.304-3.268 0.515-1.3 0.771-2.816 0.771-4.546 0.002-1.728-0.257-3.242-0.771-4.544-0.51-1.305-1.276-2.392-2.304-3.27-0.765-0.643-1.679-1.098-2.748-1.369-1.069-0.272-2.738-0.41-5.009-0.41h-3.183v19.19z"/>
	<path fill="#fff" d="m631.39 557.6v-12.404l-9.129-14.701h4.629l5.687 9.201c0.133 0.235 0.307 0.545 0.508 0.928 0.203 0.381 0.411 0.797 0.62 1.24 0.174-0.434 0.354-0.838 0.545-1.226 0.192-0.384 0.396-0.732 0.604-1.052l5.834-9.092h4.406l-9.334 14.701v12.404h-4.38z"/>
	<path fill="#fff" d="m672.34 544.11c0 1.925-0.361 3.743-1.082 5.464-0.724 1.713-1.776 3.242-3.157 4.586-1.396 1.348-2.973 2.381-4.722 3.096-1.754 0.715-3.59 1.072-5.519 1.072-1.948-0.002-3.81-0.36-5.582-1.082-1.771-0.723-3.338-1.747-4.695-3.086-1.383-1.344-2.429-2.869-3.148-4.572-0.714-1.702-1.072-3.529-1.072-5.478 0-1.94 0.356-3.77 1.072-5.482 0.72-1.718 1.766-3.253 3.148-4.61 1.385-1.347 2.952-2.369 4.705-3.074 1.752-0.701 3.611-1.055 5.572-1.055 1.952 0 3.799 0.354 5.546 1.055 1.745 0.705 3.31 1.728 4.694 3.074 1.383 1.37 2.434 2.916 3.157 4.638 0.72 1.7 1.09 3.52 1.09 5.44m-4.6 0c0-1.372-0.25-2.673-0.752-3.907-0.497-1.236-1.22-2.336-2.157-3.299-0.913-0.949-1.972-1.68-3.175-2.191-1.202-0.516-2.473-0.771-3.805-0.771s-2.603 0.254-3.806 0.762c-1.205 0.507-2.272 1.242-3.21 2.201-0.938 0.951-1.654 2.045-2.152 3.277-0.493 1.234-0.738 2.543-0.738 3.929 0.002 1.368 0.245 2.664 0.738 3.888 0.498 1.22 1.214 2.312 2.152 3.275 0.938 0.965 2.005 1.699 3.203 2.203 1.194 0.508 2.468 0.762 3.812 0.762 1.321 0 2.579-0.254 3.769-0.762 1.192-0.504 2.26-1.238 3.211-2.203 0.938-0.963 1.66-2.058 2.157-3.283 0.5-1.24 0.75-2.54 0.75-3.89z"/>
	<path fill="#fff" d="m678.68 530.5h4.35v16.461c0 2.443 0.567 4.279 1.698 5.51 1.127 1.227 2.816 1.84 5.062 1.84 2.236 0 3.917-0.613 5.046-1.84 1.131-1.23 1.694-3.066 1.694-5.51v-16.461h4.406v16.867c0 3.666-0.925 6.41-2.777 8.23-1.854 1.822-4.643 2.73-8.369 2.73-3.728-0.002-6.512-0.906-8.35-2.724-1.841-1.812-2.76-4.56-2.76-8.237v-16.87z"/>
	<path fill="#fff" d="m708.6 555.55c0-0.676 0.235-1.256 0.703-1.739 0.47-0.482 1.044-0.72 1.722-0.72 0.68 0 1.256 0.237 1.722 0.72 0.472 0.483 0.703 1.063 0.703 1.741 0 0.667-0.231 1.23-0.703 1.694-0.466 0.461-1.042 0.694-1.722 0.694-0.678 0-1.252-0.231-1.722-0.694-0.46-0.46-0.7-1.02-0.7-1.69"/>
</g>
</svg>
