<?xml version="1.0" encoding="utf-8"?>
<!-- Generator: Adobe Illustrator 16.0.0, SVG Export Plug-In . SVG Version: 6.00 Build 0)  -->
<!DOCTYPE svg PUBLIC "-//W3C//DTD SVG 1.1//EN" "http://www.w3.org/Graphics/SVG/1.1/DTD/svg11.dtd">
<svg version="1.1" id="Layer_1" xmlns="http://www.w3.org/2000/svg" xmlns:xlink="http://www.w3.org/1999/xlink" x="0px" y="0px"
	 width="888px" height="888px" viewBox="0 0 888 888" enable-background="new 0 0 888 888" xml:space="preserve">
<g>
	<path fill="#231F20" d="M303.766,592.572V370.807h62.448V539.49h65.508v53.082H303.766z"/>
	<path fill="#231F20" d="M444.41,592.572V370.807h62.465V539.49h65.483v53.082H444.41z"/>
	<path fill="#00A3DF" d="M305.985,319.506c0,18.221-14.754,32.986-33.002,32.986c-18.216,0-32.979-14.765-32.979-32.986
		c0-18.229,14.762-32.989,32.979-32.989C291.231,286.517,305.985,301.277,305.985,319.506z"/>
	<path fill="#00A3DF" d="M833.089,568.5c0,18.217-14.729,32.982-32.958,32.982c-18.212,0-32.996-14.766-32.996-32.982
		c0-18.232,14.784-32.994,32.996-32.994C818.36,535.506,833.089,550.268,833.089,568.5z"/>
	<path fill="#231F20" d="M714.155,428.318c-10.375-8.658-23.622-14.397-37.445-14.397c-10.379,0-24.183,6.019-24.183,18.141
		c0,12.691,15.262,17.56,25.045,20.751l14.405,4.317c30.235,8.896,53.58,24.175,53.58,59.321c0,21.613-5.199,43.775-22.48,58.486
		c-16.999,14.412-39.75,20.449-61.639,20.449c-27.364,0-54.178-9.201-76.332-24.76l24.195-45.535
		c14.096,12.391,30.836,22.482,50.107,22.482c13.272,0,27.378-6.646,27.378-21.9c0-15.852-22.176-21.305-34.26-24.77
		c-35.44-10.088-58.772-19.322-58.772-61.366c0-44.073,31.405-72.851,74.893-72.851c21.886,0,48.672,6.898,67.974,17.829
		L714.155,428.318z"/>
	<path fill="#231F20" d="M54.911,370.784h63.796v79.308h59.746v-79.308h63.71v221.788h-63.71v-89.457h-59.746v89.457H54.911V370.784
		z"/>
	<g>
		<path fill="#231F20" d="M739.99,367.952v-15.185h-5.683v-2.061h13.652v2.061h-5.708v15.185H739.99z"/>
		<path fill="#231F20" d="M750.214,367.952v-17.246h3.44l4.071,12.222c0.366,1.128,0.667,1.957,0.828,2.512
			c0.192-0.591,0.492-1.513,0.907-2.737l4.132-11.997h3.047v17.246h-2.191v-14.397l-5.005,14.397h-2.039l-4.979-14.651v14.651
			H750.214z"/>
	</g>
</g>
</svg>
