<?xml version="1.0" encoding="UTF-8" standalone="no"?>
<!-- Generator: Adobe Illustrator 16.0.0, SVG Export Plug-In . SVG Version: 6.00 Build 0)  -->
<!DOCTYPE svg  PUBLIC '-//W3C//DTD SVG 1.1//EN'  'http://www.w3.org/Graphics/SVG/1.1/DTD/svg11.dtd'>
<svg id="Layer_1" xmlns="http://www.w3.org/2000/svg" xml:space="preserve" height="168px" viewBox="0 0 168 168" width="168px" version="1.1" y="0px" x="0px" xmlns:xlink="http://www.w3.org/1999/xlink" enable-background="new 0 0 168 168">
	<path d="m10.501 87.56c0-8.19 0-8.29 0.034-8.524 0.167-0.468 0.668-1.003 1.37-1.371 0.067-0.033 0.134-0.1 0.167-0.1 0-0.067 0.168-0.167 0.268-0.134 0.033 0 0.267-0.101 0.535-0.201 0.769-0.301 1.438-0.468 2.207-0.468 0.368 0 0.468 0.034 0.769 0.101 0.334 0.101 0.903 0.301 1.304 0.501 0.134 0.034 0.268 0.101 0.301 0.101 0.101-0.033 0.234 0.034 0.234 0.101 0 0.033 0 0.033 0.033 0.033 0 0 0.033 0 0.033 0.034h0.034 0.033c0 0.033 0 0.033 0.034 0.033 0.1-0.033 0.201 0.033 0.234 0.101 0 0 0.201 0.167 0.468 0.301 0.602 0.301 1.705 0.969 2.44 1.437 1.404 0.903 1.972 1.271 8.223 5.684 1.17 0.802 2.14 1.504 2.14 1.504s0.033-0.636 0.033-1.404v-1.37h4.847l-0.033 1.839c0 1.805 0 1.838-0.067 2.039-0.034 0.1-0.101 0.2-0.101 0.234 0 0.033 0 0.033-0.033 0.066-0.034 0.033-0.201 0.3-0.201 0.334s0 0.067-0.033 0.067-0.101 0.1-0.234 0.2c-0.234 0.234-0.636 0.535-0.937 0.703-0.1 0.065-0.167 0.133-0.167 0.133-0.034 0.066-0.134 0.134-0.234 0.101-0.034 0-0.167 0.033-0.268 0.1-0.634 0.298-1.57 0.465-2.306 0.465-0.535 0.034-1.271-0.167-2.073-0.534-0.2-0.101-0.401-0.167-0.401-0.167v0c0-0.034-0.033-0.034-0.033-0.034h-0.067c0-0.065-0.534-0.334-0.568-0.3v0c0-0.034-0.033-0.034-0.066-0.034-0.067 0.034-0.101 0-0.101-0.033 0 0-0.201-0.134-0.435-0.268-1.705-0.97-3.844-2.34-7.655-5.015-2.875-2.039-4.914-3.443-4.981-3.41-0.033 0-0.033 1.939-0.033 7.722v7.756h-4.714v-8.323zm-7.154-3.911v-6.586h5.215v13.171h-5.215v-6.585zm48.707 6.518c-0.836-0.167-2.04-0.668-3.644-1.571-1.739-1.036-3.611-2.239-7.221-4.813-2.742-1.906-4.981-3.41-5.048-3.41v1.17 1.204h-4.714l0.034-1.839v-1.838l0.1-0.234c0.167-0.301 0.535-0.668 0.936-0.936 0.669-0.435 1.705-0.869 2.474-1.037 0.468-0.067 1.237-0.101 1.571-0.067 1.003 0.201 2.808 1.07 5.249 2.608 1.27 0.835 3.477 2.339 9.761 6.753l0.769 0.567v-8.356l0.033-8.358h4.814l-0.034 8.792c0 8.792 0 8.825-0.066 9.026-0.101 0.301-0.301 0.567-0.568 0.869-0.635 0.635-1.739 1.17-2.741 1.37-0.635 0.133-1.304 0.167-1.705 0.1zm33.395-6.518v-6.586h10.431c7.32-0.033 10.563 0 10.863 0 0.569 0.067 0.971 0.134 1.371 0.268 0.201 0.033 0.368 0.101 0.401 0.101s0.067 0 0.067 0.033 0 0.034 0.033 0.034c0.032 0 0.2 0.067 0.367 0.134 0.168 0.101 0.334 0.167 0.334 0.167v0c0.034 0.067 0.368 0.268 0.436 0.301 0 0 0.167 0.133 0.335 0.3 0.199 0.201 0.334 0.334 0.3 0.334-0.033-0.033 0.067 0.067 0.168 0.167 0.033 0.034 0.066 0.067 0.066 0.101s0 0.067 0.033 0.067 0.033 0.033 0.033 0.033v0.067c0.066 0.033 0.301 0.501 0.435 0.836 0.134 0.368 0.301 0.969 0.369 1.437 0.032 0.234 0.032 0.769 0.032 2.14 0 1.572 0 1.839-0.067 2.173-0.066 0.501-0.234 1.07-0.367 1.437-0.066 0.168-0.134 0.335-0.134 0.401 0.033 0.066 0 0.101-0.034 0.101-0.065 0.034-0.2 0.2-0.167 0.267 0 0-0.033 0.034-0.1 0.102-0.033 0.033-0.066 0.1-0.066 0.133 0 0.034-0.033 0.067-0.033 0.067-0.034 0-0.034 0-0.034 0.033s-0.033 0.066-0.066 0.066c-0.067 0.033-0.268 0.301-0.234 0.268 0.101-0.033 0.033 0.033-0.168 0.201-0.1 0.134-0.199 0.233-0.233 0.233-0.033 0-0.066 0-0.101 0.034-0.1 0.101-0.668 0.468-0.701 0.468v0.033c0 0.034-0.034 0.034-0.1 0.034-0.035 0-0.168 0.033-0.27 0.1-0.267 0.134-0.868 0.301-1.336 0.401l-0.435 0.066h-10.73l-10.731 0.034 0.03-6.586zm24.471 5.315c0.033-0.067 0.033-0.067-0.033-0.033-0.033 0.066-0.067 0.1-0.033 0.1-0.01-0.001 0.03-0.034 0.06-0.067zm-3.28-5.282v-3.176h-16.28v6.352h16.28v-3.176zm10.84 6.518c-0.602-0.066-1.236-0.2-1.704-0.401-0.135-0.033-0.302-0.099-0.302-0.099-0.033 0.032-0.033 0-0.033-0.034 0.033-0.033 0-0.033-0.033 0.034-0.067 0.032-0.067 0.032-0.033-0.034 0-0.067 0-0.067-0.034 0-0.065 0.034-0.065 0.034-0.033-0.033 0-0.067 0-0.067-0.032 0-0.034 0.033-0.068 0.033-0.068-0.034 0-0.066-0.033-0.066-0.066-0.066s-0.066-0.033-0.066-0.067c-0.033-0.033-0.068-0.033-0.101-0.033h-0.033c0-0.032-0.134-0.134-0.268-0.233-0.368-0.268-0.669-0.603-0.937-1.037-0.2-0.301-0.501-0.901-0.501-1.003 0-0.033-0.033-0.033-0.033-0.033-0.033 0-0.033 0-0.033-0.066 0.033-0.033 0-0.067 0-0.033h-0.034c0-0.034-0.033-0.2-0.067-0.436-0.133-0.4-0.2-0.802-0.267-1.437-0.033-0.536-0.033-3.411 0-3.878 0.1-0.702 0.334-1.471 0.636-1.972 0.066-0.134 0.166-0.268 0.166-0.301h0.034s0.033-0.033 0.033-0.067c0 0 0-0.067 0.033-0.101 0.1-0.1 0.234-0.234 0.201-0.2h-0.033c0-0.034 0-0.067 0.033-0.067 0.033-0.034 0.166-0.101 0.268-0.2 0.1-0.101 0.334-0.268 0.501-0.368 0.134-0.1 0.301-0.234 0.301-0.234 0.032-0.033 0.067-0.067 0.067-0.033 0 0 0.033 0 0.066-0.034 0.033-0.033 0.066-0.033 0.066-0.033 0.033 0 0.067 0 0.067-0.033 0-0.034 0.034-0.034 0.066-0.034 0.101 0 0.502-0.167 0.469-0.2h0.066c0.033 0.033 0.066 0 0.033 0v-0.034c0.033 0 0.2-0.033 0.436-0.066 0.2-0.067 0.567-0.134 0.834-0.168 0.402-0.067 0.937-0.067 11.032-0.067h10.564v1.705l0.033 1.738h-21.261v1.371h21.261l-0.033 1.705v1.738h-10.564l-10.529 0.033v1.371h21.126v3.51l-10.63-0.036h-10.69zm23.16-6.652v-6.518l10.898 0.033c12.134 0 11.064-0.033 12.001 0.235 0.233 0.033 0.4 0.066 0.434 0.066v0.034c-0.033 0 0 0.033 0.034 0 0.066 0 0.066 0 0.066 0.033 0 0 0 0.033 0.033 0.033 0 0 0.135 0.034 0.269 0.101 0.166 0.033 0.3 0.1 0.367 0.1 0.066-0.033 0.101 0 0.066 0.033 0 0.067 0 0.067 0.034 0 0.066-0.033 0.066-0.033 0.032 0.034 0 0.066 0 0.066 0.034 0 0.067-0.034 0.067-0.034 0.034 0.033 0 0.066 0 0.066 0.033 0 0.033-0.033 0.066-0.033 0.066 0.033 0 0.033 0.101 0.101 0.167 0.134 0.101 0.067 0.2 0.134 0.234 0.134 0.033 0.034 0.066 0.066 0.066 0.034 0 0 0.033 0.033 0.067 0.066 0.066 0.033 0.101 0.1 0.134 0.1s0.066 0 0.066 0.034 0 0.034 0.033 0.034 0.067 0 0.067 0.034c0 0.033 0.066 0.066 0.1 0.066s0.067 0 0.067 0.034c0 0 0.033 0.101 0.134 0.134 0.066 0.067 0.134 0.101 0.1 0.101v-0.034c0.034 0 0.067 0 0.067 0.034 0.034 0.1 0.301 0.368 0.367 0.401 0.033 0 0.101 0.033 0.101 0.067h-0.067c-0.033-0.034 0.102 0.101 0.201 0.2 0.033 0.034 0.066 0.1 0.066 0.1v0.067c0.033 0 0.033 0.034 0.068 0.067 0.033 0.034 0.1 0.2 0.166 0.334 0.067 0.134 0.167 0.334 0.2 0.402 0 0.1 0.033 0.167 0.067 0.167 0.034 0.033 0.067 0.167 0.034 0.769 0 0.602 0 0.736-0.034 0.668-0.034-0.033-0.034-0.033-0.067 0.034v0.134c0.033 0 0 0.033 0 0-0.033-0.034-0.066 0-0.033 0.066v0.033s-0.066 0.101-0.134 0.235c-0.066 0.134-0.133 0.233-0.1 0.233 0 0-0.033 0.034-0.1 0.101-0.035 0.033-0.068 0.1-0.068 0.133 0 0.034-0.033 0.067-0.033 0.067-0.033 0-0.033 0-0.033 0.067 0 0.034-0.033 0.067-0.066 0.067 0 0-0.101 0.067-0.168 0.133-0.066 0.101-0.1 0.134-0.066 0.101l0.1-0.067-0.033 0.067c-0.033 0.067-0.1 0.101-0.134 0.101-0.066 0.033-0.267 0.234-0.301 0.334-0.033 0.033-0.066 0.099-0.1 0.099v-0.066c0.033-0.033-0.335 0.268-0.401 0.368-0.033 0-0.134 0.067-0.268 0.133-0.101 0.101-0.2 0.168-0.2 0.201h-0.033c-0.067 0-0.268 0.133-0.268 0.168 0 0.066-0.135 0.133-0.201 0.1-0.033 0-0.2 0.066-0.368 0.134-0.367 0.134-0.735 0.234-1.136 0.301-0.233 0.066-1.203 0.066-9.026 0.066l-8.725 0.033v4.781h-4.914v-6.554zm22.03-2.273v-0.769h-17.117v1.571h17.117v-0.802zm-100.19 8.725c-0.167 0-0.468-0.066-0.702-0.101-0.234-0.067-0.435-0.101-0.468-0.101-0.034 0-0.067 0-0.067-0.033 0.034 0 0-0.033-0.033 0h-0.067c0-0.033-0.034-0.065-0.067-0.065-0.067 0-0.234-0.102-0.401-0.168-0.167-0.067-0.301-0.133-0.333-0.168-0.034 0-0.067-0.033-0.101-0.066-0.067-0.033-0.101-0.066-0.134-0.066-0.034 0-0.034-0.033-0.034-0.033 0-0.033-0.034-0.033-0.067-0.033s-0.1-0.067-0.167-0.102c-0.033-0.066-0.167-0.233-0.301-0.367-0.234-0.233-0.535-0.635-0.602-0.803 0-0.033-0.067-0.066-0.101-0.066-0.033-0.033-0.033-0.033 0-0.066s0-0.033-0.033-0.033c-0.067 0.033-0.067 0.033-0.034-0.034 0.067-0.034 0.067-0.034 0-0.034-0.067 0.034-0.067 0.034 0-0.033 0.034-0.033 0.034-0.066 0-0.033-0.033 0-0.067 0-0.033-0.033 0-0.033-0.101-0.268-0.101-0.268-0.033 0-0.033-0.032-0.033-0.067 0-0.033-0.067-0.199-0.1-0.399-0.268-0.804-0.335-1.605-0.301-3.411 0-1.471 0.066-2.039 0.301-2.841 0.033-0.167 0.067-0.301 0.067-0.334-0.034 0 0-0.034 0 0 0.033 0.033 0.2-0.334 0.2-0.468 0-0.034 0.034-0.066 0.034-0.066 0.033-0.034 0.066-0.067 0.066-0.067 0-0.067 0.034-0.134 0.067-0.134v-0.034-0.066c0.033 0 0.1-0.101 0.2-0.234 0.134-0.268 0.201-0.334 0.301-0.435l0.034-0.033h-0.034v-0.034c0.067 0 0.301-0.234 0.334-0.3 0-0.034 0.034-0.067 0.067-0.067v0.034l0.034-0.034c0.1-0.101 0.2-0.167 0.234-0.167 0-0.033 0.067-0.066 0.134-0.1 0.133-0.1 0.869-0.468 0.936-0.468 0.033 0 0.066-0.034 0.066-0.034 0-0.033 0-0.033 0.034-0.033 0.034 0.033 0.067 0 0.034 0 0-0.034 0-0.034 0.066-0.034 0.034 0.034 0.067 0 0.034 0-0.034-0.033 0-0.066 0-0.033 0.033 0 0.2-0.033 0.435-0.067 0.903-0.234 0.167-0.234 9.427-0.234 9.059-0.033 8.657-0.033 9.427 0.168 0.167 0.033 0.334 0.066 0.368 0.066v0.034c-0.033 0 0 0.033 0.034 0h0.067c0 0.033 0.033 0.066 0.101 0.066 0.167 0.067 0.802 0.368 0.835 0.435h0.066s0.033 0 0.033 0.033 0.034 0.067 0.068 0.067c0.033 0 0.066 0 0.099 0.033 0.101 0.1 0.235 0.234 0.201 0.201v-0.034c0.034 0 0.066 0 0.066 0.034 0.033 0.033 0.101 0.134 0.168 0.234 0.268 0.268 0.334 0.368 0.467 0.602 0.101 0.133 0.201 0.267 0.201 0.267 0.033 0.033 0.067 0.067 0.033 0.067 0 0 0 0.033 0.034 0.066 0.033 0.034 0.033 0.067 0.033 0.067 0 0.034 0 0.067 0.033 0.067 0.034 0 0.034 0.034 0.034 0.067 0 0.034 0.1 0.301 0.133 0.301v0.034s0.034 0.167 0.101 0.334c0.267 0.869 0.334 1.604 0.3 3.877 0 1.572-0.033 2.173-0.133 2.609-0.033 0.133-0.067 0.267-0.067 0.3s0 0.066-0.033 0.066h-0.033c0 0.101-0.033 0.168-0.067 0.201-0.033 0.033-0.033 0.066-0.033 0.066 0 0.034 0 0.067-0.034 0.067s-0.034 0.033-0.034 0.066c0 0.066-0.033 0.066-0.033 0.066-0.033 0-0.1 0.068-0.167 0.135-0.034 0.066-0.067 0.133-0.067 0.1 0.1-0.033 0.033 0.033-0.134 0.201-0.2 0.2-0.267 0.233-0.167 0.1 0.066-0.066-0.1 0.067-0.368 0.335-0.067 0.033-0.135 0.1-0.135 0.1-0.033 0-0.033 0-0.033 0.033 0 0-0.032 0.034-0.066 0.034s-0.067 0-0.067 0.033c0 0.034-0.033 0.067-0.067 0.067-0.033 0-0.033 0-0.033 0.033 0 0-0.034 0.033-0.067 0.033h-0.033c0 0.033-0.033 0.033-0.067 0.067-0.1 0.033-0.735 0.4-0.735 0.469-0.034 0.032-0.034 0.032-0.067 0-0.067-0.035-0.067-0.035-0.033 0 0.033 0.032 0 0.065-0.034 0.032 0 0-0.067 0-0.067 0.033-0.033 0.034-0.066 0.034-0.1 0.034 0 0-0.033 0-0.033 0.066-0.034 0.033-0.034 0.033-0.067 0-0.034-0.033-0.067-0.033-0.034 0 0 0.033 0 0.033-0.033 0.033-0.034 0-0.201 0.067-0.368 0.134-0.368 0.134-0.736 0.234-1.103 0.268-0.3 0.065-16.613 0.065-17.081-0.001zm16.815-6.418v-3.008h-16.179v6.05h16.179v-3.042zm-19.724 5.248c-0.066-0.066-0.066-0.101 0.033-0.033 0.034 0.033 0.067 0.066 0.067 0.066 0.001 0.033-0.032 0-0.1-0.033zm-54.222-12.703c-0.1 0-0.268-0.033-0.401-0.067-0.1-0.034-0.2-0.034-0.234-0.034 0 0.034-0.033 0 0-0.033 0.034 0 0-0.033-0.033 0h-0.033c0-0.033-0.268-0.134-0.301-0.134-0.033 0.034-0.033 0-0.033-0.034 0.033-0.033 0.033-0.033-0.033 0-0.034 0.034-0.034 0.034-0.067 0 0-0.033-0.134-0.134-0.234-0.2-0.134-0.067-0.334-0.234-0.468-0.368-0.167-0.134-0.3-0.268-0.368-0.334-0.033-0.033-0.067-0.1-0.067-0.134s-0.033-0.034-0.033-0.034c-0.034 0-0.034-0.033-0.034-0.066s-0.033-0.067-0.067-0.067l-0.033-0.033c0-0.034-0.268-0.568-0.301-0.568v-0.067c0.033-0.034 0-0.067 0-0.034-0.034 0-0.034 0-0.034-0.067 0.034-0.033 0-0.067 0-0.033-0.033 0.033-0.066 0-0.033 0 0-0.034 0-0.134-0.033-0.234-0.167-0.635-0.101-1.538 0.167-2.105 0.033-0.101 0.067-0.201 0.067-0.234s0-0.1 0.033-0.1 0.101-0.101 0.167-0.201c0.134-0.234 0.802-0.936 0.87-0.936 0.033 0 0.067-0.033 0.067-0.033v-0.034c0.033 0 0.133-0.067 0.233-0.133 0.268-0.134 0.636-0.301 0.97-0.368 0.401-0.1 1.17-0.1 1.538 0 0.134 0.067 0.268 0.067 0.301 0.067 0-0.033 0.033 0 0 0.033-0.033 0 0 0.034 0.033 0h0.067c0 0.067 0.234 0.134 0.301 0.134 0.067-0.033 0.101 0 0.101 0.034 0.033 0.066 0.301 0.268 0.367 0.268 0 0 0.034 0 0.034 0.033 0 0 0 0.034 0.034 0.034 0.033 0 0.101 0.033 0.167 0.066 0.034 0.067 0.133 0.201 0.267 0.334 0.602 0.635 0.903 1.438 0.903 2.307 0.033 0.435-0.033 0.769-0.167 1.136-0.034 0.134-0.1 0.268-0.1 0.301s0 0.033-0.034 0.033c0-0.033 0 0 0.034 0.034 0.033 0.067 0.033 0.067-0.034 0.033-0.034 0-0.067 0-0.034 0.034 0.034 0.033 0.034 0.033 0 0.066-0.066 0-0.2 0.201-0.234 0.335-0.033 0.033-0.101 0.133-0.2 0.233-0.034 0.034-0.034 0.034 0 0.034 0 0-0.034 0.034-0.134 0.1-0.066 0.101-0.167 0.201-0.2 0.234 0 0.033-0.033 0.1-0.067 0.1v-0.067l-0.034 0.033c-0.201 0.167-0.301 0.234-0.735 0.468-0.537 0.235-1.34 0.369-1.908 0.268zm-2.073-5.75c0.033-0.066 0.067-0.101 0.134-0.134h0.1l-0.134 0.101c-0.033 0.067-0.1 0.133-0.1 0.133s0-0.066 0-0.1zm-1.905-13.472v-9.159h17.182v18.319h-17.182v-9.16zm19.422 9.126v-9.16-9.126h17.216l-0.033 9.126v9.16h-8.592-8.591zm19.456-9.159v-9.126h17.183v18.286h-17.183v-9.16z" fill="#A6D3EC"/>
	<path d="m10.501 87.626c0-5.449 0-8.29 0.034-8.424 0-0.1 0.067-0.267 0.134-0.368 0.167-0.368 0.702-0.87 1.236-1.137 0.101-0.066 0.167-0.1 0.167-0.133 0-0.067 0.134-0.134 0.268-0.134 0.066 0 0.167-0.033 0.2-0.067 0.201-0.1 0.736-0.301 1.104-0.4 0.836-0.201 1.571-0.234 2.206-0.101 0.368 0.101 1.003 0.334 1.371 0.535 0.101 0.033 0.201 0.066 0.234 0.066 0.101-0.033 0.234 0.034 0.234 0.101 0 0.033 0 0.033 0.033 0.033 0 0 0.033 0 0.033 0.034h0.034 0.033c0 0.033 0 0.033 0.034 0.033 0.1-0.033 0.234 0.033 0.234 0.101 0 0.033 0.067 0.1 0.167 0.134 0.368 0.201 1.404 0.802 2.072 1.203 1.638 1.036 2.006 1.271 8.09 5.548 1.638 1.138 2.975 2.073 2.975 2.073s0.033-0.635 0.033-1.404v-1.403h4.814l-0.033 1.805v1.839l-0.101 0.234c-0.034 0.133-0.067 0.268-0.067 0.268 0.033 0 0.033 0 0 0-0.067 0.066-0.267 0.367-0.234 0.401 0 0 0 0.033-0.033 0.033 0 0-0.134 0.066-0.234 0.166-0.201 0.234-0.602 0.536-0.903 0.702-0.133 0.067-0.2 0.135-0.2 0.168-0.034 0.066-0.134 0.101-0.234 0.101-0.067 0-0.134 0.033-0.201 0.067-0.201 0.099-0.869 0.3-1.203 0.366-0.468 0.101-1.07 0.168-1.371 0.134-0.501-0.033-1.036-0.2-1.771-0.5-0.234-0.102-0.468-0.201-0.468-0.201-0.033 0-0.033 0-0.033-0.034h-0.033-0.067c0-0.065-0.534-0.334-0.568-0.3v0c0-0.034-0.033-0.034-0.066-0.034-0.067 0.034-0.067 0-0.067-0.033-0.034-0.034-0.134-0.101-0.334-0.201-1.504-0.802-3.811-2.307-7.053-4.58-3.778-2.673-5.683-3.977-5.75-3.944v7.755 7.756h-4.714v-8.258zm-7.154-4.011v-6.585l2.574 0.033h2.607v6.586l0.034 6.585h-5.215v-6.619zm82.136 0.034v-6.586h10.362c6.653 0 10.531 0 10.831 0.034 0.535 0.033 1.07 0.1 1.505 0.234 0.167 0.067 0.334 0.101 0.367 0.101v0c0 0.033 0 0.067 0.034 0.067 0.065 0 0.101 0 0.4 0.167 0.168 0.067 0.334 0.134 0.334 0.134-0.033 0.033 0.401 0.301 0.436 0.301 0.033 0 0.066 0 0.101 0.066 0.066 0.067 0.066 0.067 0 0-0.034 0 0.1 0.134 0.268 0.301 0.2 0.201 0.367 0.368 0.367 0.368 0 0.033 0 0.067 0.033 0.067 0.067 0.034 0.067 0.067 0.067 0.067 0 0.033 0.033 0.066 0.066 0.1l0.033 0.033c-0.066-0.033-0.066-0.033 0 0.033 0 0.034 0.033 0.067 0.066 0.101 0.034 0 0.034 0 0 0 0 0 0.034 0.1 0.102 0.2 0.2 0.368 0.435 1.037 0.567 1.639 0.168 0.902 0.168 4.079-0.033 4.98-0.066 0.436-0.168 0.836-0.334 1.17-0.033 0.135-0.101 0.302-0.101 0.368s0 0.101-0.034 0.101c-0.099 0.034-0.233 0.267-0.2 0.301 0.033 0 0.033 0.034 0 0-0.033 0-0.066 0.034-0.1 0.101s-0.066 0.134-0.101 0.167c-0.033 0-0.033 0.033-0.033 0.033 0 0.033-0.033 0.066-0.066 0.1 0 0-0.168 0.168-0.334 0.335-0.234 0.268-0.234 0.268-0.035 0.101 0.102-0.134 0.234-0.234 0.234-0.201s-0.434 0.435-0.468 0.435c-0.033 0-0.066 0-0.101 0.034-0.066 0.067-0.1 0.101-0.468 0.302-0.134 0.1-0.233 0.199-0.233 0.199 0 0.034-0.067 0.034-0.1 0.034-0.035 0-0.201 0.067-0.402 0.133-0.368 0.168-0.836 0.268-1.337 0.368-0.301 0.066-1.17 0.066-11.031 0.066l-10.664 0.034v-6.588zm21.157 0.033v-3.176h-16.31v6.352h16.313v-3.176zm10.9 6.518c-0.568-0.066-1.171-0.2-1.672-0.368-0.201-0.066-0.368-0.132-0.401-0.132s-0.033 0-0.033-0.034c0.033 0 0 0-0.033 0.034-0.067 0.032-0.067 0.032-0.033-0.034 0-0.067 0-0.067-0.034 0-0.065 0.034-0.065 0.034-0.033-0.033 0-0.034 0-0.067-0.032-0.034-0.034 0.067-0.068 0.034-0.102-0.033 0-0.066-0.033-0.101-0.033-0.066 0 0-0.033 0-0.066-0.034-0.033-0.033-0.068-0.033-0.101-0.033 0 0.033-0.033 0 0 0 0 0-0.066-0.101-0.167-0.167-0.635-0.435-1.137-1.07-1.472-1.872-0.066-0.133-0.133-0.268-0.166-0.268v-0.066c0.033-0.033 0-0.067 0-0.033-0.034 0.033-0.067 0-0.034 0 0-0.034-0.033-0.2-0.067-0.368-0.267-1.036-0.366-2.474-0.3-4.379 0.033-0.602 0.066-1.137 0.1-1.304 0.134-0.668 0.335-1.237 0.569-1.671 0.1-0.167 0.166-0.268 0.166-0.268-0.033-0.033 0-0.033 0.034-0.066l0.033-0.034c0-0.034 0.033-0.101 0.334-0.401 0.234-0.234 0.535-0.468 0.803-0.635 0.066-0.067 0.134-0.101 0.167-0.134 0.032-0.033 0.067-0.033 0.067-0.033h0.066c0-0.034 0-0.034 0.033-0.034h0.033v-0.033c0.033 0 0.067 0 0.067-0.033 0-0.034 0.034-0.034 0.066-0.034 0.033 0 0.502-0.167 0.469-0.2h0.066c0.033 0.033 0.066 0 0.033 0-0.033-0.034 0-0.067 0-0.034 0.033 0 0.167 0 0.334-0.066 0.335-0.067 0.502-0.101 0.971-0.168 0.334-0.067 1.336-0.067 10.964-0.067l10.598-0.033v3.476h-21.228v1.371h21.228v3.443h-21.093v1.404h21.093v3.51l-10.55-0.036h-10.66zm-65.586-0.066c-1.471-0.335-3.711-1.538-7.221-3.878-1.037-0.702-1.672-1.17-3.711-2.607-2.173-1.504-3.109-2.14-4.045-2.775l-0.835-0.568v1.203l-0.034 1.204h-4.647v-1.706c0-1.437 0-1.738 0.033-1.905 0.101-0.334 0.268-0.602 0.635-0.903 0.635-0.535 1.973-1.137 2.942-1.304 0.501-0.1 1.07-0.134 1.404-0.1 1.204 0.234 3.544 1.438 6.786 3.61 0.669 0.435 4.045 2.775 8.224 5.716 0.468 0.334 0.869 0.602 0.869 0.602 0-0.033 0.034-3.777 0.034-8.39v-8.324h4.78l-0.034 8.758c0 8.457 0 8.792-0.066 8.993-0.101 0.334-0.268 0.567-0.602 0.901-0.402 0.401-0.736 0.636-1.371 0.937-0.803 0.401-1.471 0.535-2.374 0.568-0.433 0.001-0.634 0.001-0.767-0.032zm88.686-6.586v-6.518l10.864 0.033c12.068 0 11.064 0 12.001 0.235 0.234 0.033 0.435 0.066 0.468 0.066 0-0.033 0.034 0 0 0.034-0.033 0 0 0.033 0.034 0h0.066c-0.033 0.033 0.535 0.267 0.636 0.267 0.1 0 0.134 0 0.1 0.033 0 0.067 0 0.067 0.034 0 0.066-0.033 0.066-0.033 0.032 0.034 0 0.066 0 0.066 0.034 0 0.067-0.034 0.067-0.034 0.034 0.033 0 0.066 0 0.066 0.033 0 0.033-0.033 0.066-0.033 0.066 0.033 0 0.033 0.101 0.101 0.167 0.167 0.101 0.034 0.2 0.101 0.2 0.101 0.034 0.034 0.067 0.034 0.101 0.034 0-0.034 0.033 0 0 0 0 0.033 0.201 0.167 0.201 0.167 0.033-0.033 0.033 0 0.066 0.034 0 0.034 0.033 0.034 0.066 0.034 0 0 0.034 0 0.034 0.034 0.033 0.066 0.066 0.066 0.1 0.066s0.067 0 0.067 0.034c0 0 0.101 0.134 0.233 0.234 0.135 0.133 0.301 0.301 0.401 0.401s0.201 0.234 0.234 0.267c0.033 0.034 0.066 0.067 0.066 0.1l0.033 0.034c0.033 0.034 0.068 0.034 0.033 0.067 0 0 0.035 0.067 0.102 0.167 0.133 0.201 0.3 0.669 0.3 0.736 0 0.033 0.033 0.066 0.067 0.066s0.034 0.101 0.034 0.703c0 0.435 0 0.735-0.034 0.735 0 0-0.034-0.034-0.034-0.067s0-0.033-0.033 0.033v0.134 0.034c-0.033-0.034-0.3 0.501-0.3 0.567v0.034c-0.033-0.034-0.168 0.167-0.135 0.2 0 0-0.033 0.034-0.066 0.067-0.033 0-0.033 0.033-0.033 0.067s0 0.034-0.033 0.067c-0.033 0-0.135 0.1-0.268 0.234-0.167 0.2-0.335 0.368-0.735 0.735-0.101 0.067-0.167 0.133-0.167 0.133-0.033 0-0.435 0.268-0.435 0.301-0.034-0.033-0.268 0.133-0.268 0.168 0 0.066-0.135 0.133-0.234 0.1-0.033 0-0.201 0.066-0.368 0.134-0.334 0.134-0.702 0.234-1.137 0.301-0.267 0.066-1.136 0.066-9.025 0.066l-8.726 0.033v4.781h-4.879v-6.553zm22.06-2.273v-0.769h-17.184v1.571h17.184v-0.802zm-100.12 8.725c-0.201 0-0.535-0.066-0.769-0.101-0.201-0.067-0.435-0.101-0.501-0.101-0.034 0-0.067 0-0.067-0.033 0.034 0 0-0.033-0.033 0h-0.067c0-0.033-0.034-0.065-0.1-0.065-0.067-0.034-0.268-0.135-0.435-0.201-0.134-0.067-0.301-0.135-0.301-0.135 0 0.035-0.033 0.035 0 0 0-0.033-0.033-0.066-0.101-0.1-0.066-0.033-0.133-0.1-0.167-0.1 0-0.034-0.033-0.034-0.066-0.034-0.034 0-0.067 0-0.1-0.067-0.067-0.066-0.067-0.066 0 0 0.033 0-0.101-0.133-0.268-0.3-0.2-0.201-0.368-0.369-0.368-0.402-0.234-0.367-0.334-0.534-0.401-0.534-0.033-0.033-0.033-0.033 0-0.066s0-0.033-0.033-0.033c-0.067 0.033-0.067 0.033-0.034-0.034 0.067-0.034 0.067-0.034 0-0.034-0.067 0.034-0.067 0.034 0-0.033v-0.033c-0.033 0-0.033 0-0.033-0.033 0-0.101-0.067-0.268-0.134-0.268v-0.033c0-0.035-0.033-0.168-0.067-0.336-0.134-0.367-0.234-0.869-0.301-1.337-0.033-0.501-0.033-3.042 0-3.543 0.067-0.501 0.167-1.07 0.268-1.438 0.033-0.167 0.067-0.334 0.067-0.368-0.034 0 0-0.034 0 0 0.033 0.033 0.167-0.334 0.2-0.435 0-0.067 0.034-0.1 0.067-0.133 0 0 0.033 0 0 0 0 0 0-0.033 0.033-0.067 0.034-0.033 0.034-0.067 0.034-0.101h0.034v-0.034-0.066c0.033 0 0.334-0.401 0.334-0.435s0.635-0.736 0.668-0.736c0.034 0.033 0.067-0.034 0.1-0.067 0.034-0.034 0.067-0.066 0.067-0.034 0 0 0.1-0.066 0.2-0.133 0.134-0.1 0.368-0.201 0.535-0.301 0.267-0.133 0.301-0.133 0.368-0.133 0.033 0 0.033-0.034 0.033-0.034 0-0.033 0-0.033 0.034-0.033 0.034 0.033 0.067 0 0.034 0 0-0.034 0-0.034 0.066-0.034 0.034 0.034 0.067 0 0.034 0-0.034-0.033 0-0.066 0-0.033 0.033 0 0.2-0.033 0.368-0.067 0.401-0.1 0.836-0.167 1.337-0.234 0.301 0 2.875-0.033 8.591 0 8.925 0 8.29 0 9.059 0.201 0.134 0.033 0.268 0.033 0.301 0.033 0-0.033 0.034 0 0 0.034-0.033 0 0 0.033 0.034 0h0.067c0 0.033 0.033 0.066 0.101 0.066 0.133 0.067 0.769 0.368 0.802 0.368 0 0.034 0.034 0.067 0.067 0.101 0.066 0.033 0.066 0.033 0.033 0 0-0.033 0-0.033 0.033 0 0.034 0.033 0.068 0.067 0.068 0.067 0.033 0 0.066 0.033 0.4 0.334 0.201 0.2 0.502 0.501 0.502 0.534 0 0.034 0.267 0.435 0.301 0.468 0.033 0.033 0.033 0.067 0.033 0.067 0 0.033 0 0.066 0.034 0.066v0.034s0 0.034 0.033 0.034c0 0.034 0 0.067 0.033 0.067 0.034 0 0.034 0.034 0.034 0.067 0 0.066 0.1 0.301 0.133 0.301 0-0.034 0.034 0 0 0 0 0.034 0.034 0.201 0.101 0.401 0.066 0.234 0.133 0.568 0.2 0.768 0.168 1.104 0.134 4.948-0.066 5.783-0.034 0.102-0.034 0.201-0.034 0.234 0.034 0.033 0 0.066 0 0.033-0.033-0.033-0.066 0.033-0.066 0.101 0 0 0 0.033-0.033 0.033 0 0-0.034 0 0 0 0 0 0 0.034-0.034 0.067-0.033 0.033-0.033 0.066-0.033 0.101 0.033 0 0 0.033 0 0-0.034-0.034-0.101 0.066-0.101 0.133 0.033 0.033 0 0.033 0 0.033-0.033 0-0.167 0.168-0.368 0.335-0.401 0.4-0.635 0.602-0.669 0.602 0 0-0.033 0-0.033 0.033s-0.032 0.033-0.066 0.033-0.034 0-0.034 0.067c-0.033 0.034-0.066 0.034-0.1 0.034 0 0-0.033 0-0.033 0.033s-0.034 0.033-0.067 0.033-0.033 0-0.033 0.033c-0.033 0.033-0.033 0.067-0.033 0.033 0 0-0.134 0.034-0.234 0.134-0.134 0.067-0.301 0.168-0.368 0.234-0.1 0.033-0.167 0.1-0.167 0.135-0.034 0.032-0.034 0.032-0.067 0-0.067-0.035-0.067-0.035-0.033 0 0.033 0.032 0 0.065-0.034 0.032-0.034 0-0.034 0-0.034 0.033h-0.033c-0.033 0-0.033 0-0.033 0.034h-0.034c-0.034 0-0.067 0-0.067 0.066-0.034 0.033-0.034 0.033-0.067 0-0.034-0.033-0.067-0.033-0.034 0 0 0.033 0 0.033-0.033 0.033-0.034 0-0.201 0.067-0.368 0.134-0.436 0.138-0.803 0.239-1.17 0.272-0.369 0.066-16.348 0.066-16.916 0zm16.715-6.418v-3.008h-16.213v6.05h16.213v-3.042zm-19.724 5.248c-0.066-0.066-0.066-0.101 0.033-0.033 0.034 0.033 0.067 0.066 0.067 0.066 0.001 0.033-0.032 0-0.1-0.033zm23.735-0.735c0.1-0.135 0.201-0.201 0.201-0.201 0.034 0-0.334 0.401-0.368 0.401s0.067-0.101 0.167-0.2zm82.91-4.28c0.033-0.067 0.066-0.067 0.066-0.067s0 0 0 0.067c-0.033 0.033-0.066 0.066-0.1 0.066-0.01 0.001-0.01-0.032 0.03-0.066zm0.4-0.434c0.066-0.033 0.1-0.066 0.1-0.066 0.033 0-0.066 0.134-0.134 0.134-0.01 0.032-0.01-0.001 0.03-0.068zm0.13-4.246l-0.033-0.033c0.067 0 0.101 0.033 0.067 0.067-0.01 0-0.04 0-0.04-0.034zm-0.43-0.434l-0.034-0.034c0.067 0 0.102 0.034 0.067 0.067-0.01 0-0.04 0-0.04-0.033zm-106.88 0c0-0.034 0-0.067 0.034-0.067 0.067 0 0.067 0 0.034 0.033-0.068 0.067-0.068 0.067-0.068 0.034zm54.419-0.067c0-0.067 0.033-0.101 0.066-0.067 0 0 0 0.033-0.033 0.033l-0.04 0.034zm-54.084-0.267c0-0.067 0.034-0.101 0.067-0.067 0 0 0 0.034-0.033 0.034l-0.034 0.033zm22.833-0.134l-0.034-0.034c0.066 0 0.1 0.034 0.066 0.067 0 0-0.032 0-0.032-0.033zm-77.156-2.073c-0.134-0.033-0.334-0.066-0.468-0.1s-0.234-0.034-0.268-0.034c0 0.034-0.033 0 0-0.033 0.034 0 0-0.033-0.033 0h-0.033c0-0.067-0.201-0.134-0.301-0.134-0.033 0-0.033 0-0.033-0.034 0.033-0.033 0-0.033-0.033 0-0.034 0.034-0.034 0.034-0.067 0 0-0.033-0.101-0.1-0.201-0.167-0.101-0.067-0.2-0.133-0.234-0.167-0.034 0-0.2-0.167-0.368-0.334-0.167-0.167-0.268-0.267-0.268-0.234 0.067 0.067 0.067 0.067 0 0-0.067-0.033-0.067-0.067-0.067-0.1 0-0.034 0-0.067-0.033-0.067-0.034-0.033-0.067-0.066-0.067-0.066 0-0.067-0.034-0.1-0.067-0.1 0 0.033-0.033 0 0 0 0 0-0.033-0.134-0.134-0.268-0.067-0.167-0.134-0.301-0.1-0.301 0-0.033-0.034-0.033-0.034-0.033-0.033 0-0.033 0-0.033-0.034 0.033-0.034 0-0.067 0-0.034-0.034 0-0.034 0-0.034-0.067 0.034-0.033 0-0.067 0-0.033-0.033 0-0.033-0.034-0.033-0.067 0-0.067-0.033-0.234-0.067-0.368-0.101-0.535-0.033-1.271 0.167-1.806 0.034-0.133 0.101-0.3 0.101-0.334s0-0.067 0.033-0.067 0.067-0.1 0.134-0.201c0.067-0.1 0.134-0.2 0.167-0.234 0.067-0.1 0.702-0.735 0.736-0.735 0 0 0.033-0.033 0.067-0.033v-0.034s0.1-0.034 0.2-0.1c0.268-0.167 0.635-0.301 0.969-0.401 0.401-0.066 1.07-0.1 1.472 0 0.133 0.034 0.267 0.067 0.333 0.067 0.034 0 0.067 0 0.067 0.033-0.033 0 0 0.034 0.033 0h0.033c-0.033 0.034 0.201 0.134 0.334 0.134 0.067 0 0.101 0 0.101 0.034 0.033 0.066 0.267 0.234 0.334 0.234 0 0 0.033 0.034 0.066 0.067 0 0.034 0.034 0.034 0.067 0.034s0.067 0 0.1 0.066c0.067 0.067 0.067 0.067 0 0-0.033 0 0.067 0.101 0.234 0.268 0.167 0.134 0.3 0.301 0.3 0.301s0.034 0.101 0.101 0.201c0.602 0.869 0.736 1.972 0.401 2.942-0.034 0.167-0.1 0.334-0.1 0.368 0 0.033 0 0.033-0.034 0.033 0-0.033 0 0 0.034 0.034 0.033 0.067 0.033 0.067-0.034 0.033-0.034 0-0.067 0-0.034 0.034 0.034 0.033 0.034 0.033 0 0.066-0.066 0-0.234 0.268-0.234 0.335-0.033 0.033-0.668 0.735-0.702 0.735-0.033 0-0.066 0-0.066 0.034-0.034 0.066-0.067 0.066-0.067 0.066-0.033 0-0.133 0.067-0.267 0.133-0.565 0.368-1.401 0.536-2.07 0.468zm2.608-0.802c0-0.033 0.033-0.033 0.033-0.033 0.033 0.033 0 0.1-0.067 0.1 0 0 0-0.034 0.034-0.067zm-4.781-4.981c0.033-0.066 0.067-0.101 0.134-0.134h0.1l-0.134 0.101c-0.033 0.067-0.1 0.133-0.1 0.133s0-0.066 0-0.1zm-1.905-13.505v-9.126h17.182v18.286h-17.182v-9.16zm19.422 0v-9.126h17.183v18.286h-17.183v-9.16zm19.456 0v-9.126h17.183v18.286h-17.183v-9.16z" fill="#ff0"/>
	<path d="m10.501 87.626c0-5.449 0-8.29 0.034-8.424 0.033-0.301 0.2-0.568 0.501-0.869 0.869-0.87 2.674-1.538 4.045-1.538 0.3 0 0.435 0 0.769 0.067 1.204 0.334 3.143 1.337 5.984 3.176 0.869 0.568 1.471 1.003 6.586 4.612 1.638 1.138 2.975 2.073 2.975 2.073s0.033-0.635 0.033-1.404v-1.403h4.814l-0.033 1.805v1.839l-0.101 0.234c-0.1 0.334-0.301 0.635-0.635 0.936-0.803 0.803-2.105 1.337-3.443 1.471-0.535 0.034-0.869 0-1.337-0.134-1.872-0.534-4.58-2.173-9.762-5.783-3.309-2.306-5.649-3.911-5.716-3.911v7.755 7.756h-4.714v-8.258zm-7.154-4.011v-6.585l2.574 0.033h2.607v6.586l0.034 6.585h-5.215v-6.619zm82.136 0v-6.585l10.664 0.033c8.29 0 10.73 0 10.932 0.034 1.403 0.234 2.307 0.636 3.042 1.371 0.634 0.635 1.069 1.538 1.27 2.575 0.134 0.635 0.201 2.506 0.134 3.978-0.067 1.27-0.367 2.24-0.936 3.108-0.201 0.335-0.836 0.97-1.17 1.17-0.735 0.501-1.639 0.803-2.676 0.869-0.267 0.033-3.811 0.033-10.83 0.033l-10.43 0.034v-6.62zm21.157 0.067v-3.176h-16.31v6.352h16.313v-3.176zm10.9 6.518c-1.839-0.167-3.143-0.902-3.945-2.206-0.434-0.77-0.668-1.638-0.802-2.941-0.033-0.568-0.033-3.209 0-3.677 0.267-2.34 1.538-3.711 3.844-4.179 0.77-0.134 0.234-0.134 11.5-0.134l10.598-0.033v3.476h-21.228v1.371h21.228v3.443h-21.093v1.404h21.093v3.51l-10.54-0.034h-10.66zm-65.586-0.066c-1.471-0.335-3.711-1.538-7.221-3.878-1.037-0.702-1.672-1.17-3.711-2.607-2.173-1.504-3.109-2.14-4.045-2.775l-0.835-0.568v1.203l-0.034 1.204h-4.647v-1.706c0-1.437 0-1.738 0.033-1.905 0.101-0.334 0.268-0.602 0.635-0.903 0.635-0.535 1.973-1.137 2.942-1.304 0.501-0.1 1.07-0.134 1.404-0.1 1.204 0.234 3.544 1.438 6.786 3.61 0.669 0.435 4.045 2.775 8.224 5.716 0.468 0.334 0.869 0.602 0.869 0.602 0-0.033 0.034-3.777 0.034-8.39v-8.324h4.78l-0.034 8.758c0 8.457 0 8.792-0.066 8.993-0.101 0.334-0.268 0.567-0.602 0.901-0.402 0.401-0.736 0.636-1.371 0.937-0.803 0.401-1.471 0.535-2.374 0.568-0.433 0.001-0.634 0.001-0.767-0.032zm88.686-6.586v-6.518l10.864 0.033c10.229 0 10.932 0 11.266 0.067 1.104 0.168 2.039 0.535 2.842 1.07 1.337 0.903 2.006 1.973 1.939 3.143-0.034 0.435-0.068 0.635-0.269 1.07-0.234 0.435-0.501 0.769-0.901 1.17-1.07 1.069-2.174 1.572-3.611 1.671-0.301 0.033-3.61 0.033-8.858 0.033l-8.392 0.033v4.781h-4.879v-6.553zm22.06-2.273v-0.769h-17.184v1.571h17.184v-0.802zm-100.08 8.725c-1.271-0.101-2.273-0.501-3.009-1.236-0.769-0.735-1.203-1.806-1.37-3.177 0-0.234-0.033-0.868-0.033-1.804 0-1.538 0.033-1.873 0.2-2.741 0.501-2.407 1.972-3.644 4.68-3.878 0.501-0.067 16.28-0.067 16.714 0 2.106 0.2 3.443 1.237 4.045 3.109 0.133 0.401 0.233 0.869 0.267 1.304 0.066 0.501 0.101 2.574 0.066 3.644-0.066 1.771-0.167 2.072-0.769 2.707-0.835 0.903-2.34 1.739-3.543 2.04-0.268 0.066-0.736 0.066-8.591 0.066-4.579-0.001-8.491-0.001-8.657-0.034zm16.681-6.418v-3.008h-16.213v6.05h16.213v-3.042zm-73.846-7.455c-0.401-0.033-0.735-0.134-1.103-0.301-0.902-0.435-1.538-1.203-1.838-2.24-0.067-0.234-0.067-0.334-0.067-0.835 0-0.635 0.033-0.836 0.234-1.337 0.234-0.501 0.735-1.137 1.204-1.438 1.371-0.937 3.176-0.77 4.312 0.401 1.37 1.337 1.337 3.477 0 4.814-0.702 0.702-1.772 1.07-2.742 0.936zm-4.078-19.255v-9.126h17.182v18.286h-17.182v-9.16zm19.422 0v-9.126h17.183v18.286h-17.183v-9.16zm19.456 0v-9.126h17.183v18.286h-17.183v-9.16z" fill="#57B6E6"/>
	<path d="m10.535 87.459v-8.39l0.1-0.201c0.034-0.1 0.134-0.267 0.234-0.334 0.134-0.2 0.502-0.501 0.735-0.635 1.003-0.635 2.006-0.97 3.009-1.104 0.936-0.1 1.638 0.1 3.208 0.902 0.836 0.402 0.836 0.435 1.538 0.836 1.973 1.137 2.909 1.806 11.032 7.488l1.003 0.702v-1.404l0.033-1.403h4.781l-0.034 1.872v1.871l-0.067 0.201c-0.301 0.735-1.17 1.438-2.34 1.905-0.869 0.368-2.006 0.502-2.741 0.368-1.037-0.2-2.775-1.036-4.948-2.406-1.571-0.971-2.975-1.907-6.719-4.581-2.273-1.571-4.112-2.807-4.179-2.807v7.755 7.789h-4.68l0.035-8.424zm-7.188-3.844v-6.585l2.574 0.033h2.607v6.586l0.034 6.585h-5.215v-6.619zm82.136 0v-6.585l10.664 0.033c8.29 0 10.73 0 10.932 0.034 1.403 0.234 2.307 0.636 3.042 1.371 0.634 0.635 1.069 1.538 1.27 2.575 0.134 0.635 0.201 2.506 0.134 3.978-0.067 1.27-0.367 2.24-0.936 3.108-0.201 0.335-0.836 0.97-1.17 1.17-0.735 0.501-1.639 0.803-2.676 0.869-0.267 0.033-3.811 0.033-10.83 0.033l-10.43 0.034v-6.62zm21.157 0.067v-3.176h-16.31v6.352h16.313v-3.176zm10.9 6.518c-1.839-0.167-3.143-0.902-3.945-2.206-0.434-0.77-0.668-1.638-0.802-2.941-0.033-0.568-0.033-3.209 0-3.677 0.267-2.34 1.538-3.711 3.844-4.179 0.77-0.134 0.234-0.134 11.5-0.134l10.598-0.033v3.476h-21.228v1.371h21.228v3.443h-21.093v1.404h21.093v3.51l-10.54-0.034h-10.66zm23.1-6.652v-6.518l10.864 0.033c10.229 0 10.932 0 11.266 0.067 1.104 0.168 2.039 0.535 2.842 1.07 1.337 0.903 2.006 1.973 1.939 3.143-0.034 0.435-0.068 0.635-0.269 1.07-0.234 0.435-0.501 0.769-0.901 1.17-1.07 1.069-2.174 1.572-3.611 1.671-0.301 0.033-3.61 0.033-8.858 0.033l-8.392 0.033v4.781h-4.879v-6.553zm22.06-2.273v-0.769h-17.184v1.571h17.184v-0.802zm-100.08 8.725c-1.271-0.101-2.273-0.501-3.009-1.236-0.769-0.735-1.203-1.806-1.37-3.177 0-0.234-0.033-0.868-0.033-1.804 0-1.538 0.033-1.873 0.2-2.741 0.501-2.407 1.972-3.644 4.68-3.878 0.501-0.067 16.28-0.067 16.714 0 2.106 0.2 3.443 1.237 4.045 3.109 0.133 0.401 0.233 0.869 0.267 1.304 0.066 0.501 0.101 2.574 0.066 3.644-0.066 1.771-0.167 2.072-0.769 2.707-0.835 0.903-2.34 1.739-3.543 2.04-0.268 0.066-0.736 0.066-8.591 0.066-4.579-0.001-8.491-0.001-8.657-0.034zm16.681-6.418v-3.008h-16.213v6.05h16.213v-3.042zm-73.846-7.455c-0.401-0.033-0.735-0.134-1.103-0.301-0.902-0.435-1.538-1.203-1.838-2.24-0.067-0.234-0.067-0.334-0.067-0.835 0-0.635 0.033-0.836 0.234-1.337 0.234-0.501 0.735-1.137 1.204-1.438 1.371-0.937 3.176-0.77 4.312 0.401 1.37 1.337 1.337 3.477 0 4.814-0.702 0.702-1.772 1.07-2.742 0.936zm-4.078-19.255v-9.126h17.182v18.286h-17.182v-9.16zm19.456 0v-9.126h17.15v18.286h-17.15v-9.16z" fill="#839BBA"/>
	<path d="m10.535 87.459v-8.39l0.1-0.234c0.301-0.568 1.104-1.137 2.274-1.604 0.735-0.301 1.404-0.435 2.139-0.435 0.435 0 0.535 0 0.836 0.1 1.304 0.368 3.31 1.438 6.251 3.376 0.568 0.368 3.644 2.507 8.257 5.75l1.003 0.702v-1.404l0.033-1.403h4.781l-0.034 1.872v1.871l-0.067 0.201c-0.301 0.735-1.17 1.438-2.34 1.905-0.869 0.368-2.006 0.502-2.741 0.368-1.204-0.234-3.31-1.304-6.151-3.176-1.271-0.836-2.441-1.639-5.516-3.812-2.273-1.571-4.112-2.807-4.179-2.807v7.755 7.789h-4.68l0.034-8.424zm-7.188-3.81v-6.553h5.181v13.138h-5.181v-6.585zm82.136 0v-6.553h10.597c7.221 0 10.698 0 10.897 0.033 2.441 0.234 3.944 1.572 4.413 3.812 0.102 0.534 0.134 1.002 0.134 2.641 0 1.671-0.032 2.073-0.167 2.674-0.368 1.604-1.203 2.741-2.541 3.377-0.501 0.233-1.036 0.4-1.839 0.534-0.19 0.033-2.6 0.033-10.89 0.033l-10.597 0.034v-6.585zm21.197 0.033v-3.176h-16.35v6.352h16.346v-3.176zm10.83 6.485c-0.201 0-0.535-0.066-0.77-0.101-1.003-0.2-1.771-0.567-2.406-1.17-0.937-0.902-1.37-2.038-1.505-3.911-0.066-0.601-0.066-3.008 0-3.51 0.101-1.27 0.534-2.273 1.271-3.008 0.602-0.602 1.337-0.969 2.34-1.203 0.869-0.201 0.301-0.167 11.767-0.167h10.531v3.41h-21.228v1.371h21.228v3.41l-10.564 0.033h-10.563v0.702l-0.033 0.702h21.161v3.51l-10.47-0.035c-5.85 0-10.59 0-10.76-0.033zm23.13-6.585v-6.519l10.998 0.034h11.032l0.334 0.067c1.203 0.268 2.039 0.602 2.875 1.237 0.4 0.301 0.936 0.87 1.169 1.204 0.368 0.535 0.503 1.003 0.503 1.638 0 0.602-0.201 1.137-0.636 1.738-0.803 1.103-2.04 1.905-3.41 2.207l-0.334 0.066h-8.825l-8.826 0.033v2.407l-0.033 2.407h-4.846v-6.519zm22.06-2.307v-0.769h-17.184v1.571h17.184v-0.802zm-100.48 8.692c-2.14-0.301-3.443-1.572-3.878-3.811-0.067-0.401-0.1-0.903-0.133-1.94-0.034-1.838 0.1-3.142 0.467-4.111 0.669-1.805 2.173-2.775 4.479-2.942 0.636-0.067 16.013-0.067 16.582 0 1.304 0.101 2.273 0.535 3.042 1.27 0.167 0.201 0.368 0.435 0.468 0.569 0.468 0.735 0.802 1.705 0.869 2.708 0.066 0.635 0.101 2.039 0.066 3.209-0.066 1.537-0.1 2.005-0.333 2.406-0.435 0.903-2.307 2.207-3.778 2.574l-0.334 0.101h-8.591c-6.987 0-8.658 0-8.926-0.033zm17.083-6.385v-3.042h-16.213v3.042l-0.034 3.042h16.28l-0.033-3.042zm-74.113-7.488c-2.507-0.502-3.577-3.377-2.072-5.382 0.435-0.569 1.036-0.97 1.772-1.204 0.267-0.101 0.334-0.101 0.902-0.101 0.736 0 0.97 0.067 1.538 0.334 0.769 0.368 1.337 0.97 1.638 1.772 0.167 0.401 0.234 0.769 0.234 1.237s-0.033 0.736-0.201 1.17c-0.334 1.003-1.236 1.839-2.306 2.14-0.335 0.067-1.204 0.1-1.505 0.034zm-3.811-19.222v-9.126h17.182v18.286h-17.182v-9.16zm19.456 0v-9.126h17.15v18.286h-17.15v-9.16z" fill="#446999"/>
	<path d="m10.535 87.459v-8.39l0.1-0.234c0.301-0.568 1.104-1.137 2.274-1.604 0.735-0.301 1.404-0.435 2.139-0.435 0.435 0 0.535 0 0.836 0.1 1.304 0.368 3.31 1.438 6.251 3.376 0.568 0.368 3.644 2.507 8.257 5.75l1.003 0.702v-1.404l0.033-1.403h4.781l-0.034 1.872v1.871l-0.067 0.201c-0.301 0.735-1.17 1.438-2.34 1.905-0.869 0.368-2.006 0.502-2.741 0.368-1.204-0.234-3.31-1.304-6.151-3.176-1.271-0.836-2.441-1.639-5.516-3.812-2.273-1.571-4.112-2.807-4.179-2.807v7.755 7.789h-4.68l0.034-8.424zm-7.188-3.81v-6.553h5.181v13.138h-5.181v-6.585zm82.136 0v-6.553h10.53c11.399 0 10.931-0.034 11.733 0.167 2.206 0.468 3.544 2.072 3.71 4.479 0.067 0.535 0.067 3.109 0 3.644-0.1 1.537-0.702 2.842-1.671 3.61-0.868 0.735-1.905 1.104-3.343 1.17-0.301 0.033-4.513 0.033-10.73 0.033l-10.229 0.034v-6.584zm21.197 0v-3.176h-16.35v6.385h16.346v-3.209zm11 6.518c-2.04-0.101-3.443-0.969-4.212-2.508-0.301-0.567-0.501-1.303-0.603-2.238-0.066-0.603-0.1-2.942-0.066-3.711 0.1-1.404 0.534-2.507 1.337-3.276 0.568-0.534 1.37-0.969 2.341-1.169 0.802-0.167-0.034-0.167 11.565-0.167l10.698-0.034v3.376l-10.631 0.034h-10.631v0.702l-0.033 0.702h21.295v3.443h-21.127v1.437h21.127v3.477l-10.33-0.034c-5.69-0.001-10.5-0.001-10.73-0.034zm22.96-6.585v-6.485h10.764 11.065c1.104 0.134 2.039 0.435 2.875 0.97 1.973 1.204 2.675 2.875 1.872 4.413-0.602 1.17-1.973 2.24-3.41 2.607-0.702 0.2-0.301 0.2-9.693 0.2h-8.593v4.814h-4.879v-6.519zm22.06-2.307v-0.802h-17.184v1.638h17.184v-0.836zm-100.28 8.692c-2.24-0.234-3.61-1.504-4.045-3.711-0.101-0.568-0.167-1.17-0.167-2.507 0-1.303 0.066-1.838 0.2-2.641 0.468-2.34 1.805-3.543 4.346-3.912 0.368-0.067 1.069-0.067 8.323-0.067 5.516-0.033 8.057 0 8.425 0 1.438 0.101 2.507 0.535 3.276 1.337 0.769 0.803 1.237 1.972 1.37 3.41 0.033 0.602 0 3.878-0.033 4.412-0.034 0.167-0.067 0.435-0.1 0.569-0.133 0.668-0.669 1.27-1.772 2.005-0.802 0.536-1.471 0.869-2.206 1.036l-0.334 0.102h-8.525c-4.679 0-8.625 0-8.758-0.033zm16.915-6.385v-3.042h-16.246v6.084h16.246v-3.042zm-74.046-7.488c-1.838-0.301-3.075-2.006-2.808-3.812 0.1-0.702 0.401-1.304 0.869-1.838 0.735-0.735 1.604-1.103 2.641-1.037 0.869 0.034 1.604 0.368 2.207 0.97 0.568 0.568 0.902 1.271 0.969 2.073 0.1 0.869-0.167 1.738-0.702 2.441-0.334 0.4-0.702 0.701-1.237 0.935-0.434 0.201-0.769 0.301-1.303 0.301-0.268 0-0.535 0-0.636-0.033zm-3.911-19.222v-9.126h17.149v18.286h-17.149v-9.16zm19.456 0v-9.126h17.15v18.286h-17.15v-9.16z" fill="#0070B8"/>
	<path d="m3.347 83.649v-6.553h5.181v13.138h-5.181v-6.585zm82.136 0v-6.553h10.53c11.399 0 10.931-0.034 11.733 0.167 2.206 0.468 3.544 2.072 3.71 4.479 0.067 0.535 0.067 3.109 0 3.644-0.1 1.537-0.702 2.842-1.671 3.61-0.868 0.735-1.905 1.104-3.343 1.17-0.301 0.033-4.513 0.033-10.73 0.033l-10.229 0.034v-6.584zm21.197 0v-3.176h-16.35v6.385h16.346v-3.209zm11 6.518c-2.04-0.101-3.443-0.969-4.212-2.508-0.301-0.567-0.501-1.303-0.603-2.238-0.066-0.603-0.1-2.942-0.066-3.711 0.1-1.404 0.534-2.507 1.337-3.276 0.568-0.534 1.37-0.969 2.341-1.169 0.802-0.167-0.034-0.167 11.565-0.167l10.698-0.034v3.376l-10.631 0.034h-10.631v0.702l-0.033 0.702h21.295v3.443h-21.127v1.437h21.127v3.477l-10.33-0.034c-5.69-0.001-10.5-0.001-10.73-0.034zm22.96-6.585v-6.485h10.764 11.065c1.104 0.134 2.039 0.435 2.875 0.97 1.973 1.204 2.675 2.875 1.872 4.413-0.602 1.17-1.973 2.24-3.41 2.607-0.702 0.2-0.301 0.2-9.693 0.2h-8.593v4.814h-4.879v-6.519zm22.06-2.307v-0.802h-17.184v1.638h17.184v-0.836zm-100.28 8.692c-2.24-0.234-3.61-1.504-4.045-3.711-0.101-0.568-0.167-1.17-0.167-2.507 0-1.303 0.066-1.838 0.2-2.641 0.468-2.34 1.805-3.543 4.346-3.912 0.368-0.067 1.069-0.067 8.323-0.067 5.516-0.033 8.057 0 8.425 0 1.438 0.101 2.507 0.535 3.276 1.337 0.769 0.803 1.237 1.972 1.37 3.41 0.033 0.602 0 3.878-0.033 4.412-0.034 0.167-0.067 0.435-0.1 0.569-0.133 0.668-0.669 1.27-1.772 2.005-0.802 0.536-1.471 0.869-2.206 1.036l-0.334 0.102h-8.525c-4.679 0-8.625 0-8.758-0.033zm16.915-6.385v-3.042h-16.246v6.084h16.246v-3.042zm-74.046-7.488c-1.838-0.301-3.075-2.006-2.808-3.812 0.1-0.702 0.401-1.304 0.869-1.838 0.735-0.735 1.604-1.103 2.641-1.037 0.869 0.034 1.604 0.368 2.207 0.97 0.568 0.568 0.902 1.271 0.969 2.073 0.1 0.869-0.167 1.738-0.702 2.441-0.334 0.4-0.702 0.701-1.237 0.935-0.434 0.201-0.769 0.301-1.303 0.301-0.268 0-0.535 0-0.636-0.033zm-3.911-19.222v-9.126h17.149v18.286h-17.149v-9.16z" fill="#073775"/>
</svg>
