<?xml version="1.0" encoding="utf-8"?>
<!-- Generator: Adobe Illustrator 16.0.0, SVG Export Plug-In . SVG Version: 6.00 Build 0)  -->
<!DOCTYPE svg PUBLIC "-//W3C//DTD SVG 1.1//EN" "http://www.w3.org/Graphics/SVG/1.1/DTD/svg11.dtd">
<svg version="1.1" id="Layer_1" xmlns="http://www.w3.org/2000/svg" xmlns:xlink="http://www.w3.org/1999/xlink" x="0px" y="0px"
	 width="168px" height="168px" viewBox="0 0 168 168" enable-background="new 0 0 168 168" xml:space="preserve">
<g>
	<g>
		<text transform="matrix(1 0 0 1 97.7656 101.3682)" fill="#BE1E2D" font-family="'MyriadPro-Bold'" font-size="47.5151">i</text>
		<text transform="matrix(1 0 0 1 109.9287 101.3682)" fill="#BE1E2D" font-family="'MyriadPro-Bold'" font-size="47.5151">o</text>
		<text transform="matrix(1 0 0 1 136.3945 101.3682)" fill="#BE1E2D" font-family="'MyriadPro-Bold'" font-size="47.5151">n</text>
		<g>
			<path fill="#8CC63E" d="M26.116,91.609v-8.441c0-2.188-1.778-3.961-3.964-3.961h-0.564c-2.186,0-3.962,1.774-3.962,3.961v8.441
				c0,2.187,1.776,3.959,3.962,3.959h0.564C24.338,95.568,26.116,93.796,26.116,91.609"/>
			<path fill="#FCB040" d="M38.56,96.722v-18.67c0-2.186-1.776-3.958-3.962-3.958H34.03c-2.185,0-3.957,1.772-3.957,3.958v18.67
				c0,2.192,1.772,3.965,3.957,3.965h0.568C36.783,100.687,38.56,98.914,38.56,96.722"/>
			<path fill="#00AEEF" d="M67.404,83.169v8.44c0,2.187,1.772,3.959,3.957,3.959h0.567c2.187,0,3.96-1.772,3.96-3.959v-8.44
				c0-2.188-1.773-3.961-3.96-3.961h-0.567C69.176,79.208,67.404,80.981,67.404,83.169"/>
			<path fill="#AA67AB" d="M54.959,78.051v18.672c0,2.19,1.776,3.963,3.958,3.963h0.566c2.189,0,3.962-1.772,3.962-3.963V78.051
				c0-2.185-1.772-3.958-3.962-3.958h-0.566C56.735,74.093,54.959,75.866,54.959,78.051"/>
			<path fill="#BE1E2D" d="M42.516,73.792v27.191c0,2.187,1.774,3.959,3.958,3.959h0.566c2.186,0,3.962-1.772,3.962-3.959V73.792
				c0-2.186-1.776-3.958-3.962-3.958h-0.566C44.291,69.833,42.516,71.606,42.516,73.792"/>
			<path fill="#6D6E71" d="M47.052,52.346c19.373,0,35.078,15.703,35.078,35.075c0,19.374-15.705,35.078-35.078,35.078
				s-35.076-15.704-35.076-35.078C11.977,68.049,27.679,52.346,47.052,52.346 M47.052,43.746c-24.08,0-43.675,19.59-43.675,43.675
				c0,24.081,19.595,43.679,43.675,43.679c24.082,0,43.677-19.598,43.677-43.679C90.729,63.336,71.134,43.746,47.052,43.746"/>
		</g>
	</g>
</g>
</svg>
