<?xml version="1.0" encoding="utf-8"?>
<!-- Generator: Adobe Illustrator 16.0.0, SVG Export Plug-In . SVG Version: 6.00 Build 0)  -->
<!DOCTYPE svg PUBLIC "-//W3C//DTD SVG 1.1//EN" "http://www.w3.org/Graphics/SVG/1.1/DTD/svg11.dtd">
<svg version="1.1" id="Layer_1" xmlns="http://www.w3.org/2000/svg" xmlns:xlink="http://www.w3.org/1999/xlink" x="0px" y="0px"
	 width="888px" height="888px" viewBox="0 0 888 888" enable-background="new 0 0 888 888" xml:space="preserve">
<g>
	<path fill="#6D6E70" d="M35.625,450.691L35.625,450.691c-10.973,0-19.744-2.757-20.097-2.858l-0.825-0.247l-0.519-0.455
		c-20.595-17.136,1.976-44.723,2.953-45.883l12.247-14.715c0,0-12.247,27.216,26.722,61.718
		C56.105,448.251,50.306,451.067,35.625,450.691"/>
	<g>
		<g>
			
				<linearGradient id="SVGID_2_" gradientUnits="userSpaceOnUse" x1="247.6865" y1="146.6836" x2="326.0825" y2="146.6836" gradientTransform="matrix(1 0 0 -1 -213.5 552)">
				<stop  offset="0" style="stop-color:#BE1E2D"/>
				<stop  offset="0.0111" style="stop-color:#BF212D"/>
				<stop  offset="0.2117" style="stop-color:#D75126"/>
				<stop  offset="0.3882" style="stop-color:#E87522"/>
				<stop  offset="0.5322" style="stop-color:#F28A1F"/>
				<stop  offset="0.6258" style="stop-color:#F6921E"/>
				<stop  offset="1" style="stop-color:#F6921E"/>
			</linearGradient>
			<path id="SVGID_1_" fill="url(#SVGID_2_)" d="M53.869,378.428c-10.115,1.647-16.222,4.994-19.159,10.53l-0.139,0.382
				c0,0-4.302,23.093,15.87,44.087c-6.433-28.841,3.773-33.219,3.773-33.219c6.565-4.362,31.048-0.288,48.187,0.424
				c0,0,13.707-9.073,9.313-21.261l-9.71-1.005c-0.478-0.054-17.369-1.16-29.585-1.16C65.092,377.211,58.839,377.62,53.869,378.428"
				/>
		</g>
		<g>
			<defs>
				<path id="SVGID_3_" d="M53.869,378.428c-10.115,1.647-16.222,4.994-19.159,10.53l-0.139,0.382c0,0-4.302,23.093,15.87,44.087
					c-6.433-28.841,3.773-33.219,3.773-33.219c6.565-4.362,31.048-0.288,48.187,0.424c0,0,13.707-9.073,9.313-21.261l-9.71-1.005
					c-0.478-0.054-17.369-1.16-29.585-1.16C65.092,377.211,58.839,377.62,53.869,378.428"/>
			</defs>
			<clipPath id="SVGID_4_">
				<use xlink:href="#SVGID_3_"  overflow="visible"/>
			</clipPath>
			
				<linearGradient id="SVGID_5_" gradientUnits="userSpaceOnUse" x1="118.1792" y1="301.3408" x2="121.8701" y2="301.3408" gradientTransform="matrix(13.2865 0 0 13.2865 -1535.9785 -3598.4541)">
				<stop  offset="0" style="stop-color:#BE1E2D"/>
				<stop  offset="0.0111" style="stop-color:#BF212D"/>
				<stop  offset="0.2117" style="stop-color:#D75126"/>
				<stop  offset="0.3882" style="stop-color:#E87522"/>
				<stop  offset="0.5322" style="stop-color:#F28A1F"/>
				<stop  offset="0.6258" style="stop-color:#F6921E"/>
				<stop  offset="1" style="stop-color:#F6921E"/>
			</linearGradient>
			<rect x="30.269" y="377.211" clip-path="url(#SVGID_4_)" fill="url(#SVGID_5_)" width="85.838" height="56.22"/>
		</g>
	</g>
	<path fill="#6D6E70" d="M160.712,405.914c0,0-4.967-10.659,22.081-12.94c0,0,24.744-1.147,24.744,12.94H160.712z M242.571,414.674
		l-0.378-14.089c0,0-3.811-20.571-51.033-22.087c0,0-65.12-5.715-67.017,27.416v19.81c0,0,3.803,24.765,58.646,24.367
		c0,0,34.258,1.909,52.93-13.312c0,0,7.615-4.957-2.289-7.632c0,0-20.562-8.377-26.28-1.52c0,0-4.177,7.994-23.983,7.249
		c0,0-22.465,0.363-23.614-10.287l-0.081-3.062l73.963-0.369C233.435,421.157,242.963,420.398,242.571,414.674"/>
	<path fill="#6D6E70" d="M372.427,397.533c0,0,5.71-0.386-1.898-7.612c0,0-11.801-8.755-38.46-11.419h-25.141
		c0,0-40.36,0.376-46.447,24.371l-0.386,22.462c0,0,0.754,21.32,46.455,24.381h24.356c0,0,25.905,0.766,43.046-14.485
		c0,0,2.292-3.417-5.345-6.084c-7.605-2.676-13.698-4.188-13.698-4.188s-6.095-1.137-9.128,0.757
		c-3.049,1.903-8.391,9.515-19.813,8.769l-14.096-0.394c0,0-8.001,1.521-15.608-7.623l-0.385-25.504c0,0,4.963-6.476,23.613-8.379
		c0,0,11.801-1.147,25.527,8.379c0,0,3.58,3.807,11.027,1.904"/>
	<path fill="#6D6E70" d="M392.614,358.704h27.794c0,0,3.812,0,3.812,3.803v15.621h41.508c0,0,4.192-0.767,4.56,4.559v5.335
		c0,0,0.403,4.198-5.312,4.574h-40.373v31.606c0,0,2.67,10.291,23.22,9.515c0,0,11.813,1.521,22.098-5.333c0,0,8.384,0,23.612,4.957
		c0,0,6.84,2.662,0.764,6.491c0,0-15.229,7.981-37.713,9.117h-19.812c0,0-41.875-1.888-47.97-23.224v-63.975
		C388.807,361.749,388.438,358.318,392.614,358.704"/>
	<path fill="#6D6E70" d="M542.657,401.353c0,0,9.137-16.756,59.779-3.442c0,0,3.434,2.667,10.3-1.127l7.978-6.477
		c0,0,5.336-2.295-3.421-5.342c0,0-15.995-6.845-43.409-6.845c0,0-56.753-3.809-67.037,22.844v44.172c0,0-0.367,3.062,4.963,3.062
		h26.648c0,0,4.199,0.368,4.199-4.213V401.353L542.657,401.353z"/>
	<path fill="#6D6E70" d="M710.604,426.112c0,0-1.903,7.604-19.052,9.121h-9.904c0,0-17.138-1.52-17.507-10.65
		c-0.388-9.15,0-23.23,0-23.23s5.295-8.761,23.211-8.761h1.146c0,0,11.813-0.765,22.105,8.375V426.112L710.604,426.112z
		 M704.118,378.498h-32.374c-39.6,5.323-43.021,21.71-43.021,21.71v27.811c7.227,19.801,47.207,21.702,47.207,21.702h23.991
		c43.789-3.828,46.843-22.084,46.843-22.084v-27.805C736.86,380.776,704.118,378.498,704.118,378.498"/>
	<path fill="#6D6E70" d="M878.541,444.323v-4.708v-36.604v-1.274c-5.321-20.949-44.2-23.242-44.2-23.242h-31.583
		c-45.714,6.864-42.646,23.242-42.646,23.242l-0.388,42.249c0,5.342,4.179,4.213,4.179,4.213h25.898
		c7.633,0.741,6.091-4.213,6.091-4.213v-43.018c2.297-5.708,19.424-8.743,19.424-8.743h7.238
		c16.379,1.897,19.796,9.898,19.796,9.898v41.867c-1.139,5.342,4.205,4.578,4.205,4.578h17.311l0.071-0.037h8.509
		C880.078,449.277,878.541,444.323,878.541,444.323"/>
	<g id="Rectangle_1">
		<g>
			<rect x="123.864" y="477.988" fill="#EC8222" width="755.868" height="2.196"/>
		</g>
	</g>
	<g>
		<path fill="#6D6E70" d="M531.749,510.942c0,4.112-5.298,6.917-15.889,8.413v9.972h-5.611v-22.431c0-0.771,0.46-1.393,1.374-1.874
			c0.744-0.412,1.533-0.619,2.368-0.619h7.475c2.244,0,4.407,0.529,6.481,1.587C530.482,507.276,531.749,508.927,531.749,510.942z
			 M526.14,511.254c0-0.955-0.561-1.733-1.681-2.34c-0.956-0.519-1.956-0.778-2.993-0.778h-5.61v7.479
			C522.714,514.89,526.14,513.438,526.14,511.254z"/>
		<path fill="#6D6E70" d="M552.876,523.846c0,1.661-0.999,3.027-2.992,4.106c-1.684,0.917-3.425,1.369-5.234,1.369
			c-1.805,0-3.549-0.452-5.234-1.369c-1.991-1.079-2.991-2.451-2.991-4.106v-14.461h4.488v14.461c0,0.741,0.456,1.365,1.373,1.865
			c0.748,0.413,1.537,0.62,2.364,0.62c0.835,0,1.624-0.207,2.37-0.62c0.912-0.5,1.372-1.124,1.372-1.865v-14.461h4.489v14.461
			H552.876z"/>
		<path fill="#6D6E70" d="M575.474,529.327h-5.215l-6.17-6.452c-0.872-0.909-1.309-1.608-1.309-2.09c0-0.933,0.639-1.7,1.933-2.305
			c1.204-0.454,2.406-0.925,3.61-1.402c1.286-0.58,1.933-1.316,1.933-2.212c0-0.744-0.46-1.367-1.369-1.864
			c-0.747-0.417-1.537-0.624-2.368-0.624h-4.485v16.949h-4.489v-17.949c0-0.598,0.359-1.098,1.09-1.496
			c0.598-0.332,1.236-0.497,1.898-0.497h5.986c1.786,0,3.522,0.425,5.204,1.275c2.015,1.04,3.022,2.356,3.022,3.959
			c0,1.557-0.861,2.929-2.584,4.112c-1.371,0.956-2.95,1.618-4.733,1.993L575.474,529.327z"/>
		<path fill="#6D6E70" d="M595.47,523.846c0,1.661-1,3.027-2.993,4.106c-1.684,0.917-3.43,1.369-5.237,1.369
			c-1.831,0-3.561-0.452-5.2-1.369c-1.933-1.053-2.939-2.43-3.022-4.106h4.49c0.142,0.763,0.608,1.388,1.398,1.865
			c0.71,0.413,1.488,0.62,2.337,0.62c0.938,0,1.791-0.274,2.572-0.824c0.779-0.553,1.165-1.271,1.165-2.164
			c0-0.744-0.458-1.369-1.367-1.866c-0.749-0.417-1.538-0.624-2.37-0.624c-1.97,0-3.767-0.503-5.392-1.497
			c-1.887-1.143-2.831-2.639-2.831-4.489c0-1.661,0.997-3.03,2.99-4.112c1.684-0.91,3.429-1.364,5.232-1.364
			c1.828,0,3.564,0.454,5.204,1.364c1.933,1.061,2.94,2.437,3.023,4.112h-4.49c-0.142-0.766-0.608-1.391-1.398-1.864
			c-0.707-0.417-1.488-0.624-2.339-0.624c-0.936,0-1.773,0.255-2.519,0.773c-0.812,0.588-1.214,1.324-1.214,2.22
			c0,0.741,0.454,1.364,1.372,1.865c0.744,0.413,1.533,0.623,2.365,0.623c1.975,0,3.771,0.497,5.388,1.496
			C594.522,520.499,595.47,521.992,595.47,523.846z"/>
		<path fill="#6D6E70" d="M616.589,523.846c0,1.661-0.995,3.027-2.988,4.106c-1.685,0.917-3.429,1.369-5.242,1.369
			c-1.805,0-3.549-0.452-5.229-1.369c-1.997-1.079-2.99-2.451-2.99-4.106v-14.461h4.489v14.461c0,0.741,0.452,1.365,1.369,1.865
			c0.744,0.413,1.534,0.62,2.368,0.62c0.832,0,1.621-0.207,2.369-0.62c0.909-0.5,1.369-1.124,1.369-1.865v-14.461h4.489v14.461
			H616.589z"/>
		<path fill="#6D6E70" d="M625.754,529.327h-4.49v-19.942h4.49V529.327z"/>
		<path fill="#6D6E70" d="M646.876,527.331c0,0.603-0.33,1.103-0.999,1.493c-0.561,0.338-1.159,0.503-1.806,0.503
			c-1.098,0-2.06-0.668-2.895-2l-6.268-10.106v12.106h-4.49v-17.949c0-0.598,0.335-1.098,0.997-1.496
			c0.563-0.332,1.165-0.497,1.811-0.497c1.099,0,2.068,0.662,2.896,1.993l6.261,10.099v-12.092h4.489v17.946H646.876z"/>
		<path fill="#6D6E70" d="M667.999,529.327h-4.481v-0.623c-1.188,0.413-2.436,0.623-3.744,0.623c-1.805,0-3.551-0.458-5.233-1.372
			c-1.994-1.079-2.99-2.448-2.99-4.109v-8.972c0-1.665,1-3.038,2.99-4.112c1.688-0.914,3.432-1.369,5.233-1.369
			c1.827,0,3.563,0.455,5.203,1.369c1.956,1.061,2.964,2.432,3.022,4.112h-4.481c-0.128-0.766-0.594-1.391-1.401-1.868
			c-0.727-0.418-1.508-0.625-2.34-0.625c-0.826,0-1.621,0.207-2.365,0.625c-0.912,0.496-1.369,1.116-1.369,1.868v8.972
			c0,0.744,0.457,1.369,1.369,1.868c0.744,0.41,1.534,0.622,2.365,0.622c0.832,0,1.621-0.212,2.369-0.622
			c0.914-0.499,1.372-1.124,1.372-1.868v-2.993h-3.744v-2.993h5.234c0.665,0,1.3,0.167,1.901,0.497
			c0.723,0.398,1.09,0.896,1.09,1.496V529.327L667.999,529.327z"/>
		<path fill="#6D6E70" d="M704.916,529.327h-14.484c-0.835,0-1.635-0.21-2.398-0.623c-0.896-0.497-1.347-1.121-1.347-1.868v-19.939
			c0-0.749,0.443-1.374,1.347-1.874c0.764-0.412,1.563-0.619,2.398-0.619h14.484v3.74h-12.615v6.851h7.944v3.745h-7.944v6.851
			h12.615V529.327z"/>
		<path fill="#6D6E70" d="M727.434,529.327h-5.215l-4.873-6.492l-4.872,6.492h-5.216l7.479-9.972l-7.479-9.971h5.216l4.872,6.489
			l4.865-6.489h5.223l-7.478,9.971L727.434,529.327z"/>
		<path fill="#6D6E70" d="M746.238,523.846c-0.064,1.68-1.061,3.054-2.993,4.106c-1.662,0.917-3.407,1.369-5.231,1.369
			c-1.808,0-3.552-0.452-5.229-1.369c-1.997-1.079-2.993-2.451-2.993-4.106v-8.979c0-1.661,1-3.03,2.993-4.112
			c1.68-0.91,3.429-1.364,5.229-1.364c1.832,0,3.565,0.454,5.208,1.364c1.933,1.061,2.94,2.437,3.02,4.112h-4.485
			c-0.143-0.766-0.608-1.391-1.399-1.864c-0.71-0.417-1.489-0.624-2.338-0.624c-0.831,0-1.621,0.207-2.368,0.624
			c-0.911,0.497-1.369,1.12-1.369,1.864v8.979c0,0.741,0.458,1.365,1.369,1.865c0.747,0.413,1.537,0.62,2.368,0.62
			c0.856,0,1.632-0.207,2.338-0.62c0.791-0.478,1.257-1.103,1.399-1.865H746.238z"/>
		<path fill="#6D6E70" d="M765.492,529.327h-11.593c-0.664,0-1.297-0.165-1.897-0.503c-0.727-0.391-1.095-0.888-1.095-1.493v-15.953
			c0-0.603,0.368-1.105,1.095-1.501c0.601-0.33,1.233-0.495,1.897-0.495h11.593v2.988h-10.096v5.489h6.355v2.985h-6.355v5.486
			h10.096V529.327z"/>
		<path fill="#6D6E70" d="M784.748,529.327h-11.593c-0.666,0-1.297-0.165-1.898-0.503c-0.73-0.391-1.092-0.888-1.092-1.493v-17.946
			h4.49v16.946h10.093V529.327z"/>
		<path fill="#6D6E70" d="M802.848,529.327h-11.592c-0.665,0-1.298-0.165-1.898-0.503c-0.73-0.391-1.095-0.888-1.095-1.493v-17.946
			h4.489v16.946h10.096V529.327z"/>
		<path fill="#6D6E70" d="M820.953,529.327H809.36c-0.67,0-1.302-0.165-1.899-0.503c-0.729-0.391-1.094-0.888-1.094-1.493v-15.953
			c0-0.603,0.364-1.105,1.094-1.501c0.598-0.33,1.229-0.495,1.899-0.495h11.593v2.988h-10.096v5.489h6.354v2.985h-6.354v5.486
			h10.096V529.327z"/>
		<path fill="#6D6E70" d="M842.072,527.331c0,0.603-0.331,1.103-0.993,1.493c-0.563,0.338-1.165,0.503-1.809,0.503
			c-1.102,0-2.064-0.668-2.895-2l-6.268-10.106v12.106h-4.49v-17.949c0-0.598,0.335-1.098,1-1.496
			c0.563-0.332,1.166-0.497,1.805-0.497c1.105,0,2.068,0.662,2.903,1.993l6.265,10.099v-12.092h4.481V527.331L842.072,527.331z"/>
		<path fill="#6D6E70" d="M863.2,523.846c-0.065,1.68-1.058,3.054-2.99,4.106c-1.666,0.917-3.405,1.369-5.234,1.369
			c-1.805,0-3.553-0.452-5.233-1.369c-1.993-1.079-2.993-2.451-2.993-4.106v-8.979c0-1.661,1.004-3.03,2.993-4.112
			c1.685-0.91,3.434-1.364,5.233-1.364c1.829,0,3.565,0.454,5.205,1.364c1.933,1.061,2.943,2.437,3.022,4.112h-4.481
			c-0.151-0.766-0.617-1.391-1.406-1.864c-0.707-0.417-1.481-0.624-2.335-0.624c-0.831,0-1.621,0.207-2.365,0.624
			c-0.917,0.497-1.369,1.12-1.369,1.864v8.979c0,0.741,0.452,1.365,1.369,1.865c0.744,0.413,1.534,0.62,2.365,0.62
			c0.854,0,1.631-0.207,2.335-0.62c0.789-0.478,1.255-1.103,1.406-1.865H863.2z"/>
		<path fill="#6D6E70" d="M882.454,529.327h-11.592c-0.665,0-1.298-0.165-1.898-0.503c-0.73-0.391-1.091-0.888-1.091-1.493v-15.953
			c0-0.603,0.36-1.105,1.091-1.501c0.601-0.33,1.233-0.495,1.898-0.495h11.592v2.988h-10.091v5.489h6.351v2.985h-6.351v5.486h10.091
			V529.327z"/>
	</g>
</g>
</svg>
