<?xml version="1.0" encoding="UTF-8" standalone="no"?>
<!-- Generator: Adobe Illustrator 16.0.0, SVG Export Plug-In . SVG Version: 6.00 Build 0)  -->
<!DOCTYPE svg  PUBLIC '-//W3C//DTD SVG 1.1//EN'  'http://www.w3.org/Graphics/SVG/1.1/DTD/svg11.dtd'>
<svg id="Layer_1" xmlns="http://www.w3.org/2000/svg" xml:space="preserve" height="168px" viewBox="0 0 168 168" width="168px" version="1.1" y="0px" x="0px" xmlns:xlink="http://www.w3.org/1999/xlink" enable-background="new 0 0 168 168">
		<path d="m98.672 99.703c-4.826 0-8.711-3.885-8.711-8.713 0-4.807 3.885-8.712 8.711-8.712 4.805 0 8.73 3.905 8.73 8.712 0 4.828-3.92 8.713-8.728 8.713zm0-20.594c-6.562 0-11.887 5.312-11.887 11.881 0 6.574 5.326 11.887 11.887 11.887 6.564 0 11.883-5.312 11.883-11.887 0-6.573-5.32-11.884-11.888-11.884z" fill="#0085D0"/>
		<path d="m98.656 86.631c-2.383 0-4.328 1.958-4.328 4.359 0 2.407 1.945 4.355 4.328 4.355 2.424 0 4.381-1.948 4.381-4.355 0-2.401-1.96-4.359-4.384-4.359z" fill="#0085D0"/>
				<g fill="#0085D0">
					<rect y="96.251" x="126.39" height="6.243" width="15.529"/>
					<rect y="79.498" x="56.153" height="22.997" width="8.357"/>
					<polygon points="89.338 79.498 80.428 102.49 73.341 102.49 64.45 79.498 73.169 79.498 76.892 91.573 80.622 79.498"/>
					<polygon points="56.628 79.498 47.741 102.49 40.648 102.49 31.732 79.498 40.46 79.498 44.191 91.573 47.913 79.498"/>
					<rect y="87.86" x="126.39" height="6.26" width="15.529"/>
					<polygon points="141.92 79.498 109.83 79.498 109.83 85.73 114.3 85.73 114.3 102.52 122.4 102.52 122.4 85.73 141.92 85.73"/>
					<polygon points="144.28 102.49 144.28 79.498 152.43 79.498 152.43 89.298 157.67 79.498 167.02 79.498 160.08 90.818 168 102.49 157.99 102.49 152.43 92.881 152.43 102.49"/>
						<path d="m14.21 69.063c0.05-0.011 0.081 0.077 0.081 0.133 0 0.049 0.01 0.093 0.029 0.119 0.003 0.035 0.041 0.132 0.086 0.159 0.058 0.015 0.155 0.021 0.17 0.046 0.02 0.028 0.053 0.09 0.053 0.129 0 0.042 0.019 0.187 0.019 0.187s0.049 0 0.049 0.054c0 0.033 0.004 0.197 0.028 0.233 0.008 0.033 0.034-0.014 0.076 0.026 0.026 0.019 0.04 0.071 0.083 0.1 0.015 0.022 0.041 0.128 0.091 0.11 0.05-0.014 0.1 0.019 0.128 0.044 0.042 0.031 0.101 0.042 0.101 0.073 0 0.042-0.025 0.101 0 0.159 0.045 0.035 0.123 0.064 0.124 0.064 0.039 0 0.062-0.037 0.09-0.006 0.021 0.031 0.051 0.11 0.051 0.196 0 0.079-0.008 0.135 0.029 0.168 0.034 0.022 0.065 0.022 0.082 0.059 0.004 0.053 0.056 0.109 0.119 0.133 0.059 0.032 0.12 0.02 0.151 0.06 0.012 0.039 0 0.093 0.012 0.128 0.029 0.044 0.122 0.104 0.172 0.179 0.039 0.043 0.068 0.11 0.068 0.146 0 0.029 0 0.089 0.039 0.127 0.04 0.035 0.147 0.009 0.19 0.027 0.051 0.028 0.133 0.126 0.133 0.147 0 0.04 0.042 0.047 0.034 0.149-0.012 0.079-0.034 0.146-0.012 0.181 0.035 0.041 0.098 0.142 0.14 0.119 0.039-0.021 0.093-0.065 0.132-0.047 0.05 0 0.103 0.138 0.12 0.208 0.035 0.054 0 0.124 0.046 0.169 0.036 0.051 0.054 0.137 0.108 0.146 0.05 0.018 0.087-0.013 0.129 0.078 0.041 0.103 0.142 0.193 0.173 0.264 0.04 0.042 0.132 0.055 0.132 0.104 0 0.036-0.007 0.136 0.045 0.136 0.045 0 0.11 0.005 0.15 0.057 0.043 0.056 0.023 0.177 0.074 0.224 0.049 0.062 0.122 0.025 0.132 0.093 0.004 0.053 0 0.129 0.039 0.164 0.036 0.043 0.103 0.022 0.136 0.075 0.031 0.072 0.104 0.083 0.104 0.155 0.015 0.088 0.015 0.115 0.088 0.157 0.057 0.061 0.103 0.082 0.147 0.118 0.031 0.037 0.054 0.165 0.124 0.175 0.052 0.017 0.134 0.019 0.222 0.053 0.085 0.029 0.106 0.071 0.163 0.076 0.053 0.022 0.118 0.126 0.118 0.175 0 0.038-0.017 0.076 0.008 0.097 0.033 0.035 0.096 0.13 0.124 0.176 0.016 0.028 0.081 0.11 0.088 0.11 0.032 0 0.129 0.021 0.136-0.01 0-0.029 0.028-0.044 0.063-0.044 0.02 0.015 0.069 0.097 0.069 0.097 0 0.051 0 0.138 0.032 0.161 0.043 0.022 0.107 0.098 0.141 0.088 0.03 0 0.133 0.01 0.188 0.033 0.044 0.027 0.174 0.142 0.174 0.196 0 0.059 0.036 0.093 0.06 0.119 0.026 0.025 0.028 0.049 0.026 0.089-0.026 0.03-0.046 0.071-0.026 0.103 0.026 0.049 0.062 0.099 0.098 0.124 0.036 0.01 0.104 0.025 0.124 0.047 0 0.029 0.016 0.072 0.071 0.132 0.042 0.067 0.111 0.112 0.124 0.168 0.003 0.04 0.019 0.118 0.049 0.134 0.025 0.015 0.082 0.008 0.09 0.069 0 0.047-0.016 0.172 0.032 0.221 0.039 0.045 0.073 0.09 0.115 0.076 0.031-0.018 0.067-0.025 0.109-0.018 0.029 0.037 0.062 0.092 0.124 0.107 0.044 0 0.089 0 0.139 0.028 0.044 0.034 0.119 0.146 0.146 0.178 0.049 0.027 0.111 0.125 0.181 0.114 0.075 0 0.127-0.042 0.158-0.061 0.032-0.025 0.089-0.092 0.129-0.11 0.056-0.008 0.105 0.018 0.131-0.008 0.015-0.031 0.031-0.103 0.082-0.107 0.057-0.018 0.103 0 0.127-0.048 0.007-0.043 0-0.105 0.03-0.126 0.044-0.016 0.057-0.071 0.086-0.073 0.032-0.012 0.116-0.055 0.125-0.08 0 0 0.018-0.074 0.043-0.092 0.057-0.008 0.117-0.069 0.14-0.108 0.042-0.054 0.042-0.094 0.099-0.128 0.043-0.032 0.146-0.032 0.163-0.076 0.021-0.046 0.074-0.106 0.128-0.147 0.046-0.032 0.121-0.083 0.126-0.1 0.021-0.029 0.021-0.096 0.068-0.121 0.04-0.013 0.094-0.062 0.127-0.096 0.027-0.04 0.039-0.115 0.074-0.138 0.029-0.044 0.08-0.025 0.11-0.044 0.02-0.007 0-0.062 0.042-0.099 0.034-0.023 0.111 0.018 0.126-0.007 0.015-0.039 0.015-0.089 0.04-0.104 0.035-0.013 0.07 0.031 0.099 0 0.026-0.028 0.051-0.046 0.058-0.091 0-0.043 0.021-0.093 0.039-0.126 0.031-0.01 0.084-0.01 0.084-0.06 0-0.04 0-0.115 0.054-0.115 0.057-0.027 0.09 0 0.125-0.027 0.029-0.008 0.007-0.028 0.042-0.045 0.035-0.025 0.07 0.022 0.07-0.025-0.005-0.046-0.069-0.091-0.026-0.119 0.035-0.038 0.047 0.038 0.098 0.034 0.033-0.006 0.046 0 0.046-0.036 0.013-0.048 0-0.104 0.027-0.14 0.017-0.021 0.077-0.021 0.1-0.028 0.029-0.022 0.055-0.032 0.081-0.069 0.022-0.05 0.022-0.16 0.053-0.178 0.025-0.01 0.074-0.01 0.089-0.036 0.028-0.033 0.104-0.111 0.116-0.147 0.004-0.061 0.023-0.061 0.043-0.125 0.011-0.048 0.029-0.1 0.061-0.124 0.046-0.001 0.046 0.024 0.089 0.05 0.039 0 0.115-0.052 0.121-0.096 0-0.044-0.017-0.128 0.037-0.156 0.051-0.024 0.145-0.063 0.172-0.088 0.028-0.028 0.001-0.123 0.035-0.138 0.029-0.028 0.099-0.046 0.119-0.044 0.014 0.028 0 0.094 0.034 0.083 0.033 0 0.042-0.055 0.059-0.039 0.024 0 0.05 0.068 0.066 0.039 0.014-0.023 0.01-0.083-0.009-0.122-0.007-0.043-0.017-0.125 0.019-0.142 0.035-0.021 0.054-0.048 0.076-0.021 0.017 0.051 0.024 0.059 0.054 0 0.013-0.056 0-0.071 0.049-0.096 0.035-0.011-0.011-0.04 0.001-0.069 0.012-0.018 0.023-0.083 0.041-0.1 0.025 0 0.015-0.014 0.049-0.052 0.018-0.036 0.049-0.077 0.067-0.036 0.015 0.021 0.015 0.036 0.052 0.042 0.039 0.023 0.048 0.044 0.039 0.078 0 0.02 0.01 0.063 0.03 0.049 0.011 0 0.045 0.004 0.06-0.018 0-0.016-0.015-0.016-0.027-0.031-0.021-0.026-0.032-0.078-0.022-0.104 0.001-0.017-0.019-0.017 0.001-0.029 0.024-0.013 0.028-0.043 0.028-0.067-0.004-0.054-0.017-0.082-0.029-0.077-0.03 0.013-0.04 0.045-0.04 0.045-0.013 0.032-0.013 0.068-0.034 0.044-0.021-0.013-0.042-0.053-0.021-0.08 0.008-0.015 0.021-0.015 0.038-0.031 0.005-0.013-0.016-0.042 0.018-0.042 0.03 0 0.053 0.029 0.053 0.029 0.01-0.052 0-0.063 0.013-0.07 0.01-0.004 0.01-0.004 0.02-0.035 0.005-0.029 0.005-0.064 0.042-0.057 0.034 0.009 0.009 0.08 0.028 0.08 0.011 0.007 0.043-0.023 0.046 0.007 0.002 0.011-0.003 0.074 0.007 0.074 0.025 0 0.089-0.015 0.125-0.015 0.017-0.005 0.068-0.037 0.082-0.015 0.01 0.018-0.014 0.042 0 0.042 0.027 0.016 0.055-0.013 0.055 0.016 0.002 0.015 0 0.082 0 0.082s-0.008 0.013-0.028 0.03c-0.027 0.014-0.027 0.049-0.06 0.065-0.032 0.005-0.107 0.026-0.12 0 0-0.017 0-0.072-0.011-0.072-0.019-0.011-0.028 0.007-0.043-0.011-0.004-0.008-0.004-0.031-0.01-0.013-0.032 0.004-0.021 0.058-0.021 0.058-0.012 0.038-0.012 0.063 0.021 0.063 0.005 0 0.025-0.021 0.035 0 0.01 0.013 0 0.065 0 0.098 0 0.034 0 0.105 0.013 0.12 0.006 0.022 0.029 0.038 0.043 0.038 0.015-0.011 0.077-0.016 0.093-0.016 0.019 0 0.008-0.021 0.019-0.036 0.014-0.018 0.041-0.029 0.024-0.059-0.004-0.024-0.01-0.047 0.017-0.063 0.02-0.003 0.012 0 0.012-0.036 0-0.032-0.029-0.051 0-0.051 0.032 0 0.042-0.015 0.042-0.036-0.006-0.025 0-0.043 0.023-0.056 0.014-0.011 0.03 0 0.03 0 0.013-0.042 0.013-0.064 0.029-0.071 0.017-0.019 0-0.034 0.037-0.034 0.018 0 0.018-0.016 0.018-0.029 0-0.02-0.018-0.052 0.006-0.052 0.034-0.011 0.053-0.018 0.053 0.017 0.011 0.035 0.034 0 0.052 0.035 0.009 0.034-0.004 0.047-0.018 0.057-0.013 0.007-0.027 0.036-0.034 0.036-0.019 0.018-0.019 0-0.029 0.023-0.001 0.019 0.029 0.062 0 0.062-0.023 0-0.047 0-0.039 0.014 0.009 0.035 0.038 0.054 0.009 0.065-0.018 0.007-0.015 0.042-0.018 0.038-0.02-0.01-0.045-0.017-0.045 0.017 0 0.02-0.021 0.086 0.008 0.086 0.017 0.021 0.054 0.039 0.054 0.01-0.009-0.029-0.009-0.047 0.006-0.047 0.022 0 0.063 0.037 0.06 0.004-0.007-0.022-0.025-0.08-0.007-0.08 0.021 0 0-0.028 0.021-0.039 0.018 0 0.071-0.019 0.071-0.019 0-0.036 0-0.071 0.022-0.071 0.024 0 0.035 0.01 0.054-0.021 0.02-0.024 0.02-0.101 0.02-0.146-0.02-0.052-0.02-0.086-0.04-0.093-0.011-0.02-0.022-0.057-0.016-0.081 0.015-0.029 0.03-0.083 0.056-0.074 0.019 0.012 0.042 0.051 0.058 0.045 0.028-0.023 0.028-0.033 0.04-0.059 0.029-0.038 0.04-0.054 0.065-0.067 0.023-0.023 0.041-0.05 0.023-0.05-0.023 0-0.041 0.023-0.049-0.015 0-0.047-0.029-0.031-0.029-0.057-0.01-0.045 0.019-0.079 0.055-0.079 0.025 0 0.081 0.037 0.09 0.03 0.034-0.003 0.062-0.03 0.067-0.054 0.006-0.022 0.053-0.048 0.064-0.072 0.007-0.026-0.012-0.068 0.007-0.079 0.022 0 0.004-0.046 0.058-0.046 0.049 0.008 0.014 0.025 0.049 0.046 0.036 0.023 0.025 0.042 0.089 0.079 0.054 0.056 0.082 0.101 0.102 0.075 0.007-0.019 0.044-0.019 0.065-0.039 0.031-0.013 0.017-0.047 0.056-0.074 0.027-0.031 0.042-0.042 0.072-0.08 0.036-0.031 0-0.046 0.052-0.073 0.053-0.014 0.075 0.02 0.099-0.026 0.017-0.052 0.007-0.087 0.029-0.125 0.032-0.035 0.058-0.082 0.104-0.09 0.03-0.008 0.041-0.008 0.073-0.029 0.025-0.036 0.056-0.036 0.042-0.084 0-0.041-0.009-0.078-0.024-0.078-0.018 0-0.057-0.058-0.029-0.058 0.029-0.012 0.049-0.006 0.07-0.031 0.017-0.021 0.017-0.065 0.003-0.086-0.003-0.035-0.029-0.104-0.02-0.126 0.017 0 0.043 0 0.043-0.008 0-0.029-0.01-0.052 0-0.052 0-0.03 0.026-0.03 0.029-0.057 0.017-0.024 0.029-0.059 0.047-0.046 0.029 0.017 0.05 0.017 0.05 0.06s0.036 0.065 0.003 0.083c-0.02 0.011-0.039 0.02-0.024 0.057 0.004 0.02-0.015 0.054 0.004 0.054 0.007 0.011 0.043-0.011 0.053 0 0 0.021-0.01 0.056 0.005 0.056 0.02 0 0.067 0.027 0.067 0 0.023-0.021 0-0.056 0.023-0.067 0.024 0 0.024-0.035 0.049-0.035 0.029-0.009 0.086 0.011 0.108-0.009 0-0.037 0-0.045 0.02-0.057 0.028-0.018 0.028-0.041 0.048-0.065 0.032-0.005 0.032 0.025 0.075-0.018 0.039-0.039 0.047-0.043 0.079-0.073 0.034-0.031 0.042-0.031 0.045-0.055 0 0 0.033-0.039 0.051-0.067 0-0.031-0.03-0.047 0.01-0.058 0.027-0.033 0.096-0.014 0.105-0.038 0-0.017 0-0.051 0.028-0.051 0.018 0 0.081 0.042 0.094 0 0.007-0.018 0-0.054 0.044-0.054 0.027-0.012 0.058 0 0.081-0.049 0.012-0.033 0.001-0.08 0.019-0.088 0.022-0.023 0.022-0.023 0.022-0.053 0-0.046-0.041-0.112 0-0.133 0.031-0.014 0.031-0.057 0.06-0.057 0.036 0 0.022-0.005 0.067-0.029 0.038-0.006 0.072-0.035 0.098-0.056 0.028-0.025 0.063 0.008 0.071-0.037 0.014-0.043 0-0.059 0.03-0.059 0.029-0.013 0.08 0.015 0.109-0.013 0.01-0.043-0.022-0.115 0.008-0.147 0.012-0.024 0.025-0.034 0.025-0.107 0.019-0.064 0-0.096 0.022-0.129 0.012-0.025 0.012-0.025 0.05-0.076 0.023-0.04 0-0.061 0.043-0.072 0.039-0.011 0.064 0 0.071-0.025 0.002-0.034-0.029-0.158-0.007-0.188 0.009-0.016 0.032-0.018 0.057-0.053 0.029-0.02 0-0.031 0.062-0.039 0.059 0 0.127-0.026 0.151 0 0.026 0.02 0.059 0 0.082 0.032 0.02 0.028 0.017 0.06 0.027 0.071 0.033 0.019 0.036 0.088 0.058 0.062 0.021 0 0-0.072 0.021-0.072 0.018-0.016 0.013-0.053 0.036-0.072 0.021-0.011 0.047 0.012 0.06-0.02 0.038-0.026 0.057-0.022 0.057-0.053 0-0.04 0-0.081 0.007-0.099 0.019-0.017 0.025-0.017 0.025-0.042 0.011-0.031 0.015-0.05 0.048-0.067 0.028-0.014 0.092-0.032 0.111-0.072 0.016-0.023-0.006-0.049 0.016-0.081 0.041-0.014 0.041-0.027 0.049-0.057 0.009-0.025 0.021-0.035 0.018-0.062-0.009-0.036-0.009-0.065 0.003-0.087 0.014-0.018 0.049-0.018 0.067-0.029 0.044-0.014 0-0.049 0.025-0.081 0.025-0.016 0.064-0.004 0.065-0.041 0.012-0.021-0.018-0.048 0.026-0.048 0.039 0 0.039 0.028 0.039 0.07 0 0.05 0.021 0.062 0 0.091-0.017 0.038-0.039 0.048-0.017 0.067 0.017 0.022 0.077 0.03 0.104 0.022 0.022-0.029 0.042-0.012 0.027-0.059 0-0.046 0.056-0.046 0.064-0.071 0.003-0.036 0-0.072 0.025-0.072 0.035 0 0.013 0.036 0.035 0.04 0.032 0.016 0.032 0.067 0.068 0.057 0.023 0 0.036-0.014 0.036-0.057 0-0.04 0.01-0.052-0.013-0.068-0.023-0.021-0.04-0.059-0.051-0.086-0.029-0.025-0.024-0.086-0.041-0.097-0.022-0.021-0.035-0.056-0.035-0.081 0-0.034-0.024-0.054 0.013-0.082 0.033-0.031 0.09-0.023 0.109-0.055 0.012-0.03 0.049-0.052 0.049-0.08 0.003-0.022 0.033-0.063 0.033-0.063 0-0.035 0.024-0.062 0.039-0.077 0.019-0.025 0.031-0.086 0.056-0.086 0.025 0.006 0.021 0.039 0.053 0.039 0.027 0 0.058 0.05 0.027 0.089-0.022 0.026-0.039 0.035-0.056 0.062-0.004 0.023 0.012 0.084-0.004 0.104-0.026 0.02-0.034 0.05-0.076 0.05-0.029 0.009-0.029 0.035-0.047 0.063-0.025 0.033-0.047 0.059-0.043 0.085 0 0.04 0.024 0.044 0.062 0.044 0.029 0 0.048-0.044 0.079-0.044s0.064 0 0.08-0.016c0.021-0.011 0.054-0.054 0.073-0.07 0.018-0.021 0.031-0.021 0.031-0.063 0-0.05-0.024-0.069 0.012-0.091 0.021-0.011 0.045-0.04 0.073-0.05 0.029 0 0.036-0.041 0.065-0.041 0.031-0.008 0.122 0 0.135-0.019 0.011-0.016 0.021-0.054 0.041-0.058 0.009-0.025 0.03-0.047 0.03-0.086 0-0.034-0.021-0.049 0-0.065 0.014-0.025 0.017-0.029 0.017-0.06 0-0.032-0.014-0.083 0.008-0.117 0.029-0.016 0.044-0.032 0.044 0 0.016 0.033 0 0.084 0.016 0.087 0.011 0.03 0.036 0.054 0.05 0.03 0.028-0.03 0.028-0.032 0.047-0.062 0.027-0.018 0.013-0.018 0.034-0.036 0.027-0.035 0.017-0.035 0.038-0.057 0.029-0.015 0.038-0.014 0.038-0.065 0-0.059-0.008-0.059-0.02-0.083-0.018-0.01-0.024-0.049-0.024-0.049s-0.018-0.05 0-0.079c0.024-0.022 0.089-0.03 0.106-0.011 0 0.017 0.024 0.09 0.024 0.103 0 0-0.024 0.065-0.002 0.068 0.005 0.01 0.045-0.002 0.045 0.023v0.151c-0.01 0.033-0.04 0.067-0.067 0.114-0.052 0.026-0.124 0.114-0.137 0.147-0.007 0-0.053 0-0.081 0.022-0.014 0.025-0.05 0.056-0.05 0.056 0 0.046 0.011 0.074-0.016 0.086-0.023 0.011-0.052-0.033-0.066 0.011-0.003 0.04-0.003 0.1-0.023 0.131-0.009 0.028-0.009 0.063-0.009 0.063s-0.029 0.022-0.041 0.041c-0.011 0.018 0 0.029-0.023 0.044-0.033 0-0.051 0.029-0.076 0-0.031-0.027-0.028-0.028-0.035-0.028-0.029 0-0.065 0.028-0.065 0.028l-0.057 0.08s0.029 0.102 0 0.102c-0.041 0-0.028 0.058-0.028 0.058l-0.033 0.083s-0.021 0.049-0.086 0.049c-0.038 0-0.083 0.056-0.083 0.056l-0.078 0.049-0.043 0.072s0.021 0.103-0.014 0.119c-0.036 0-0.093 0.038-0.093 0.038l-0.09 0.068-0.031 0.115s0.002 0.068-0.019 0.094c-0.028 0.01-0.089 0.01-0.089 0.01s-0.021 0.016-0.021 0.056c0 0.037-0.049 0.078-0.049 0.078l-0.018 0.065-0.063 0.036-0.059 0.044-0.038 0.022-0.009 0.056-0.104 0.12-0.091 0.12s-0.062 0.028-0.062 0.061c-0.007 0.014-0.064 0.014-0.064 0.014s0.026 0-0.012 0.033c-0.029 0.032-0.065 0.056-0.065 0.056s0.039 0.091 0 0.104c-0.039 0-0.142-0.013-0.164 0.015-0.017 0.016-0.06 0.073-0.06 0.073l-0.089 0.063-0.139 0.185-0.079 0.096s-0.029 0.129-0.053 0.15c-0.038 0.034-0.023 0.075-0.077 0.084-0.058 0.004-0.146 0.012-0.146 0.012s-0.05 0-0.057-0.021c-0.008-0.042-0.008-0.096-0.036-0.086-0.023 0.027-0.017 0.086-0.01 0.1 0.01 0.033 0.047 0 0.047 0 0 0.08 0.026 0.092 0 0.142-0.008 0.04-0.032 0.084-0.063 0.101-0.035 0.004-0.086-0.005-0.103 0.013-0.014 0.036-0.054 0.073-0.084 0.049-0.034-0.018-0.052-0.013-0.064-0.062 0-0.056-0.042-0.068-0.065-0.061-0.042 0.031-0.033 0.061-0.048 0.082-0.023 0.028-0.023 0.075-0.023 0.088-0.025 0.029-0.053 0.018-0.04 0.042 0.01 0.042 0.04-0.013 0.04 0.065s-0.053 0.078-0.071 0.099c-0.028 0.024-0.054 0.028-0.07 0.069-0.021 0.042-0.012 0.064-0.063 0.064-0.041 0.01-0.061 0-0.072 0.019-0.022 0.018 0 0.09-0.022 0.119-0.043 0.025 0 0.062-0.033 0.143-0.034 0.051-0.07 0.051-0.136 0.091-0.057 0.019-0.115 0.126-0.145 0.142-0.029 0.03-0.065 0.054-0.102 0.083-0.025 0.036-0.108 0.108-0.129 0.153-0.029 0.043-0.021 0.11-0.083 0.121-0.065 0-0.107 0.046-0.156 0.099-0.055 0.05-0.047 0.092-0.086 0.13-0.035 0.057-0.029 0.091-0.072 0.091-0.057 0-0.046 0.059-0.089 0.059-0.026 0.011-0.071 0.059-0.071 0.059l-0.069 0.103s-0.06-0.026-0.071 0.015c-0.014 0.042-0.063 0.081-0.063 0.081s0.036 0.065-0.018 0.068c-0.043 0-0.047 0.027-0.075 0.06-0.038 0.033 0 0.074-0.053 0.074-0.06 0-0.107 0.055-0.107 0.055s0.021 0.062-0.031 0.062c-0.065 0.016-0.089 0.016-0.096 0.053-0.001 0.03-0.035 0.078-0.067 0.12-0.035 0.036-0.058 0.008-0.083 0.053-0.04 0.039-0.04 0.039-0.084 0.093-0.033 0.052-0.053 0.108-0.103 0.115-0.046 0-0.054-0.046-0.086-0.029-0.041 0.022-0.031 0.043-0.052 0.104-0.029 0.055-0.03 0.024-0.074 0.077-0.029 0.032-0.002 0.118-0.047 0.118-0.051 0.02-0.101 0-0.128 0.052-0.041 0.058 0.012 0.086-0.041 0.119-0.051 0.053-0.083 0.027-0.104 0.072-0.022 0.043-0.046 0.069-0.089 0.129-0.042 0.062-0.01 0.084-0.08 0.105-0.058 0.008-0.075 0.032-0.087 0.082-0.03 0.037 0.025 0.064-0.074 0.097-0.084 0.036-0.105 0.028-0.092 0.057 0 0.035 0 0.068-0.013 0.057-0.019-0.009-0.053-0.086-0.061-0.078-0.014 0.021-0.014 0.007-0.049 0.04-0.036 0.038-0.054 0.028-0.066 0.066 0 0.061 0.03 0.16 0 0.179-0.041 0.008-0.083-0.031-0.113 0.025-0.025 0.049-0.061 0.108-0.061 0.108s-0.085 0.047-0.093 0.078c-0.004 0.034 0.02 0.034-0.004 0.084-0.029 0.042-0.075 0.106-0.108 0.121-0.054 0-0.056 0.03-0.083 0.078-0.025 0.039-0.025 0.09-0.071 0.09-0.047-0.007-0.093-0.026-0.106 0-0.005 0.028 0.059 0.067-0.005 0.076-0.059 0.023-0.103 0.045-0.121 0.057-0.021 0.02-0.056 0.104-0.089 0.114-0.003 0.02-0.032-0.006-0.062 0.025-0.043 0.048-0.082 0.117-0.086 0.153-0.007 0.045 0.007 0.045-0.037 0.086-0.051 0.057-0.051 0.098-0.073 0.146-0.011 0.044-0.051 0.121-0.097 0.154-0.033 0.053-0.088 0.061-0.088 0.095 0 0.047 0 0.1-0.044 0.1-0.045 0.008-0.055 0.056-0.107 0.058-0.021 0.018-0.061 0.042-0.128 0.124-0.047 0.093-0.13 0.19-0.156 0.228-0.033 0.047-0.076 0.107-0.118 0.151-0.038 0.039-0.104 0.008-0.136 0.056-0.026 0.036-0.014 0.062-0.042 0.108-0.021 0.034-0.021 0.098-0.069 0.112-0.029 0.015 0.016 0.034-0.029 0.055-0.044 0.013-0.044 0.035-0.112 0.087-0.044 0.061-0.161 0.142-0.179 0.18-0.011 0.03-0.011 0.06-0.039 0.1-0.033 0.045-0.067 0.085-0.08 0.125-0.027 0.04-0.018 0.077-0.054 0.117-0.041 0.042-0.054 0.12-0.095 0.13-0.036 0-0.11-0.02-0.11 0.023-0.01 0.043 0 0.168-0.028 0.205-0.02 0.033-0.095 0.114-0.11 0.145-0.033 0.032-0.091 0.087-0.128 0.114-0.027 0.01-0.054 0.091-0.104 0.137-0.049 0.035-0.073 0.064-0.09 0.117-0.023 0.029 0 0.083-0.055 0.106-0.069 0.012-0.088-0.019-0.109 0.012-0.022 0.036 0.021 0.072-0.022 0.09-0.05 0-0.072 0.019-0.086 0.05-0.021 0.028-0.003 0.047-0.025 0.114-0.035 0.043-0.035 0.11-0.075 0.125-0.047 0.002-0.047 0.034-0.082 0.068-0.026 0.05-0.03 0.054-0.091 0.13-0.065 0.079-0.156 0.166-0.178 0.219-0.005 0.047-0.04 0.096-0.056 0.13-0.019 0.014-0.03 0.061-0.071 0.077-0.033 0.025-0.096 0-0.141 0.042-0.033 0.02-0.055 0.067-0.106 0.078-0.039 0-0.039-0.036-0.046 0.02-0.015 0.039-0.015 0.157-0.054 0.179-0.022 0.04-0.074 0.138-0.098 0.172-0.027 0.052-0.044 0.052-0.08 0.085-0.053 0.021-0.074 0.042-0.103 0.102-0.042 0.053-0.085 0.084-0.095 0.121-0.009 0.052 0 0.086-0.029 0.11-0.012 0.02-0.08-0.008-0.109 0.02-0.018 0.038-0.052 0.093-0.076 0.125-0.039 0.046-0.071 0.074-0.086 0.114-0.008 0.04-0.062 0.04-0.075 0.067-0.018 0.03-0.018 0.113-0.062 0.168-0.029 0.033-0.111 0.055-0.126 0.111-0.01 0.031-0.01 0.057-0.019 0.107-0.021 0.073-0.021 0.121-0.021 0.121s-0.058 0.005-0.036 0.018c0.028 0.025 0.058-0.004 0.058 0.041 0 0.041 0.005 0.103 0.019 0.111 0.016 0.008 0.052 0 0.052 0.03 0 0-0.036 0-0.047 0.024-0.014 0.02 0.047 0.103 0.011 0.109-0.047 0.008-0.092 0.011-0.146 0.047-0.049 0.046-0.09 0.046-0.167 0.074-0.078 0-0.13 0.027-0.188 0.04-0.064 0.013-0.093 0-0.13 0.074-0.031 0.061-0.026 0.061-0.053 0.117-0.041 0.079-0.064 0.158-0.041 0.255 0.027 0.094 0.011 0.094 0.027 0.137 0.031 0.034 0.06 0.034 0.075 0.068 0.014 0.034 0.014 0.12 0.029 0.151 0.029 0.028 0.048 0 0.082 0.028 0.031 0.032 0.069 0.146 0.06 0.195-0.029 0.032-0.029 0.082-0.062 0.12-0.047 0.036-0.038 0.036-0.047 0.083-0.003 0.057 0.017 0.026-0.003 0.09-0.029 0.07-0.029 0.136-0.12 0.145-0.073 0.013-0.098 0.025-0.108 0.06-0.011 0.034 0.021 0.093-0.02 0.102-0.043 0.056 0.036 0.086-0.038 0.096-0.059 0.014-0.107 0.068-0.154 0.021-0.063-0.03-0.079-0.061-0.108-0.117-0.043-0.028-0.043-0.068-0.099-0.044-0.06 0.017-0.085 0.044-0.085 0.087v0.121c0.019 0 0.074 0.008 0.04 0.032-0.04 0-0.029 0.013-0.029 0.062 0 0.044 0.039 0.044 0.053 0.059 0.004 0.04 0.029 0.077 0 0.13-0.035 0.055-0.064 0.055-0.064 0.107 0.011 0.068 0.05 0.039 0.04 0.102 0 0.078-0.015 0.129-0.057 0.139-0.054 0.026-0.095 0-0.095 0.075 0 0.065-0.015 0.132-0.039 0.208-0.025 0.082 0.017 0.102-0.034 0.204-0.034 0.083-0.013 0.184-0.028 0.223 0 0.036-0.042 0.069-0.049 0.13-0.014 0.053-0.046 0.034-0.046 0.129-0.021 0.087 0.037 0.28 0.02 0.349-0.041 0.037-0.07 0.009-0.07 0.054-0.003 0.06 0.021 0.045-0.051 0.133-0.061 0.068-0.122 0.124-0.174 0.126-0.055 0.036-0.13 0.021-0.15 0.036-0.022 0.039-0.07 0.083-0.107 0.137-0.028 0.062-0.057 0.102-0.125 0.111-0.049 0.011-0.069 0.023-0.1 0.077-0.021 0.047-0.063 0.089-0.081 0.131-0.008 0.062-0.008 0.106-0.075 0.158-0.061 0.028-0.124 0.09-0.154 0.094-0.042 0-0.042-0.04-0.092-0.031-0.053 0-0.065 0.049-0.065 0.091 0 0.045-0.036 0.104-0.098 0.104-0.049 0.02-0.096-0.008-0.14 0.047-0.016 0.036-0.049 0.051-0.042 0.077 0 0.016 0 0.117-0.021 0.066-0.024-0.036-0.054-0.033-0.089-0.051-0.029-0.016-0.047-0.042-0.063-0.005 0 0.035-0.047 0.065-0.047 0.106-0.011 0.033-0.011 0.053-0.044 0.077-0.035 0.03-0.053 0.03-0.057 0.074 0 0.05 0.043 0.086 0 0.116-0.032 0.05-0.032 0.021-0.02 0.075 0.012 0.07 0.02 0.07 0 0.104-0.023 0.023-0.043 0.087-0.071 0.097-0.036 0-0.036-0.021-0.053 0.027-0.023 0.05-0.023 0.074-0.081 0.074-0.053 0-0.031-0.027-0.067-0.027-0.054 0-0.154-0.03-0.179 0.003-0.022 0.028-0.018 0.085-0.061 0.085-0.042 0.024-0.2 0-0.245 0.03-0.055 0.041-0.08 0.074-0.102 0.138-0.016 0.042-0.02 0.007-0.046 0.073-0.029 0.064-0.014 0.075-0.068 0.097-0.027 0.007-0.07-0.032-0.075 0.023-0.021 0.058 0.004 0.073-0.021 0.114-0.037 0.036-0.05 0.036-0.092 0.068-0.043 0.026-0.043 0.083-0.107 0.083-0.075 0.006-0.075-0.018-0.1-0.057-0.028-0.039 0.014-0.059-0.039-0.059-0.054 0-0.133 0.02-0.166 0.026-0.039 0.002 0 0.047-0.041 0.032-0.044-0.004-0.068-0.03-0.105-0.027-0.034 0-0.053-0.012-0.077 0-0.031 0.042 0 0.084-0.042 0.09-0.028 0.012-0.171-0.006-0.205 0.012-0.006 0.027 0.034 0.084-0.003 0.089-0.027 0-0.011 0.049-0.041 0.059-0.027 0-0.108 0.057-0.201 0.057h-0.296c-0.057 0-0.149 0-0.195-0.01-0.038-0.012-0.135-0.031-0.145-0.057 0-0.025 0-0.054-0.034-0.063-0.011-0.023-0.067-0.023-0.067-0.023s-0.039-0.02-0.075-0.02c-0.043 0-0.047 0.02-0.047 0.058-0.007 0.023-0.02 0.048-0.075 0.059-0.053 0.047-0.205 0.047-0.238 0.047-0.014 0-0.078-0.031-0.078-0.031s-0.029-0.074-0.063-0.112c-0.044-0.038-0.099-0.062-0.146-0.062-0.029 0-0.064-0.023-0.081-0.048-0.019-0.015-0.071-0.041-0.12-0.019-0.041 0-0.074 0-0.087 0.033-0.034 0.027-0.073 0.072-0.094 0.033-0.029-0.033-0.08-0.006-0.08-0.048s-0.042-0.091-0.071-0.122c-0.034-0.028-0.072-0.102-0.124-0.108-0.029-0.011-0.086 0.016-0.127-0.017-0.038-0.049-0.038-0.097-0.081-0.129-0.033-0.021-0.033-0.035-0.086-0.035-0.051-0.006-0.159 0.035-0.19 0-0.033-0.026-0.082-0.053-0.139-0.092-0.072-0.036-0.175-0.139-0.242-0.171-0.053-0.073-0.078-0.055-0.111-0.12-0.042-0.07-0.042-0.126-0.065-0.126-0.038 0-0.038 0.043-0.068-0.028-0.034-0.039-0.05-0.074-0.085-0.067-0.04 0-0.153 0.028-0.2 0.013-0.043-0.013-0.098 0-0.113-0.038 0-0.059-0.004-0.155-0.025-0.232-0.017-0.058-0.04-0.068-0.062-0.085-0.025-0.019-0.058-0.033-0.04-0.049 0.018-0.026 0.028-0.058 0.015-0.084-0.015-0.08-0.033-0.1-0.062-0.096-0.038 0.012-0.063 0.048-0.074 0.012-0.023-0.023-0.064-0.016-0.097-0.045-0.04-0.016-0.031-0.058-0.068-0.079-0.042-0.027-0.049-0.044-0.107-0.084-0.042-0.043-0.033-0.055-0.072-0.091-0.044-0.058-0.067-0.093-0.089-0.045-0.021 0.045-0.014 0.078-0.055 0.062-0.045 0-0.031-0.017-0.073-0.017-0.037-0.011-0.128 0-0.185 0-0.06 0-0.069 0.033-0.103-0.029-0.04-0.063-0.059-0.075-0.059-0.128-0.004-0.059 0.019-0.047-0.055-0.101-0.071-0.059-0.1-0.073-0.102-0.107 0-0.042 0.008-0.083-0.039-0.083-0.053 0-0.075-0.027-0.085 0-0.016 0.021-0.043 0.073-0.06 0.048-0.026-0.028-0.026-0.047-0.061-0.09-0.026-0.055-0.035-0.077-0.089-0.089-0.032-0.002-0.065-0.059-0.074-0.035-0.01 0.026-0.01 0.085-0.066 0.049-0.054-0.033-0.132-0.102-0.15-0.138-0.013-0.057-0.05-0.084-0.093-0.105-0.035-0.016-0.093-0.016-0.104-0.07 0-0.067 0.011-0.139-0.024-0.183-0.04-0.047-0.029-0.201-0.051-0.217-0.026-0.038-0.044-0.025-0.065-0.053-0.032-0.041-0.063-0.07-0.093-0.077-0.038-0.01-0.016-0.046-0.069-0.046-0.04 0-0.06 0.035-0.115 0.01-0.053-0.031-0.096-0.044-0.096-0.083-0.008-0.043-0.032-0.115-0.065-0.102-0.052 0-0.062 0.013-0.084 0.043-0.011 0.037-0.054 0.062-0.104 0.037-0.044-0.03-0.094-0.067-0.062-0.08 0.033-0.035 0.038-0.191 0.005-0.204-0.03 0-0.03-0.059-0.06-0.09-0.006-0.031 0.015-0.097-0.006-0.104-0.047 0-0.063 0.037-0.078 0-0.012-0.047 0.015 0-0.03-0.08-0.051-0.059-0.019-0.15-0.051-0.196-0.041-0.034-0.11-0.034-0.129-0.09-0.032-0.031-0.045-0.035-0.09-0.047-0.05 0-0.05-0.017-0.102-0.031-0.04 0-0.061-0.021-0.086-0.059-0.038-0.017-0.081-0.022-0.081-0.063 0-0.027 0.027-0.027 0-0.043-0.036-0.023-0.053-0.023-0.022-0.041 0.032-0.036 0.049-0.07 0.022-0.086-0.049-0.012-0.074 0.027-0.087-0.033-0.012-0.043 0.013-0.133-0.023-0.153-0.026-0.029-0.031-0.043-0.051-0.071-0.008-0.034 0.007-0.008-0.058-0.048-0.08-0.059-0.152-0.077-0.141-0.142 0-0.031 0.014-0.072-0.025-0.058-0.062 0.005-0.062 0.025-0.092-0.033-0.028-0.06-0.006-0.15-0.043-0.15-0.042 0-0.104 0-0.137-0.02-0.043-0.038-0.092-0.038-0.132-0.053-0.029-0.005-0.014-0.082-0.053-0.121-0.052-0.052-0.028-0.104-0.083-0.109-0.057-0.021-0.106-0.01-0.158-0.032-0.054-0.028-0.067-0.06-0.067-0.118-0.013-0.096 0.013-0.307-0.059-0.332-0.058-0.032-0.158 0-0.172-0.053-0.02-0.054-0.024-0.077-0.088-0.121-0.046-0.052-0.094-0.11-0.115-0.177-0.019-0.071-0.001-0.199-0.054-0.301-0.06-0.106-0.105-0.136-0.175-0.152-0.063-0.017-0.13-0.014-0.175-0.066-0.047-0.049-0.139-0.077-0.208-0.167-0.077-0.109-0.082-0.206-0.117-0.274-0.021-0.06-0.066-0.025-0.11-0.099-0.044-0.08-0.072-0.186-0.096-0.23-0.037-0.022-0.115-0.007-0.095-0.076 0.015-0.071 0.038-0.108-0.051-0.138-0.092-0.032-0.092 0.029-0.149-0.032-0.069-0.059-0.106-0.145-0.112-0.274 0-0.111-0.02-0.211-0.066-0.256-0.041-0.03-0.041-0.094-0.111-0.146-0.079-0.068-0.116-0.068-0.165-0.15-0.036-0.084-0.022-0.044-0.068-0.143-0.041-0.106-0.06-0.18-0.101-0.217-0.037-0.044-0.094-0.074-0.138-0.154-0.056-0.052-0.059-0.12-0.113-0.197-0.056-0.055-0.13-0.056-0.162-0.105-0.03-0.044-0.054-0.072-0.104-0.145-0.039-0.064-0.022-0.226-0.054-0.267-0.032-0.018-0.059-0.051-0.108-0.099-0.055-0.066-0.107-0.096-0.125-0.18-0.006-0.067 0-0.067-0.065-0.117-0.053-0.054-0.142-0.083-0.111-0.115 0.016-0.036 0.035-0.105 0.006-0.099-0.036 0-0.006-0.109-0.047-0.133-0.032-0.032-0.009-0.09-0.057-0.09-0.047 0.01-0.051 0.038-0.088-0.016-0.052-0.069-0.102-0.159-0.061-0.2 0.029-0.036 0.034-0.056 0.02-0.106-0.02-0.033-0.089-0.108-0.124-0.108-0.051-0.009-0.093 0.022-0.115-0.082-0.015-0.098-0.065-0.082-0.065-0.206 0-0.142 0.015-0.16-0.052-0.222-0.062-0.041-0.099-0.023-0.104-0.157-0.013-0.117-0.013-0.263-0.061-0.357-0.074-0.091-0.108-0.26-0.126-0.397 0-0.131-0.036-0.248-0.067-0.336-0.005-0.101-0.018-0.219-0.049-0.292-0.013-0.07-0.099-0.105-0.073-0.177 0.008-0.081 0.008-0.104 0.003-0.199-0.003-0.104-0.062-0.112-0.049-0.174 0.026-0.072 0.02-0.11 0.016-0.178-0.016-0.057-0.049-0.458-0.079-0.522-0.041-0.061-0.086-0.098-0.118-0.222-0.025-0.125-0.049-0.2-0.078-0.289-0.044-0.087-0.078-0.087-0.073-0.182 0-0.081 0.042-0.081 0.029-0.128-0.01-0.037-0.046-0.09-0.042-0.129 0-0.052 0.032-0.09 0.055-0.157 0.015-0.067 0.042-0.207 0.088-0.215 0.053-0.004 0.073 0 0.139-0.068 0.062-0.047 0.049-0.151 0.116-0.157 0.065-0.014 0.176 0.029 0.231-0.023 0.053-0.052 0.021-0.066 0.089-0.081 0.076-0.023 0.157 0.015 0.19-0.041 0.034-0.056 0-0.15 0.026-0.197 0.027-0.051-0.015-0.129 0.008-0.161 0.027-0.024 0.072-0.092 0.042-0.172-0.042-0.068-0.117-0.093-0.153-0.149-0.037-0.079-0.067-0.094-0.037-0.141 0.026-0.058 0.062-0.147 0.062-0.147s-0.035-0.048 0.044-0.1c0.086-0.065 0.108-0.007 0.108-0.092-0.013-0.11-0.046-0.056-0.088-0.147-0.044-0.09-0.125-0.103-0.032-0.133 0.097-0.013 0.103 0.017 0.122-0.068 0.021-0.068 0.007-0.096 0.096-0.127 0.099-0.016 0.099-0.06 0.132-0.016 0.038 0.047 0.064 0.09 0.115 0.047 0.048-0.031 0.068-0.031 0.134-0.105 0.054-0.096 0.044-0.096 0.098-0.135 0.061-0.029 0.093-0.072 0.093-0.072l0.052-0.125s0.074 0.017 0.132-0.088c0.071-0.094 0.092-0.08 0.167-0.149 0.077-0.073 0.096 0 0.098-0.131 0-0.099-0.011-0.15 0.009-0.248 0.033-0.097 0.102-0.072 0.102-0.154-0.005-0.075 0.038-0.05 0-0.099-0.054-0.052-0.054-0.17-0.054-0.17l0.113-0.133 0.13-0.083s0.142 0.057 0.195-0.006c0.05-0.051 0.121-0.062 0.121-0.062s0.07-0.141 0.121-0.141c0.068-0.016 0.183-0.063 0.183-0.063s0.123-0.104 0.157-0.139c0.051-0.038 0.11-0.125 0.11-0.125s0.104-0.053 0.096-0.128c-0.007-0.08 0.008-0.172 0.008-0.172l0.087-0.117 0.178-0.153 0.096-0.197-0.056-0.151s-0.033-0.155-0.004-0.188c0.033-0.035 0.09-0.057 0.115-0.035 0.022 0.016 0.022 0.074 0.059 0.035 0.03-0.035 0.011-0.1 0.079-0.1 0.074 0 0.074 0.028 0.104 0.065 0.03 0.035-0.008 0.1 0.056 0.053 0.071-0.038 0.029-0.104 0.1-0.104 0.064 0 0.109 0.035 0.109 0.035s0.147 0.023 0.158-0.049c0.021-0.076-0.009-0.205 0.021-0.255 0.027-0.062 0.075-0.141 0.098-0.192 0.03-0.048 0.029-0.09 0.088-0.112 0.043-0.032 0.057-0.063 0.08-0.121 0.028-0.058 0.019-0.132 0.075-0.162 0.04-0.012 0.054-0.012 0.114-0.034 0.051-0.032 0.075 0.004 0.122-0.093 0.05-0.078 0.05-0.166 0.05-0.166l0.098-0.168 0.079-0.072s-0.024-0.199 0.025-0.245c0.021-0.03 0.149-0.01 0.149-0.048 0-0.028-0.007-0.16 0.018-0.184 0.035-0.017 0.098-0.09 0.137-0.062 0.046 0.025 0.104 0.062 0.151 0.045 0.064-0.026 0.052-0.06 0.085-0.095 0.035-0.041 0.005-0.084 0.06-0.125 0.038-0.051 0.12-0.011 0.155-0.048s0.035-0.03 0.105-0.1c0.069-0.068 0.107-0.153 0.166-0.149 0.063 0.019 0.063 0.019 0.117 0.03 0.06 0.018 0.103 0.02 0.188 0.018 0.064-0.018 0.052-0.051 0.088-0.051 0.06 0 0.07 0.024 0.125 0.022 0.066-0.015 0.104-0.019 0.156-0.117 0.052-0.1 0.056-0.143 0.123-0.168 0.061-0.029 0.105-0.036 0.132-0.125 0.026-0.061-0.029-0.074 0-0.133 0.038-0.051 0.015-0.053 0.102-0.1 0.077-0.032 0.042-0.006 0.069-0.049 0.025-0.036 0.061-0.106 0.061-0.106l0.125-0.096s0.117 0 0.117-0.033c0.003-0.066-0.011-0.147 0.05-0.125 0.054 0.021 0.139 0.065 0.139 0.065s0.077 0.06 0.107 0.073c0.029 0.02 0.014 0.075 0.062 0.075 0.048-0.012 0.072-0.029 0.107-0.012 0.039 0.012 0.2-0.027 0.224 0.012 0.01 0.04 0.074 0.06 0.112 0.06 0.067-0.02 0.129 0.032 0.129 0.032l0.086 0.097s0.109-0.026 0.138-0.019c0.039 0.027 0.054 0.072 0.075 0.108 0.035 0.045 0.013 0.076 0.013 0.076s-0.049 0.036 0 0.08c0.058 0.062 0.145 0.072 0.145 0.072s0.098-0.078 0.12-0.017c0.008 0.047 0.019 0.089 0.074 0.114 0.053 0.026 0.083-0.025 0.096 0.026 0.022 0.043-0.025 0.06 0.062 0.06 0.068 0 0.168-0.029 0.192-0.017 0.039 0.007 0.015 0.007 0.015 0.007 0.036 0.041 0.09 0.068 0.09 0.136 0 0.053 0.008 0.1 0.041 0.16 0.021 0.084 0.106 0.193 0.152 0.239 0.038 0.026 0.081 0.026 0.11 0.061 0.006 0.022 0.006 0.076 0.006 0.076s0.104-0.012 0.14-0.012c0.038 0.012 0.08 0.02 0.084 0.063 0.005 0.025-0.004 0.12 0.025 0.12 0.022 0.002 0.032-0.016 0.053 0.012 0.014 0.027 0 0.071 0.042 0.098 0.034 0.024 0.092 0.083 0.12 0.083 0.021 0 0.106 0 0.128-0.017 0.021 0 0.056 0 0.056 0.037-0.003 0.03 0 0.044 0.023 0.074 0.014 0.034 0.068 0.103 0.102 0.115 0.026 0.021 0.056 0.036 0.056 0.036v0.064s0.078-0.033 0.089-0.004c0 0.012 0 0.108 0.029 0.137 0.041 0.031 0.06 0.087 0.109 0.11 0.067 0.033 0.099 0.045 0.11 0.083 0.002 0.042 0.002 0.063 0.025 0.096 0.02 0.038 0.042 0.125 0.072 0.185 0.033 0.058 0.114 0.126 0.147 0.126 0.01 0.007 0.054-0.008 0.054 0.027 0 0.046 0.01 0.103 0.021 0.136 0.018 0.037 0.071 0.108 0.115 0.149 0.031 0.051 0.134 0.089 0.164 0.118 0.004 0.043 0.029 0.095 0.047 0.179 0.023 0.062 0.06 0.108 0.078 0.163 0.026 0.055 0.091 0.137 0.133 0.157 0.052 0.007 0.068 0.007 0.076 0.054 0.01 0.058 0.01 0.113 0.01 0.113s0.032 0 0.038 0.058c0.018 0.061 0.018 0.135 0.072 0.163 0.049 0.023 0.112 0 0.113 0.033 0.023 0.036 0.023 0.172 0.064 0.222"/>
						<path d="m34.484 64.408c0.024 0 0.101 0.006 0.101 0.006s0.051 0.049 0.073 0.049c0.026 0 0.047 0.059 0.038 0.099-0.011 0.026-0.05 0.022-0.117 0.022-0.078 0-0.163 0.021-0.191 0.021-0.048 0-0.057-0.017-0.048-0.05 0.02-0.036 0.048-0.033 0.021-0.059-0.001-0.033 0.022-0.066 0.052-0.082 0.032-0.006 0.048-0.006 0.071-0.006z"/>
						<path d="m34.194 64.671c0.029 0 0.06 0.014 0.06 0.028 0 0 0.051-0.015 0.067 0.013 0.011 0.036 0.02 0.094 0.011 0.102-0.026 0.025-0.026 0.028-0.044 0.06-0.025 0.031-0.042 0.048-0.054 0.065-0.025 0.035-0.062 0.06-0.08 0.086-0.014 0.027-0.075 0.054-0.075 0.094-0.01 0.015 0.028 0.049-0.034 0.054-0.055 0.008-0.091-0.004-0.116 0.008-0.031 0.032-0.047 0.032-0.047 0.06-0.015 0.033 0.017 0.106-0.032 0.106-0.044 0-0.064 0.027-0.089-0.013-0.015-0.029-0.052-0.068-0.027-0.086 0.025-0.025 0.025-0.025 0.04-0.05 0.033-0.017 0.074-0.017 0.077-0.047 0.017-0.032 0.049-0.017 0.08-0.032 0.013-0.04 0.013-0.067 0.042-0.067 0.045-0.017 0.066-0.017 0.078-0.053 0.03-0.025 0.059-0.013 0.059-0.077 0.005-0.049 0.017-0.089 0.044-0.115 0.014-0.042 0.021-0.028 0.014-0.08-0.015-0.056-0.015-0.056 0.026-0.056z"/>
						<path d="m33.758 64.974c-0.013 0 0 0.025-0.025 0.042-0.02 0.02-0.049 0.037-0.042 0.05 0.017 0.006 0.054 0.006 0.067 0.022 0 0.031 0 0.052 0.027 0.046 0.02 0 0.028 0 0.035-0.046 0.008-0.036 0.008-0.03-0.015-0.063-0.02-0.039-0.02-0.051-0.047-0.051z"/>
						<path d="m33.508 65.197c0.023 0 0.054-0.051 0.09-0.025 0.017 0.025 0.023 0.076 0.023 0.117 0 0.015 0.004 0.015-0.007 0.044-0.017 0.039-0.033 0.058-0.047 0.086-0.017 0.041-0.005 0.074-0.022 0.088-0.022 0.004 0 0.052-0.031 0.07-0.013 0.027-0.013 0.027-0.04 0.062-0.014 0.035-0.051 0.072-0.071 0.095-0.003 0.025-0.034 0.034-0.053 0.062-0.025 0.016-0.038 0.016-0.051 0.046-0.003 0.03-0.025 0.077-0.066 0.042-0.051 0-0.084-0.056-0.069-0.072 0.03-0.016 0.076-0.016 0.09-0.044 0.013-0.019 0.045-0.06 0.083-0.095 0.032-0.033 0.032-0.096 0.062-0.125 0.022-0.037 0.022-0.038 0.029-0.089 0.02-0.053 0.01-0.068 0.03-0.114 0.01-0.058 0.01-0.073 0.01-0.106 0.002-0.026 0.006-0.053 0.04-0.042z"/>
						<path d="m33.149 65.549c0.016-0.004 0.033 0.003 0.045 0.029 0.013 0.027 0.013 0.042-0.012 0.062-0.025 0.016-0.036 0.01-0.033-0.027 0 0-0.022-0.061 0-0.064z"/>
						<path d="m33.042 65.735c0.012 0 0.012 0.025 0.012 0.049 0 0-0.021 0.045-0.04 0.017-0.009-0.017-0.009-0.079 0.01-0.079 0.008-0.01 0.008-0.01 0.018 0.013z"/>
						<path d="m32.967 65.984s0.038-0.05 0.038-0.032c0 0 0.009 0.032 0.028 0.032 0.009 0 0.043 0.036 0.028 0.063-0.007 0.025-0.046 0.025-0.046 0.037-0.009 0.008-0.047 0.01-0.061 0.047-0.011 0.012-0.046 0.067-0.046 0.086 0 0.011 0 0.047-0.029 0.057-0.025 0-0.076 0-0.09 0.025-0.018 0.001 0 0.032-0.018 0.061-0.015 0.038 0 0.072-0.038 0.078-0.039 0.01-0.071 0.035-0.091 0-0.009-0.028-0.035-0.058-0.001-0.074 0.022-0.004 0-0.004 0.022-0.035 0.044-0.04 0.074 0 0.074-0.053 0.02-0.049 0.034-0.049 0.067-0.079 0.006-0.03 0.036-0.046 0.066-0.103 0.025-0.022 0.029-0.022 0.047-0.059 0.025-0.02 0.036-0.02 0.05-0.051z"/>
						<path d="m32.182 66.677s0.03-0.02 0.047-0.008c0.016 0.008 0.008 0.045 0.029 0.045 0.023 0 0.05 0.029 0.039 0.045-0.02 0.014-0.033 0.019-0.039 0.057-0.014 0.031-0.032 0.051-0.046 0.051-0.026 0.007-0.094 0.044-0.094 0.013-0.021-0.022-0.021-0.033 0-0.054 0-0.023 0.024-0.048 0.035-0.067 0-0.017 0-0.063 0.029-0.082z"/>
						<path d="m32.945 66.847c-0.014 0.011-0.003 0.033-0.029 0.033-0.018 0-0.031 0.018-0.022 0.048 0.004 0.029-0.015 0.049-0.015 0.072 0 0.037 0.02 0.058-0.01 0.07-0.03 0.021-0.06 0.04-0.087 0.04-0.046 0-0.075 0-0.087 0.029 0 0.029-0.032 0.06-0.044 0.077-0.018 0.009-0.044 0.023-0.058 0.073 0 0 0 0.076 0.03 0.094 0.019 0.018 0.039 0.062 0.071 0.045 0.035 0 0.062-0.02 0.077-0.035 0-0.018 0.05 0.008 0.068-0.017 0.015-0.036 0-0.05 0.03-0.087 0.029-0.05 0.029-0.083 0.039-0.112 0.023-0.038 0-0.086 0.023-0.119 0.015-0.052 0-0.052 0.037-0.081 0.038-0.038 0.011-0.065 0.035-0.079 0.022 0 0.04-0.023 0.022-0.032-0.019-0.009-0.054 0.023-0.046-0.009-0.001-0.031-0.012-0.024-0.034-0.01z"/>
						<path d="m33.219 66.626c0.022-0.021 0.048-0.021 0.081-0.021 0.014 0 0.038 0.029 0.038 0.06 0.007 0.032 0.013 0.049 0 0.086-0.012 0.027-0.038 0.022-0.062 0.051-0.001 0.045 0.021 0.096 0 0.118-0.008 0.038-0.001 0.057-0.021 0.081-0.021 0-0.021 0.058-0.039 0.037-0.033 0-0.021-0.037-0.058-0.048-0.011-0.012-0.046-0.077-0.008-0.091 0.016-0.031 0.016-0.051 0.033-0.096 0-0.043 0.012-0.051 0.025-0.089 0.011-0.037-0.009-0.057 0.011-0.088z"/>
						<path d="m33.573 66.398s0.025-0.034 0.042-0.055c0-0.043 0.026-0.069 0.051-0.044 0.025 0.017 0.025 0.044 0.018 0.081 0 0.03-0.018 0.03-0.029 0.052-0.011 0.021-0.011 0.056-0.041 0.041-0.041-0.02-0.033-0.057-0.041-0.075z"/>
						<path d="m32.182 67.558c0.025 0 0.044-0.026 0.076-0.026 0.023 0 0.057 0.05 0.05 0.069-0.011 0.026-0.031 0.017-0.042 0.04 0 0.004 0.015 0.05-0.008 0.05-0.032 0.022-0.046 0.022-0.051 0.039-0.01 0.01-0.032 0.042-0.032 0.042 0 0.051-0.022 0.101 0.007 0.088 0.033 0 0.062 0.029 0.044 0.029-0.035 0.021-0.064 0.021-0.074 0.037-0.022 0.038-0.068 0.087-0.075 0.056-0.011-0.023-0.036-0.036-0.04-0.071-0.017-0.051-0.042-0.115-0.024-0.129 0.042-0.012 0.028-0.012 0.043-0.062 0.021-0.047 0.01-0.075 0.035-0.079 0.026-0.024 0.05 0.021 0.063-0.024 0.028-0.053-0.001-0.053 0.028-0.059z"/>
						<path d="m31.869 67.984c-0.025 0.029 0 0.076-0.025 0.059-0.021 0-0.07-0.005-0.107 0-0.033 0.025-0.039 0.028-0.037 0.06 0.004 0.03 0 0.065 0.032 0.065 0.027-0.02 0.058-0.032 0.058 0 0.012 0.006 0 0.039 0.012 0.061 0 0 0.024-0.022 0.03 0 0.012 0.025 0 0.056 0.037 0.039 0.021-0.012 0.045-0.012 0.045-0.039 0-0.035 0.005-0.022 0.027-0.061 0.01-0.035-0.027-0.095 0-0.098 0.014-0.002 0.036-0.011 0.029-0.028-0.02-0.029-0.057 0-0.057-0.029 0.001 0-0.017-0.034-0.044-0.029z"/>
						<path d="m31.176 68.311c0-0.015 0.033-0.015 0.043-0.026 0.017 0 0.029 0.026 0 0.026-0.01 0.02-0.043 0.047-0.043 0.027-0.017-0.016-0.024-0.016 0-0.027z"/>
						<path d="m31.137 68.443s0.022 0.054 0 0.054c-0.028 0-0.028 0.016-0.028 0.043 0 0 0 0.036-0.02 0.036h-0.069c0 0.034-0.008 0.058-0.023 0.059-0.02 0-0.031 0.026-0.031 0.056 0.006 0.028 0.046 0.028 0.046 0.028 0 0.013-0.015 0.023 0.008 0.029 0.025 0.01 0.069 0.038 0.089 0.015 0.013-0.005 0.028-0.021 0.028-0.044 0-0.017 0.022-0.028 0.022-0.028 0-0.021 0.017-0.021 0.017-0.029 0.02-0.026 0-0.062 0.02-0.069 0.013-0.016 0.04-0.016 0.04-0.036 0 0 0-0.059-0.019-0.059-0.021 0-0.042-0.011-0.042-0.011 0.001-0.025 0.001-0.066-0.038-0.044z"/>
						<path d="m31.137 68.763s0.015-0.015 0.039-0.015v0.04h-0.039c-0.01 0 0-0.025 0-0.025z"/>
						<path d="m30.867 68.788c0.016-0.002 0.044-0.025 0.044-0.025s0.054-0.006 0.06-0.006c0.016 0.006 0.041 0 0.041 0s0.008 0.057 0.008 0.086c0.017 0.01 0.025 0.046 0 0.046-0.033 0-0.054-0.016-0.054 0.008-0.001 0.026-0.025 0.04-0.035 0.044-0.008 0.016-0.048 0.016-0.05 0.043-0.014 0.014-0.014 0.014-0.021 0.029-0.013 0.021-0.025 0.021-0.034 0.038-0.01 0.011-0.01 0.051-0.01 0.051 0 0.018 0.031 0.009 0.044 0.021 0 0.016 0.007 0.063 0.007 0.063 0 0.025-0.007 0.044-0.02 0.059-0.012 0.014-0.062 0.044-0.064 0.044h-0.039c-0.014 0.025-0.026 0.05-0.022 0.067 0.008 0.011 0.008 0.041-0.015 0.042 0 0 0 0.05-0.052 0.05-0.05-0.012-0.076-0.02-0.097 0 0 0 0.021 0.031 0.021 0.047 0 0-0.021 0.053-0.021 0.066 0 0.031 0.021 0.057 0 0.057-0.018 0-0.023 0.027-0.036 0.027-0.016 0.003-0.043 0.01-0.045 0.01-0.023-0.006-0.013-0.037-0.041-0.037h-0.064l-0.038-0.057s-0.006 0.021-0.018-0.013c-0.005-0.028-0.033-0.045-0.011-0.059 0.011-0.034 0.023-0.016 0.029-0.042 0-0.02-0.006-0.05 0-0.068 0.025-0.012 0.025-0.049 0.038-0.049 0.021-0.022 0.004-0.041 0.026-0.041 0.038 0 0.038-0.059 0.065-0.059 0.026 0 0.026 0.059 0.058 0.044 0.013 0 0.018 0.014 0.036-0.03 0.021-0.014 0.021-0.014 0.057-0.034 0.011-0.035 0.011-0.035 0.029-0.072 0.011-0.019 0.011-0.028 0.038-0.066 0.019-0.022 0.062-0.022 0.073-0.022 0.02 0 0.039 0 0.029-0.029-0.001-0.024-0.01-0.096-0.001-0.122 0.011-0.012 0.017-0.012 0.033-0.028 0.01-0.02 0.019-0.06 0.031-0.069 0.015-0.001 0.002-0.001 0.021-0.014z"/>
						<path d="m31.037 67.749c0.009-0.008 0.038-0.019 0.053-0.012 0.02 0.003 0.02 0.028 0.021 0.035 0.012 0.03-0.021 0.023-0.021 0.023-0.011 0.036-0.011 0.064-0.019 0.064-0.025-0.015-0.034-0.037-0.05-0.064-0.001-0.023-0.001-0.03 0.016-0.046z"/>
						<path d="m29.036 69.956c0.029-0.005 0.013-0.066 0.05-0.057 0.033 0 0.065-0.01 0.07 0.015 0.008 0.019-0.005 0.072-0.014 0.093-0.023 0.033-0.014 0.064-0.057 0.064-0.035-0.015-0.05-0.048-0.063-0.048-0.01 0-0.061 0-0.04-0.024 0.014-0.023 0.041-0.035 0.054-0.043z"/>
						<path d="m29.631 69.976c0.014 0 0.011-0.042 0.047-0.052 0.048-0.009 0.098-0.034 0.108-0.009 0.001 0.036 0.043 0.036 0.032 0.061 0 0.011-0.046 0.032-0.046 0.032s-0.06 0.016-0.068 0.033c-0.026 0-0.02 0.031-0.059 0.031-0.028 0-0.06 0-0.06-0.031 0-0.033 0.029-0.033 0.032-0.041 0.025 0-0.006-0.024 0.014-0.024z"/>
						<path d="m29.581 70.168s0.089-0.019 0.097-0.019c0.026-0.018 0.057 0.007 0.048 0.039 0 0.032-0.022 0.04-0.048 0.061-0.008 0.022-0.047 0.002-0.037 0.047 0 0.049-0.04 0.07-0.04 0.094 0 0-0.021 0.085-0.029 0.116-0.006 0.012-0.029 0.071-0.029 0.071 0 0.029-0.031 0.046-0.092 0.046-0.057 0-0.057 0-0.087 0.032-0.055 0.016-0.114 0.093-0.137 0.102-0.025 0.026-0.04 0.074-0.04 0.101 0 0.033 0.01 0.042-0.013 0.063-0.018 0.022-0.055 0.022-0.088 0.031-0.021 0.018-0.045 0.018-0.063 0.047-0.01 0.014 0 0.06-0.04 0.07-0.032 0.012-0.14 0.033-0.14 0.033s-0.08 0.045-0.09 0.075c-0.021 0.034-0.038 0.074-0.049 0.106 0 0.028-0.008 0.05-0.018 0.083-0.014 0.051-0.041 0.081-0.047 0.111-0.016 0.012-0.052 0.042-0.052 0.042 0 0.052-0.049 0.082-0.072 0.06-0.009-0.008-0.043-0.06-0.021-0.085 0.021-0.018 0.044-0.018 0.057-0.078 0-0.068 0.036-0.107 0.036-0.147 0-0.046-0.025-0.079 0.014-0.124 0.044-0.045 0.048-0.078 0.073-0.104 0.022-0.01 0.09-0.029 0.097-0.074 0-0.047 0.025-0.06 0.056-0.111 0.029-0.058 0.012-0.08 0.07-0.101 0.063-0.008 0.154 0.043 0.154-0.008 0.015-0.054 0.024-0.078 0.035-0.093 0.017-0.032 0.042-0.054 0.042-0.09 0-0.03 0.023-0.088 0.069-0.076 0.053 0.007 0.097 0.046 0.122 0.03 0.034 0 0.003-0.03 0.045-0.042 0.03 0 0.113-0.031 0.131-0.067 0.018-0.019 0.018-0.019 0.018-0.074 0-0.039-0.014-0.039 0.017-0.083 0.023-0.032 0.023-0.064 0.051-0.084z"/>
						<path d="m28.386 71.282c0.011 0 0.011 0.028 0.011 0.05 0 0.017 0.013 0.045-0.007 0.04-0.034-0.007-0.044-0.023-0.044-0.023 0.01-0.067 0.025-0.067 0.04-0.067z"/>
						<path d="m27.828 71.134c-0.01 0-0.052 0.035-0.052 0.035 0 0.027 0 0.081 0.025 0.112 0.017 0.028 0.037 0.028 0.045 0 0.027-0.032 0.01-0.056 0.027-0.072 0.017-0.02 0.026 0 0.026-0.04-0.009-0.052-0.054-0.035-0.071-0.035z"/>
						<path d="m27.932 71.489c0 0.03 0.011 0.053 0 0.075-0.01 0.015-0.01 0.084-0.042 0.084-0.035 0-0.044 0-0.053 0.011-0.009 0.046-0.036 0.059-0.042 0.072-0.003 0.022-0.055 0.015-0.036 0.039 0.016 0.016 0.078 0.041 0.086 0.046 0.001 0.006 0.028-0.054 0.044-0.054 0.02-0.009 0.042 0.029 0.042 0.06v0.076c-0.009 0.026-0.042 0.054-0.051 0.054-0.007 0-0.007 0.036-0.007 0.054 0 0 0.036 0.011 0.058 0.011 0.02 0 0.045 0 0.064-0.029 0.022-0.009 0.076-0.03 0.076-0.063 0-0.029-0.022-0.171-0.022-0.234 0-0.055-0.01-0.197-0.01-0.215-0.001-0.039-0.034-0.049-0.051-0.039-0.024 0.04-0.046 0.04-0.056 0.052z"/>
						<path d="m27.693 71.835c0.002-0.012 0.046-0.043 0.046-0.012 0.025 0.012 0 0.067 0 0.067s-0.031 0.027-0.04 0.009c0.001-0.019-0.011-0.041-0.006-0.064z"/>
						<path d="m27.776 72.111c-0.011 0-0.017 0.029-0.036 0.029-0.031 0-0.046 0.021-0.044 0.038 0.004 0.026 0.004 0.074-0.002 0.074-0.005 0-0.049 0.04-0.043 0.061 0 0.02 0.038 0.042 0.049 0.042 0.021 0 0.06 0 0.072-0.004 0.021-0.011 0.023-0.051 0.046-0.051 0.019 0 0.055-0.027 0.062-0.047 0.01 0 0.042-0.039 0.042-0.039 0-0.045-0.022-0.086-0.042-0.102-0.007-0.004-0.079-0.001-0.104-0.001z"/>
						<path d="m26.596 72.83c0.023 0 0.023 0.02 0.043 0.051 0.026 0.031 0.033 0.06 0.033 0.09 0 0.017 0.007 0.071 0 0.087-0.007 0.007-0.069 0.011-0.069 0.011 0-0.034-0.04-0.034-0.036-0.063 0-0.028 0.029-0.028 0.029-0.052 0-0.014-0.029-0.105 0-0.124z"/>
						<path d="m27.305 72.83c-0.01-0.004 0.032-0.038 0.042-0.038 0.022 0 0.022 0.008 0.022 0.008 0 0.042-0.063 0.081-0.064 0.03z"/>
						<path d="m24.019 76.116c-0.022 0 0 0.042 0 0.099 0.011 0.061 0 0.104 0.022 0.078 0.029-0.004 0-0.058 0.015-0.058 0.019-0.021 0.06-0.056 0.035-0.077-0.035-0.003-0.035-0.017-0.035-0.038 0-0.031 0-0.019-0.037-0.004z"/>
						<path d="m26.039 73.643c0.021 0 0.039 0.061 0.049 0.078 0.011 0.014 0.08 0.056 0.097 0.036 0.028-0.007 0.058-0.007 0.069 0.008 0.021 0.013-0.012 0.081-0.023 0.086-0.027 0.032-0.051 0.062-0.063 0.106 0 0.028-0.024 0.082-0.037 0.082s-0.071-0.042-0.086-0.042c-0.005 0-0.057 0-0.057 0.008 0.006 0.044 0.013 0.132-0.027 0.15-0.028 0.022-0.062 0.027-0.082 0.057-0.024 0.024-0.085 0.035-0.085 0.035s0 0.092-0.018 0.092c-0.032-0.009-0.053-0.018-0.071-0.036 0-0.015-0.054-0.067-0.064-0.067-0.016 0-0.097 0.011-0.104 0-0.02-0.002-0.044-0.024-0.073-0.053-0.013-0.001-0.054-0.069-0.053-0.091 0.015-0.042 0.051-0.095 0.061-0.095 0.021 0 0.021 0.07 0.025 0.095 0.008 0 0.043 0.06 0.062 0.06 0.008 0 0.057 0.003 0.06 0 0.006-0.015 0.013-0.044 0.032-0.044 0.017 0 0.043 0.023 0.054 0.029 0.018 0.015 0.076 0.075 0.076 0.018 0-0.041-0.005-0.082 0-0.088 0.007-0.017 0.038-0.083 0.049-0.099 0 0-0.036-0.055 0-0.084 0.014-0.038 0.035-0.079 0.057-0.087 0.02-0.019-0.008-0.054 0.034-0.057 0.04-0.004 0.083-0.004 0.08-0.035-0.007-0.038-0.001-0.078 0.038-0.062z"/>
						<path d="m25.543 74.426c0.005-0.02 0.049-0.046 0.056-0.02 0.005 0.025 0.005 0.062 0.005 0.062 0.011 0.026 0.021 0.075 0 0.108-0.005 0.019-0.012 0.053-0.029 0.073-0.012 0.015-0.071 0.042-0.093 0.042-0.02 0-0.057 0.026-0.074 0.036-0.037 0.038-0.053 0.05-0.053 0.072 0 0.032-0.008 0.069-0.028 0.083-0.006 0.008-0.027 0.082-0.027 0.082 0 0.01-0.025 0.038-0.032 0.048-0.017 0.017-0.022 0.049-0.049 0.065-0.025 0.012-0.068 0.033-0.083 0.05-0.004 0.004-0.025 0.039-0.077 0.026-0.051-0.016-0.084 0.012-0.096 0.022-0.009 0.011-0.04 0.055-0.062 0.055-0.033 0-0.084 0.021-0.097 0.034-0.006 0.003-0.039 0.053-0.043 0.082-0.007 0.024-0.007 0.045-0.029 0.072-0.016 0.012-0.025 0.038-0.047 0.038-0.034 0-0.085 0.024-0.085 0.024-0.018 0.035 0 0.083-0.03 0.086-0.016 0.017-0.016 0.06-0.016 0.06l0.016 0.093s0.03 0.09 0.012 0.108c-0.028 0.029-0.061 0.051-0.061 0.051l-0.063-0.069-0.015-0.046 0.053-0.065-0.044-0.097s0.007-0.058 0.026-0.086c0.032-0.022 0.069-0.066 0.069-0.066s0.053-0.111 0.078-0.111c0.028-0.017 0.049-0.029 0.064-0.051 0.043-0.019 0.043-0.083 0.072-0.121 0.032-0.035 0.056-0.012 0.086-0.061 0.029-0.027 0.011-0.13 0.029-0.147 0.029-0.043 0.099-0.032 0.121-0.048 0.011-0.019 0.018-0.048 0.039-0.109 0.013-0.057 0.046-0.083 0.076-0.083 0.023-0.026 0.039-0.026 0.073-0.069 0.038-0.037 0.034-0.106 0.06-0.116 0.029-0.019 0.163-0.019 0.179-0.039 0.038-0.015 0.079 0.021 0.091-0.015 0.01-0.025 0.021-0.025 0.028-0.053z"/>
						<path d="m22.918 77.171c0.018-0.027 0.063-0.047 0.09-0.03 0.015 0 0.048 0.003 0.048 0.018 0 0.035-0.017 0.043-0.025 0.067-0.008 0.021-0.021 0.053-0.023 0.067-0.011 0.004-0.042 0.037-0.057 0.029-0.016 0-0.065-0.025-0.054-0.068 0-0.044 0.012-0.06 0.021-0.083z"/>
						<path d="m22.886 77.49h0.05l-0.039 0.052s0 0.032-0.007 0.06c-0.004 0.015-0.062 0.044-0.062 0 0-0.06 0-0.06 0.015-0.067 0-0.027 0-0.034 0.043-0.045z"/>
						<path d="m25.101 74.893c0.01-0.008 0.069-0.023 0.069-0.023s0.011 0.046 0 0.068c-0.007 0.035-0.053 0.045-0.059 0.028-0.023-0.038-0.023-0.054-0.01-0.073z"/>
						<path d="m17.21 100.32c-2.407 0-4.349-1.934-4.349-4.354 0-2.399 1.942-4.359 4.349-4.359 2.404 0 4.379 1.96 4.379 4.359 0 2.419-1.975 4.354-4.379 4.354zm-6.833-10.879v13.053h13.679v-13.049h-13.679z"/>
						<path d="m17.205 98.146c-1.183 0-2.168-0.972-2.168-2.182 0-1.194 0.985-2.169 2.168-2.169 1.21 0 2.189 0.975 2.189 2.169 0.001 1.21-0.979 2.182-2.189 2.182z"/>
						<path d="m17.205 93.795c-1.183 0-2.168 0.975-2.168 2.169 0 1.211 0.985 2.182 2.168 2.182 1.21 0 2.189-0.972 2.189-2.182 0.001-1.194-0.979-2.169-2.189-2.169z"/>
				</g>
</svg>
