<?xml version="1.0" encoding="UTF-8" standalone="no"?>
<!-- Generator: Adobe Illustrator 16.0.0, SVG Export Plug-In . SVG Version: 6.00 Build 0)  -->
<!DOCTYPE svg  PUBLIC '-//W3C//DTD SVG 1.1//EN'  'http://www.w3.org/Graphics/SVG/1.1/DTD/svg11.dtd'>
<svg id="Layer_1" xmlns="http://www.w3.org/2000/svg" xml:space="preserve" height="168px" viewBox="0 0 168 168" width="168px" version="1.1" y="0px" x="0px" xmlns:xlink="http://www.w3.org/1999/xlink" enable-background="new 0 0 168 168">
		<g fill="#404041">
			<rect y="99.404" x="27.517" height=".629" width="3.5"/>
			<rect y="101.47" x="27.517" height=".629" width="3.5"/>
			<polygon points="32.598 96.748 23.666 96.748 23.666 102.2 25.916 102.2 25.916 97.967 32.598 97.967 32.598 102.1 34.942 102.1 34.942 97.967 41.93 97.967 41.93 102.2 44.185 102.2 44.185 96.748 34.942 96.748 34.942 95.145 44.279 95.145 44.279 93.832 23.471 93.832 23.471 95.145 32.598 95.145"/>
			<rect y="101.47" x="36.548" height=".629" width="3.593"/>
			<rect y="99.404" x="36.548" height=".629" width="3.593"/>
			<path d="m42.937 110.13v-0.752h-18.335v1.311h14.399l-3.205 2.449h-5.104c-0.274 0-0.535-0.076-0.77-0.229l-1.241-0.828h-3.09l2.848 2.299c0.143 0.111 0.299 0.166 0.465 0.166h14.151v-1.408h-4.054l3.936-3.01z"/>
			<rect y="106.55" x="27.702" height="1.219" width="12.223"/>
			<path d="m42.437 104.85l-1.311-1.221h-14.408l-1.408 1.279c-0.307 0.389-0.707 0.607-1.134 0.607h-0.798v1.568h1.93c0.444 0 0.8-0.119 1.08-0.367l1.314-1.213v0.016l0.659-0.6h11.128l1.465 1.383 0.46 0.418c0.269 0.244 0.609 0.363 1.03 0.363h1.927v-1.568h-0.796c-0.421 0-0.801-0.22-1.138-0.67z"/>
			<polygon points="66.52 97.148 58.995 97.148 58.995 98.553 76.93 98.553 76.93 97.148 69.429 97.148 69.429 95.635 78.154 95.635 78.154 94.137 69.429 94.137 69.429 93.385 66.52 93.385 66.52 94.137 57.937 94.137 57.937 95.635 66.52 95.635"/>
			<path d="m75.359 110.73l0.265-0.039c1.697-0.248 1.894-1.008 1.894-1.555v-2.867h-18.922v4.512h2.054l0.627 2.145h-3.525v1.523h20.803v-1.523h-3.869l0.673-2.19zm-3.356 2.2h-8.072l-0.549-2.145h9.285l-0.664 2.15zm1.709-3.37h-12.372v-2.074h13.435v1.271c-0.001 0.19-0.08 0.8-1.063 0.8z"/>
			<rect y="103.18" x="61.184" height="1.402" width="13.933"/>
			<polygon points="60.306 101.47 75.995 101.47 75.995 102.69 78.457 102.69 78.457 100.04 57.844 100.04 57.844 102.69 60.306 102.69"/>
			<path d="m105.01 103.01l-0.41-1.627h-2.477l0.895 3.416c0.224 0.869 0.705 1.254 1.559 1.254h2.398v-1.943h-0.795c-0.29 0-0.99-0.11-1.17-1.1z"/>
			<polygon points="111.31 93.832 108.86 93.832 108.86 108.65 101.9 108.96 101.9 111.02 108.86 110.71 108.86 114.45 111.31 114.45 111.31 110.58 113 110.51 113 108.45 111.31 108.52"/>
			<path d="m104.48 99.586h2.588v-1.992h-1.012c-0.343 0-0.939-0.145-1.144-1.086l-0.493-1.641h-2.477l0.97 3.408c0.23 0.911 0.71 1.311 1.56 1.311z"/>
			<path d="m100.38 111.63l-0.727-8.58h-2.38v-2.428h3.502v-1.803h-3.502v-2.523h1.294c0.614 0 1.058-0.174 1.368-0.533 0.312-0.354 0.508-0.971 0.59-1.836h-1.979c-0.328 0.566-0.823 0.66-1.108 0.66h-4.842v1.709h2.706v2.523h-3.012v1.803h3.012v2.332h-2.287l-0.488 8.443c-0.041 0.699-0.323 0.986-0.589 1.104v1.854h0.516c0.421 0 0.757-0.139 1.041-0.416 0.285-0.252 0.438-0.643 0.461-1.178l0.494-8.633 0.853 0.023v10.393h1.971v-10.65l0.844-0.033 0.687 8.701c0.169 1.676 0.882 1.676 1.151 1.676h1.198v-1.6c-0.3-0.05-0.66-0.29-0.78-0.99z"/>
			<path d="m131.94 93.926h-2.253v1.691h-2.916v2.088h2.916l-0.027 6.707-1.551 1.996c-0.923 1.402-1.291 1.184-1.736 1.193v2.029h1.453c0.32 0 0.875-0.502 1.116-0.943l0.745-1.031v3.264c0 1.441-0.55 1.746-1.016 1.746h-1.548v1.877h2.677c0.65 0 1.129-0.186 1.471-0.566 0.453-0.479 0.669-1.043 0.669-1.736v-7.52l1.974-2.59v-3.424l-1.974 2.639v-3.641h1.974v-2.088h-1.974v-1.685z"/>
			<path d="m145.16 112.67c-0.345 0-0.842-0.121-1.278-0.682l-1.783-2.047 4.398-6.205v-2.445h-4.4v-3.229h4.398v-1.947h-4.4v-2.375h-2.348v2.375h-4.042v1.947h4.042v3.229h-4.254v1.971h8.724l-3.668 4.91-2.078-2.391h-2.809l3.446 4.367-1.306 1.719c-0.365 0.52-0.95 0.803-1.677 0.803h-1.763v1.877h3.268c0.787 0 1.363-0.262 1.747-0.791l1.224-1.703 1.521 1.924c0.344 0.375 0.727 0.57 1.15 0.57h3.407v-1.877h-1.52z"/>
		</g>
		<rect y="93.465" x="7.834" height="21.475" width="4.005" fill="#A5CD39"/>
		<rect y="93.465" x="156.31" height="21.475" width="4.006" fill="#A5CD39"/>
			<g fill="#404041">
				<path d="m10.679 84.684c-0.561 0-1.051-0.16-1.468-0.48s-0.625-0.789-0.625-1.41c0-0.542 0.253-1.064 0.759-1.568l14.033-14.152h-14.529v-3.516h18.481c0.541 0 1.026 0.159 1.451 0.48 0.429 0.319 0.642 0.789 0.642 1.408 0 0.544-0.252 1.066-0.756 1.569l-14.034 14.152h14.705v3.516h-18.659z"/>
				<path d="m32.56 84.684v-21.127h18.888v3.691h-15.197v13.744h15.227v3.691h-18.918zm6.363-9.183v-3.109h11.713v3.109h-11.713z"/>
				<path d="m74.229 84.684l-5.346-5.87h-7.903v-3.256h8.805c1.334 0 2.345-0.358 3.019-1.074 0.681-0.718 1.02-1.772 1.02-3.167 0-1.396-0.354-2.421-1.06-3.081-0.705-0.659-1.697-0.987-2.973-0.987h-11.485v17.435h-3.691v-21.127h15.17c1.2 0 2.276 0.178 3.224 0.538 0.948 0.358 1.753 0.872 2.411 1.54 0.661 0.668 1.165 1.478 1.513 2.426 0.347 0.951 0.522 2.015 0.522 3.197 0 1.762-0.378 3.238-1.134 4.431-0.756 1.19-1.832 2.049-3.225 2.573l6.362 6.421h-5.229z"/>
				<path d="m118.98 69.222v15.461h-3.515v-19.178c0-0.679 0.169-1.215 0.508-1.613 0.337-0.396 0.797-0.596 1.382-0.596 0.268 0 0.529 0.058 0.781 0.174 0.254 0.115 0.513 0.309 0.784 0.583l14.908 14.788v-15.459h3.515v19.354c0 0.697-0.169 1.24-0.508 1.626-0.34 0.387-0.781 0.581-1.322 0.581-0.6 0-1.16-0.26-1.685-0.784l-14.84-14.937z"/>
				<path d="m140.91 84.684v-21.127h18.89v3.691h-15.199v13.744h15.229v3.691h-18.92zm6.37-9.183v-3.109h11.708v3.109h-11.71z"/>
			</g>
			<g fill="#A5CD39">
				<path d="m96.771 87.111c-7.983 0-14.48-6.495-14.48-14.477 0-5.507 3.069-10.466 8.007-12.944l0.425-0.214v5.239l-0.111 0.088c-2.427 1.909-3.815 4.764-3.815 7.832 0 5.5 4.475 9.976 9.976 9.976 5.499 0 9.974-4.476 9.974-9.976 0-3.063-1.391-5.919-3.813-7.832l-0.112-0.088v-5.239l0.425 0.214c4.938 2.479 8.003 7.438 8.003 12.944-0.01 7.983-6.51 14.477-14.489 14.477z"/>
				<polygon points="99.294 74.967 98.999 74.967 94.54 74.967 94.245 74.967 94.245 74.672 94.245 59.85 92.205 59.85 91.753 59.85 91.936 59.436 94.269 54.172 94.348 53.997 94.54 53.997 98.999 53.997 99.294 53.997 99.294 54.292 99.294 74.672"/>
			</g>
</svg>
