<?xml version="1.0" encoding="UTF-8" standalone="no"?>
<!-- Generator: Adobe Illustrator 16.0.0, SVG Export Plug-In . SVG Version: 6.00 Build 0)  -->
<!DOCTYPE svg  PUBLIC '-//W3C//DTD SVG 1.1//EN'  'http://www.w3.org/Graphics/SVG/1.1/DTD/svg11.dtd'>
<svg id="圖層_1" xmlns="http://www.w3.org/2000/svg" xml:space="preserve" height="58px" viewBox="0 0 118 58" width="118px" version="1.1" y="0px" x="0px" xmlns:xlink="http://www.w3.org/1999/xlink" enable-background="new 0 0 118 58">
<g fill="#6FB92C">
		<rect y="49.353" x="90.527" height="3.945" width="9.791"/>
		<path d="m73.03 38.545c-4.125 0-7.491 3.349-7.491 7.494 0 4.141 3.366 7.497 7.491 7.497 4.145 0 7.501-3.356 7.501-7.497 0-4.145-3.356-7.494-7.501-7.494zm0 12.989c-3.038 0-5.486-2.459-5.486-5.499 0-3.036 2.448-5.494 5.486-5.494 3.039 0 5.509 2.458 5.509 5.494 0 3.04-2.47 5.499-5.509 5.499z"/>
		<path d="m75.786 46.035c0 1.521-1.233 2.745-2.756 2.745-1.507 0-2.736-1.224-2.736-2.745 0-1.513 1.229-2.753 2.736-2.753 1.523 0 2.756 1.24 2.756 2.753z"/>
		<path d="m46.227 38.782h5.263v14.516h-5.263v-14.516z"/>
		<path d="m67.152 38.782l-5.616 14.516h-4.467l-5.619-14.516h5.502l2.351 7.627 2.35-7.627h5.499z"/>
		<path d="m46.518 38.782l-5.609 14.516h-4.472l-5.62-14.516h5.503l2.356 7.627 2.351-7.627h5.491z"/>
		<rect y="44.063" x="90.527" height="3.944" width="9.791"/>
		<polygon points="100.32 38.782 80.071 38.782 80.071 42.723 82.899 42.723 82.899 53.305 88 53.305 88 42.723 100.32 42.723"/>
		<path d="m101.81 53.298v-14.516h5.136v6.189l3.308-6.189h5.899l-4.383 7.146 4.999 7.37h-6.308l-3.516-6.071v6.071h-5.14z"/>
		<path d="m45.19 36.736h-2.541l-0.233-1.651c-1.037 1.462-2.816 1.97-4.214 1.97-4.574 0-7.538-3.493-7.538-7.877 0-4.383 2.964-7.877 7.538-7.877 3.134 0 6.48 1.672 6.84 5.463h-3.938c-0.127-1.291-1.397-2.075-2.986-2.075-2.541 0-3.515 2.245-3.515 4.489 0 2.245 0.974 4.489 3.515 4.489 1.948 0 3.261-0.909 3.473-2.285h-2.753v-2.924h6.353v8.278z"/>
		<path d="m46.419 25.748h3.494v1.927h0.042c0.529-1.398 1.758-2.14 3.303-2.14 0.275 0 0.572 0.021 0.847 0.085v3.282c-0.465-0.127-0.889-0.211-1.376-0.211-1.778 0-2.71 1.228-2.71 2.604v5.441h-3.599v-10.988z"/>
		<path d="m56.731 32.121c0.063 1.503 0.932 2.499 2.457 2.499 0.868 0 1.714-0.403 2.054-1.207h3.366c-0.656 2.541-3.007 3.642-5.463 3.642-3.579 0-6.014-2.159-6.014-5.845 0-3.366 2.689-5.781 5.929-5.781 3.938 0 5.907 2.965 5.738 6.692h-8.067zm4.468-2.012c-0.063-1.229-0.932-2.245-2.139-2.245-1.271 0-2.117 0.91-2.329 2.245h4.468z"/>
		<path d="m68.399 32.121c0.062 1.503 0.931 2.499 2.456 2.499 0.867 0 1.715-0.403 2.054-1.207h3.366c-0.655 2.541-3.007 3.642-5.462 3.642-3.579 0-6.015-2.159-6.015-5.845 0-3.366 2.689-5.781 5.93-5.781 3.938 0 5.907 2.965 5.738 6.692h-8.067zm4.468-2.012c-0.064-1.229-0.933-2.245-2.139-2.245-1.271 0-2.118 0.91-2.329 2.245h4.468z"/>
		<path d="m76.996 25.748h3.494v1.503h0.041c0.657-1.123 2.14-1.822 3.452-1.822 3.664 0 3.96 2.668 3.96 4.256v7.051h-3.6v-5.314c0-1.503 0.169-3.028-1.801-3.028-1.354 0-1.947 1.144-1.947 2.351v5.991h-3.6v-10.988z"/>
		<path d="m22.721 20.628c-0.743-3.531-3.876-7.16-6.969-10.489-5.102-5.495-3.647-8.387-3.647-8.387s-6.944 3.982-9.16 10.11c-3.569 9.873 4.673 17.404 8.977 19.52 4.263 2.096 4.346 3.438 4.346 3.438 4.996-2.854 7.511-10.176 6.453-14.192zm-5.882 12.295s1.358-8.122-3.777-15.889c-2.817-4.26-6.733-8.588-2.42-12.75 0 0-2.296 3.046 0.293 7.306 2.018 3.322 9.16 10.849 5.904 21.333z"/>
		<path d="m37.39 8.723c-2.965 0.381-6.744 1.318-9.692 3.559-1.936 1.472-4.184 4.456-4.812 5.809 0.567 1.575 0.685 3.565 0.685 3.565s1.612-3.989 4.85-7.006c2.589-2.413 4.798-3.388 7.448-4.22-2.908 1.192-5.23 2.693-7.246 4.903-2.84 2.942-4.594 7.752-4.594 7.752s-0.057 6.808-5.101 10.444c6.072-0.523 9.344-6.368 11.292-12.302 2.588-7.882 8.62-11.415 10.839-12.347 0.544-0.206 0.767-0.249 1.167-0.386 0.001 0-2.624-0.056-4.836 0.229z"/>
		<path d="m18.399 35.197c-5.698 0-10.317 4.62-10.317 10.318 0 5.697 4.62 10.316 10.317 10.316 5.699 0 10.317-4.619 10.317-10.316 0-5.698-4.618-10.318-10.317-10.318zm0 16.851c-3.607 0-6.533-2.925-6.533-6.532 0-3.609 2.925-6.534 6.533-6.534s6.533 2.925 6.533 6.534c0 3.607-2.925 6.532-6.533 6.532z"/>
		<circle cy="45.516" cx="18.399" r="3.524"/>
</g>
</svg>
