<?xml version="1.0" encoding="utf-8"?>
<!-- Generator: Adobe Illustrator 16.0.0, SVG Export Plug-In . SVG Version: 6.00 Build 0)  -->
<!DOCTYPE svg PUBLIC "-//W3C//DTD SVG 1.1//EN" "http://www.w3.org/Graphics/SVG/1.1/DTD/svg11.dtd">
<svg version="1.1" id="圖層_1" xmlns="http://www.w3.org/2000/svg" xmlns:xlink="http://www.w3.org/1999/xlink" x="0px" y="0px"
	 width="1920px" height="538px" viewBox="0 0 1920 538" enable-background="new 0 0 1920 538" xml:space="preserve">
<g>
	<g>
		<g>
			<path fill="#FFFFFF" d="M1098.298,384.006c-52.503,0-94.774-42.271-94.774-94.797c0-52.292,42.271-94.786,94.774-94.786
				c52.261,0,94.978,42.494,94.978,94.786C1193.274,341.734,1150.559,384.006,1098.298,384.006z M1098.298,159.941
				c-71.389,0-129.314,57.789-129.314,129.268c0,71.525,57.927,129.326,129.314,129.326c71.41,0,129.284-57.801,129.284-129.326
				C1227.582,217.73,1169.708,159.941,1098.298,159.941z"/>
			<path fill="#FFFFFF" d="M1098.118,241.784c-25.918,0-47.091,21.3-47.091,47.425c0,26.193,21.173,47.389,47.091,47.389
				c26.373,0,47.663-21.195,47.663-47.389C1145.781,263.084,1124.491,241.784,1098.118,241.784z"/>
			<g>
				<g>
					<g>
						<rect x="1399.899" y="346.438" fill="#FFFFFF" width="168.949" height="67.936"/>
						<rect x="635.696" y="164.173" fill="#FFFFFF" width="90.931" height="250.199"/>
						<polygon fill="#FFFFFF" points="996.744,164.173 899.808,414.372 822.699,414.372 725.964,164.173 820.835,164.173 
							861.338,295.555 901.926,164.173 						"/>
						<polygon fill="#FFFFFF" points="640.87,164.173 544.177,414.372 467.005,414.372 370,164.173 464.967,164.173 
							505.554,295.555 546.052,164.173 						"/>
						<rect x="1399.899" y="255.162" fill="#FFFFFF" width="168.949" height="68.1"/>
						<polygon fill="#FFFFFF" points="1568.85,164.173 1219.733,164.173 1219.733,231.987 1268.381,231.987 1268.381,414.658 
							1356.441,414.658 1356.441,231.987 1568.85,231.987 						"/>
						<polygon fill="#FFFFFF" points="1594.514,414.372 1594.514,164.173 1683.198,164.173 1683.198,270.795 1740.204,164.173 
							1841.863,164.173 1766.429,287.334 1852.583,414.372 1743.721,414.372 1683.198,309.777 1683.198,414.372 						"/>
						<g>
							<path fill="#FFFFFF" d="M179.369,50.645c0.545-0.122,0.879,0.832,0.879,1.451c0,0.53,0.105,1.012,0.317,1.297
								c0.032,0.376,0.44,1.436,0.938,1.727c0.636,0.164,1.695,0.223,1.859,0.498c0.212,0.302,0.572,0.979,0.572,1.403
								c0,0.456,0.202,2.028,0.202,2.028s0.54,0,0.54,0.588c0,0.365,0.047,2.145,0.302,2.542c0.08,0.36,0.365-0.154,0.821,0.286
								c0.286,0.211,0.435,0.768,0.906,1.085c0.164,0.244,0.45,1.393,0.996,1.197c0.545-0.153,1.091,0.196,1.393,0.482
								c0.456,0.334,1.102,0.456,1.102,0.789c0,0.466-0.27,1.102,0,1.737c0.487,0.376,1.33,0.694,1.345,0.694
								c0.424,0,0.683-0.392,0.985-0.059c0.228,0.334,0.556,1.192,0.556,2.129c0,0.863-0.09,1.467,0.318,1.833
								c0.366,0.238,0.715,0.238,0.895,0.636c0.042,0.572,0.604,1.191,1.297,1.451c0.636,0.344,1.303,0.212,1.647,0.646
								c0.122,0.423,0,1.017,0.122,1.393c0.318,0.482,1.329,1.133,1.875,1.949c0.424,0.472,0.742,1.197,0.742,1.589
								c0,0.318,0,0.969,0.424,1.388c0.439,0.381,1.604,0.095,2.07,0.291c0.562,0.302,1.451,1.372,1.451,1.6
								c0,0.439,0.456,0.514,0.376,1.621c-0.132,0.858-0.376,1.583-0.132,1.965c0.376,0.439,1.059,1.541,1.525,1.297
								c0.423-0.228,1.011-0.709,1.435-0.514c0.545,0,1.123,1.499,1.303,2.256c0.376,0.588,0,1.345,0.498,1.843
								c0.392,0.556,0.588,1.483,1.181,1.589c0.541,0.196,0.948-0.138,1.404,0.842c0.439,1.123,1.541,2.103,1.875,2.875
								c0.439,0.466,1.435,0.604,1.435,1.133c0,0.392-0.074,1.483,0.498,1.483c0.487,0,1.197,0.059,1.636,0.62
								c0.466,0.604,0.254,1.917,0.8,2.431c0.53,0.667,1.329,0.275,1.435,1.011c0.048,0.577,0,1.409,0.424,1.785
								c0.392,0.472,1.117,0.244,1.483,0.816c0.344,0.789,1.133,0.911,1.133,1.694c0.164,0.954,0.164,1.255,0.953,1.711
								c0.62,0.662,1.118,0.89,1.6,1.281c0.333,0.397,0.593,1.801,1.345,1.907c0.561,0.18,1.467,0.196,2.42,0.572
								c0.921,0.318,1.149,0.773,1.769,0.821c0.577,0.238,1.287,1.372,1.287,1.901c0,0.408-0.185,0.832,0.09,1.059
								c0.36,0.376,1.043,1.419,1.345,1.922c0.164,0.302,0.874,1.192,0.953,1.192c0.344,0,1.403,0.228,1.478-0.106
								c0-0.318,0.307-0.482,0.683-0.482c0.212,0.164,0.757,1.059,0.757,1.059c0,0.556,0,1.494,0.344,1.753
								c0.471,0.238,1.165,1.059,1.53,0.953c0.329,0,1.451,0.106,2.039,0.36c0.482,0.302,1.891,1.541,1.891,2.134
								c0,0.646,0.392,1.011,0.651,1.297c0.286,0.27,0.302,0.53,0.286,0.969c-0.286,0.328-0.498,0.768-0.286,1.117
								c0.286,0.53,0.678,1.075,1.07,1.345c0.381,0.106,1.118,0.27,1.345,0.514c0,0.318,0.169,0.784,0.773,1.436
								c0.45,0.726,1.207,1.223,1.345,1.832c0.032,0.435,0.196,1.282,0.53,1.451c0.27,0.164,0.89,0.09,0.98,0.752
								c0,0.514-0.165,1.875,0.349,2.404c0.424,0.498,0.8,0.985,1.255,0.832c0.333-0.196,0.726-0.27,1.191-0.196
								c0.318,0.392,0.667,1.001,1.345,1.165c0.487,0,0.969,0,1.515,0.302c0.482,0.376,1.297,1.589,1.6,1.933
								c0.529,0.302,1.212,1.361,1.97,1.239c0.816,0,1.388-0.45,1.721-0.662c0.35-0.275,0.969-1.001,1.403-1.197
								c0.609-0.09,1.149,0.196,1.425-0.09c0.164-0.334,0.333-1.118,0.89-1.165c0.62-0.196,1.118,0,1.377-0.524
								c0.074-0.471,0-1.139,0.333-1.377c0.482-0.169,0.62-0.773,0.938-0.789c0.344-0.132,1.255-0.604,1.361-0.874
								c0,0,0.196-0.805,0.466-1.001c0.62-0.09,1.271-0.752,1.525-1.176c0.455-0.593,0.455-1.027,1.075-1.393
								c0.472-0.35,1.589-0.35,1.769-0.832c0.228-0.498,0.8-1.149,1.393-1.599c0.498-0.35,1.313-0.911,1.372-1.091
								c0.228-0.317,0.228-1.043,0.741-1.313c0.439-0.138,1.027-0.667,1.377-1.043c0.302-0.439,0.424-1.255,0.815-1.499
								c0.318-0.482,0.863-0.271,1.197-0.482c0.212-0.08,0-0.667,0.45-1.075c0.366-0.254,1.213,0.196,1.377-0.074
								c0.169-0.424,0.169-0.969,0.44-1.133c0.376-0.138,0.757,0.333,1.075,0c0.286-0.302,0.556-0.498,0.63-0.985
								c0-0.466,0.228-1.012,0.424-1.377c0.333-0.106,0.911-0.106,0.911-0.646c0-0.439,0-1.255,0.588-1.255
								c0.62-0.302,0.985,0,1.361-0.302c0.318-0.09,0.074-0.302,0.456-0.487c0.376-0.27,0.768,0.244,0.768-0.27
								c-0.058-0.498-0.757-0.996-0.286-1.287c0.376-0.408,0.514,0.408,1.059,0.365c0.36-0.074,0.498,0,0.498-0.392
								c0.148-0.514,0-1.123,0.302-1.515c0.18-0.228,0.832-0.228,1.086-0.302c0.317-0.244,0.593-0.35,0.879-0.757
								c0.244-0.541,0.244-1.737,0.577-1.933c0.27-0.106,0.8-0.106,0.964-0.392c0.302-0.365,1.133-1.212,1.255-1.604
								c0.047-0.662,0.259-0.662,0.471-1.361c0.117-0.53,0.318-1.086,0.662-1.345c0.498-0.016,0.498,0.259,0.969,0.545
								c0.423,0,1.255-0.562,1.313-1.043c0-0.482-0.18-1.393,0.408-1.695c0.561-0.27,1.573-0.693,1.875-0.964
								c0.302-0.302,0.016-1.334,0.381-1.499c0.318-0.302,1.07-0.498,1.297-0.482c0.154,0.302,0,1.027,0.366,0.906
								c0.36,0,0.466-0.604,0.646-0.424c0.259,0,0.545,0.741,0.715,0.424c0.148-0.26,0.106-0.906-0.095-1.33
								c-0.074-0.471-0.18-1.361,0.201-1.541c0.376-0.228,0.588-0.529,0.832-0.228c0.18,0.556,0.254,0.635,0.588,0
								c0.138-0.604,0-0.773,0.529-1.043c0.376-0.122-0.122-0.439,0.016-0.757c0.132-0.196,0.253-0.906,0.45-1.085
								c0.275,0,0.153-0.154,0.529-0.562c0.196-0.392,0.53-0.832,0.726-0.392c0.169,0.238,0.169,0.392,0.562,0.466
								c0.424,0.259,0.529,0.487,0.424,0.847c0,0.212,0.105,0.683,0.328,0.53c0.122,0,0.486,0.047,0.65-0.196
								c0-0.17-0.164-0.17-0.302-0.334c-0.228-0.286-0.35-0.847-0.244-1.133c0.017-0.18-0.207-0.18,0.017-0.318
								c0.26-0.138,0.302-0.466,0.302-0.725c-0.042-0.588-0.18-0.89-0.318-0.832c-0.328,0.138-0.434,0.482-0.434,0.482
								c-0.138,0.35-0.138,0.741-0.366,0.487c-0.238-0.138-0.45-0.578-0.238-0.863c0.091-0.165,0.238-0.165,0.408-0.334
								c0.06-0.148-0.169-0.466,0.196-0.466c0.328,0,0.572,0.318,0.572,0.318c0.105-0.562,0-0.683,0.138-0.757
								c0.105-0.048,0.105-0.048,0.212-0.376c0.058-0.318,0.058-0.699,0.45-0.62c0.365,0.106,0.095,0.874,0.307,0.874
								c0.116,0.074,0.466-0.254,0.498,0.074c0.026,0.122-0.032,0.805,0.074,0.805c0.27,0,0.969-0.154,1.361-0.154
								c0.18-0.058,0.74-0.408,0.89-0.164c0.106,0.196-0.148,0.466,0,0.466c0.291,0.169,0.593-0.148,0.593,0.169
								c0.027,0.165,0,0.89,0,0.89s-0.09,0.138-0.302,0.333c-0.291,0.148-0.291,0.529-0.651,0.709c-0.35,0.058-1.165,0.286-1.303,0
								c0-0.18,0-0.784-0.117-0.784c-0.201-0.122-0.307,0.074-0.471-0.122c-0.048-0.09-0.048-0.334-0.106-0.138
								c-0.35,0.047-0.228,0.635-0.228,0.635c-0.122,0.408-0.122,0.694,0.228,0.694c0.059,0,0.271-0.228,0.376,0
								c0.106,0.138,0,0.709,0,1.059c0,0.365,0,1.149,0.139,1.303c0.062,0.238,0.317,0.408,0.472,0.408
								c0.164-0.122,0.842-0.169,1.011-0.169c0.212,0,0.09-0.238,0.212-0.392c0.148-0.196,0.439-0.318,0.254-0.636
								c-0.042-0.27-0.105-0.514,0.186-0.694c0.212-0.032,0.132,0,0.132-0.392c0-0.35-0.317-0.562,0-0.562
								c0.35,0,0.456-0.154,0.456-0.392c-0.063-0.275,0-0.471,0.254-0.604c0.153-0.122,0.333,0,0.333,0
								c0.138-0.456,0.138-0.699,0.318-0.773c0.18-0.211,0-0.376,0.392-0.376c0.196,0,0.196-0.169,0.196-0.317
								c0-0.212-0.196-0.562,0.062-0.562c0.376-0.122,0.572-0.196,0.572,0.18c0.122,0.381,0.366,0,0.562,0.381
								c0.105,0.376-0.049,0.514-0.196,0.62c-0.138,0.074-0.286,0.392-0.366,0.392c-0.196,0.196-0.196,0-0.318,0.244
								c-0.01,0.212,0.318,0.678,0,0.678c-0.254,0-0.514,0-0.418,0.154c0.102,0.376,0.408,0.588,0.102,0.709
								c-0.196,0.074-0.165,0.45-0.196,0.408c-0.211-0.105-0.481-0.18-0.481,0.18c0,0.212-0.229,0.938,0.09,0.938
								c0.18,0.228,0.588,0.424,0.588,0.106c-0.102-0.318-0.102-0.514,0.062-0.514c0.244,0,0.694,0.408,0.651,0.047
								c-0.08-0.243-0.275-0.863-0.08-0.863c0.229,0,0-0.302,0.229-0.424c0.195,0,0.772-0.212,0.772-0.212
								c0-0.392,0-0.773,0.238-0.773c0.26,0,0.381,0.105,0.593-0.223c0.212-0.259,0.212-1.091,0.212-1.589
								c-0.212-0.561-0.212-0.938-0.424-1.011c-0.122-0.212-0.244-0.62-0.18-0.879c0.165-0.318,0.329-0.905,0.604-0.8
								c0.212,0.133,0.45,0.556,0.635,0.482c0.303-0.244,0.303-0.349,0.425-0.635c0.317-0.408,0.434-0.588,0.709-0.726
								c0.254-0.254,0.449-0.545,0.254-0.545c-0.254,0-0.45,0.244-0.53-0.164c0-0.514-0.317-0.334-0.317-0.62
								c-0.116-0.498,0.201-0.863,0.594-0.863c0.27,0,0.874,0.408,0.979,0.333c0.365-0.032,0.667-0.333,0.727-0.588
								c0.062-0.244,0.576-0.529,0.698-0.789c0.074-0.286-0.122-0.741,0.074-0.858c0.244,0,0.042-0.503,0.636-0.503
								c0.529,0.079,0.148,0.275,0.529,0.503c0.392,0.254,0.271,0.45,0.964,0.858c0.593,0.604,0.896,1.091,1.107,0.815
								c0.074-0.211,0.481-0.211,0.71-0.418c0.333-0.138,0.18-0.519,0.604-0.805c0.303-0.333,0.456-0.45,0.789-0.874
								c0.393-0.333,0-0.503,0.572-0.789c0.572-0.148,0.816,0.212,1.075-0.286c0.18-0.562,0.074-0.954,0.317-1.361
								c0.345-0.376,0.631-0.89,1.134-0.979c0.327-0.08,0.449-0.08,0.8-0.307c0.27-0.392,0.604-0.392,0.455-0.922
								c0-0.45-0.105-0.847-0.26-0.847c-0.195,0-0.619-0.63-0.317-0.63c0.317-0.122,0.53-0.063,0.757-0.333
								c0.18-0.228,0.18-0.709,0.032-0.938c-0.032-0.381-0.317-1.133-0.212-1.377c0.18,0,0.466,0,0.466-0.09
								c0-0.318-0.106-0.562,0-0.562c0-0.328,0.286-0.328,0.317-0.62c0.181-0.27,0.317-0.646,0.515-0.498
								c0.317,0.18,0.545,0.18,0.545,0.651c0,0.466,0.392,0.709,0.032,0.906c-0.212,0.122-0.424,0.211-0.26,0.619
								c0.048,0.212-0.164,0.588,0.048,0.588c0.073,0.122,0.466-0.116,0.571,0c0,0.228-0.104,0.609,0.06,0.609
								c0.212,0,0.726,0.302,0.726,0c0.259-0.228,0-0.609,0.259-0.726c0.261,0,0.261-0.381,0.53-0.381
								c0.317-0.09,0.938,0.122,1.181-0.09c0-0.408,0-0.498,0.213-0.619c0.302-0.196,0.302-0.44,0.523-0.71
								c0.351-0.058,0.351,0.27,0.821-0.196c0.424-0.424,0.514-0.471,0.857-0.8c0.366-0.333,0.456-0.333,0.487-0.593
								c0,0,0.36-0.423,0.556-0.726c0-0.344-0.333-0.514,0.106-0.635c0.302-0.36,1.043-0.148,1.149-0.408
								c0-0.18,0-0.556,0.302-0.556c0.196,0,0.879,0.45,1.017,0c0.074-0.196,0-0.593,0.482-0.593c0.302-0.132,0.635,0,0.874-0.529
								c0.138-0.36,0.016-0.874,0.211-0.964c0.244-0.244,0.244-0.244,0.244-0.578c0-0.498-0.439-1.223,0-1.451
								c0.334-0.148,0.334-0.62,0.65-0.62c0.393,0,0.238-0.059,0.727-0.318c0.407-0.074,0.784-0.376,1.069-0.604
								c0.308-0.27,0.684,0.09,0.773-0.408c0.153-0.471,0-0.635,0.333-0.635c0.318-0.138,0.863,0.164,1.181-0.138
								c0.106-0.466-0.244-1.255,0.09-1.6c0.133-0.259,0.271-0.365,0.271-1.165c0.212-0.694,0-1.043,0.244-1.403
								c0.132-0.275,0.132-0.275,0.54-0.821c0.26-0.435,0-0.662,0.472-0.784c0.423-0.122,0.693,0,0.773-0.271
								c0.025-0.365-0.318-1.726-0.08-2.044c0.105-0.164,0.35-0.196,0.62-0.572c0.316-0.212,0-0.334,0.683-0.424
								c0.635,0,1.387-0.286,1.647,0c0.285,0.212,0.635,0,0.89,0.344c0.212,0.307,0.186,0.651,0.291,0.773
								c0.359,0.196,0.392,0.954,0.63,0.667c0.228,0,0-0.789,0.228-0.789c0.196-0.164,0.139-0.572,0.393-0.784
								c0.228-0.122,0.519,0.132,0.65-0.212c0.408-0.286,0.62-0.244,0.62-0.577c0-0.435,0-0.874,0.08-1.07
								c0.207-0.186,0.271-0.186,0.271-0.456c0.122-0.333,0.164-0.545,0.529-0.726c0.303-0.148,0.996-0.35,1.207-0.784
								c0.171-0.26-0.073-0.545,0.171-0.879c0.434-0.148,0.434-0.302,0.523-0.62c0.106-0.27,0.229-0.376,0.201-0.678
								c-0.095-0.397-0.095-0.715,0.027-0.953c0.152-0.186,0.545-0.186,0.74-0.318c0.482-0.153,0-0.529,0.275-0.879
								c0.27-0.165,0.694-0.042,0.709-0.44c0.133-0.222-0.196-0.524,0.286-0.524c0.424,0,0.424,0.302,0.424,0.768
								c0,0.546,0.228,0.667,0,0.985c-0.18,0.408-0.424,0.529-0.18,0.726c0.18,0.238,0.832,0.328,1.133,0.238
								c0.238-0.318,0.45-0.132,0.302-0.636c0-0.498,0.604-0.498,0.694-0.768c0.032-0.392,0-0.79,0.27-0.79
								c0.381,0,0.139,0.397,0.381,0.44c0.345,0.169,0.345,0.726,0.742,0.62c0.254,0,0.393-0.148,0.393-0.62
								c0-0.44,0.105-0.572-0.139-0.742c-0.254-0.222-0.438-0.646-0.556-0.937c-0.317-0.271-0.259-0.938-0.439-1.054
								c-0.243-0.228-0.381-0.609-0.381-0.879c0-0.366-0.27-0.588,0.139-0.89c0.365-0.334,0.984-0.244,1.196-0.593
								c0.122-0.333,0.53-0.572,0.53-0.874c0.026-0.244,0.36-0.683,0.36-0.683c0-0.376,0.259-0.678,0.423-0.832
								c0.212-0.27,0.334-0.937,0.604-0.937c0.275,0.063,0.229,0.423,0.577,0.423c0.302,0,0.635,0.545,0.302,0.969
								c-0.243,0.286-0.423,0.376-0.604,0.678c-0.048,0.26,0.132,0.922-0.048,1.133c-0.286,0.212-0.376,0.546-0.832,0.546
								c-0.317,0.105-0.317,0.381-0.515,0.693c-0.27,0.35-0.514,0.636-0.471,0.927c0,0.435,0.259,0.482,0.667,0.482
								c0.317,0,0.529-0.482,0.863-0.482s0.694,0,0.874-0.169c0.228-0.122,0.577-0.588,0.789-0.757
								c0.195-0.222,0.333-0.222,0.333-0.693c0-0.546-0.259-0.757,0.133-0.996c0.228-0.122,0.487-0.423,0.789-0.545
								c0.316,0,0.392-0.439,0.709-0.439c0.333-0.09,1.329,0,1.467-0.212c0.122-0.164,0.229-0.588,0.44-0.62
								c0.104-0.27,0.328-0.514,0.328-0.937c0-0.376-0.224-0.53,0-0.71c0.152-0.27,0.186-0.318,0.186-0.651
								c0-0.344-0.154-0.906,0.09-1.266c0.318-0.169,0.482-0.35,0.482,0c0.164,0.36,0,0.921,0.164,0.948
								c0.122,0.318,0.396,0.593,0.545,0.318c0.302-0.318,0.302-0.344,0.514-0.662c0.286-0.196,0.138-0.196,0.366-0.392
								c0.286-0.381,0.18-0.381,0.408-0.62c0.317-0.169,0.407-0.154,0.407-0.715c0-0.636-0.09-0.636-0.212-0.906
								c-0.195-0.106-0.259-0.53-0.259-0.53s-0.196-0.545,0-0.863c0.259-0.238,0.969-0.328,1.149-0.116
								c0,0.18,0.26,0.979,0.26,1.117c0,0-0.26,0.71-0.016,0.742c0.048,0.106,0.481-0.032,0.481,0.254c0,0.302,0,1.33,0,1.637
								c-0.105,0.36-0.434,0.736-0.726,1.239c-0.572,0.286-1.346,1.239-1.493,1.599c-0.08,0-0.578,0-0.879,0.244
								c-0.148,0.27-0.545,0.604-0.545,0.604c0,0.498,0.122,0.799-0.164,0.937c-0.254,0.122-0.572-0.36-0.727,0.122
								c-0.031,0.423-0.031,1.085-0.254,1.419c-0.104,0.302-0.104,0.693-0.104,0.693s-0.318,0.244-0.44,0.44
								c-0.122,0.196,0,0.317-0.259,0.487c-0.36,0-0.556,0.318-0.832,0c-0.333-0.291-0.302-0.302-0.376-0.302
								c-0.318,0-0.709,0.302-0.709,0.302l-0.62,0.874c0,0,0.317,1.107,0,1.107c-0.44,0-0.302,0.63-0.302,0.63L371,49.784
								c0,0-0.228,0.54-0.938,0.54c-0.408,0-0.905,0.609-0.905,0.609l-0.849,0.529l-0.471,0.784c0,0,0.229,1.118-0.147,1.287
								c-0.393,0-1.012,0.408-1.012,0.408l-0.984,0.742l-0.333,1.255c0,0,0.016,0.736-0.212,1.027
								c-0.303,0.106-0.965,0.106-0.965,0.106s-0.228,0.18-0.228,0.604c0,0.408-0.53,0.847-0.53,0.847l-0.195,0.709l0,0
								l-0.694,0.392l-0.635,0.482l-0.408,0.244l-0.095,0.604l-1.145,1.303l-0.985,1.313c0,0-0.666,0.302-0.678,0.651
								c-0.08,0.148-0.699,0.148-0.699,0.148s0.286,0-0.132,0.365c-0.317,0.344-0.715,0.604-0.715,0.604s0.423,0.996,0,1.133
								c-0.424,0-1.541-0.138-1.78,0.164c-0.185,0.169-0.65,0.789-0.65,0.789l-0.969,0.694l-1.511,2.012l-0.862,1.043
								c0,0-0.318,1.403-0.578,1.631c-0.408,0.365-0.254,0.815-0.831,0.921c-0.63,0.047-1.583,0.122-1.583,0.122
								s-0.545,0-0.62-0.228c-0.09-0.45-0.09-1.043-0.397-0.938c-0.254,0.292-0.18,0.938-0.115,1.091c0.115,0.36,0.514,0,0.514,0
								c0,0.863,0.286,0.996,0,1.542c-0.09,0.439-0.35,0.921-0.684,1.102c-0.377,0.047-0.938-0.059-1.117,0.138
								c-0.154,0.392-0.588,0.799-0.921,0.529c-0.366-0.196-0.562-0.138-0.694-0.667c0-0.604-0.456-0.742-0.715-0.662
								c-0.45,0.333-0.36,0.662-0.524,0.89c-0.244,0.302-0.244,0.815-0.244,0.953c-0.274,0.318-0.576,0.196-0.438,0.456
								c0.105,0.45,0.438-0.138,0.438,0.709c0,0.848-0.576,0.848-0.772,1.07c-0.302,0.26-0.588,0.307-0.769,0.757
								c-0.228,0.456-0.122,0.694-0.683,0.694c-0.439,0.106-0.662,0-0.784,0.201c-0.244,0.196,0,0.98-0.244,1.297
								c-0.466,0.271,0,0.667-0.35,1.557c-0.376,0.562-0.769,0.562-1.479,0.985c-0.619,0.211-1.255,1.372-1.572,1.541
								c-0.317,0.333-0.709,0.588-1.106,0.905c-0.27,0.392-1.176,1.181-1.403,1.663c-0.317,0.471-0.228,1.197-0.905,1.313
								c-0.71,0-1.165,0.503-1.695,1.075c-0.604,0.545-0.514,0.996-0.938,1.409c-0.377,0.62-0.317,0.996-0.784,0.996
								c-0.62,0-0.503,0.635-0.97,0.635c-0.285,0.122-0.772,0.636-0.772,0.636l-0.752,1.117c0,0-0.651-0.286-0.773,0.164
								c-0.147,0.456-0.693,0.879-0.693,0.879s0.392,0.709-0.196,0.741c-0.471,0-0.514,0.302-0.815,0.651
								c-0.413,0.36,0,0.8-0.577,0.8c-0.651,0-1.165,0.604-1.165,0.604s0.228,0.667-0.345,0.667c-0.699,0.18-0.969,0.18-1.043,0.572
								c-0.016,0.333-0.381,0.847-0.726,1.303c-0.381,0.392-0.636,0.09-0.911,0.572c-0.434,0.424-0.434,0.424-0.921,1.012
								c-0.36,0.561-0.572,1.181-1.117,1.255c-0.498,0-0.588-0.498-0.938-0.318c-0.439,0.244-0.333,0.472-0.562,1.133
								c-0.318,0.593-0.328,0.26-0.8,0.832c-0.317,0.35-0.032,1.287-0.514,1.287c-0.562,0.212-1.103,0-1.403,0.561
								c-0.439,0.63,0.132,0.938-0.439,1.298c-0.562,0.577-0.905,0.302-1.133,0.789c-0.244,0.466-0.498,0.752-0.969,1.403
								c-0.456,0.678-0.106,0.921-0.863,1.149c-0.635,0.09-0.814,0.349-0.953,0.89c-0.328,0.408,0.275,0.699-0.8,1.059
								c-0.921,0.392-1.148,0.302-1.011,0.62c0,0.381,0,0.741-0.138,0.62c-0.196-0.106-0.572-0.938-0.662-0.847
								c-0.154,0.228-0.154,0.079-0.53,0.439c-0.392,0.408-0.593,0.302-0.726,0.709c0,0.667,0.334,1.742,0,1.954
								c-0.439,0.09-0.895-0.333-1.223,0.27c-0.275,0.53-0.667,1.181-0.667,1.181s-0.921,0.514-1.011,0.842
								c-0.048,0.365,0.212,0.365-0.048,0.911c-0.318,0.466-0.815,1.16-1.181,1.313c-0.587,0-0.604,0.333-0.905,0.847
								c-0.27,0.424-0.27,0.98-0.768,0.98c-0.514-0.074-1.017-0.286-1.149,0c-0.064,0.307,0.635,0.726-0.064,0.821
								c-0.635,0.254-1.117,0.498-1.313,0.62c-0.228,0.212-0.604,1.133-0.969,1.239c-0.026,0.222-0.344-0.063-0.662,0.27
								c-0.471,0.53-0.895,1.271-0.938,1.663c-0.079,0.498,0.074,0.498-0.397,0.937c-0.556,0.62-0.556,1.06-0.8,1.589
								c-0.122,0.482-0.556,1.313-1.059,1.679c-0.36,0.572-0.953,0.662-0.953,1.027c0,0.514,0,1.086-0.482,1.086
								c-0.498,0.09-0.604,0.604-1.165,0.635c-0.239,0.196-0.662,0.456-1.404,1.345c-0.514,1.012-1.409,2.071-1.694,2.479
								c-0.36,0.514-0.832,1.165-1.282,1.647c-0.413,0.424-1.139,0.08-1.483,0.609c-0.286,0.392-0.154,0.678-0.456,1.175
								c-0.228,0.366-0.228,1.06-0.757,1.213c-0.318,0.164,0.169,0.376-0.318,0.604c-0.481,0.138-0.481,0.376-1.223,0.953
								c-0.482,0.662-1.753,1.541-1.949,1.949c-0.122,0.334-0.122,0.651-0.424,1.086c-0.36,0.487-0.726,0.927-0.863,1.361
								c-0.302,0.439-0.196,0.832-0.588,1.271c-0.439,0.456-0.588,1.303-1.027,1.409c-0.392,0-1.197-0.212-1.197,0.254
								c-0.106,0.471,0,1.827-0.312,2.224c-0.212,0.36-1.033,1.239-1.197,1.573c-0.35,0.344-0.985,0.948-1.393,1.239
								c-0.286,0.117-0.588,0.996-1.117,1.494c-0.545,0.381-0.8,0.699-0.98,1.271c-0.259,0.318,0,0.906-0.593,1.149
								c-0.752,0.138-0.964-0.196-1.192,0.138c-0.244,0.392,0.228,0.784-0.244,0.979c-0.545,0-0.784,0.212-0.937,0.545
								c-0.228,0.302-0.032,0.514-0.271,1.239c-0.381,0.471-0.381,1.197-0.815,1.361c-0.514,0.032-0.514,0.376-0.895,0.741
								c-0.286,0.545-0.333,0.588-0.996,1.419c-0.709,0.863-1.695,1.8-1.938,2.388c-0.058,0.514-0.434,1.043-0.604,1.409
								c-0.212,0.148-0.333,0.662-0.768,0.842c-0.365,0.275-1.043,0-1.53,0.456c-0.36,0.211-0.604,0.726-1.16,0.847
								c-0.424,0-0.424-0.392-0.503,0.212c-0.164,0.423-0.164,1.705-0.588,1.949c-0.244,0.439-0.8,1.499-1.059,1.875
								c-0.302,0.561-0.482,0.561-0.874,0.921c-0.577,0.228-0.805,0.456-1.123,1.107c-0.45,0.572-0.921,0.921-1.027,1.313
								c-0.106,0.572,0,0.938-0.318,1.192c-0.132,0.212-0.874-0.09-1.191,0.212c-0.196,0.408-0.562,1.017-0.832,1.361
								c-0.424,0.503-0.773,0.805-0.938,1.239c-0.09,0.439-0.683,0.439-0.815,0.726c-0.196,0.333-0.196,1.229-0.667,1.833
								c-0.317,0.36-1.207,0.604-1.377,1.208c-0.105,0.333-0.105,0.62-0.196,1.165c-0.238,0.799-0.238,1.313-0.238,1.313
								s-0.635,0.064-0.397,0.196c0.307,0.275,0.635-0.042,0.635,0.439c0,0.439,0.048,1.118,0.196,1.213
								c0.17,0.09,0.562,0,0.562,0.328c0,0-0.392,0-0.514,0.26c-0.153,0.212,0.514,1.117,0.122,1.191
								c-0.514,0.09-1.001,0.122-1.589,0.514c-0.53,0.503-0.98,0.503-1.812,0.805c-0.847,0-1.409,0.302-2.044,0.434
								c-0.694,0.138-1.012,0-1.419,0.805c-0.333,0.662-0.286,0.662-0.577,1.271c-0.45,0.858-0.694,1.721-0.45,2.78
								c0.302,1.027,0.122,1.027,0.302,1.493c0.334,0.366,0.651,0.366,0.815,0.742c0.154,0.365,0.154,1.303,0.318,1.647
								c0.318,0.302,0.53,0,0.89,0.302c0.334,0.35,0.757,1.589,0.651,2.119c-0.317,0.349-0.317,0.895-0.678,1.303
								c-0.514,0.392-0.408,0.392-0.514,0.905c-0.032,0.62,0.18,0.286-0.032,0.98c-0.318,0.757-0.318,1.483-1.303,1.573
								c-0.8,0.138-1.07,0.275-1.176,0.651c-0.122,0.366,0.228,1.012-0.212,1.102c-0.471,0.609,0.392,0.938-0.408,1.043
								c-0.635,0.153-1.165,0.741-1.679,0.228c-0.694-0.333-0.863-0.662-1.181-1.271c-0.466-0.302-0.466-0.736-1.07-0.482
								c-0.651,0.18-0.927,0.482-0.927,0.953c0,0.466,0,1.313,0,1.313c0.212,0,0.805,0.09,0.44,0.35
								c-0.44,0-0.318,0.138-0.318,0.662c0,0.487,0.423,0.487,0.577,0.635c0.042,0.44,0.318,0.848,0,1.425
								c-0.381,0.588-0.699,0.588-0.699,1.16c0.122,0.742,0.545,0.424,0.44,1.107c0,0.847-0.165,1.403-0.62,1.509
								c-0.588,0.292-1.028,0-1.028,0.815c0,0.715-0.164,1.441-0.423,2.272c-0.27,0.89,0.18,1.102-0.376,2.219
								c-0.366,0.895-0.138,1.997-0.302,2.42c0,0.392-0.455,0.757-0.529,1.419c-0.154,0.562-0.498,0.366-0.498,1.393
								c-0.228,0.953,0.392,3.056,0.212,3.792c-0.439,0.408-0.757,0.096-0.757,0.593c-0.032,0.646,0.228,0.482-0.561,1.435
								c-0.662,0.742-1.33,1.361-1.891,1.377c-0.604,0.392-1.419,0.223-1.631,0.392c-0.244,0.424-0.768,0.906-1.165,1.483
								c-0.302,0.678-0.62,1.117-1.361,1.223c-0.529,0.106-0.752,0.254-1.085,0.832c-0.228,0.514-0.683,0.969-0.879,1.419
								c-0.09,0.683-0.09,1.165-0.816,1.727c-0.662,0.302-1.345,0.979-1.679,1.011c-0.45,0-0.45-0.423-0.996-0.333
								c-0.577,0-0.709,0.53-0.709,0.996c0,0.487-0.392,1.123-1.06,1.123c-0.529,0.223-1.043-0.079-1.525,0.514
								c-0.169,0.392-0.53,0.556-0.456,0.848c0,0.164,0,1.266-0.228,0.709c-0.254-0.381-0.588-0.35-0.964-0.545
								c-0.318-0.164-0.519-0.456-0.683-0.058c0,0.392-0.514,0.726-0.514,1.16c-0.122,0.365-0.122,0.577-0.482,0.847
								c-0.381,0.334-0.577,0.334-0.619,0.8c0,0.545,0.466,0.938,0,1.271c-0.35,0.545-0.35,0.212-0.212,0.815
								c0.132,0.773,0.212,0.773,0,1.134c-0.26,0.243-0.472,0.937-0.773,1.043c-0.392,0-0.392-0.222-0.572,0.307
								c-0.26,0.524-0.26,0.8-0.879,0.8c-0.572,0-0.333-0.302-0.726-0.302c-0.587,0-1.679-0.334-1.949,0.026
								c-0.244,0.318-0.196,0.938-0.667,0.938c-0.45,0.259-2.177,0-2.659,0.317c-0.593,0.456-0.863,0.816-1.107,1.499
								c-0.164,0.456-0.212,0.074-0.498,0.8c-0.317,0.709-0.148,0.815-0.741,1.059c-0.302,0.074-0.768-0.35-0.815,0.259
								c-0.238,0.63,0.047,0.8-0.238,1.239c-0.397,0.392-0.545,0.392-1.001,0.742c-0.466,0.286-0.466,0.905-1.165,0.905
								c-0.816,0.059-0.816-0.196-1.086-0.62c-0.302-0.423,0.148-0.635-0.423-0.635c-0.588,0-1.451,0.212-1.801,0.286
								c-0.424,0.016,0,0.514-0.439,0.349c-0.482-0.047-0.736-0.333-1.144-0.286c-0.365,0-0.577-0.138-0.832,0
								c-0.333,0.45,0,0.905-0.456,0.964c-0.302,0.138-1.859-0.059-2.224,0.138c-0.074,0.287,0.365,0.9-0.042,0.965
								c-0.291,0-0.122,0.529-0.439,0.636c-0.302,0-1.181,0.614-2.192,0.614c-0.921,0-2.69,0-3.22,0c-0.62,0-1.631,0-2.129-0.106
								c-0.413-0.127-1.467-0.339-1.573-0.614c0-0.274,0-0.593-0.365-0.692c-0.122-0.255-0.726-0.255-0.726-0.255
								s-0.424-0.213-0.815-0.213c-0.472,0-0.514,0.213-0.514,0.631c-0.074,0.255-0.211,0.509-0.815,0.637
								c-0.577,0.508-2.224,0.508-2.584,0.508c-0.153,0-0.847-0.339-0.847-0.339s-0.318-0.806-0.694-1.224
								c-0.487-0.424-1.075-0.684-1.589-0.684c-0.317,0-0.699-0.254-0.879-0.514c-0.196-0.165-0.768-0.45-1.297-0.212
								c-0.44,0-0.805,0-0.954,0.364c-0.365,0.303-0.799,0.785-1.027,0.36c-0.318-0.36-0.863-0.059-0.863-0.514
								c0-0.45-0.455-0.996-0.768-1.33c-0.366-0.302-0.789-1.102-1.351-1.181c-0.312-0.106-0.938,0.169-1.388-0.18
								c-0.408-0.53-0.408-1.059-0.879-1.403c-0.36-0.244-0.36-0.381-0.938-0.381c-0.556-0.074-1.737,0.381-2.071,0
								c-0.36-0.286-0.89-0.572-1.509-0.996c-0.789-0.408-1.906-1.515-2.632-1.859c-0.572-0.805-0.848-0.593-1.208-1.319
								c-0.456-0.752-0.456-1.372-0.71-1.372c-0.408,0-0.408,0.482-0.741-0.292c-0.365-0.434-0.545-0.815-0.921-0.736
								c-0.439,0-1.663,0.302-2.177,0.132c-0.471-0.132-1.059,0-1.229-0.408c0-0.636-0.042-1.695-0.27-2.537
								c-0.18-0.62-0.439-0.742-0.683-0.927c-0.271-0.196-0.63-0.36-0.435-0.524c0.196-0.292,0.302-0.625,0.164-0.911
								c-0.164-0.874-0.36-1.085-0.678-1.043c-0.408,0.122-0.683,0.514-0.805,0.122c-0.254-0.254-0.694-0.164-1.054-0.482
								c-0.439-0.169-0.333-0.635-0.741-0.863c-0.456-0.302-0.53-0.482-1.165-0.905c-0.456-0.472-0.366-0.604-0.789-1.001
								c-0.482-0.62-0.726-0.996-0.964-0.482c-0.228,0.482-0.154,0.847-0.604,0.667c-0.487,0-0.333-0.185-0.789-0.185
								c-0.408-0.117-1.403,0-2.007,0c-0.651,0-0.757,0.365-1.123-0.318c-0.439-0.678-0.635-0.815-0.635-1.388
								c-0.042-0.651,0.196-0.514-0.604-1.107c-0.768-0.63-1.085-0.784-1.102-1.16c0-0.456,0.09-0.911-0.423-0.911
								c-0.578,0-0.816-0.286-0.922,0c-0.169,0.228-0.471,0.805-0.651,0.529c-0.286-0.302-0.286-0.498-0.667-0.979
								c-0.286-0.593-0.376-0.832-0.964-0.969c-0.35-0.016-0.71-0.62-0.805-0.376c-0.106,0.286-0.106,0.921-0.726,0.529
								c-0.588-0.365-1.435-1.106-1.631-1.499c-0.148-0.604-0.546-0.921-1.012-1.149c-0.376-0.164-1.012-0.164-1.133-0.757
								c0-0.736,0.122-1.509-0.259-1.991c-0.435-0.503-0.318-2.192-0.556-2.362c-0.292-0.408-0.487-0.27-0.71-0.572
								c-0.35-0.44-0.683-0.757-1.017-0.832c-0.392-0.09-0.148-0.471-0.726-0.471c-0.424,0-0.646,0.381-1.255,0.105
								c-0.572-0.344-1.043-0.482-1.043-0.905c-0.09-0.466-0.344-1.255-0.71-1.102c-0.572,0-0.678,0.132-0.921,0.466
								c-0.122,0.408-0.588,0.667-1.133,0.408c-0.482-0.333-1.027-0.741-0.678-0.874c0.36-0.381,0.408-2.086,0.058-2.224
								c-0.333,0-0.333-0.636-0.651-0.98c-0.074-0.333,0.154-1.043-0.074-1.123c-0.514,0-0.683,0.408-0.847,0
								c-0.138-0.514,0.164,0-0.333-0.874c-0.556-0.635-0.196-1.636-0.556-2.134c-0.439-0.376-1.197-0.376-1.409-0.979
								c-0.344-0.334-0.482-0.381-0.98-0.503c-0.545,0-0.545-0.18-1.107-0.344c-0.434,0-0.662-0.228-0.937-0.635
								c-0.408-0.18-0.874-0.244-0.874-0.694c0-0.292,0.286-0.292,0-0.471c-0.392-0.244-0.577-0.244-0.244-0.44
								c0.35-0.392,0.53-0.768,0.244-0.937c-0.545-0.133-0.815,0.302-0.953-0.36c-0.122-0.471,0.138-1.451-0.244-1.663
								c-0.286-0.317-0.344-0.471-0.556-0.773c-0.095-0.376,0.074-0.09-0.635-0.53c-0.863-0.646-1.647-0.842-1.531-1.541
								c0-0.333,0.154-0.784-0.27-0.635c-0.667,0.063-0.667,0.275-0.996-0.36c-0.302-0.651-0.063-1.631-0.471-1.631
								c-0.45,0-1.133,0-1.494-0.212c-0.471-0.408-1.001-0.408-1.44-0.578c-0.318-0.058-0.148-0.89-0.572-1.313
								c-0.562-0.562-0.302-1.133-0.895-1.181c-0.62-0.228-1.16-0.106-1.721-0.35c-0.588-0.302-0.726-0.646-0.726-1.282
								c-0.138-1.043,0.138-3.341-0.636-3.612c-0.635-0.349-1.721,0-1.875-0.577c-0.212-0.588-0.254-0.832-0.954-1.313
								c-0.498-0.561-1.027-1.197-1.255-1.922c-0.207-0.768-0.011-2.161-0.588-3.278c-0.651-1.149-1.149-1.483-1.907-1.647
								c-0.693-0.186-1.419-0.154-1.901-0.726c-0.514-0.53-1.515-0.832-2.256-1.817c-0.842-1.191-0.89-2.235-1.281-2.976
								c-0.228-0.651-0.71-0.275-1.197-1.075c-0.482-0.874-0.784-2.023-1.043-2.51c-0.408-0.238-1.255-0.074-1.043-0.832
								c0.169-0.768,0.408-1.175-0.556-1.493c-1.001-0.35-1.001,0.318-1.621-0.35c-0.752-0.635-1.16-1.573-1.223-2.976
								c0-1.213-0.212-2.299-0.726-2.786c-0.408-0.344-0.408-1.038-1.165-1.615c-0.858-0.742-1.266-0.742-1.795-1.631
								c-0.397-0.921-0.244-0.487-0.741-1.557c-0.44-1.149-0.651-1.949-1.091-2.362c-0.408-0.482-1.027-0.8-1.509-1.673
								c-0.604-0.562-0.635-1.303-1.223-2.15c-0.62-0.588-1.425-0.604-1.769-1.133c-0.333-0.482-0.593-0.784-1.133-1.573
								c-0.423-0.694-0.244-2.463-0.593-2.902c-0.344-0.196-0.636-0.556-1.176-1.085c-0.593-0.71-1.165-1.043-1.361-1.949
								c-0.063-0.73,0-0.73-0.709-1.271c-0.577-0.593-1.546-0.911-1.213-1.255c0.169-0.392,0.381-1.149,0.063-1.075
								c-0.397,0-0.063-1.191-0.514-1.451c-0.35-0.349-0.106-0.979-0.625-0.979c-0.514,0.106-0.556,0.408-0.964-0.169
								c-0.561-0.757-1.106-1.737-0.651-2.177c0.318-0.392,0.366-0.604,0.212-1.149c-0.212-0.36-0.969-1.175-1.345-1.175
								c-0.561-0.096-1.011,0.238-1.255-0.895c-0.164-1.06-0.709-0.89-0.709-2.235c0-1.546,0.164-1.743-0.562-2.42
								c-0.678-0.439-1.07-0.244-1.133-1.71c-0.138-1.266-0.138-2.854-0.662-3.882c-0.805-1.001-1.181-2.828-1.377-4.327
								c0-1.419-0.392-2.69-0.726-3.654c-0.032-1.107-0.169-2.389-0.514-3.178c-0.138-0.768-1.075-1.149-0.789-1.933
								c0.08-0.879,0.08-1.133,0.032-2.161c-0.032-1.123-0.678-1.213-0.529-1.891c0.286-0.789,0.211-1.197,0.169-1.938
								c-0.169-0.62-0.53-4.989-0.848-5.683c-0.439-0.667-0.938-1.059-1.287-2.42c-0.27-1.361-0.53-2.177-0.848-3.141
								c-0.482-0.953-0.847-0.953-0.799-1.98c0-0.879,0.466-0.879,0.317-1.393c-0.106-0.392-0.498-0.98-0.455-1.404
								c0-0.561,0.349-0.985,0.604-1.71c0.154-0.726,0.456-2.25,0.953-2.341c0.577-0.047,0.789,0,1.515-0.741
								c0.678-0.514,0.53-1.647,1.255-1.711c0.709-0.148,1.917,0.318,2.521-0.254c0.578-0.562,0.228-0.715,0.969-0.879
								c0.832-0.244,1.711,0.165,2.071-0.439c0.365-0.604,0-1.631,0.286-2.145c0.291-0.562-0.164-1.409,0.079-1.753
								c0.302-0.26,0.784-1.001,0.466-1.875c-0.466-0.741-1.271-1.012-1.663-1.631c-0.408-0.847-0.741-1.017-0.408-1.53
								c0.286-0.62,0.667-1.6,0.667-1.6s-0.381-0.529,0.482-1.091c0.921-0.678,1.165-0.058,1.165-0.979
								c-0.138-1.197-0.498-0.609-0.953-1.605c-0.482-0.979-1.361-1.117-0.35-1.451c1.059-0.138,1.117,0.18,1.329-0.742
								c0.228-0.741,0.08-1.043,1.043-1.388c1.075-0.169,1.075-0.651,1.44-0.169c0.408,0.514,0.694,0.985,1.25,0.514
								c0.519-0.344,0.742-0.344,1.457-1.149c0.588-1.043,0.482-1.043,1.07-1.467c0.667-0.318,1.012-0.784,1.012-0.784l0.561-1.361
								c0,0,0.8,0.18,1.436-0.953c0.773-1.028,1-0.874,1.816-1.631c0.832-0.789,1.043,0,1.059-1.419
								c0-1.075-0.122-1.636,0.106-2.695c0.36-1.054,1.102-0.784,1.102-1.674c-0.059-0.815,0.408-0.545,0-1.075
								c-0.588-0.572-0.588-1.859-0.588-1.859l1.223-1.451l1.419-0.906c0,0,1.541,0.62,2.118-0.063
								c0.546-0.556,1.313-0.678,1.313-0.678s0.757-1.531,1.313-1.531c0.742-0.18,1.997-0.694,1.997-0.694s1.329-1.133,1.71-1.509
								c0.556-0.408,1.192-1.361,1.192-1.361s1.133-0.577,1.043-1.393c-0.074-0.874,0.09-1.875,0.09-1.875l0.953-1.271l1.938-1.663
								l1.043-2.145L81.5,40.511c0,0-0.36-1.679-0.042-2.039c0.36-0.381,0.98-0.62,1.255-0.381c0.238,0.169,0.238,0.8,0.635,0.381
								c0.329-0.381,0.117-1.091,0.858-1.091c0.805,0,0.805,0.302,1.133,0.71c0.334,0.381-0.09,1.091,0.609,0.577
								c0.768-0.408,0.317-1.133,1.085-1.133c0.694,0,1.181,0.376,1.181,0.376s1.599,0.254,1.721-0.53
								c0.228-0.831-0.106-2.224,0.228-2.78c0.302-0.635,0.832-1.499,1.075-2.044c0.328-0.524,0.318-0.98,0.964-1.224
								c0.471-0.344,0.62-0.693,0.863-1.313c0.302-0.636,0.211-1.436,0.815-1.769c0.439-0.122,0.593-0.122,1.239-0.365
								c0.562-0.344,0.815,0.047,1.329-1.012c0.545-0.847,0.545-1.811,0.545-1.811l1.06-1.833l0.863-0.784
								c0,0-0.259-2.161,0.271-2.664c0.228-0.328,1.62-0.116,1.62-0.529c0-0.302-0.079-1.737,0.196-1.991
								c0.376-0.186,1.07-0.985,1.493-0.684c0.498,0.275,1.133,0.684,1.647,0.498c0.699-0.286,0.562-0.646,0.927-1.027
								c0.376-0.45,0.058-0.921,0.646-1.361c0.408-0.556,1.303-0.116,1.679-0.514c0.381-0.408,0.381-0.328,1.149-1.085
								c0.742-0.742,1.166-1.663,1.801-1.621c0.694,0.201,0.694,0.201,1.282,0.318c0.651,0.196,1.123,0.212,2.044,0.196
								c0.694-0.196,0.572-0.556,0.964-0.556c0.651,0,0.757,0.254,1.361,0.244c0.715-0.169,1.133-0.201,1.695-1.271
								c0.561-1.091,0.604-1.557,1.329-1.833c0.667-0.317,1.149-0.392,1.435-1.361c0.292-0.662-0.318-0.8,0-1.451
								c0.413-0.556,0.169-0.572,1.107-1.085c0.832-0.35,0.45-0.063,0.757-0.53c0.27-0.392,0.662-1.149,0.662-1.149l1.361-1.043
								c0,0,1.271,0,1.271-0.36c0.042-0.715-0.122-1.604,0.545-1.361c0.588,0.238,1.509,0.709,1.509,0.709s0.832,0.651,1.166,0.8
								c0.317,0.212,0.148,0.815,0.662,0.815c0.53-0.132,0.789-0.317,1.165-0.132c0.424,0.132,2.177-0.291,2.437,0.132
								c0.106,0.44,0.799,0.651,1.223,0.651c0.726-0.211,1.403,0.35,1.403,0.35l0.938,1.054c0,0,1.181-0.286,1.499-0.207
								c0.424,0.302,0.588,0.784,0.816,1.175c0.381,0.487,0.138,0.832,0.138,0.832s-0.53,0.392,0,0.863
								c0.635,0.678,1.573,0.784,1.573,0.784s1.059-0.847,1.297-0.18c0.09,0.514,0.212,0.969,0.805,1.239
								c0.572,0.286,0.905-0.271,1.038,0.286c0.244,0.471-0.271,0.651,0.683,0.651c0.741,0,1.827-0.318,2.086-0.18
								c0.424,0.074,0.164,0.074,0.164,0.074c0.392,0.44,0.985,0.742,0.985,1.483c0,0.572,0.09,1.086,0.439,1.737
								c0.238,0.921,1.16,2.103,1.663,2.6c0.408,0.286,0.874,0.286,1.192,0.667c0.063,0.238,0.063,0.832,0.063,0.832
								s1.133-0.138,1.525-0.138c0.408,0.138,0.874,0.211,0.921,0.693c0.058,0.275-0.048,1.303,0.27,1.303
								c0.244,0.032,0.35-0.169,0.577,0.133c0.148,0.291,0,0.773,0.45,1.059c0.366,0.259,1.001,0.911,1.303,0.911
								c0.228,0,1.149,0,1.393-0.185c0.222,0,0.604,0,0.604,0.397c-0.032,0.329,0,0.482,0.254,0.8
								c0.153,0.376,0.741,1.117,1.107,1.255c0.286,0.228,0.604,0.392,0.604,0.392v0.694c0,0,0.847-0.36,0.964-0.042
								c0,0.132,0,1.176,0.318,1.494c0.439,0.333,0.651,0.953,1.181,1.197c0.726,0.36,1.075,0.498,1.197,0.906
								c0.026,0.455,0.026,0.683,0.27,1.043c0.212,0.408,0.456,1.361,0.784,2.013c0.365,0.635,1.239,1.372,1.604,1.372
								c0.106,0.079,0.588-0.09,0.588,0.291c0,0.498,0.106,1.118,0.228,1.478c0.196,0.397,0.773,1.181,1.255,1.621
								c0.333,0.556,1.451,0.969,1.785,1.282c0.042,0.471,0.318,1.033,0.514,1.954c0.254,0.678,0.651,1.176,0.848,1.769
								c0.286,0.604,0.996,1.493,1.451,1.705c0.572,0.08,0.742,0.08,0.832,0.593c0.106,0.63,0.106,1.223,0.106,1.223
								s0.344,0,0.408,0.636c0.196,0.662,0.196,1.467,0.784,1.769c0.529,0.254,1.212,0,1.229,0.36
								c0.254,0.392,0.254,1.875,0.694,2.42"/>
							<path fill="#FFFFFF" d="M399.943,0c0.26,0,1.091,0.074,1.091,0.074s0.562,0.529,0.8,0.529c0.286,0,0.514,0.636,0.408,1.075
								c-0.122,0.286-0.54,0.244-1.267,0.244c-0.847,0-1.769,0.223-2.075,0.223c-0.524,0-0.62-0.18-0.524-0.541
								c0.212-0.397,0.524-0.365,0.222-0.651c-0.01-0.35,0.244-0.709,0.562-0.879C399.52,0,399.689,0,399.943,0z"/>
							<path fill="#FFFFFF" d="M396.787,2.86c0.318,0,0.65,0.148,0.65,0.312c0,0,0.557-0.164,0.727,0.138
								c0.117,0.392,0.212,1.027,0.117,1.107c-0.286,0.27-0.286,0.302-0.482,0.646c-0.271,0.333-0.456,0.529-0.588,0.709
								c-0.275,0.381-0.667,0.651-0.863,0.938c-0.147,0.291-0.814,0.577-0.814,1.017c-0.106,0.165,0.302,0.541-0.376,0.588
								c-0.593,0.09-0.985-0.047-1.255,0.09c-0.333,0.349-0.515,0.349-0.515,0.651c-0.169,0.36,0.181,1.149-0.35,1.149
								c-0.482,0-0.694,0.302-0.969-0.138c-0.164-0.318-0.572-0.741-0.303-0.937c0.275-0.271,0.275-0.271,0.439-0.546
								c0.35-0.18,0.8-0.18,0.832-0.514c0.18-0.344,0.53-0.18,0.863-0.344C394.049,7.287,394.049,7,394.351,7
								c0.498-0.185,0.727-0.185,0.848-0.577c0.334-0.27,0.636-0.138,0.636-0.832c0.058-0.529,0.18-0.969,0.482-1.255
								c0.152-0.45,0.228-0.302,0.152-0.874C396.348,2.86,396.348,2.86,396.787,2.86z"/>
							<path fill="#FFFFFF" d="M392.042,6.154c-0.138,0,0,0.27-0.275,0.45c-0.212,0.212-0.529,0.397-0.449,0.545
								c0.18,0.074,0.588,0.074,0.726,0.244c0,0.333,0,0.572,0.302,0.498c0.212,0,0.303,0,0.376-0.498
								c0.09-0.392,0.09-0.333-0.164-0.683C392.344,6.286,392.344,6.154,392.042,6.154z"/>
							<path fill="#FFFFFF" d="M389.32,8.584c0.254,0,0.588-0.556,0.979-0.27c0.181,0.27,0.259,0.832,0.259,1.271
								c0,0.164,0.042,0.164-0.079,0.482c-0.181,0.424-0.36,0.636-0.515,0.938c-0.18,0.439-0.058,0.8-0.238,0.953
								c-0.243,0.042,0,0.572-0.333,0.768c-0.138,0.291-0.138,0.291-0.438,0.683c-0.148,0.376-0.556,0.784-0.768,1.027
								c-0.032,0.27-0.365,0.366-0.577,0.678c-0.271,0.17-0.408,0.17-0.557,0.503c-0.031,0.328-0.274,0.832-0.715,0.45
								c-0.556,0-0.921-0.604-0.752-0.784c0.328-0.17,0.832-0.17,0.979-0.482c0.138-0.212,0.486-0.651,0.905-1.033
								c0.351-0.36,0.351-1.043,0.684-1.356c0.244-0.397,0.244-0.413,0.317-0.969c0.212-0.577,0.106-0.741,0.333-1.239
								c0.106-0.62,0.106-0.789,0.106-1.149C388.912,8.754,388.955,8.468,389.32,8.584z"/>
							<path fill="#FFFFFF" d="M385.417,12.414c0.169-0.048,0.365,0.026,0.498,0.312c0.138,0.291,0.138,0.456-0.132,0.683
								c-0.275,0.164-0.393,0.106-0.365-0.302C385.417,13.107,385.179,12.44,385.417,12.414z"/>
							<path fill="#FFFFFF" d="M384.252,14.437c0.122,0,0.122,0.27,0.122,0.53c0,0-0.228,0.498-0.424,0.18
								c-0.106-0.18-0.106-0.858,0.105-0.858C384.146,14.193,384.146,14.193,384.252,14.437z"/>
							<path fill="#FFFFFF" d="M383.436,17.143c0,0,0.408-0.546,0.408-0.35c0,0,0.106,0.35,0.303,0.35
								c0.105,0,0.471,0.392,0.307,0.693c-0.08,0.275-0.503,0.275-0.503,0.397c-0.106,0.09-0.515,0.116-0.662,0.514
								c-0.122,0.132-0.498,0.726-0.498,0.938c0,0.116,0,0.514-0.318,0.62c-0.274,0-0.832,0-0.984,0.27
								c-0.196,0.016,0,0.35-0.196,0.667c-0.165,0.408,0,0.784-0.408,0.842c-0.424,0.106-0.772,0.381-0.996,0
								c-0.095-0.302-0.381-0.63-0.016-0.8c0.238-0.042,0-0.042,0.238-0.376c0.486-0.439,0.805,0,0.805-0.577
								c0.211-0.53,0.376-0.53,0.725-0.858c0.074-0.334,0.393-0.503,0.727-1.123c0.271-0.238,0.317-0.238,0.514-0.635
								C383.166,17.477,383.288,17.477,383.436,17.143z"/>
							<path fill="#FFFFFF" d="M374.899,24.684c0,0,0.327-0.212,0.514-0.09c0.164,0.09,0.09,0.487,0.317,0.487
								c0.254,0,0.54,0.317,0.418,0.498c-0.213,0.148-0.36,0.196-0.418,0.62c-0.153,0.333-0.351,0.556-0.504,0.556
								c-0.285,0.08-1.026,0.487-1.026,0.138c-0.229-0.244-0.229-0.36,0-0.588c0-0.259,0.259-0.529,0.381-0.726
								C374.582,25.399,374.582,24.896,374.899,24.684z"/>
							<path fill="#FFFFFF" d="M383.198,26.532c-0.153,0.117-0.032,0.36-0.318,0.36c-0.196,0-0.333,0.196-0.243,0.53
								c0.047,0.317-0.165,0.529-0.165,0.784c0,0.397,0.212,0.625-0.105,0.757c-0.333,0.228-0.651,0.439-0.953,0.439
								c-0.498,0-0.815,0-0.953,0.318c0,0.318-0.35,0.651-0.472,0.832c-0.196,0.106-0.481,0.254-0.63,0.799c0,0,0,0.832,0.327,1.027
								c0.201,0.196,0.425,0.667,0.773,0.487c0.376,0,0.667-0.212,0.832-0.381c0-0.196,0.545,0.09,0.741-0.18
								c0.164-0.392,0-0.546,0.333-0.954c0.317-0.545,0.317-0.905,0.424-1.223c0.254-0.408,0-0.938,0.254-1.297
								c0.153-0.562,0-0.562,0.392-0.879c0.408-0.408,0.122-0.709,0.382-0.863c0.237,0,0.435-0.254,0.237-0.344
								c-0.212-0.095-0.588,0.254-0.498-0.095C383.558,26.305,383.436,26.379,383.198,26.532z"/>
							<path fill="#FFFFFF" d="M386.174,24.128c0.244-0.228,0.529-0.228,0.879-0.228c0.148,0,0.418,0.318,0.418,0.651
								c0.08,0.344,0.139,0.53,0,0.938c-0.132,0.286-0.418,0.238-0.678,0.556c-0.016,0.487,0.229,1.043,0,1.287
								c-0.09,0.408-0.016,0.62-0.228,0.874c-0.229,0-0.229,0.625-0.424,0.397c-0.359,0-0.228-0.397-0.636-0.529
								c-0.117-0.122-0.498-0.832-0.09-0.985c0.169-0.333,0.169-0.556,0.365-1.043c0-0.466,0.132-0.556,0.27-0.964
								C386.174,24.684,385.962,24.472,386.174,24.128z"/>
							<path fill="#FFFFFF" d="M390.029,21.649c0,0,0.271-0.365,0.449-0.593c0-0.466,0.293-0.752,0.562-0.482
								c0.275,0.18,0.275,0.482,0.196,0.879c0,0.329-0.196,0.329-0.317,0.572c-0.122,0.228-0.122,0.604-0.439,0.439
								C390.029,22.253,390.12,21.846,390.029,21.649z"/>
							<path fill="#FFFFFF" d="M374.899,34.27c0.27,0,0.48-0.286,0.831-0.286c0.254,0,0.619,0.545,0.54,0.757
								c-0.121,0.286-0.334,0.18-0.449,0.434c0,0.048,0.164,0.545-0.091,0.545c-0.35,0.244-0.503,0.244-0.561,0.424
								c-0.105,0.106-0.35,0.456-0.35,0.456c0,0.556-0.238,1.102,0.08,0.953c0.359,0,0.678,0.318,0.48,0.318
								c-0.376,0.238-0.693,0.238-0.799,0.408c-0.244,0.408-0.742,0.948-0.821,0.604c-0.117-0.244-0.392-0.392-0.435-0.773
								c-0.186-0.556-0.456-1.255-0.26-1.403c0.456-0.138,0.303-0.138,0.472-0.667c0.223-0.514,0.105-0.815,0.376-0.863
								c0.286-0.254,0.545,0.228,0.693-0.254C374.899,34.344,374.582,34.344,374.899,34.27z"/>
							<path fill="#FFFFFF" d="M371.494,38.909c-0.271,0.317,0,0.821-0.271,0.635c-0.228,0-0.757-0.058-1.165,0
								c-0.359,0.275-0.423,0.302-0.407,0.651c0.048,0.333,0,0.71,0.35,0.71c0.302-0.212,0.635-0.344,0.635,0
								c0.133,0.063,0,0.423,0.133,0.667c0,0,0.26-0.244,0.333,0c0.122,0.27,0,0.604,0.393,0.424
								c0.228-0.122,0.487-0.122,0.487-0.424c0-0.376,0.059-0.244,0.302-0.667c0.104-0.376-0.302-1.028,0-1.06
								c0.147-0.026,0.392-0.116,0.316-0.302c-0.212-0.318-0.62,0-0.62-0.318C371.981,39.227,371.78,38.851,371.494,38.909z"/>
							<path fill="#FFFFFF" d="M363.953,42.462c0-0.164,0.35-0.164,0.466-0.286c0.187,0,0.318,0.286,0,0.286
								c-0.116,0.212-0.466,0.514-0.466,0.292C363.772,42.584,363.693,42.584,363.953,42.462z"/>
							<path fill="#FFFFFF" d="M363.529,43.898c0,0,0.244,0.593,0,0.593c-0.303,0-0.303,0.165-0.303,0.466c0,0,0,0.392-0.212,0.392
								s-0.757,0-0.757,0c0,0.366-0.09,0.625-0.254,0.636c-0.211,0-0.333,0.291-0.333,0.609c0.06,0.302,0.498,0.302,0.498,0.302
								c0,0.148-0.165,0.254,0.09,0.318c0.275,0.106,0.757,0.408,0.969,0.164c0.148-0.058,0.303-0.228,0.303-0.482
								c0-0.185,0.244-0.302,0.244-0.302c0-0.228,0.18-0.228,0.18-0.318c0.212-0.291,0-0.683,0.212-0.757
								c0.138-0.169,0.438-0.169,0.438-0.392c0,0,0-0.636-0.2-0.636c-0.224,0-0.45-0.122-0.45-0.122
								C363.953,44.109,363.953,43.659,363.529,43.898z"/>
							<path fill="#FFFFFF" d="M363.529,47.377c0,0,0.164-0.164,0.424-0.164c0,0.042,0,0.164,0,0.435c0,0-0.26,0-0.424,0
								C363.423,47.647,363.529,47.377,363.529,47.377z"/>
							<path fill="#FFFFFF" d="M360.595,47.647c0.17-0.027,0.487-0.271,0.487-0.271s0.588-0.058,0.646-0.058
								c0.17,0.058,0.439,0,0.439,0s0.09,0.62,0.09,0.938c0.18,0.106,0.275,0.498,0,0.498c-0.359,0-0.588-0.169-0.588,0.09
								c-0.016,0.286-0.275,0.439-0.381,0.482c-0.09,0.169-0.524,0.169-0.54,0.471c-0.154,0.148-0.154,0.148-0.229,0.318
								c-0.138,0.222-0.271,0.222-0.365,0.408c-0.116,0.122-0.116,0.556-0.116,0.556c0,0.196,0.344,0.09,0.481,0.228
								c0,0.169,0.074,0.683,0.074,0.683c0,0.27-0.074,0.482-0.211,0.636c-0.133,0.148-0.678,0.482-0.693,0.482
								c-0.091,0-0.303,0-0.425,0c-0.152,0.27-0.286,0.545-0.244,0.726c0.091,0.122,0.091,0.439-0.163,0.455
								c0,0,0,0.541-0.562,0.541c-0.54-0.132-0.832-0.212-1.059,0c0,0,0.228,0.333,0.228,0.514c0,0-0.228,0.577-0.228,0.726
								c0,0.333,0.228,0.62,0,0.62c-0.196,0-0.254,0.291-0.393,0.291c-0.18,0.042-0.466,0.106-0.498,0.106
								c-0.244-0.063-0.138-0.397-0.438-0.397c-0.148,0-0.694,0-0.694,0l-0.408-0.62c0,0-0.073,0.228-0.195-0.148
								c-0.063-0.302-0.365-0.487-0.122-0.636c0.122-0.365,0.243-0.164,0.317-0.455c0-0.212-0.074-0.541,0-0.742
								c0.271-0.132,0.271-0.529,0.408-0.54c0.229-0.244,0.047-0.439,0.286-0.439c0.408,0,0.408-0.636,0.709-0.636
								c0.291,0,0.291,0.636,0.635,0.482c0.139,0,0.196,0.154,0.393-0.328c0.228-0.154,0.228-0.154,0.62-0.366
								c0.121-0.376,0.121-0.376,0.317-0.784c0.122-0.201,0.122-0.307,0.413-0.715c0.207-0.238,0.678-0.238,0.8-0.238
								c0.211,0,0.423,0,0.317-0.318c-0.017-0.259-0.106-1.043-0.017-1.319c0.122-0.132,0.181-0.132,0.351-0.302
								c0.116-0.222,0.211-0.646,0.344-0.752C360.521,47.801,360.383,47.801,360.595,47.647z"/>
							<path fill="#FFFFFF" d="M362.438,36.34c0.096-0.09,0.408-0.196,0.577-0.122c0.212,0.032,0.212,0.302,0.229,0.381
								c0.133,0.333-0.229,0.254-0.229,0.254c-0.122,0.392-0.122,0.699-0.212,0.699c-0.27-0.154-0.365-0.397-0.545-0.699
								C362.258,36.6,362.258,36.521,362.438,36.34z"/>
							<path fill="#FFFFFF" d="M340.672,60.363c0.317-0.059,0.138-0.726,0.545-0.62c0.36,0,0.709-0.106,0.769,0.164
								c0.09,0.212-0.06,0.789-0.148,1.017c-0.26,0.36-0.154,0.694-0.62,0.694c-0.381-0.164-0.545-0.514-0.683-0.514
								c-0.106,0-0.662,0-0.439-0.27C340.232,60.575,340.534,60.453,340.672,60.363z"/>
							<path fill="#FFFFFF" d="M347.144,60.575c0.148,0,0.116-0.456,0.515-0.572c0.529-0.095,1.068-0.365,1.175-0.095
								c0.016,0.397,0.472,0.397,0.35,0.667c0,0.122-0.498,0.349-0.498,0.349s-0.65,0.18-0.741,0.36
								c-0.286,0-0.211,0.333-0.636,0.333c-0.302,0-0.65,0-0.65-0.333c0-0.36,0.316-0.36,0.35-0.45
								C347.26,60.834,346.932,60.575,347.144,60.575z"/>
							<path fill="#FFFFFF" d="M346.598,62.677c0,0,0.97-0.211,1.061-0.211c0.286-0.196,0.62,0.074,0.528,0.423
								c0,0.344-0.243,0.435-0.528,0.662c-0.09,0.244-0.515,0.032-0.397,0.514c0,0.53-0.434,0.757-0.434,1.027
								c0,0-0.229,0.927-0.318,1.255c-0.062,0.138-0.317,0.773-0.317,0.773c0,0.318-0.333,0.498-1.001,0.498
								c-0.62,0-0.62,0-0.948,0.35c-0.593,0.164-1.239,1.011-1.483,1.102c-0.274,0.286-0.438,0.799-0.438,1.091
								c0,0.36,0.105,0.466-0.139,0.694c-0.195,0.244-0.604,0.244-0.964,0.333c-0.228,0.196-0.486,0.196-0.683,0.514
								c-0.106,0.148,0,0.651-0.439,0.757c-0.344,0.132-1.524,0.36-1.524,0.36s-0.863,0.482-0.98,0.815
								c-0.228,0.365-0.408,0.805-0.528,1.149c0,0.302-0.091,0.546-0.196,0.906c-0.154,0.562-0.44,0.879-0.515,1.213
								c-0.169,0.138-0.561,0.466-0.561,0.466c0,0.562-0.53,0.895-0.789,0.651c-0.101-0.09-0.466-0.651-0.223-0.921
								c0.223-0.196,0.481-0.196,0.62-0.847c0-0.742,0.392-1.165,0.392-1.6c0-0.503-0.27-0.863,0.148-1.35
								c0.486-0.482,0.529-0.842,0.789-1.133c0.243-0.106,0.979-0.318,1.06-0.8c0-0.514,0.27-0.651,0.604-1.208
								c0.318-0.62,0.139-0.863,0.769-1.091c0.683-0.09,1.679,0.471,1.679-0.09c0.153-0.588,0.259-0.847,0.381-1.011
								c0.181-0.35,0.466-0.588,0.466-0.985c0-0.333,0.244-0.964,0.742-0.832c0.577,0.08,1.06,0.498,1.329,0.334
								c0.365,0,0.032-0.334,0.487-0.466c0.328,0,1.223-0.333,1.419-0.726c0.196-0.201,0.196-0.201,0.196-0.805
								c0-0.424-0.154-0.424,0.18-0.906C346.296,63.233,346.296,62.889,346.598,62.677z"/>
							<path fill="#FFFFFF" d="M333.597,74.783c0.122,0,0.122,0.302,0.122,0.546c0,0.18,0.139,0.498-0.074,0.439
								c-0.364-0.08-0.486-0.26-0.486-0.26C333.279,74.783,333.432,74.783,333.597,74.783z"/>
							<path fill="#FFFFFF" d="M327.533,73.184c-0.117,0-0.572,0.376-0.572,0.376c0,0.302,0,0.879,0.271,1.223
								c0.185,0.302,0.396,0.302,0.486,0c0.303-0.344,0.106-0.604,0.303-0.784c0.18-0.212,0.285,0,0.285-0.439
								C328.2,72.988,327.718,73.184,327.533,73.184z"/>
							<path fill="#FFFFFF" d="M328.655,77.04c0,0.328,0.117,0.572,0,0.815c-0.106,0.164-0.106,0.921-0.456,0.921
								c-0.376,0-0.482,0-0.572,0.122c-0.095,0.498-0.396,0.635-0.456,0.784c-0.032,0.244-0.604,0.164-0.392,0.424
								c0.18,0.164,0.847,0.439,0.937,0.498c0.011,0.063,0.302-0.588,0.482-0.588c0.212-0.09,0.456,0.318,0.456,0.651
								c0,0.133,0,0.63,0,0.832c-0.106,0.286-0.456,0.588-0.562,0.588c-0.074,0-0.074,0.392-0.074,0.588
								c0,0,0.393,0.122,0.636,0.122c0.212,0,0.481,0,0.693-0.317c0.244-0.106,0.832-0.334,0.832-0.694
								c0-0.318-0.244-1.859-0.244-2.542c0-0.604-0.105-2.145-0.105-2.341c-0.016-0.424-0.376-0.53-0.556-0.424
								C329.016,76.902,328.772,76.902,328.655,77.04z"/>
							<path fill="#FFFFFF" d="M326.065,80.8c0.016-0.133,0.503-0.466,0.503-0.133c0.27,0.133,0,0.736,0,0.736
								s-0.333,0.291-0.439,0.095C326.129,81.297,326.007,81.059,326.065,80.8z"/>
							<path fill="#FFFFFF" d="M326.96,83.808c-0.122,0-0.18,0.318-0.392,0.318c-0.333,0-0.503,0.228-0.487,0.408
								c0.048,0.291,0.048,0.805-0.016,0.805c-0.059,0-0.54,0.434-0.467,0.662c0,0.212,0.408,0.456,0.53,0.456
								c0.229,0,0.651,0,0.784-0.048c0.228-0.122,0.259-0.556,0.503-0.556c0.212,0,0.604-0.302,0.678-0.514
								c0.106,0,0.456-0.424,0.456-0.424c0-0.487-0.244-0.938-0.456-1.107C328.02,83.781,327.231,83.808,326.96,83.808z"/>
							<path fill="#FFFFFF" d="M314.124,91.625c0.259,0,0.259,0.212,0.471,0.561c0.286,0.334,0.36,0.646,0.36,0.98
								c0,0.186,0.079,0.773,0,0.953c-0.074,0.074-0.752,0.122-0.752,0.122c0-0.376-0.439-0.376-0.397-0.694
								c0-0.302,0.318-0.302,0.318-0.562C314.124,92.832,313.806,91.836,314.124,91.625z"/>
							<path fill="#FFFFFF" d="M321.834,91.625c-0.105-0.042,0.35-0.408,0.456-0.408c0.244,0,0.244,0.09,0.244,0.09
								C322.533,91.762,321.85,92.186,321.834,91.625z"/>
							<path fill="#FFFFFF" d="M286.082,127.377c-0.238,0,0,0.456,0,1.075c0.122,0.662,0,1.133,0.244,0.847
								c0.318-0.047,0-0.625,0.164-0.625c0.201-0.222,0.651-0.604,0.381-0.842c-0.381-0.032-0.381-0.186-0.381-0.408
								C286.489,127.091,286.489,127.213,286.082,127.377z"/>
							<path fill="#FFFFFF" d="M308.065,100.469c0.228,0,0.424,0.667,0.529,0.847c0.122,0.148,0.874,0.604,1.06,0.392
								c0.302-0.074,0.63-0.074,0.752,0.09c0.228,0.138-0.122,0.879-0.254,0.938c-0.291,0.35-0.562,0.667-0.684,1.149
								c0,0.302-0.27,0.895-0.408,0.895c-0.138,0-0.768-0.456-0.938-0.456c-0.058,0-0.62,0-0.62,0.09
								c0.063,0.482,0.138,1.435-0.302,1.631c-0.302,0.244-0.678,0.302-0.891,0.62c-0.26,0.26-0.92,0.381-0.92,0.381
								s0,0.996-0.201,0.996c-0.345-0.106-0.572-0.196-0.768-0.392c0-0.154-0.588-0.726-0.694-0.726c-0.169,0-1.059,0.122-1.139,0
								c-0.222-0.016-0.482-0.26-0.8-0.577c-0.138-0.011-0.588-0.752-0.572-0.996c0.164-0.456,0.556-1.028,0.662-1.028
								c0.228,0,0.228,0.757,0.275,1.028c0.09,0,0.466,0.651,0.678,0.651c0.09,0,0.62,0.042,0.651,0
								c0.074-0.154,0.148-0.472,0.35-0.472c0.18,0,0.466,0.244,0.588,0.318c0.196,0.154,0.832,0.815,0.832,0.196
								c0-0.45-0.063-0.89,0-0.964c0.074-0.185,0.408-0.895,0.529-1.075c0,0-0.392-0.604,0-0.921
								c0.148-0.408,0.376-0.863,0.62-0.954c0.212-0.196-0.091-0.588,0.376-0.62c0.424-0.047,0.895-0.047,0.862-0.376
								C307.567,100.728,307.641,100.304,308.065,100.469z"/>
							<path fill="#FFFFFF" d="M302.668,108.995c0.058-0.212,0.529-0.498,0.604-0.212c0.059,0.27,0.059,0.678,0.059,0.678
								c0.122,0.292,0.228,0.821,0,1.181c-0.059,0.196-0.133,0.577-0.318,0.789c-0.132,0.164-0.768,0.466-1.012,0.466
								c-0.212,0-0.62,0.286-0.8,0.392c-0.408,0.408-0.577,0.545-0.577,0.789c0,0.344-0.09,0.752-0.302,0.906
								c-0.074,0.09-0.302,0.89-0.302,0.89c0,0.106-0.27,0.408-0.344,0.514c-0.186,0.185-0.244,0.545-0.53,0.715
								c-0.275,0.132-0.741,0.36-0.911,0.54c-0.042,0.048-0.27,0.424-0.832,0.292c-0.556-0.169-0.921,0.132-1.043,0.238
								c-0.106,0.122-0.434,0.593-0.678,0.593c-0.365,0-0.921,0.238-1.059,0.376c-0.059,0.032-0.424,0.572-0.466,0.89
								c-0.079,0.259-0.079,0.487-0.317,0.789c-0.17,0.132-0.275,0.408-0.514,0.408c-0.365,0-0.921,0.27-0.921,0.27
								c-0.201,0.381,0,0.895-0.333,0.938c-0.169,0.18-0.169,0.651-0.169,0.651l0.169,1.012c0,0,0.333,0.985,0.132,1.181
								c-0.302,0.318-0.662,0.556-0.662,0.556l-0.683-0.752l-0.164-0.498l0.572-0.715l-0.482-1.054c0,0,0.074-0.636,0.286-0.938
								c0.35-0.244,0.757-0.726,0.757-0.726s0.577-1.213,0.847-1.213c0.302-0.18,0.53-0.317,0.694-0.556
								c0.472-0.212,0.472-0.911,0.789-1.319c0.344-0.376,0.604-0.132,0.938-0.662c0.318-0.302,0.117-1.424,0.318-1.604
								c0.318-0.466,1.07-0.35,1.313-0.514c0.122-0.212,0.196-0.53,0.423-1.192c0.148-0.625,0.498-0.911,0.832-0.911
								c0.254-0.286,0.424-0.286,0.8-0.752c0.408-0.397,0.365-1.149,0.651-1.255c0.318-0.201,1.769-0.201,1.949-0.423
								c0.408-0.169,0.863,0.222,0.985-0.169C302.473,109.297,302.589,109.297,302.668,108.995z"/>
							<path fill="#FFFFFF" d="M274.113,138.864c0.196-0.302,0.694-0.514,0.98-0.328c0.169,0,0.529,0.026,0.529,0.196
								c0,0.376-0.18,0.466-0.27,0.726c-0.09,0.238-0.228,0.572-0.259,0.726c-0.122,0.042-0.456,0.408-0.62,0.318
								c-0.165,0-0.71-0.275-0.588-0.742C273.885,139.288,274.007,139.107,274.113,138.864z"/>
							<path fill="#FFFFFF" d="M273.763,142.327c0.122,0,0.545,0,0.545,0l-0.423,0.562c0,0,0,0.344-0.08,0.646
								c-0.042,0.169-0.678,0.487-0.678,0c0-0.646,0-0.646,0.164-0.726C273.292,142.523,273.292,142.449,273.763,142.327z"/>
							<path fill="#FFFFFF" d="M297.86,114.074c0.106-0.09,0.757-0.244,0.757-0.244s0.122,0.503,0,0.741
								c-0.08,0.381-0.578,0.487-0.651,0.302C297.722,114.45,297.722,114.286,297.86,114.074z"/>
							<path fill="#FFFFFF" d="M212.008,390.7c-26.183,0-47.313-21.036-47.313-47.378c0-26.108,21.13-47.43,47.313-47.43
								c26.156,0,47.637,21.32,47.637,47.43C259.645,369.664,238.164,390.7,212.008,390.7z M137.664,272.357v142.015h148.825
								V272.357H137.664z"/>
							<path fill="#0085D0" d="M211.95,367.059c-12.864,0-23.583-10.57-23.583-23.735c0-12.996,10.719-23.599,23.583-23.599
								c13.166,0,23.826,10.603,23.826,23.599C235.776,356.488,225.115,367.059,211.95,367.059z"/>
							<path fill="#FFFFFF" d="M211.95,319.725c-12.864,0-23.583,10.603-23.583,23.599c0,13.166,10.719,23.735,23.583,23.735
								c13.166,0,23.826-10.57,23.826-23.735C235.776,330.326,225.115,319.725,211.95,319.725z"/>
						</g>
					</g>
				</g>
			</g>
		</g>
	</g>
</g>
</svg>
